<svg width="20" height="20" viewBox="0 0 20 20" fill="none" xmlns="http://www.w3.org/2000/svg"><path d="M5.833 11.25H4.168a.833.833 0 0 0-.833.833V15c0 .46.373.833.833.833h1.667c.46 0 .833-.373.833-.833v-2.917a.833.833 0 0 0-.833-.833ZM5.833 4.167H4.168c-.46 0-.833.349-.833.779v4.283c0 .43.373.779.833.779h1.667c.46 0 .833-.349.833-.78V4.947c0-.43-.373-.779-.833-.779ZM10.834 8.414H9.167c-.46 0-.833.35-.833.781v5.857c0 .432.373.781.833.781h1.667c.46 0 .833-.35.833-.78V9.194c0-.431-.373-.78-.833-.78ZM10.834 4.167H9.167A.833.833 0 0 0 8.334 5v1.25c0 .46.373.834.833.834h1.667c.46 0 .833-.373.833-.834V5a.833.833 0 0 0-.833-.833ZM15.834 4.167h-1.667a.833.833 0 0 0-.833.833v10c0 .46.373.834.833.834h1.667c.46 0 .833-.373.833-.834V5a.833.833 0 0 0-.834-.833Z" fill="currentColor"/></svg>
