<svg width="20" height="20" viewBox="0 0 20 20" fill="none" xmlns="http://www.w3.org/2000/svg"><path d="M5.833 8.333a2.5 2.5 0 1 0 0-5 2.5 2.5 0 0 0 0 5ZM14.166 16.667a2.5 2.5 0 1 0 0-5 2.5 2.5 0 0 0 0 5ZM5.833 16.667a2.5 2.5 0 1 0 0-5 2.5 2.5 0 0 0 0 5Z" stroke="currentColor" stroke-width="1.667"/><path fill-rule="evenodd" clip-rule="evenodd" d="M14.166 3.333a.833.833 0 0 0-.833.833V5H12.5a.833.833 0 0 0 0 1.666h.833V7.5A.833.833 0 1 0 15 7.5v-.834h.833a.833.833 0 0 0 0-1.666H15v-.834a.833.833 0 0 0-.834-.833Z" fill="currentColor"/></svg>