<svg width="20" height="20" viewBox="0 0 20 20" fill="none" xmlns="http://www.w3.org/2000/svg"><path d="M5.833 11.25H4.168a.833.833 0 0 0-.833.833V15c0 .46.373.833.833.833h1.667c.46 0 .833-.373.833-.833v-2.917a.833.833 0 0 0-.833-.833ZM10.834 7.917H9.167a.833.833 0 0 0-.833.833V15c0 .46.373.834.833.834h1.667c.46 0 .833-.373.833-.834V8.75a.833.833 0 0 0-.833-.833ZM15.834 4.167h-1.667a.833.833 0 0 0-.833.833v10c0 .46.373.834.833.834h1.667c.46 0 .833-.373.833-.834V5a.833.833 0 0 0-.834-.833Z" fill="currentColor"/></svg>
