<svg width="20" height="20" viewBox="0 0 20 20" fill="none" xmlns="http://www.w3.org/2000/svg"><path d="M8.75 5.833V4.166a.833.833 0 0 0-.833-.833H5a.833.833 0 0 0-.833.833v1.667c0 .46.373.833.833.833h2.917c.46 0 .833-.373.833-.833ZM15.834 5.833V4.166c0-.46-.348-.833-.776-.833h-4.265c-.429 0-.776.373-.776.833v1.667c0 .46.347.833.776.833h4.265c.428 0 .776-.373.776-.833ZM11.69 10.833V9.166c0-.46-.355-.833-.792-.833h-5.94c-.437 0-.791.373-.791.833v1.667c0 .46.354.833.792.833h5.939c.437 0 .792-.373.792-.833ZM15.834 10.833V9.166A.833.833 0 0 0 15 8.333h-1.25a.833.833 0 0 0-.833.833v1.667c0 .46.373.833.833.833H15c.46 0 .834-.373.834-.833ZM15.834 15.833v-1.667a.833.833 0 0 0-.834-.833H5a.833.833 0 0 0-.833.833v1.667c0 .46.373.833.833.833h10c.46 0 .834-.373.834-.833Z" fill="currentColor"/></svg>
