<svg width="20" height="20" viewBox="0 0 20 20" fill="none" xmlns="http://www.w3.org/2000/svg"><path fill-rule="evenodd" clip-rule="evenodd" d="M3.75 3.947V3.75h8.125l-.394.976a5.267 5.267 0 0 0-3.476.94L3.75 3.946Zm0 1.124v5.617l2.245.907A5.29 5.29 0 0 1 5.75 10c0-1.373.523-2.623 1.38-3.564L3.75 5.071Zm2.928 7.923L3.75 11.811v4.439h3.074l.87-2.152a5.324 5.324 0 0 1-1.016-1.104Zm1.902 1.691-.632 1.565h8.302v-1.635l-1.674-.677a5.272 5.272 0 0 1-3.534 1.353c-.89 0-1.727-.219-2.462-.606Zm6.74-1.57.93.376v-2.55a5.265 5.265 0 0 1-.93 2.174ZM12.527 4.92a5.299 5.299 0 0 1 3.723 4.14V3.75H13l-.473 1.17ZM3.542 2.5c-.576 0-1.042.466-1.042 1.042v12.916c0 .576.466 1.042 1.042 1.042h12.916c.576 0 1.042-.466 1.042-1.042V3.542c0-.576-.466-1.042-1.042-1.042H3.542Zm7.5 4.982a2.517 2.517 0 1 0 0 5.035 2.517 2.517 0 0 0 0-5.035Zm0-1.774a4.292 4.292 0 1 0 0 8.583 4.292 4.292 0 0 0 0-8.583Z" fill="currentColor"/></svg>