<svg width="20" height="20" viewBox="0 0 20 20" fill="none" xmlns="http://www.w3.org/2000/svg"><path fill-rule="evenodd" clip-rule="evenodd" d="M3.75 3.75v.197l6.916 2.794.39-.965.82-2.026H3.75Zm0 6.938V5.07l6.526 2.636-1.17 2.898h-.001l-.39.966-.39.965-.965-.39-3.61-1.458Zm0 5.562v-4.439l4.184 1.69-1.11 2.749H3.75Zm12.5 0H7.948l.952-2.358h.002l.39-.965.39-.966.21.085a2.083 2.083 0 0 0 3.86 1.56l2.498 1.01v1.634Zm-2.314-3.694 2.314.935V3.75H13l-1.367 3.382-.39.966-1.17 2.897.415.168a2.084 2.084 0 0 1 3.448 1.393ZM2.5 3.542c0-.576.466-1.042 1.042-1.042h12.916c.576 0 1.042.466 1.042 1.042v12.916c0 .576-.466 1.042-1.042 1.042H3.542A1.042 1.042 0 0 1 2.5 16.458V3.542Zm12.038 5.135a1.563 1.563 0 1 0 0-3.125 1.563 1.563 0 0 0 0 3.125ZM6.85 10.24a1.563 1.563 0 1 0 0-3.126 1.563 1.563 0 0 0 0 3.125Z" fill="currentColor"/></svg>