<svg width="20" height="20" viewBox="0 0 20 20" fill="none" xmlns="http://www.w3.org/2000/svg"><path d="M8.75 5.833V4.166a.833.833 0 0 0-.833-.833H5a.833.833 0 0 0-.833.833v1.667c0 .46.373.833.833.833h2.917c.46 0 .833-.373.833-.833ZM12.084 10.833V9.166a.833.833 0 0 0-.834-.833H5a.833.833 0 0 0-.833.833v1.667c0 .46.373.833.833.833h6.25c.46 0 .834-.373.834-.833ZM15.834 15.833v-1.667a.833.833 0 0 0-.834-.833H5a.833.833 0 0 0-.833.833v1.667c0 .46.373.833.833.833h10c.46 0 .834-.373.834-.833Z" fill="currentColor"/></svg>
