<svg width="20" height="20" viewBox="0 0 20 20" fill="none" xmlns="http://www.w3.org/2000/svg"><path fill-rule="evenodd" clip-rule="evenodd" d="M1.667 15.993V15l3.98-5.428a.833.833 0 0 1 1.289-.068l.668.735a.833.833 0 0 0 1.317-.109l2.964-4.594a.833.833 0 0 1 1.34-.082l.684.82a.833.833 0 0 0 1.306-.034l3.118-4.157v4.726l-3.92 4.15-.268-.141a2.833 2.833 0 0 0-3.034.247l-2.92 2.213-.693-.22a2.833 2.833 0 0 0-2.53.419h-.001l-.01.008-3.29 2.508Zm.497 1.507h16.17V8.993l-3.221 3.41a.75.75 0 0 1-.896.149l-.772-.408a1.333 1.333 0 0 0-1.428.116l-3.228 2.447a.75.75 0 0 1-.68.118l-1.063-.336a1.333 1.333 0 0 0-1.186.193L2.164 17.5Z" fill="currentColor"/></svg>
