<svg width="20" height="20" viewBox="0 0 20 20" fill="none" xmlns="http://www.w3.org/2000/svg"><path fill-rule="evenodd" clip-rule="evenodd" d="M3.75 3.947V3.75h8.125l-.818 2.026-.39.965L3.75 3.947Zm0 1.124v5.616l3.61 1.46.964.389.39-.965.391-.966 1.17-2.897L3.75 5.071Zm0 6.74v4.439h3.074l1.11-2.748-4.184-1.69Zm4.197 4.439h8.303v-1.635l-5.604-2.264-.964-.39-.39.966-.39.965H8.9l-.953 2.358Zm8.303-2.759V3.75H13l-1.367 3.381-.39.966-1.171 2.898.966.39 5.212 2.106ZM3.542 2.5A1.042 1.042 0 0 0 2.5 3.542v12.916A1.042 1.042 0 0 0 3.542 17.5h12.916a1.041 1.041 0 0 0 1.042-1.042V3.542A1.041 1.041 0 0 0 16.458 2.5H3.542Z" fill="currentColor"/></svg>