<svg width="20" height="20" viewBox="0 0 20 20" fill="none" xmlns="http://www.w3.org/2000/svg"><path d="M2.083 4.167h3.333c.23 0 .417.187.417.417v.833c0 .23-.186.417-.417.417H2.083a.417.417 0 0 1-.417-.417v-.833c0-.23.187-.417.417-.417Zm5.833 0h3.334c.23 0 .416.187.416.417v.833c0 .23-.186.417-.416.417H7.917a.417.417 0 0 1-.417-.417v-.833c0-.23.186-.417.417-.417Zm5.834 0h3.333c.23 0 .417.187.417.417v.833c0 .23-.187.417-.417.417H13.75a.417.417 0 0 1-.417-.417v-.833c0-.23.187-.417.417-.417ZM2.083 7.5h3.333c.23 0 .417.187.417.417v2.5c0 .23-.186.416-.417.416H2.083a.417.417 0 0 1-.417-.416v-2.5c0-.23.187-.417.417-.417Zm5.833 0h3.334c.23 0 .416.187.416.417v2.5c0 .23-.186.416-.416.416H7.917a.417.417 0 0 1-.417-.416v-2.5c0-.23.186-.417.417-.417Zm5.834 0h3.333c.23 0 .417.187.417.417v2.5c0 .23-.187.416-.417.416H13.75a.417.417 0 0 1-.417-.416v-2.5c0-.23.187-.417.417-.417ZM2.083 12.5h3.333c.23 0 .417.187.417.417v2.5c0 .23-.186.416-.417.416H2.083a.417.417 0 0 1-.417-.416v-2.5c0-.23.187-.417.417-.417Zm5.833 0h3.334c.23 0 .416.187.416.417v2.5c0 .23-.186.416-.416.416H7.917a.417.417 0 0 1-.417-.416v-2.5c0-.23.186-.417.417-.417Zm5.834 0h3.333c.23 0 .417.187.417.417v2.5c0 .23-.187.416-.417.416H13.75a.417.417 0 0 1-.417-.416v-2.5c0-.23.187-.417.417-.417Z" fill="currentColor"/></svg>