<svg width="20" height="20" viewBox="0 0 20 20" fill="none" xmlns="http://www.w3.org/2000/svg"><path d="M2.584 15.376a.75.75 0 1 0 .832 1.248l-.832-1.248Zm1.788-.29.416.623-.416-.624Zm3.484-.467.237-.712-.237.712Zm1.41.47-.238.71.237-.71Zm4.464-1.395.6.45-.6-.45Zm1.87-1.244a.75.75 0 1 0-1.2-.9l1.2.9ZM3.416 16.624l1.372-.915-.832-1.248-1.372.915.832 1.248Zm1.373-.915a3.25 3.25 0 0 1 2.83-.379l.474-1.423a4.75 4.75 0 0 0-4.137.554l.833 1.248Zm2.83-.379 1.409.47.474-1.423-1.409-.47-.474 1.423Zm1.409.47a4.75 4.75 0 0 0 5.302-1.656l-1.2-.9a3.25 3.25 0 0 1-3.628 1.133L9.028 15.8Zm5.302-1.656 1.27-1.694-1.2-.9-1.27 1.694 1.2.9ZM3.722 10H2.338V5.816L1.202 6.888V5.696L2.538 4.44h1.184V10Zm1.574.064a.674.674 0 0 1-.496-.2.674.674 0 0 1-.2-.496.683.683 0 0 1 .696-.704c.192 0 .355.067.488.2a.67.67 0 0 1 .208.504.66.66 0 0 1-.208.496.664.664 0 0 1-.488.2ZM10.361 10H6.53v-.816c.411-.347.766-.653 1.064-.92.3-.267.544-.512.736-.736a2.66 2.66 0 0 0 .432-.656 1.53 1.53 0 0 0 .144-.648c0-.31-.082-.547-.248-.712-.165-.165-.41-.248-.736-.248-.154 0-.298.019-.432.056a1.69 1.69 0 0 0-.36.144 1.563 1.563 0 0 0-.288.184 2.45 2.45 0 0 0-.2.176v-.928c.043-.048.107-.101.192-.16.091-.059.206-.115.344-.168.14-.059.302-.107.488-.144.192-.037.414-.056.664-.056.326 0 .611.043.856.128.251.08.46.197.624.352.171.15.3.33.384.544.086.208.128.443.128.704 0 .304-.053.59-.16.856a3.057 3.057 0 0 1-.456.76c-.192.24-.429.477-.712.712-.277.23-.589.467-.936.712h2.304V10Zm6.874-4.008-1.288 3.336h-1l-1.28-3.416V10h-1.032V4.44h1.688l1.312 3.384 1.288-3.384h1.736V10h-1.424V5.992Z" fill="currentColor"/></svg>