<svg width="20" height="20" viewBox="0 0 20 20" fill="none" xmlns="http://www.w3.org/2000/svg"><path d="m3.198 8.929-1.514.999-.892-.586a.833.833 0 0 1 .915-1.393l1.491.98Zm3.034 1.992 3.59 2.358c.13.085.297.091.433.015l8.088-4.53a.833.833 0 1 1 .814 1.454l-8.087 4.53c-.679.38-1.512.351-2.162-.076l-4.19-2.752 1.514-1Z" fill="currentColor"/><path d="M1.709 12.906a.833.833 0 1 1-.918-1.39l5.402-3.564a2.083 2.083 0 0 1 1.564-.303l4.642.95a.417.417 0 0 0 .388-.124l5.355-5.712a.833.833 0 0 1 1.216 1.14l-5.356 5.712a2.083 2.083 0 0 1-1.937.616l-4.642-.949a.417.417 0 0 0-.313.06L1.71 12.907Z" fill="currentColor"/></svg>