<svg width="24" height="24" viewBox="0 0 24 24" fill="none" xmlns="http://www.w3.org/2000/svg">
<path fill-rule="evenodd" clip-rule="evenodd" d="M10.1595 6C6.75769 6 4 8.75769 4 12.1595C4 15.5613 6.75769 18.319 10.1595 18.319C11.055 18.319 11.9059 18.1278 12.6736 17.7842H12.6233C11.3707 17.7842 10.3552 16.7687 10.3552 15.5161V8.83674C10.3552 7.58412 11.3707 6.56866 12.6233 6.56866H12.748C11.961 6.2037 11.084 6 10.1595 6ZM16.319 12.1595C16.319 11.1069 16.0549 10.116 15.5895 9.24938C15.4401 8.98598 15.271 8.73496 15.0842 8.49825H12.6233C12.4364 8.49825 12.2848 8.6498 12.2848 8.83674V15.5161C12.2848 15.703 12.4364 15.8546 12.6233 15.8546H15.0582C15.2501 15.6149 15.4237 15.3604 15.5769 15.0929C16.0502 14.2208 16.319 13.2215 16.319 12.1595ZM2 12.1595C2 7.65312 5.65312 4 10.1595 4C13.1872 4 15.8298 5.64912 17.238 8.09814H19.5604C20.7313 8.09814 21.6806 9.04737 21.6806 10.2183V13.7817C21.6806 14.9527 20.7313 15.9019 19.5604 15.9019H17.412C16.0554 18.5256 13.3169 20.319 10.1595 20.319C5.65312 20.319 2 16.6658 2 12.1595ZM18.0872 14.0981H19.5604C19.7352 14.0981 19.8768 13.9565 19.8768 13.7817V10.2183C19.8768 10.0436 19.7352 9.90189 19.5604 9.90189H18.0615C18.2562 10.5628 18.3606 11.262 18.3606 11.9847C18.3606 12.4621 18.3151 12.9293 18.228 13.382C18.1916 13.6243 18.1445 13.8632 18.0872 14.0981Z" fill="currentColor"/>
</svg>
