<svg width="24" height="24" viewBox="0 0 24 24" fill="none" xmlns="http://www.w3.org/2000/svg">
<path fill-rule="evenodd" clip-rule="evenodd" d="M2.14362 15C2.55965 13.1752 3.84468 11.6812 5.5403 10.9762C6.21878 10.6942 6.963 10.5385 7.74359 10.5385C8.52418 10.5385 9.2684 10.6942 9.94688 10.9762C11.6425 11.6812 12.9275 13.1752 13.3436 15C13.3543 15.0471 13.3645 15.0945 13.3741 15.1421C13.4952 15.083 13.6186 15.028 13.7441 14.977C14.4405 14.6942 15.2021 14.5385 16 14.5385C16.7979 14.5385 17.5595 14.6942 18.2559 14.977C19.9875 15.6801 21.3164 17.1684 21.8009 19C21.9308 19.491 22 20.0066 22 20.5385V21H10V20.5385C10 20.0066 10.0692 19.491 10.1991 19C10.3923 18.2693 10.72 17.5933 11.1539 17H2V16.2821C2 15.8413 2.04964 15.4122 2.14362 15ZM7.74359 9.46154C7.00189 9.46154 6.31857 9.21161 5.77325 8.79137C5.00669 8.20064 4.51282 7.27338 4.51282 6.23077C4.51282 4.44646 5.95929 3 7.74359 3C9.52789 3 10.9744 4.44646 10.9744 6.23077C10.9744 7.27338 10.4805 8.20064 9.71393 8.79137C9.1686 9.21161 8.48529 9.46154 7.74359 9.46154ZM7.74359 12.5385C9.36077 12.5385 10.7384 13.5639 11.2619 15H4.22529C4.74873 13.5639 6.12641 12.5385 7.74359 12.5385ZM8.97436 6.23077C8.97436 6.9105 8.42332 7.46154 7.74359 7.46154C7.06385 7.46154 6.51282 6.9105 6.51282 6.23077C6.51282 5.55103 7.06385 5 7.74359 5C8.42332 5 8.97436 5.55103 8.97436 6.23077ZM16 13.4615C15.2317 13.4615 14.5234 13.2158 13.9561 12.8019C13.1471 12.2117 12.625 11.2796 12.625 10.2308C12.625 8.44646 14.136 7 16 7C17.864 7 19.375 8.44646 19.375 10.2308C19.375 11.2796 18.8529 12.2117 18.0439 12.8019C17.4766 13.2158 16.7683 13.4615 16 13.4615ZM16 16.5385C17.664 16.5385 19.0906 17.5545 19.6934 19H12.3066C12.9094 17.5545 14.336 16.5385 16 16.5385ZM17.375 10.2308C17.375 10.8291 16.8426 11.4615 16 11.4615C15.1574 11.4615 14.625 10.8291 14.625 10.2308C14.625 9.63246 15.1574 9 16 9C16.8426 9 17.375 9.63246 17.375 10.2308Z" fill="currentColor"/>
</svg>
