<svg width="24" height="24" viewBox="0 0 24 24" fill="none" xmlns="http://www.w3.org/2000/svg">
<path fill-rule="evenodd" clip-rule="evenodd" d="M12 8.49999C10.067 8.49999 8.50002 10.067 8.50002 12C8.50002 13.933 10.067 15.5 12 15.5C13.933 15.5 15.5 13.933 15.5 12C15.5 10.067 13.933 8.49999 12 8.49999ZM10.5 12C10.5 11.1716 11.1716 10.5 12 10.5C12.8285 10.5 13.5 11.1716 13.5 12C13.5 12.8284 12.8285 13.5 12 13.5C11.1716 13.5 10.5 12.8284 10.5 12Z" fill="currentColor"/>
<path fill-rule="evenodd" clip-rule="evenodd" d="M15.0503 4.63604L12 1.58578L8.94978 4.63604H4.63606V8.94975L1.58582 12L4.63606 15.0502V19.364H8.94978L12 22.4142L15.0503 19.364H19.364V15.0503L22.4142 12L19.364 8.94974V4.63604H15.0503ZM9.77821 6.63604L12 4.41421L14.2219 6.63604H17.364V9.77817L19.5858 12L17.364 14.2218V17.364H14.2219L12 19.5858L9.7782 17.364H6.63606V14.2218L4.41424 12L6.63606 9.77818V6.63604H9.77821Z" fill="currentColor"/>
</svg>
