<svg width="24" height="24" viewBox="0 0 24 24" fill="none" xmlns="http://www.w3.org/2000/svg">
<path fill-rule="evenodd" clip-rule="evenodd" d="M6 6.17071V3H4V6.17071C2.83481 6.58254 2 7.69378 2 9C2 10.3062 2.83481 11.4175 4 11.8293V21H6V11.8293C7.16519 11.4175 8 10.3062 8 9C8 7.69378 7.16519 6.58254 6 6.17071ZM4 9C4 8.44772 4.44772 8 5 8C5.55228 8 6 8.44772 6 9C6 9.55228 5.55228 10 5 10C4.44772 10 4 9.55228 4 9Z" fill="currentColor"/>
<path fill-rule="evenodd" clip-rule="evenodd" d="M11 13.1707C9.83481 13.5825 9 14.6938 9 16C9 17.3062 9.83481 18.4175 11 18.8293V21H13V18.8293C14.1652 18.4175 15 17.3062 15 16C15 14.6938 14.1652 13.5825 13 13.1707V3H11V13.1707ZM11 16C11 15.4477 11.4477 15 12 15C12.5523 15 13 15.4477 13 16C13 16.5523 12.5523 17 12 17C11.4477 17 11 16.5523 11 16Z" fill="currentColor"/>
<path fill-rule="evenodd" clip-rule="evenodd" d="M20 8.17071V3H18V8.17071C16.8348 8.58254 16 9.69378 16 11C16 12.3062 16.8348 13.4175 18 13.8293V21H20V13.8293C21.1652 13.4175 22 12.3062 22 11C22 9.69378 21.1652 8.58254 20 8.17071ZM18 11C18 10.4477 18.4477 10 19 10C19.5523 10 20 10.4477 20 11C20 11.5523 19.5523 12 19 12C18.4477 12 18 11.5523 18 11Z" fill="currentColor"/>
</svg>
