<svg width="230" height="230" fill="none" xmlns="http://www.w3.org/2000/svg"><g filter="url(#a)"><mask id="b" style="mask-type:alpha" maskUnits="userSpaceOnUse" x="33" y="93" width="44" height="44"><path d="M74.002 93.5a2.5 2.5 0 0 1 2.5 2.5v38.002a2.5 2.5 0 0 1-2.5 2.5H36a2.5 2.5 0 0 1-2.5-2.5V96a2.5 2.5 0 0 1 2.5-2.5h38.002z" fill="#000"/></mask><g mask="url(#b)"><mask id="c" style="mask-type:alpha" maskUnits="userSpaceOnUse" x="-11" y="70" width="169" height="95"><path fill="#fff" d="M-10.968 70.024h168.243v94.637H-10.968z"/></mask><g mask="url(#c)"><path fill="#fff" d="M-10.968 70.024h168.243v94.637H-10.968z"/><g filter="url(#d)"><path d="M54.033 134.878c27.37 6.442 51.761 10.284 49.178 21.26-2.584 10.976-26.865 14.652-54.235 8.21-27.37-6.442-45.423-26.067-42.84-37.043 2.584-10.976 20.528 1.131 47.897 7.573z" fill="#AAA"/></g><g filter="url(#e)"><path d="M62.362 110.068c26.365-30.145 46.492-59.135 64.563-43.329 18.072 15.806 11.348 53.056-15.018 83.202-26.365 30.145-71.046 32.828-89.118 17.022-18.071-15.806 13.207-26.749 39.573-56.895z" fill="#AAA"/></g><g filter="url(#f)"><path d="M51.797 143.598c33.985 21.187 65.829 36.401 53.128 56.774-12.702 20.374-50.548 19.715-84.534-1.472-33.985-21.187-43.803-64.858-31.101-85.232 12.7-20.374 28.521 8.743 62.507 29.93z" fill="#AAA"/></g><g filter="url(#g)"><path d="M21.273 150.821c27.37 6.442 51.76 10.284 49.177 21.26-2.583 10.976-26.865 14.652-54.234 8.21-27.37-6.442-45.424-26.067-42.84-37.043 2.583-10.976 20.527 1.131 47.897 7.573z" fill="#AAA"/></g><g filter="url(#h)"><path d="M193.919 113.663c29.607 29.607 27.852 97.777 9.903 115.726-17.949 17.949-56.5 8.499-86.107-21.108s-29.023-76.669-11.074-94.618c17.949-17.949 57.671-29.606 87.278 0z" fill="url(#i)"/></g><g filter="url(#j)"><path d="M-13.25 167.295c20.935 36.261 87.237 52.21 109.22 39.518 21.982-12.692 22.832-52.376 1.897-88.636C76.93 81.916 31.322 70.3 9.339 82.991c-21.983 12.692-43.524 48.044-22.59 84.304z" fill="url(#k)"/></g><g filter="url(#l)"><path d="M114.317 117.043c27.369 6.442 51.761 10.284 49.177 21.26-2.583 10.976-26.865 14.651-54.234 8.209-27.37-6.442-45.424-26.067-42.84-37.043 2.583-10.976 20.527 1.132 47.897 7.574z" fill="#AAA"/></g></g><path d="M75.502 96a1.5 1.5 0 0 0-1.5-1.5H36a1.5 1.5 0 0 0-1.5 1.5v38.002a1.5 1.5 0 0 0 1.5 1.5h38.002a1.5 1.5 0 0 0 1.5-1.5V96zm1 38.002a2.5 2.5 0 0 1-2.5 2.5H36a2.5 2.5 0 0 1-2.5-2.5V96a2.5 2.5 0 0 1 2.5-2.5h38.002a2.5 2.5 0 0 1 2.5 2.5v38.002z" fill="url(#m)"/></g></g><path d="M55 87.5c-11.322 0-20.5-9.178-20.5-20.5S43.678 46.5 55 46.5 75.5 55.678 75.5 67 66.322 87.5 55 87.5zm-.001-13.526a6.975 6.975 0 1 1 0-13.95 6.975 6.975 0 0 1 0 13.95zM55 88.5c11.874 0 21.5-9.626 21.5-21.5S66.874 45.5 55 45.5 33.5 55.126 33.5 67 43.126 88.5 55 88.5zm-.001-13.526a7.975 7.975 0 1 0 0-15.95 7.975 7.975 0 0 0 0 15.95z" fill="#000"/><g filter="url(#n)"><mask id="o" style="mask-type:alpha" maskUnits="userSpaceOnUse" x="81" y="66" width="118" height="117"><path d="M154.196 68.244a2.5 2.5 0 0 1 4.04-.52l14.757 15.95a1.5 1.5 0 0 0 1.895.255l19.789-12.35c1.665-1.039 3.823.158 3.823 2.121v106.301a2.5 2.5 0 0 1-2.5 2.5H84a2.5 2.5 0 0 1-2.5-2.5v-62.898c0-.862.445-1.664 1.177-2.121l20.686-12.91a2.504 2.504 0 0 1 2.648 0l21.226 13.247a1.5 1.5 0 0 0 2.118-.566l24.841-46.509z" fill="#000"/></mask><g mask="url(#o)"><mask id="p" style="mask-type:alpha" maskUnits="userSpaceOnUse" x="44" y="53" width="295" height="167"><rect x="44.077" y="53.731" width="294.462" height="165.635" rx="2" fill="#fff"/></mask><g mask="url(#p)"><rect x="44.076" y="53.731" width="294.462" height="165.635" rx="2" fill="#fff"/><g filter="url(#q)"><path d="M155.427 173.768c36.072 40.446 70.32 73.493 54.1 87.959-16.22 14.466-58.611-6.594-94.682-47.04-36.072-40.446-42.858-91.393-26.638-105.859 16.221-14.466 31.149 24.495 67.22 64.94z" fill="#FFB433"/></g><g filter="url(#r)"><path d="M289.997 222.72c39.815-36.766 80.637-62.515 44.311-101.853-36.327-39.338-98.051-41.422-137.866-4.655-39.815 36.767-22.852 117.838 13.475 157.176 36.326 39.338 40.265-13.901 80.08-50.668z" fill="#FFB433"/></g><g filter="url(#s)"><path d="M158.52 19.112c42.239 33.955 83.475 58.406 57.568 90.633-25.906 32.228-81.149 30.828-123.388-3.127C50.46 72.664 51.692 3.237 77.6-28.991c25.906-32.227 38.681 14.148 80.92 48.103z" fill="#FFB433"/></g><g filter="url(#t)"><path d="M225.944 111.756c38.322-38.321 68.18-75.58 90.751-53.01 22.57 22.571 9.802 71.934-28.519 110.255s-98.358 38.443-120.929 15.872c-22.571-22.57 20.376-34.796 58.697-73.117z" fill="#FFB433"/></g><g filter="url(#u)"><path d="M301.919 142.013c-38.321 38.321-68.18 75.58-90.75 53.009-22.571-22.57-9.803-71.933 28.518-110.254 38.322-38.322 98.358-38.443 120.929-15.873 22.571 22.571-20.376 34.796-58.697 73.118z" fill="#FFB433"/></g><g filter="url(#v)"><path d="M278.216 18.05C241.384-45.303 125.258-72.868 86.85-50.54c-38.407 22.33-39.685 91.789-2.853 155.143 36.832 63.353 116.72 83.444 155.127 61.115 38.408-22.329 75.924-84.316 39.092-147.67z" fill="url(#w)"/></g><g filter="url(#x)"><path d="M232.019 142.571c-38.321 38.321-68.179 75.58-90.75 53.01-22.571-22.571-9.802-71.934 28.519-110.255s98.358-38.443 120.929-15.872c22.57 22.57-20.376 34.796-58.698 73.117z" fill="#FFB433"/></g><g filter="url(#y)"><path d="M231.968 151.859c-51.819 51.819-48.747 171.132-17.332 202.546 31.414 31.415 98.887 14.874 150.706-36.944 51.818-51.818 50.795-134.187 19.381-165.602-31.415-31.414-100.937-51.818-152.755 0z" fill="url(#z)"/></g><g filter="url(#A)"><path d="M147.63 287.556C110.989 351.02-5.054 378.934-43.528 356.72c-38.475-22.213-39.962-91.668-3.32-155.132 36.64-63.465 116.467-83.796 154.942-61.582 38.475 22.213 76.177 84.086 39.536 147.55z" fill="url(#B)"/></g></g></g></g><path d="M197.5 73.7a1.5 1.5 0 0 0-2.294-1.273l-19.788 12.35a2.5 2.5 0 0 1-3.159-.424l-14.756-15.95a1.5 1.5 0 0 0-2.425.31l-24.841 46.511a2.5 2.5 0 0 1-3.529.943l-21.227-13.248a1.499 1.499 0 0 0-1.587 0L83.206 115.83a1.5 1.5 0 0 0-.706 1.273V180a1.5 1.5 0 0 0 1.5 1.5h112a1.5 1.5 0 0 0 1.5-1.5V73.7zm1 106.3a2.5 2.5 0 0 1-2.5 2.5H84a2.5 2.5 0 0 1-2.5-2.5v-62.897c0-.863.445-1.665 1.177-2.122l20.686-12.91a2.504 2.504 0 0 1 2.648 0l21.226 13.247a1.5 1.5 0 0 0 2.118-.566l24.841-46.509a2.5 2.5 0 0 1 4.04-.52l14.757 15.95a1.5 1.5 0 0 0 1.895.255l19.789-12.35c1.665-1.039 3.823.159 3.823 2.121V180z" fill="url(#C)"/><path d="M160.196 167.872a2 2 0 0 1-1.975-2.316l.382-2.389c.055-.341.197-.663.413-.933l22.42-28.06a1.998 1.998 0 0 1 1.562-.751h3.156l-.637 3.846-.365 2.202a1.966 1.966 0 0 1-1.94 1.644c-.598 0-1.163.272-1.536.74l-16.079 20.138a.248.248 0 0 0 .194.402h22.733a2 2 0 0 1 1.973 2.324l-.242 1.477a2 2 0 0 1-1.974 1.676h-28.085zm18.888 8.362a2 2 0 0 1-1.973-2.326l1.267-7.666.46-2.321 4.072-26.634.045-1.911a2 2 0 0 1 1.999-1.953h2.687a1.999 1.999 0 0 1 1.973 2.327l-6.443 38.811a2 2 0 0 1-1.973 1.673h-2.114z" fill="url(#D)"/><path d="M139.429 176.945c-3.303 0-5.979-.864-8.027-2.592-2.049-1.742-3.414-4.265-4.097-7.568-.683-3.302-.648-7.281.104-11.936.767-4.64 2.042-8.605 3.826-11.894 1.797-3.289 4.006-5.797 6.626-7.525 2.634-1.728 5.588-2.592 8.863-2.592 3.261 0 5.923.871 7.986 2.613 2.062 1.728 3.449 4.229 4.159 7.504.725 3.275.697 7.24-.083 11.894-.781 4.669-2.063 8.648-3.846 11.936-1.784 3.289-3.993 5.805-6.627 7.547s-5.595 2.613-8.884 2.613zm.92-5.582c2.912 0 5.421-1.414 7.525-4.243 2.104-2.829 3.602-6.919 4.494-12.271.586-3.553.704-6.556.356-9.009-.335-2.467-1.094-4.334-2.279-5.602-1.17-1.282-2.717-1.924-4.64-1.924-2.871 0-5.366 1.429-7.484 4.286-2.104 2.843-3.595 6.926-4.473 12.249-.6 3.568-.732 6.585-.398 9.052.335 2.452 1.087 4.313 2.258 5.581 1.171 1.254 2.718 1.881 4.641 1.881z" fill="url(#E)"/><path d="M94.279 167.872a2 2 0 0 1-1.975-2.316l.382-2.389c.055-.341.197-.663.413-.933l22.42-28.06a1.998 1.998 0 0 1 1.562-.751h3.156l-1.002 6.048a1.966 1.966 0 0 1-1.94 1.644c-.598 0-1.163.272-1.536.74L99.68 161.993a.248.248 0 0 0 .194.402h22.733a2 2 0 0 1 1.973 2.324l-.242 1.477a2 2 0 0 1-1.974 1.676H94.279zm18.888 8.362a2 2 0 0 1-1.973-2.326l1.267-7.666.46-2.321 4.761-28.824a2 2 0 0 1 1.974-1.674h2.068a1.999 1.999 0 0 1 1.973 2.327l-6.443 38.811a2 2 0 0 1-1.973 1.673h-2.114z" fill="url(#F)"/><defs><filter id="v" x="-42.813" y="-158.199" width="436.106" height="432.718" filterUnits="userSpaceOnUse" color-interpolation-filters="sRGB"><feFlood flood-opacity="0" result="BackgroundImageFix"/><feBlend in="SourceGraphic" in2="BackgroundImageFix" result="shape"/><feGaussianBlur stdDeviation="50" result="effect1_foregroundBlur_35_9"/></filter><filter id="a" x="33.5" y="93.5" width="43.387" height="43.387" filterUnits="userSpaceOnUse" color-interpolation-filters="sRGB"><feFlood flood-opacity="0" result="BackgroundImageFix"/><feBlend in="SourceGraphic" in2="BackgroundImageFix" result="shape"/><feColorMatrix in="SourceAlpha" values="0 0 0 0 0 0 0 0 0 0 0 0 0 0 0 0 0 0 127 0" result="hardAlpha"/><feOffset dx=".385" dy=".385"/><feGaussianBlur stdDeviation="1.923"/><feComposite in2="hardAlpha" operator="arithmetic" k2="-1" k3="1"/><feColorMatrix values="0 0 0 0 1 0 0 0 0 1 0 0 0 0 1 0 0 0 0.8 0"/><feBlend in2="shape" result="effect1_innerShadow_35_9"/></filter><filter id="e" x="-12.917" y="31.932" width="180.332" height="174.902" filterUnits="userSpaceOnUse" color-interpolation-filters="sRGB"><feFlood flood-opacity="0" result="BackgroundImageFix"/><feBlend in="SourceGraphic" in2="BackgroundImageFix" result="shape"/><feGaussianBlur stdDeviation="15.174" result="effect1_foregroundBlur_35_9"/></filter><filter id="f" x="-31.22" y="91.584" width="154.172" height="138.821" filterUnits="userSpaceOnUse" color-interpolation-filters="sRGB"><feFlood flood-opacity="0" result="BackgroundImageFix"/><feBlend in="SourceGraphic" in2="BackgroundImageFix" result="shape"/><feGaussianBlur stdDeviation="7.587" result="effect1_foregroundBlur_35_9"/></filter><filter id="g" x="-68.596" y="97.094" width="180.962" height="128.097" filterUnits="userSpaceOnUse" color-interpolation-filters="sRGB"><feFlood flood-opacity="0" result="BackgroundImageFix"/><feBlend in="SourceGraphic" in2="BackgroundImageFix" result="shape"/><feGaussianBlur stdDeviation="20.863" result="effect1_foregroundBlur_35_9"/></filter><filter id="h" x="-5.874" y="-4.43" width="322.71" height="342.911" filterUnits="userSpaceOnUse" color-interpolation-filters="sRGB"><feFlood flood-opacity="0" result="BackgroundImageFix"/><feBlend in="SourceGraphic" in2="BackgroundImageFix" result="shape"/><feGaussianBlur stdDeviation="50" result="effect1_foregroundBlur_35_9"/></filter><filter id="j" x="-121.772" y="-21.973" width="334.801" height="333.099" filterUnits="userSpaceOnUse" color-interpolation-filters="sRGB"><feFlood flood-opacity="0" result="BackgroundImageFix"/><feBlend in="SourceGraphic" in2="BackgroundImageFix" result="shape"/><feGaussianBlur stdDeviation="50" result="effect1_foregroundBlur_35_9"/></filter><filter id="l" x="41.139" y="80.007" width="147.58" height="94.716" filterUnits="userSpaceOnUse" color-interpolation-filters="sRGB"><feFlood flood-opacity="0" result="BackgroundImageFix"/><feBlend in="SourceGraphic" in2="BackgroundImageFix" result="shape"/><feGaussianBlur stdDeviation="12.518" result="effect1_foregroundBlur_35_9"/></filter><filter id="n" x="81.5" y="66.922" width="118.115" height="116.694" filterUnits="userSpaceOnUse" color-interpolation-filters="sRGB"><feFlood flood-opacity="0" result="BackgroundImageFix"/><feBlend in="SourceGraphic" in2="BackgroundImageFix" result="shape"/><feColorMatrix in="SourceAlpha" values="0 0 0 0 0 0 0 0 0 0 0 0 0 0 0 0 0 0 127 0" result="hardAlpha"/><feOffset dx="1.115" dy="1.115"/><feGaussianBlur stdDeviation="5.577"/><feComposite in2="hardAlpha" operator="arithmetic" k2="-1" k3="1"/><feColorMatrix values="0 0 0 0 1 0 0 0 0 1 0 0 0 0 1 0 0 0 0.8 0"/><feBlend in2="shape" result="effect1_innerShadow_35_9"/></filter><filter id="q" x="3.205" y="29.064" width="287.145" height="313.91" filterUnits="userSpaceOnUse" color-interpolation-filters="sRGB"><feFlood flood-opacity="0" result="BackgroundImageFix"/><feBlend in="SourceGraphic" in2="BackgroundImageFix" result="shape"/><feGaussianBlur stdDeviation="38.341" result="effect1_foregroundBlur_35_9"/></filter><filter id="r" x="127.511" y="43.935" width="266.898" height="289.313" filterUnits="userSpaceOnUse" color-interpolation-filters="sRGB"><feFlood flood-opacity="0" result="BackgroundImageFix"/><feBlend in="SourceGraphic" in2="BackgroundImageFix" result="shape"/><feGaussianBlur stdDeviation="23.005" result="effect1_foregroundBlur_35_9"/></filter><filter id="s" x="13.318" y="-85.881" width="256.837" height="264.919" filterUnits="userSpaceOnUse" color-interpolation-filters="sRGB"><feFlood flood-opacity="0" result="BackgroundImageFix"/><feBlend in="SourceGraphic" in2="BackgroundImageFix" result="shape"/><feGaussianBlur stdDeviation="23.005" result="effect1_foregroundBlur_35_9"/></filter><filter id="t" x="114.986" y="5.889" width="258.872" height="240.291" filterUnits="userSpaceOnUse" color-interpolation-filters="sRGB"><feFlood flood-opacity="0" result="BackgroundImageFix"/><feBlend in="SourceGraphic" in2="BackgroundImageFix" result="shape"/><feGaussianBlur stdDeviation="23.005" result="effect1_foregroundBlur_35_9"/></filter><filter id="u" x="154.005" y="7.589" width="258.872" height="240.291" filterUnits="userSpaceOnUse" color-interpolation-filters="sRGB"><feFlood flood-opacity="0" result="BackgroundImageFix"/><feBlend in="SourceGraphic" in2="BackgroundImageFix" result="shape"/><feGaussianBlur stdDeviation="23.005" result="effect1_foregroundBlur_35_9"/></filter><filter id="d" x="-35.835" y="81.151" width="180.962" height="128.097" filterUnits="userSpaceOnUse" color-interpolation-filters="sRGB"><feFlood flood-opacity="0" result="BackgroundImageFix"/><feBlend in="SourceGraphic" in2="BackgroundImageFix" result="shape"/><feGaussianBlur stdDeviation="20.863" result="effect1_foregroundBlur_35_9"/></filter><filter id="x" x="84.106" y="8.147" width="258.872" height="240.291" filterUnits="userSpaceOnUse" color-interpolation-filters="sRGB"><feFlood flood-opacity="0" result="BackgroundImageFix"/><feBlend in="SourceGraphic" in2="BackgroundImageFix" result="shape"/><feGaussianBlur stdDeviation="23.005" result="effect1_foregroundBlur_35_9"/></filter><filter id="y" x="91.858" y="20.191" width="414.77" height="450.125" filterUnits="userSpaceOnUse" color-interpolation-filters="sRGB"><feFlood flood-opacity="0" result="BackgroundImageFix"/><feBlend in="SourceGraphic" in2="BackgroundImageFix" result="shape"/><feGaussianBlur stdDeviation="50" result="effect1_foregroundBlur_35_9"/></filter><filter id="A" x="-173.386" y="31.318" width="435.932" height="432.952" filterUnits="userSpaceOnUse" color-interpolation-filters="sRGB"><feFlood flood-opacity="0" result="BackgroundImageFix"/><feBlend in="SourceGraphic" in2="BackgroundImageFix" result="shape"/><feGaussianBlur stdDeviation="50" result="effect1_foregroundBlur_35_9"/></filter><radialGradient id="m" cx="0" cy="0" r="1" gradientTransform="matrix(53.1887 22.8636 -22.864 53.1843 37.073 103.365)" gradientUnits="userSpaceOnUse"><stop stop-color="#fff"/><stop offset="1" stop-color="#fff" stop-opacity="0"/></radialGradient><radialGradient id="C" cx="0" cy="0" r="1" gradientTransform="matrix(-108 -53 53.0004 -107.991 204 150.5)" gradientUnits="userSpaceOnUse"><stop stop-color="#fff"/><stop offset="1" stop-color="#fff" stop-opacity="0"/></radialGradient><radialGradient id="D" cx="0" cy="0" r="1" gradientTransform="matrix(11.3852 -25.0126 15.1025 8.82433 170.855 156.166)" gradientUnits="userSpaceOnUse"><stop stop-color="#fff"/><stop offset="1" stop-color="#fff" stop-opacity=".5"/></radialGradient><radialGradient id="E" cx="0" cy="0" r="1" gradientTransform="matrix(11.2291 -25.7698 14.8955 9.09147 139.644 156.27)" gradientUnits="userSpaceOnUse"><stop stop-color="#fff"/><stop offset="1" stop-color="#fff" stop-opacity=".5"/></radialGradient><radialGradient id="F" cx="0" cy="0" r="1" gradientTransform="matrix(11.3852 -25.0126 15.1025 8.82433 104.938 156.166)" gradientUnits="userSpaceOnUse"><stop stop-color="#fff"/><stop offset="1" stop-color="#fff" stop-opacity=".5"/></radialGradient><linearGradient id="i" x1="98.645" y1="109.287" x2="134.333" y2="176.202" gradientUnits="userSpaceOnUse"><stop stop-color="#fff"/><stop offset="1" stop-color="#fff" stop-opacity="0"/></linearGradient><linearGradient id="k" x1="7.182" y1="74.135" x2="62.58" y2="125.926" gradientUnits="userSpaceOnUse"><stop stop-color="#AAA"/><stop offset="1" stop-color="#AAA" stop-opacity="0"/></linearGradient><linearGradient id="w" x1="242.947" y1="181.207" x2="145.716" y2="90.855" gradientUnits="userSpaceOnUse"><stop stop-color="#fff"/><stop offset="1" stop-color="#fff" stop-opacity="0"/></linearGradient><linearGradient id="z" x1="412.708" y1="179.845" x2="226.391" y2="366.161" gradientUnits="userSpaceOnUse"><stop stop-color="#fff"/><stop offset="1" stop-color="#fff" stop-opacity="0"/></linearGradient><linearGradient id="B" x1="111.87" y1="124.506" x2="14.911" y2="215.15" gradientUnits="userSpaceOnUse"><stop stop-color="#FFB433"/><stop offset="1" stop-color="#FFB433" stop-opacity="0"/></linearGradient></defs></svg>