<svg width="230" height="230" fill="none" xmlns="http://www.w3.org/2000/svg"><path d="M171.96 130.154a3.345 3.345 0 0 0-6.691 0l.003.172a3.347 3.347 0 0 0 6.688-.172zm21.537 0a3.345 3.345 0 0 0-6.691 0l.004.172a3.345 3.345 0 0 0 6.687-.172zm-32.306-.001a3.346 3.346 0 0 0-6.691 0l.004.172a3.346 3.346 0 0 0 6.687-.172zm21.538 0a3.345 3.345 0 0 0-3.346-3.345 3.345 3.345 0 0 0-3.346 3.345l.004.172a3.347 3.347 0 0 0 6.688-.172zm-10.769-10.768a3.346 3.346 0 1 0-6.691 0l.003.172a3.346 3.346 0 0 0 6.688-.172zm21.537-.001a3.347 3.347 0 0 0-3.174-3.342l-.172-.004a3.346 3.346 0 0 0 0 6.692l.172-.003a3.348 3.348 0 0 0 3.174-3.343zm-32.306 0a3.345 3.345 0 1 0-6.69-.002 3.345 3.345 0 0 0 6.69.002zm21.538 0a3.346 3.346 0 1 0-6.692 0 3.346 3.346 0 0 0 6.692 0zm-10.769-10.768a3.346 3.346 0 1 0-6.691 0l.003.172a3.347 3.347 0 0 0 6.688-.172zm-10.769-.001a3.346 3.346 0 1 0-6.691 0l.004.172a3.347 3.347 0 0 0 6.687-.172zm21.538 0a3.346 3.346 0 1 0-6.692 0l.004.172a3.347 3.347 0 0 0 6.688-.172zm10.768 0a3.348 3.348 0 0 0-3.174-3.343l-.172-.003a3.346 3.346 0 0 0-3.345 3.346l.004.172a3.345 3.345 0 0 0 3.341 3.174l.172-.004a3.347 3.347 0 0 0 3.174-3.342zm-10.768-10.768a3.346 3.346 0 1 0-6.692 0l.004.172a3.347 3.347 0 0 0 6.688-.172zm-21.538-.001a3.346 3.346 0 1 0-6.691 0 3.346 3.346 0 0 0 6.691 0zm10.769 0a3.346 3.346 0 1 0-6.692 0 3.346 3.346 0 0 0 6.692 0zm21.537 0a3.346 3.346 0 0 0-3.174-3.342l-.172-.004a3.346 3.346 0 0 0 0 6.691l.172-.003a3.347 3.347 0 0 0 3.174-3.342zm-20.537 32.308a4.346 4.346 0 1 1-8.693 0 4.346 4.346 0 0 1 8.693 0zm21.537 0a4.346 4.346 0 1 1-8.693 0 4.346 4.346 0 0 1 8.693 0zm-32.306-.001a4.345 4.345 0 1 1-8.69.001 4.345 4.345 0 0 1 8.69-.001zm21.538 0a4.347 4.347 0 0 1-8.692 0 4.345 4.345 0 0 1 8.692 0zm-10.769-10.768a4.345 4.345 0 1 1-8.69 0 4.345 4.345 0 0 1 8.69 0zm-10.769-.001a4.345 4.345 0 1 1-8.691 0 4.345 4.345 0 0 1 8.691 0zm21.538 0a4.345 4.345 0 1 1-8.69 0 4.345 4.345 0 0 1 8.69 0zm10.768 0a4.346 4.346 0 1 1-8.691 0 4.346 4.346 0 0 1 8.691 0zm-21.537-10.768a4.346 4.346 0 1 1-8.693 0 4.346 4.346 0 0 1 8.693 0zm-10.769-.001a4.345 4.345 0 1 1-8.69.001 4.345 4.345 0 0 1 8.69-.001zm21.538 0a4.347 4.347 0 1 1-8.694-.002 4.347 4.347 0 0 1 8.694.002zm10.768 0a4.346 4.346 0 1 1-8.693 0 4.346 4.346 0 0 1 8.693 0zm-10.768-10.768a4.346 4.346 0 1 1-8.692-.002 4.346 4.346 0 0 1 8.692.002zm-21.538-.001a4.345 4.345 0 1 1-8.691 0 4.346 4.346 0 0 1 8.691 0zm10.769 0a4.346 4.346 0 1 1-8.691 0 4.346 4.346 0 0 1 8.691 0zm21.537 0a4.346 4.346 0 1 1-8.691 0 4.346 4.346 0 0 1 8.691 0z" fill="#000"/><mask id="a" style="mask-type:alpha" maskUnits="userSpaceOnUse" x="152" y="141" width="44" height="42"><path d="M194.431 141.5c.592 0 1.086.484 1.068 1.093-.225 7.749-4.753 14.437-11.321 17.88-.015.007-.037.025-.054.075a.437.437 0 0 0-.009.22.37.37 0 0 0 .08.177c.022.024.033.024.041.024h10.632c.3 0 .563.241.563.561 0 11.41-9.324 20.674-20.911 20.961l-.554.007c-11.844 0-21.466-9.376-21.466-20.968 0-.32.264-.561.563-.561h10.788c.008 0 .019 0 .041-.024a.448.448 0 0 0 .071-.397c-.017-.05-.039-.068-.054-.075-6.568-3.443-11.097-10.131-11.322-17.88a1.065 1.065 0 0 1 1.068-1.093h40.776z" fill="#000"/></mask><g mask="url(#a)"><mask id="b" style="mask-type:alpha" maskUnits="userSpaceOnUse" x="144" y="131" width="105" height="58"><path fill="#fff" d="M144.382 131.285h103.897v57H144.382z"/></mask><g mask="url(#b)"><path fill="#fff" d="M144.382 131.284h103.897v57H144.382z"/><g filter="url(#c)"><path d="M184.522 170.346c16.901 3.88 31.964 6.194 30.369 12.805-1.596 6.611-16.591 8.825-33.492 4.945-16.902-3.881-28.051-15.701-26.456-22.311 1.596-6.611 12.677.681 29.579 4.561z" fill="#AAA"/></g><g filter="url(#d)"><path d="M189.667 155.403c16.281-18.156 28.71-35.617 39.87-26.097 11.16 9.52 7.008 31.956-9.274 50.112-16.282 18.157-43.874 19.773-55.034 10.253-11.16-9.52 8.156-16.111 24.438-34.268z" fill="#AAA"/></g><g filter="url(#e)"><path d="M183.142 175.599c20.987 12.761 40.652 21.924 32.808 34.195-7.843 12.271-31.215 11.874-52.202-.887-20.988-12.761-27.05-39.064-19.207-51.335 7.844-12.271 17.613 5.266 38.601 18.027z" fill="#AAA"/></g><g filter="url(#f)"><path d="M164.292 179.948c16.902 3.88 31.965 6.194 30.369 12.805-1.595 6.611-16.59 8.824-33.492 4.944-16.901-3.88-28.05-15.7-26.455-22.311 1.595-6.611 12.676.682 29.578 4.562z" fill="#AAA"/></g><g filter="url(#g)"><path d="M270.907 157.569c18.284 17.832 17.2 58.891 6.116 69.702s-34.891 5.119-53.175-12.713c-18.283-17.833-17.922-46.178-6.838-56.989 11.084-10.81 35.614-17.832 53.897 0z" fill="url(#h)"/></g><g filter="url(#i)"><path d="M142.973 189.872c12.928 21.84 53.872 31.446 67.447 23.802 13.575-7.644 14.1-31.546 1.172-53.386-12.929-21.84-41.094-28.836-54.67-21.192-13.575 7.644-26.878 28.937-13.949 50.776z" fill="url(#j)"/></g><g filter="url(#k)"><path d="M221.75 159.605c16.902 3.88 31.965 6.194 30.369 12.805-1.595 6.611-16.59 8.824-33.492 4.944-16.901-3.88-28.05-15.7-26.455-22.311 1.595-6.61 12.676.682 29.578 4.562z" fill="#AAA"/></g></g></g><path d="M153.654 142.501c-.045 0-.069.035-.068.063.214 7.367 4.519 13.739 10.787 17.024.565.296.666.935.579 1.374-.086.437-.431 1.008-1.102 1.008h-10.344c.239 10.814 9.296 19.529 20.459 19.529l.528-.007c10.919-.27 19.696-8.879 19.931-19.522h-10.189c-.671 0-1.016-.571-1.102-1.008-.087-.439.014-1.078.579-1.374 6.268-3.285 10.572-9.657 10.786-17.024.001-.028-.023-.063-.068-.063h-40.776zm41.776 19.03c0 11.41-9.324 20.674-20.911 20.961l-.554.007c-11.843 0-21.465-9.376-21.465-20.968 0-.32.263-.561.562-.561h10.788c.008 0 .018 0 .041-.024a.37.37 0 0 0 .08-.177.437.437 0 0 0-.009-.22c-.018-.051-.039-.068-.054-.075-6.568-3.443-11.097-10.131-11.322-17.88a1.065 1.065 0 0 1 1.068-1.093h40.776c.592 0 1.086.484 1.068 1.093-.225 7.749-4.753 14.437-11.321 17.88-.015.007-.036.024-.054.075a.437.437 0 0 0-.009.22.37.37 0 0 0 .08.177c.023.024.033.024.041.024h10.632c.3 0 .563.241.563.561z" fill="url(#l)"/><mask id="m" style="mask-type:alpha" maskUnits="userSpaceOnUse" x="29" y="47" width="120" height="120"><path d="M89 47.5c32.861 0 59.499 26.64 59.499 59.5 0 32.861-26.638 59.499-59.499 59.499-32.86 0-59.5-26.638-59.5-59.499 0-32.86 26.64-59.5 59.5-59.5z" fill="#000"/></mask><g mask="url(#m)"><mask id="n" style="mask-type:alpha" maskUnits="userSpaceOnUse" x="-164" y="-69" width="708" height="399"><path fill="#fff" d="M-163.45-68.297h706.986v397.679H-163.45z"/></mask><g mask="url(#n)"><path fill="#fff" d="M-275.133-51.731h543.854v305.918h-543.854z"/><g filter="url(#o)"><path d="M-69.47 169.968c66.623 74.701 129.877 135.738 99.92 162.456-29.958 26.718-108.252-12.18-174.874-86.881-66.623-74.701-79.155-168.798-49.197-195.515 29.957-26.718 57.528 45.24 124.15 119.94z" fill="#FFB433"/></g><g filter="url(#p)"><path d="M-104.188 81.155C-30.652 13.25 44.745-34.307-22.348-106.962c-67.093-72.655-181.095-76.504-254.631-8.598-73.536 67.907-42.206 217.641 24.887 290.296s74.368-25.674 147.904-93.58z" fill="#FFB433"/></g><g filter="url(#q)"><path d="M179.069 260.38c73.536-67.907 148.932-115.462 81.84-188.117C193.816-.392 79.814-4.242 6.278 63.665-67.26 131.57-35.928 281.305 31.165 353.96c67.093 72.655 74.368-25.674 147.904-93.58z" fill="#FFB433"/></g><g filter="url(#r)"><path d="M-82.168-67.908C-152.945 2.87-208.092 71.685-249.78 29.998c-41.687-41.686-18.104-132.857 52.673-203.634 70.777-70.777 181.661-71.002 223.348-29.315C67.93-161.264-11.39-138.685-82.168-67.908z" fill="#FFB433"/></g><g filter="url(#s)"><path d="M60.768 55.434c70.777-70.777 125.924-139.592 167.61-97.906 41.687 41.687 18.105 132.857-52.672 203.635-70.777 70.777-181.662 71.002-223.349 29.315-41.686-41.687 37.634-64.266 108.41-135.044z" fill="#FFB433"/></g><g filter="url(#t)"><path d="M201.089 111.317C130.311 182.094 75.165 250.91 33.478 209.223-8.21 167.536 15.373 76.366 86.15 5.589c70.777-70.778 181.661-71.002 223.348-29.316 41.687 41.687-37.633 64.267-108.41 135.044z" fill="#FFB433"/></g><g filter="url(#u)"><path d="M210.81 20.096c95.705 95.705 90.032 316.069 32.011 374.09-58.02 58.021-182.64 27.472-278.345-68.234-95.705-95.705-93.817-247.836-35.796-305.856 58.02-58.021 186.425-95.706 282.13 0z" fill="url(#v)"/></g><g filter="url(#w)"><path d="M53.221 267.881c-70.777 70.777-125.923 139.592-167.61 97.905-41.687-41.686-18.105-132.856 52.672-203.634C9.061 91.375 119.945 91.15 161.632 132.837c41.687 41.687-37.633 64.266-108.41 135.044z" fill="#FFB433"/></g><g filter="url(#x)"><path d="M53.221 267.881c-70.777 70.777-125.923 139.592-167.61 97.905-41.687-41.686-18.105-132.856 52.672-203.634C9.061 91.375 119.945 91.15 161.632 132.837c41.687 41.687-37.633 64.266-108.41 135.044z" fill="#FFB433"/></g><g filter="url(#y)"><path d="M71.893 129.505c-95.705 95.705-90.032 316.07-32.011 374.091 58.02 58.02 182.64 27.471 278.345-68.234 95.705-95.705 93.817-247.836 35.797-305.857-58.021-58.02-186.426-95.705-282.13 0z" fill="url(#z)"/></g></g></g><path d="M147.499 107c0-32.308-26.191-58.5-58.499-58.5-32.309 0-58.5 26.192-58.5 58.5s26.192 58.499 58.5 58.499 58.499-26.191 58.499-58.499zm1 0c0 32.861-26.638 59.499-59.499 59.499-32.86 0-59.5-26.638-59.5-59.499 0-32.86 26.64-59.5 59.5-59.5 32.861 0 59.499 26.64 59.499 59.5z" fill="url(#A)"/><path d="M64.958 82.959c13.278-13.278 34.806-13.278 48.084 0 13.277 13.277 13.277 34.805 0 48.083-13.278 13.277-34.806 13.277-48.084 0-13.278-13.278-13.277-34.806 0-48.084zm10.259 44.894c9.881 6.412 23.228 5.288 31.892-3.376 8.664-8.664 9.789-22.011 3.376-31.892l-35.268 35.268zm28.293-42.434c-9.933-6.834-23.631-5.836-32.463 2.996s-9.83 22.529-2.995 32.462l35.458-35.458z" fill="url(#B)"/><defs><filter id="t" x="-69.046" y="-133.903" width="472.015" height="437.698" filterUnits="userSpaceOnUse" color-interpolation-filters="sRGB"><feFlood flood-opacity="0" result="BackgroundImageFix"/><feBlend in="SourceGraphic" in2="BackgroundImageFix" result="shape"/><feGaussianBlur stdDeviation="40.962" result="effect1_foregroundBlur_35_21"/></filter><filter id="c" x="128.403" y="136.73" width="112.992" height="79.666" filterUnits="userSpaceOnUse" color-interpolation-filters="sRGB"><feFlood flood-opacity="0" result="BackgroundImageFix"/><feBlend in="SourceGraphic" in2="BackgroundImageFix" result="shape"/><feGaussianBlur stdDeviation="13.194" result="effect1_foregroundBlur_35_21"/></filter><filter id="e" x="131.65" y="143.814" width="95.659" height="84.526" filterUnits="userSpaceOnUse" color-interpolation-filters="sRGB"><feFlood flood-opacity="0" result="BackgroundImageFix"/><feBlend in="SourceGraphic" in2="BackgroundImageFix" result="shape"/><feGaussianBlur stdDeviation="4.798" result="effect1_foregroundBlur_35_21"/></filter><filter id="f" x="108.174" y="146.331" width="112.992" height="79.666" filterUnits="userSpaceOnUse" color-interpolation-filters="sRGB"><feFlood flood-opacity="0" result="BackgroundImageFix"/><feBlend in="SourceGraphic" in2="BackgroundImageFix" result="shape"/><feGaussianBlur stdDeviation="13.194" result="effect1_foregroundBlur_35_21"/></filter><filter id="g" x="109.281" y="46.671" width="275.778" height="286.075" filterUnits="userSpaceOnUse" color-interpolation-filters="sRGB"><feFlood flood-opacity="0" result="BackgroundImageFix"/><feBlend in="SourceGraphic" in2="BackgroundImageFix" result="shape"/><feGaussianBlur stdDeviation="50" result="effect1_foregroundBlur_35_21"/></filter><filter id="i" x="37.709" y="36.106" width="283.246" height="280.166" filterUnits="userSpaceOnUse" color-interpolation-filters="sRGB"><feFlood flood-opacity="0" result="BackgroundImageFix"/><feBlend in="SourceGraphic" in2="BackgroundImageFix" result="shape"/><feGaussianBlur stdDeviation="50" result="effect1_foregroundBlur_35_21"/></filter><filter id="k" x="176.187" y="136.544" width="91.881" height="58.555" filterUnits="userSpaceOnUse" color-interpolation-filters="sRGB"><feFlood flood-opacity="0" result="BackgroundImageFix"/><feBlend in="SourceGraphic" in2="BackgroundImageFix" result="shape"/><feGaussianBlur stdDeviation="7.917" result="effect1_foregroundBlur_35_21"/></filter><filter id="o" x="-345.528" y="-92.203" width="520.163" height="569.598" filterUnits="userSpaceOnUse" color-interpolation-filters="sRGB"><feFlood flood-opacity="0" result="BackgroundImageFix"/><feBlend in="SourceGraphic" in2="BackgroundImageFix" result="shape"/><feGaussianBlur stdDeviation="68.27" result="effect1_foregroundBlur_35_21"/></filter><filter id="p" x="-401.239" y="-245.999" width="486.841" height="528.238" filterUnits="userSpaceOnUse" color-interpolation-filters="sRGB"><feFlood flood-opacity="0" result="BackgroundImageFix"/><feBlend in="SourceGraphic" in2="BackgroundImageFix" result="shape"/><feGaussianBlur stdDeviation="40.962" result="effect1_foregroundBlur_35_21"/></filter><filter id="q" x="-117.982" y="-66.774" width="486.841" height="528.238" filterUnits="userSpaceOnUse" color-interpolation-filters="sRGB"><feFlood flood-opacity="0" result="BackgroundImageFix"/><feBlend in="SourceGraphic" in2="BackgroundImageFix" result="shape"/><feGaussianBlur stdDeviation="40.962" result="effect1_foregroundBlur_35_21"/></filter><filter id="r" x="-352.303" y="-313.127" width="472.015" height="437.698" filterUnits="userSpaceOnUse" color-interpolation-filters="sRGB"><feFlood flood-opacity="0" result="BackgroundImageFix"/><feBlend in="SourceGraphic" in2="BackgroundImageFix" result="shape"/><feGaussianBlur stdDeviation="40.962" result="effect1_foregroundBlur_35_21"/></filter><filter id="s" x="-141.113" y="-137.044" width="472.015" height="437.698" filterUnits="userSpaceOnUse" color-interpolation-filters="sRGB"><feFlood flood-opacity="0" result="BackgroundImageFix"/><feBlend in="SourceGraphic" in2="BackgroundImageFix" result="shape"/><feGaussianBlur stdDeviation="40.962" result="effect1_foregroundBlur_35_21"/></filter><filter id="d" x="142.727" y="107.428" width="112.265" height="107.171" filterUnits="userSpaceOnUse" color-interpolation-filters="sRGB"><feFlood flood-opacity="0" result="BackgroundImageFix"/><feBlend in="SourceGraphic" in2="BackgroundImageFix" result="shape"/><feGaussianBlur stdDeviation="9.596" result="effect1_foregroundBlur_35_21"/></filter><filter id="u" x="-211.777" y="-138.393" width="596.667" height="661.967" filterUnits="userSpaceOnUse" color-interpolation-filters="sRGB"><feFlood flood-opacity="0" result="BackgroundImageFix"/><feBlend in="SourceGraphic" in2="BackgroundImageFix" result="shape"/><feGaussianBlur stdDeviation="50" result="effect1_foregroundBlur_35_21"/></filter><filter id="w" x="-216.913" y="22.661" width="472.015" height="437.698" filterUnits="userSpaceOnUse" color-interpolation-filters="sRGB"><feFlood flood-opacity="0" result="BackgroundImageFix"/><feBlend in="SourceGraphic" in2="BackgroundImageFix" result="shape"/><feGaussianBlur stdDeviation="40.962" result="effect1_foregroundBlur_35_21"/></filter><filter id="x" x="-184.64" y="54.934" width="407.469" height="373.152" filterUnits="userSpaceOnUse" color-interpolation-filters="sRGB"><feFlood flood-opacity="0" result="BackgroundImageFix"/><feBlend in="SourceGraphic" in2="BackgroundImageFix" result="shape"/><feGaussianBlur stdDeviation="24.826" result="effect1_foregroundBlur_35_21"/></filter><filter id="y" x="-102.187" y="-28.984" width="596.667" height="661.967" filterUnits="userSpaceOnUse" color-interpolation-filters="sRGB"><feFlood flood-opacity="0" result="BackgroundImageFix"/><feBlend in="SourceGraphic" in2="BackgroundImageFix" result="shape"/><feGaussianBlur stdDeviation="50" result="effect1_foregroundBlur_35_21"/></filter><linearGradient id="h" x1="212.072" y1="154.933" x2="233.265" y2="195.676" gradientUnits="userSpaceOnUse"><stop stop-color="#fff"/><stop offset="1" stop-color="#fff" stop-opacity="0"/></linearGradient><linearGradient id="j" x1="155.59" y1="133.762" x2="189.002" y2="165.789" gradientUnits="userSpaceOnUse"><stop stop-color="#AAA"/><stop offset="1" stop-color="#AAA" stop-opacity="0"/></linearGradient><linearGradient id="v" x1="-97.168" y1="5.95" x2="18.195" y2="222.255" gradientUnits="userSpaceOnUse"><stop stop-color="#fff" stop-opacity=".3"/><stop offset="1" stop-color="#fff" stop-opacity="0"/></linearGradient><linearGradient id="z" x1="405.711" y1="181.192" x2="61.594" y2="525.308" gradientUnits="userSpaceOnUse"><stop stop-color="#fff"/><stop offset="1" stop-color="#fff" stop-opacity="0"/></linearGradient><radialGradient id="l" cx="0" cy="0" r="1" gradientTransform="matrix(53.1844 21.7728 -22.8621 50.6469 156.072 150.919)" gradientUnits="userSpaceOnUse"><stop stop-color="#fff"/><stop offset="1" stop-color="#fff" stop-opacity="0"/></radialGradient><radialGradient id="A" cx="0" cy="0" r="1" gradientTransform="matrix(149.427 64.2325 -64.2337 149.415 38.632 74.31)" gradientUnits="userSpaceOnUse"><stop stop-color="#fff"/><stop offset="1" stop-color="#fff" stop-opacity="0"/></radialGradient><radialGradient id="B" cx="0" cy="0" r="1" gradientTransform="matrix(23.8 -28.0498 27.1462 23.033 81.775 109.125)" gradientUnits="userSpaceOnUse"><stop stop-color="#fff"/><stop offset="1" stop-color="#fff" stop-opacity=".5"/></radialGradient></defs></svg>