<svg width="230" height="230" fill="none" xmlns="http://www.w3.org/2000/svg"><g filter="url(#a)"><mask id="b" style="mask-type:alpha" maskUnits="userSpaceOnUse" x="31" y="85" width="54" height="54"><path d="M67.997 99.252a2.5 2.5 0 0 1 2.5 2.5v34.25a2.5 2.5 0 0 1-2.5 2.5h-5.999a2.5 2.5 0 0 1-2.5-2.5v-34.25a2.5 2.5 0 0 1 2.5-2.5h6zM40 112a2.5 2.5 0 0 1 2.5 2.5V136a2.5 2.5 0 0 1-2.5 2.5H34a2.5 2.5 0 0 1-2.5-2.5v-21.5A2.5 2.5 0 0 1 34 112h5.999zm14.003-26.5a2.5 2.5 0 0 1 2.5 2.5v48a2.5 2.5 0 0 1-2.5 2.5h-6a2.5 2.5 0 0 1-2.5-2.5V88a2.5 2.5 0 0 1 2.5-2.5h6zM82 91.5a2.5 2.5 0 0 1 2.5 2.5v42a2.5 2.5 0 0 1-2.5 2.5h-6a2.5 2.5 0 0 1-2.5-2.5V94a2.5 2.5 0 0 1 2.5-2.5h6z" fill="#000"/></mask><g mask="url(#b)"><mask id="c" style="mask-type:alpha" maskUnits="userSpaceOnUse" x="-45" y="43" width="175" height="98"><path fill="#fff" d="M-44.781 43.1h173.794v97.759H-44.781z"/></mask><g mask="url(#c)"><path fill="#fff" d="M-44.78 43.1h173.794v97.759H-44.78z"/><g filter="url(#d)"><path d="M22.367 110.095c28.272 6.655 53.469 10.624 50.8 21.962-2.669 11.338-27.752 15.135-56.024 8.48-28.273-6.654-46.922-26.927-44.253-38.265 2.668-11.338 21.204 1.169 49.477 7.823z" fill="#AAA"/></g><g filter="url(#e)"><path d="M30.97 84.465c27.236-31.14 48.026-61.086 66.694-44.759 18.668 16.327 11.722 54.807-15.513 85.947-27.236 31.14-73.391 33.911-92.06 17.584-18.667-16.327 13.644-27.632 40.88-58.772z" fill="#AAA"/></g><g filter="url(#f)"><path d="M20.056 119.103c35.107 21.886 68.002 37.602 54.881 58.648-13.12 21.046-52.216 20.365-87.322-1.521-35.107-21.886-45.249-66.999-32.128-88.044 13.12-21.046 29.463 9.031 64.57 30.917z" fill="#AAA"/></g><g filter="url(#g)"><path d="M-11.474 126.564c28.273 6.654 53.47 10.623 50.8 21.961-2.668 11.339-27.751 15.135-56.024 8.481-28.272-6.655-46.922-26.927-44.253-38.266 2.669-11.338 21.205 1.169 49.477 7.824z" fill="#AAA"/></g><g filter="url(#h)"><path d="M166.869 88.182c30.583 30.584 28.771 101.004 10.229 119.545-18.541 18.541-58.364 8.779-88.948-21.805-30.584-30.583-29.98-79.198-11.44-97.74 18.542-18.54 59.575-30.583 90.159 0z" fill="url(#i)"/></g><g filter="url(#j)"><path d="M-47.137 143.585c21.626 37.457 90.116 53.932 112.824 40.821 22.708-13.11 23.585-54.104 1.96-91.56C46.02 55.387-1.094 43.387-23.803 56.498c-22.707 13.11-44.96 49.629-23.334 87.086z" fill="url(#k)"/></g><g filter="url(#l)"><path d="M84.64 91.672c28.273 6.654 53.469 10.623 50.801 21.961-2.669 11.339-27.752 15.135-56.025 8.481-28.272-6.655-46.922-26.927-44.253-38.266 2.669-11.338 21.205 1.17 49.477 7.824z" fill="#AAA"/></g></g></g></g><path d="M69.497 101.752a1.5 1.5 0 0 0-1.5-1.5h-5.999a1.5 1.5 0 0 0-1.5 1.5v34.25a1.5 1.5 0 0 0 1.5 1.5h6a1.5 1.5 0 0 0 1.5-1.5v-34.25zM41.5 114.5a1.5 1.5 0 0 0-1.5-1.5H34a1.5 1.5 0 0 0-1.5 1.5V136a1.5 1.5 0 0 0 1.5 1.5h5.999a1.5 1.5 0 0 0 1.5-1.5v-21.5zM55.502 88a1.5 1.5 0 0 0-1.5-1.5h-6a1.5 1.5 0 0 0-1.5 1.5v48a1.5 1.5 0 0 0 1.5 1.5h6a1.5 1.5 0 0 0 1.5-1.5V88zM83.5 94a1.5 1.5 0 0 0-1.5-1.5h-6a1.5 1.5 0 0 0-1.5 1.5v42a1.5 1.5 0 0 0 1.5 1.5h6a1.5 1.5 0 0 0 1.5-1.5V94zm-41.001 42a2.5 2.5 0 0 1-2.5 2.5H34a2.5 2.5 0 0 1-2.5-2.5v-21.5A2.5 2.5 0 0 1 34 112h5.999a2.5 2.5 0 0 1 2.5 2.5V136zm27.998.002a2.5 2.5 0 0 1-2.5 2.5h-5.999a2.5 2.5 0 0 1-2.5-2.5v-34.25a2.5 2.5 0 0 1 2.5-2.5h6a2.5 2.5 0 0 1 2.5 2.5v34.25zM84.5 136a2.5 2.5 0 0 1-2.5 2.5h-6a2.5 2.5 0 0 1-2.5-2.5V94a2.5 2.5 0 0 1 2.5-2.5h6a2.5 2.5 0 0 1 2.5 2.5v42zm-27.998 0a2.5 2.5 0 0 1-2.5 2.5h-6a2.5 2.5 0 0 1-2.5-2.5V88a2.5 2.5 0 0 1 2.5-2.5h6a2.5 2.5 0 0 1 2.5 2.5v48z" fill="url(#m)"/><g filter="url(#n)"><mask id="o" style="mask-type:alpha" maskUnits="userSpaceOnUse" x="89" y="83" width="112" height="112"><path d="M198 83.5a2.5 2.5 0 0 1 2.5 2.5v106a2.5 2.5 0 0 1-2.5 2.5H92a2.5 2.5 0 0 1-2.5-2.5V86a2.5 2.5 0 0 1 2.5-2.5h106z" fill="#000"/></mask><g mask="url(#o)"><mask id="q" style="mask-type:alpha" maskUnits="userSpaceOnUse" x="-12" y="24" width="466" height="262"><path fill="#fff" d="M-11.011 24.769h464.386v261.217H-11.011z"/><path stroke="url(#p)" d="M-11.011 24.769h464.386v261.217H-11.011z"/></mask><g mask="url(#q)"><path fill="#fff" stroke="url(#r)" d="M-10.508 25.269h463.386v260.217H-10.508z"/><g filter="url(#s)"><path d="M168.407 203.779c75.545 17.782 142.871 28.386 135.74 58.683-7.131 30.296-74.154 40.441-149.699 22.659C78.903 267.34 29.07 213.171 36.201 182.875c7.131-30.296 56.66 3.122 132.206 20.904z" fill="#FFB433"/><path d="M36.688 182.989c.874-3.713 2.386-6.404 4.476-8.271 2.09-1.866 4.801-2.947 8.141-3.362 6.711-.835 15.84 1.025 27.2 4.42 22.644 6.769 54.008 19.598 91.787 28.49 37.804 8.898 73.475 15.984 98.827 24.634 12.678 4.326 22.712 9.024 29.126 14.493 3.202 2.73 5.484 5.636 6.751 8.766 1.265 3.123 1.533 6.496.664 10.188-1.741 7.397-7.148 13.614-15.54 18.505-8.394 4.891-19.734 8.43-33.242 10.475-27.012 4.088-62.589 2.187-100.316-6.693-37.689-8.871-68.955-26.817-89.9-46.309-10.473-9.746-18.353-19.867-23.17-29.419-4.82-9.558-6.55-18.499-4.804-25.917z" stroke="url(#t)"/></g><g filter="url(#u)"><path d="M314.08 141.851C386.854 58.645 442.407-21.374 492.288 22.253c49.881 43.628 31.323 146.447-41.452 229.654s-196.104 90.612-245.985 46.985c-49.881-43.627 36.454-73.834 109.229-157.041z" fill="#FFB433"/><path d="M205.18 298.516c-12.393-10.84-16.215-20.737-14.051-30.761 2.182-10.104 10.465-20.478 22.687-32.18 12.211-11.692 28.239-24.608 45.808-39.841 17.556-15.221 36.617-32.727 54.832-53.553 36.419-41.639 68.455-82.39 97.638-107.311 14.587-12.457 28.403-20.904 41.637-23.546 13.196-2.634 25.866.494 38.228 11.306 24.756 21.652 32.591 58.052 25.106 99.519-7.482 41.456-30.267 87.881-66.605 129.428-36.3 41.504-85.214 64.107-131.275 70.891-46.081 6.786-89.214-2.27-114.005-23.952z" stroke="url(#v)"/></g><g filter="url(#w)"><path d="M169.31 143.863c75.545 17.782 142.871 28.386 135.74 58.683-7.131 30.296-74.153 40.441-149.699 22.659-75.545-17.782-125.377-71.95-118.246-102.246 7.13-30.296 56.66 3.122 132.205 20.904z" fill="#FFB433"/><path d="M37.591 123.073c.874-3.713 2.386-6.404 4.476-8.271 2.09-1.866 4.801-2.947 8.142-3.362 6.71-.835 15.839 1.025 27.2 4.42 22.643 6.769 54.007 19.598 91.787 28.49 37.803 8.898 73.474 15.984 98.826 24.634 12.678 4.326 22.712 9.024 29.127 14.493 3.202 2.73 5.483 5.636 6.751 8.766 1.265 3.123 1.533 6.496.664 10.188-1.741 7.397-7.149 13.614-15.541 18.505-8.394 4.891-19.734 8.43-33.241 10.475-27.013 4.088-62.59 2.187-100.316-6.693-37.69-8.871-68.956-26.817-89.9-46.309-10.474-9.746-18.354-19.867-23.17-29.419-4.82-9.558-6.55-18.499-4.805-25.917z" stroke="url(#x)"/></g><g filter="url(#y)"><path d="M249.129 124.307c75.546 17.781 142.871 28.386 135.74 58.682-7.131 30.297-74.153 40.442-149.698 22.66-75.546-17.782-125.378-71.95-118.247-102.246 7.131-30.296 56.66 3.122 132.205 20.904z" fill="#FFB433"/><path d="M117.411 103.517c.874-3.713 2.386-6.404 4.476-8.27 2.09-1.867 4.801-2.948 8.141-3.364 6.711-.835 15.839 1.025 27.2 4.421 22.643 6.769 54.007 19.598 91.787 28.49 37.804 8.898 73.474 15.984 98.827 24.634 12.678 4.326 22.711 9.024 29.126 14.492 3.202 2.73 5.483 5.637 6.751 8.767 1.265 3.123 1.533 6.496.664 10.188-1.741 7.397-7.148 13.614-15.541 18.504-8.393 4.892-19.733 8.431-33.241 10.475-27.013 4.089-62.589 2.188-100.316-6.692-37.69-8.871-68.955-26.818-89.9-46.309-10.473-9.746-18.354-19.868-23.17-29.419-4.82-9.558-6.55-18.5-4.804-25.917z" stroke="url(#z)"/></g><g filter="url(#A)"><path d="M143.508 356.585C85.722 456.672-97.285 500.693-157.962 465.661c-60.677-35.032-63.021-144.567-5.236-244.655 57.785-100.087 183.678-132.15 244.355-97.118 60.677 35.032 120.136 132.609 62.351 232.697z" fill="url(#B)"/><path d="M80.907 124.321c30.238 17.458 60.194 50.519 75.38 91.693 15.179 41.157 15.6 90.417-13.212 140.32-28.803 49.889-88.864 85.862-149.368 104.982-30.242 9.556-60.566 14.893-87.106 15.656-26.554.763-49.261-3.053-64.313-11.744-30.129-17.395-45.846-53.33-46.791-97.509-.946-44.168 12.884-96.485 41.738-146.463 28.826-49.927 74.642-82.893 120.825-99.006 46.201-16.121 92.68-15.346 122.847 2.071z" stroke="url(#C)"/></g><g filter="url(#D)"><path d="M489.437 37.92c81.721 81.721 76.877 269.886 27.334 319.428-49.542 49.543-155.953 23.458-237.673-58.263-81.721-81.721-80.109-211.622-30.566-261.165 49.543-49.543 159.185-81.72 240.905 0z" fill="url(#E)"/><path d="M248.886 38.273c24.689-24.689 64.377-45.067 108.078-49.079 43.684-4.01 91.374 8.333 132.12 49.08 40.734 40.733 59.936 108.058 62.745 171.449 1.403 31.685-1.29 62.357-7.422 88.19-6.136 25.847-15.699 46.792-27.989 59.082-24.6 24.6-63.379 30.481-106.297 19.96-42.908-10.519-89.863-37.417-130.67-78.224-40.765-40.765-60.75-93.553-64.361-142.332-3.613-48.799 9.164-93.494 33.796-118.126z" stroke="url(#F)"/></g></g><path d="M199.502 86c0-.83-.672-1.502-1.502-1.502H92c-.83 0-1.502.672-1.502 1.502v106c0 .83.672 1.502 1.502 1.502h106c.83 0 1.502-.672 1.502-1.502V86zm.996 106a2.499 2.499 0 0 1-2.498 2.498H92A2.498 2.498 0 0 1 89.502 192V86A2.498 2.498 0 0 1 92 83.502h106A2.498 2.498 0 0 1 200.498 86v106z" fill="url(#G)"/></g></g><path d="M126.047 108.958c13.278-13.277 34.805-13.277 48.083 0 13.278 13.278 13.278 34.806 0 48.084-11.656 11.656-29.667 13.078-42.876 4.27-.825-.55-1.932-.475-2.633.227l-15.965 15.965a2 2 0 0 1-2.828 0l-4.243-4.243a2 2 0 0 1 0-2.828l15.965-15.966c.701-.701.776-1.808.226-2.633-8.807-13.209-7.385-31.22 4.271-42.876zm42.15 5.456c-9.958-9.958-26.104-9.958-36.062 0-9.958 9.959-9.959 26.104 0 36.063 9.958 9.958 26.104 9.958 36.062 0 9.959-9.959 9.959-26.104 0-36.063z" fill="url(#H)"/><path d="M71 78h6v6h-6v-6z" fill="#000"/><path d="M74.5 39.5v41h-41v-41h41zm-40 40h39v-39h-39v39z" fill="#000"/><path d="M31 36h6v6h-6v-6zM31 78h6v6h-6v-6zM71 36h6v6h-6v-6zM68.353 73.647l-.706.706-28-28 .706-.706 28 28z" fill="#000"/><path d="m68.353 46.353-28 28-.706-.706 28-28 .706.706z" fill="#000"/><defs><filter id="n" x="89.5" y="83.5" width="112.135" height="112.135" filterUnits="userSpaceOnUse" color-interpolation-filters="sRGB"><feFlood flood-opacity="0" result="BackgroundImageFix"/><feBlend in="SourceGraphic" in2="BackgroundImageFix" result="shape"/><feColorMatrix in="SourceAlpha" values="0 0 0 0 0 0 0 0 0 0 0 0 0 0 0 0 0 0 127 0" result="hardAlpha"/><feOffset dx="1.135" dy="1.135"/><feGaussianBlur stdDeviation="5.673"/><feComposite in2="hardAlpha" operator="arithmetic" k2="-1" k3="1"/><feColorMatrix values="0 0 0 0 1 0 0 0 0 1 0 0 0 0 1 0 0 0 0.8 0"/><feBlend in2="shape" result="effect1_innerShadow_35_25"/></filter><filter id="a" x="31.5" y="85.5" width="53.5" height="53.502" filterUnits="userSpaceOnUse" color-interpolation-filters="sRGB"><feFlood flood-opacity="0" result="BackgroundImageFix"/><feBlend in="SourceGraphic" in2="BackgroundImageFix" result="shape"/><feColorMatrix in="SourceAlpha" values="0 0 0 0 0 0 0 0 0 0 0 0 0 0 0 0 0 0 127 0" result="hardAlpha"/><feOffset dx=".5" dy=".5"/><feGaussianBlur stdDeviation="2.5"/><feComposite in2="hardAlpha" operator="arithmetic" k2="-1" k3="1"/><feColorMatrix values="0 0 0 0 1 0 0 0 0 1 0 0 0 0 1 0 0 0 0.8 0"/><feBlend in2="shape" result="effect1_innerShadow_35_25"/></filter><filter id="f" x="-66.483" y="64.589" width="160.826" height="144.969" filterUnits="userSpaceOnUse" color-interpolation-filters="sRGB"><feFlood flood-opacity="0" result="BackgroundImageFix"/><feBlend in="SourceGraphic" in2="BackgroundImageFix" result="shape"/><feGaussianBlur stdDeviation="8.229" result="effect1_foregroundBlur_35_25"/></filter><filter id="g" x="-106.464" y="68.909" width="191.244" height="136.634" filterUnits="userSpaceOnUse" color-interpolation-filters="sRGB"><feFlood flood-opacity="0" result="BackgroundImageFix"/><feBlend in="SourceGraphic" in2="BackgroundImageFix" result="shape"/><feGaussianBlur stdDeviation="22.63" result="effect1_foregroundBlur_35_25"/></filter><filter id="h" x="-36.218" y="-30.508" width="326.76" height="347.626" filterUnits="userSpaceOnUse" color-interpolation-filters="sRGB"><feFlood flood-opacity="0" result="BackgroundImageFix"/><feBlend in="SourceGraphic" in2="BackgroundImageFix" result="shape"/><feGaussianBlur stdDeviation="50" result="effect1_foregroundBlur_35_25"/></filter><filter id="j" x="-155.94" y="-48.629" width="339.249" height="337.491" filterUnits="userSpaceOnUse" color-interpolation-filters="sRGB"><feFlood flood-opacity="0" result="BackgroundImageFix"/><feBlend in="SourceGraphic" in2="BackgroundImageFix" result="shape"/><feGaussianBlur stdDeviation="50" result="effect1_foregroundBlur_35_25"/></filter><filter id="l" x="7.754" y="52.121" width="155.036" height="100.427" filterUnits="userSpaceOnUse" color-interpolation-filters="sRGB"><feFlood flood-opacity="0" result="BackgroundImageFix"/><feBlend in="SourceGraphic" in2="BackgroundImageFix" result="shape"/><feGaussianBlur stdDeviation="13.578" result="effect1_foregroundBlur_35_25"/></filter><filter id="e" x="-48.361" y="2.183" width="189.418" height="183.808" filterUnits="userSpaceOnUse" color-interpolation-filters="sRGB"><feFlood flood-opacity="0" result="BackgroundImageFix"/><feBlend in="SourceGraphic" in2="BackgroundImageFix" result="shape"/><feGaussianBlur stdDeviation="16.458" result="effect1_foregroundBlur_35_25"/></filter><filter id="s" x="-94.206" y="40.928" width="528.6" height="382.683" filterUnits="userSpaceOnUse" color-interpolation-filters="sRGB"><feFlood flood-opacity="0" result="BackgroundImageFix"/><feBlend in="SourceGraphic" in2="BackgroundImageFix" result="shape"/><feGaussianBlur stdDeviation="64.865" result="effect1_foregroundBlur_35_25"/></filter><filter id="u" x="95.708" y="-84.406" width="518.925" height="503.934" filterUnits="userSpaceOnUse" color-interpolation-filters="sRGB"><feFlood flood-opacity="0" result="BackgroundImageFix"/><feBlend in="SourceGraphic" in2="BackgroundImageFix" result="shape"/><feGaussianBlur stdDeviation="47.174" result="effect1_foregroundBlur_35_25"/></filter><filter id="w" x="-93.302" y="-18.988" width="528.6" height="382.683" filterUnits="userSpaceOnUse" color-interpolation-filters="sRGB"><feFlood flood-opacity="0" result="BackgroundImageFix"/><feBlend in="SourceGraphic" in2="BackgroundImageFix" result="shape"/><feGaussianBlur stdDeviation="64.865" result="effect1_foregroundBlur_35_25"/></filter><filter id="y" x="38.409" y="13.348" width="424.817" height="278.899" filterUnits="userSpaceOnUse" color-interpolation-filters="sRGB"><feFlood flood-opacity="0" result="BackgroundImageFix"/><feBlend in="SourceGraphic" in2="BackgroundImageFix" result="shape"/><feGaussianBlur stdDeviation="38.919" result="effect1_foregroundBlur_35_25"/></filter><filter id="A" x="-305.049" y="10.186" width="572.081" height="567.381" filterUnits="userSpaceOnUse" color-interpolation-filters="sRGB"><feFlood flood-opacity="0" result="BackgroundImageFix"/><feBlend in="SourceGraphic" in2="BackgroundImageFix" result="shape"/><feGaussianBlur stdDeviation="50" result="effect1_foregroundBlur_35_25"/></filter><filter id="D" x="113.986" y="-112.022" width="538.706" height="594.464" filterUnits="userSpaceOnUse" color-interpolation-filters="sRGB"><feFlood flood-opacity="0" result="BackgroundImageFix"/><feBlend in="SourceGraphic" in2="BackgroundImageFix" result="shape"/><feGaussianBlur stdDeviation="50" result="effect1_foregroundBlur_35_25"/></filter><filter id="d" x="-72.623" y="52.441" width="191.244" height="136.634" filterUnits="userSpaceOnUse" color-interpolation-filters="sRGB"><feFlood flood-opacity="0" result="BackgroundImageFix"/><feBlend in="SourceGraphic" in2="BackgroundImageFix" result="shape"/><feGaussianBlur stdDeviation="22.63" result="effect1_foregroundBlur_35_25"/></filter><radialGradient id="H" cx="0" cy="0" r="1" gradientTransform="matrix(25.311 -29.1532 28.8696 23.939 140.329 136.454)" gradientUnits="userSpaceOnUse"><stop stop-color="#fff"/><stop offset="1" stop-color="#fff" stop-opacity=".5"/></radialGradient><radialGradient id="G" cx="0" cy="0" r="1" gradientTransform="matrix(139.297 59.878 -59.8792 139.286 98.047 108.526)" gradientUnits="userSpaceOnUse"><stop stop-color="#fff"/><stop offset="1" stop-color="#fff" stop-opacity="0"/></radialGradient><radialGradient id="m" cx="0" cy="0" r="1" gradientTransform="matrix(65.8497 28.307 -28.3065 65.8467 35.804 97.594)" gradientUnits="userSpaceOnUse"><stop stop-color="#fff"/><stop offset="1" stop-color="#fff" stop-opacity="0"/></radialGradient><radialGradient id="p" cx="0" cy="0" r="1" gradientUnits="userSpaceOnUse" gradientTransform="matrix(0 130.608 -232.193 0 221.182 155.377)"><stop stop-color="#FF764D"/><stop offset="1" stop-color="#FF764D" stop-opacity="0"/></radialGradient><radialGradient id="r" cx="0" cy="0" r="1" gradientUnits="userSpaceOnUse" gradientTransform="matrix(0 130.608 -232.193 0 221.185 155.377)"><stop stop-color="#FFB433"/><stop offset="1" stop-color="#FFB433" stop-opacity="0"/></radialGradient><radialGradient id="t" cx="0" cy="0" r="1" gradientUnits="userSpaceOnUse" gradientTransform="matrix(135.8145 31.96756 -10.24325 43.51854 165.663 241.831)"><stop stop-color="#FFB433"/><stop offset="1" stop-color="#FFB433" stop-opacity="0"/></radialGradient><radialGradient id="v" cx="0" cy="0" r="1" gradientUnits="userSpaceOnUse" gradientTransform="rotate(-48.826 397.341 -324.647) scale(198.732 95.1903)"><stop stop-color="#FFB433"/><stop offset="1" stop-color="#FFB433" stop-opacity="0"/></radialGradient><radialGradient id="x" cx="0" cy="0" r="1" gradientUnits="userSpaceOnUse" gradientTransform="matrix(135.8145 31.96756 -10.24325 43.51854 166.567 181.915)"><stop stop-color="#FFB433"/><stop offset="1" stop-color="#FFB433" stop-opacity="0"/></radialGradient><radialGradient id="z" cx="0" cy="0" r="1" gradientUnits="userSpaceOnUse" gradientTransform="matrix(135.8145 31.96756 -10.24325 43.51854 246.386 162.359)"><stop stop-color="#FFB433"/><stop offset="1" stop-color="#FFB433" stop-opacity="0"/></radialGradient><radialGradient id="F" cx="0" cy="0" r="1" gradientUnits="userSpaceOnUse" gradientTransform="rotate(45 -20.995 571.589) scale(207.772 166.702)"><stop stop-color="#FFB433"/><stop offset="1" stop-color="#FFB433" stop-opacity="0"/></radialGradient><radialGradient id="C" cx="0" cy="0" r="1" gradientUnits="userSpaceOnUse" gradientTransform="matrix(-103.886 179.93583 -144.36817 -83.351 -19.573 305.645)"><stop stop-color="#FFB433"/><stop offset="1" stop-color="#FFB433" stop-opacity="0"/></radialGradient><linearGradient id="E" x1="226.461" y1="25.841" x2="324.967" y2="210.54" gradientUnits="userSpaceOnUse"><stop stop-color="#fff"/><stop offset="1" stop-color="#fff" stop-opacity="0"/></linearGradient><linearGradient id="B" x1="87.112" y1="99.443" x2="-65.798" y2="242.396" gradientUnits="userSpaceOnUse"><stop stop-color="#FFB433"/><stop offset="1" stop-color="#FFB433" stop-opacity="0"/></linearGradient><linearGradient id="k" x1="-26.031" y1="47.351" x2="31.195" y2="100.85" gradientUnits="userSpaceOnUse"><stop stop-color="#AAA"/><stop offset="1" stop-color="#AAA" stop-opacity="0"/></linearGradient><linearGradient id="i" x1="68.451" y1="83.662" x2="105.317" y2="152.785" gradientUnits="userSpaceOnUse"><stop stop-color="#fff"/><stop offset="1" stop-color="#fff" stop-opacity="0"/></linearGradient></defs></svg>