<svg width="230" height="230" fill="none" xmlns="http://www.w3.org/2000/svg"><g filter="url(#a)"><mask id="b" style="mask-type:alpha" maskUnits="userSpaceOnUse" x="79" y="63" width="120" height="120"><path d="M139 63.5c32.861 0 59.499 26.64 59.499 59.5 0 32.861-26.638 59.499-59.499 59.499-32.861 0-59.5-26.638-59.5-59.499 0-32.86 26.639-59.5 59.5-59.5z" fill="#000"/></mask><g mask="url(#b)"><mask id="c" style="mask-type:alpha" maskUnits="userSpaceOnUse" x="-114" y="-53" width="708" height="399"><path fill="#fff" d="M-113.45-52.297h706.986v397.679H-113.45z"/></mask><g mask="url(#c)"><path fill="#fff" d="M-225.133-35.731h543.854v305.918h-543.854z"/><g filter="url(#d)"><path d="M-19.47 185.968c66.623 74.701 129.877 135.738 99.92 162.456-29.958 26.718-108.252-12.18-174.874-86.881-66.623-74.701-79.155-168.798-49.197-195.515 29.957-26.718 57.528 45.239 124.15 119.94z" fill="#7FD169"/></g><g filter="url(#e)"><path d="M-54.188 97.155C19.348 29.25 94.745-18.307 27.652-90.962c-67.093-72.655-181.095-76.504-254.631-8.598-73.536 67.907-42.206 217.641 24.887 290.296s74.368-25.674 147.904-93.58z" fill="#7FD169"/></g><g filter="url(#f)"><path d="M229.069 276.379c73.536-67.906 148.932-115.461 81.84-188.117-67.093-72.654-181.096-76.504-254.631-8.598-73.536 67.907-42.206 217.641 24.887 290.296s74.368-25.674 147.904-93.581z" fill="#7FD169"/></g><g filter="url(#g)"><path d="M-32.168-51.908C-102.945 18.87-158.092 87.685-199.78 45.998c-41.687-41.686-18.104-132.857 52.673-203.634 70.777-70.777 181.661-71.002 223.348-29.315 41.687 41.687-37.633 64.266-108.41 135.043z" fill="#7FD169"/></g><g filter="url(#h)"><path d="M110.768 71.434C181.545.657 236.692-68.158 278.378-26.472c41.687 41.687 18.105 132.857-52.672 203.635-70.777 70.777-181.662 71.002-223.349 29.315-41.687-41.687 37.634-64.266 108.411-135.044z" fill="#7FD169"/></g><g filter="url(#i)"><path d="M251.089 127.317c-70.778 70.777-125.924 139.592-167.611 97.906C41.79 183.536 65.373 92.366 136.15 21.588c70.777-70.777 181.661-71.001 223.348-29.315 41.687 41.687-37.633 64.266-108.41 135.044z" fill="#7FD169"/></g><g filter="url(#j)"><path d="M260.81 36.096c95.705 95.705 90.032 316.069 32.011 374.09-58.02 58.021-182.64 27.472-278.345-68.234C-81.23 246.247-79.341 94.116-21.32 36.096c58.02-58.021 186.425-95.706 282.13 0z" fill="url(#k)"/></g><g filter="url(#l)"><path d="M103.221 283.881c-70.777 70.777-125.923 139.592-167.61 97.905-41.687-41.686-18.105-132.856 52.672-203.634 70.778-70.777 181.662-71.002 223.349-29.315 41.687 41.687-37.633 64.266-108.411 135.044z" fill="#7FD169"/></g><g filter="url(#m)"><path d="M103.221 283.881c-70.777 70.777-125.923 139.592-167.61 97.905-41.687-41.686-18.105-132.856 52.672-203.634 70.778-70.777 181.662-71.002 223.349-29.315 41.687 41.687-37.633 64.266-108.411 135.044z" fill="#7FD169"/></g><g filter="url(#n)"><path d="M121.893 145.505c-95.705 95.705-90.032 316.07-32.011 374.091 58.02 58.02 182.64 27.471 278.345-68.234 95.705-95.705 93.817-247.836 35.797-305.857-58.021-58.02-186.426-95.705-282.131 0z" fill="url(#o)"/></g></g></g></g><path d="M197.499 123c0-32.308-26.191-58.5-58.499-58.5-32.308 0-58.5 26.192-58.5 58.5s26.192 58.499 58.5 58.499 58.499-26.191 58.499-58.499zm1 0c0 32.861-26.638 59.499-59.499 59.499-32.861 0-59.5-26.638-59.5-59.499 0-32.86 26.639-59.5 59.5-59.5 32.861 0 59.499 26.64 59.499 59.5z" fill="url(#p)"/><g filter="url(#q)"><mask id="r" style="mask-type:alpha" maskUnits="userSpaceOnUse" x="31" y="46" width="44" height="43"><path d="M57.677 47.005a1.5 1.5 0 0 1 2.425-.313l4.923 5.324a.501.501 0 0 0 .632.085l6.55-4.087a1.5 1.5 0 0 1 2.294 1.272v36.715a2.5 2.5 0 0 1-2.5 2.5h-38c-1.38 0-2.5-1.12-2.501-2.5V64.656c0-.517.268-.998.707-1.272l7.214-4.502a1.501 1.501 0 0 1 1.589 0l7.289 4.549c.245.152.57.066.706-.189l8.672-16.237z" fill="#000"/></mask><g mask="url(#r)"><mask id="s" style="mask-type:alpha" maskUnits="userSpaceOnUse" x="-6" y="36" width="109" height="62"><path fill="#fff" d="M-5.799 36.55h107.924v60.707H-5.799z"/></mask><g mask="url(#s)"><path fill="#fff" d="M-5.799 36.549h107.924v60.707H-5.799z"/><g filter="url(#t)"><path d="M35.897 78.151C53.454 82.284 69.1 84.748 67.443 91.79c-1.657 7.04-17.233 9.399-34.79 5.266-17.557-4.132-29.138-16.721-27.48-23.762 1.657-7.041 13.167.726 30.724 4.858z" fill="#AAA"/></g><g filter="url(#u)"><path d="M41.24 62.236C58.155 42.9 71.065 24.303 82.658 34.442c11.592 10.139 7.28 34.034-9.634 53.372C56.11 107.15 27.45 108.872 15.856 98.733c-11.592-10.14 8.472-17.16 25.385-36.497z" fill="#AAA"/></g><g filter="url(#v)"><path d="M34.464 83.744c21.8 13.59 42.228 23.35 34.08 36.419-8.147 13.069-32.425 12.646-54.226-.945-21.8-13.591-28.099-41.605-19.951-54.674 8.147-13.07 18.296 5.609 40.097 19.2z" fill="#AAA"/></g><g filter="url(#w)"><path d="M14.882 88.378c17.557 4.133 33.204 6.597 31.547 13.638-1.658 7.041-17.234 9.399-34.79 5.266C-5.919 103.15-17.5 90.562-15.843 83.52c1.657-7.04 13.168.726 30.724 4.858z" fill="#AAA"/></g><g filter="url(#x)"><path d="M125.63 64.542c18.992 18.992 17.866 62.722 6.353 74.236-11.514 11.514-36.244 5.451-55.236-13.541-18.992-18.992-18.617-49.181-7.104-60.695 11.514-11.514 36.995-18.992 55.987 0z" fill="url(#y)"/></g><g filter="url(#z)"><path d="M-7.263 98.949c13.43 23.26 55.961 33.491 70.062 25.349 14.102-8.141 14.647-33.597 1.217-56.858C50.586 44.18 21.33 36.728 7.228 44.87c-14.102 8.141-27.92 30.818-14.49 54.079z" fill="url(#A)"/></g><g filter="url(#B)"><path d="M74.568 66.712c17.557 4.132 33.203 6.597 31.546 13.638-1.657 7.04-17.233 9.398-34.79 5.266-17.557-4.133-29.138-16.721-27.48-23.762 1.657-7.041 13.167.725 30.724 4.858z" fill="#AAA"/></g></g></g></g><path d="M73.5 49.285a.5.5 0 0 0-.765-.425l-6.549 4.088a1.5 1.5 0 0 1-1.895-.254l-4.925-5.323a.5.5 0 0 0-.807.104l-8.673 16.237a1.5 1.5 0 0 1-2.117.566l-7.29-4.548a.502.502 0 0 0-.53 0l-7.214 4.502a.5.5 0 0 0-.235.423V86a1.5 1.5 0 0 0 1.5 1.5h38a1.5 1.5 0 0 0 1.5-1.5V49.285zM74.5 86a2.5 2.5 0 0 1-2.5 2.5H34a2.5 2.5 0 0 1-2.5-2.5V64.655a1.5 1.5 0 0 1 .706-1.272l7.214-4.502a1.501 1.501 0 0 1 1.589 0l7.289 4.549a.5.5 0 0 0 .706-.189l8.672-16.237a1.5 1.5 0 0 1 2.425-.313l4.923 5.324a.5.5 0 0 0 .632.085l6.55-4.087a1.5 1.5 0 0 1 2.294 1.272V86z" fill="url(#C)"/><path d="M73.5 96a1.5 1.5 0 0 0-1.5-1.5H37.801a.5.5 0 0 0-.348.86l14.124 13.66c.647.625.204 1.718-.695 1.718h-15.41a.5.5 0 0 0-.347.86l20.064 19.403a.5.5 0 0 0 .846-.359v-14.953c0-.882 1.061-1.332 1.696-.718l14.922 14.431a.5.5 0 0 0 .847-.359V96zm1 33.043c0 1.324-1.59 1.999-2.543 1.078l-14.922-14.432v14.953c0 1.324-1.59 1.998-2.542 1.078L34.43 112.316c-.97-.937-.306-2.578 1.043-2.578h15.409l-14.123-13.66c-.97-.937-.306-2.578 1.042-2.578h34.2a2.5 2.5 0 0 1 2.5 2.5v33.043z" fill="#000"/><path d="M167.225 103.414a2.002 2.002 0 0 1 2.83 0l4.242 4.242a2 2 0 0 1 0 2.828l-39.598 39.599a2 2 0 0 1-2.829-.001l-25.456-25.456a2 2 0 0 1 0-2.828l4.242-4.243a2 2 0 0 1 2.829 0l18.385 18.385a2 2 0 0 0 2.828 0l32.527-32.526z" fill="url(#D)"/><defs><filter id="u" x="-7.049" y="12.114" width="115.679" height="112.195" filterUnits="userSpaceOnUse" color-interpolation-filters="sRGB"><feFlood flood-opacity="0" result="BackgroundImageFix"/><feBlend in="SourceGraphic" in2="BackgroundImageFix" result="shape"/><feGaussianBlur stdDeviation="9.733" result="effect1_foregroundBlur_35_11"/></filter><filter id="a" x="79.5" y="63.5" width="120.134" height="120.134" filterUnits="userSpaceOnUse" color-interpolation-filters="sRGB"><feFlood flood-opacity="0" result="BackgroundImageFix"/><feBlend in="SourceGraphic" in2="BackgroundImageFix" result="shape"/><feColorMatrix in="SourceAlpha" values="0 0 0 0 0 0 0 0 0 0 0 0 0 0 0 0 0 0 127 0" result="hardAlpha"/><feOffset dx="1.135" dy="1.135"/><feGaussianBlur stdDeviation="5.673"/><feComposite in2="hardAlpha" operator="arithmetic" k2="-1" k3="1"/><feColorMatrix values="0 0 0 0 1 0 0 0 0 1 0 0 0 0 1 0 0 0 0.8 0"/><feBlend in2="shape" result="effect1_innerShadow_35_11"/></filter><filter id="e" x="-351.239" y="-229.999" width="486.841" height="528.238" filterUnits="userSpaceOnUse" color-interpolation-filters="sRGB"><feFlood flood-opacity="0" result="BackgroundImageFix"/><feBlend in="SourceGraphic" in2="BackgroundImageFix" result="shape"/><feGaussianBlur stdDeviation="40.962" result="effect1_foregroundBlur_35_11"/></filter><filter id="f" x="-67.982" y="-50.774" width="486.841" height="528.238" filterUnits="userSpaceOnUse" color-interpolation-filters="sRGB"><feFlood flood-opacity="0" result="BackgroundImageFix"/><feBlend in="SourceGraphic" in2="BackgroundImageFix" result="shape"/><feGaussianBlur stdDeviation="40.962" result="effect1_foregroundBlur_35_11"/></filter><filter id="g" x="-302.303" y="-297.127" width="472.015" height="437.698" filterUnits="userSpaceOnUse" color-interpolation-filters="sRGB"><feFlood flood-opacity="0" result="BackgroundImageFix"/><feBlend in="SourceGraphic" in2="BackgroundImageFix" result="shape"/><feGaussianBlur stdDeviation="40.962" result="effect1_foregroundBlur_35_11"/></filter><filter id="h" x="-91.112" y="-121.044" width="472.015" height="437.698" filterUnits="userSpaceOnUse" color-interpolation-filters="sRGB"><feFlood flood-opacity="0" result="BackgroundImageFix"/><feBlend in="SourceGraphic" in2="BackgroundImageFix" result="shape"/><feGaussianBlur stdDeviation="40.962" result="effect1_foregroundBlur_35_11"/></filter><filter id="i" x="-19.046" y="-117.903" width="472.015" height="437.698" filterUnits="userSpaceOnUse" color-interpolation-filters="sRGB"><feFlood flood-opacity="0" result="BackgroundImageFix"/><feBlend in="SourceGraphic" in2="BackgroundImageFix" result="shape"/><feGaussianBlur stdDeviation="40.962" result="effect1_foregroundBlur_35_11"/></filter><filter id="j" x="-161.777" y="-122.393" width="596.667" height="661.967" filterUnits="userSpaceOnUse" color-interpolation-filters="sRGB"><feFlood flood-opacity="0" result="BackgroundImageFix"/><feBlend in="SourceGraphic" in2="BackgroundImageFix" result="shape"/><feGaussianBlur stdDeviation="50" result="effect1_foregroundBlur_35_11"/></filter><filter id="l" x="-166.913" y="38.661" width="472.015" height="437.698" filterUnits="userSpaceOnUse" color-interpolation-filters="sRGB"><feFlood flood-opacity="0" result="BackgroundImageFix"/><feBlend in="SourceGraphic" in2="BackgroundImageFix" result="shape"/><feGaussianBlur stdDeviation="40.962" result="effect1_foregroundBlur_35_11"/></filter><filter id="m" x="-134.64" y="70.934" width="407.469" height="373.152" filterUnits="userSpaceOnUse" color-interpolation-filters="sRGB"><feFlood flood-opacity="0" result="BackgroundImageFix"/><feBlend in="SourceGraphic" in2="BackgroundImageFix" result="shape"/><feGaussianBlur stdDeviation="24.826" result="effect1_foregroundBlur_35_11"/></filter><filter id="n" x="-52.187" y="-12.984" width="596.667" height="661.967" filterUnits="userSpaceOnUse" color-interpolation-filters="sRGB"><feFlood flood-opacity="0" result="BackgroundImageFix"/><feBlend in="SourceGraphic" in2="BackgroundImageFix" result="shape"/><feGaussianBlur stdDeviation="50" result="effect1_foregroundBlur_35_11"/></filter><filter id="q" x="31.5" y="46.211" width="43.386" height="42.674" filterUnits="userSpaceOnUse" color-interpolation-filters="sRGB"><feFlood flood-opacity="0" result="BackgroundImageFix"/><feBlend in="SourceGraphic" in2="BackgroundImageFix" result="shape"/><feColorMatrix in="SourceAlpha" values="0 0 0 0 0 0 0 0 0 0 0 0 0 0 0 0 0 0 127 0" result="hardAlpha"/><feOffset dx=".385" dy=".385"/><feGaussianBlur stdDeviation="1.923"/><feComposite in2="hardAlpha" operator="arithmetic" k2="-1" k3="1"/><feColorMatrix values="0 0 0 0 1 0 0 0 0 1 0 0 0 0 1 0 0 0 0.8 0"/><feBlend in2="shape" result="effect1_innerShadow_35_11"/></filter><filter id="t" x="-21.752" y="43.687" width="116.084" height="82.171" filterUnits="userSpaceOnUse" color-interpolation-filters="sRGB"><feFlood flood-opacity="0" result="BackgroundImageFix"/><feBlend in="SourceGraphic" in2="BackgroundImageFix" result="shape"/><feGaussianBlur stdDeviation="13.383" result="effect1_foregroundBlur_35_11"/></filter><filter id="d" x="-295.528" y="-76.203" width="520.163" height="569.598" filterUnits="userSpaceOnUse" color-interpolation-filters="sRGB"><feFlood flood-opacity="0" result="BackgroundImageFix"/><feBlend in="SourceGraphic" in2="BackgroundImageFix" result="shape"/><feGaussianBlur stdDeviation="68.27" result="effect1_foregroundBlur_35_11"/></filter><filter id="v" x="-18.79" y="50.377" width="98.897" height="89.051" filterUnits="userSpaceOnUse" color-interpolation-filters="sRGB"><feFlood flood-opacity="0" result="BackgroundImageFix"/><feBlend in="SourceGraphic" in2="BackgroundImageFix" result="shape"/><feGaussianBlur stdDeviation="4.867" result="effect1_foregroundBlur_35_11"/></filter><filter id="w" x="-42.767" y="53.914" width="116.084" height="82.171" filterUnits="userSpaceOnUse" color-interpolation-filters="sRGB"><feFlood flood-opacity="0" result="BackgroundImageFix"/><feBlend in="SourceGraphic" in2="BackgroundImageFix" result="shape"/><feGaussianBlur stdDeviation="13.383" result="effect1_foregroundBlur_35_11"/></filter><filter id="x" x="-38.385" y="-47.065" width="278.716" height="291.674" filterUnits="userSpaceOnUse" color-interpolation-filters="sRGB"><feFlood flood-opacity="0" result="BackgroundImageFix"/><feBlend in="SourceGraphic" in2="BackgroundImageFix" result="shape"/><feGaussianBlur stdDeviation="50" result="effect1_foregroundBlur_35_11"/></filter><filter id="z" x="-112.729" y="-58.315" width="286.472" height="285.38" filterUnits="userSpaceOnUse" color-interpolation-filters="sRGB"><feFlood flood-opacity="0" result="BackgroundImageFix"/><feBlend in="SourceGraphic" in2="BackgroundImageFix" result="shape"/><feGaussianBlur stdDeviation="50" result="effect1_foregroundBlur_35_11"/></filter><filter id="B" x="27.625" y="42.954" width="94.67" height="60.758" filterUnits="userSpaceOnUse" color-interpolation-filters="sRGB"><feFlood flood-opacity="0" result="BackgroundImageFix"/><feBlend in="SourceGraphic" in2="BackgroundImageFix" result="shape"/><feGaussianBlur stdDeviation="8.03" result="effect1_foregroundBlur_35_11"/></filter><linearGradient id="k" x1="-47.168" y1="21.95" x2="68.195" y2="238.255" gradientUnits="userSpaceOnUse"><stop stop-color="#fff" stop-opacity=".3"/><stop offset="1" stop-color="#fff" stop-opacity="0"/></linearGradient><linearGradient id="o" x1="455.711" y1="197.192" x2="111.594" y2="541.308" gradientUnits="userSpaceOnUse"><stop stop-color="#fff"/><stop offset="1" stop-color="#fff" stop-opacity="0"/></linearGradient><linearGradient id="y" x1="64.514" y1="61.735" x2="87.407" y2="104.659" gradientUnits="userSpaceOnUse"><stop stop-color="#fff"/><stop offset="1" stop-color="#fff" stop-opacity="0"/></linearGradient><linearGradient id="A" x1="5.844" y1="39.189" x2="41.38" y2="72.411" gradientUnits="userSpaceOnUse"><stop stop-color="#AAA"/><stop offset="1" stop-color="#AAA" stop-opacity="0"/></linearGradient><radialGradient id="p" cx="0" cy="0" r="1" gradientTransform="matrix(149.427 64.2325 -64.2337 149.415 88.632 90.31)" gradientUnits="userSpaceOnUse"><stop stop-color="#fff"/><stop offset="1" stop-color="#fff" stop-opacity="0"/></radialGradient><radialGradient id="C" cx="0" cy="0" r="1" gradientTransform="matrix(53.1863 22.8625 -22.863 53.1819 35.072 55.364)" gradientUnits="userSpaceOnUse"><stop stop-color="#fff"/><stop offset="1" stop-color="#fff" stop-opacity="0"/></radialGradient><radialGradient id="D" cx="0" cy="0" r="1" gradientTransform="matrix(69.5803 -22.5892 22.2996 49.087 94.55 158.232)" gradientUnits="userSpaceOnUse"><stop stop-color="#fff"/><stop offset="1" stop-color="#fff" stop-opacity=".5"/></radialGradient></defs></svg>