<svg width="32" height="34" viewBox="0 0 32 34" fill="none" xmlns="http://www.w3.org/2000/svg">
<rect x="1.79199" y="17.9731" width="13.824" height="13.824" rx="2.56" fill="#586A7A"/>
<rect x="16.64" y="3.125" width="13.824" height="13.824" rx="2.56" fill="#586A7A"/>
<rect x="1.79199" y="3.125" width="13.824" height="13.824" rx="2.56" fill="#586A7A"/>
<rect x="16.64" y="17.9731" width="13.824" height="13.824" rx="2.56" fill="#586A7A"/>
<rect x="0.128" y="1.46101" width="31.744" height="31.744" rx="2.944" stroke="black" stroke-opacity="0.1" stroke-width="0.256"/>
<rect y="0.666992" width="32" height="32" rx="6" fill="#586A7A"/>
<g>
<path fill-rule="evenodd" clip-rule="evenodd" d="M10.2143 10.2386H12.7857C13.1407 10.2386 13.4285 10.5264 13.4285 10.8815V13.4529C13.4285 13.808 13.1407 14.0958 12.7857 14.0958H10.2143C9.85921 14.0958 9.57139 13.808 9.57139 13.4529V10.8815C9.57139 10.5264 9.85921 10.2386 10.2143 10.2386ZM7.64282 10.8815C7.64282 9.46133 8.79409 8.31006 10.2143 8.31006H12.7857C14.2058 8.31006 15.3571 9.46133 15.3571 10.8815V13.4529C15.3571 14.8731 14.2058 16.0243 12.7857 16.0243H10.2143C8.79409 16.0243 7.64282 14.8731 7.64282 13.4529V10.8815ZM19.2143 10.2386H21.7857C22.1407 10.2386 22.4285 10.5264 22.4285 10.8815V13.4529C22.4285 13.808 22.1407 14.0958 21.7857 14.0958H19.2143C18.8592 14.0958 18.5714 13.808 18.5714 13.4529V10.8815C18.5714 10.5264 18.8592 10.2386 19.2143 10.2386ZM16.6428 10.8815C16.6428 9.46133 17.7941 8.31006 19.2143 8.31006H21.7857C23.2058 8.31006 24.3571 9.46133 24.3571 10.8815V13.4529C24.3571 14.8731 23.2058 16.0243 21.7857 16.0243H19.2143C17.7941 16.0243 16.6428 14.8731 16.6428 13.4529V10.8815ZM12.7857 19.2386H10.2143C9.85921 19.2386 9.57139 19.5264 9.57139 19.8815V22.4529C9.57139 22.808 9.85921 23.0958 10.2143 23.0958H12.7857C13.1407 23.0958 13.4285 22.808 13.4285 22.4529V19.8815C13.4285 19.5264 13.1407 19.2386 12.7857 19.2386ZM10.2143 17.3101C8.79409 17.3101 7.64282 18.4613 7.64282 19.8815V22.4529C7.64282 23.8731 8.79409 25.0243 10.2143 25.0243H12.7857C14.2058 25.0243 15.3571 23.8731 15.3571 22.4529V19.8815C15.3571 18.4613 14.2058 17.3101 12.7857 17.3101H10.2143ZM19.2143 19.2386H21.7857C22.1407 19.2386 22.4285 19.5264 22.4285 19.8815V22.4529C22.4285 22.808 22.1407 23.0958 21.7857 23.0958H19.2143C18.8592 23.0958 18.5714 22.808 18.5714 22.4529V19.8815C18.5714 19.5264 18.8592 19.2386 19.2143 19.2386ZM16.6428 19.8815C16.6428 18.4613 17.7941 17.3101 19.2143 17.3101H21.7857C23.2058 17.3101 24.3571 18.4613 24.3571 19.8815V22.4529C24.3571 23.8731 23.2058 25.0243 21.7857 25.0243H19.2143C17.7941 25.0243 16.6428 23.8731 16.6428 22.4529V19.8815Z" fill="white"/>
</g>
</svg>
