<svg width="16" height="16" viewBox="0 0 16 16" fill="none" xmlns="http://www.w3.org/2000/svg">
<path fill-rule="evenodd" clip-rule="evenodd" d="M3.5 3H5.5C5.77614 3 6 3.22386 6 3.5V5.5C6 5.77614 5.77614 6 5.5 6H3.5C3.22386 6 3 5.77614 3 5.5V3.5C3 3.22386 3.22386 3 3.5 3ZM1.5 3.5C1.5 2.39543 2.39543 1.5 3.5 1.5H5.5C6.60457 1.5 7.5 2.39543 7.5 3.5V5.5C7.5 6.60457 6.60457 7.5 5.5 7.5H3.5C2.39543 7.5 1.5 6.60457 1.5 5.5V3.5ZM10.5 3H12.5C12.7761 3 13 3.22386 13 3.5V5.5C13 5.77614 12.7761 6 12.5 6H10.5C10.2239 6 10 5.77614 10 5.5V3.5C10 3.22386 10.2239 3 10.5 3ZM8.5 3.5C8.5 2.39543 9.39543 1.5 10.5 1.5H12.5C13.6046 1.5 14.5 2.39543 14.5 3.5V5.5C14.5 6.60457 13.6046 7.5 12.5 7.5H10.5C9.39543 7.5 8.5 6.60457 8.5 5.5V3.5ZM5.5 10H3.5C3.22386 10 3 10.2239 3 10.5V12.5C3 12.7761 3.22386 13 3.5 13H5.5C5.77614 13 6 12.7761 6 12.5V10.5C6 10.2239 5.77614 10 5.5 10ZM3.5 8.5C2.39543 8.5 1.5 9.39543 1.5 10.5V12.5C1.5 13.6046 2.39543 14.5 3.5 14.5H5.5C6.60457 14.5 7.5 13.6046 7.5 12.5V10.5C7.5 9.39543 6.60457 8.5 5.5 8.5H3.5ZM10.5 10H12.5C12.7761 10 13 10.2239 13 10.5V12.5C13 12.7761 12.7761 13 12.5 13H10.5C10.2239 13 10 12.7761 10 12.5V10.5C10 10.2239 10.2239 10 10.5 10ZM8.5 10.5C8.5 9.39543 9.39543 8.5 10.5 8.5H12.5C13.6046 8.5 14.5 9.39543 14.5 10.5V12.5C14.5 13.6046 13.6046 14.5 12.5 14.5H10.5C9.39543 14.5 8.5 13.6046 8.5 12.5V10.5Z" fill="currentColor" fill-opacity="0.7"/>
</svg>
