<svg width="38" height="23" viewBox="0 0 38 23" fill="none" xmlns="http://www.w3.org/2000/svg">
<path d="M10.7953 8.29922C10.7953 8.76172 10.8453 9.13672 10.9328 9.41172C11.0328 9.68672 11.1578 9.98672 11.3328 10.3117C11.3953 10.4117 11.4203 10.5117 11.4203 10.5992C11.4203 10.7242 11.3453 10.8492 11.1828 10.9742L10.3953 11.4992C10.2828 11.5742 10.1703 11.6117 10.0703 11.6117C9.94531 11.6117 9.82031 11.5492 9.69531 11.4367C9.52031 11.2492 9.37031 11.0492 9.24531 10.8492C9.12031 10.6367 8.99531 10.3992 8.85781 10.1117C7.88281 11.2617 6.65781 11.8367 5.18281 11.8367C4.13281 11.8367 3.29531 11.5367 2.68281 10.9367C2.07031 10.3367 1.75781 9.53672 1.75781 8.53672C1.75781 7.47422 2.13281 6.61172 2.89531 5.96172C3.65781 5.31172 4.67031 4.98672 5.95781 4.98672C6.38281 4.98672 6.82031 5.02422 7.28281 5.08672C7.74531 5.14922 8.22031 5.24922 8.72031 5.36172V4.44922C8.72031 3.49922 8.52031 2.83672 8.13281 2.44922C7.73281 2.06172 7.05781 1.87422 6.09531 1.87422C5.65781 1.87422 5.20781 1.92422 4.74531 2.03672C4.28281 2.14922 3.83281 2.28672 3.39531 2.46172C3.19531 2.54922 3.04531 2.59922 2.95781 2.62422C2.87031 2.64922 2.80781 2.66172 2.75781 2.66172C2.58281 2.66172 2.49531 2.53672 2.49531 2.27422V1.66172C2.49531 1.46172 2.52031 1.31172 2.58281 1.22422C2.64531 1.13672 2.75781 1.04922 2.93281 0.961719C3.37031 0.736719 3.89531 0.549219 4.50781 0.399219C5.12031 0.236719 5.77031 0.161719 6.45781 0.161719C7.94531 0.161719 9.03281 0.499219 9.73281 1.17422C10.4203 1.84922 10.7703 2.87422 10.7703 4.24922V8.29922H10.7953ZM5.72031 10.1992C6.13281 10.1992 6.55781 10.1242 7.00781 9.97422C7.45781 9.82422 7.85781 9.54922 8.19531 9.17422C8.39531 8.93672 8.54531 8.67422 8.62031 8.37422C8.69531 8.07422 8.74531 7.71172 8.74531 7.28672V6.76172C8.38281 6.67422 7.99531 6.59922 7.59531 6.54922C7.19531 6.49922 6.80781 6.47422 6.42031 6.47422C5.58281 6.47422 4.97031 6.63672 4.55781 6.97422C4.14531 7.31172 3.94531 7.78672 3.94531 8.41172C3.94531 8.99922 4.09531 9.43672 4.40781 9.73672C4.70781 10.0492 5.14531 10.1992 5.72031 10.1992ZM15.7578 11.5492C15.5328 11.5492 15.3828 11.5117 15.2828 11.4242C15.1828 11.3492 15.0953 11.1742 15.0203 10.9367L12.0828 1.27422C12.0078 1.02422 11.9703 0.861719 11.9703 0.774219C11.9703 0.574219 12.0703 0.461719 12.2703 0.461719H13.4953C13.7328 0.461719 13.8953 0.499219 13.9828 0.586719C14.0828 0.661719 14.1578 0.836719 14.2328 1.07422L16.3328 9.34922L18.2828 1.07422C18.3453 0.824219 18.4203 0.661719 18.5203 0.586719C18.6203 0.511719 18.7953 0.461719 19.0203 0.461719H20.0203C20.2578 0.461719 20.4203 0.499219 20.5203 0.586719C20.6203 0.661719 20.7078 0.836719 20.7578 1.07422L22.7328 9.44922L24.8953 1.07422C24.9703 0.824219 25.0578 0.661719 25.1453 0.586719C25.2453 0.511719 25.4078 0.461719 25.6328 0.461719H26.7953C26.9953 0.461719 27.1078 0.561719 27.1078 0.774219C27.1078 0.836719 27.0953 0.899219 27.0828 0.974219C27.0703 1.04922 27.0453 1.14922 26.9953 1.28672L23.9828 10.9492C23.9078 11.1992 23.8203 11.3617 23.7203 11.4367C23.6203 11.5117 23.4578 11.5617 23.2453 11.5617H22.1703C21.9328 11.5617 21.7703 11.5242 21.6703 11.4367C21.5703 11.3492 21.4828 11.1867 21.4328 10.9367L19.4953 2.87422L17.5703 10.9242C17.5078 11.1742 17.4328 11.3367 17.3328 11.4242C17.2328 11.5117 17.0578 11.5492 16.8328 11.5492H15.7578ZM31.8203 11.8867C31.1703 11.8867 30.5203 11.8117 29.8953 11.6617C29.2703 11.5117 28.7828 11.3492 28.4578 11.1617C28.2578 11.0492 28.1203 10.9242 28.0703 10.8117C28.0203 10.6992 27.9953 10.5742 27.9953 10.4617V9.82422C27.9953 9.56172 28.0953 9.43672 28.2828 9.43672C28.3578 9.43672 28.4328 9.44922 28.5078 9.47422C28.5828 9.49922 28.6953 9.54922 28.8203 9.59922C29.2453 9.78672 29.7078 9.93672 30.1953 10.0367C30.6953 10.1367 31.1828 10.1867 31.6828 10.1867C32.4703 10.1867 33.0828 10.0492 33.5078 9.77422C33.9328 9.49922 34.1578 9.09922 34.1578 8.58672C34.1578 8.23672 34.0453 7.94922 33.8203 7.71172C33.5953 7.47422 33.1703 7.26172 32.5578 7.06172L30.7453 6.49922C29.8328 6.21172 29.1578 5.78672 28.7453 5.22422C28.3328 4.67422 28.1203 4.06172 28.1203 3.41172C28.1203 2.88672 28.2328 2.42422 28.4578 2.02422C28.6828 1.62422 28.9828 1.27422 29.3578 0.999219C29.7328 0.711719 30.1578 0.499219 30.6578 0.349219C31.1578 0.199219 31.6828 0.136719 32.2328 0.136719C32.5078 0.136719 32.7953 0.149219 33.0703 0.186719C33.3578 0.224219 33.6203 0.274219 33.8828 0.324219C34.1328 0.386719 34.3703 0.449219 34.5953 0.524219C34.8203 0.599219 34.9953 0.674219 35.1203 0.749219C35.2953 0.849219 35.4203 0.949219 35.4953 1.06172C35.5703 1.16172 35.6078 1.29922 35.6078 1.47422V2.06172C35.6078 2.32422 35.5078 2.46172 35.3203 2.46172C35.2203 2.46172 35.0578 2.41172 34.8453 2.31172C34.1328 1.98672 33.3328 1.82422 32.4453 1.82422C31.7328 1.82422 31.1703 1.93672 30.7828 2.17422C30.3953 2.41172 30.1953 2.77422 30.1953 3.28672C30.1953 3.63672 30.3203 3.93672 30.5703 4.17422C30.8203 4.41172 31.2828 4.64922 31.9453 4.86172L33.7203 5.42422C34.6203 5.71172 35.2703 6.11172 35.6578 6.62422C36.0453 7.13672 36.2328 7.72422 36.2328 8.37422C36.2328 8.91172 36.1203 9.39922 35.9078 9.82422C35.6828 10.2492 35.3828 10.6242 34.9953 10.9242C34.6078 11.2367 34.1453 11.4617 33.6078 11.6242C33.0453 11.7992 32.4578 11.8867 31.8203 11.8867Z" fill="currentColor"/>
<path fill-rule="evenodd" clip-rule="evenodd" d="M34.1821 17.9622C30.0696 20.9997 24.0946 22.6122 18.9571 22.6122C11.7571 22.6122 5.26963 19.9497 0.369627 15.5247C-0.0178729 15.1747 0.332127 14.6997 0.794627 14.9747C6.09463 18.0497 12.6321 19.9122 19.3946 19.9122C23.9571 19.9122 28.9696 18.9622 33.5821 17.0122C34.2696 16.6997 34.8571 17.4622 34.1821 17.9622Z" fill="#FF9900"/>
<path fill-rule="evenodd" clip-rule="evenodd" d="M35.8939 16.0119C35.3689 15.3369 32.4189 15.6869 31.0814 15.8494C30.6814 15.8994 30.6189 15.5494 30.9814 15.2869C33.3314 13.6369 37.1939 14.1119 37.6439 14.6619C38.0939 15.2244 37.5189 19.0869 35.3189 20.9369C34.9814 21.2244 34.6564 21.0744 34.8064 20.6994C35.3064 19.4619 36.4189 16.6744 35.8939 16.0119Z" fill="#FF9900"/>
</svg>
