<svg width="35" height="24" viewBox="0 0 35 24" fill="none" xmlns="http://www.w3.org/2000/svg">
<rect x="0.5" y="0.5" width="34" height="23" rx="3.5" fill="white" stroke="#D9D9D9"/>
<path d="M19.045 19.4998C22.9425 19.5187 26.5 16.292 26.5 12.3669C26.5 8.07486 22.9425 5.10777 19.045 5.10938H15.6906C11.7467 5.10777 8.5 8.07567 8.5 12.3669C8.5 16.2928 11.7467 19.5187 15.6906 19.4998H19.045Z" fill="#0079BE"/>
<path d="M15.7067 5.7041C12.1023 5.7053 9.18211 8.65317 9.18091 12.2915C9.18211 15.9295 12.1023 18.8774 15.7067 18.8786C19.3114 18.8774 22.2328 15.9295 22.2332 12.2915C22.2328 8.65317 19.3118 5.7053 15.7067 5.7041ZM11.5704 12.2915C11.5697 11.4503 11.8227 10.6284 12.2965 9.9333C12.7702 9.23817 13.4427 8.70213 14.2259 8.39523V16.1874C13.4426 15.8808 12.7701 15.3448 12.2963 14.6497C11.8225 13.9546 11.5695 13.1327 11.5704 12.2915V12.2915ZM17.187 16.189V8.39483C17.9708 8.70129 18.6439 9.23728 19.118 9.93265C19.5921 10.628 19.8452 11.4503 19.8441 12.2919C19.845 13.1335 19.5918 13.9558 19.1178 14.6511C18.6437 15.3464 17.9707 15.8824 17.187 16.189V16.189Z" fill="white"/>
<path d="M19.045 19.4998C22.9425 19.5187 26.5 16.292 26.5 12.3669C26.5 8.07486 22.9425 5.10777 19.045 5.10938H15.6906C11.7467 5.10777 8.5 8.07567 8.5 12.3669C8.5 16.2928 11.7467 19.5187 15.6906 19.4998H19.045Z" fill="#0079BE"/>
<path d="M15.7067 5.7041C12.1023 5.7053 9.18211 8.65317 9.18091 12.2915C9.18211 15.9295 12.1023 18.8774 15.7067 18.8786C19.3114 18.8774 22.2328 15.9295 22.2332 12.2915C22.2328 8.65317 19.3118 5.7053 15.7067 5.7041ZM11.5704 12.2915C11.5697 11.4503 11.8227 10.6284 12.2965 9.9333C12.7702 9.23817 13.4427 8.70213 14.2259 8.39523V16.1874C13.4426 15.8808 12.7701 15.3448 12.2963 14.6497C11.8225 13.9546 11.5695 13.1327 11.5704 12.2915V12.2915ZM17.187 16.189V8.39483C17.9708 8.70129 18.6439 9.23728 19.118 9.93265C19.5921 10.628 19.8452 11.4503 19.8441 12.2919C19.845 13.1335 19.5918 13.9558 19.1178 14.6511C18.6437 15.3464 17.9707 15.8824 17.187 16.189V16.189Z" fill="white"/>
</svg>
