<svg width="35" height="24" viewBox="0 0 35 24" fill="none" xmlns="http://www.w3.org/2000/svg">
<rect x="0.5" y="0.5" width="34" height="23" rx="3.5" fill="white" stroke="#D9D9D9"/>
<path d="M15 23L34 17.25V20C34 21.6569 32.6569 23 31 23H15Z" fill="#FD6020"/>
<path fill-rule="evenodd" clip-rule="evenodd" d="M30.3937 9.11084C31.439 9.11084 32.0139 9.59438 32.0139 10.5077C32.0661 11.2062 31.5958 11.7972 30.9686 11.9046L32.3797 13.8925H31.2822L30.0801 11.9584H29.9756V13.8925H29.0871V9.11084H30.3937ZM29.9756 11.3137H30.2369C30.8118 11.3137 31.0731 11.045 31.0731 10.5615C31.0731 10.1317 30.8118 9.86304 30.2369 9.86304H29.9756V11.3137ZM26.0034 13.8925H28.5122V13.0866H26.8919V11.7972H28.4599V10.9913H26.8919V9.91674H28.5122V9.11084H26.0034V13.8925V13.8925ZM23.3902 12.3345L22.1881 9.11084H21.2474L23.1812 14H23.6515L25.5853 9.11084H24.6446L23.3902 12.3345V12.3345ZM12.7805 11.5286C12.7805 12.8717 13.8258 14 15.1324 14C15.5505 14 15.9164 13.8925 16.2822 13.7314V12.6568C16.0209 12.9792 15.655 13.1941 15.2369 13.1941C14.4007 13.1941 13.7212 12.5494 13.7212 11.6897V11.5823C13.669 10.7227 14.3484 9.97048 15.1847 9.91675C15.6028 9.91675 16.0209 10.1317 16.2822 10.454V9.37948C15.9686 9.16458 15.5505 9.11085 15.1847 9.11085C13.8258 9.0034 12.7805 10.1317 12.7805 11.5286V11.5286ZM11.1603 10.9376C10.6376 10.7227 10.4808 10.6152 10.4808 10.3466C10.5331 10.0242 10.7944 9.75557 11.108 9.8093C11.3693 9.8093 11.6306 9.97048 11.8397 10.1854L12.3101 9.54066C11.9442 9.2183 11.4739 9.00339 11.0035 9.00339C10.2718 8.94967 9.64459 9.54066 9.59232 10.2928V10.3466C9.59232 10.9913 9.85365 11.3674 10.6899 11.636C10.8989 11.6897 11.108 11.7972 11.3171 11.9046C11.4739 12.0121 11.5784 12.1733 11.5784 12.3882C11.5784 12.7643 11.2648 13.0866 10.9512 13.0866H10.8989C10.4808 13.0866 10.115 12.818 9.95818 12.4419L9.38326 13.0329C9.69685 13.6239 10.324 13.9463 10.9512 13.9463C11.7874 14 12.4669 13.3553 12.5191 12.4956V12.3345C12.4669 11.6897 12.2056 11.3674 11.1603 10.9376V10.9376ZM8.12892 13.8925H9.01742V9.11084H8.12892V13.8925V13.8925ZM4 9.11086H5.30662H5.56794C6.8223 9.16458 7.81532 10.2391 7.76306 11.5286C7.76306 12.227 7.44947 12.8717 6.92682 13.3553C6.45644 13.7314 5.88153 13.9463 5.30662 13.8926H4V9.11086ZM5.14983 13.0866C5.56794 13.1404 6.03833 12.9792 6.35191 12.7105C6.6655 12.3882 6.8223 11.9584 6.8223 11.4748C6.8223 11.045 6.6655 10.6152 6.35191 10.2928C6.03833 10.0242 5.56794 9.86302 5.14983 9.91674H4.8885V13.0866H5.14983Z" fill="black"/>
<path fill-rule="evenodd" clip-rule="evenodd" d="M18.9478 9C17.6411 9 16.5436 10.0745 16.5436 11.4714C16.5436 12.8146 17.5889 13.9429 18.9478 13.9966C20.3066 14.0503 21.3519 12.9221 21.4042 11.5252C21.3519 10.1283 20.3066 9 18.9478 9V9Z" fill="#FD6020"/>
</svg>
