<svg width="35" height="24" viewBox="0 0 35 24" fill="none" xmlns="http://www.w3.org/2000/svg">
<rect x="0.5" y="0.5" width="34" height="23" rx="3.5" fill="white" stroke="#D9D9D9"/>
<path d="M22.3182 12.2873C22.8319 12.2984 23.3485 12.2646 23.8601 12.3049C24.3782 12.4015 24.5031 13.1859 24.0428 13.4428C23.7287 13.612 23.3556 13.5058 23.0151 13.5357H22.3182V12.2873V12.2873ZM24.1571 10.8743C24.2712 11.2771 23.8829 11.6388 23.4949 11.5833H22.3182C22.3265 11.2034 22.3021 10.7911 22.3302 10.4312C22.8016 10.4445 23.2773 10.4041 23.746 10.4523C23.9474 10.5029 24.1159 10.6684 24.1571 10.8743V10.8743ZM26.9891 4.90042C27.011 5.66972 26.9922 6.47968 26.9985 7.26459C26.9971 10.4557 27.0016 13.6468 26.996 16.8381C26.9754 18.0341 25.9155 19.0733 24.7278 19.0971C23.539 19.102 22.3499 19.0979 21.1609 19.0992V14.2749C22.4564 14.2682 23.7525 14.2884 25.0475 14.2647C25.6482 14.227 26.3062 13.8307 26.3342 13.1696C26.4049 12.5057 25.7789 12.0464 25.1846 11.9739C24.9562 11.968 24.9629 11.9073 25.1846 11.8808C25.7515 11.7583 26.1966 11.1717 26.0298 10.5841C25.8877 9.96618 25.2047 9.72701 24.6366 9.72819C23.4782 9.72032 22.3196 9.72709 21.1612 9.72481C21.1687 8.82416 21.1456 7.92255 21.1736 7.02256C21.2654 5.84819 22.352 4.87971 23.523 4.90073C24.6785 4.90055 25.8338 4.90055 26.9891 4.90051V4.90042Z" fill="url(#paint0_linear_2048_15138)"/>
<path d="M8.07061 7.14441C8.10019 5.95034 9.16462 4.91967 10.3508 4.90222C11.5352 4.89857 12.7198 4.90169 13.9043 4.90064C13.901 8.89572 13.9107 12.8912 13.8994 16.8861C13.8538 18.0657 12.8009 19.0767 11.6277 19.0976C10.441 19.1019 9.25421 19.0982 8.06749 19.0994V14.1124C9.22019 14.3847 10.429 14.5006 11.6049 14.32C12.3079 14.2069 13.0769 13.8617 13.3149 13.1324C13.49 12.5086 13.3915 11.8521 13.4175 11.2119V9.72503H11.3824C11.3733 10.7084 11.4011 11.6935 11.3677 12.6757C11.3128 13.2794 10.715 13.663 10.1456 13.6425C9.43945 13.65 8.04014 13.1307 8.04014 13.1307C8.03663 11.2883 8.06063 8.98091 8.07061 7.14458V7.14441Z" fill="url(#paint1_linear_2048_15138)"/>
<path d="M14.6632 10.325C14.5561 10.3477 14.6417 9.96009 14.6143 9.81305C14.6216 8.88335 14.599 7.95263 14.6267 7.02359C14.7182 5.84425 15.8132 4.87336 16.9889 4.90097H20.4513C20.4481 8.89605 20.4577 12.8916 20.4464 16.8864C20.4008 18.066 19.3479 19.077 18.1746 19.0979C16.9879 19.1024 15.801 19.0986 14.6142 19.0997V13.6358C15.4248 14.3009 16.5264 14.4044 17.5362 14.4062C18.2974 14.4059 19.0542 14.2885 19.7935 14.113V13.112C18.9604 13.5272 17.981 13.7909 17.0575 13.5524C16.4132 13.392 15.9456 12.7694 15.956 12.1046C15.8813 11.4131 16.2866 10.6832 16.9661 10.4776C17.8097 10.2135 18.7291 10.4155 19.5198 10.7589C19.6892 10.8476 19.8612 10.9576 19.7934 10.6744V9.88764C18.4709 9.573 17.0635 9.45721 15.7349 9.79951C15.3503 9.908 14.9756 10.0725 14.6632 10.3251V10.325Z" fill="url(#paint2_linear_2048_15138)"/>
<defs>
<linearGradient id="paint0_linear_2048_15138" x1="21.1211" y1="11.6962" x2="26.9617" y2="11.6962" gradientUnits="userSpaceOnUse">
<stop stop-color="#58B03A"/>
<stop offset="1" stop-color="#55B330"/>
</linearGradient>
<linearGradient id="paint1_linear_2048_15138" x1="7.9433" y1="12.136" x2="13.8086" y2="12.136" gradientUnits="userSpaceOnUse">
<stop stop-color="#0F6EB6"/>
<stop offset="1" stop-color="#006DBA"/>
</linearGradient>
<linearGradient id="paint2_linear_2048_15138" x1="14.6057" y1="11.8343" x2="20.4502" y2="11.8343" gradientUnits="userSpaceOnUse">
<stop stop-color="#DE0D3D"/>
<stop offset="1" stop-color="#E30138"/>
</linearGradient>
</defs>
</svg>
