<svg xmlns="http://www.w3.org/2000/svg" width="383" height="396" fill="none" viewBox="0 0 383 396"><path fill="#ECF2F9" fill-rule="evenodd" d="M307.1 168.2c9.4-14.2 14.1-32.6 14.1-55.3 0-34.4-11.7-61.9-35.3-82.2C262.5 10.2 222.9 0 179.2 0c-13.1 0-24.1.9-34.8 2.7-10.7 1.8-20.1 3.9-28.2 6.3-5.4 1.6-16.1 5.7-23.3 8.6-4.1 1.7-6.9 6-6.9 10.8v39.5c0 8.2 7.8 13.8 14.9 10.5l1.805-.818c2.367-1.075 4.452-2.021 5.895-2.582 5.7-2.3 12.4-4.2 20.1-5.8 7.7-1.6 16.3-2.4 25.7-2.4 22.2 0 43.1 5 52.3 14.9 9.2 10 13.8 22.5 13.8 37.5 0 13-2.7 24.1-8.2 33.2-5.5 9.1-13.1 18-22.9 26.5-7.9 6.9-15.2 13.5-22 19.8-6.8 6.3-12.6 13.2-17.5 20.7s-8.7 16-11.3 25.3c-1.6 5.6-2.7 20.3-3.3 31-.3 6.6 4.5 12.2 10.7 12.2h51.2c5.4 0 10-4.4 10.6-10.2.6-5.7 2-12.5 5.5-17.8 4-5.9 8.7-11.8 14.7-17.3s13-11 20.9-16.7c8-5.6 16.2-12.1 24.9-19.4 12.8-11.4 23.9-24.1 33.3-38.3ZM139.5 380.9c9 9.5 20.1 14.2 33.4 14.2 6.3 0 12.4-1.3 18.2-4 5.8-2.6 10.9-6 15.2-10.3 4.3-4.3 7.7-9.4 10.2-15.2 2.5-5.8 3.7-12.1 3.7-19 0-6.8-1.2-13.2-3.7-19-2.5-5.8-5.9-10.9-10.2-15.4-4.3-4.5-9.4-7.9-15.2-10.3-5.8-2.4-11.9-3.6-18.2-3.6-13.3 0-24.4 4.6-33.4 13.9S126 333 126 346.7c0 13.4 4.5 24.8 13.5 34.2Z" clip-rule="evenodd"/><path fill="#626262" fill-rule="evenodd" d="M20.2 193c-.613 0-1.218.035-1.813.102a2 2 0 1 1-.449-3.975A20.137 20.137 0 0 1 20.2 189h1.974a2 2 0 1 1 0 4H20.2Zm9.847-2a2 2 0 0 1 2-2h3.949a2 2 0 1 1 0 4h-3.95a2 2 0 0 1-2-2Zm13.821 0a2 2 0 0 1 2-2h3.95a2 2 0 1 1 0 4h-3.95a2 2 0 0 1-2-2Zm13.822 0a2 2 0 0 1 2-2h3.949a2 2 0 1 1 0 4h-3.95a2 2 0 0 1-2-2Zm13.821 0a2 2 0 0 1 2-2h3.95a2 2 0 1 1 0 4h-3.95a2 2 0 0 1-2-2Zm13.822 0a2 2 0 0 1 2-2h3.949a2 2 0 1 1 0 4h-3.95a2 2 0 0 1-2-2Zm13.821 0a2 2 0 0 1 2-2h3.949a2 2 0 1 1 0 4h-3.949a2 2 0 0 1-2-2Zm13.822 0a2 2 0 0 1 2-2h3.948a2 2 0 1 1 0 4h-3.948a2 2 0 0 1-2-2Zm13.821 0a2 2 0 0 1 2-2h3.949a2 2 0 0 1 0 4h-3.949a2 2 0 0 1-2-2Zm13.821 0a2 2 0 0 1 2-2h3.949a2 2 0 1 1 0 4h-3.949a2 2 0 0 1-2-2Zm13.822 0a2 2 0 0 1 2-2h3.949a2 2 0 0 1 0 4h-3.949a2 2 0 0 1-2-2Zm13.821 0a2 2 0 0 1 2-2h3.949a2 2 0 1 1 0 4h-3.949a2 2 0 0 1-2-2Zm13.822 0a2 2 0 0 1 2-2h3.949a2 2 0 0 1 0 4h-3.949a2 2 0 0 1-2-2Zm13.821 0a2 2 0 0 1 2-2h3.949a2 2 0 1 1 0 4h-3.949a2 2 0 0 1-2-2Zm13.822 0a2 2 0 0 1 2-2h1.974c.764 0 1.518.043 2.262.127a2 2 0 0 1-.449 3.975c-.595-.067-1.2-.102-1.813-.102h-1.974a2 2 0 0 1-2-2Zm13.743 2.74a2 2 0 0 1 2.811-.312 20.5 20.5 0 0 1 3.192 3.192 2 2 0 0 1-3.123 2.499 16.586 16.586 0 0 0-2.568-2.568 2 2 0 0 1-.312-2.811Zm-213.038 0a2 2 0 0 1-.312 2.811 16.528 16.528 0 0 0-2.568 2.568 2 2 0 1 1-3.123-2.499 20.487 20.487 0 0 1 3.192-3.192 2 2 0 0 1 2.811.312Zm221.13 11.436a2 2 0 0 1 2.212 1.762c.084.744.127 1.498.127 2.262v1.99a2 2 0 1 1-4 0v-1.99c0-.613-.035-1.218-.102-1.813a2 2 0 0 1 1.763-2.211Zm-229.222 0a2 2 0 0 1 1.763 2.211c-.067.595-.102 1.2-.102 1.813v1.99a2 2 0 1 1-4 0v-1.99c0-.764.043-1.518.127-2.262a2 2 0 0 1 2.212-1.762ZM2 219.143a2 2 0 0 1 2 2v3.981a2 2 0 0 1-4 0v-3.981a2 2 0 0 1 2-2Zm229.9 0a2 2 0 0 1 2 2v3.981a2 2 0 0 1-4 0v-3.981a2 2 0 0 1 2-2ZM2 233.076a2 2 0 0 1 2 2v3.981a2 2 0 1 1-4 0v-3.981a2 2 0 0 1 2-2Zm229.9 0a2 2 0 0 1 2 2v3.981a2 2 0 1 1-4 0v-3.981a2 2 0 0 1 2-2ZM2 247.01a2 2 0 0 1 2 2v3.98a2 2 0 1 1-4 0v-3.98a2 2 0 0 1 2-2Zm229.9 0a2 2 0 0 1 2 2v3.98a2 2 0 1 1-4 0v-3.98a2 2 0 0 1 2-2ZM2 260.943a2 2 0 0 1 2 2v3.981a2 2 0 0 1-4 0v-3.981a2 2 0 0 1 2-2Zm229.9 0a2 2 0 0 1 2 2v3.981a2 2 0 0 1-4 0v-3.981a2 2 0 0 1 2-2ZM2 274.876a2 2 0 0 1 2 2v3.981a2 2 0 1 1-4 0v-3.981a2 2 0 0 1 2-2Zm229.9 0a2 2 0 0 1 2 2v3.981a2 2 0 1 1-4 0v-3.981a2 2 0 0 1 2-2ZM2 288.81a2 2 0 0 1 2 2v3.98a2 2 0 1 1-4 0v-3.98a2 2 0 0 1 2-2Zm229.9 0a2 2 0 0 1 2 2v3.98a2 2 0 1 1-4 0v-3.98a2 2 0 0 1 2-2ZM2 302.743a2 2 0 0 1 2 2v3.981a2 2 0 0 1-4 0v-3.981a2 2 0 0 1 2-2Zm229.9 0a2 2 0 0 1 2 2v3.981a2 2 0 0 1-4 0v-3.981a2 2 0 0 1 2-2ZM2 316.676a2 2 0 0 1 2 2v3.981a2 2 0 1 1-4 0v-3.981a2 2 0 0 1 2-2Zm229.9 0a2 2 0 0 1 2 2v3.981a2 2 0 1 1-4 0v-3.981a2 2 0 0 1 2-2ZM2 330.61a2 2 0 0 1 2 2v1.99c0 .613.035 1.218.102 1.813a2 2 0 0 1-3.975.449A20.15 20.15 0 0 1 0 334.6v-1.99a2 2 0 0 1 2-2Zm229.9 0a2 2 0 0 1 2 2v1.99c0 .764-.042 1.518-.125 2.26a2 2 0 1 1-3.975-.442c.066-.596.1-1.202.1-1.818v-1.99a2 2 0 0 1 2-2ZM4.74 344.369a2 2 0 0 1 2.811.312c.759.947 1.62 1.809 2.568 2.568a2 2 0 1 1-2.499 3.123 20.487 20.487 0 0 1-3.192-3.192 2 2 0 0 1 .312-2.811Zm224.439.016a2 2 0 0 1 .314 2.811 20.35 20.35 0 0 1-3.198 3.196 2 2 0 1 1-2.495-3.127 16.357 16.357 0 0 0 2.568-2.566 2 2 0 0 1 2.811-.314Zm-213.003 8.076a2 2 0 0 1 2.212-1.763c.594.067 1.2.102 1.812.102h1.974a2 2 0 1 1 0 4H20.2c-.764 0-1.518-.043-2.262-.127a2 2 0 0 1-1.762-2.212Zm201.55.003a1.999 1.999 0 0 1-1.765 2.21c-.743.083-1.498.126-2.261.126h-1.974a2 2 0 1 1 0-4h1.974c.614 0 1.22-.034 1.816-.101a2 2 0 0 1 2.21 1.765Zm-187.68.336a2 2 0 0 1 2-2h3.95a2 2 0 1 1 0 4h-3.95a2 2 0 0 1-2-2Zm13.822 0a2 2 0 0 1 2-2h3.95a2 2 0 1 1 0 4h-3.95a2 2 0 0 1-2-2Zm13.822 0a2 2 0 0 1 2-2h3.949a2 2 0 1 1 0 4h-3.95a2 2 0 0 1-2-2Zm13.821 0a2 2 0 0 1 2-2h3.95a2 2 0 1 1 0 4h-3.95a2 2 0 0 1-2-2Zm13.822 0a2 2 0 0 1 2-2h3.949a2 2 0 1 1 0 4h-3.95a2 2 0 0 1-2-2Zm13.821 0a2 2 0 0 1 2-2h3.949a2 2 0 1 1 0 4h-3.949a2 2 0 0 1-2-2Zm13.822 0a2 2 0 0 1 2-2h3.948a2 2 0 1 1 0 4h-3.948a2 2 0 0 1-2-2Zm13.821 0a2 2 0 0 1 2-2h3.949a2 2 0 0 1 0 4h-3.949a2 2 0 0 1-2-2Zm13.821 0a2 2 0 0 1 2-2h3.949a2 2 0 1 1 0 4h-3.949a2 2 0 0 1-2-2Zm13.822 0a2 2 0 0 1 2-2h3.949a2 2 0 0 1 0 4h-3.949a2 2 0 0 1-2-2Zm13.821 0a2 2 0 0 1 2-2h3.949a2 2 0 1 1 0 4h-3.949a2 2 0 0 1-2-2Zm13.822 0a2 2 0 0 1 2-2h3.949a2 2 0 0 1 0 4h-3.949a2 2 0 0 1-2-2Zm13.821 0a2 2 0 0 1 2-2h3.949a2 2 0 1 1 0 4h-3.949a2 2 0 0 1-2-2Z" clip-rule="evenodd"/><path fill="#626262" d="M20.8 214.502a5.2 5.2 0 1 0-.002-10.401 5.2 5.2 0 0 0 .002 10.401Zm16.9 0a5.2 5.2 0 1 0-.001-10.401 5.2 5.2 0 0 0 .001 10.401Zm16.9 0a5.2 5.2 0 1 0 0-10.401 5.2 5.2 0 0 0 0 10.401Z"/><path fill="#626262" fill-rule="evenodd" d="M.3 227.898a2 2 0 0 1 2-2h2.044a2 2 0 0 1 0 4H2.3a2 2 0 0 1-2-2Zm12.262 0a2 2 0 0 1 2-2h4.088a2 2 0 0 1 0 4h-4.088a2 2 0 0 1-2-2Zm14.307 0a2 2 0 0 1 2-2h4.087a2 2 0 0 1 0 4H28.87a2 2 0 0 1-2-2Zm14.306 0a2 2 0 0 1 2-2h4.087a2 2 0 0 1 0 4h-4.087a2 2 0 0 1-2-2Zm14.306 0a2 2 0 0 1 2-2h4.088a2 2 0 0 1 0 4H57.48a2 2 0 0 1-2-2Zm14.306 0a2 2 0 0 1 2-2h4.088a2 2 0 0 1 0 4h-4.088a2 2 0 0 1-2-2Zm14.307 0a2 2 0 0 1 2-2h4.087a2 2 0 0 1 0 4h-4.087a2 2 0 0 1-2-2Zm14.306 0a2 2 0 0 1 2-2h4.087a2 2 0 0 1 0 4H100.4a2 2 0 0 1-2-2Zm14.306 0a2 2 0 0 1 2-2h4.088a2 2 0 0 1 0 4h-4.088a2 2 0 0 1-2-2Zm14.306 0a2 2 0 0 1 2-2h4.088a2 2 0 0 1 0 4h-4.088a2 2 0 0 1-2-2Zm14.307 0a2 2 0 0 1 2-2h4.087a2 2 0 0 1 0 4h-4.087a2 2 0 0 1-2-2Zm14.306 0a2 2 0 0 1 2-2h4.087a2 2 0 0 1 0 4h-4.087a2 2 0 0 1-2-2Zm14.306 0a2 2 0 0 1 2-2h4.088a2 2 0 0 1 0 4h-4.088a2 2 0 0 1-2-2Zm14.306 0a2 2 0 0 1 2-2h4.088a2 2 0 0 1 0 4h-4.088a2 2 0 0 1-2-2Zm14.307 0a2 2 0 0 1 2-2h4.087a2 2 0 0 1 0 4h-4.087a2 2 0 0 1-2-2Zm14.306 0a2 2 0 0 1 2-2h4.087a2 2 0 0 1 0 4h-4.087a2 2 0 0 1-2-2Zm14.306 0a2 2 0 0 1 2-2h2.044a2 2 0 0 1 0 4h-2.044a2 2 0 0 1-2-2Z" clip-rule="evenodd"/><path fill="#FF7E46" d="m300.8 264.6-216.9 12c-7.3.4-13.3-5.2-13.3-12.5V96.7c0-7.3 6-12.9 13.3-12.5l216.9 12c5.6.3 10.1 5.7 10.1 12v144.4c0 6.3-4.5 11.7-10.1 12Z"/><path fill="#fff" fill-rule="evenodd" d="M90.2 107.7c3.4.2 6.1-2.4 6.1-5.8s-2.7-6.3-6.1-6.4c-3.3-.2-6.1 2.4-6.1 5.8s2.7 6.3 6.1 6.4Zm19.8.798c3.3.1 6-2.5 6-5.8s-2.7-6.1-6-6.3c-3.3-.1-6 2.5-6 5.8s2.7 6.2 6 6.3Zm25.2-4.9c0 3.3-2.6 5.9-5.8 5.7-3.2-.1-5.9-2.9-5.9-6.2 0-3.3 2.6-5.9 5.9-5.7 3.2.1 5.8 2.9 5.8 6.2Zm66 61.704 19.1-20.9 17.4 19.1-18.9 20.9 18.9 20.5-17.4 19.5-19.1-20.5-19.4 21.5-18.1-19.1 19.6-21.5-19.6-21 18.1-19.5 19.4 21Z" clip-rule="evenodd"/><path fill="#FF7E46" d="M327.201 112.6c0-28.4-21.7-37.1-33.5-37.9-.1 0-33.5 2.3-33.5 45.3 0 25.5 21.2 45.5 46 44.6 7.8-.3 14.9-2.6 21-6.4v-45.6Z"/><path fill="#FFA47E" d="M380.299 195.702c-2.9 3.4-7.6 3.7-10.5.8l-38.6-39 11.3-12.2 37.8 39c2.9 3 2.9 8 0 11.4Z"/><path fill="#FFE2D6" fill-rule="evenodd" d="M267.4 153.9c-23-21.4-23-57.3 0-78.1 21.9-19.8 55.1-17 74.4 4.3 18.4 20.4 18.4 51.7 0 71.6-19.3 20.8-52.5 22.6-74.4 2.2Zm9.4-10.801c15.6 15 39.8 14.2 54.1-.9 13.8-14.6 13.8-37.8 0-52.8-14.3-15.5-38.5-17-54.1-2.5-16.2 15.1-16.2 40.7 0 56.2Z" clip-rule="evenodd"/><path fill="#626262" fill-rule="evenodd" d="M38.8 40.5a2 2 0 0 1 2 2v8.3a2 2 0 1 1-4 0v-8.3a2 2 0 0 1 2-2ZM19.7 59.7a2 2 0 0 1 2-2h8.2a2 2 0 1 1 0 4h-8.2a2 2 0 0 1-2-2Zm26.1 0a2 2 0 0 1 2-2H56a2 2 0 1 1 0 4h-8.2a2 2 0 0 1-2-2Zm-7 6.3a2 2 0 0 1 2 2v8.9a2 2 0 1 1-4 0V68a2 2 0 0 1 2-2Z" clip-rule="evenodd"/></svg>