<svg xmlns="http://www.w3.org/2000/svg" width="393" height="341" fill="none" viewBox="0 0 393 341"><path fill="#ECF2F9" fill-rule="evenodd" d="M312.103 52.159c4.1-9 22.3-32.1 22.3-32.1s-5 23.5-10.5 36.3c-3.8 8.6-15.6 4-11.8-4.2Zm-59.201 28.4c4.1-8.9 26.7-40 26.7-40s-9.4 31.4-14.9 44.2c-3.8 8.6-15.6 4-11.8-4.2Zm-217.9 52.398s-15.4 17.8-19.2 26c-3.5 7.5 7.3 11.7 10.7 3.8 5.1-11.7 8.5-29.8 8.5-29.8Zm-9.1 171.302h335.1c28 0 27-40.7 8.5-54.4-15.2-11.3-33.1-7.5-33.1-7.5 3.9-7.5 16.6-38.7-16.4-68.4-25.1-22.6-89.2-10.6-89.2-10.6s-4-64.9-48.4-59c-5.9-23.6-29.8-34.4-45.3-26.1-27.3 14.6-4.6 43.4-4.6 43.4s-17.2-5.5-29.6 4.5c-21.5 17.3-10.8 45.6-10.8 45.6s-9.7-6.4-22.7.4c-32.4 16.9-26.2 42.3-24 49.3-5.6-1.1-28.5-4-36.9 14.1-9.7 20.9 10 32.8 10 32.8s-15.3 6.9-15.3 15.3c0 .595-.01 1.209-.021 1.836-.141 8.231-.322 18.764 22.721 18.764Z" clip-rule="evenodd"/><path stroke="#626262" stroke-linecap="round" stroke-linejoin="round" stroke-width="4" d="M366.803 193.66h-14.9c-2.6 0-4.8-2.1-4.8-4.8v-9c0-2.6 2.1-4.8 4.8-4.8h15c1.3 0 2-1.4 1.3-2.5-3.8-5.5-10.3-9.1-17.6-8.8-7.7.3-14.5 5-17.7 11.7l-58.3.1c-5.1 0-9.5 3.7-9.4 8.8.1 5 4.1 8.4 9.1 8.4l58.5.1c3.3 6.9 10.3 11.7 18.4 11.7 6.8 0 12.9-3.4 16.6-8.6 1-.9.2-2.3-1-2.3v0Z" clip-rule="evenodd"/><path fill="#626262" d="M378.802 223.559a2 2 0 0 0 0 4v-4Zm11.3-9.2 2 .032v-.032h-2Zm-148.5-74.1a2 2 0 0 0 0 4v-4Zm148.4 4a2 2 0 0 0 0-4v4Zm-11.2 79.3h-126.2v4h126.2v-4Zm-126.2 0a9.182 9.182 0 0 1-9.2-9.2h-4c0 7.304 5.896 13.2 13.2 13.2v-4Zm-9.2-9.2v-80.6h-4v80.6h4Zm0-80.6c0-5.096 4.105-9.2 9.2-9.2v-4c-7.304 0-13.2 5.895-13.2 13.2h4Zm9.2-9.2h126.3v-4h-126.3v4Zm126.3 0a9.18 9.18 0 0 1 9.2 9.2h4c0-7.305-5.895-13.2-13.2-13.2v4Zm9.2 9.2v80.6h4v-80.6h-4Zm.001 80.567c-.083 5.127-4.211 9.233-9.301 9.233v4c7.311 0 13.183-5.895 13.3-13.168l-3.999-.065Zm-146.501-70.067h148.4v-4h-148.4v4Zm148.4-4h-148.4v4h148.4v-4Z"/><path stroke="#626262" stroke-linecap="round" stroke-linejoin="round" stroke-width="4" d="M347.402 96.16h-59.9c-4.5 0-8.1 3.6-8.1 8.1v18.4h76.1v-18.4c0-4.4-3.6-8.1-8.1-8.1Z" clip-rule="evenodd"/><path stroke="#626262" stroke-linecap="round" stroke-linejoin="round" stroke-width="4" d="M290.902 107.16h53.2v15.5h-53.2v-15.5Z" clip-rule="evenodd"/><path fill="#ECF2F9" d="M113.502 54.86s-15.4 17.8-19.2 26c-3.5 7.5 7.3 11.7 10.7 3.8 5-11.6 8.5-29.8 8.5-29.8Z"/><path fill="#626262" d="m104.902 231.46-1.972.329a2 2 0 0 0 1.762 1.66l.21-1.989Zm-2.3-8.6-1.188-1.609a2 2 0 0 0-.695 2.281l1.883-.672Zm6.9-5.1-1.138-1.645a2.165 2.165 0 0 0-.05.036l1.188 1.609Zm.8-4-1.729 1.004.026.044 1.703-1.048Zm-3.6-6.2-1.736.992.007.012 1.729-1.004Zm-3.9-1.3-.787-1.839a.229.229 0 0 1-.023.01l.81 1.829Zm-7.9 3.5-1.542 1.273a2 2 0 0 0 2.353.555l-.81-1.828Zm-6.3-6.3-1.828-.81a2 2 0 0 0 .555 2.352l1.273-1.542Zm3.5-7.9 1.829.81a.617.617 0 0 1 .01-.022l-1.839-.788Zm-1.3-3.9-1.004 1.729.012.007.992-1.736Zm-6.2-3.6 1.005-1.73-.012-.007-.993 1.737Zm-4 .8-1.6-1.2-.008.011 1.608 1.189Zm-5.1 6.9-.694 1.875a2 2 0 0 0 2.303-.686l-1.609-1.189Zm-8.6-2.3-1.989.21a2 2 0 0 0 1.66 1.763l.33-1.973Zm-.9-8.5 1.99-.211-.005-.037-1.985.248Zm-13.4 0-1.984-.248-.005.037 1.99.211Zm-.9 8.5.33 1.973a2 2 0 0 0 1.66-1.763l-1.99-.21Zm-8.6 2.3-1.608 1.189a2 2 0 0 0 2.281.694l-.673-1.883Zm-5.1-6.9-1.644 1.138.036.051 1.608-1.189Zm-4-.8 1.005 1.729a.857.857 0 0 0 .044-.026l-1.049-1.703Zm-6.2 3.6.993 1.736.012-.007-1.005-1.729Zm-1.3 3.9-1.838.788.01.022 1.828-.81Zm3.5 7.9 1.274 1.542a2 2 0 0 0 .555-2.352l-1.829.81Zm-6.3 6.3-.81 1.828a2 2 0 0 0 2.352-.555l-1.542-1.273Zm-7.9-3.5.81-1.829-.022-.01-.788 1.839Zm-3.9 1.3 1.73 1.004.007-.012-1.737-.992Zm-3.6 6.2-1.73-1.005-.006.012 1.736.993Zm.8 4-1.2 1.6.012.008 1.188-1.608Zm6.9 5.1 1.876.694a2 2 0 0 0-.687-2.303l-1.189 1.609Zm-2.3 8.6.21 1.989a2 2 0 0 0 1.763-1.66l-1.973-.329Zm-8.5.9-.21-1.989-.038.004.248 1.985Zm-2 12.4-1.536 1.28c.039.047.08.091.122.134l1.414-1.414Zm2 1-.248 1.984.038.005.21-1.989Zm8.5.9 1.973-.329a2 2 0 0 0-1.762-1.66l-.21 1.989Zm2.3 8.6 1.19 1.608a2 2 0 0 0 .694-2.281l-1.884.673Zm-6.9 5.1 1.139 1.644.05-.036-1.189-1.608Zm-.8 4 1.73-1.005-.026-.043-1.704 1.048Zm3.6 6.2 1.737-.993-.007-.012-1.73 1.005Zm3.9 1.3.788 1.838.023-.01-.81-1.828Zm7.9-3.5 1.542-1.274a2 2 0 0 0-2.352-.555l.81 1.829Zm6.3 6.3 1.829.81a2 2 0 0 0-.555-2.352l-1.274 1.542Zm-3.5 7.9-1.828-.81-.01.022 1.838.788Zm1.3 3.9 1.005-1.73-.012-.007-.993 1.737Zm6.2 3.6-1.004 1.729.012.007.992-1.736Zm4-.8 1.6 1.2.009-.011-1.609-1.189Zm5.1-6.9.695-1.876a2 2 0 0 0-2.303.687l1.608 1.189Zm8.6 2.3 1.99-.211a2 2 0 0 0-1.66-1.762l-.33 1.973Zm.9 8.5-1.988.21c0 .013.002.025.004.038l1.984-.248Zm13.4 0 1.985.248.004-.038-1.989-.21Zm.9-8.5-.329-1.973a2 2 0 0 0-1.66 1.762l1.99.211Zm8.6-2.3 1.609-1.189a2.001 2.001 0 0 0-2.281-.695l.672 1.884Zm5.1 6.9 1.645-1.139-.036-.05-1.609 1.189Zm4 .8-1.004-1.73-.044.026 1.048 1.704Zm6.2-3.6-.992-1.737-.012.007 1.004 1.73Zm1.3-3.9 1.839-.788a.39.39 0 0 0-.01-.022l-1.829.81Zm-3.5-7.9-1.273-1.542a2 2 0 0 0-.555 2.352l1.828-.81Zm6.3-6.3.81-1.829a2 2 0 0 0-2.352.555l1.542 1.274Zm7.9 3.5-.81 1.828a.229.229 0 0 0 .023.01l.787-1.838Zm3.9-1.3-1.729-1.005-.007.012 1.736.993Zm3.6-6.2 1.73 1.004.007-.012-1.737-.992Zm-.8-4 1.2-1.6-.011-.009-1.189 1.609Zm-6.9-5.1-1.875-.695a2 2 0 0 0 .687 2.303l1.188-1.608Zm2.3-8.6-.21-1.989a1.998 1.998 0 0 0-1.762 1.66l1.972.329Zm8.5-.9-.181-1.992-.029.003.21 1.989Zm2.4-1.7-1.789-.895a3 3 0 0 0-.038.082l1.827.813Zm.3-8.6-1.996-.125c-.002.042-.004.083-.004.125h2Zm-31.4 3.601h-2v.015l2-.015Zm28.911-8.69-8.5-.9-.421 3.978 8.5.9.421-3.978Zm-6.738.76c-.524-3.145-1.36-6.063-2.389-8.944l-3.767 1.345c.971 2.719 1.735 5.402 2.211 8.257l3.945-.658Zm-3.084-6.663 6.9-5.1-2.377-3.217-6.9 5.1 2.377 3.217Zm6.85-5.064c2.231-1.545 2.684-4.549 1.365-6.692l-3.407 2.096c.281.456.133 1.052-.235 1.307l2.277 3.289Zm1.391-6.649-3.6-6.2-3.459 2.009 3.6 6.2 3.459-2.009Zm-3.593-6.188c-1.326-2.32-4.131-3.128-6.424-2.146l1.575 3.677a1.091 1.091 0 0 1 1.376.454l3.473-1.985Zm-6.447-2.136-7.9 3.5 1.62 3.657 7.9-3.5-1.62-3.657Zm-5.548 4.055a48.82 48.82 0 0 0-6.568-6.568l-2.547 3.084a44.876 44.876 0 0 1 6.031 6.031l3.084-2.547Zm-6.013-4.216 3.5-7.9-3.657-1.62-3.5 7.9 3.657 1.62Zm3.51-7.922c.982-2.294.174-5.099-2.146-6.425l-1.985 3.473c.48.274.671.869.454 1.376l3.677 1.576Zm-2.134-6.418-6.2-3.6-2.009 3.459 6.2 3.6 2.009-3.459Zm-6.212-3.607a5.08 5.08 0 0 0-6.593 1.337l3.2 2.4a1.08 1.08 0 0 1 1.408-.264l1.985-3.473Zm-6.601 1.348-5.1 6.9 3.217 2.378 5.1-6.9-3.217-2.378Zm-2.797 6.213a49.262 49.262 0 0 0-8.966-2.397l-.657 3.946a45.185 45.185 0 0 1 8.234 2.202l1.389-3.751Zm-7.306-.635-.9-8.5-3.978.421.9 8.5 3.978-.421Zm-.904-8.537c-.319-2.549-2.424-4.552-5.085-4.552v4c.54 0 1.034.397 1.116 1.048l3.969-.496Zm-5.085-4.552h-7.2v4h7.2v-4Zm-7.2 0c-2.66 0-4.766 2.003-5.084 4.552l3.969.496c.081-.651.575-1.048 1.115-1.048v-4Zm-5.088 4.589-.9 8.5 3.977.421.9-8.5-3.977-.421Zm.76 6.738c-3.146.524-6.063 1.36-8.944 2.389l1.345 3.767c2.719-.971 5.401-1.735 8.256-2.21l-.657-3.946Zm-6.663 3.084-5.1-6.9-3.217 2.378 5.1 6.9 3.217-2.378Zm-5.064-6.85c-1.545-2.231-4.549-2.684-6.693-1.365l2.096 3.407c.457-.281 1.053-.133 1.308.235l3.289-2.277Zm-6.649-1.391-6.2 3.6 2.009 3.459 6.2-3.6-2.009-3.459Zm-6.188 3.593c-2.32 1.326-3.129 4.131-2.146 6.425l3.677-1.576a1.09 1.09 0 0 1 .454-1.376l-1.985-3.473Zm-2.136 6.447 3.5 7.9 3.657-1.62-3.5-7.9-3.657 1.62Zm4.055 5.548a48.82 48.82 0 0 0-6.569 6.568l3.084 2.547a44.876 44.876 0 0 1 6.032-6.031l-2.547-3.084Zm-4.216 6.013-7.9-3.5-1.62 3.657 7.9 3.5 1.62-3.657Zm-7.923-3.51c-2.293-.982-5.098-.174-6.424 2.146l3.473 1.985a1.09 1.09 0 0 1 1.376-.454l1.575-3.677Zm-6.417 2.134-3.6 6.2 3.459 2.009 3.6-6.2-3.46-2.009Zm-3.607 6.212a5.08 5.08 0 0 0 1.336 6.593l2.4-3.2a1.08 1.08 0 0 1-.263-1.408l-3.473-1.985Zm1.348 6.601 6.9 5.1 2.377-3.217-6.9-5.1-2.377 3.217Zm6.213 2.797a49.214 49.214 0 0 0-2.397 8.966l3.945.658a45.232 45.232 0 0 1 2.203-8.235l-3.751-1.389Zm-.635 7.306-8.5.9.42 3.978 8.5-.9-.42-3.978Zm-8.538.904c-2.549.319-4.552 2.425-4.552 5.085h4c0-.54.397-1.034 1.048-1.116l-.496-3.969ZM.402 235.46v7.2h4v-7.2h-4Zm0 7.2c0 1.341.515 2.482 1.264 3.38l3.073-2.561c-.251-.301-.337-.561-.337-.819h-4Zm1.386 3.514c.766.766 1.862 1.407 3.166 1.57l.496-3.969a1.485 1.485 0 0 1-.833-.429l-2.829 2.828Zm3.204 1.575 8.5.9.42-3.978-8.5-.9-.42 3.978Zm6.738-.76c.524 3.145 1.36 6.062 2.389 8.943l3.767-1.345c-.971-2.719-1.735-5.401-2.21-8.256l-3.946.658Zm3.084 6.662-6.9 5.1 2.377 3.217 6.9-5.1-2.377-3.217Zm-6.85 5.064c-2.232 1.545-2.684 4.549-1.365 6.693l3.407-2.096c-.281-.457-.134-1.053.235-1.308l-2.277-3.289Zm-1.391 6.649 3.6 6.2 3.459-2.009-3.6-6.2-3.46 2.009Zm3.593 6.188c1.326 2.321 4.131 3.129 6.424 2.146l-1.575-3.677a1.089 1.089 0 0 1-1.376-.454l-3.473 1.985Zm6.447 2.136 7.9-3.5-1.62-3.657-7.9 3.5 1.62 3.657Zm5.547-4.055a48.886 48.886 0 0 0 6.569 6.569l2.547-3.084a44.884 44.884 0 0 1-6.032-6.032l-3.084 2.547Zm6.014 4.217-3.5 7.9 3.657 1.62 3.5-7.9-3.657-1.62Zm-3.51 7.922c-.983 2.293-.175 5.098 2.146 6.424l1.985-3.473a1.09 1.09 0 0 1-.454-1.375l-3.677-1.576Zm2.134 6.417 6.2 3.6 2.009-3.459-6.2-3.6-2.009 3.459Zm6.212 3.607a5.078 5.078 0 0 0 6.592-1.336l-3.2-2.4a1.079 1.079 0 0 1-1.407.263l-1.985 3.473Zm6.6-1.347 5.1-6.9-3.216-2.378-5.1 6.9 3.217 2.378Zm2.798-6.214a49.264 49.264 0 0 0 8.965 2.398l.658-3.946a45.187 45.187 0 0 1-8.234-2.203l-1.39 3.751Zm7.306.635.9 8.5 3.977-.421-.9-8.5-3.977.421Zm.904 8.538c.318 2.549 2.424 4.552 5.084 4.552v-4c-.54 0-1.034-.397-1.115-1.048l-3.97.496Zm5.084 4.552h7.2v-4h-7.2v4Zm7.2 0c2.66 0 4.766-2.003 5.085-4.552l-3.97-.496c-.08.651-.575 1.048-1.115 1.048v4Zm5.09-4.59.9-8.5-3.978-.421-.9 8.5 3.977.421Zm-.76-6.737c3.144-.525 6.062-1.361 8.943-2.39l-1.345-3.767c-2.72.971-5.402 1.735-8.257 2.211l.658 3.946Zm6.662-3.084 5.1 6.9 3.217-2.378-5.1-6.9-3.217 2.378Zm5.064 6.849c1.545 2.232 4.549 2.684 6.692 1.365l-2.096-3.407c-.456.281-1.052.134-1.307-.235l-3.289 2.277Zm6.649 1.391 6.2-3.6-2.009-3.459-6.2 3.6 2.009 3.459Zm6.188-3.593c2.32-1.326 3.128-4.131 2.146-6.424l-3.677 1.576a1.09 1.09 0 0 1-.454 1.375l1.985 3.473Zm2.136-6.446-3.5-7.9-3.657 1.62 3.5 7.9 3.657-1.62Zm-4.055-5.548a48.886 48.886 0 0 0 6.568-6.569l-3.084-2.547a44.884 44.884 0 0 1-6.031 6.032l2.547 3.084Zm4.216-6.014 7.9 3.5 1.62-3.657-7.9-3.5-1.62 3.657Zm7.923 3.51c2.293.983 5.098.175 6.424-2.146l-3.473-1.985c-.274.48-.869.672-1.376.454l-1.575 3.677Zm6.417-2.134 3.6-6.2-3.459-2.009-3.6 6.2 3.459 2.009Zm3.607-6.212a5.078 5.078 0 0 0-1.337-6.592l-2.4 3.2c.403.302.557.894.264 1.407l3.473 1.985Zm-1.348-6.601-6.9-5.1-2.377 3.217 6.9 5.1 2.377-3.217Zm-6.213-2.797a49.184 49.184 0 0 0 2.397-8.965l-3.945-.658a45.276 45.276 0 0 1-2.203 8.234l3.751 1.389Zm.635-7.305 8.5-.9-.421-3.978-8.5.9.421 3.978Zm8.47-.897a4.925 4.925 0 0 0 4.047-2.88l-3.655-1.625a.925.925 0 0 1-.754.521l.362 3.984Zm4.008-2.798c.367-.734.511-1.554.511-2.294h-4c0 .259-.056.44-.089.505l3.578 1.789Zm.511-2.294v-7.2h-4v7.2h4Zm-.004-7.076c.174-2.773-1.922-4.893-4.448-5.209l-.496 3.969c.675.085.979.565.952.991l3.992.249Zm-58.695 26.777c-12.896 0-23.3-10.404-23.3-23.3h-4c0 15.105 12.195 27.3 27.3 27.3v-4Zm-23.3-23.3c0-12.895 10.404-23.3 23.3-23.3v-4c-15.105 0-27.3 12.196-27.3 27.3h4Zm23.3-23.3c12.895 0 23.3 10.405 23.3 23.3h4c0-15.104-12.196-27.3-27.3-27.3v4Zm23.3 23.315c.091 12.871-10.392 23.285-23.3 23.285v4c15.091 0 27.408-12.185 27.3-27.314l-4 .029Z"/><path fill="#FF7E46" fill-rule="evenodd" d="m229.102 38.66 16.9-.5c.8 0 1 1.2.5 2.1l-34.3 49.4c-.8 1.1-2.1 1.3-1.8-.1l9-36-16.9.5c-.8-.1-1.1-1.2-.5-2.1l34.1-50.4c.8-1.1 2.1-1.3 1.8.1l-8.8 37Zm-170.8 44.498 10.7-.3c.5 0 .7.8.3 1.3l-22.9 32.4c-.4.7-1.3.8-1.1-.1l4.1-23.9-10.7.3c-.5 0-.7-.8-.3-1.3l22.7-33c.4-.7 1.3-.8 1.1.1l-3.9 24.5Z" clip-rule="evenodd"/><path fill="#626262" d="M136.201 12.96a2 2 0 1 0-4 0h4Zm-4 7.3a2 2 0 0 0 4 0h-4Zm4.001 15.1a2 2 0 1 0-4 0h4Zm-4 7.9a2 2 0 0 0 4 0h-4Zm17.1-13.197a2 2 0 0 0 0-4v4Zm-7.2-4a2 2 0 1 0 0 4v-4Zm-15.8 4a2 2 0 0 0 0-4v4Zm-7.2-4a2 2 0 1 0 0 4v-4Zm13.099-13.102v7.3h4v-7.3h-4Zm.001 22.398v7.9h4v-7.9h-4Zm17.1-9.297h-7.2v4h7.2v-4Zm-23 0h-7.2v4h7.2v-4Z"/><path fill="#FFE2D6" d="m63.302 330.86 90.9 10.1c2.3.2 4.3-3.1 4.3-7.2v-198.3c0-4.2-1.9-7.4-4.3-7.2l-90.9 12.1c-2 .2-3.7 3.4-3.7 7.3v175.9c0 3.9 1.7 7.1 3.7 7.3Z"/><path fill="#FF7E46" d="m312.202 333.96-157.7 6.9c-4.1.2-7.4-3.1-7.4-7.2v-198.2c0-4.2 3.3-7.4 7.4-7.2l157.7 6.9c3.5.2 6.4 3.4 6.4 7.3v184.2c0 3.9-2.9 7.2-6.4 7.3Z"/><path fill="#FFE2D6" d="m147.062 201.161 171.5 3.4.079-4-171.5-3.4-.079 4Zm-2.933 73.1 174.5-2.4-.055-4-174.5 2.4.055 4Z"/><path fill="#fff" fill-rule="evenodd" d="M167.601 155.66c2.1.2 3.9-1.7 3.9-4.1 0-2.4-1.7-4.5-3.9-4.6-2.1-.2-3.9 1.7-3.9 4.1 0 2.4 1.7 4.5 3.9 4.6Zm17.9.901c2.1.1 3.8-1.7 3.8-4.1 0-2.3-1.7-4.4-3.8-4.5-2.2-.1-3.9 1.7-3.9 4.1 0 2.4 1.8 4.4 3.9 4.5Zm21.3-3.1c0 2.4-1.7 4.2-3.8 4.1-2.1-.1-3.8-2.1-3.8-4.5s1.7-4.2 3.8-4.1c2.1.1 3.8 2.2 3.8 4.5Zm13.4 4.998c2.1.1 3.7-1.7 3.7-4 0-2.4-1.7-4.4-3.7-4.4-2-.1-3.7 1.7-3.7 4s1.7 4.3 3.7 4.4Zm20.5-3.098c0 2.3-1.6 4.1-3.6 4-2-.1-3.6-2.1-3.6-4.4 0-2.3 1.6-4.1 3.6-4 1.9.1 3.6 2.1 3.6 4.4Zm12.9 4.9c1.9.1 3.5-1.7 3.5-4s-1.6-4.3-3.5-4.3c-2-.1-3.6 1.7-3.6 4s1.6 4.2 3.6 4.3Zm16.1.799c1.9.1 3.5-1.6 3.5-3.9s-1.6-4.2-3.5-4.3c-1.9-.1-3.5 1.6-3.5 3.9s1.6 4.2 3.5 4.3Zm15.9.8c1.9.1 3.4-1.7 3.4-3.9s-1.5-4.1-3.4-4.3c-1.9-.1-3.4 1.6-3.4 3.9s1.5 4.2 3.4 4.3Z" clip-rule="evenodd"/><path fill="#626262" d="M304.501 158.86c0 2.2-1.5 3.9-3.3 3.8-1.9-.1-3.4-2-3.4-4.2s1.5-4 3.4-3.8c1.8.1 3.3 2 3.3 4.2Z"/><path fill="#fff" fill-rule="evenodd" d="M167.601 227.76c2.1 0 3.9-1.9 3.9-4.3s-1.7-4.4-3.9-4.4c-2.1 0-3.9 1.9-3.9 4.3s1.7 4.4 3.9 4.4Zm17.901.2c2.1 0 3.8-1.9 3.8-4.3 0-2.3-1.7-4.3-3.8-4.4-2.2 0-3.9 1.9-3.9 4.3s1.8 4.4 3.9 4.4Zm21.299-3.999c0 2.4-1.7 4.2-3.8 4.2-2.1 0-3.8-2-3.8-4.3 0-2.4 1.7-4.3 3.8-4.2 2.1 0 3.8 1.9 3.8 4.3Zm13.4 4.399c2.1 0 3.7-1.9 3.7-4.2 0-2.3-1.7-4.2-3.7-4.3-2 0-3.7 1.8-3.7 4.2 0 2.4 1.7 4.3 3.7 4.3Zm20.5-3.9c0 2.3-1.6 4.2-3.6 4.1-2 0-3.6-1.9-3.6-4.2 0-2.3 1.6-4.2 3.6-4.1 1.9 0 3.6 1.9 3.6 4.2Zm12.9 4.298c1.9 0 3.5-1.8 3.5-4.1s-1.6-4.2-3.5-4.2c-2 0-3.6 1.8-3.6 4.1s1.6 4.2 3.6 4.2Zm19.6-3.897c0 2.3-1.6 4.1-3.5 4.1s-3.5-1.9-3.5-4.2c0-2.3 1.6-4.1 3.5-4.1 1.9.1 3.5 2 3.5 4.2Zm12.4 4.299c1.9 0 3.4-1.8 3.4-4 0-2.3-1.5-4.1-3.4-4.1-1.9-.1-3.4 1.7-3.4 4 0 2.2 1.5 4.1 3.4 4.1Z" clip-rule="evenodd"/><path fill="#fff" d="M304.501 225.36c0 2.2-1.5 4-3.3 4-1.9 0-3.4-1.8-3.4-4.1 0-2.2 1.5-4 3.4-4 1.8 0 3.3 1.8 3.3 4.1Z"/><path fill="#fff" fill-rule="evenodd" d="M237.101 297.861c2-.1 3.6-2 3.6-4.3s-1.7-4.2-3.6-4.1c-2 .1-3.6 2-3.6 4.3s1.6 4.2 3.6 4.1Zm-13.2-3.901c0 2.3-1.6 4.3-3.7 4.3-2 .1-3.7-1.8-3.7-4.1s1.7-4.3 3.7-4.3c2-.1 3.7 1.8 3.7 4.1Zm-20.9 4.901c2.1-.1 3.8-2 3.8-4.4 0-2.4-1.7-4.3-3.8-4.2-2.1.1-3.8 2-3.8 4.4 0 2.4 1.7 4.3 3.8 4.2Zm-13.699-4c0 2.4-1.7 4.4-3.8 4.4-2.1.1-3.9-1.8-3.9-4.2 0-2.4 1.7-4.4 3.9-4.4 2.1 0 3.8 1.9 3.8 4.2Zm-17.801.502c0 2.4-1.8 4.4-3.9 4.5-2.2.1-3.9-1.8-3.9-4.3s1.8-4.4 3.9-4.5c2.2 0 3.9 1.9 3.9 4.3Zm98.201 1.497c1.9-.1 3.5-1.9 3.5-4.2 0-2.3-1.6-4.1-3.5-4-1.9 0-3.5 1.9-3.5 4.2 0 2.3 1.6 4.1 3.5 4Zm-16.1.4c1.9 0 3.5-1.9 3.5-4.2 0-2.3-1.6-4.1-3.5-4.1-2 0-3.6 1.9-3.6 4.2 0 2.3 1.6 4.2 3.6 4.1Z" clip-rule="evenodd"/><path fill="#626262" fill-rule="evenodd" d="M301.201 295.86c1.8 0 3.3-1.9 3.3-4.1 0-2.2-1.5-3.9-3.3-3.9-1.9 0-3.4 1.9-3.4 4.1 0 2.2 1.5 4 3.4 3.9Zm-15.6.598c1.9-.1 3.4-2 3.4-4.2 0-2.3-1.5-4.1-3.4-4-1.9.1-3.4 1.9-3.4 4.2 0 2.3 1.5 4.1 3.4 4Z" clip-rule="evenodd"/></svg>