<svg xmlns="http://www.w3.org/2000/svg" width="356" height="337" fill="none" viewBox="0 0 356 337"><path fill="#ECF2F9" d="M178.8 35.098c0-7.8-6.3-14.2-14.2-14.2H14.2c-7.8 0-14.2 6.3-14.2 14.2v227.8c0 7.8 6.3 14.2 14.2 14.2h291c7.8 0 14.2-6.3 14.2-14.2v-199.4c0-7.8-6.3-14.2-14.2-14.2H192.9c-7.7 0-14.1-6.3-14.1-14.2Z"/><path stroke="#626262" stroke-linecap="round" stroke-linejoin="round" stroke-width="4" d="M324.499 39.6c10.383 0 18.8-8.417 18.8-18.8 0-10.383-8.417-18.8-18.8-18.8-10.383 0-18.8 8.417-18.8 18.8 0 10.383 8.417 18.8 18.8 18.8Z" clip-rule="evenodd"/><path fill="#626262" d="M339.414 33.484a2 2 0 1 0-2.828 2.829l2.828-2.829Zm12.272 17.929a2 2 0 1 0 2.828-2.829l-2.828 2.829ZM75.699 95.098a2 2 0 0 0-4 0h4Zm-4 8.7a2 2 0 1 0 4 0h-4Zm4 19.6a2 2 0 0 0-4 0h4Zm-4 10.9a2 2 0 1 0 4 0h-4Zm21.601-17.6a2 2 0 1 0 0-4v4Zm-8.8-4a2 2 0 0 0 0 4v-4Zm-21.7 4a2 2 0 1 0 0-4v4Zm-8.7-4a2 2 0 0 0 0 4v-4Zm282.486-76.385 15.1 15.1 2.828-2.829-15.1-15.1-2.828 2.829ZM71.699 95.098v8.7h4v-8.7h-4Zm0 28.3v10.9h4v-10.9h-4Zm21.601-10.7h-8.8v4h8.8v-4Zm-30.5 0h-8.7v4h8.7v-4Z"/><path stroke="#626262" stroke-linecap="round" stroke-linejoin="round" stroke-width="4" d="M246.901 334.5h-193.4c-10 0-18.2-8.2-18.2-18.2V190.9c0-10 8.2-18.2 18.2-18.2h193.4c10 0 18.2 8.2 18.2 18.2v125.4c0 10-8.2 18.2-18.2 18.2Z" clip-rule="evenodd"/><path fill="#626262" d="M54 196.202a5.2 5.2 0 1 0 0-10.401 5.2 5.2 0 0 0 0 10.401Zm16.9 0a5.2 5.2 0 1 0-.002-10.401 5.2 5.2 0 0 0 .001 10.401Zm16.902 0a5.2 5.2 0 1 0-.002-10.401 5.2 5.2 0 0 0 .002 10.401Z"/><path stroke="#626262" stroke-linecap="round" stroke-linejoin="round" stroke-width="4" d="M35.5 209.5h228.9"/><path fill="#FF7E46" d="M135.301 98.2v158.7c0 40 18.2 43.1 26.4 43.1s161.1-4.2 161.1-4.2-23.7-15.7-23.7-52.4V71.9l-134.4-4.4-29.4 30.7Z"/><path fill="#FFE2D6" fill-rule="evenodd" d="m162.201 98.802-26.9-.6 29.7-30.6v28.3c0 1.6-1.3 2.9-2.8 2.9Zm23.998 177.401s.8 19.9-24.5 23.8c13.097 0 51.436-1.171 87.618-2.277 32.33-.988 62.939-1.923 72.282-1.923 19.8 0 23.7-24.1 23.7-24.1l-159.1 4.5Z" clip-rule="evenodd"/><path fill="#fff" d="m246.159 143.105-20.132 21.905L205.578 143 186.5 163.438l20.659 22.01-20.659 22.533L205.578 228l20.449-22.534 20.132 21.486 18.341-20.438-19.922-21.486 19.922-21.905-18.341-20.018Z"/></svg>