<svg width="230" height="230" fill="none" xmlns="http://www.w3.org/2000/svg"><path d="M37 97h6v6h-6v-6zM97 97h6v6h-6v-6zM37 37h6v6h-6v-6zM97 37h6v6h-6v-6z" fill="#000"/><path d="M100.5 39.5v61h-61v-61h61zm-60 60h59v-59h-59v59z" fill="#000"/><g filter="url(#a)"><mask id="b" style="mask-type:alpha" maskUnits="userSpaceOnUse" x="59" y="105" width="42" height="42"><path d="M98 106a2 2 0 0 1 2 2v36a2 2 0 0 1-2 2H62a2 2 0 0 1-2-2v-36a2 2 0 0 1 2-2h36zm-30 5.5a2.5 2.5 0 0 0-2.5 2.5v24a2.5 2.5 0 0 0 2.5 2.5h24a2.5 2.5 0 0 0 2.5-2.5v-24a2.5 2.5 0 0 0-2.5-2.5H68z" fill="#000"/><path d="M98 106v-.5.5zm2 2h.5-.5zm0 36h.5-.5zm-2 2v.5-.5zm-36 0v.5-.5zm-2-2h-.5.5zm0-36h-.5.5zm2-2v-.5.5zm6 5.5v-.5.5zm-2.5 2.5H65h.5zm0 24H65h.5zm2.5 2.5v.5-.5zm24 0v.5-.5zm2.5-2.5h.5-.5zm0-24h.5-.5zm-2.5-2.5v-.5.5zm6-5.5v.5a1.5 1.5 0 0 1 1.5 1.5h1a2.5 2.5 0 0 0-2.5-2.5v.5zm2 2h-.5v36h1v-36h-.5zm0 36h-.5a1.5 1.5 0 0 1-1.5 1.5v1a2.5 2.5 0 0 0 2.5-2.5h-.5zm-2 2v-.5H62v1h36v-.5zm-36 0v-.5a1.5 1.5 0 0 1-1.5-1.5h-1a2.5 2.5 0 0 0 2.5 2.5v-.5zm-2-2h.5v-36h-1v36h.5zm0-36h.5a1.5 1.5 0 0 1 1.5-1.5v-1a2.5 2.5 0 0 0-2.5 2.5h.5zm2-2v.5h36v-1H62v.5zm6 5.5v-.5a3 3 0 0 0-3 3h1a2 2 0 0 1 2-2v-.5zm-2.5 2.5H65v24h1v-24h-.5zm0 24H65a3 3 0 0 0 3 3v-1a2 2 0 0 1-2-2h-.5zm2.5 2.5v.5h24v-1H68v.5zm24 0v.5a3 3 0 0 0 3-3h-1a2 2 0 0 1-2 2v.5zm2.5-2.5h.5v-24h-1v24h.5zm0-24h.5a3 3 0 0 0-3-3v1a2 2 0 0 1 2 2h.5zm-2.5-2.5v-.5H68v1h24v-.5z" fill="#000"/></mask><g mask="url(#b)"><mask id="c" style="mask-type:alpha" maskUnits="userSpaceOnUse" x="-12" y="72" width="148" height="84"><path fill="#fff" d="M-12 72.545h147.932v83.212H-12z"/></mask><g mask="url(#c)"><path fill="#fff" d="M-12 72.545h147.932v83.212H-12z"/><g filter="url(#d)"><path d="M45.154 129.569c24.066 5.665 45.513 9.043 43.241 18.694-2.272 9.651-23.622 12.883-47.687 7.218-24.066-5.664-39.94-22.92-37.668-32.571 2.271-9.651 18.049.995 42.114 6.659z" fill="#AAA"/></g><g filter="url(#e)"><path d="M52.478 107.755c23.183-26.506 40.88-51.996 56.769-38.099 15.89 13.898 9.978 46.652-13.204 73.158-23.183 26.506-62.47 28.865-78.36 14.967-15.89-13.898 11.612-23.52 34.795-50.026z" fill="#AAA"/></g><g filter="url(#f)"><path d="M43.188 137.236c29.883 18.629 57.882 32.006 46.715 49.92-11.168 17.914-44.446 17.335-74.329-1.294-29.882-18.629-38.515-57.029-27.347-74.943 11.168-17.914 25.079 7.688 54.961 26.317z" fill="#AAA"/></g><g filter="url(#g)"><path d="M16.35 143.588c24.065 5.664 45.512 9.042 43.24 18.693-2.271 9.651-23.622 12.883-47.687 7.218-24.065-5.664-39.94-22.92-37.668-32.571 2.271-9.651 18.05.995 42.115 6.66z" fill="#AAA"/></g><g filter="url(#h)"><path d="M168.153 110.916c26.032 26.032 24.489 85.973 8.707 101.755-15.782 15.782-49.68 7.472-75.712-18.56-26.033-26.033-25.52-67.413-9.737-83.195 15.782-15.783 50.709-26.033 76.742 0z" fill="url(#i)"/></g><g filter="url(#j)"><path d="M-14.005 158.074C4.402 189.957 62.7 203.98 82.029 192.821c19.329-11.16 20.076-46.053 1.668-77.936C65.29 83.001 25.186 72.787 5.857 83.947c-19.33 11.16-38.27 42.244-19.862 74.127z" fill="url(#k)"/></g><g filter="url(#l)"><path d="M98.161 113.888c24.066 5.664 45.512 9.042 43.241 18.693-2.272 9.651-23.622 12.883-47.687 7.219-24.066-5.665-39.94-22.92-37.669-32.571 2.272-9.651 18.05.994 42.115 6.659z" fill="#AAA"/></g></g><path d="M99.5 108a1.5 1.5 0 0 0-1.5-1.5H62a1.5 1.5 0 0 0-1.5 1.5v36a1.5 1.5 0 0 0 1.5 1.5h36a1.5 1.5 0 0 0 1.5-1.5v-36zm1 36a2.5 2.5 0 0 1-2.5 2.5H62a2.5 2.5 0 0 1-2.5-2.5v-36a2.5 2.5 0 0 1 2.5-2.5h36a2.5 2.5 0 0 1 2.5 2.5v36z" fill="url(#m)"/></g></g><mask id="n" style="mask-type:alpha" maskUnits="userSpaceOnUse" x="105" y="59" width="42" height="42"><path d="M144.003 59.5a2.5 2.5 0 0 1 2.5 2.5v36.002a2.5 2.5 0 0 1-2.5 2.5h-36.002a2.5 2.5 0 0 1-2.501-2.5V62a2.5 2.5 0 0 1 2.501-2.5h36.002z" fill="#000"/></mask><g mask="url(#n)"><mask id="o" style="mask-type:alpha" maskUnits="userSpaceOnUse" x="63" y="37" width="161" height="91"><path fill="#fff" d="M63.175 37.166h160.232v90.13H63.175z"/></mask><g mask="url(#o)"><path fill="#fff" d="M63.176 37.166h160.232v90.13H63.176z"/><g filter="url(#p)"><path d="M125.082 98.931c26.066 6.136 49.296 9.795 46.835 20.248-2.46 10.453-25.585 13.954-51.652 7.819-26.066-6.136-43.26-24.826-40.8-35.28 2.461-10.453 19.55 1.078 45.617 7.213z" fill="#AAA"/></g><g filter="url(#q)"><path d="M133.014 75.303c25.11-28.71 44.278-56.32 61.489-41.266 17.211 15.053 10.808 50.53-14.302 79.24-25.111 28.709-67.664 31.265-84.875 16.211-17.211-15.053 12.578-25.475 37.688-54.185z" fill="#AAA"/></g><g filter="url(#r)"><path d="M122.953 107.236c32.367 20.178 62.694 34.667 50.598 54.07-12.096 19.404-48.141 18.776-80.508-1.402s-41.717-61.77-29.62-81.173c12.096-19.404 27.163 8.327 59.53 28.505z" fill="#AAA"/></g><g filter="url(#s)"><path d="M93.882 114.114c26.067 6.136 49.297 9.795 46.836 20.248-2.46 10.454-25.586 13.954-51.652 7.819-26.066-6.136-43.26-24.826-40.8-35.279 2.46-10.454 19.55 1.077 45.616 7.212z" fill="#AAA"/></g><g filter="url(#t)"><path d="M258.306 78.727c28.197 28.197 26.526 93.121 9.432 110.215-17.095 17.095-53.81 8.094-82.007-20.103-28.197-28.197-27.641-73.018-10.547-90.112 17.095-17.094 54.925-28.197 83.122 0z" fill="url(#u)"/></g><g filter="url(#v)"><path d="M61.003 129.806c19.938 34.534 83.083 49.723 104.019 37.636 20.936-12.088 21.745-49.882 1.806-84.416-19.938-34.534-63.376-45.597-84.312-33.51-20.936 12.087-41.452 45.756-21.513 80.29z" fill="url(#w)"/></g><g filter="url(#x)"><path d="M182.495 81.946c26.066 6.135 49.296 9.794 46.835 20.248-2.46 10.453-25.585 13.954-51.652 7.818-26.066-6.135-43.26-24.826-40.799-35.279 2.46-10.453 19.55 1.078 45.616 7.213z" fill="#AAA"/></g></g><path d="M145.502 62a1.5 1.5 0 0 0-1.5-1.5H108a1.5 1.5 0 0 0-1.5 1.5v36.002a1.5 1.5 0 0 0 1.5 1.5h36.002a1.5 1.5 0 0 0 1.5-1.5V62zm1 36.002a2.5 2.5 0 0 1-2.5 2.5H108a2.5 2.5 0 0 1-2.5-2.5V62a2.5 2.5 0 0 1 2.5-2.5h36.002a2.5 2.5 0 0 1 2.5 2.5v36.002z" fill="url(#y)"/></g><g filter="url(#z)"><mask id="A" style="mask-type:alpha" maskUnits="userSpaceOnUse" x="105" y="105" width="89" height="90"><path d="M190.8 105.5a2.7 2.7 0 0 1 2.7 2.7v83.6a2.7 2.7 0 0 1-2.7 2.7h-82.6a2.7 2.7 0 0 1-2.7-2.7v-83.6a2.7 2.7 0 0 1 2.7-2.7h82.6z" fill="#000"/></mask><g mask="url(#A)"><mask id="B" style="mask-type:alpha" maskUnits="userSpaceOnUse" x="12" y="55" width="350" height="200"><path fill="#fff" d="M12.859 55.768h348.487v198.277H12.859z"/></mask><g mask="url(#B)"><path fill="#fff" d="M12.86 55.768h348.487v198.277H12.86z"/><g filter="url(#C)"><path d="M147.499 191.645c56.691 13.497 107.214 21.547 101.863 44.543-5.351 22.997-55.647 30.697-112.338 17.2-56.69-13.497-94.086-54.614-88.735-77.61 5.351-22.996 42.519 2.37 99.21 15.867z" fill="#027BFE"/></g><g filter="url(#D)"><path d="M164.752 139.667c54.612-63.158 96.3-123.897 133.732-90.781C335.917 82 321.99 160.046 267.378 223.205c-54.612 63.158-147.161 68.779-184.594 35.664-37.432-33.116 27.356-56.044 81.968-119.202z" fill="#027BFE"/></g><g filter="url(#E)"><path d="M142.869 209.912c70.394 44.389 136.354 76.264 110.045 118.949-26.308 42.686-104.701 41.305-175.096-3.085-70.395-44.389-90.73-135.887-64.422-178.572 26.308-42.686 59.078 18.318 129.473 62.708z" fill="#027BFE"/></g><g filter="url(#F)"><path d="M79.643 225.044c56.691 13.497 107.214 21.546 101.863 44.543-5.352 22.996-55.647 30.697-112.338 17.199-56.691-13.497-94.087-54.613-88.736-77.61 5.352-22.996 42.52 2.37 99.21 15.868z" fill="#027BFE"/></g><g filter="url(#G)"><path d="M437.249 147.198c61.325 62.031 57.69 204.857 20.512 242.463-37.178 37.605-117.031 17.805-178.357-44.225-61.325-62.03-60.115-160.632-22.937-198.238 37.178-37.605 119.456-62.03 180.782 0z" fill="url(#H)"/></g><g filter="url(#I)"><path d="M8.135 259.564C51.5 335.536 188.832 368.95 234.366 342.359c45.533-26.591 47.293-109.734 3.929-185.705-43.363-75.972-137.836-100.31-183.37-73.718-45.534 26.591-90.153 100.657-46.79 176.628z" fill="url(#J)"/></g><g filter="url(#K)"><path d="M272.367 154.278c56.692 13.497 107.214 21.547 101.863 44.543-5.351 22.996-55.646 30.697-112.338 17.2-56.691-13.497-94.086-54.614-88.735-77.61 5.351-22.997 42.519 2.37 99.21 15.867z" fill="#027BFE"/></g></g><path d="M192.5 108a1.5 1.5 0 0 0-1.5-1.5h-83a1.5 1.5 0 0 0-1.5 1.5v84a1.5 1.5 0 0 0 1.5 1.5h83a1.5 1.5 0 0 0 1.5-1.5v-84zm1 84a2.5 2.5 0 0 1-2.5 2.5h-83a2.5 2.5 0 0 1-2.5-2.5v-84a2.5 2.5 0 0 1 2.5-2.5h83a2.5 2.5 0 0 1 2.5 2.5v84z" fill="url(#L)"/></g></g><defs><filter id="C" x="-44.015" y="74.709" width="385.562" height="277.124" filterUnits="userSpaceOnUse" color-interpolation-filters="sRGB"><feFlood flood-opacity="0" result="BackgroundImageFix"/><feBlend in="SourceGraphic" in2="BackgroundImageFix" result="shape"/><feGaussianBlur stdDeviation="45.898" result="effect1_foregroundBlur_35_7"/></filter><filter id="a" x="59.5" y="105.5" width="41.385" height="41.385" filterUnits="userSpaceOnUse" color-interpolation-filters="sRGB"><feFlood flood-opacity="0" result="BackgroundImageFix"/><feBlend in="SourceGraphic" in2="BackgroundImageFix" result="shape"/><feColorMatrix in="SourceAlpha" values="0 0 0 0 0 0 0 0 0 0 0 0 0 0 0 0 0 0 127 0" result="hardAlpha"/><feOffset dx=".385" dy=".385"/><feGaussianBlur stdDeviation="1.923"/><feComposite in2="hardAlpha" operator="arithmetic" k2="-1" k3="1"/><feColorMatrix values="0 0 0 0 1 0 0 0 0 1 0 0 0 0 1 0 0 0 0.8 0"/><feBlend in2="shape" result="effect1_innerShadow_35_7"/></filter><filter id="e" x="-15.048" y="37.718" width="161.231" height="156.455" filterUnits="userSpaceOnUse" color-interpolation-filters="sRGB"><feFlood flood-opacity="0" result="BackgroundImageFix"/><feBlend in="SourceGraphic" in2="BackgroundImageFix" result="shape"/><feGaussianBlur stdDeviation="14.009" result="effect1_foregroundBlur_35_7"/></filter><filter id="f" x="-30.474" y="90.834" width="136.893" height="123.397" filterUnits="userSpaceOnUse" color-interpolation-filters="sRGB"><feFlood flood-opacity="0" result="BackgroundImageFix"/><feBlend in="SourceGraphic" in2="BackgroundImageFix" result="shape"/><feGaussianBlur stdDeviation="7.004" result="effect1_foregroundBlur_35_7"/></filter><filter id="g" x="-64.505" y="94.512" width="162.784" height="116.302" filterUnits="userSpaceOnUse" color-interpolation-filters="sRGB"><feFlood flood-opacity="0" result="BackgroundImageFix"/><feBlend in="SourceGraphic" in2="BackgroundImageFix" result="shape"/><feGaussianBlur stdDeviation="19.262" result="effect1_foregroundBlur_35_7"/></filter><filter id="h" x="-19.594" y="-4.994" width="307.896" height="325.659" filterUnits="userSpaceOnUse" color-interpolation-filters="sRGB"><feFlood flood-opacity="0" result="BackgroundImageFix"/><feBlend in="SourceGraphic" in2="BackgroundImageFix" result="shape"/><feGaussianBlur stdDeviation="50" result="effect1_foregroundBlur_35_7"/></filter><filter id="j" x="-121.499" y="-20.418" width="318.528" height="317.031" filterUnits="userSpaceOnUse" color-interpolation-filters="sRGB"><feFlood flood-opacity="0" result="BackgroundImageFix"/><feBlend in="SourceGraphic" in2="BackgroundImageFix" result="shape"/><feGaussianBlur stdDeviation="50" result="effect1_foregroundBlur_35_7"/></filter><filter id="l" x="32.717" y="80.222" width="131.965" height="85.483" filterUnits="userSpaceOnUse" color-interpolation-filters="sRGB"><feFlood flood-opacity="0" result="BackgroundImageFix"/><feBlend in="SourceGraphic" in2="BackgroundImageFix" result="shape"/><feGaussianBlur stdDeviation="11.557" result="effect1_foregroundBlur_35_7"/></filter><filter id="p" x="37.504" y="45.776" width="176.319" height="125.971" filterUnits="userSpaceOnUse" color-interpolation-filters="sRGB"><feFlood flood-opacity="0" result="BackgroundImageFix"/><feBlend in="SourceGraphic" in2="BackgroundImageFix" result="shape"/><feGaussianBlur stdDeviation="20.863" result="effect1_foregroundBlur_35_7"/></filter><filter id="q" x="59.875" y="-.558" width="174.635" height="169.463" filterUnits="userSpaceOnUse" color-interpolation-filters="sRGB"><feFlood flood-opacity="0" result="BackgroundImageFix"/><feBlend in="SourceGraphic" in2="BackgroundImageFix" result="shape"/><feGaussianBlur stdDeviation="15.174" result="effect1_foregroundBlur_35_7"/></filter><filter id="r" x="43.166" y="56.975" width="148.276" height="133.656" filterUnits="userSpaceOnUse" color-interpolation-filters="sRGB"><feFlood flood-opacity="0" result="BackgroundImageFix"/><feBlend in="SourceGraphic" in2="BackgroundImageFix" result="shape"/><feGaussianBlur stdDeviation="7.587" result="effect1_foregroundBlur_35_7"/></filter><filter id="s" x="6.305" y="60.959" width="176.319" height="125.971" filterUnits="userSpaceOnUse" color-interpolation-filters="sRGB"><feFlood flood-opacity="0" result="BackgroundImageFix"/><feBlend in="SourceGraphic" in2="BackgroundImageFix" result="shape"/><feGaussianBlur stdDeviation="20.863" result="effect1_foregroundBlur_35_7"/></filter><filter id="t" x="63.265" y="-38.505" width="316.867" height="336.106" filterUnits="userSpaceOnUse" color-interpolation-filters="sRGB"><feFlood flood-opacity="0" result="BackgroundImageFix"/><feBlend in="SourceGraphic" in2="BackgroundImageFix" result="shape"/><feGaussianBlur stdDeviation="50" result="effect1_foregroundBlur_35_7"/></filter><filter id="v" x="-47.114" y="-55.212" width="328.383" height="326.761" filterUnits="userSpaceOnUse" color-interpolation-filters="sRGB"><feFlood flood-opacity="0" result="BackgroundImageFix"/><feBlend in="SourceGraphic" in2="BackgroundImageFix" result="shape"/><feGaussianBlur stdDeviation="50" result="effect1_foregroundBlur_35_7"/></filter><filter id="x" x="111.608" y="45.481" width="142.938" height="92.59" filterUnits="userSpaceOnUse" color-interpolation-filters="sRGB"><feFlood flood-opacity="0" result="BackgroundImageFix"/><feBlend in="SourceGraphic" in2="BackgroundImageFix" result="shape"/><feGaussianBlur stdDeviation="12.518" result="effect1_foregroundBlur_35_7"/></filter><filter id="z" x="105.5" y="105.5" width="88.846" height="89.846" filterUnits="userSpaceOnUse" color-interpolation-filters="sRGB"><feFlood flood-opacity="0" result="BackgroundImageFix"/><feBlend in="SourceGraphic" in2="BackgroundImageFix" result="shape"/><feColorMatrix in="SourceAlpha" values="0 0 0 0 0 0 0 0 0 0 0 0 0 0 0 0 0 0 127 0" result="hardAlpha"/><feOffset dx=".846" dy=".846"/><feGaussianBlur stdDeviation="4.231"/><feComposite in2="hardAlpha" operator="arithmetic" k2="-1" k3="1"/><feColorMatrix values="0 0 0 0 1 0 0 0 0 1 0 0 0 0 1 0 0 0 0.8 0"/><feBlend in2="shape" result="effect1_innerShadow_35_7"/></filter><filter id="d" x="-35.7" y="80.494" width="162.784" height="116.302" filterUnits="userSpaceOnUse" color-interpolation-filters="sRGB"><feFlood flood-opacity="0" result="BackgroundImageFix"/><feBlend in="SourceGraphic" in2="BackgroundImageFix" result="shape"/><feGaussianBlur stdDeviation="19.262" result="effect1_foregroundBlur_35_7"/></filter><filter id="D" x="4.923" y="-27.218" width="381.331" height="372.801" filterUnits="userSpaceOnUse" color-interpolation-filters="sRGB"><feFlood flood-opacity="0" result="BackgroundImageFix"/><feBlend in="SourceGraphic" in2="BackgroundImageFix" result="shape"/><feGaussianBlur stdDeviation="33.38" result="effect1_foregroundBlur_35_7"/></filter><filter id="E" x="-31.037" y="99.344" width="323.242" height="294.029" filterUnits="userSpaceOnUse" color-interpolation-filters="sRGB"><feFlood flood-opacity="0" result="BackgroundImageFix"/><feBlend in="SourceGraphic" in2="BackgroundImageFix" result="shape"/><feGaussianBlur stdDeviation="16.69" result="effect1_foregroundBlur_35_7"/></filter><filter id="F" x="-111.871" y="108.107" width="385.562" height="277.124" filterUnits="userSpaceOnUse" color-interpolation-filters="sRGB"><feFlood flood-opacity="0" result="BackgroundImageFix"/><feBlend in="SourceGraphic" in2="BackgroundImageFix" result="shape"/><feGaussianBlur stdDeviation="45.898" result="effect1_foregroundBlur_35_7"/></filter><filter id="G" x="130.543" y="9.29" width="454.174" height="499.418" filterUnits="userSpaceOnUse" color-interpolation-filters="sRGB"><feFlood flood-opacity="0" result="BackgroundImageFix"/><feBlend in="SourceGraphic" in2="BackgroundImageFix" result="shape"/><feGaussianBlur stdDeviation="50" result="effect1_foregroundBlur_35_7"/></filter><filter id="I" x="-109.518" y="-27.465" width="479.219" height="478.861" filterUnits="userSpaceOnUse" color-interpolation-filters="sRGB"><feFlood flood-opacity="0" result="BackgroundImageFix"/><feBlend in="SourceGraphic" in2="BackgroundImageFix" result="shape"/><feGaussianBlur stdDeviation="50" result="effect1_foregroundBlur_35_7"/></filter><filter id="K" x="117.571" y="74.06" width="312.126" height="203.688" filterUnits="userSpaceOnUse" color-interpolation-filters="sRGB"><feFlood flood-opacity="0" result="BackgroundImageFix"/><feBlend in="SourceGraphic" in2="BackgroundImageFix" result="shape"/><feGaussianBlur stdDeviation="27.538" result="effect1_foregroundBlur_35_7"/></filter><linearGradient id="i" x1="84.38" y1="107.068" x2="115.76" y2="165.905" gradientUnits="userSpaceOnUse"><stop stop-color="#fff"/><stop offset="1" stop-color="#fff" stop-opacity="0"/></linearGradient><linearGradient id="k" x1="3.96" y1="76.16" x2="52.67" y2="121.699" gradientUnits="userSpaceOnUse"><stop stop-color="#AAA"/><stop offset="1" stop-color="#AAA" stop-opacity="0"/></linearGradient><linearGradient id="u" x1="167.569" y1="74.559" x2="201.558" y2="138.288" gradientUnits="userSpaceOnUse"><stop stop-color="#fff"/><stop offset="1" stop-color="#fff" stop-opacity="0"/></linearGradient><linearGradient id="w" x1="80.462" y1="41.082" x2="133.222" y2="90.406" gradientUnits="userSpaceOnUse"><stop stop-color="#AAA"/><stop offset="1" stop-color="#AAA" stop-opacity="0"/></linearGradient><linearGradient id="H" x1="239.905" y1="138.03" x2="315.15" y2="277.512" gradientUnits="userSpaceOnUse"><stop stop-color="#fff"/><stop offset="1" stop-color="#fff" stop-opacity="0"/></linearGradient><linearGradient id="J" x1="50.456" y1="64.381" x2="166.426" y2="171.567" gradientUnits="userSpaceOnUse"><stop stop-color="#027BFE"/><stop offset="1" stop-color="#027BFE" stop-opacity="0"/></linearGradient><radialGradient id="m" cx="0" cy="0" r="1" gradientTransform="matrix(50.6536 21.7738 -21.7742 50.6494 62.926 114.918)" gradientUnits="userSpaceOnUse"><stop stop-color="#fff"/><stop offset="1" stop-color="#fff" stop-opacity="0"/></radialGradient><radialGradient id="y" cx="0" cy="0" r="1" gradientTransform="matrix(50.6561 21.7749 -21.7753 50.6519 108.926 68.919)" gradientUnits="userSpaceOnUse"><stop stop-color="#fff"/><stop offset="1" stop-color="#fff" stop-opacity="0"/></radialGradient><radialGradient id="L" cx="0" cy="0" r="1" gradientTransform="matrix(-91 -95.5 95.487 -92.5038 193 197)" gradientUnits="userSpaceOnUse"><stop stop-color="#fff"/><stop offset="1" stop-color="#fff" stop-opacity="0"/></radialGradient></defs></svg>