<svg xmlns="http://www.w3.org/2000/svg" width="371" height="327" fill="none" viewBox="0 0 371 327"><path fill="#ECF2F9" d="M363.122 219.698h-4.8v-55.9c0-4.2-3.4-7.6-7.6-7.6h-62l.1-148.4c0-.2-.2-.4-.4-.4h-99.3c-19.7 0-21.9 11-21.9 23v146.5h-25.4v-53.8c0-3.7-3-6.6-6.6-6.6h-94c-3.7 0-6.6 3-6.6 6.6v96.5h-5.7c-4.2 0-7.6 3.4-7.6 7.6v29.9c0 4.2 3.4 7.6 7.6 7.6h334.3c4.2 0 7.6-3.4 7.6-7.6v-29.9c-.1-4.1-3.5-7.5-7.7-7.5Z"/><path stroke="#626262" stroke-dasharray="4 10" stroke-linecap="round" stroke-linejoin="round" stroke-width="4" d="M104.222 313.198h-90.7c-6.2 0-11.2-5-11.2-11.2v-106.9c0-6.2 5-11.2 11.2-11.2h90.7c6.2 0 11.2 5 11.2 11.2v106.9c0 6.2-5 11.2-11.2 11.2Z" clip-rule="evenodd"/><path fill="#626262" d="M21.61 204.922a2 2 0 1 0-2.172 3.359l2.171-3.359Zm18.713 14.48 1.1 1.67a2 2 0 0 0-.014-3.35l-1.086 1.68Zm-20.7 11.229a2 2 0 1 0 2.2 3.341l-2.2-3.341Zm29 15.671a2 2 0 1 0 0 4v-4Zm20.8 4a2 2 0 0 0 0-4v4Zm-49.985-42.021 19.8 12.8 2.171-3.359-19.8-12.8-2.171 3.359Zm19.786 9.45-19.6 12.9 2.199 3.341 19.6-12.9-2.2-3.341Zm9.399 32.571h20.8v-4h-20.8v4Z"/><path stroke="#626262" stroke-linecap="round" stroke-linejoin="round" stroke-width="4" d="m330.021 26.002-1.4-1.4h-2"/><path stroke="#626262" stroke-dasharray="4.01 10.02" stroke-linecap="round" stroke-linejoin="round" stroke-width="4" d="M316.523 24.602h-118c-5.5 0-10 4.5-10 10v203.1c0 5.5 4.5 10 10 10h151.5c5.5 0 10-4.5 10-10v-181.7l-26.5-26.4"/><path stroke="#626262" stroke-linecap="round" stroke-linejoin="round" stroke-width="4" d="M328.621 24.602v2"/><path stroke="#626262" stroke-dasharray="4.27 10.68" stroke-linecap="round" stroke-linejoin="round" stroke-width="4" d="M328.621 37.302v11.3c0 4.1 3.3 7.4 7.4 7.4h16.6"/><path stroke="#626262" stroke-linecap="round" stroke-linejoin="round" stroke-width="4" d="M357.922 56h2"/><path fill="#FFA47E" d="m65.023 286.601 2.3-195.6c.1-7.7 5.5-13.9 11.9-13.6l220.5 11.5c4.6.2 8.2 4.1 8.2 8.8v179.5l-242.9 9.4Z"/><path fill="#FF7E46" d="M212.123 106.801c1.1-6 6.9-10.7 12.9-10.4l110.8 4.9c5.5.2 9.1 5 8 10.7l-29.6 164.2c-1 5.6-6.3 10.3-11.8 10.6l-227 9.4c-6.8.3-11.4-4.6-10.3-10.8l27.4-160.1c1.1-6.3 7.4-11.3 14.1-11l92.3 3.2c6.4 0 13.2-10.7 13.2-10.7Z"/><path fill="#626262" d="M83.822 2a2 2 0 0 0-4 0h4Zm-4 10.8a2 2 0 1 0 4 0h-4Zm4 22.7a2 2 0 0 0-4 0h4Zm-4 11.7a2 2 0 1 0 4 0h-4Zm24.6-20.598a2 2 0 1 0 0-4v4Zm-10.9-4a2 2 0 1 0 0 4v-4Zm-23.5 4a2 2 0 0 0 0-4v4Zm-10.8-4a2 2 0 1 0 0 4v-4ZM79.823 2v10.8h4V2h-4Zm0 33.5v11.7h4V35.5h-4Zm24.6-12.898h-10.9v4h10.9v-4Zm-34.4 0h-10.8v4h10.8v-4ZM342.622 301.5a2 2 0 1 0-4 0h4Zm-4 5.6a2 2 0 0 0 4 0h-4Zm4 11.798a2 2 0 0 0-4 0h4Zm-4 6.1a2 2 0 0 0 4 0h-4Zm13.801-9.798a2 2 0 0 0 0-4v4Zm-5.7-4a2 2 0 1 0 0 4v-4Zm-12.201 4a2 2 0 1 0 0-4v4Zm-5.7-4a2 2 0 0 0 0 4v-4Zm9.8-9.7v5.6h4v-5.6h-4Zm0 17.398v6.1h4v-6.1h-4Zm13.801-7.698h-5.7v4h5.7v-4Zm-17.901 0h-5.7v4h5.7v-4Z"/></svg>