<svg xmlns="http://www.w3.org/2000/svg" width="355" height="370" fill="none" viewBox="0 0 355 370"><path fill="#ECF2F9" d="M332.27 21.701H33.67c-7.4 0-13.4 6-13.4 13.4v181.201c0 7.4 6 13.4 13.4 13.4h134.9v111h-62.5c-1.3 0-2.6.5-3.5 1.4l-19.4 18.5c-3.3 3.2-1.1 8.7 3.5 8.7h192.5c4.6 0 6.8-5.6 3.5-8.7l-19.4-18.5c-.9-.9-2.2-1.4-3.5-1.4h-62.5v-111h134.9c7.4 0 13.4-6 13.4-13.4v-181.2c.1-7.4-5.9-13.4-13.3-13.4Z"/><path fill="#ECF2F9" fill-rule="evenodd" d="M18.77 35.502h328.4c3.8 0 7-3.1 6.9-7v-3.8c0-3.9-3.1-7-7-7H18.77c-3.9 0-7 3.1-7 7v3.8c0 3.9 3.1 7 7 7Zm0 195.601h328.4c3.8 0 7-3.1 6.9-7v-3.8c0-3.9-3.1-7-7-7H18.77c-3.9 0-7 3.1-7 7v3.8c0 3.9 3.1 7 7 7Z" clip-rule="evenodd"/><path fill="#ECF2F9" d="M182.97 23.7c6.517 0 11.8-5.283 11.8-11.8S189.487.1 182.97.1s-11.8 5.283-11.8 11.8 5.283 11.8 11.8 11.8Z"/><path fill="#626262" fill-rule="evenodd" d="M17.97 113.8c-.498 0-.989.028-1.471.081a2 2 0 1 1-.443-3.975c.629-.07 1.267-.106 1.913-.106h1.988a2 2 0 1 1 0 4H17.97Zm9.927-2a2 2 0 0 1 2-2h3.976a2 2 0 1 1 0 4h-3.976a2 2 0 0 1-2-2Zm13.916 0a2 2 0 0 1 2-2h3.976a2 2 0 1 1 0 4h-3.976a2 2 0 0 1-2-2Zm13.915 0a2 2 0 0 1 2-2h3.977a2 2 0 1 1 0 4h-3.977a2 2 0 0 1-2-2Zm13.916 0a2 2 0 0 1 2-2h3.976a2 2 0 1 1 0 4h-3.976a2 2 0 0 1-2-2Zm13.916 0a2 2 0 0 1 2-2h3.976a2 2 0 1 1 0 4H85.56a2 2 0 0 1-2-2Zm13.916 0a2 2 0 0 1 2-2h3.976a2 2 0 0 1 0 4h-3.976a2 2 0 0 1-2-2Zm13.916 0a2 2 0 0 1 2-2h3.976a2 2 0 0 1 0 4h-3.976a2 2 0 0 1-2-2Zm13.915 0a2 2 0 0 1 2-2h3.976a2 2 0 1 1 0 4h-3.976a2 2 0 0 1-2-2Zm13.916 0a2 2 0 0 1 2-2h3.976a2 2 0 1 1 0 4h-3.976a2 2 0 0 1-2-2Zm13.916 0a2 2 0 0 1 2-2h3.976a2 2 0 1 1 0 4h-3.976a2 2 0 0 1-2-2Zm13.916 0a2 2 0 0 1 2-2h3.976a2 2 0 0 1 0 4h-3.976a2 2 0 0 1-2-2Zm13.916 0a2 2 0 0 1 2-2h3.976a2 2 0 0 1 0 4h-3.976a2 2 0 0 1-2-2Zm13.915 0a2 2 0 0 1 2-2h3.976a2 2 0 1 1 0 4h-3.976a2 2 0 0 1-2-2Zm13.916 0a2 2 0 0 1 2-2h3.976a2 2 0 1 1 0 4h-3.976a2 2 0 0 1-2-2Zm13.916 0a2 2 0 0 1 2-2h3.976a2 2 0 1 1 0 4h-3.976a2 2 0 0 1-2-2Zm13.916 0a2 2 0 0 1 2-2h3.976a2 2 0 0 1 0 4h-3.976a2 2 0 0 1-2-2Zm13.916 0a2 2 0 0 1 2-2h3.976a2 2 0 0 1 0 4h-3.976a2 2 0 0 1-2-2Zm13.915 0a2 2 0 0 1 2-2h3.976a2 2 0 1 1 0 4h-3.976a2 2 0 0 1-2-2Zm13.916 0a2 2 0 0 1 2-2h1.988c.646 0 1.284.036 1.912.105a2 2 0 1 1-.44 3.976 13.217 13.217 0 0 0-1.472-.081h-1.988a2 2 0 0 1-2-2Zm11.844 2.04a2 2 0 0 1 2.811-.314 17.119 17.119 0 0 1 2.706 2.709 2 2 0 1 1-3.128 2.493 13.148 13.148 0 0 0-2.075-2.077 2 2 0 0 1-.314-2.811Zm-280.11.004a2 2 0 0 1-.318 2.811 13.13 13.13 0 0 0-2.077 2.075 2 2 0 1 1-3.125-2.497c.8-1 1.709-1.908 2.709-2.706a2 2 0 0 1 2.81.317Zm-6.933 9.376a2 2 0 0 1 1.768 2.208c-.053.482-.08.973-.08 1.472v2.052a2 2 0 1 1-4 0V126.9c0-.646.035-1.284.104-1.912a2 2 0 0 1 2.208-1.768Zm293.972 0a2 2 0 0 1 2.209 1.767c.07.629.106 1.267.106 1.913v2.052a2 2 0 1 1-4 0V126.9c0-.497-.028-.988-.081-1.47a2 2 0 0 1 1.766-2.21Zm.315 13.994a2 2 0 0 1 2 2v4.105a2 2 0 1 1-4 0v-4.105a2 2 0 0 1 2-2Zm-294.6 0a2 2 0 0 1 2 2v4.105a2 2 0 1 1-4 0v-4.105a2 2 0 0 1 2-2Zm294.6 14.367a2 2 0 0 1 2 2v4.105a2 2 0 0 1-4 0v-4.105a2 2 0 0 1 2-2Zm-294.6 0a2 2 0 0 1 2 2v4.105a2 2 0 0 1-4 0v-4.105a2 2 0 0 1 2-2Zm294.6 14.367a2 2 0 0 1 2 2v4.104a2 2 0 1 1-4 0v-4.104a2 2 0 0 1 2-2Zm-294.6 0a2 2 0 0 1 2 2v4.104a2 2 0 1 1-4 0v-4.104a2 2 0 0 1 2-2Zm294.6 14.366a2 2 0 0 1 2 2v4.105a2 2 0 1 1-4 0v-4.105a2 2 0 0 1 2-2Zm-294.6 0a2 2 0 0 1 2 2v4.105a2 2 0 1 1-4 0v-4.105a2 2 0 0 1 2-2Zm294.6 14.367a2 2 0 0 1 2 2v4.105a2 2 0 0 1-4 0v-4.105a2 2 0 0 1 2-2Zm-294.6 0a2 2 0 0 1 2 2v4.105a2 2 0 0 1-4 0v-4.105a2 2 0 0 1 2-2Zm294.6 14.367a2 2 0 0 1 2 2v4.104a2 2 0 1 1-4 0v-4.104a2 2 0 0 1 2-2Zm-294.6 0a2 2 0 0 1 2 2v4.104a2 2 0 1 1-4 0v-4.104a2 2 0 0 1 2-2Zm294.6 14.366a2 2 0 0 1 2 2v4.105a2 2 0 1 1-4 0v-4.105a2 2 0 0 1 2-2Zm-294.6 0a2 2 0 0 1 2 2v4.105a2 2 0 1 1-4 0v-4.105a2 2 0 0 1 2-2Zm294.6 14.367a2 2 0 0 1 2 2v4.105a2 2 0 0 1-4 0v-4.105a2 2 0 0 1 2-2Zm-294.6 0a2 2 0 0 1 2 2v4.105a2 2 0 0 1-4 0v-4.105a2 2 0 0 1 2-2Zm294.6 14.367a2 2 0 0 1 2 2v4.104a2 2 0 1 1-4 0v-4.104a2 2 0 0 1 2-2Zm-294.6 0a2 2 0 0 1 2 2v4.104a2 2 0 1 1-4 0v-4.104a2 2 0 0 1 2-2Zm294.6 14.366a2 2 0 0 1 2 2v4.105a2 2 0 1 1-4 0v-4.105a2 2 0 0 1 2-2Zm-294.6 0a2 2 0 0 1 2 2v4.105a2 2 0 1 1-4 0v-4.105a2 2 0 0 1 2-2Zm294.6 14.367a2 2 0 0 1 2 2v4.105a2 2 0 0 1-4 0v-4.105a2 2 0 0 1 2-2Zm-294.6 0a2 2 0 0 1 2 2v4.105a2 2 0 0 1-4 0v-4.105a2 2 0 0 1 2-2Zm294.6 14.367a2 2 0 0 1 2 2v2.052c0 .646-.035 1.284-.105 1.912a2 2 0 0 1-3.976-.44c.054-.482.081-.973.081-1.472v-2.052a2 2 0 0 1 2-2Zm-294.6 0a2 2 0 0 1 2 2v2.052c0 .497.028.988.082 1.47a2.001 2.001 0 0 1-3.976.443A17.261 17.261 0 0 1 .87 299.3v-2.052a2 2 0 0 1 2-2Zm292.56 11.908a2 2 0 0 1 .314 2.811c-.799 1-1.708 1.908-2.708 2.706a2 2 0 0 1-2.494-3.128 13.148 13.148 0 0 0 2.077-2.075 2 2 0 0 1 2.811-.314Zm-290.516-.001a2 2 0 0 1 2.81.317 13.176 13.176 0 0 0 2.076 2.077 2 2 0 1 1-2.497 3.125 17.16 17.16 0 0 1-2.706-2.709 2 2 0 0 1 .317-2.81Zm281.136 6.93a2 2 0 0 1-1.766 2.209c-.63.07-1.268.106-1.914.106h-1.988a2 2 0 0 1 0-4h1.988c.498 0 .988-.028 1.47-.081a2 2 0 0 1 2.21 1.766Zm-271.76.002a2 2 0 0 1 2.208-1.768c.482.053.973.081 1.472.081h1.988a2 2 0 1 1 0 4H17.97c-.646 0-1.284-.036-1.912-.105a2 2 0 0 1-1.768-2.208Zm13.608.313a2 2 0 0 1 2-2h3.976a2 2 0 1 1 0 4h-3.976a2 2 0 0 1-2-2Zm13.916 0a2 2 0 0 1 2-2h3.976a2 2 0 1 1 0 4h-3.976a2 2 0 0 1-2-2Zm13.916 0a2 2 0 0 1 2-2h3.976a2 2 0 1 1 0 4h-3.976a2 2 0 0 1-2-2Zm13.915 0a2 2 0 0 1 2-2h3.976a2 2 0 1 1 0 4h-3.976a2 2 0 0 1-2-2Zm13.916 0a2 2 0 0 1 2-2h3.976a2 2 0 1 1 0 4H85.56a2 2 0 0 1-2-2Zm13.916 0a2 2 0 0 1 2-2h3.976a2 2 0 0 1 0 4h-3.976a2 2 0 0 1-2-2Zm13.916 0a2 2 0 0 1 2-2h3.976a2 2 0 0 1 0 4h-3.976a2 2 0 0 1-2-2Zm13.915 0a2 2 0 0 1 2-2h3.976a2 2 0 1 1 0 4h-3.976a2 2 0 0 1-2-2Zm13.916 0a2 2 0 0 1 2-2h3.976a2 2 0 1 1 0 4h-3.976a2 2 0 0 1-2-2Zm13.916 0a2 2 0 0 1 2-2h3.976a2 2 0 1 1 0 4h-3.976a2 2 0 0 1-2-2Zm13.916 0a2 2 0 0 1 2-2h3.976a2 2 0 0 1 0 4h-3.976a2 2 0 0 1-2-2Zm13.916 0a2 2 0 0 1 2-2h3.976a2 2 0 0 1 0 4h-3.976a2 2 0 0 1-2-2Zm13.915 0a2 2 0 0 1 2-2h3.976a2 2 0 1 1 0 4h-3.976a2 2 0 0 1-2-2Zm13.916 0a2 2 0 0 1 2-2h3.976a2 2 0 1 1 0 4h-3.976a2 2 0 0 1-2-2Zm13.916 0a2 2 0 0 1 2-2h3.976a2 2 0 1 1 0 4h-3.976a2 2 0 0 1-2-2Zm13.916 0a2 2 0 0 1 2-2h3.976a2 2 0 0 1 0 4h-3.976a2 2 0 0 1-2-2Zm13.916 0a2 2 0 0 1 2-2h3.976a2 2 0 0 1 0 4h-3.976a2 2 0 0 1-2-2Zm13.915 0a2 2 0 0 1 2-2h3.976a2 2 0 1 1 0 4h-3.976a2 2 0 0 1-2-2Z" clip-rule="evenodd"/><path fill="#FF7E46" d="m312.97 246.1-250.2 5.4c-6.4.1-11.6-5.8-11.6-13.2V52.9c0-7.4 5.2-13.1 11.6-12.8l250.2 17.6c5.1.3 9.3 5.9 9.3 12.5V234c-.1 6.6-4.2 12-9.3 12.1Z"/><path fill="#fff" d="m296.268 164.402-73.7-2.6c-4.1 0-7.4-3.3-7.4-7.5v-75.8c0-4.1 3.3-7.3 7.4-7.1l73.7 4.7c3.7.2 6.7 3.5 6.7 7.5v73.7c.1 3.9-3 7.1-6.7 7.1Z"/><path fill="#FFE2D6" d="M81.37 119.9c-3.3-.2-6.1 2.4-6.1 5.8v128.7c0 15.8 6.8 25.3 16.6 25.3s102.7-3.2 109.3-3.2c-9.8-2.4-12.1-10.8-12.1-26v-119c0-3.1-2.4-5.6-5.4-5.8l-102.3-5.8Z"/><path fill="#626262" d="M173.369 145.702a7.5 7.5 0 1 0 0-15 7.5 7.5 0 0 0 0 15Zm-83.9-4.902a7.5 7.5 0 1 0 0-15 7.5 7.5 0 0 0 0 15Z"/><path fill="#FF7E46" d="M92.469 140.8a7.5 7.5 0 1 0 0-15 7.5 7.5 0 0 0 0 15Zm83.699 4.902a7.5 7.5 0 1 0 0-15 7.5 7.5 0 0 0 0 15Z"/><path fill="#FFA47E" d="M107.169 262.9s-4.3 16.5-15.3 16.7c19 0 99.8-2.1 109.3-3.2s11-17.1 11-17.1l-105 3.6Z"/><path fill="#626262" fill-rule="evenodd" d="M75.176 62.75a2 2 0 0 1 2.144-1.844l109.2 8.2a2 2 0 0 1-.3 3.988l-109.2-8.2a2 2 0 0 1-1.844-2.144Zm-.003 25.433a2 2 0 0 1 2.112-1.881l109.2 6.3a2 2 0 0 1-.23 3.993l-109.2-6.3a2 2 0 0 1-1.882-2.112Zm12.298 72.772a2 2 0 0 1 2.045-1.953l86.7 2a2.001 2.001 0 0 1-.092 3.999l-86.7-2a2 2 0 0 1-1.953-2.046Zm0 23.122a2 2 0 0 1 2.022-1.977l86.7 1a2 2 0 0 1-.046 4l-86.7-1a2 2 0 0 1-1.977-2.023Zm90.699 23.6a2 2 0 0 1-1.977 2.023l-86.7 1a2 2 0 1 1-.046-4l86.7-1a2 2 0 0 1 2.023 1.977Z" clip-rule="evenodd"/><path fill="#FFE2D6" d="M294.668 121.402c0-19.1-15-35.1-33.6-35.9-18.7-.8-33.9 14.1-33.9 33.4 0 19.3 15.2 35.3 33.9 35.9 18.6.6 33.6-14.4 33.6-33.4Z"/><path fill="#FF7E46" d="M287.768 100.1c-6.1-8.5-15.8-14.2-26.7-14.7v34.7l26.7-20Z"/><path fill="#FFE2D6" d="m287.768 100.1-26.7 20 33.6 1.3c0-7.9-2.6-15.3-6.9-21.3Z"/><path fill="#626262" d="M261.07 120.1V85.4c-18.7-.8-33.9 14.1-33.9 33.4l33.9 1.3Z"/></svg>