<svg xmlns="http://www.w3.org/2000/svg" width="338" height="317" fill="none" viewBox="0 0 338 317"><g clip-path="url(#a)"><path fill="#ECF2F9" d="M111.858 4.13v41.222c0 2.004 1.432 3.72 3.435 4.105 27.195 4.864 47.613 29.1 46.56 57.916-1.048 29.483-25.094 53.433-54.483 54.577-28.815 1.051-52.955-19.369-57.919-46.467a4.188 4.188 0 0 0-4.104-3.436H4.132c-2.479 0-4.389 2.1-4.104 4.483 5.633 53.436 51.05 94.942 106.108 94.464 57.441-.475 104.29-47.421 104.768-104.862C211.38 51.077 169.777 5.659 116.341.024c-2.385-.285-4.483 1.627-4.483 4.107Z"/><path fill="#ECF2F9" fill-rule="evenodd" d="m37.149 29.99 29.104 29.102a4.194 4.194 0 0 0 5.44.382c6.774-5.058 14.787-8.491 23.47-10.116 2.005-.38 3.436-2.004 3.436-4.102V4.13c0-2.48-2.1-4.39-4.58-4.104a105.741 105.741 0 0 0-56.583 23.95c-1.907 1.528-2.004 4.297-.287 6.01v.003ZM21.786 40.01C9.957 55.278 2.133 73.786.035 94.017c-.29 2.386 1.714 4.484 4.102 4.484H45.26c2.003 0 3.72-1.432 4.104-3.436a55.528 55.528 0 0 1 8.394-20.99 4.318 4.318 0 0 0-.475-5.249L27.989 39.722c-1.717-1.81-4.674-1.622-6.203.288ZM131.71 196.397h53.911c3.054 0 5.533 2.48 5.63 5.63v106.582a5.638 5.638 0 0 1-5.63 5.63H131.71a5.643 5.643 0 0 1-5.63-5.63V202.027a5.643 5.643 0 0 1 5.63-5.63Zm127.192 44.276h-53.718a5.74 5.74 0 0 0-5.727 5.724v62.023a5.743 5.743 0 0 0 5.724 5.725h53.721a5.739 5.739 0 0 0 5.724-5.725v-62.023a5.735 5.735 0 0 0-1.682-4.042 5.735 5.735 0 0 0-4.042-1.682Zm19.942 29.867h53.244a5.946 5.946 0 0 1 5.915 5.915v31.68a5.948 5.948 0 0 1-5.915 5.915h-53.244a5.94 5.94 0 0 1-5.915-5.915v-31.68a5.941 5.941 0 0 1 5.915-5.915Z" clip-rule="evenodd"/><path fill="#626262" fill-rule="evenodd" d="M34.76 127.791c-8.489 0-15.459 6.97-15.459 15.458v119.655c0 8.488 6.97 15.458 15.457 15.458h184.635c8.498 0 15.446-6.88 15.362-15.439V143.252c0-8.491-6.97-15.461-15.457-15.461H34.758h.002Zm184.633 154.386H34.76c-10.599 0-19.276-8.677-19.276-19.273V143.252c0-10.599 8.68-19.276 19.276-19.276h184.538c10.594 0 19.274 8.677 19.274 19.273v119.645c.101 10.712-8.595 19.283-19.179 19.283Z" clip-rule="evenodd"/><path fill="#626262" d="M35.334 148.31a4.962 4.962 0 1 0 0-9.923 4.962 4.962 0 0 0 0 9.923Zm16.125 0a4.962 4.962 0 1 0 0-9.923 4.962 4.962 0 0 0 0 9.923Zm16.128 0a4.962 4.962 0 1 0 0-9.923 4.962 4.962 0 0 0 0 9.923Z"/><path fill="#626262" fill-rule="evenodd" d="M15.771 161.091a1.908 1.908 0 0 1 1.908-1.907h218.413c.506 0 .991.201 1.349.558a1.91 1.91 0 0 1 0 2.698 1.91 1.91 0 0 1-1.349.558H17.682a1.904 1.904 0 0 1-1.763-1.177 1.913 1.913 0 0 1-.148-.73Z" clip-rule="evenodd"/><path fill="#FF7E46" d="M301.548 243.725 94.586 255.176c-6.965.381-12.69-4.962-12.69-11.929V83.517c0-6.965 5.725-12.308 12.69-11.926l206.962 11.45c5.343.286 9.638 5.438 9.638 11.45v137.783c0 6.011-4.295 11.166-9.638 11.451Z"/><path fill="#fff" d="M195.461 188.918c-1.354 1.449-3.945 1.516-5.418.14l-25.502-23.86c-1.472-1.377-1.579-3.969-.224-5.42l5.2-5.324c1.345-1.688 3.699-1.748 5.181-.135l17.402 16.055 33.861-36.268c1.342-1.685 3.698-1.745 5.178-.135l5.63 5.041c1.473 1.376 1.579 3.969.225 5.42l-41.533 44.486Z"/><path fill="#fff" fill-rule="evenodd" d="M106.421 88.479c0 3.245-2.578 5.724-5.821 5.533-3.244-.096-5.82-2.86-5.82-6.108a5.486 5.486 0 0 1 5.818-5.53c3.151.096 5.823 2.86 5.823 6.105Zm18.795.76a5.515 5.515 0 0 1-3.545 5.174 5.526 5.526 0 0 1-2.179.362c-3.148-.096-5.724-2.863-5.724-6.011a5.53 5.53 0 0 1 1.684-3.986 5.517 5.517 0 0 1 4.04-1.548c3.148.19 5.724 2.859 5.724 6.01Zm12.787 6.3c3.054.19 5.535-2.292 5.535-5.44 0-3.148-2.481-5.819-5.535-5.915-3.149-.193-5.628 2.289-5.628 5.44 0 3.147 2.576 5.818 5.628 5.914Z" clip-rule="evenodd"/><path fill="#626262" fill-rule="evenodd" d="M260.045 22.166a1.903 1.903 0 0 1 1.762 1.177c.096.231.145.48.145.73v6.87a1.908 1.908 0 1 1-3.817 0v-6.868a1.908 1.908 0 0 1 1.91-1.907v-.002Zm-16.412 16.32c-.001-.25.049-.5.145-.731a1.897 1.897 0 0 1 1.033-1.034 1.91 1.91 0 0 1 .732-.144h6.965a1.904 1.904 0 0 1 1.907 1.907 1.906 1.906 0 0 1-1.907 1.907h-6.965a1.908 1.908 0 0 1-1.91-1.907v.002Zm21.946 0a1.91 1.91 0 0 1 1.178-1.765 1.89 1.89 0 0 1 .731-.144h6.966a1.906 1.906 0 0 1 1.348 3.255 1.906 1.906 0 0 1-1.348.559h-6.966a1.903 1.903 0 0 1-1.764-1.177 1.907 1.907 0 0 1-.145-.73v.002Zm-5.534 5.05a1.91 1.91 0 0 1 1.763 1.18c.096.232.145.48.144.73v7.444a1.908 1.908 0 1 1-3.817 0v-7.444a1.908 1.908 0 0 1 1.179-1.762c.232-.096.48-.148.731-.147Z" clip-rule="evenodd"/></g><defs><clipPath id="a"><path fill="#fff" d="M0 0h338v316.271H0z"/></clipPath></defs></svg>