<svg width="120" height="116" viewBox="0 0 120 116" fill="currentColor" xmlns="http://www.w3.org/2000/svg">
<path d="M74.9195 70.0515L95.8081 15.6348L79.6708 65.3001L74.9195 70.0515Z"/>
<path d="M42.4563 102.515H40.5435L40.3515 102.323L42.534 102.437L42.4563 102.515Z"/>
<path d="M43.9646 101.006L43.9612 101.01L38.7664 100.737L38.4563 100.427L43.9646 101.006Z"/>
<path d="M52.5803 92.3906L51.533 93.4379L45.8701 89.7585L16.1971 56.8033L16.5951 56.4053L52.5803 92.3906Z"/>
<path d="M72.3117 72.6592L93.4577 17.5721L93.2044 17.8254L65.9651 79.0058L72.3117 72.6592Z"/>
<path d="M55.9319 89.0391L53.641 91.3299L17.6557 55.3447L18.0607 54.9397L55.9319 89.0391Z"/>
<path d="M63.0054 81.9655L90.2447 20.7851L89.4044 21.6255L65.0682 69.3879L65.4932 67.6663L50.8332 60.1966L49.2653 61.7646L64.744 70.7012L64.3697 72.2172L48.1672 62.8626L46.6557 64.3741L63.5908 75.3719L63.2103 76.9134L45.5713 65.4585L44.1127 66.9171L62.3983 80.2023L62.0101 81.7745L43.0388 67.991L41.6095 69.4203L60.3637 84.6072L63.0054 81.9655Z"/>
<path d="M59.2972 85.6737L56.994 87.9769L19.1228 53.8776L19.5298 53.4706L59.2972 85.6737Z"/>
<path d="M20.5963 52.4041L40.4575 68.4874L31.7838 59.8137L21.0125 51.9879L20.5963 52.4041Z"/>
<path d="M22.0864 50.914L25.0035 53.0334L22.4852 50.5152L22.0864 50.914Z"/>
<path d="M53.59 57.4398L51.9484 59.0814L65.8624 66.1709L66.5891 63.2274L53.59 57.4398Z"/>
<path d="M85.972 25.0578L66.6507 62.9779L66.9544 61.7481L54.7261 56.3037L56.4573 54.5726L67.6638 58.8744L68.0262 57.4068L57.6183 53.4115L59.4536 51.5763L68.7221 54.5878L69.0826 53.1277L60.644 50.3858L62.6248 48.405L69.7755 50.3211L69.1372 52.9064L84.1823 26.8475L85.972 25.0578Z"/>
<path d="M80.0843 30.9456L70.4312 47.6651L70.1351 48.8645L63.8495 47.1803L65.9804 45.0494L70.8229 46.0787L71.1826 44.6218L67.245 43.7848L69.5759 41.4539L71.8748 41.8181L71.9637 41.4577L76.3938 34.636L80.0843 30.9456Z"/>
<path d="M110.029 26.0298L110.594 26.5948L111.658 33.3126L110.877 34.0941L110.029 26.0298Z"/>
<path d="M107.95 23.9502L108.344 24.3446L109.512 35.4587L108.601 36.3703L107.95 23.9502Z"/>
<path d="M106.101 22.1017L106.365 22.3651L107.173 37.7976L106.101 38.8698V22.1017Z"/>
<path d="M104.438 20.4389L104.601 20.6017L104.601 40.3698L103.327 41.6438L104.438 20.4389Z"/>
<path d="M102.923 18.9233L103.011 19.012L101.742 43.2287L100.207 44.7641L102.923 18.9233Z"/>
<path d="M101.536 17.5368L101.558 17.5585L98.5215 46.4495L96.6625 48.3084L101.536 17.5368Z"/>
<path d="M94.858 50.1129L100.123 16.8687L92.571 52.4L94.858 50.1129Z"/>
<path d="M90.6235 54.3474L98.6738 16.4736L87.7577 57.2132L90.6235 54.3474Z"/>
<path d="M85.6364 59.3346L97.1595 16.3296L82.0072 62.9638L85.6364 59.3346Z"/>
<path d="M112.969 32.0016L112.399 28.3994L113.192 29.1922L113.645 31.3258L112.969 32.0016Z"/>
<path d="M72.7478 38.282L72.2356 40.3565L70.8869 40.1429L72.7478 38.282Z"/>
<path d="M14.7247 58.2756L15.1349 57.8654L41.0061 86.5982L38.8685 85.2094L7.00099 68.9721L5.51465 67.4857L6.85707 66.1433L30.0438 79.5302L34.0243 82.1087L14.7247 58.2756Z"/>
<path d="M13.2431 59.7573L13.6582 59.3421L29.8713 79.3636L25.3569 76.4305L13.2431 59.7573Z"/>
<path d="M11.735 61.2654L12.1692 60.8311L21.845 74.1486L18.8289 72.189L11.735 61.2654Z"/>
<path d="M10.1968 62.8036L10.6507 62.3497L15.7348 70.1787L13.6863 68.8477L10.1968 62.8036Z"/>
<path d="M8.61489 64.3855L9.0986 63.9018L10.9143 67.0466L9.50388 66.1302L8.61489 64.3855Z"/>
<path d="M10.4334 72.4044L14.6496 76.6207L46.8126 90.9406L10.4334 72.4044Z"/>
<path d="M17.6093 79.5804L20.4552 82.4263L46.1832 92.3023L17.6093 79.5804Z"/>
<path d="M23.0629 85.034L25.0269 86.998L45.5561 93.6683L23.0629 85.034Z"/>
<path d="M27.3632 89.3343L28.7565 90.7276L45.2667 95.1515L27.3632 89.3343Z"/>
<path d="M30.8778 92.8489L31.8508 93.8219L44.7089 96.5549L30.8778 92.8489Z"/>
<path d="M33.7982 95.7693L34.4851 96.4561L44.4687 98.0374L33.7982 95.7693Z"/>
<path d="M36.2895 98.2606L36.7709 98.742L44.3745 99.5412L36.2895 98.2606Z"/>
</svg>
