<svg width="218" height="114" viewBox="0 0 218 114" fill="none" xmlns="http://www.w3.org/2000/svg">
<path d="M5.69543 114H7.6954L7.18145 24.2272C6.24376 26.7967 5.57904 29.516 5.22802 32.3575L5.69543 114Z" fill="currentColor"/>
<path d="M9.1099 114H11.112L15.876 10.7105C15.1439 11.4334 14.441 12.1877 13.7696 12.9716L9.1099 114Z" fill="currentColor"/>
<path d="M12.5639 114H14.5734L25.3923 3.89298C24.6722 4.2536 23.9643 4.6373 23.2697 5.04331L12.5639 114Z" fill="currentColor"/>
<path d="M16.0348 114H18.0574L35.1777 0.600373C34.475 0.731153 33.7777 0.882206 33.0868 1.05299L16.0348 114Z" fill="currentColor"/>
<path d="M19.5939 114H21.6352L44.9333 0.115055C44.2588 0.057852 43.586 0.0196238 42.9155 0L19.5939 114Z" fill="currentColor"/>
<path d="M218 110.647L216.941 114H214.844L218 104.006V110.647Z" fill="currentColor"/>
<path d="M218 86.3532V94.3184L212.895 114H210.829L218 86.3532Z" fill="currentColor"/>
<path d="M218 59.9025V69.8809L208.974 114H206.933L218 59.9025Z" fill="currentColor"/>
<path d="M218 56.8204V57.5157L215.467 59.4443L122.218 114H118.258L216.721 56.3934L218 56.8204Z" fill="currentColor"/>
<path d="M109.441 114L203.594 52.0089L201.181 51.203L105.805 114H109.441Z" fill="currentColor"/>
<path d="M98.6114 114L189.232 47.2121L186.912 46.4374L95.2405 114H98.6114Z" fill="currentColor"/>
<path d="M89.1969 114L175.882 42.7534L173.642 42.0054L86.0472 114H89.1969Z" fill="currentColor"/>
<path d="M80.9478 114L163.416 38.5898L161.245 37.8648L77.9842 114H80.9478Z" fill="currentColor"/>
<path d="M73.6344 114L151.694 34.6749L149.582 33.9696L70.8286 114H73.6344Z" fill="currentColor"/>
<path d="M67.0398 114L140.567 30.9585L138.505 30.27L64.3686 114H67.0398Z" fill="currentColor"/>
<path d="M61.0326 114L129.934 27.4074L127.915 26.733L58.4769 114H61.0326Z" fill="currentColor"/>
<path d="M55.5133 114L119.714 23.9938L117.73 23.3312L53.0568 114H55.5133Z" fill="currentColor"/>
<path d="M50.4284 114L109.854 20.7005L107.898 20.0475L48.0573 114H50.4284Z" fill="currentColor"/>
<path d="M45.6673 114L100.251 17.4935L98.3189 16.8481L43.3697 114H45.6673Z" fill="currentColor"/>
<path d="M41.2022 114L90.8694 14.36L88.9538 13.7202L38.9677 114H41.2022Z" fill="currentColor"/>
<path d="M36.9595 114L81.6279 11.2735L79.7237 10.6375L34.7787 114H36.9595Z" fill="currentColor"/>
<path d="M32.8945 114L72.4686 8.21432L70.5705 7.58039L30.7592 114H32.8945Z" fill="currentColor"/>
<path d="M29.034 114L63.3942 5.18358L61.4971 4.54997L26.9368 114H29.034Z" fill="currentColor"/>
<path d="M25.271 114L54.2857 2.14142L53.5969 1.91138C53.1912 1.77587 52.7852 1.6478 52.379 1.52706L23.2049 114H25.271Z" fill="currentColor"/>
<path d="M133.216 114H137.577L156.242 104.368L156.158 104.432L160.426 114H162.616L157.85 103.316L160.024 101.661L164.779 114H166.922L161.681 100.399L163.945 98.6753L168.958 114H171.062L165.63 97.3925L166.118 97.0205L165.596 97.2899L165.585 97.2563L165.424 97.3785L133.216 114Z" fill="currentColor"/>
<path d="M172.994 114H175.066L169.687 94.134L167.969 95.4417L172.994 114Z" fill="currentColor"/>
<path d="M176.916 114H178.962L173.968 90.8757L172.211 92.2132L176.916 114Z" fill="currentColor"/>
<path d="M180.754 114H182.78L178.469 87.4499L176.665 88.8225L180.754 114Z" fill="currentColor"/>
<path d="M184.522 114H186.534L183.224 83.83L181.367 85.2434L184.522 114Z" fill="currentColor"/>
<path d="M188.245 114H190.248L188.29 79.9746L186.37 81.4354L188.245 114Z" fill="currentColor"/>
<path d="M191.95 114H193.95L193.732 75.8324L191.74 77.3481L191.95 114Z" fill="currentColor"/>
<path d="M195.639 114H197.641L199.608 71.3594L197.533 72.9387L195.639 114Z" fill="currentColor"/>
<path d="M199.359 114H201.368L206.039 66.4643L203.867 68.1176L199.359 114Z" fill="currentColor"/>
<path d="M203.107 114H205.129L213.12 61.075L210.834 62.8144L203.107 114Z" fill="currentColor"/>
<path d="M158.108 114L154.05 106.036L152.432 107.268L155.864 114H158.108Z" fill="currentColor"/>
<path d="M153.351 114L150.372 108.835L148.768 110.057L151.042 114H153.351Z" fill="currentColor"/>
<path d="M148.308 114L146.749 111.594L145.153 112.808L145.925 114H148.308Z" fill="currentColor"/>
<path d="M0.358398 114H0.811201L0.516208 111.311L0.358398 114Z" fill="currentColor"/>
<path d="M2.25348 114L1.31502 97.6989L2.32628 80.4669L4.25678 114H2.25348Z" fill="currentColor"/>
</svg>
