<svg width="16" height="16" viewBox="0 0 16 16" fill="none" xmlns="http://www.w3.org/2000/svg">
<path fill-rule="evenodd" clip-rule="evenodd" d="M8.75 3H14H15.5V4.5V13V14.5H14H2H0.5V13V4.5V3H2H7.25V0.75V0H8.75V0.75V3ZM14 4.5H2V13H14V4.5ZM5 10H5.75H10.25H11V11.5H10.25H5.75H5V10ZM6 7.25C6 7.94036 5.44036 8.5 4.75 8.5C4.05964 8.5 3.5 7.94036 3.5 7.25C3.5 6.55964 4.05964 6 4.75 6C5.44036 6 6 6.55964 6 7.25ZM11.25 8.5C11.9404 8.5 12.5 7.94036 12.5 7.25C12.5 6.55964 11.9404 6 11.25 6C10.5596 6 10 6.55964 10 7.25C10 7.94036 10.5596 8.5 11.25 8.5Z" fill="currentColor"/>
</svg>