<svg xmlns="http://www.w3.org/2000/svg" width="88" height="33" viewBox="-7.937505 -3.811225 68.79171 22.86735"><path d="M9.1054 14.4308a3735.905 3735.905 0 004.6413-.8214l.0436-.0093-2.3874-2.8397c-1.313-1.5618-2.3873-2.8457-2.3873-2.853 0-.014 2.4651-6.8025 2.479-6.8267.0046-.008 1.6822 2.8883 4.0666 7.021 2.2323 3.869 4.0727 7.059 4.0898 7.0889l.0311.0543-7.5871-.001-7.5872-.001 4.5976-.8121zm29.0959-.6868c-1.155-.074-1.8266-.7316-2.0046-1.9626-.0474-.3274-.0476-.336-.0524-2.4617l-.0047-2.0575h1.0223l.004 1.99c.0036 1.7937.0059 2.004.023 2.1301.0696.5121.2082.8565.444 1.1036.1888.1978.4098.3137.7157.3751.1444.029.555.029.6865.0001.3101-.0682.5587-.2032.778-.4224.25-.2498.4348-.6043.5243-1.005l.0301-.1352.0034-2.0069.0033-2.0069h1.0437v6.3098H40.385v-.5005c0-.3401-.0037-.4994-.0116-.4967-.0064.0021-.033.0427-.059.0902-.178.3245-.4745.6214-.7994.8002-.3895.2143-.78.2906-1.3137.2564zm11.7224-.005c-.4077-.0307-.837-.1709-1.1878-.388-.7395-.4573-1.177-1.2113-1.3052-2.249-.0443-.359-.0496-.8414-.0126-1.1465.0826-.6817.3505-1.351.732-1.8288.0978-.1224.3197-.3443.4421-.442a2.7544 2.7544 0 011.1284-.5387c.2393-.0523.6608-.0769.915-.0533.6388.0592 1.2242.3599 1.622.8332.4043.481.6265 1.153.6549 1.9804.0044.1297.0055.357.0024.5052l-.0057.2695-2.237.0028-2.2371.0028v.0999c0 .3039.0738.65.2016.9445.1101.254.2997.5313.455.6655.3183.2752.7078.4399 1.1341.4795.158.0147.561-.0008.741-.0285.514-.079 1.0025-.2805 1.397-.5763a3.4082 3.4082 0 01.0988-.0723c.0115-.0072.0143.0837.014.466l-.0004.4749-.1057.0654c-.4464.276-.9577.4533-1.499.5196-.1617.0198-.7545.0287-.9478.0141zm1.947-4.0055c0-.5091-.2146-1.0746-.5182-1.3658-.2166-.2078-.4785-.3348-.7899-.383-.1473-.0228-.4577-.014-.613.0173-.3283.0664-.5998.2107-.8367.4447-.2492.2463-.4361.5455-.5536.8863-.0423.1226-.0917.3238-.107.4358l-.0074.0533h3.4257zm-30.3454 3.847c.0026-.0078.7623-2.0034 1.6881-4.4348l1.6834-4.4208h1.0817l.0449.115c.1371.3517 3.37 8.745 3.37 8.7494 0 .0028-.259.0052-.5754.0051l-.5754-.0001-.466-1.2405-.466-1.2406h-3.752l-.0164.0421c-.009.0232-.208.5814-.4424 1.2404l-.426 1.1984-.5767.0002c-.4564.0001-.5756-.0028-.5718-.0139zm5.443-3.414c0-.002-.3136-.852-.6969-1.889-.717-1.94-.757-2.0567-.8137-2.3682-.0265-.146-.04-.15-.0558-.0168-.0112.0952-.06.3084-.0978.4266-.0187.0587-.3415.9448-.7174 1.9693-.376 1.0244-.6835 1.8668-.6835 1.8721 0 .0053.6896.0096 1.5325.0096s1.5325-.0016 1.5325-.0035zm2.7731 3.2664v-.1615l1.8692-2.5695 1.8691-2.5695-1.6923-.0057-1.6923-.0056-.003-.4294-.0029-.4295h4.8954v.2901l-1.8693 2.5835c-1.0282 1.421-1.8694 2.586-1.8694 2.5889 0 .0029.8311.0053 1.8469.0053h1.8469v.8645h-5.1983zm13.7162.1541c-.0041-.0041-.0075-1.4289-.0075-3.1661V7.2622h1.0217v.6512c0 .3582.0043.6512.0097.6512.0053 0 .0301-.0586.0552-.1303.1149-.3283.314-.6351.5707-.879.2311-.2196.4953-.351.8071-.4013.0876-.014.1617-.0168.3368-.0122.22.0057.335.0218.4688.0655l.042.0138v1.0605l-.1206-.0604c-.2132-.1067-.4236-.149-.6765-.1358-.1646.0085-.2726.0297-.4042.079a1.2788 1.2788 0 00-.6437.5258c-.2222.3544-.3806.8099-.4273 1.2286-.0084.0751-.0133.687-.0153 1.8933l-.003 1.7824h-.5032c-.2768 0-.5066-.0034-.5107-.0075zM0 13.5648c0-.004 1.1249-1.9567 2.4998-4.3394l2.4998-4.3322 2.9132-2.4447C9.515 1.1039 10.8303.002 10.8356 0c.0052-.002-.0158.051-.0469.1178-.031.0669-1.4545 3.1201-3.1633 6.785l-3.107 6.6635-2.2592.0029C1.0167 13.5708 0 13.5688 0 13.5648z" fill="#0089d6"/></svg>
