<svg width="230" height="230" viewBox="0 0 230 230" fill="none" xmlns="http://www.w3.org/2000/svg">
<g filter="url(#filter0_i_35_16)">
<mask id="mask0_35_16" style="mask-type:alpha" maskUnits="userSpaceOnUse" x="29" y="83" width="112" height="112">
<path d="M138 83.5C139.381 83.5 140.5 84.6193 140.5 86V192C140.5 193.381 139.381 194.5 138 194.5H32C30.6193 194.5 29.5 193.381 29.5 192V86C29.5 84.6193 30.6193 83.5 32 83.5H138Z" fill="black"/>
</mask>
<g mask="url(#mask0_35_16)">
<mask id="mask1_35_16" style="mask-type:alpha" maskUnits="userSpaceOnUse" x="-72" y="24" width="466" height="262">
<rect x="-71.0098" y="24.7678" width="464.386" height="261.217" fill="white"/>
<rect x="-71.0098" y="24.7678" width="464.386" height="261.217" stroke="url(#paint0_radial_35_16)"/>
</mask>
<g mask="url(#mask1_35_16)">
<rect x="-70.5107" y="25.2688" width="463.386" height="260.217" fill="white" stroke="url(#paint1_radial_35_16)"/>
<g filter="url(#filter1_f_35_16)">
<path d="M108.405 203.778C183.95 221.56 251.276 232.164 244.145 262.461C237.014 292.757 169.991 302.902 94.4461 285.12C18.9008 267.339 -30.9317 213.17 -23.8007 182.874C-16.6697 152.578 32.8594 185.996 108.405 203.778Z" fill="#FF764D"/>
<path d="M-23.3139 182.988C-22.4398 179.275 -20.9278 176.584 -18.838 174.717C-16.748 172.851 -14.0368 171.77 -10.6966 171.355C-3.98586 170.52 5.14235 172.38 16.5033 175.775C39.1467 182.544 70.5107 195.373 108.29 204.265C146.094 213.163 181.765 220.249 207.117 228.899C219.795 233.225 229.829 237.923 236.243 243.392C239.445 246.122 241.727 249.028 242.994 252.158C244.259 255.281 244.527 258.654 243.658 262.346C241.917 269.743 236.51 275.96 228.118 280.851C219.724 285.742 208.384 289.281 194.876 291.326C167.864 295.414 132.287 293.513 94.5605 284.633C56.8709 275.762 25.6049 257.816 4.66002 238.324C-5.8129 228.578 -13.6933 218.457 -18.5099 208.905C-23.3298 199.347 -25.0598 190.406 -23.3139 182.988Z" stroke="url(#paint2_radial_35_16)"/>
</g>
<g filter="url(#filter2_f_35_16)">
<path d="M254.078 141.85C326.852 58.6436 382.405 -21.3751 432.286 22.2522C482.167 65.8796 463.609 168.699 390.834 251.906C318.059 335.113 194.73 342.518 144.849 298.891C94.9679 255.264 181.303 225.057 254.078 141.85Z" fill="#FF764D"/>
<path d="M145.178 298.515C132.785 287.676 128.963 277.778 131.127 267.754C133.309 257.65 141.592 247.276 153.814 235.574C166.025 223.882 182.053 210.966 199.622 195.733C217.178 180.512 236.239 163.006 254.454 142.18C290.873 100.541 322.909 59.7895 352.092 34.8689C366.679 22.4122 380.495 13.9651 393.729 11.3233C406.925 8.68917 419.595 11.8166 431.957 22.6289C456.713 44.2814 464.548 80.6807 457.063 122.148C449.581 163.604 426.796 210.029 390.458 251.576C354.158 293.08 305.244 315.683 259.183 322.467C213.102 329.253 169.969 320.197 145.178 298.515Z" stroke="url(#paint3_radial_35_16)"/>
</g>
<g filter="url(#filter3_f_35_16)">
<path d="M109.308 143.863C184.853 161.645 252.179 172.25 245.048 202.546C237.917 232.842 170.895 242.987 95.3494 225.205C19.8041 207.424 -30.0284 153.255 -22.8974 122.959C-15.7663 92.663 33.7627 126.082 109.308 143.863Z" fill="#FF764D"/>
<path d="M-22.4106 123.073C-21.5365 119.36 -20.0245 116.669 -17.9347 114.803C-15.8447 112.936 -13.1335 111.856 -9.79333 111.44C-3.08254 110.605 6.04567 112.465 17.4066 115.861C40.05 122.629 71.414 135.458 109.194 144.351C146.997 153.249 182.668 160.334 208.02 168.984C220.698 173.31 230.732 178.008 237.147 183.477C240.349 186.207 242.63 189.114 243.898 192.243C245.163 195.366 245.431 198.739 244.562 202.431C242.821 209.828 237.413 216.045 229.021 220.936C220.627 225.827 209.287 229.366 195.78 231.411C168.767 235.5 133.19 233.599 95.4638 224.719C57.7742 215.847 26.5082 197.901 5.56334 178.41C-4.90958 168.664 -12.79 158.542 -17.6065 148.99C-22.4265 139.432 -24.1565 130.491 -22.4106 123.073Z" stroke="url(#paint4_radial_35_16)"/>
</g>
<g filter="url(#filter4_f_35_16)">
<path d="M189.127 124.307C264.673 142.088 331.998 152.693 324.867 182.989C317.736 213.286 250.714 223.431 175.169 205.649C99.6234 187.867 49.791 133.699 56.922 103.403C64.053 73.1066 113.582 106.525 189.127 124.307Z" fill="#FF764D"/>
<path d="M57.4088 103.517C58.2828 99.8036 59.7949 97.1128 61.8847 95.2463C63.9747 93.3796 66.6858 92.2991 70.026 91.8835C76.7368 91.0484 85.865 92.9084 97.2259 96.3043C119.869 103.073 151.233 115.902 189.013 124.794C226.817 133.692 262.487 140.778 287.84 149.428C300.518 153.754 310.551 158.452 316.966 163.92C320.168 166.65 322.449 169.557 323.717 172.687C324.982 175.81 325.25 179.183 324.381 182.875C322.64 190.272 317.233 196.489 308.84 201.379C300.447 206.271 289.107 209.81 275.599 211.854C248.586 215.943 213.01 214.042 175.283 205.162C137.594 196.291 106.328 178.344 85.3827 158.853C74.9098 149.107 67.0294 138.985 62.2128 129.434C57.3929 119.876 55.6629 110.934 57.4088 103.517Z" stroke="url(#paint5_radial_35_16)"/>
</g>
<g filter="url(#filter5_f_35_16)">
<path d="M83.5058 356.585C25.7205 456.672 -157.286 500.694 -217.964 465.662C-278.641 430.63 -280.985 321.094 -223.2 221.007C-165.415 120.92 -39.5223 88.8564 21.1549 123.888C81.8321 158.92 141.291 256.498 83.5058 356.585Z" fill="url(#paint6_linear_35_16)"/>
<path d="M20.9053 124.322C51.1431 141.78 81.0991 174.841 96.2847 216.015C111.464 257.172 111.885 306.432 83.0731 356.335C54.2697 406.224 -5.79126 442.197 -66.2953 461.316C-96.5369 470.873 -126.861 476.21 -153.401 476.973C-179.955 477.736 -202.662 473.919 -217.714 465.229C-247.843 447.834 -263.56 411.898 -264.505 367.72C-265.45 323.552 -251.621 271.234 -222.767 221.257C-193.941 171.33 -148.125 138.364 -101.942 122.25C-55.7409 106.13 -9.26253 106.904 20.9053 124.322Z" stroke="url(#paint7_radial_35_16)"/>
</g>
<g filter="url(#filter6_f_35_16)">
<path d="M429.433 37.9192C511.153 119.64 506.309 307.805 456.766 357.347C407.224 406.89 300.814 380.805 219.093 299.084C137.372 217.363 138.984 87.462 188.527 37.9192C238.07 -11.6235 347.712 -43.8016 429.433 37.9192Z" fill="url(#paint8_linear_35_16)"/>
<path d="M188.881 38.2725C213.57 13.5834 253.258 -6.79503 296.959 -10.8065C340.643 -14.8163 388.333 -2.47359 429.079 38.2725C469.813 79.0066 489.015 146.331 491.824 209.722C493.228 241.407 490.534 272.079 484.402 297.912C478.266 323.759 468.703 344.704 456.413 356.994C431.813 381.594 393.034 387.475 350.116 376.954C307.208 366.435 260.253 339.537 219.446 298.73C178.681 257.965 158.696 205.177 155.085 156.398C151.472 107.599 164.249 62.9044 188.881 38.2725Z" stroke="url(#paint9_radial_35_16)"/>
</g>
</g>
<path d="M139.502 86C139.502 85.1703 138.83 84.498 138 84.498H32C31.1703 84.498 30.498 85.1703 30.498 86V192C30.498 192.83 31.1703 193.502 32 193.502H138C138.83 193.502 139.502 192.83 139.502 192V86ZM140.498 192C140.498 193.379 139.379 194.498 138 194.498H32C30.6205 194.498 29.502 193.379 29.502 192V86C29.502 84.6205 30.6205 83.502 32 83.502H138C139.379 83.502 140.498 84.6205 140.498 86V192Z" fill="url(#paint10_radial_35_16)"/>
<path d="M115.41 101.24C116.191 100.459 117.458 100.459 118.239 101.24L122.481 105.482C123.262 106.263 123.262 107.53 122.481 108.311L93.3106 137.481C92.5295 138.262 92.5295 139.528 93.3106 140.309L122.192 169.191C122.973 169.972 122.973 171.239 122.192 172.02L117.95 176.262C117.169 177.043 115.902 177.043 115.121 176.262L86.2393 147.381C85.4582 146.6 84.1919 146.6 83.4108 147.381L54.5995 176.193C53.8184 176.974 52.5514 176.974 51.7704 176.193L47.5282 171.95C46.7473 171.169 46.7472 169.903 47.5282 169.122L76.3396 140.309C77.1206 139.528 77.1206 138.262 76.3396 137.481L47.2391 108.38C46.4581 107.599 46.4581 106.332 47.2391 105.551L51.4813 101.309C52.2623 100.528 53.5293 100.528 54.3104 101.309L83.4109 130.41C84.1919 131.191 85.4582 131.191 86.2393 130.41L115.41 101.24Z" fill="url(#paint11_radial_35_16)"/>
</g>
</g>
<path d="M143 91H149V97H143V91Z" fill="white"/>
<path d="M197 91H203V97H197V91Z" fill="white"/>
<path d="M143 37H149V43H143V37Z" fill="white"/>
<path d="M197 37H203V43H197V37Z" fill="white"/>
<path d="M200.5 39.5V94.5H145.5V39.5H200.5ZM146.5 93.5H199.5V40.5H146.5V93.5Z" fill="white"/>
<g filter="url(#filter7_i_35_16)">
<mask id="mask2_35_16" style="mask-type:alpha" maskUnits="userSpaceOnUse" x="99" y="37" width="42" height="42">
<path d="M120.001 37.5C131.323 37.5 140.502 46.6786 140.502 58.001C140.502 69.3234 131.323 78.502 120.001 78.502C108.679 78.502 99.5 69.3234 99.5 58.001C99.5 46.6786 108.679 37.5 120.001 37.5Z" fill="black"/>
</mask>
<g mask="url(#mask2_35_16)">
<mask id="mask3_35_16" style="mask-type:alpha" maskUnits="userSpaceOnUse" x="57" y="15" width="161" height="91">
<rect x="57.1748" y="15.165" width="160.232" height="90.1303" fill="white"/>
</mask>
<g mask="url(#mask3_35_16)">
<rect x="57.1758" y="15.1648" width="160.232" height="90.1303" fill="white"/>
<g filter="url(#filter8_f_35_16)">
<path d="M119.082 76.932C145.148 83.0674 168.378 86.7264 165.917 97.1798C163.457 107.633 140.332 111.134 114.265 104.998C88.1992 98.8629 71.005 80.1726 73.4655 69.7192C75.926 59.2658 93.0155 70.7966 119.082 76.932Z" fill="#AAAAAA"/>
</g>
<g filter="url(#filter9_f_35_16)">
<path d="M127.013 53.3019C152.123 24.5921 171.291 -3.01751 188.502 12.0357C205.713 27.0889 199.31 62.5657 174.2 91.2754C149.089 119.985 106.536 122.54 89.3251 107.487C72.114 92.434 101.903 82.0116 127.013 53.3019Z" fill="#AAAAAA"/>
</g>
<g filter="url(#filter10_f_35_16)">
<path d="M116.951 85.2356C149.318 105.414 179.645 119.903 167.549 139.306C155.453 158.71 119.408 158.082 87.0411 137.904C54.6741 117.726 45.3238 76.1339 57.4202 56.7305C69.5166 37.327 84.5839 65.0576 116.951 85.2356Z" fill="#AAAAAA"/>
</g>
<g filter="url(#filter11_f_35_16)">
<path d="M87.8805 92.1144C113.947 98.2497 137.177 101.909 134.716 112.362C132.256 122.816 109.13 126.316 83.0642 120.181C56.998 114.045 39.8038 95.355 42.2643 84.9016C44.7248 74.4482 61.8143 85.979 87.8805 92.1144Z" fill="#AAAAAA"/>
</g>
<g filter="url(#filter12_f_35_16)">
<path d="M252.305 56.7271C280.502 84.924 278.831 149.848 261.737 166.943C244.642 184.037 207.927 175.036 179.73 146.839C151.533 118.642 152.089 73.8213 169.183 56.7271C186.278 39.6328 224.108 28.5301 252.305 56.7271Z" fill="url(#paint12_linear_35_16)"/>
</g>
<g filter="url(#filter13_f_35_16)">
<path d="M55.0017 107.804C74.94 142.338 138.085 157.527 159.021 145.44C179.957 133.352 180.766 95.5583 160.827 61.0242C140.889 26.4901 97.4514 15.4269 76.5153 27.5143C55.5792 39.6018 35.0635 73.27 55.0017 107.804Z" fill="url(#paint13_linear_35_16)"/>
</g>
<g filter="url(#filter14_f_35_16)">
<path d="M176.495 59.9454C202.561 66.0808 225.791 69.7399 223.33 80.1932C220.87 90.6466 197.745 94.1471 171.678 88.0117C145.612 81.8763 128.418 63.186 130.879 52.7327C133.339 42.2793 150.429 53.8101 176.495 59.9454Z" fill="#AAAAAA"/>
</g>
</g>
<path d="M139.502 58.001C139.502 47.2309 130.771 38.5 120.001 38.5C109.231 38.5 100.5 47.2309 100.5 58.001C100.5 68.7711 109.231 77.502 120.001 77.502C130.771 77.502 139.502 68.7711 139.502 58.001ZM140.502 58.001C140.502 69.3234 131.323 78.502 120.001 78.502C108.679 78.502 99.5 69.3234 99.5 58.001C99.5 46.6786 108.679 37.5 120.001 37.5C131.323 37.5 140.502 46.6786 140.502 58.001Z" fill="url(#paint14_radial_35_16)"/>
</g>
</g>
<defs>
<filter id="filter0_i_35_16" x="29.5" y="83.5" width="112.135" height="112.135" filterUnits="userSpaceOnUse" color-interpolation-filters="sRGB">
<feFlood flood-opacity="0" result="BackgroundImageFix"/>
<feBlend mode="normal" in="SourceGraphic" in2="BackgroundImageFix" result="shape"/>
<feColorMatrix in="SourceAlpha" type="matrix" values="0 0 0 0 0 0 0 0 0 0 0 0 0 0 0 0 0 0 127 0" result="hardAlpha"/>
<feOffset dx="1.13462" dy="1.13462"/>
<feGaussianBlur stdDeviation="5.67308"/>
<feComposite in2="hardAlpha" operator="arithmetic" k2="-1" k3="1"/>
<feColorMatrix type="matrix" values="0 0 0 0 1 0 0 0 0 1 0 0 0 0 1 0 0 0 0.8 0"/>
<feBlend mode="normal" in2="shape" result="effect1_innerShadow_35_16"/>
</filter>
<filter id="filter1_f_35_16" x="-154.207" y="40.9273" width="528.6" height="382.683" filterUnits="userSpaceOnUse" color-interpolation-filters="sRGB">
<feFlood flood-opacity="0" result="BackgroundImageFix"/>
<feBlend mode="normal" in="SourceGraphic" in2="BackgroundImageFix" result="shape"/>
<feGaussianBlur stdDeviation="64.8645" result="effect1_foregroundBlur_35_16"/>
</filter>
<filter id="filter2_f_35_16" x="35.7064" y="-84.4064" width="518.925" height="503.934" filterUnits="userSpaceOnUse" color-interpolation-filters="sRGB">
<feFlood flood-opacity="0" result="BackgroundImageFix"/>
<feBlend mode="normal" in="SourceGraphic" in2="BackgroundImageFix" result="shape"/>
<feGaussianBlur stdDeviation="47.1742" result="effect1_foregroundBlur_35_16"/>
</filter>
<filter id="filter3_f_35_16" x="-153.304" y="-18.9875" width="528.6" height="382.683" filterUnits="userSpaceOnUse" color-interpolation-filters="sRGB">
<feFlood flood-opacity="0" result="BackgroundImageFix"/>
<feBlend mode="normal" in="SourceGraphic" in2="BackgroundImageFix" result="shape"/>
<feGaussianBlur stdDeviation="64.8645" result="effect1_foregroundBlur_35_16"/>
</filter>
<filter id="filter4_f_35_16" x="-21.5932" y="13.3477" width="424.817" height="278.899" filterUnits="userSpaceOnUse" color-interpolation-filters="sRGB">
<feFlood flood-opacity="0" result="BackgroundImageFix"/>
<feBlend mode="normal" in="SourceGraphic" in2="BackgroundImageFix" result="shape"/>
<feGaussianBlur stdDeviation="38.9187" result="effect1_foregroundBlur_35_16"/>
</filter>
<filter id="filter5_f_35_16" x="-365.051" y="10.1868" width="572.081" height="567.381" filterUnits="userSpaceOnUse" color-interpolation-filters="sRGB">
<feFlood flood-opacity="0" result="BackgroundImageFix"/>
<feBlend mode="normal" in="SourceGraphic" in2="BackgroundImageFix" result="shape"/>
<feGaussianBlur stdDeviation="50" result="effect1_foregroundBlur_35_16"/>
</filter>
<filter id="filter6_f_35_16" x="53.9814" y="-112.023" width="538.706" height="594.464" filterUnits="userSpaceOnUse" color-interpolation-filters="sRGB">
<feFlood flood-opacity="0" result="BackgroundImageFix"/>
<feBlend mode="normal" in="SourceGraphic" in2="BackgroundImageFix" result="shape"/>
<feGaussianBlur stdDeviation="50" result="effect1_foregroundBlur_35_16"/>
</filter>
<filter id="filter7_i_35_16" x="99.5" y="37.5" width="41.3866" height="41.3866" filterUnits="userSpaceOnUse" color-interpolation-filters="sRGB">
<feFlood flood-opacity="0" result="BackgroundImageFix"/>
<feBlend mode="normal" in="SourceGraphic" in2="BackgroundImageFix" result="shape"/>
<feColorMatrix in="SourceAlpha" type="matrix" values="0 0 0 0 0 0 0 0 0 0 0 0 0 0 0 0 0 0 127 0" result="hardAlpha"/>
<feOffset dx="0.384634" dy="0.384634"/>
<feGaussianBlur stdDeviation="1.92317"/>
<feComposite in2="hardAlpha" operator="arithmetic" k2="-1" k3="1"/>
<feColorMatrix type="matrix" values="0 0 0 0 1 0 0 0 0 1 0 0 0 0 1 0 0 0 0.8 0"/>
<feBlend mode="normal" in2="shape" result="effect1_innerShadow_35_16"/>
</filter>
<filter id="filter8_f_35_16" x="31.5044" y="23.7767" width="176.319" height="125.971" filterUnits="userSpaceOnUse" color-interpolation-filters="sRGB">
<feFlood flood-opacity="0" result="BackgroundImageFix"/>
<feBlend mode="normal" in="SourceGraphic" in2="BackgroundImageFix" result="shape"/>
<feGaussianBlur stdDeviation="20.8635" result="effect1_foregroundBlur_35_16"/>
</filter>
<filter id="filter9_f_35_16" x="53.8738" y="-22.5588" width="174.635" height="169.463" filterUnits="userSpaceOnUse" color-interpolation-filters="sRGB">
<feFlood flood-opacity="0" result="BackgroundImageFix"/>
<feBlend mode="normal" in="SourceGraphic" in2="BackgroundImageFix" result="shape"/>
<feGaussianBlur stdDeviation="15.1735" result="effect1_foregroundBlur_35_16"/>
</filter>
<filter id="filter10_f_35_16" x="37.1644" y="34.9752" width="148.276" height="133.656" filterUnits="userSpaceOnUse" color-interpolation-filters="sRGB">
<feFlood flood-opacity="0" result="BackgroundImageFix"/>
<feBlend mode="normal" in="SourceGraphic" in2="BackgroundImageFix" result="shape"/>
<feGaussianBlur stdDeviation="7.58673" result="effect1_foregroundBlur_35_16"/>
</filter>
<filter id="filter11_f_35_16" x="0.303268" y="38.959" width="176.319" height="125.971" filterUnits="userSpaceOnUse" color-interpolation-filters="sRGB">
<feFlood flood-opacity="0" result="BackgroundImageFix"/>
<feBlend mode="normal" in="SourceGraphic" in2="BackgroundImageFix" result="shape"/>
<feGaussianBlur stdDeviation="20.8635" result="effect1_foregroundBlur_35_16"/>
</filter>
<filter id="filter12_f_35_16" x="57.2637" y="-60.5051" width="316.867" height="336.106" filterUnits="userSpaceOnUse" color-interpolation-filters="sRGB">
<feFlood flood-opacity="0" result="BackgroundImageFix"/>
<feBlend mode="normal" in="SourceGraphic" in2="BackgroundImageFix" result="shape"/>
<feGaussianBlur stdDeviation="50" result="effect1_foregroundBlur_35_16"/>
</filter>
<filter id="filter13_f_35_16" x="-53.1152" y="-77.2134" width="328.383" height="326.761" filterUnits="userSpaceOnUse" color-interpolation-filters="sRGB">
<feFlood flood-opacity="0" result="BackgroundImageFix"/>
<feBlend mode="normal" in="SourceGraphic" in2="BackgroundImageFix" result="shape"/>
<feGaussianBlur stdDeviation="50" result="effect1_foregroundBlur_35_16"/>
</filter>
<filter id="filter14_f_35_16" x="105.608" y="23.4809" width="142.938" height="92.5897" filterUnits="userSpaceOnUse" color-interpolation-filters="sRGB">
<feFlood flood-opacity="0" result="BackgroundImageFix"/>
<feBlend mode="normal" in="SourceGraphic" in2="BackgroundImageFix" result="shape"/>
<feGaussianBlur stdDeviation="12.5181" result="effect1_foregroundBlur_35_16"/>
</filter>
<radialGradient id="paint0_radial_35_16" cx="0" cy="0" r="1" gradientUnits="userSpaceOnUse" gradientTransform="translate(161.183 155.376) rotate(90) scale(130.608 232.193)">
<stop stop-color="#FF764D"/>
<stop offset="1" stop-color="#FF764D" stop-opacity="0"/>
</radialGradient>
<radialGradient id="paint1_radial_35_16" cx="0" cy="0" r="1" gradientUnits="userSpaceOnUse" gradientTransform="translate(161.182 155.377) rotate(90) scale(130.608 232.193)">
<stop stop-color="#FF764D"/>
<stop offset="1" stop-color="#FF764D" stop-opacity="0"/>
</radialGradient>
<radialGradient id="paint2_radial_35_16" cx="0" cy="0" r="1" gradientUnits="userSpaceOnUse" gradientTransform="translate(105.661 241.83) rotate(13.245) scale(139.526 44.7078)">
<stop stop-color="#FF764D"/>
<stop offset="1" stop-color="#FF764D" stop-opacity="0"/>
</radialGradient>
<radialGradient id="paint3_radial_35_16" cx="0" cy="0" r="1" gradientUnits="userSpaceOnUse" gradientTransform="translate(320.119 188.167) rotate(-48.8263) scale(198.732 95.1903)">
<stop stop-color="#FF764D"/>
<stop offset="1" stop-color="#FF764D" stop-opacity="0"/>
</radialGradient>
<radialGradient id="paint4_radial_35_16" cx="0" cy="0" r="1" gradientUnits="userSpaceOnUse" gradientTransform="translate(106.565 181.916) rotate(13.245) scale(139.526 44.7078)">
<stop stop-color="#FF764D"/>
<stop offset="1" stop-color="#FF764D" stop-opacity="0"/>
</radialGradient>
<radialGradient id="paint5_radial_35_16" cx="0" cy="0" r="1" gradientUnits="userSpaceOnUse" gradientTransform="translate(186.384 162.359) rotate(13.245) scale(139.526 44.7078)">
<stop stop-color="#FF764D"/>
<stop offset="1" stop-color="#FF764D" stop-opacity="0"/>
</radialGradient>
<linearGradient id="paint6_linear_35_16" x1="27.1098" y1="99.4437" x2="-125.8" y2="242.397" gradientUnits="userSpaceOnUse">
<stop stop-color="#FF764D"/>
<stop offset="1" stop-color="#FF764D" stop-opacity="0"/>
</linearGradient>
<radialGradient id="paint7_radial_35_16" cx="0" cy="0" r="1" gradientUnits="userSpaceOnUse" gradientTransform="translate(-79.5754 305.646) rotate(120) scale(207.772 166.702)">
<stop stop-color="#FF764D"/>
<stop offset="1" stop-color="#FF764D" stop-opacity="0"/>
</radialGradient>
<linearGradient id="paint8_linear_35_16" x1="166.457" y1="25.8404" x2="264.963" y2="210.539" gradientUnits="userSpaceOnUse">
<stop stop-color="white"/>
<stop offset="1" stop-color="white" stop-opacity="0"/>
</linearGradient>
<radialGradient id="paint9_radial_35_16" cx="0" cy="0" r="1" gradientUnits="userSpaceOnUse" gradientTransform="translate(338.021 182.26) rotate(45) scale(207.772 166.702)">
<stop stop-color="#FF764D"/>
<stop offset="1" stop-color="#FF764D" stop-opacity="0"/>
</radialGradient>
<radialGradient id="paint10_radial_35_16" cx="0" cy="0" r="1" gradientTransform="matrix(139.297 59.878 -59.8792 139.286 38.0468 108.526)" gradientUnits="userSpaceOnUse">
<stop stop-color="white"/>
<stop offset="1" stop-color="white" stop-opacity="0"/>
</radialGradient>
<radialGradient id="paint11_radial_35_16" cx="0" cy="0" r="1" gradientTransform="matrix(69.579 -22.6236 22.2992 49.1617 50.6869 144.896)" gradientUnits="userSpaceOnUse">
<stop stop-color="white"/>
<stop offset="1" stop-color="white" stop-opacity="0.5"/>
</radialGradient>
<linearGradient id="paint12_linear_35_16" x1="161.568" y1="52.5594" x2="195.557" y2="116.288" gradientUnits="userSpaceOnUse">
<stop stop-color="white"/>
<stop offset="1" stop-color="white" stop-opacity="0"/>
</linearGradient>
<linearGradient id="paint13_linear_35_16" x1="74.4606" y1="19.0799" x2="127.221" y2="68.4045" gradientUnits="userSpaceOnUse">
<stop stop-color="#AAAAAA"/>
<stop offset="1" stop-color="#AAAAAA" stop-opacity="0"/>
</linearGradient>
<radialGradient id="paint14_radial_35_16" cx="0" cy="0" r="1" gradientTransform="matrix(50.6561 21.7749 -21.7753 50.6519 102.926 46.9189)" gradientUnits="userSpaceOnUse">
<stop stop-color="white"/>
<stop offset="1" stop-color="white" stop-opacity="0"/>
</radialGradient>
</defs>
</svg>
