<svg width="230" height="230" viewBox="0 0 230 230" fill="none" xmlns="http://www.w3.org/2000/svg">
<g filter="url(#filter0_i_35_6)">
<mask id="mask0_35_6" style="mask-type:alpha" maskUnits="userSpaceOnUse" x="77" y="61" width="122" height="122">
<path d="M195.828 61.4995C197.304 61.4996 198.5 62.696 198.5 64.1714V179.828L198.486 180.101C198.359 181.358 197.359 182.358 196.102 182.486L195.828 182.5H80.1719C78.6964 182.499 77.5 181.303 77.5 179.828V64.1714C77.5003 62.6961 78.6966 61.4998 80.1719 61.4995H195.828ZM97.998 80.4976C97.1699 80.4978 96.4983 81.1694 96.498 81.9976V162C96.498 162.828 97.1698 163.499 97.998 163.5H178C178.828 163.5 179.5 162.828 179.5 162V81.9976C179.5 81.1693 178.828 80.4976 178 80.4976H97.998Z" fill="black"/>
</mask>
<g mask="url(#mask0_35_6)">
<mask id="mask1_35_6" style="mask-type:alpha" maskUnits="userSpaceOnUse" x="-109" y="-52" width="509" height="286">
<rect x="-107.77" y="-51.6558" width="506.603" height="284.964" fill="white" stroke="url(#paint0_radial_35_6)" stroke-width="0.515306"/>
</mask>
<g mask="url(#mask1_35_6)">
<rect x="-107.768" y="-51.6541" width="506.603" height="284.964" fill="white" stroke="url(#paint1_radial_35_6)" stroke-width="0.515306"/>
<g filter="url(#filter1_f_35_6)">
<path d="M87.9585 143.629C170.372 163.027 243.818 174.596 236.039 207.647C228.259 240.697 155.144 251.764 72.7309 232.366C-9.68221 212.968 -64.0449 153.875 -56.2656 120.825C-48.4863 87.7744 5.54536 124.231 87.9585 143.629Z" fill="#027BFE"/>
<path d="M87.9585 143.629C170.372 163.027 243.818 174.596 236.039 207.647C228.259 240.697 155.144 251.764 72.7309 232.366C-9.68221 212.968 -64.0449 153.875 -56.2656 120.825C-48.4863 87.7744 5.54536 124.231 87.9585 143.629Z" stroke="url(#paint2_radial_35_6)" stroke-width="0.515306"/>
</g>
<g filter="url(#filter2_f_35_6)">
<path d="M246.875 76.0697C326.266 -14.7015 386.868 -101.995 441.284 -54.4012C495.7 -6.80772 475.454 105.359 396.064 196.13C316.673 286.901 182.133 294.98 127.717 247.387C73.3007 199.793 167.484 166.841 246.875 76.0697Z" fill="#027BFE"/>
<path d="M246.875 76.0697C326.266 -14.7015 386.868 -101.995 441.284 -54.4012C495.7 -6.80772 475.454 105.359 396.064 196.13C316.673 286.901 182.133 294.98 127.717 247.387C73.3007 199.793 167.484 166.841 246.875 76.0697Z" stroke="url(#paint3_radial_35_6)" stroke-width="0.515306"/>
</g>
<g filter="url(#filter3_f_35_6)">
<path d="M88.9428 78.2662C171.356 97.6644 244.802 109.233 237.023 142.283C229.244 175.334 156.128 186.401 73.7153 167.003C-8.69784 147.605 -63.0605 88.512 -55.2812 55.4617C-47.5019 22.4114 6.52974 58.8681 88.9428 78.2662Z" fill="#027BFE"/>
<path d="M88.9428 78.2662C171.356 97.6644 244.802 109.233 237.023 142.283C229.244 175.334 156.128 186.401 73.7153 167.003C-8.69784 147.605 -63.0605 88.512 -55.2812 55.4617C-47.5019 22.4114 6.52974 58.8681 88.9428 78.2662Z" stroke="url(#paint4_radial_35_6)" stroke-width="0.515306"/>
</g>
<g filter="url(#filter4_f_35_6)">
<path d="M176.02 56.9318C258.433 76.3299 331.879 87.8987 324.1 120.949C316.321 153.999 243.205 165.067 160.792 145.669C78.3793 126.27 24.0166 67.1776 31.7959 34.1272C39.5752 1.07689 93.6069 37.5336 176.02 56.9318Z" fill="#027BFE"/>
<path d="M176.02 56.9318C258.433 76.3299 331.879 87.8987 324.1 120.949C316.321 153.999 243.205 165.067 160.792 145.669C78.3793 126.27 24.0166 67.1776 31.7959 34.1272C39.5752 1.07689 93.6069 37.5336 176.02 56.9318Z" stroke="url(#paint5_radial_35_6)" stroke-width="0.515306"/>
</g>
<g filter="url(#filter5_f_35_6)">
<path d="M60.7947 310.325C-2.24379 419.511 -201.888 467.534 -268.081 429.317C-334.274 391.101 -336.832 271.607 -273.793 162.421C-210.755 53.2355 -73.4178 18.257 -7.22446 56.4737C58.9688 94.6905 123.833 201.139 60.7947 310.325Z" fill="url(#paint6_linear_35_6)"/>
<path d="M60.7947 310.325C-2.24379 419.511 -201.888 467.534 -268.081 429.317C-334.274 391.101 -336.832 271.607 -273.793 162.421C-210.755 53.2355 -73.4178 18.257 -7.22446 56.4737C58.9688 94.6905 123.833 201.139 60.7947 310.325Z" stroke="url(#paint7_radial_35_6)" stroke-width="0.515306"/>
</g>
<g filter="url(#filter6_f_35_6)">
<path d="M438.172 -37.3086C527.322 51.8413 522.038 257.112 467.991 311.159C413.944 365.205 297.861 336.748 208.711 247.598C119.561 158.448 121.32 16.738 175.366 -37.3086C229.413 -91.3552 349.022 -126.459 438.172 -37.3086Z" fill="url(#paint8_linear_35_6)"/>
<path d="M438.172 -37.3086C527.322 51.8413 522.038 257.112 467.991 311.159C413.944 365.205 297.861 336.748 208.711 247.598C119.561 158.448 121.32 16.738 175.366 -37.3086C229.413 -91.3552 349.022 -126.459 438.172 -37.3086Z" stroke="url(#paint9_radial_35_6)" stroke-width="0.515306"/>
</g>
</g>
<path d="M197.5 64C197.5 63.1716 196.828 62.5 196 62.5H80C79.1716 62.5 78.5 63.1716 78.5 64V180C78.5 180.828 79.1716 181.5 80 181.5H196C196.828 181.5 197.5 180.828 197.5 180V64ZM198.5 180C198.5 181.381 197.381 182.5 196 182.5H80C78.6193 182.5 77.5 181.381 77.5 180V64C77.5 62.6193 78.6193 61.5 80 61.5H196C197.381 61.5 198.5 62.6193 198.5 64V180Z" fill="url(#paint10_radial_35_6)"/>
<path d="M179.5 82C179.5 81.1716 178.828 80.5 178 80.5H98C97.1716 80.5 96.5 81.1716 96.5 82V162C96.5 162.828 97.1716 163.5 98 163.5H178C178.828 163.5 179.5 162.828 179.5 162V82ZM180.5 162C180.5 163.381 179.381 164.5 178 164.5H98C96.6193 164.5 95.5 163.381 95.5 162V82C95.5 80.6193 96.6193 79.5 98 79.5H178C179.381 79.5 180.5 80.6193 180.5 82V162Z" fill="url(#paint11_radial_35_6)"/>
</g>
</g>
<mask id="mask2_35_6" style="mask-type:alpha" maskUnits="userSpaceOnUse" x="31" y="93" width="42" height="40">
<path d="M70.0793 93.5039C71.4599 93.5041 72.5793 94.6233 72.5793 96.0039V129.051C72.579 130.374 70.9896 131.049 70.0373 130.13L55.0803 115.691V130.648C55.0803 131.972 53.4916 132.647 52.5393 131.729L32.4338 112.321C31.4635 111.384 32.1262 109.743 33.4748 109.742H48.9172L34.7668 96.083C33.7965 95.1461 34.46 93.5042 35.8088 93.5039H70.0793Z" fill="black"/>
</mask>
<g mask="url(#mask2_35_6)">
<mask id="mask3_35_6" style="mask-type:alpha" maskUnits="userSpaceOnUse" x="24" y="84" width="90" height="50">
<rect x="24.4375" y="84.9414" width="88.8015" height="48.2163" fill="white"/>
</mask>
<g mask="url(#mask3_35_6)">
<rect x="24.4375" y="84.9434" width="88.8015" height="48.2163" fill="white"/>
<g filter="url(#filter7_f_35_6)">
<path d="M58.7473 117.985C73.1933 121.267 86.0676 123.224 84.704 128.816C83.3404 134.409 70.5241 136.281 56.0781 132.999C41.632 129.717 32.1029 119.718 33.4665 114.126C34.8301 108.534 44.3012 114.702 58.7473 117.985Z" fill="#AAAAAA"/>
</g>
<g filter="url(#filter8_f_35_6)">
<path d="M63.1435 105.344C77.0597 89.9853 87.6827 75.2151 97.2212 83.268C106.76 91.3209 103.211 110.3 89.2945 125.658C75.3783 141.017 51.7949 142.384 42.2564 134.331C32.7179 126.278 49.2272 120.703 63.1435 105.344Z" fill="#AAAAAA"/>
</g>
<g filter="url(#filter9_f_35_6)">
<path d="M57.5668 122.428C75.5048 133.222 92.3126 140.973 85.6087 151.353C78.9048 161.734 58.9286 161.398 40.9906 150.603C23.0526 139.809 17.8706 117.559 24.5745 107.179C31.2784 96.7984 39.6288 111.633 57.5668 122.428Z" fill="#AAAAAA"/>
</g>
<g filter="url(#filter10_f_35_6)">
<path d="M41.4563 126.11C55.9023 129.392 68.7766 131.349 67.413 136.941C66.0493 142.534 53.2331 144.406 38.787 141.124C24.341 137.842 14.8118 127.843 16.1755 122.251C17.5391 116.659 27.0102 122.827 41.4563 126.11Z" fill="#AAAAAA"/>
</g>
<g filter="url(#filter11_f_35_6)">
<path d="M132.58 107.175C148.207 122.259 147.28 156.991 137.807 166.136C128.333 175.281 107.985 170.466 92.3577 155.381C76.7308 140.297 77.0391 116.319 86.5128 107.175C95.9866 98.0299 116.953 92.0903 132.58 107.175Z" fill="url(#paint12_linear_35_6)"/>
</g>
<g filter="url(#filter12_f_35_6)">
<path d="M23.234 134.501C34.2839 152.975 69.2792 161.101 80.8821 154.635C92.485 148.168 92.9333 127.95 81.8834 109.475C70.8335 91.001 46.7599 85.0826 35.157 91.5489C23.5541 98.0152 12.1841 116.026 23.234 134.501Z" fill="url(#paint13_linear_35_6)"/>
</g>
<g filter="url(#filter13_f_35_6)">
<path d="M90.5637 108.899C105.01 112.181 117.884 114.138 116.52 119.731C115.157 125.323 102.341 127.195 87.8945 123.913C73.4484 120.631 63.9193 110.632 65.2829 105.04C66.6465 99.448 76.1176 105.617 90.5637 108.899Z" fill="#AAAAAA"/>
</g>
</g>
</g>
<path d="M71.5795 96.0039C71.5795 95.1756 70.9078 94.5041 70.0795 94.5039H35.809C35.3594 94.5039 35.1381 95.0509 35.4614 95.3633L49.6118 109.022C50.2588 109.647 49.8166 110.742 48.9174 110.742H33.4751C33.0256 110.742 32.805 111.289 33.1284 111.602L53.2338 131.009C53.5513 131.315 54.0805 131.09 54.0805 130.648V115.691C54.0806 114.809 55.141 114.359 55.7758 114.972L70.7319 129.41C71.0493 129.717 71.5793 129.492 71.5795 129.051V96.0039ZM72.5795 129.051C72.5793 130.374 70.9898 131.049 70.0376 130.13L55.0805 115.691V130.648C55.0805 131.972 53.4919 132.647 52.5395 131.729L32.434 112.321C31.4634 111.384 32.1261 109.742 33.4751 109.742H48.9174L34.767 96.083C33.7963 95.146 34.4599 93.5039 35.809 93.5039H70.0795C71.4601 93.5041 72.5795 94.6233 72.5795 96.0039V129.051Z" fill="url(#paint14_radial_35_6)"/>
<path d="M71.5 48.0078C71.4999 47.1772 70.8239 46.5045 69.9932 46.5078L48.0186 46.5967C47.1925 46.6 46.5244 47.2706 46.5244 48.0967V61.0186C46.5242 61.8511 45.8462 62.5246 45.0137 62.5186L33.9873 62.4365C33.1532 62.4303 32.4737 63.1053 32.4756 63.9395L32.5293 86.0069C32.5313 86.8338 33.2024 87.5038 34.0293 87.5039H56.0068C56.8351 87.5039 57.5066 86.8322 57.5068 86.0039V73.003C57.507 72.1747 58.1786 71.503 59.0068 71.503H70C70.8282 71.5027 71.5 70.8312 71.5 70.003V48.0078ZM72.5 70.003C72.5 71.3835 71.3805 72.5027 70 72.503H59.0068C58.7308 72.503 58.507 72.727 58.5068 73.003V86.0039C58.5066 87.3844 57.3874 88.5039 56.0068 88.5039H34.0293C32.6511 88.5038 31.5328 87.388 31.5293 86.0098L31.4756 63.9424C31.4722 62.5521 32.6039 61.4263 33.9941 61.4365L45.0205 61.5186C45.298 61.5206 45.5242 61.296 45.5244 61.0186V48.0967C45.5244 46.7199 46.6379 45.6022 48.0147 45.5967L69.9893 45.5078C71.3738 45.5023 72.4999 46.6233 72.5 48.0078V70.003Z" fill="white"/>
<defs>
<filter id="filter0_i_35_6" x="77.5" y="61.4995" width="121.846" height="121.846" filterUnits="userSpaceOnUse" color-interpolation-filters="sRGB">
<feFlood flood-opacity="0" result="BackgroundImageFix"/>
<feBlend mode="normal" in="SourceGraphic" in2="BackgroundImageFix" result="shape"/>
<feColorMatrix in="SourceAlpha" type="matrix" values="0 0 0 0 0 0 0 0 0 0 0 0 0 0 0 0 0 0 127 0" result="hardAlpha"/>
<feOffset dx="0.846154" dy="0.846154"/>
<feGaussianBlur stdDeviation="4.23077"/>
<feComposite in2="hardAlpha" operator="arithmetic" k2="-1" k3="1"/>
<feColorMatrix type="matrix" values="0 0 0 0 1 0 0 0 0 1 0 0 0 0 1 0 0 0 0.8 0"/>
<feBlend mode="normal" in2="shape" result="effect1_innerShadow_35_6"/>
</filter>
<filter id="filter1_f_35_6" x="-189.19" y="-24.689" width="557.981" height="398.798" filterUnits="userSpaceOnUse" color-interpolation-filters="sRGB">
<feFlood flood-opacity="0" result="BackgroundImageFix"/>
<feBlend mode="normal" in="SourceGraphic" in2="BackgroundImageFix" result="shape"/>
<feGaussianBlur stdDeviation="65.9639" result="effect1_foregroundBlur_35_6"/>
</filter>
<filter id="filter2_f_35_6" x="15.3719" y="-164.036" width="552.66" height="536.306" filterUnits="userSpaceOnUse" color-interpolation-filters="sRGB">
<feFlood flood-opacity="0" result="BackgroundImageFix"/>
<feBlend mode="normal" in="SourceGraphic" in2="BackgroundImageFix" result="shape"/>
<feGaussianBlur stdDeviation="47.9737" result="effect1_foregroundBlur_35_6"/>
</filter>
<filter id="filter3_f_35_6" x="-188.206" y="-90.052" width="557.981" height="398.798" filterUnits="userSpaceOnUse" color-interpolation-filters="sRGB">
<feFlood flood-opacity="0" result="BackgroundImageFix"/>
<feBlend mode="normal" in="SourceGraphic" in2="BackgroundImageFix" result="shape"/>
<feGaussianBlur stdDeviation="65.9639" result="effect1_foregroundBlur_35_6"/>
</filter>
<filter id="filter4_f_35_6" x="-48.3578" y="-58.6154" width="452.439" height="293.255" filterUnits="userSpaceOnUse" color-interpolation-filters="sRGB">
<feFlood flood-opacity="0" result="BackgroundImageFix"/>
<feBlend mode="normal" in="SourceGraphic" in2="BackgroundImageFix" result="shape"/>
<feGaussianBlur stdDeviation="39.5783" result="effect1_foregroundBlur_35_6"/>
</filter>
<filter id="filter5_f_35_6" x="-419.706" y="-58.7312" width="606.421" height="601.295" filterUnits="userSpaceOnUse" color-interpolation-filters="sRGB">
<feFlood flood-opacity="0" result="BackgroundImageFix"/>
<feBlend mode="normal" in="SourceGraphic" in2="BackgroundImageFix" result="shape"/>
<feGaussianBlur stdDeviation="50" result="effect1_foregroundBlur_35_6"/>
</filter>
<filter id="filter6_f_35_6" x="37.4229" y="-192.049" width="570.013" height="630.84" filterUnits="userSpaceOnUse" color-interpolation-filters="sRGB">
<feFlood flood-opacity="0" result="BackgroundImageFix"/>
<feBlend mode="normal" in="SourceGraphic" in2="BackgroundImageFix" result="shape"/>
<feGaussianBlur stdDeviation="50" result="effect1_foregroundBlur_35_6"/>
</filter>
<filter id="filter7_f_35_6" x="10.8678" y="89.4017" width="96.4051" height="67.6837" filterUnits="userSpaceOnUse" color-interpolation-filters="sRGB">
<feFlood flood-opacity="0" result="BackgroundImageFix"/>
<feBlend mode="normal" in="SourceGraphic" in2="BackgroundImageFix" result="shape"/>
<feGaussianBlur stdDeviation="11.2346" result="effect1_foregroundBlur_35_6"/>
</filter>
<filter id="filter8_f_35_6" x="23.0865" y="64.6547" width="95.8298" height="90.8699" filterUnits="userSpaceOnUse" color-interpolation-filters="sRGB">
<feFlood flood-opacity="0" result="BackgroundImageFix"/>
<feBlend mode="normal" in="SourceGraphic" in2="BackgroundImageFix" result="shape"/>
<feGaussianBlur stdDeviation="8.1706" result="effect1_foregroundBlur_35_6"/>
</filter>
<filter id="filter9_f_35_6" x="13.5872" y="95.4869" width="81.6986" height="71.6078" filterUnits="userSpaceOnUse" color-interpolation-filters="sRGB">
<feFlood flood-opacity="0" result="BackgroundImageFix"/>
<feBlend mode="normal" in="SourceGraphic" in2="BackgroundImageFix" result="shape"/>
<feGaussianBlur stdDeviation="4.0853" result="effect1_foregroundBlur_35_6"/>
</filter>
<filter id="filter10_f_35_6" x="-6.42325" y="97.5267" width="96.4051" height="67.6837" filterUnits="userSpaceOnUse" color-interpolation-filters="sRGB">
<feFlood flood-opacity="0" result="BackgroundImageFix"/>
<feBlend mode="normal" in="SourceGraphic" in2="BackgroundImageFix" result="shape"/>
<feGaussianBlur stdDeviation="11.2346" result="effect1_foregroundBlur_35_6"/>
</filter>
<filter id="filter11_f_35_6" x="-20.0928" y="-2.04395" width="264.769" height="272.812" filterUnits="userSpaceOnUse" color-interpolation-filters="sRGB">
<feFlood flood-opacity="0" result="BackgroundImageFix"/>
<feBlend mode="normal" in="SourceGraphic" in2="BackgroundImageFix" result="shape"/>
<feGaussianBlur stdDeviation="50" result="effect1_foregroundBlur_35_6"/>
</filter>
<filter id="filter12_f_35_6" x="-81.2646" y="-10.9802" width="271.151" height="267.812" filterUnits="userSpaceOnUse" color-interpolation-filters="sRGB">
<feFlood flood-opacity="0" result="BackgroundImageFix"/>
<feBlend mode="normal" in="SourceGraphic" in2="BackgroundImageFix" result="shape"/>
<feGaussianBlur stdDeviation="50" result="effect1_foregroundBlur_35_6"/>
</filter>
<filter id="filter13_f_35_6" x="51.6718" y="89.3034" width="78.4298" height="49.7083" filterUnits="userSpaceOnUse" color-interpolation-filters="sRGB">
<feFlood flood-opacity="0" result="BackgroundImageFix"/>
<feBlend mode="normal" in="SourceGraphic" in2="BackgroundImageFix" result="shape"/>
<feGaussianBlur stdDeviation="6.74074" result="effect1_foregroundBlur_35_6"/>
</filter>
<radialGradient id="paint0_radial_35_6" cx="0" cy="0" r="1" gradientUnits="userSpaceOnUse" gradientTransform="translate(145.532 90.8262) rotate(90) scale(142.482 253.301)">
<stop stop-color="#FF764D"/>
<stop offset="1" stop-color="#FF764D" stop-opacity="0"/>
</radialGradient>
<radialGradient id="paint1_radial_35_6" cx="0" cy="0" r="1" gradientUnits="userSpaceOnUse" gradientTransform="translate(145.534 90.8279) rotate(90) scale(142.482 253.301)">
<stop stop-color="#027BFE"/>
<stop offset="1" stop-color="#027BFE" stop-opacity="0"/>
</radialGradient>
<radialGradient id="paint2_radial_35_6" cx="0" cy="0" r="1" gradientUnits="userSpaceOnUse" gradientTransform="translate(84.9659 185.141) rotate(13.245) scale(152.21 48.7722)">
<stop stop-color="#027BFE"/>
<stop offset="1" stop-color="#027BFE" stop-opacity="0"/>
</radialGradient>
<radialGradient id="paint3_radial_35_6" cx="0" cy="0" r="1" gradientUnits="userSpaceOnUse" gradientTransform="translate(318.92 126.597) rotate(-48.8263) scale(216.798 103.844)">
<stop stop-color="#027BFE"/>
<stop offset="1" stop-color="#027BFE" stop-opacity="0"/>
</radialGradient>
<radialGradient id="paint4_radial_35_6" cx="0" cy="0" r="1" gradientUnits="userSpaceOnUse" gradientTransform="translate(85.9502 119.778) rotate(13.245) scale(152.21 48.7722)">
<stop stop-color="#027BFE"/>
<stop offset="1" stop-color="#027BFE" stop-opacity="0"/>
</radialGradient>
<radialGradient id="paint5_radial_35_6" cx="0" cy="0" r="1" gradientUnits="userSpaceOnUse" gradientTransform="translate(173.027 98.4434) rotate(13.245) scale(152.21 48.7722)">
<stop stop-color="#027BFE"/>
<stop offset="1" stop-color="#027BFE" stop-opacity="0"/>
</radialGradient>
<linearGradient id="paint6_linear_35_6" x1="-0.728115" y1="29.8068" x2="-167.539" y2="185.756" gradientUnits="userSpaceOnUse">
<stop stop-color="#027BFE"/>
<stop offset="1" stop-color="#027BFE" stop-opacity="0"/>
</linearGradient>
<radialGradient id="paint7_radial_35_6" cx="0" cy="0" r="1" gradientUnits="userSpaceOnUse" gradientTransform="translate(-117.112 254.755) rotate(120) scale(226.66 181.857)">
<stop stop-color="#027BFE"/>
<stop offset="1" stop-color="#027BFE" stop-opacity="0"/>
</radialGradient>
<linearGradient id="paint8_linear_35_6" x1="151.289" y1="-50.4855" x2="258.75" y2="151.004" gradientUnits="userSpaceOnUse">
<stop stop-color="white"/>
<stop offset="1" stop-color="white" stop-opacity="0"/>
</linearGradient>
<radialGradient id="paint9_radial_35_6" cx="0" cy="0" r="1" gradientUnits="userSpaceOnUse" gradientTransform="translate(338.45 120.154) rotate(45) scale(226.66 181.857)">
<stop stop-color="#027BFE"/>
<stop offset="1" stop-color="#027BFE" stop-opacity="0"/>
</radialGradient>
<radialGradient id="paint10_radial_35_6" cx="0" cy="0" r="1" gradientTransform="matrix(151.961 65.3215 -65.3227 151.948 86.7783 88.7554)" gradientUnits="userSpaceOnUse">
<stop stop-color="white"/>
<stop offset="1" stop-color="white" stop-opacity="0"/>
</radialGradient>
<radialGradient id="paint11_radial_35_6" cx="0" cy="0" r="1" gradientTransform="matrix(106.373 45.725 -45.7259 106.364 102.145 98.7288)" gradientUnits="userSpaceOnUse">
<stop stop-color="white"/>
<stop offset="1" stop-color="white" stop-opacity="0"/>
</radialGradient>
<linearGradient id="paint12_linear_35_6" x1="82.2924" y1="104.945" x2="100.113" y2="139.561" gradientUnits="userSpaceOnUse">
<stop stop-color="white"/>
<stop offset="1" stop-color="white" stop-opacity="0"/>
</linearGradient>
<linearGradient id="paint13_linear_35_6" x1="34.0183" y1="87.0368" x2="62.2925" y2="114.421" gradientUnits="userSpaceOnUse">
<stop stop-color="#AAAAAA"/>
<stop offset="1" stop-color="#AAAAAA" stop-opacity="0"/>
</linearGradient>
<radialGradient id="paint14_radial_35_6" cx="0" cy="0" r="1" gradientTransform="matrix(50.1414 21.2295 -21.5541 49.3832 35.3802 102.699)" gradientUnits="userSpaceOnUse">
<stop stop-color="white"/>
<stop offset="1" stop-color="white" stop-opacity="0"/>
</radialGradient>
</defs>
</svg>
