<svg width="230" height="230" viewBox="0 0 230 230" fill="none" xmlns="http://www.w3.org/2000/svg">
<g filter="url(#filter0_i_35_26)">
<mask id="mask0_35_26" style="mask-type:alpha" maskUnits="userSpaceOnUse" x="31" y="85" width="54" height="54">
<path d="M67.9971 99.252C69.3778 99.252 70.4971 100.371 70.4971 101.752V136.002C70.4971 137.383 69.3778 138.502 67.9971 138.502H61.998C60.6173 138.502 59.498 137.383 59.498 136.002V101.752C59.498 100.371 60.6173 99.252 61.998 99.252H67.9971ZM39.999 112C41.3797 112 42.499 113.119 42.499 114.5V136C42.499 137.381 41.3797 138.5 39.999 138.5H34C32.6193 138.5 31.5 137.381 31.5 136V114.5C31.5 113.119 32.6193 112 34 112H39.999ZM54.002 85.5C55.3827 85.5 56.502 86.6193 56.502 88V136C56.502 137.381 55.3827 138.5 54.002 138.5H48.0029C46.6222 138.5 45.5029 137.381 45.5029 136V88C45.5029 86.6193 46.6222 85.5 48.0029 85.5H54.002ZM82 91.5C83.3807 91.5 84.5 92.6193 84.5 94V136C84.5 137.381 83.3807 138.5 82 138.5H76C74.6193 138.5 73.5 137.381 73.5 136V94C73.5 92.6193 74.6193 91.5 76 91.5H82Z" fill="black"/>
</mask>
<g mask="url(#mask0_35_26)">
<mask id="mask1_35_26" style="mask-type:alpha" maskUnits="userSpaceOnUse" x="-45" y="43" width="175" height="98">
<rect x="-44.7812" y="43.1001" width="173.794" height="97.7594" fill="white"/>
</mask>
<g mask="url(#mask1_35_26)">
<rect x="-44.7803" y="43.1003" width="173.794" height="97.7594" fill="white"/>
<g filter="url(#filter1_f_35_26)">
<path d="M22.3669 110.095C50.6395 116.75 75.8359 120.719 73.1671 132.057C70.4984 143.395 45.4155 147.192 17.143 140.537C-11.1295 133.883 -29.7791 113.61 -27.1104 102.272C-24.4416 90.9339 -5.90558 103.441 22.3669 110.095Z" fill="#AAAAAA"/>
</g>
<g filter="url(#filter2_f_35_26)">
<path d="M30.9702 84.4653C58.2059 53.3255 78.9961 23.3788 97.664 39.7062C116.332 56.0335 109.386 94.5133 82.1507 125.653C54.915 156.793 8.75974 159.564 -9.90812 143.237C-28.576 126.91 3.73454 115.605 30.9702 84.4653Z" fill="#AAAAAA"/>
</g>
<g filter="url(#filter3_f_35_26)">
<path d="M20.0553 119.103C55.162 140.989 88.0567 156.705 74.9364 177.751C61.8161 198.797 22.7205 198.116 -12.3862 176.23C-47.4928 154.344 -57.6346 109.231 -44.5143 88.1855C-31.394 67.1396 -15.0513 97.2175 20.0553 119.103Z" fill="#AAAAAA"/>
</g>
<g filter="url(#filter4_f_35_26)">
<path d="M-11.4739 126.564C16.7987 133.218 41.9951 137.187 39.3263 148.525C36.6576 159.864 11.5747 163.66 -16.6978 157.006C-44.9704 150.351 -63.6199 130.079 -60.9512 118.74C-58.2824 107.402 -39.7464 119.909 -11.4739 126.564Z" fill="#AAAAAA"/>
</g>
<g filter="url(#filter5_f_35_26)">
<path d="M166.868 88.1824C197.451 118.766 195.639 189.186 177.097 207.727C158.556 226.268 118.733 216.506 88.1491 185.922C57.5654 155.339 58.1688 106.724 76.7099 88.1824C95.2511 69.6412 136.284 57.5987 166.868 88.1824Z" fill="url(#paint0_linear_35_26)"/>
</g>
<g filter="url(#filter6_f_35_26)">
<path d="M-47.1369 143.585C-25.511 181.042 42.9787 197.517 65.6869 184.406C88.395 171.296 89.2724 130.302 67.6465 92.8453C46.0206 55.3881 -1.0941 43.3884 -23.8023 56.499C-46.5105 69.6096 -68.7628 106.128 -47.1369 143.585Z" fill="url(#paint1_linear_35_26)"/>
</g>
<g filter="url(#filter7_f_35_26)">
<path d="M84.6394 91.6718C112.912 98.3265 138.108 102.295 135.44 113.633C132.771 124.972 107.688 128.768 79.4155 122.114C51.1429 115.459 32.4933 95.1867 35.1621 83.8485C37.8308 72.5103 56.3669 85.0171 84.6394 91.6718Z" fill="#AAAAAA"/>
</g>
</g>
</g>
</g>
<path d="M69.4971 101.752C69.4971 100.924 68.8255 100.252 67.9971 100.252H61.998C61.1696 100.252 60.498 100.924 60.498 101.752V136.002C60.498 136.83 61.1696 137.502 61.998 137.502H67.9971C68.8255 137.502 69.4971 136.83 69.4971 136.002V101.752ZM41.499 114.5C41.499 113.672 40.8275 113 39.999 113H34C33.1716 113 32.5 113.672 32.5 114.5V136C32.5 136.828 33.1716 137.5 34 137.5H39.999C40.8275 137.5 41.499 136.828 41.499 136V114.5ZM55.502 88C55.502 87.1716 54.8304 86.5 54.002 86.5H48.0029C47.1745 86.5 46.5029 87.1716 46.5029 88V136C46.5029 136.828 47.1745 137.5 48.0029 137.5H54.002C54.8304 137.5 55.502 136.828 55.502 136V88ZM83.5 94C83.5 93.1716 82.8284 92.5 82 92.5H76C75.1716 92.5 74.5 93.1716 74.5 94V136C74.5 136.828 75.1716 137.5 76 137.5H82C82.8284 137.5 83.5 136.828 83.5 136V94ZM42.499 136C42.499 137.381 41.3797 138.5 39.999 138.5H34C32.6193 138.5 31.5 137.381 31.5 136V114.5C31.5 113.119 32.6193 112 34 112H39.999C41.3797 112 42.499 113.119 42.499 114.5V136ZM70.4971 136.002C70.4971 137.383 69.3778 138.502 67.9971 138.502H61.998C60.6173 138.502 59.498 137.383 59.498 136.002V101.752C59.498 100.371 60.6173 99.252 61.998 99.252H67.9971C69.3778 99.252 70.4971 100.371 70.4971 101.752V136.002ZM84.5 136C84.5 137.381 83.3807 138.5 82 138.5H76C74.6193 138.5 73.5 137.381 73.5 136V94C73.5 92.6193 74.6193 91.5 76 91.5H82C83.3807 91.5 84.5 92.6193 84.5 94V136ZM56.502 136C56.502 137.381 55.3827 138.5 54.002 138.5H48.0029C46.6222 138.5 45.5029 137.381 45.5029 136V88C45.5029 86.6193 46.6222 85.5 48.0029 85.5H54.002C55.3827 85.5 56.502 86.6193 56.502 88V136Z" fill="url(#paint2_radial_35_26)"/>
<g filter="url(#filter8_i_35_26)">
<mask id="mask2_35_26" style="mask-type:alpha" maskUnits="userSpaceOnUse" x="89" y="83" width="112" height="112">
<path d="M198 83.5C199.381 83.5 200.5 84.6193 200.5 86V192C200.5 193.381 199.381 194.5 198 194.5H92C90.6193 194.5 89.5 193.381 89.5 192V86C89.5 84.6193 90.6193 83.5 92 83.5H198Z" fill="black"/>
</mask>
<g mask="url(#mask2_35_26)">
<mask id="mask3_35_26" style="mask-type:alpha" maskUnits="userSpaceOnUse" x="-12" y="24" width="466" height="262">
<rect x="-11.0107" y="24.7686" width="464.386" height="261.217" fill="white"/>
<rect x="-11.0107" y="24.7686" width="464.386" height="261.217" stroke="url(#paint3_radial_35_26)"/>
</mask>
<g mask="url(#mask3_35_26)">
<rect x="-10.5088" y="25.2688" width="463.386" height="260.217" fill="white" stroke="url(#paint4_radial_35_26)"/>
<g filter="url(#filter9_f_35_26)">
<path d="M168.406 203.779C243.951 221.561 311.277 232.165 304.146 262.462C297.015 292.758 229.992 302.903 154.447 285.121C78.9017 267.34 29.0693 213.171 36.2003 182.875C43.3313 152.579 92.8604 185.997 168.406 203.779Z" fill="#FFB433"/>
<path d="M36.6871 182.989C37.5612 179.276 39.0732 176.585 41.163 174.718C43.253 172.852 45.9641 171.771 49.3043 171.356C56.0151 170.521 65.1433 172.381 76.5042 175.776C99.1477 182.545 130.512 195.374 168.291 204.266C206.095 213.164 241.766 220.25 267.118 228.9C279.796 233.226 289.83 237.924 296.244 243.393C299.446 246.123 301.728 249.029 302.995 252.159C304.26 255.282 304.528 258.655 303.659 262.347C301.918 269.744 296.511 275.961 288.119 280.852C279.725 285.743 268.385 289.282 254.877 291.327C227.865 295.415 192.288 293.514 154.561 284.634C116.872 275.763 85.6059 257.817 64.661 238.325C54.1881 228.579 46.3077 218.458 41.4911 208.906C36.6712 199.348 34.9412 190.407 36.6871 182.989Z" stroke="url(#paint5_radial_35_26)"/>
</g>
<g filter="url(#filter10_f_35_26)">
<path d="M314.079 141.851C386.853 58.6446 442.406 -21.3741 492.287 22.2532C542.168 65.8806 523.61 168.7 450.835 251.907C378.06 335.114 254.731 342.519 204.85 298.892C154.969 255.265 241.304 225.058 314.079 141.851Z" fill="#FFB433"/>
<path d="M205.179 298.516C192.786 287.676 188.964 277.779 191.128 267.755C193.31 257.651 201.593 247.277 213.815 235.575C226.026 223.883 242.054 210.967 259.623 195.734C277.179 180.513 296.24 163.007 314.455 142.181C350.874 100.542 382.91 59.7905 412.093 34.8699C426.68 22.4132 440.496 13.9661 453.73 11.3243C466.926 8.69015 479.596 11.8176 491.958 22.6299C516.714 44.2824 524.549 80.6816 517.064 122.149C509.582 163.605 486.797 210.03 450.459 251.577C414.159 293.081 365.245 315.684 319.184 322.468C273.103 329.254 229.97 320.198 205.179 298.516Z" stroke="url(#paint6_radial_35_26)"/>
</g>
<g filter="url(#filter11_f_35_26)">
<path d="M169.309 143.863C244.854 161.645 312.18 172.25 305.049 202.546C297.918 232.842 230.896 242.987 155.35 225.205C79.8051 207.424 29.9726 153.255 37.1036 122.959C44.2346 92.663 93.7637 126.082 169.309 143.863Z" fill="#FFB433"/>
<path d="M37.5904 123.073C38.4645 119.36 39.9765 116.669 42.0663 114.803C44.1563 112.936 46.8675 111.856 50.2076 111.44C56.9184 110.605 66.0466 112.465 77.4076 115.861C100.051 122.629 131.415 135.458 169.195 144.351C206.998 153.249 242.669 160.334 268.021 168.984C280.699 173.31 290.733 178.008 297.148 183.477C300.35 186.207 302.631 189.114 303.899 192.243C305.164 195.366 305.432 198.739 304.563 202.431C302.822 209.828 297.414 216.045 289.022 220.936C280.628 225.827 269.288 229.366 255.781 231.411C228.768 235.5 193.191 233.599 155.465 224.719C117.775 215.847 86.5092 197.901 65.5643 178.41C55.0914 168.664 47.211 158.542 42.3944 148.99C37.5745 139.432 35.8445 130.491 37.5904 123.073Z" stroke="url(#paint7_radial_35_26)"/>
</g>
<g filter="url(#filter12_f_35_26)">
<path d="M249.128 124.307C324.674 142.088 391.999 152.693 384.868 182.989C377.737 213.286 310.715 223.431 235.17 205.649C159.624 187.867 109.792 133.699 116.923 103.403C124.054 73.1066 173.583 106.525 249.128 124.307Z" fill="#FFB433"/>
<path d="M117.41 103.517C118.284 99.8036 119.796 97.1128 121.886 95.2463C123.976 93.3796 126.687 92.2991 130.027 91.8835C136.738 91.0484 145.866 92.9084 157.227 96.3043C179.87 103.073 211.234 115.902 249.014 124.794C286.818 133.692 322.488 140.778 347.841 149.428C360.519 153.754 370.552 158.452 376.967 163.92C380.169 166.65 382.45 169.557 383.718 172.687C384.983 175.81 385.251 179.183 384.382 182.875C382.641 190.272 377.234 196.489 368.841 201.379C360.448 206.271 349.108 209.81 335.6 211.854C308.587 215.943 273.011 214.042 235.284 205.162C197.595 196.291 166.329 178.344 145.384 158.853C134.911 149.107 127.03 138.985 122.214 129.434C117.394 119.876 115.664 110.934 117.41 103.517Z" stroke="url(#paint8_radial_35_26)"/>
</g>
<g filter="url(#filter13_f_35_26)">
<path d="M143.507 356.585C85.7215 456.672 -97.2855 500.693 -157.963 465.661C-218.64 430.629 -220.984 321.094 -163.199 221.006C-105.414 120.919 20.4786 88.8557 81.1558 123.888C141.833 158.92 201.292 256.497 143.507 356.585Z" fill="url(#paint9_linear_35_26)"/>
<path d="M80.9062 124.321C111.144 141.779 141.1 174.84 156.286 216.014C171.465 257.171 171.886 306.431 143.074 356.334C114.271 406.223 54.2097 442.196 -6.2943 461.316C-36.536 470.872 -66.8598 476.209 -93.3997 476.972C-119.954 477.735 -142.661 473.919 -157.713 465.228C-187.842 447.833 -203.559 411.898 -204.504 367.719C-205.449 323.551 -191.62 271.234 -162.766 221.256C-133.94 171.329 -88.1238 138.363 -41.9413 122.25C4.26011 106.129 50.7384 106.904 80.9062 124.321Z" stroke="url(#paint10_radial_35_26)"/>
</g>
<g filter="url(#filter14_f_35_26)">
<path d="M489.436 37.9202C571.157 119.641 566.313 307.806 516.77 357.348C467.228 406.891 360.818 380.806 279.097 299.085C197.376 217.364 198.988 87.4629 248.531 37.9202C298.074 -11.6225 407.716 -43.8006 489.436 37.9202Z" fill="url(#paint11_linear_35_26)"/>
<path d="M248.885 38.2734C273.574 13.5844 313.262 -6.79406 356.963 -10.8056C400.647 -14.8153 448.337 -2.47261 489.083 38.2734C529.817 79.0075 549.019 146.332 551.828 209.723C553.231 241.408 550.538 272.08 544.406 297.913C538.27 323.76 528.707 344.705 516.417 356.995C491.817 381.595 453.038 387.476 410.12 376.955C367.212 366.436 320.257 339.538 279.45 298.731C238.685 257.966 218.7 205.178 215.089 156.399C211.476 107.6 224.253 62.9053 248.885 38.2734Z" stroke="url(#paint12_radial_35_26)"/>
</g>
</g>
<path d="M199.502 86C199.502 85.1703 198.83 84.498 198 84.498H92C91.1703 84.498 90.498 85.1703 90.498 86V192C90.498 192.83 91.1703 193.502 92 193.502H198C198.83 193.502 199.502 192.83 199.502 192V86ZM200.498 192C200.498 193.379 199.379 194.498 198 194.498H92C90.6205 194.498 89.502 193.379 89.502 192V86C89.502 84.6205 90.6205 83.502 92 83.502H198C199.379 83.502 200.498 84.6205 200.498 86V192Z" fill="url(#paint13_radial_35_26)"/>
</g>
</g>
<path d="M126.047 108.958C139.325 95.6807 160.852 95.6806 174.13 108.958C187.408 122.236 187.408 143.764 174.13 157.042C162.474 168.697 144.463 170.12 131.254 161.312C130.429 160.762 129.322 160.837 128.621 161.539L112.656 177.504C111.875 178.285 110.609 178.285 109.828 177.504L105.585 173.261C104.804 172.48 104.804 171.214 105.585 170.432L121.55 154.467C122.251 153.766 122.326 152.659 121.776 151.834C112.969 138.625 114.391 120.613 126.047 108.958ZM168.197 114.414C158.239 104.456 142.093 104.456 132.135 114.414C122.176 124.372 122.176 140.518 132.135 150.477C142.093 160.435 158.239 160.435 168.197 150.477C178.156 140.518 178.155 124.372 168.197 114.414Z" fill="url(#paint14_radial_35_26)"/>
<path d="M71 78H77V84H71V78Z" fill="white"/>
<path d="M74.5 39.5V80.5H33.5V39.5H74.5ZM34.5 79.5H73.5V40.5H34.5V79.5Z" fill="white"/>
<path d="M31 36H37V42H31V36Z" fill="white"/>
<path d="M31 78H37V84H31V78Z" fill="white"/>
<path d="M71 36H77V42H71V36Z" fill="white"/>
<path d="M68.3535 73.6465L67.6465 74.3535L39.6465 46.3535L40.3535 45.6465L68.3535 73.6465Z" fill="white"/>
<path d="M68.3535 46.3535L40.3535 74.3535L39.6465 73.6465L67.6465 45.6465L68.3535 46.3535Z" fill="white"/>
<defs>
<filter id="filter0_i_35_26" x="31.5" y="85.5" width="53.5" height="53.502" filterUnits="userSpaceOnUse" color-interpolation-filters="sRGB">
<feFlood flood-opacity="0" result="BackgroundImageFix"/>
<feBlend mode="normal" in="SourceGraphic" in2="BackgroundImageFix" result="shape"/>
<feColorMatrix in="SourceAlpha" type="matrix" values="0 0 0 0 0 0 0 0 0 0 0 0 0 0 0 0 0 0 127 0" result="hardAlpha"/>
<feOffset dx="0.5" dy="0.5"/>
<feGaussianBlur stdDeviation="2.5"/>
<feComposite in2="hardAlpha" operator="arithmetic" k2="-1" k3="1"/>
<feColorMatrix type="matrix" values="0 0 0 0 1 0 0 0 0 1 0 0 0 0 1 0 0 0 0.8 0"/>
<feBlend mode="normal" in2="shape" result="effect1_innerShadow_35_26"/>
</filter>
<filter id="filter1_f_35_26" x="-72.6232" y="52.4407" width="191.244" height="136.634" filterUnits="userSpaceOnUse" color-interpolation-filters="sRGB">
<feFlood flood-opacity="0" result="BackgroundImageFix"/>
<feBlend mode="normal" in="SourceGraphic" in2="BackgroundImageFix" result="shape"/>
<feGaussianBlur stdDeviation="22.6295" result="effect1_foregroundBlur_35_26"/>
</filter>
<filter id="filter2_f_35_26" x="-48.3609" y="2.1835" width="189.418" height="183.808" filterUnits="userSpaceOnUse" color-interpolation-filters="sRGB">
<feFlood flood-opacity="0" result="BackgroundImageFix"/>
<feBlend mode="normal" in="SourceGraphic" in2="BackgroundImageFix" result="shape"/>
<feGaussianBlur stdDeviation="16.4578" result="effect1_foregroundBlur_35_26"/>
</filter>
<filter id="filter3_f_35_26" x="-66.4842" y="64.5888" width="160.826" height="144.969" filterUnits="userSpaceOnUse" color-interpolation-filters="sRGB">
<feFlood flood-opacity="0" result="BackgroundImageFix"/>
<feBlend mode="normal" in="SourceGraphic" in2="BackgroundImageFix" result="shape"/>
<feGaussianBlur stdDeviation="8.2289" result="effect1_foregroundBlur_35_26"/>
</filter>
<filter id="filter4_f_35_26" x="-106.464" y="68.909" width="191.244" height="136.634" filterUnits="userSpaceOnUse" color-interpolation-filters="sRGB">
<feFlood flood-opacity="0" result="BackgroundImageFix"/>
<feBlend mode="normal" in="SourceGraphic" in2="BackgroundImageFix" result="shape"/>
<feGaussianBlur stdDeviation="22.6295" result="effect1_foregroundBlur_35_26"/>
</filter>
<filter id="filter5_f_35_26" x="-36.2188" y="-30.5083" width="326.76" height="347.626" filterUnits="userSpaceOnUse" color-interpolation-filters="sRGB">
<feFlood flood-opacity="0" result="BackgroundImageFix"/>
<feBlend mode="normal" in="SourceGraphic" in2="BackgroundImageFix" result="shape"/>
<feGaussianBlur stdDeviation="50" result="effect1_foregroundBlur_35_26"/>
</filter>
<filter id="filter6_f_35_26" x="-155.94" y="-48.6289" width="339.249" height="337.491" filterUnits="userSpaceOnUse" color-interpolation-filters="sRGB">
<feFlood flood-opacity="0" result="BackgroundImageFix"/>
<feBlend mode="normal" in="SourceGraphic" in2="BackgroundImageFix" result="shape"/>
<feGaussianBlur stdDeviation="50" result="effect1_foregroundBlur_35_26"/>
</filter>
<filter id="filter7_f_35_26" x="7.75282" y="52.1207" width="155.036" height="100.427" filterUnits="userSpaceOnUse" color-interpolation-filters="sRGB">
<feFlood flood-opacity="0" result="BackgroundImageFix"/>
<feBlend mode="normal" in="SourceGraphic" in2="BackgroundImageFix" result="shape"/>
<feGaussianBlur stdDeviation="13.5777" result="effect1_foregroundBlur_35_26"/>
</filter>
<filter id="filter8_i_35_26" x="89.5" y="83.5" width="112.135" height="112.135" filterUnits="userSpaceOnUse" color-interpolation-filters="sRGB">
<feFlood flood-opacity="0" result="BackgroundImageFix"/>
<feBlend mode="normal" in="SourceGraphic" in2="BackgroundImageFix" result="shape"/>
<feColorMatrix in="SourceAlpha" type="matrix" values="0 0 0 0 0 0 0 0 0 0 0 0 0 0 0 0 0 0 127 0" result="hardAlpha"/>
<feOffset dx="1.13462" dy="1.13462"/>
<feGaussianBlur stdDeviation="5.67308"/>
<feComposite in2="hardAlpha" operator="arithmetic" k2="-1" k3="1"/>
<feColorMatrix type="matrix" values="0 0 0 0 1 0 0 0 0 1 0 0 0 0 1 0 0 0 0.8 0"/>
<feBlend mode="normal" in2="shape" result="effect1_innerShadow_35_26"/>
</filter>
<filter id="filter9_f_35_26" x="-94.2065" y="40.9283" width="528.6" height="382.683" filterUnits="userSpaceOnUse" color-interpolation-filters="sRGB">
<feFlood flood-opacity="0" result="BackgroundImageFix"/>
<feBlend mode="normal" in="SourceGraphic" in2="BackgroundImageFix" result="shape"/>
<feGaussianBlur stdDeviation="64.8645" result="effect1_foregroundBlur_35_26"/>
</filter>
<filter id="filter10_f_35_26" x="95.7073" y="-84.4055" width="518.925" height="503.934" filterUnits="userSpaceOnUse" color-interpolation-filters="sRGB">
<feFlood flood-opacity="0" result="BackgroundImageFix"/>
<feBlend mode="normal" in="SourceGraphic" in2="BackgroundImageFix" result="shape"/>
<feGaussianBlur stdDeviation="47.1742" result="effect1_foregroundBlur_35_26"/>
</filter>
<filter id="filter11_f_35_26" x="-93.3032" y="-18.9875" width="528.6" height="382.683" filterUnits="userSpaceOnUse" color-interpolation-filters="sRGB">
<feFlood flood-opacity="0" result="BackgroundImageFix"/>
<feBlend mode="normal" in="SourceGraphic" in2="BackgroundImageFix" result="shape"/>
<feGaussianBlur stdDeviation="64.8645" result="effect1_foregroundBlur_35_26"/>
</filter>
<filter id="filter12_f_35_26" x="38.4077" y="13.3477" width="424.817" height="278.899" filterUnits="userSpaceOnUse" color-interpolation-filters="sRGB">
<feFlood flood-opacity="0" result="BackgroundImageFix"/>
<feBlend mode="normal" in="SourceGraphic" in2="BackgroundImageFix" result="shape"/>
<feGaussianBlur stdDeviation="38.9187" result="effect1_foregroundBlur_35_26"/>
</filter>
<filter id="filter13_f_35_26" x="-305.05" y="10.186" width="572.081" height="567.381" filterUnits="userSpaceOnUse" color-interpolation-filters="sRGB">
<feFlood flood-opacity="0" result="BackgroundImageFix"/>
<feBlend mode="normal" in="SourceGraphic" in2="BackgroundImageFix" result="shape"/>
<feGaussianBlur stdDeviation="50" result="effect1_foregroundBlur_35_26"/>
</filter>
<filter id="filter14_f_35_26" x="113.985" y="-112.022" width="538.706" height="594.464" filterUnits="userSpaceOnUse" color-interpolation-filters="sRGB">
<feFlood flood-opacity="0" result="BackgroundImageFix"/>
<feBlend mode="normal" in="SourceGraphic" in2="BackgroundImageFix" result="shape"/>
<feGaussianBlur stdDeviation="50" result="effect1_foregroundBlur_35_26"/>
</filter>
<linearGradient id="paint0_linear_35_26" x1="68.4501" y1="83.6619" x2="105.316" y2="152.785" gradientUnits="userSpaceOnUse">
<stop stop-color="white"/>
<stop offset="1" stop-color="white" stop-opacity="0"/>
</linearGradient>
<linearGradient id="paint1_linear_35_26" x1="-26.0309" y1="47.3506" x2="31.1951" y2="100.85" gradientUnits="userSpaceOnUse">
<stop stop-color="#AAAAAA"/>
<stop offset="1" stop-color="#AAAAAA" stop-opacity="0"/>
</linearGradient>
<radialGradient id="paint2_radial_35_26" cx="0" cy="0" r="1" gradientTransform="matrix(65.8497 28.307 -28.3065 65.8467 35.8039 97.5944)" gradientUnits="userSpaceOnUse">
<stop stop-color="white"/>
<stop offset="1" stop-color="white" stop-opacity="0"/>
</radialGradient>
<radialGradient id="paint3_radial_35_26" cx="0" cy="0" r="1" gradientUnits="userSpaceOnUse" gradientTransform="translate(221.182 155.377) rotate(90) scale(130.608 232.193)">
<stop stop-color="#FF764D"/>
<stop offset="1" stop-color="#FF764D" stop-opacity="0"/>
</radialGradient>
<radialGradient id="paint4_radial_35_26" cx="0" cy="0" r="1" gradientUnits="userSpaceOnUse" gradientTransform="translate(221.184 155.377) rotate(90) scale(130.608 232.193)">
<stop stop-color="#FFB433"/>
<stop offset="1" stop-color="#FFB433" stop-opacity="0"/>
</radialGradient>
<radialGradient id="paint5_radial_35_26" cx="0" cy="0" r="1" gradientUnits="userSpaceOnUse" gradientTransform="translate(165.662 241.831) rotate(13.245) scale(139.526 44.7078)">
<stop stop-color="#FFB433"/>
<stop offset="1" stop-color="#FFB433" stop-opacity="0"/>
</radialGradient>
<radialGradient id="paint6_radial_35_26" cx="0" cy="0" r="1" gradientUnits="userSpaceOnUse" gradientTransform="translate(380.12 188.168) rotate(-48.8263) scale(198.732 95.1903)">
<stop stop-color="#FFB433"/>
<stop offset="1" stop-color="#FFB433" stop-opacity="0"/>
</radialGradient>
<radialGradient id="paint7_radial_35_26" cx="0" cy="0" r="1" gradientUnits="userSpaceOnUse" gradientTransform="translate(166.566 181.916) rotate(13.245) scale(139.526 44.7078)">
<stop stop-color="#FFB433"/>
<stop offset="1" stop-color="#FFB433" stop-opacity="0"/>
</radialGradient>
<radialGradient id="paint8_radial_35_26" cx="0" cy="0" r="1" gradientUnits="userSpaceOnUse" gradientTransform="translate(246.385 162.359) rotate(13.245) scale(139.526 44.7078)">
<stop stop-color="#FFB433"/>
<stop offset="1" stop-color="#FFB433" stop-opacity="0"/>
</radialGradient>
<linearGradient id="paint9_linear_35_26" x1="87.1108" y1="99.443" x2="-65.7993" y2="242.396" gradientUnits="userSpaceOnUse">
<stop stop-color="#FFB433"/>
<stop offset="1" stop-color="#FFB433" stop-opacity="0"/>
</linearGradient>
<radialGradient id="paint10_radial_35_26" cx="0" cy="0" r="1" gradientUnits="userSpaceOnUse" gradientTransform="translate(-19.5744 305.645) rotate(120) scale(207.772 166.702)">
<stop stop-color="#FFB433"/>
<stop offset="1" stop-color="#FFB433" stop-opacity="0"/>
</radialGradient>
<linearGradient id="paint11_linear_35_26" x1="226.46" y1="25.8414" x2="324.966" y2="210.54" gradientUnits="userSpaceOnUse">
<stop stop-color="white"/>
<stop offset="1" stop-color="white" stop-opacity="0"/>
</linearGradient>
<radialGradient id="paint12_radial_35_26" cx="0" cy="0" r="1" gradientUnits="userSpaceOnUse" gradientTransform="translate(398.024 182.26) rotate(45) scale(207.772 166.702)">
<stop stop-color="#FFB433"/>
<stop offset="1" stop-color="#FFB433" stop-opacity="0"/>
</radialGradient>
<radialGradient id="paint13_radial_35_26" cx="0" cy="0" r="1" gradientTransform="matrix(139.297 59.878 -59.8792 139.286 98.0468 108.526)" gradientUnits="userSpaceOnUse">
<stop stop-color="white"/>
<stop offset="1" stop-color="white" stop-opacity="0"/>
</radialGradient>
<radialGradient id="paint14_radial_35_26" cx="0" cy="0" r="1" gradientTransform="matrix(25.311 -29.1532 28.8696 23.939 140.329 136.454)" gradientUnits="userSpaceOnUse">
<stop stop-color="white"/>
<stop offset="1" stop-color="white" stop-opacity="0.5"/>
</radialGradient>
</defs>
</svg>
