<svg width="230" height="230" viewBox="0 0 230 230" fill="none" xmlns="http://www.w3.org/2000/svg">
<g filter="url(#filter0_i_35_9)">
<mask id="mask0_35_9" style="mask-type:alpha" maskUnits="userSpaceOnUse" x="33" y="93" width="44" height="44">
<path d="M74.002 93.5C75.3827 93.5 76.502 94.6193 76.502 96V134.002C76.502 135.383 75.3827 136.502 74.002 136.502H36C34.6193 136.502 33.5 135.383 33.5 134.002V96C33.5 94.6193 34.6193 93.5 36 93.5H74.002Z" fill="black"/>
</mask>
<g mask="url(#mask0_35_9)">
<mask id="mask1_35_9" style="mask-type:alpha" maskUnits="userSpaceOnUse" x="-11" y="70" width="169" height="95">
<rect x="-10.9678" y="70.0244" width="168.243" height="94.6366" fill="white"/>
</mask>
<g mask="url(#mask1_35_9)">
<rect x="-10.9678" y="70.0244" width="168.243" height="94.6366" fill="white"/>
<g filter="url(#filter1_f_35_9)">
<path d="M54.0334 134.878C81.4028 141.32 105.794 145.162 103.211 156.138C100.627 167.114 76.3457 170.79 48.9763 164.348C21.6069 157.906 3.55304 138.281 6.13654 127.305C8.72004 116.329 26.664 128.436 54.0334 134.878Z" fill="#AAAAAA"/>
</g>
<g filter="url(#filter2_f_35_9)">
<path d="M62.3618 110.068C88.7274 79.9233 108.854 50.9333 126.925 66.7391C144.997 82.5449 138.273 119.795 111.907 149.941C85.5417 180.086 40.8608 182.769 22.7892 166.963C4.7177 151.157 35.9961 140.214 62.3618 110.068Z" fill="#AAAAAA"/>
</g>
<g filter="url(#filter3_f_35_9)">
<path d="M51.7967 143.598C85.7819 164.785 117.626 179.999 104.925 200.372C92.2234 220.746 54.3767 220.087 20.3914 198.9C-13.5938 177.713 -23.4116 134.042 -10.7104 113.668C1.99078 93.2944 17.8115 122.411 51.7967 143.598Z" fill="#AAAAAA"/>
</g>
<g filter="url(#filter4_f_35_9)">
<path d="M21.2727 150.821C48.6421 157.263 73.0336 161.105 70.4501 172.081C67.8666 183.057 43.585 186.733 16.2156 180.291C-11.1538 173.849 -29.2077 154.224 -26.6242 143.248C-24.0407 132.272 -6.09676 144.379 21.2727 150.821Z" fill="#AAAAAA"/>
</g>
<g filter="url(#filter5_f_35_9)">
<path d="M193.919 113.663C223.526 143.27 221.771 211.44 203.822 229.389C185.873 247.338 147.322 237.888 117.715 208.281C88.1081 178.674 88.6922 131.612 106.641 113.663C124.59 95.7144 164.312 84.0566 193.919 113.663Z" fill="url(#paint0_linear_35_9)"/>
</g>
<g filter="url(#filter6_f_35_9)">
<path d="M-13.2502 167.295C7.68491 203.556 73.9867 219.505 95.9695 206.813C117.952 194.121 118.802 154.437 97.8666 118.177C76.9315 81.9159 31.3218 70.2996 9.33898 82.9914C-12.6438 95.6831 -34.1853 131.035 -13.2502 167.295Z" fill="url(#paint1_linear_35_9)"/>
</g>
<g filter="url(#filter7_f_35_9)">
<path d="M114.317 117.043C141.686 123.485 166.078 127.327 163.494 138.303C160.911 149.279 136.629 152.954 109.26 146.512C81.8901 140.07 63.8362 120.445 66.4197 109.469C69.0032 98.4934 86.9472 110.601 114.317 117.043Z" fill="#AAAAAA"/>
</g>
</g>
<path d="M75.502 96C75.502 95.1716 74.8304 94.5 74.002 94.5H36C35.1716 94.5 34.5 95.1716 34.5 96V134.002C34.5 134.83 35.1716 135.502 36 135.502H74.002C74.8304 135.502 75.502 134.83 75.502 134.002V96ZM76.502 134.002C76.502 135.383 75.3827 136.502 74.002 136.502H36C34.6193 136.502 33.5 135.383 33.5 134.002V96C33.5 94.6193 34.6193 93.5 36 93.5H74.002C75.3827 93.5 76.502 94.6193 76.502 96V134.002Z" fill="url(#paint2_radial_35_9)"/>
</g>
</g>
<path d="M55 87.5C43.6782 87.5 34.5 78.3218 34.5 67C34.5 55.6782 43.6782 46.5 55 46.5C66.3218 46.5 75.5 55.6782 75.5 67C75.5 78.3218 66.3218 87.5 55 87.5ZM54.999 73.9736C51.1473 73.9734 48.0244 70.8508 48.0244 66.999C48.0246 63.1474 51.1474 60.0246 54.999 60.0244C58.8508 60.0244 61.9734 63.1473 61.9736 66.999C61.9736 70.851 58.851 73.9736 54.999 73.9736ZM55 88.5C66.8741 88.5 76.5 78.8741 76.5 67C76.5 55.1259 66.8741 45.5 55 45.5C43.1259 45.5 33.5 55.1259 33.5 67C33.5 78.8741 43.1259 88.5 55 88.5ZM54.999 74.9736C59.4032 74.9736 62.9736 71.4032 62.9736 66.999C62.9734 62.5951 59.4031 59.0244 54.999 59.0244C50.5952 59.0247 47.0246 62.5952 47.0244 66.999C47.0244 71.4031 50.595 74.9734 54.999 74.9736Z" fill="black"/>
<g filter="url(#filter8_i_35_9)">
<mask id="mask2_35_9" style="mask-type:alpha" maskUnits="userSpaceOnUse" x="81" y="66" width="118" height="117">
<path d="M154.196 68.2441C155.006 66.7279 157.069 66.4627 158.236 67.7246L172.993 83.6748C173.482 84.2032 174.277 84.3097 174.888 83.9287L194.677 71.5791C196.342 70.5402 198.5 71.7374 198.5 73.7002V180.001C198.5 181.382 197.381 182.501 196 182.501H84C82.6193 182.501 81.5 181.382 81.5 180.001V117.103C81.5 116.241 81.945 115.439 82.6768 114.982L103.363 102.072C104.173 101.567 105.201 101.567 106.011 102.072L127.237 115.319C127.974 115.779 128.946 115.519 129.355 114.753L154.196 68.2441Z" fill="black"/>
</mask>
<g mask="url(#mask2_35_9)">
<mask id="mask3_35_9" style="mask-type:alpha" maskUnits="userSpaceOnUse" x="44" y="53" width="295" height="167">
<rect x="44.0771" y="53.7307" width="294.462" height="165.635" rx="2" fill="white"/>
</mask>
<g mask="url(#mask3_35_9)">
<rect x="44.0762" y="53.7314" width="294.462" height="165.635" rx="2" fill="white"/>
<g filter="url(#filter9_f_35_9)">
<path d="M155.427 173.768C191.499 214.214 225.747 247.261 209.527 261.727C193.307 276.193 150.916 255.133 114.845 214.687C78.7726 174.241 71.9874 123.294 88.2075 108.828C104.428 94.3623 119.356 133.323 155.427 173.768Z" fill="#FFB433"/>
</g>
<g filter="url(#filter10_f_35_9)">
<path d="M289.997 222.72C329.812 185.954 370.634 160.205 334.308 120.867C297.981 81.5294 236.257 79.4451 196.442 116.212C156.627 152.979 173.59 234.05 209.917 273.388C246.243 312.726 250.182 259.487 289.997 222.72Z" fill="#FFB433"/>
</g>
<g filter="url(#filter11_f_35_9)">
<path d="M158.52 19.1118C200.759 53.0665 241.995 77.5176 216.088 109.745C190.182 141.973 134.939 140.573 92.6997 106.618C50.4609 72.6637 51.6922 3.23702 77.5991 -28.9906C103.506 -61.2183 116.281 -14.8428 158.52 19.1118Z" fill="#FFB433"/>
</g>
<g filter="url(#filter12_f_35_9)">
<path d="M225.944 111.756C264.266 73.435 294.124 36.1758 316.695 58.7465C339.265 81.3172 326.497 130.68 288.176 169.001C249.855 207.322 189.818 207.444 167.247 184.873C144.676 162.303 187.623 150.077 225.944 111.756Z" fill="#FFB433"/>
</g>
<g filter="url(#filter13_f_35_9)">
<path d="M301.919 142.013C263.598 180.334 233.739 217.593 211.169 195.022C188.598 172.452 201.366 123.089 239.687 84.7677C278.009 46.4464 338.045 46.3247 360.616 68.8954C383.187 91.4661 340.24 103.691 301.919 142.013Z" fill="#FFB433"/>
</g>
<g filter="url(#filter14_f_35_9)">
<path d="M278.216 18.0499C241.384 -45.3035 125.258 -72.8676 86.8503 -50.5385C48.4427 -28.2094 47.1653 41.25 83.9972 104.604C120.829 167.957 200.717 188.048 239.124 165.719C277.532 143.39 315.048 81.4034 278.216 18.0499Z" fill="url(#paint3_linear_35_9)"/>
</g>
<g filter="url(#filter15_f_35_9)">
<path d="M232.019 142.571C193.698 180.892 163.84 218.151 141.269 195.581C118.698 173.01 131.467 123.647 169.788 85.326C208.109 47.0048 268.146 46.8831 290.717 69.4538C313.287 92.0245 270.341 104.25 232.019 142.571Z" fill="#FFB433"/>
</g>
<g filter="url(#filter16_f_35_9)">
<path d="M231.968 151.859C180.149 203.678 183.221 322.991 214.636 354.405C246.05 385.82 313.523 369.279 365.342 317.461C417.16 265.643 416.137 183.274 384.723 151.859C353.308 120.445 283.786 100.041 231.968 151.859Z" fill="url(#paint4_linear_35_9)"/>
</g>
<g filter="url(#filter17_f_35_9)">
<path d="M147.63 287.556C110.989 351.02 -5.05369 378.934 -43.5284 356.72C-82.0031 334.507 -83.4896 265.052 -46.8486 201.588C-10.2076 138.123 69.6192 117.792 108.094 140.006C146.569 162.219 184.271 224.092 147.63 287.556Z" fill="url(#paint5_linear_35_9)"/>
</g>
</g>
</g>
</g>
<path d="M197.5 73.6992C197.5 72.5215 196.205 71.8033 195.206 72.4267L175.418 84.7763C174.4 85.4116 173.074 85.2342 172.259 84.3535L157.503 68.4023C156.803 67.6453 155.564 67.8043 155.078 68.7138L130.237 115.224C129.556 116.5 127.936 116.933 126.708 116.167L105.481 102.919C104.996 102.616 104.379 102.616 103.894 102.919L83.2061 115.83C82.767 116.104 82.5 116.585 82.5 117.103V180C82.5 180.828 83.1716 181.5 84 181.5H196C196.828 181.5 197.5 180.828 197.5 180V73.6992ZM198.5 180C198.5 181.381 197.381 182.5 196 182.5H84C82.6193 182.5 81.5 181.381 81.5 180V117.103C81.5 116.24 81.945 115.438 82.6768 114.981L103.363 102.071C104.173 101.566 105.201 101.566 106.011 102.071L127.237 115.318C127.974 115.778 128.946 115.518 129.355 114.752L154.196 68.2431C155.006 66.7269 157.069 66.4618 158.236 67.7236L172.993 83.6738C173.482 84.2022 174.277 84.3088 174.888 83.9277L194.677 71.5781C196.342 70.5393 198.5 71.7365 198.5 73.6992V180Z" fill="url(#paint6_radial_35_9)"/>
<path d="M160.196 167.872C158.965 167.872 158.027 166.771 158.221 165.556L158.603 163.167C158.658 162.826 158.8 162.504 159.016 162.234L181.436 134.174C181.815 133.699 182.39 133.423 182.998 133.423H186.154L185.517 137.269L185.152 139.471C184.995 140.419 184.174 141.115 183.212 141.115V141.115C182.614 141.115 182.049 141.387 181.676 141.855L165.597 161.993C165.562 162.037 165.543 162.091 165.543 162.148V162.148C165.543 162.284 165.654 162.395 165.791 162.395H188.524C189.758 162.395 190.697 163.502 190.497 164.719L190.255 166.196C190.096 167.163 189.261 167.872 188.281 167.872H160.196ZM179.084 176.234C177.85 176.234 176.91 175.126 177.111 173.908L178.378 166.242L178.838 163.921L182.91 137.287L182.955 135.376C182.98 134.29 183.868 133.423 184.954 133.423H187.641C188.877 133.423 189.817 134.531 189.614 135.75L183.171 174.561C183.011 175.526 182.176 176.234 181.198 176.234H179.084Z" fill="url(#paint7_radial_35_9)"/>
<path d="M139.429 176.945C136.126 176.945 133.45 176.081 131.402 174.353C129.353 172.611 127.988 170.088 127.305 166.785C126.622 163.483 126.657 159.504 127.409 154.849C128.176 150.209 129.451 146.244 131.235 142.955C133.032 139.666 135.241 137.158 137.861 135.43C140.495 133.702 143.449 132.838 146.724 132.838C149.985 132.838 152.647 133.709 154.71 135.451C156.772 137.179 158.159 139.68 158.869 142.955C159.594 146.23 159.566 150.195 158.786 154.849C158.005 159.518 156.723 163.497 154.94 166.785C153.156 170.074 150.947 172.59 148.313 174.332C145.679 176.074 142.718 176.945 139.429 176.945ZM140.349 171.363C143.261 171.363 145.77 169.949 147.874 167.12C149.978 164.291 151.476 160.201 152.368 154.849C152.954 151.296 153.072 148.293 152.724 145.84C152.389 143.373 151.63 141.506 150.445 140.238C149.275 138.956 147.728 138.314 145.805 138.314C142.934 138.314 140.439 139.743 138.321 142.6C136.217 145.443 134.726 149.526 133.848 154.849C133.248 158.417 133.116 161.434 133.45 163.901C133.785 166.353 134.537 168.214 135.708 169.482C136.879 170.736 138.426 171.363 140.349 171.363Z" fill="url(#paint8_radial_35_9)"/>
<path d="M94.279 167.872C93.0484 167.872 92.1097 166.771 92.3042 165.556L92.6865 163.167C92.7411 162.826 92.8831 162.504 93.0988 162.234L115.519 134.174C115.898 133.699 116.473 133.423 117.081 133.423H120.237L119.235 139.471C119.078 140.419 118.257 141.115 117.295 141.115V141.115C116.697 141.115 116.132 141.387 115.759 141.855L99.6803 161.993C99.6453 162.037 99.6262 162.091 99.6262 162.148V162.148C99.6262 162.284 99.7371 162.395 99.8739 162.395H122.607C123.841 162.395 124.78 163.502 124.58 164.719L124.338 166.196C124.179 167.163 123.344 167.872 122.364 167.872H94.279ZM113.167 176.234C111.933 176.234 110.993 175.126 111.194 173.908L112.461 166.242L112.921 163.921L117.682 135.097C117.842 134.131 118.677 133.423 119.656 133.423H121.724C122.96 133.423 123.9 134.531 123.697 135.75L117.254 174.561C117.094 175.526 116.259 176.234 115.281 176.234H113.167Z" fill="url(#paint9_radial_35_9)"/>
<defs>
<filter id="filter0_i_35_9" x="33.5" y="93.5" width="43.3866" height="43.3866" filterUnits="userSpaceOnUse" color-interpolation-filters="sRGB">
<feFlood flood-opacity="0" result="BackgroundImageFix"/>
<feBlend mode="normal" in="SourceGraphic" in2="BackgroundImageFix" result="shape"/>
<feColorMatrix in="SourceAlpha" type="matrix" values="0 0 0 0 0 0 0 0 0 0 0 0 0 0 0 0 0 0 127 0" result="hardAlpha"/>
<feOffset dx="0.384634" dy="0.384634"/>
<feGaussianBlur stdDeviation="1.92317"/>
<feComposite in2="hardAlpha" operator="arithmetic" k2="-1" k3="1"/>
<feColorMatrix type="matrix" values="0 0 0 0 1 0 0 0 0 1 0 0 0 0 1 0 0 0 0.8 0"/>
<feBlend mode="normal" in2="shape" result="effect1_innerShadow_35_9"/>
</filter>
<filter id="filter1_f_35_9" x="-35.8354" y="81.1514" width="180.962" height="128.097" filterUnits="userSpaceOnUse" color-interpolation-filters="sRGB">
<feFlood flood-opacity="0" result="BackgroundImageFix"/>
<feBlend mode="normal" in="SourceGraphic" in2="BackgroundImageFix" result="shape"/>
<feGaussianBlur stdDeviation="20.8635" result="effect1_foregroundBlur_35_9"/>
</filter>
<filter id="filter2_f_35_9" x="-12.9172" y="31.9324" width="180.332" height="174.902" filterUnits="userSpaceOnUse" color-interpolation-filters="sRGB">
<feFlood flood-opacity="0" result="BackgroundImageFix"/>
<feBlend mode="normal" in="SourceGraphic" in2="BackgroundImageFix" result="shape"/>
<feGaussianBlur stdDeviation="15.1735" result="effect1_foregroundBlur_35_9"/>
</filter>
<filter id="filter3_f_35_9" x="-31.2203" y="91.5836" width="154.172" height="138.821" filterUnits="userSpaceOnUse" color-interpolation-filters="sRGB">
<feFlood flood-opacity="0" result="BackgroundImageFix"/>
<feBlend mode="normal" in="SourceGraphic" in2="BackgroundImageFix" result="shape"/>
<feGaussianBlur stdDeviation="7.58673" result="effect1_foregroundBlur_35_9"/>
</filter>
<filter id="filter4_f_35_9" x="-68.5961" y="97.0943" width="180.962" height="128.097" filterUnits="userSpaceOnUse" color-interpolation-filters="sRGB">
<feFlood flood-opacity="0" result="BackgroundImageFix"/>
<feBlend mode="normal" in="SourceGraphic" in2="BackgroundImageFix" result="shape"/>
<feGaussianBlur stdDeviation="20.8635" result="effect1_foregroundBlur_35_9"/>
</filter>
<filter id="filter5_f_35_9" x="-5.87402" y="-4.43042" width="322.71" height="342.911" filterUnits="userSpaceOnUse" color-interpolation-filters="sRGB">
<feFlood flood-opacity="0" result="BackgroundImageFix"/>
<feBlend mode="normal" in="SourceGraphic" in2="BackgroundImageFix" result="shape"/>
<feGaussianBlur stdDeviation="50" result="effect1_foregroundBlur_35_9"/>
</filter>
<filter id="filter6_f_35_9" x="-121.772" y="-21.9727" width="334.801" height="333.099" filterUnits="userSpaceOnUse" color-interpolation-filters="sRGB">
<feFlood flood-opacity="0" result="BackgroundImageFix"/>
<feBlend mode="normal" in="SourceGraphic" in2="BackgroundImageFix" result="shape"/>
<feGaussianBlur stdDeviation="50" result="effect1_foregroundBlur_35_9"/>
</filter>
<filter id="filter7_f_35_9" x="41.1386" y="80.0068" width="147.58" height="94.7157" filterUnits="userSpaceOnUse" color-interpolation-filters="sRGB">
<feFlood flood-opacity="0" result="BackgroundImageFix"/>
<feBlend mode="normal" in="SourceGraphic" in2="BackgroundImageFix" result="shape"/>
<feGaussianBlur stdDeviation="12.5181" result="effect1_foregroundBlur_35_9"/>
</filter>
<filter id="filter8_i_35_9" x="81.5" y="66.9219" width="118.115" height="116.694" filterUnits="userSpaceOnUse" color-interpolation-filters="sRGB">
<feFlood flood-opacity="0" result="BackgroundImageFix"/>
<feBlend mode="normal" in="SourceGraphic" in2="BackgroundImageFix" result="shape"/>
<feColorMatrix in="SourceAlpha" type="matrix" values="0 0 0 0 0 0 0 0 0 0 0 0 0 0 0 0 0 0 127 0" result="hardAlpha"/>
<feOffset dx="1.11538" dy="1.11538"/>
<feGaussianBlur stdDeviation="5.57692"/>
<feComposite in2="hardAlpha" operator="arithmetic" k2="-1" k3="1"/>
<feColorMatrix type="matrix" values="0 0 0 0 1 0 0 0 0 1 0 0 0 0 1 0 0 0 0.8 0"/>
<feBlend mode="normal" in2="shape" result="effect1_innerShadow_35_9"/>
</filter>
<filter id="filter9_f_35_9" x="3.20499" y="29.0644" width="287.145" height="313.91" filterUnits="userSpaceOnUse" color-interpolation-filters="sRGB">
<feFlood flood-opacity="0" result="BackgroundImageFix"/>
<feBlend mode="normal" in="SourceGraphic" in2="BackgroundImageFix" result="shape"/>
<feGaussianBlur stdDeviation="38.3414" result="effect1_foregroundBlur_35_9"/>
</filter>
<filter id="filter10_f_35_9" x="127.511" y="43.9347" width="266.898" height="289.313" filterUnits="userSpaceOnUse" color-interpolation-filters="sRGB">
<feFlood flood-opacity="0" result="BackgroundImageFix"/>
<feBlend mode="normal" in="SourceGraphic" in2="BackgroundImageFix" result="shape"/>
<feGaussianBlur stdDeviation="23.0048" result="effect1_foregroundBlur_35_9"/>
</filter>
<filter id="filter11_f_35_9" x="13.3175" y="-85.8807" width="256.837" height="264.919" filterUnits="userSpaceOnUse" color-interpolation-filters="sRGB">
<feFlood flood-opacity="0" result="BackgroundImageFix"/>
<feBlend mode="normal" in="SourceGraphic" in2="BackgroundImageFix" result="shape"/>
<feGaussianBlur stdDeviation="23.0048" result="effect1_foregroundBlur_35_9"/>
</filter>
<filter id="filter12_f_35_9" x="114.986" y="5.88858" width="258.872" height="240.291" filterUnits="userSpaceOnUse" color-interpolation-filters="sRGB">
<feFlood flood-opacity="0" result="BackgroundImageFix"/>
<feBlend mode="normal" in="SourceGraphic" in2="BackgroundImageFix" result="shape"/>
<feGaussianBlur stdDeviation="23.0048" result="effect1_foregroundBlur_35_9"/>
</filter>
<filter id="filter13_f_35_9" x="154.005" y="7.58902" width="258.872" height="240.291" filterUnits="userSpaceOnUse" color-interpolation-filters="sRGB">
<feFlood flood-opacity="0" result="BackgroundImageFix"/>
<feBlend mode="normal" in="SourceGraphic" in2="BackgroundImageFix" result="shape"/>
<feGaussianBlur stdDeviation="23.0048" result="effect1_foregroundBlur_35_9"/>
</filter>
<filter id="filter14_f_35_9" x="-42.8125" y="-158.199" width="436.106" height="432.718" filterUnits="userSpaceOnUse" color-interpolation-filters="sRGB">
<feFlood flood-opacity="0" result="BackgroundImageFix"/>
<feBlend mode="normal" in="SourceGraphic" in2="BackgroundImageFix" result="shape"/>
<feGaussianBlur stdDeviation="50" result="effect1_foregroundBlur_35_9"/>
</filter>
<filter id="filter15_f_35_9" x="84.1056" y="8.14737" width="258.872" height="240.291" filterUnits="userSpaceOnUse" color-interpolation-filters="sRGB">
<feFlood flood-opacity="0" result="BackgroundImageFix"/>
<feBlend mode="normal" in="SourceGraphic" in2="BackgroundImageFix" result="shape"/>
<feGaussianBlur stdDeviation="23.0048" result="effect1_foregroundBlur_35_9"/>
</filter>
<filter id="filter16_f_35_9" x="91.8584" y="20.1914" width="414.77" height="450.125" filterUnits="userSpaceOnUse" color-interpolation-filters="sRGB">
<feFlood flood-opacity="0" result="BackgroundImageFix"/>
<feBlend mode="normal" in="SourceGraphic" in2="BackgroundImageFix" result="shape"/>
<feGaussianBlur stdDeviation="50" result="effect1_foregroundBlur_35_9"/>
</filter>
<filter id="filter17_f_35_9" x="-173.386" y="31.3176" width="435.932" height="432.952" filterUnits="userSpaceOnUse" color-interpolation-filters="sRGB">
<feFlood flood-opacity="0" result="BackgroundImageFix"/>
<feBlend mode="normal" in="SourceGraphic" in2="BackgroundImageFix" result="shape"/>
<feGaussianBlur stdDeviation="50" result="effect1_foregroundBlur_35_9"/>
</filter>
<linearGradient id="paint0_linear_35_9" x1="98.6452" y1="109.287" x2="134.333" y2="176.202" gradientUnits="userSpaceOnUse">
<stop stop-color="white"/>
<stop offset="1" stop-color="white" stop-opacity="0"/>
</linearGradient>
<linearGradient id="paint1_linear_35_9" x1="7.18154" y1="74.1353" x2="62.5796" y2="125.926" gradientUnits="userSpaceOnUse">
<stop stop-color="#AAAAAA"/>
<stop offset="1" stop-color="#AAAAAA" stop-opacity="0"/>
</linearGradient>
<radialGradient id="paint2_radial_35_9" cx="0" cy="0" r="1" gradientTransform="matrix(53.1887 22.8636 -22.864 53.1843 37.0726 103.365)" gradientUnits="userSpaceOnUse">
<stop stop-color="white"/>
<stop offset="1" stop-color="white" stop-opacity="0"/>
</radialGradient>
<linearGradient id="paint3_linear_35_9" x1="242.947" y1="181.207" x2="145.716" y2="90.8547" gradientUnits="userSpaceOnUse">
<stop stop-color="white"/>
<stop offset="1" stop-color="white" stop-opacity="0"/>
</linearGradient>
<linearGradient id="paint4_linear_35_9" x1="412.708" y1="179.845" x2="226.391" y2="366.161" gradientUnits="userSpaceOnUse">
<stop stop-color="white"/>
<stop offset="1" stop-color="white" stop-opacity="0"/>
</linearGradient>
<linearGradient id="paint5_linear_35_9" x1="111.87" y1="124.506" x2="14.9113" y2="215.15" gradientUnits="userSpaceOnUse">
<stop stop-color="#FFB433"/>
<stop offset="1" stop-color="#FFB433" stop-opacity="0"/>
</linearGradient>
<radialGradient id="paint6_radial_35_9" cx="0" cy="0" r="1" gradientTransform="matrix(-108 -53 53.0004 -107.991 204 150.5)" gradientUnits="userSpaceOnUse">
<stop stop-color="white"/>
<stop offset="1" stop-color="white" stop-opacity="0"/>
</radialGradient>
<radialGradient id="paint7_radial_35_9" cx="0" cy="0" r="1" gradientTransform="matrix(11.3852 -25.0126 15.1025 8.82433 170.855 156.166)" gradientUnits="userSpaceOnUse">
<stop stop-color="white"/>
<stop offset="1" stop-color="white" stop-opacity="0.5"/>
</radialGradient>
<radialGradient id="paint8_radial_35_9" cx="0" cy="0" r="1" gradientTransform="matrix(11.2291 -25.7698 14.8955 9.09147 139.644 156.27)" gradientUnits="userSpaceOnUse">
<stop stop-color="white"/>
<stop offset="1" stop-color="white" stop-opacity="0.5"/>
</radialGradient>
<radialGradient id="paint9_radial_35_9" cx="0" cy="0" r="1" gradientTransform="matrix(11.3852 -25.0126 15.1025 8.82433 104.938 156.166)" gradientUnits="userSpaceOnUse">
<stop stop-color="white"/>
<stop offset="1" stop-color="white" stop-opacity="0.5"/>
</radialGradient>
</defs>
</svg>
