<svg width="230" height="230" viewBox="0 0 230 230" fill="none" xmlns="http://www.w3.org/2000/svg">
<path d="M171.96 130.154C171.96 128.306 170.462 126.809 168.614 126.809C166.766 126.809 165.269 128.306 165.269 130.154L165.272 130.326C165.362 132.094 166.824 133.5 168.614 133.5C170.462 133.5 171.96 132.002 171.96 130.154ZM193.497 130.154C193.497 128.306 191.999 126.809 190.151 126.809C188.304 126.809 186.806 128.306 186.806 130.154L186.81 130.326C186.899 132.094 188.361 133.5 190.151 133.5C191.999 133.5 193.497 132.002 193.497 130.154ZM161.191 130.153C161.191 128.305 159.694 126.808 157.846 126.808C155.998 126.808 154.5 128.306 154.5 130.153L154.504 130.325C154.593 132.093 156.056 133.499 157.846 133.499C159.694 133.499 161.191 132.001 161.191 130.153ZM182.729 130.153C182.729 128.305 181.231 126.808 179.383 126.808C177.535 126.808 176.037 128.305 176.037 130.153L176.041 130.325C176.131 132.093 177.593 133.499 179.383 133.499C181.231 133.499 182.728 132.001 182.729 130.153ZM171.96 119.385C171.96 117.537 170.462 116.039 168.614 116.039C166.766 116.039 165.269 117.537 165.269 119.385L165.272 119.557C165.362 121.325 166.824 122.73 168.614 122.73C170.462 122.73 171.96 121.233 171.96 119.385ZM193.497 119.384C193.497 117.594 192.091 116.132 190.323 116.042L190.151 116.038C188.304 116.038 186.806 117.536 186.806 119.384C186.806 121.232 188.304 122.73 190.151 122.73L190.323 122.727C192.091 122.637 193.497 121.174 193.497 119.384ZM161.191 119.384C161.191 117.536 159.694 116.038 157.846 116.038C155.998 116.038 154.5 117.536 154.5 119.384C154.5 121.232 155.998 122.729 157.846 122.729C159.694 122.729 161.191 121.232 161.191 119.384ZM182.729 119.384C182.729 117.536 181.231 116.038 179.383 116.038C177.535 116.038 176.037 117.536 176.037 119.384C176.037 121.232 177.535 122.729 179.383 122.729C181.231 122.729 182.729 121.232 182.729 119.384ZM171.96 108.616C171.96 106.768 170.462 105.27 168.614 105.27C166.767 105.27 165.269 106.768 165.269 108.616L165.272 108.788C165.362 110.556 166.824 111.962 168.614 111.962C170.462 111.962 171.96 110.464 171.96 108.616ZM161.191 108.615C161.191 106.767 159.693 105.269 157.846 105.269C155.998 105.269 154.5 106.767 154.5 108.615L154.504 108.787C154.594 110.555 156.056 111.961 157.846 111.961C159.693 111.961 161.191 110.463 161.191 108.615ZM182.729 108.615C182.729 106.767 181.231 105.269 179.383 105.269C177.535 105.269 176.037 106.767 176.037 108.615L176.041 108.787C176.131 110.555 177.593 111.961 179.383 111.961C181.23 111.961 182.728 110.463 182.729 108.615ZM193.497 108.615C193.497 106.825 192.091 105.362 190.323 105.272L190.151 105.269C188.304 105.269 186.806 106.767 186.806 108.615L186.81 108.787C186.899 110.555 188.361 111.961 190.151 111.961L190.323 111.957C192.091 111.867 193.497 110.405 193.497 108.615ZM182.729 97.8467C182.729 95.9986 181.231 94.5 179.383 94.5C177.535 94.5 176.037 95.9987 176.037 97.8467L176.041 98.0186C176.131 99.7864 177.593 101.192 179.383 101.192C181.231 101.192 182.728 99.6945 182.729 97.8467ZM161.191 97.8457C161.191 95.9979 159.693 94.5 157.846 94.5C155.998 94.5 154.5 95.9979 154.5 97.8457C154.5 99.6936 155.998 101.191 157.846 101.191C159.694 101.191 161.191 99.6936 161.191 97.8457ZM171.96 97.8457C171.96 95.9979 170.462 94.5 168.614 94.5C166.767 94.5001 165.269 95.9979 165.269 97.8457C165.269 99.6935 166.766 101.191 168.614 101.191C170.462 101.191 171.96 99.6936 171.96 97.8457ZM193.497 97.8457C193.497 96.0556 192.091 94.5935 190.323 94.5039L190.151 94.5C188.304 94.5 186.806 95.9979 186.806 97.8457C186.806 99.6936 188.303 101.191 190.151 101.191L190.323 101.188C192.091 101.098 193.497 99.6358 193.497 97.8457ZM172.96 130.154C172.96 132.554 171.014 134.5 168.614 134.5C166.214 134.5 164.269 132.554 164.269 130.154C164.269 127.754 166.214 125.809 168.614 125.809C171.014 125.809 172.96 127.754 172.96 130.154ZM194.497 130.154C194.497 132.554 192.551 134.5 190.151 134.5C187.751 134.5 185.806 132.554 185.806 130.154C185.806 127.754 187.751 125.809 190.151 125.809C192.552 125.809 194.497 127.754 194.497 130.154ZM162.191 130.153C162.191 132.553 160.246 134.499 157.846 134.499C155.446 134.499 153.5 132.553 153.5 130.153C153.5 127.753 155.446 125.808 157.846 125.808C160.246 125.808 162.191 127.753 162.191 130.153ZM183.729 130.153C183.728 132.553 181.783 134.499 179.383 134.499C176.983 134.499 175.037 132.553 175.037 130.153C175.037 127.753 176.983 125.808 179.383 125.808C181.783 125.808 183.729 127.753 183.729 130.153ZM172.96 119.385C172.96 121.785 171.014 123.73 168.614 123.73C166.214 123.73 164.269 121.785 164.269 119.385C164.269 116.985 166.214 115.039 168.614 115.039C171.014 115.039 172.96 116.985 172.96 119.385ZM162.191 119.384C162.191 121.784 160.246 123.729 157.846 123.729C155.446 123.729 153.5 121.784 153.5 119.384C153.5 116.984 155.446 115.038 157.846 115.038C160.246 115.038 162.191 116.984 162.191 119.384ZM183.729 119.384C183.729 121.784 181.783 123.729 179.383 123.729C176.983 123.729 175.037 121.784 175.037 119.384C175.037 116.984 176.983 115.038 179.383 115.038C181.783 115.038 183.729 116.984 183.729 119.384ZM194.497 119.384C194.497 121.784 192.552 123.73 190.151 123.73C187.751 123.73 185.806 121.784 185.806 119.384C185.806 116.984 187.751 115.038 190.151 115.038C192.551 115.038 194.497 116.984 194.497 119.384ZM172.96 108.616C172.96 111.016 171.014 112.962 168.614 112.962C166.214 112.962 164.269 111.016 164.269 108.616C164.269 106.216 166.214 104.27 168.614 104.27C171.015 104.27 172.96 106.216 172.96 108.616ZM162.191 108.615C162.191 111.015 160.246 112.961 157.846 112.961C155.446 112.961 153.5 111.015 153.5 108.615C153.5 106.215 155.445 104.269 157.846 104.269C160.246 104.269 162.191 106.215 162.191 108.615ZM183.729 108.615C183.728 111.015 181.783 112.961 179.383 112.961C176.983 112.961 175.037 111.015 175.037 108.615C175.037 106.215 176.983 104.269 179.383 104.269C181.783 104.269 183.729 106.215 183.729 108.615ZM194.497 108.615C194.497 111.015 192.551 112.961 190.151 112.961C187.751 112.961 185.806 111.015 185.806 108.615C185.806 106.215 187.751 104.269 190.151 104.269C192.552 104.269 194.497 106.215 194.497 108.615ZM183.729 97.8467C183.728 100.247 181.783 102.192 179.383 102.192C176.983 102.192 175.037 100.247 175.037 97.8467C175.037 95.4467 176.983 93.5 179.383 93.5C181.783 93.5 183.729 95.4467 183.729 97.8467ZM162.191 97.8457C162.191 100.246 160.246 102.191 157.846 102.191C155.446 102.191 153.5 100.246 153.5 97.8457C153.5 95.4457 155.446 93.5 157.846 93.5C160.246 93.5 162.191 95.4457 162.191 97.8457ZM172.96 97.8457C172.96 100.246 171.014 102.191 168.614 102.191C166.214 102.191 164.269 100.246 164.269 97.8457C164.269 95.4457 166.214 93.5001 168.614 93.5C171.014 93.5 172.96 95.4457 172.96 97.8457ZM194.497 97.8457C194.497 100.246 192.551 102.191 190.151 102.191C187.751 102.191 185.806 100.246 185.806 97.8457C185.806 95.4457 187.751 93.5 190.151 93.5C192.551 93.5001 194.497 95.4457 194.497 97.8457Z" fill="black"/>
<mask id="mask0_35_21" style="mask-type:alpha" maskUnits="userSpaceOnUse" x="152" y="141" width="44" height="42">
<path d="M194.431 141.5C195.023 141.5 195.517 141.984 195.499 142.593C195.274 150.342 190.746 157.03 184.178 160.473C184.163 160.48 184.141 160.498 184.124 160.548C184.105 160.603 184.098 160.682 184.115 160.768C184.132 160.854 184.166 160.914 184.195 160.945C184.217 160.969 184.228 160.969 184.236 160.969H194.868C195.168 160.969 195.431 161.21 195.431 161.53C195.431 172.94 186.107 182.204 174.52 182.491L173.966 182.498C162.122 182.498 152.5 173.122 152.5 161.53C152.5 161.21 152.764 160.969 153.063 160.969H163.851C163.859 160.969 163.87 160.969 163.892 160.945C163.92 160.914 163.955 160.853 163.972 160.768C163.988 160.682 163.982 160.603 163.963 160.548C163.946 160.498 163.924 160.48 163.909 160.473C157.341 157.03 152.812 150.342 152.587 142.593C152.569 141.984 153.063 141.5 153.655 141.5H194.431Z" fill="black"/>
</mask>
<g mask="url(#mask0_35_21)">
<mask id="mask1_35_21" style="mask-type:alpha" maskUnits="userSpaceOnUse" x="144" y="131" width="105" height="58">
<rect x="144.382" y="131.285" width="103.897" height="56.9997" fill="white"/>
</mask>
<g mask="url(#mask1_35_21)">
<rect x="144.382" y="131.284" width="103.897" height="56.9997" fill="white"/>
<g filter="url(#filter0_f_35_21)">
<path d="M184.522 170.346C201.423 174.226 216.486 176.54 214.891 183.151C213.295 189.762 198.3 191.976 181.399 188.096C164.497 184.215 153.348 172.395 154.943 165.785C156.539 159.174 167.62 166.466 184.522 170.346Z" fill="#AAAAAA"/>
</g>
<g filter="url(#filter1_f_35_21)">
<path d="M189.667 155.403C205.948 137.247 218.377 119.786 229.537 129.306C240.697 138.826 236.545 161.262 220.263 179.418C203.981 197.575 176.389 199.191 165.229 189.671C154.069 180.151 173.385 173.56 189.667 155.403Z" fill="#AAAAAA"/>
</g>
<g filter="url(#filter2_f_35_21)">
<path d="M183.142 175.599C204.129 188.36 223.794 197.523 215.95 209.794C208.107 222.065 184.735 221.668 163.748 208.907C142.76 196.146 136.698 169.843 144.541 157.572C152.385 145.301 162.154 162.838 183.142 175.599Z" fill="#AAAAAA"/>
</g>
<g filter="url(#filter3_f_35_21)">
<path d="M164.292 179.948C181.194 183.828 196.257 186.142 194.661 192.753C193.066 199.364 178.071 201.577 161.169 197.697C144.268 193.817 133.119 181.997 134.714 175.386C136.309 168.775 147.39 176.068 164.292 179.948Z" fill="#AAAAAA"/>
</g>
<g filter="url(#filter4_f_35_21)">
<path d="M270.907 157.569C289.191 175.401 288.107 216.46 277.023 227.271C265.939 238.082 242.132 232.39 223.848 214.558C205.565 196.725 205.926 168.38 217.01 157.569C228.094 146.759 252.624 139.737 270.907 157.569Z" fill="url(#paint0_linear_35_21)"/>
</g>
<g filter="url(#filter5_f_35_21)">
<path d="M142.973 189.872C155.901 211.712 196.845 221.318 210.42 213.674C223.995 206.03 224.52 182.128 211.592 160.288C198.663 138.448 170.498 131.452 156.922 139.096C143.347 146.74 130.044 168.033 142.973 189.872Z" fill="url(#paint1_linear_35_21)"/>
</g>
<g filter="url(#filter6_f_35_21)">
<path d="M221.75 159.605C238.652 163.485 253.715 165.799 252.119 172.41C250.524 179.021 235.529 181.234 218.627 177.354C201.726 173.474 190.577 161.654 192.172 155.043C193.767 148.433 204.848 155.725 221.75 159.605Z" fill="#AAAAAA"/>
</g>
</g>
</g>
<path d="M153.654 142.501C153.609 142.501 153.585 142.536 153.586 142.564C153.8 149.931 158.105 156.303 164.373 159.588C164.938 159.884 165.039 160.523 164.952 160.962C164.866 161.399 164.521 161.97 163.85 161.97H153.506C153.745 172.784 162.802 181.499 173.965 181.499L174.493 181.492C185.412 181.222 194.189 172.613 194.424 161.97H184.235C183.564 161.97 183.219 161.399 183.133 160.962C183.046 160.523 183.147 159.884 183.712 159.588C189.98 156.303 194.284 149.931 194.498 142.564C194.499 142.536 194.475 142.501 194.43 142.501H153.654ZM195.43 161.531C195.43 172.941 186.106 182.205 174.519 182.492L173.965 182.499C162.122 182.499 152.5 173.123 152.5 161.531C152.5 161.211 152.763 160.97 153.062 160.97H163.85C163.858 160.97 163.868 160.97 163.891 160.946C163.92 160.915 163.954 160.855 163.971 160.769C163.988 160.683 163.981 160.604 163.962 160.549C163.944 160.498 163.923 160.481 163.908 160.474C157.34 157.031 152.811 150.343 152.586 142.594C152.568 141.985 153.062 141.501 153.654 141.501H194.43C195.022 141.501 195.516 141.985 195.498 142.594C195.273 150.343 190.745 157.031 184.177 160.474C184.162 160.481 184.141 160.498 184.123 160.549C184.104 160.604 184.097 160.683 184.114 160.769C184.131 160.855 184.165 160.915 184.194 160.946C184.217 160.97 184.227 160.97 184.235 160.97H194.867C195.167 160.97 195.43 161.211 195.43 161.531Z" fill="url(#paint2_radial_35_21)"/>
<mask id="mask2_35_21" style="mask-type:alpha" maskUnits="userSpaceOnUse" x="29" y="47" width="120" height="120">
<path d="M89 47.5C121.861 47.5002 148.499 74.1393 148.499 107C148.499 139.861 121.861 166.499 89 166.499C56.1393 166.499 29.5002 139.861 29.5 107C29.5 74.1392 56.1392 47.5 89 47.5Z" fill="black"/>
</mask>
<g mask="url(#mask2_35_21)">
<mask id="mask3_35_21" style="mask-type:alpha" maskUnits="userSpaceOnUse" x="-164" y="-69" width="708" height="399">
<rect x="-163.45" y="-68.2969" width="706.986" height="397.679" fill="white"/>
</mask>
<g mask="url(#mask3_35_21)">
<rect x="-275.133" y="-51.7312" width="543.854" height="305.918" fill="white"/>
<g filter="url(#filter7_f_35_21)">
<path d="M-69.4701 169.968C-2.8473 244.669 60.4071 305.706 30.4496 332.424C0.492114 359.142 -77.8016 320.244 -144.424 245.543C-211.047 170.842 -223.579 76.7455 -193.621 50.0277C-163.664 23.3098 -136.093 95.2672 -69.4701 169.968Z" fill="#FFB433"/>
</g>
<g filter="url(#filter8_f_35_21)">
<path d="M-104.188 81.1552C-30.6522 13.2488 44.7446 -34.3066 -22.3483 -106.962C-89.4412 -179.617 -203.443 -183.466 -276.979 -115.56C-350.515 -47.6533 -319.185 102.081 -252.092 174.736C-184.999 247.391 -177.724 149.062 -104.188 81.1552Z" fill="#FFB433"/>
</g>
<g filter="url(#filter9_f_35_21)">
<path d="M179.069 260.38C252.605 192.473 328.001 144.918 260.909 72.2628C193.816 -0.392232 79.8135 -4.24179 6.2775 63.6646C-67.2585 131.571 -35.9278 281.305 31.165 353.96C98.2579 426.615 105.533 328.286 179.069 260.38Z" fill="#FFB433"/>
</g>
<g filter="url(#filter10_f_35_21)">
<path d="M-82.1683 -67.9076C-152.945 2.86962 -208.092 71.6852 -249.779 29.9983C-291.466 -11.6885 -267.883 -102.859 -197.106 -173.636C-126.329 -244.413 -15.4446 -244.638 26.2423 -202.951C67.9291 -161.264 -11.3911 -138.685 -82.1683 -67.9076Z" fill="#FFB433"/>
</g>
<g filter="url(#filter11_f_35_21)">
<path d="M60.7679 55.4344C131.545 -15.3428 186.692 -84.1583 228.378 -42.4715C270.065 -0.784669 246.483 90.3854 175.706 161.163C104.929 231.94 -5.95584 232.165 -47.6427 190.478C-89.3295 148.791 -10.0093 126.212 60.7679 55.4344Z" fill="#FFB433"/>
</g>
<g filter="url(#filter12_f_35_21)">
<path d="M201.089 111.317C130.311 182.094 75.1648 250.91 33.4779 209.223C-8.20889 167.536 15.3734 76.3658 86.1506 5.58864C156.928 -65.1885 267.812 -65.4133 309.499 -23.7265C351.186 17.9604 271.866 40.5396 201.089 111.317Z" fill="#FFB433"/>
</g>
<g filter="url(#filter13_f_35_21)">
<path d="M210.81 20.0955C306.515 115.801 300.842 336.165 242.821 394.186C184.801 452.207 60.1812 421.658 -35.5241 325.952C-131.229 230.247 -129.341 78.1163 -71.3204 20.0956C-13.2997 -37.9252 115.105 -75.6097 210.81 20.0955Z" fill="url(#paint3_linear_35_21)"/>
</g>
<g filter="url(#filter14_f_35_21)">
<path d="M53.2214 267.881C-17.5558 338.658 -72.7024 407.473 -114.389 365.786C-156.076 324.1 -132.494 232.93 -61.7166 162.152C9.06061 91.3752 119.945 91.1504 161.632 132.837C203.319 174.524 123.999 197.103 53.2214 267.881Z" fill="#FFB433"/>
</g>
<g filter="url(#filter15_f_35_21)">
<path d="M53.2214 267.881C-17.5558 338.658 -72.7024 407.473 -114.389 365.786C-156.076 324.1 -132.494 232.93 -61.7166 162.152C9.06061 91.3752 119.945 91.1504 161.632 132.837C203.319 174.524 123.999 197.103 53.2214 267.881Z" fill="#FFB433"/>
</g>
<g filter="url(#filter16_f_35_21)">
<path d="M71.8931 129.505C-23.8122 225.21 -18.1391 445.575 39.8817 503.596C97.9024 561.616 222.522 531.067 318.227 435.362C413.932 339.657 412.044 187.526 354.024 129.505C296.003 71.4845 167.598 33.7999 71.8931 129.505Z" fill="url(#paint4_linear_35_21)"/>
</g>
</g>
</g>
<path d="M147.499 107C147.499 74.6916 121.308 48.5002 89 48.5C56.6915 48.5 30.5 74.6915 30.5 107C30.5002 139.308 56.6916 165.499 89 165.499C121.308 165.499 147.499 139.308 147.499 107ZM148.499 107C148.499 139.861 121.861 166.499 89 166.499C56.1393 166.499 29.5002 139.861 29.5 107C29.5 74.1392 56.1392 47.5 89 47.5C121.861 47.5002 148.499 74.1393 148.499 107Z" fill="url(#paint5_radial_35_21)"/>
<path d="M64.958 82.9585C78.2358 69.6808 99.7642 69.6807 113.042 82.9585C126.319 96.2363 126.319 117.764 113.042 131.042C99.7642 144.319 78.2358 144.319 64.958 131.042C51.6803 117.764 51.6806 96.2363 64.958 82.9585ZM75.2168 127.853C85.0984 134.265 98.4452 133.141 107.109 124.477C115.773 115.813 116.898 102.466 110.485 92.5845L75.2168 127.853ZM103.51 85.4194C93.5768 78.5852 79.879 79.5826 71.0469 88.4146C62.2148 97.2466 61.2175 110.944 68.0518 120.877L103.51 85.4194Z" fill="url(#paint6_radial_35_21)"/>
<defs>
<filter id="filter0_f_35_21" x="128.403" y="136.73" width="112.992" height="79.6662" filterUnits="userSpaceOnUse" color-interpolation-filters="sRGB">
<feFlood flood-opacity="0" result="BackgroundImageFix"/>
<feBlend mode="normal" in="SourceGraphic" in2="BackgroundImageFix" result="shape"/>
<feGaussianBlur stdDeviation="13.1944" result="effect1_foregroundBlur_35_21"/>
</filter>
<filter id="filter1_f_35_21" x="142.727" y="107.428" width="112.265" height="107.171" filterUnits="userSpaceOnUse" color-interpolation-filters="sRGB">
<feFlood flood-opacity="0" result="BackgroundImageFix"/>
<feBlend mode="normal" in="SourceGraphic" in2="BackgroundImageFix" result="shape"/>
<feGaussianBlur stdDeviation="9.59591" result="effect1_foregroundBlur_35_21"/>
</filter>
<filter id="filter2_f_35_21" x="131.65" y="143.814" width="95.6586" height="84.5261" filterUnits="userSpaceOnUse" color-interpolation-filters="sRGB">
<feFlood flood-opacity="0" result="BackgroundImageFix"/>
<feBlend mode="normal" in="SourceGraphic" in2="BackgroundImageFix" result="shape"/>
<feGaussianBlur stdDeviation="4.79796" result="effect1_foregroundBlur_35_21"/>
</filter>
<filter id="filter3_f_35_21" x="108.174" y="146.331" width="112.992" height="79.6662" filterUnits="userSpaceOnUse" color-interpolation-filters="sRGB">
<feFlood flood-opacity="0" result="BackgroundImageFix"/>
<feBlend mode="normal" in="SourceGraphic" in2="BackgroundImageFix" result="shape"/>
<feGaussianBlur stdDeviation="13.1944" result="effect1_foregroundBlur_35_21"/>
</filter>
<filter id="filter4_f_35_21" x="109.281" y="46.6714" width="275.778" height="286.075" filterUnits="userSpaceOnUse" color-interpolation-filters="sRGB">
<feFlood flood-opacity="0" result="BackgroundImageFix"/>
<feBlend mode="normal" in="SourceGraphic" in2="BackgroundImageFix" result="shape"/>
<feGaussianBlur stdDeviation="50" result="effect1_foregroundBlur_35_21"/>
</filter>
<filter id="filter5_f_35_21" x="37.709" y="36.1062" width="283.246" height="280.166" filterUnits="userSpaceOnUse" color-interpolation-filters="sRGB">
<feFlood flood-opacity="0" result="BackgroundImageFix"/>
<feBlend mode="normal" in="SourceGraphic" in2="BackgroundImageFix" result="shape"/>
<feGaussianBlur stdDeviation="50" result="effect1_foregroundBlur_35_21"/>
</filter>
<filter id="filter6_f_35_21" x="176.187" y="136.544" width="91.8814" height="58.5552" filterUnits="userSpaceOnUse" color-interpolation-filters="sRGB">
<feFlood flood-opacity="0" result="BackgroundImageFix"/>
<feBlend mode="normal" in="SourceGraphic" in2="BackgroundImageFix" result="shape"/>
<feGaussianBlur stdDeviation="7.91663" result="effect1_foregroundBlur_35_21"/>
</filter>
<filter id="filter7_f_35_21" x="-345.528" y="-92.2034" width="520.163" height="569.598" filterUnits="userSpaceOnUse" color-interpolation-filters="sRGB">
<feFlood flood-opacity="0" result="BackgroundImageFix"/>
<feBlend mode="normal" in="SourceGraphic" in2="BackgroundImageFix" result="shape"/>
<feGaussianBlur stdDeviation="68.2701" result="effect1_foregroundBlur_35_21"/>
</filter>
<filter id="filter8_f_35_21" x="-401.239" y="-245.999" width="486.841" height="528.238" filterUnits="userSpaceOnUse" color-interpolation-filters="sRGB">
<feFlood flood-opacity="0" result="BackgroundImageFix"/>
<feBlend mode="normal" in="SourceGraphic" in2="BackgroundImageFix" result="shape"/>
<feGaussianBlur stdDeviation="40.962" result="effect1_foregroundBlur_35_21"/>
</filter>
<filter id="filter9_f_35_21" x="-117.982" y="-66.7742" width="486.841" height="528.238" filterUnits="userSpaceOnUse" color-interpolation-filters="sRGB">
<feFlood flood-opacity="0" result="BackgroundImageFix"/>
<feBlend mode="normal" in="SourceGraphic" in2="BackgroundImageFix" result="shape"/>
<feGaussianBlur stdDeviation="40.962" result="effect1_foregroundBlur_35_21"/>
</filter>
<filter id="filter10_f_35_21" x="-352.303" y="-313.127" width="472.015" height="437.698" filterUnits="userSpaceOnUse" color-interpolation-filters="sRGB">
<feFlood flood-opacity="0" result="BackgroundImageFix"/>
<feBlend mode="normal" in="SourceGraphic" in2="BackgroundImageFix" result="shape"/>
<feGaussianBlur stdDeviation="40.962" result="effect1_foregroundBlur_35_21"/>
</filter>
<filter id="filter11_f_35_21" x="-141.113" y="-137.044" width="472.015" height="437.698" filterUnits="userSpaceOnUse" color-interpolation-filters="sRGB">
<feFlood flood-opacity="0" result="BackgroundImageFix"/>
<feBlend mode="normal" in="SourceGraphic" in2="BackgroundImageFix" result="shape"/>
<feGaussianBlur stdDeviation="40.962" result="effect1_foregroundBlur_35_21"/>
</filter>
<filter id="filter12_f_35_21" x="-69.0461" y="-133.903" width="472.015" height="437.698" filterUnits="userSpaceOnUse" color-interpolation-filters="sRGB">
<feFlood flood-opacity="0" result="BackgroundImageFix"/>
<feBlend mode="normal" in="SourceGraphic" in2="BackgroundImageFix" result="shape"/>
<feGaussianBlur stdDeviation="40.962" result="effect1_foregroundBlur_35_21"/>
</filter>
<filter id="filter13_f_35_21" x="-211.777" y="-138.393" width="596.667" height="661.967" filterUnits="userSpaceOnUse" color-interpolation-filters="sRGB">
<feFlood flood-opacity="0" result="BackgroundImageFix"/>
<feBlend mode="normal" in="SourceGraphic" in2="BackgroundImageFix" result="shape"/>
<feGaussianBlur stdDeviation="50" result="effect1_foregroundBlur_35_21"/>
</filter>
<filter id="filter14_f_35_21" x="-216.913" y="22.6609" width="472.015" height="437.698" filterUnits="userSpaceOnUse" color-interpolation-filters="sRGB">
<feFlood flood-opacity="0" result="BackgroundImageFix"/>
<feBlend mode="normal" in="SourceGraphic" in2="BackgroundImageFix" result="shape"/>
<feGaussianBlur stdDeviation="40.962" result="effect1_foregroundBlur_35_21"/>
</filter>
<filter id="filter15_f_35_21" x="-184.64" y="54.934" width="407.469" height="373.152" filterUnits="userSpaceOnUse" color-interpolation-filters="sRGB">
<feFlood flood-opacity="0" result="BackgroundImageFix"/>
<feBlend mode="normal" in="SourceGraphic" in2="BackgroundImageFix" result="shape"/>
<feGaussianBlur stdDeviation="24.8255" result="effect1_foregroundBlur_35_21"/>
</filter>
<filter id="filter16_f_35_21" x="-102.187" y="-28.9836" width="596.667" height="661.967" filterUnits="userSpaceOnUse" color-interpolation-filters="sRGB">
<feFlood flood-opacity="0" result="BackgroundImageFix"/>
<feBlend mode="normal" in="SourceGraphic" in2="BackgroundImageFix" result="shape"/>
<feGaussianBlur stdDeviation="50" result="effect1_foregroundBlur_35_21"/>
</filter>
<linearGradient id="paint0_linear_35_21" x1="212.072" y1="154.933" x2="233.265" y2="195.676" gradientUnits="userSpaceOnUse">
<stop stop-color="white"/>
<stop offset="1" stop-color="white" stop-opacity="0"/>
</linearGradient>
<linearGradient id="paint1_linear_35_21" x1="155.59" y1="133.762" x2="189.002" y2="165.789" gradientUnits="userSpaceOnUse">
<stop stop-color="#AAAAAA"/>
<stop offset="1" stop-color="#AAAAAA" stop-opacity="0"/>
</linearGradient>
<radialGradient id="paint2_radial_35_21" cx="0" cy="0" r="1" gradientTransform="matrix(53.1844 21.7728 -22.8621 50.6469 156.072 150.919)" gradientUnits="userSpaceOnUse">
<stop stop-color="white"/>
<stop offset="1" stop-color="white" stop-opacity="0"/>
</radialGradient>
<linearGradient id="paint3_linear_35_21" x1="-97.1678" y1="5.94974" x2="18.1952" y2="222.255" gradientUnits="userSpaceOnUse">
<stop stop-color="white" stop-opacity="0.3"/>
<stop offset="1" stop-color="white" stop-opacity="0"/>
</linearGradient>
<linearGradient id="paint4_linear_35_21" x1="405.711" y1="181.192" x2="61.5943" y2="525.308" gradientUnits="userSpaceOnUse">
<stop stop-color="white"/>
<stop offset="1" stop-color="white" stop-opacity="0"/>
</linearGradient>
<radialGradient id="paint5_radial_35_21" cx="0" cy="0" r="1" gradientTransform="matrix(149.427 64.2325 -64.2337 149.415 38.632 74.3094)" gradientUnits="userSpaceOnUse">
<stop stop-color="white"/>
<stop offset="1" stop-color="white" stop-opacity="0"/>
</radialGradient>
<radialGradient id="paint6_radial_35_21" cx="0" cy="0" r="1" gradientTransform="matrix(23.8 -28.0498 27.1462 23.033 81.775 109.125)" gradientUnits="userSpaceOnUse">
<stop stop-color="white"/>
<stop offset="1" stop-color="white" stop-opacity="0.5"/>
</radialGradient>
</defs>
</svg>
