<svg width="230" height="230" viewBox="0 0 230 230" fill="none" xmlns="http://www.w3.org/2000/svg">
<path d="M195 187H201V193H195V187Z" fill="black"/>
<path d="M65 57H71V63H65V57Z" fill="black"/>
<path d="M195 57H201V63H195V57Z" fill="black"/>
<path d="M65 187H71V193H65V187Z" fill="black"/>
<path d="M198.5 59.5V190.5H67.5V59.5H198.5ZM68.5 189.5H197.5V60.5H68.5V189.5Z" fill="black"/>
<mask id="mask0_35_23" style="mask-type:alpha" maskUnits="userSpaceOnUse" x="21" y="45" width="42" height="46">
<path d="M59.915 45.5C61.2927 45.5 62.4092 46.6193 62.4092 48V66C62.4092 67.3807 61.2927 68.5 59.915 68.5H51.9326C51.1061 68.5001 50.4365 69.1716 50.4365 70V78C50.4365 79.3807 49.3191 80.5 47.9414 80.5H39.96C39.1336 80.5003 38.4639 81.1717 38.4639 82V88C38.4639 89.3806 37.3472 90.4998 35.9697 90.5H23.9961C22.6184 90.5 21.502 89.3807 21.502 88V70C21.502 68.6193 22.6184 67.5 23.9961 67.5H31.9775C32.804 67.4998 33.4736 66.8283 33.4736 66V58C33.4736 56.6193 34.5911 55.5 35.9688 55.5H43.9502C44.7768 55.5 45.4473 54.8284 45.4473 54V48C45.4473 46.6194 46.5639 45.5002 47.9414 45.5H59.915Z" fill="black"/>
</mask>
<g mask="url(#mask0_35_23)">
<mask id="mask1_35_23" style="mask-type:alpha" maskUnits="userSpaceOnUse" x="-37" y="29" width="129" height="73">
<rect x="-36.6533" y="29.2422" width="127.855" height="71.9199" fill="white"/>
</mask>
<g mask="url(#mask1_35_23)">
<rect x="-36.6523" y="29.2412" width="127.855" height="71.9199" fill="white"/>
<g filter="url(#filter0_f_35_23)">
<path d="M12.7444 78.5275C33.5436 83.4232 52.0798 86.343 50.1165 94.6843C48.1532 103.026 29.7005 105.819 8.90134 100.923C-11.8979 96.0274 -25.6178 81.1133 -23.6545 72.772C-21.6911 64.4307 -8.05477 73.6317 12.7444 78.5275Z" fill="#AAAAAA"/>
</g>
<g filter="url(#filter1_f_35_23)">
<path d="M19.0745 59.6732C39.1109 36.7641 54.4056 14.7329 68.139 26.7446C81.8723 38.7564 76.7627 67.0653 56.7263 89.9743C36.6899 112.883 2.73497 114.922 -10.9984 102.911C-24.7317 90.8988 -0.961911 82.5822 19.0745 59.6732Z" fill="#AAAAAA"/>
</g>
<g filter="url(#filter2_f_35_23)">
<path d="M11.0462 85.1547C36.873 101.256 61.0726 112.818 51.4204 128.301C41.7682 143.784 13.0068 143.283 -12.82 127.182C-38.6469 111.081 -46.1079 77.8921 -36.4557 62.409C-26.8035 46.9259 -14.7807 69.0536 11.0462 85.1547Z" fill="#AAAAAA"/>
</g>
<g filter="url(#filter3_f_35_23)">
<path d="M-12.1501 90.6427C8.64911 95.5385 27.1853 98.4582 25.222 106.8C23.2587 115.141 4.80602 117.934 -15.9932 113.038C-36.7924 108.143 -50.5123 93.2286 -48.549 84.8872C-46.5857 76.5459 -32.9493 85.747 -12.1501 90.6427Z" fill="#AAAAAA"/>
</g>
<g filter="url(#filter4_f_35_23)">
<path d="M119.051 62.4054C141.551 84.9053 140.217 136.712 126.577 150.352C112.937 163.993 83.6397 156.811 61.1402 134.311C38.6408 111.811 39.0847 76.0458 52.7248 62.4054C66.365 48.765 96.5517 39.9055 119.051 62.4054Z" fill="url(#paint0_linear_35_23)"/>
</g>
<g filter="url(#filter5_f_35_23)">
<path d="M-38.3861 103.164C-22.4766 130.721 27.9091 142.841 44.6148 133.196C61.3205 123.551 61.9659 93.3925 46.0564 65.8359C30.1469 38.2792 -4.51386 29.4513 -21.2195 39.0965C-37.9252 48.7417 -54.2956 75.6074 -38.3861 103.164Z" fill="url(#paint1_linear_35_23)"/>
</g>
<g filter="url(#filter6_f_35_23)">
<path d="M58.5579 64.9738C79.3571 69.8695 97.8933 72.7893 95.93 81.1306C93.9667 89.4719 75.514 92.2651 54.7148 87.3694C33.9156 82.4736 20.1957 67.5596 22.159 59.2183C24.1223 50.877 37.7587 60.078 58.5579 64.9738Z" fill="#AAAAAA"/>
</g>
</g>
</g>
<path d="M61.5 48C61.5 47.1716 60.8284 46.5 60 46.5H48C47.1716 46.5 46.5 47.1716 46.5 48V54C46.5 55.3807 45.3807 56.5 44 56.5H36C35.1716 56.5 34.5 57.1716 34.5 58V66C34.5 67.3807 33.3807 68.5 32 68.5H24C23.1716 68.5 22.5 69.1716 22.5 70V88C22.5 88.8284 23.1716 89.5 24 89.5H36C36.8284 89.5 37.5 88.8284 37.5 88V82C37.5 80.6193 38.6193 79.5 40 79.5H48C48.8284 79.5 49.5 78.8284 49.5 78V70C49.5 68.6193 50.6193 67.5 52 67.5H60C60.8284 67.5 61.5 66.8284 61.5 66V48ZM62.5 66C62.5 67.3807 61.3807 68.5 60 68.5H52C51.1716 68.5 50.5 69.1716 50.5 70V78C50.5 79.3807 49.3807 80.5 48 80.5H40C39.1716 80.5 38.5 81.1716 38.5 82V88C38.5 89.3807 37.3807 90.5 36 90.5H24C22.6193 90.5 21.5 89.3807 21.5 88V70C21.5 68.6193 22.6193 67.5 24 67.5H32C32.8284 67.5 33.5 66.8284 33.5 66V58C33.5 56.6193 34.6193 55.5 36 55.5H44C44.8284 55.5 45.5 54.8284 45.5 54V48C45.5 46.6193 46.6193 45.5 48 45.5H60C61.3807 45.5 62.5 46.6193 62.5 48V66Z" fill="url(#paint2_radial_35_23)"/>
<mask id="mask2_35_23" style="mask-type:alpha" maskUnits="userSpaceOnUse" x="82" y="65" width="102" height="120">
<path d="M132.862 65.5C152.592 65.5002 168.585 81.5099 168.585 101.258C168.585 115.321 160.474 127.485 148.681 133.324C148.176 133.574 147.853 134.307 147.9 135.183C147.948 136.06 148.347 136.726 148.871 136.897C168.212 143.233 182.405 160.858 183.566 181.943C183.644 183.357 182.498 184.501 181.108 184.501H84.9627C83.5727 184.501 82.4271 183.357 82.5047 181.943C83.6624 160.93 97.7613 143.353 117.001 136.962C117.524 136.788 117.92 136.121 117.964 135.244C118.008 134.37 117.682 133.639 117.176 133.391C105.311 127.577 97.1395 115.373 97.1395 101.258C97.1395 81.5098 113.133 65.5001 132.862 65.5Z" fill="black"/>
</mask>
<g mask="url(#mask2_35_23)">
<mask id="mask3_35_23" style="mask-type:alpha" maskUnits="userSpaceOnUse" x="14" y="41" width="382" height="216">
<rect x="14.1152" y="41.3472" width="381.57" height="214.905" fill="white"/>
</mask>
<g mask="url(#mask3_35_23)">
<rect x="14.1162" y="41.3474" width="381.57" height="214.905" fill="white"/>
<g filter="url(#filter7_f_35_23)">
<path d="M158.408 197.09C205.151 249.567 249.53 292.444 228.512 311.213C207.494 329.983 152.563 302.657 105.82 250.18C59.0771 197.704 50.2847 131.602 71.303 112.833C92.3213 94.0635 111.665 144.613 158.408 197.09Z" fill="#027BFE"/>
</g>
<g filter="url(#filter8_f_35_23)">
<path d="M134.052 134.701C185.645 86.9973 238.544 53.59 191.471 2.55049C144.398 -48.489 64.4142 -51.1933 12.8211 -3.48964C-38.772 44.214 -16.7903 149.401 30.2823 200.441C77.3549 251.48 82.4589 182.405 134.052 134.701Z" fill="#027BFE"/>
</g>
<g filter="url(#filter9_f_35_23)">
<path d="M332.786 260.604C384.379 212.9 437.278 179.493 390.205 128.453C343.133 77.4136 263.149 74.7093 211.555 122.413C159.962 170.117 181.944 275.304 229.017 326.343C276.089 377.383 281.193 308.307 332.786 260.604Z" fill="#027BFE"/>
</g>
<g filter="url(#filter10_f_35_23)">
<path d="M149.501 29.9837C99.8437 79.7041 61.1526 128.046 31.905 98.7618C2.6574 69.4771 19.2028 5.43097 68.8603 -44.2894C118.518 -94.0097 196.315 -94.1676 225.562 -64.883C254.81 -35.5983 199.159 -19.7366 149.501 29.9837Z" fill="#027BFE"/>
</g>
<g filter="url(#filter11_f_35_23)">
<path d="M249.785 116.63C299.442 66.9099 338.133 18.5676 367.381 47.8522C396.629 77.1369 380.083 141.183 330.426 190.903C280.768 240.624 202.971 240.782 173.724 211.497C144.476 182.212 200.127 166.351 249.785 116.63Z" fill="#027BFE"/>
</g>
<g filter="url(#filter12_f_35_23)">
<path d="M348.236 155.888C298.578 205.608 259.887 253.951 230.639 224.666C201.392 195.381 217.937 131.335 267.595 81.6149C317.252 31.8946 395.049 31.7367 424.297 61.0213C453.544 90.306 397.893 106.168 348.236 155.888Z" fill="#027BFE"/>
</g>
<g filter="url(#filter13_f_35_23)">
<path d="M355.055 91.8075C422.202 159.04 418.222 313.844 377.515 354.603C336.807 395.362 249.374 373.901 182.226 306.669C115.079 239.437 116.404 132.567 157.112 91.8075C197.819 51.0485 287.908 24.5754 355.055 91.8075Z" fill="url(#paint3_linear_35_23)"/>
</g>
<g filter="url(#filter14_f_35_23)">
<path d="M244.49 265.872C194.833 315.593 156.142 363.935 126.894 334.65C97.6467 305.366 114.192 241.319 163.85 191.599C213.507 141.879 291.304 141.721 320.552 171.005C349.799 200.29 294.148 216.152 244.49 265.872Z" fill="#027BFE"/>
</g>
<g filter="url(#filter15_f_35_23)">
<path d="M244.49 265.872C194.833 315.593 156.142 363.935 126.894 334.65C97.6467 305.366 114.192 241.319 163.85 191.599C213.507 141.879 291.304 141.721 320.552 171.005C349.799 200.29 294.148 216.152 244.49 265.872Z" fill="#027BFE"/>
</g>
<g filter="url(#filter16_f_35_23)">
<path d="M257.59 168.665C190.443 235.898 194.423 390.702 235.131 431.461C275.838 472.22 363.272 450.759 430.419 383.527C497.566 316.295 496.241 209.424 455.534 168.665C414.826 127.906 324.737 101.433 257.59 168.665Z" fill="url(#paint4_linear_35_23)"/>
</g>
</g>
</g>
<path d="M167.589 101.261C167.589 82.3649 152.525 66.9915 133.763 66.5154L132.866 66.5037C113.69 66.5037 98.1434 82.0648 98.1434 101.261L98.1492 101.903C98.3925 115.35 106.265 126.932 117.619 132.496C118.651 133.002 119.019 134.249 118.967 135.298C118.914 136.345 118.423 137.548 117.32 137.915C98.4597 144.18 84.6435 161.409 83.5076 181.998C83.4629 182.813 84.1257 183.501 84.9676 183.501H181.113C181.955 183.501 182.618 182.813 182.573 181.998C181.433 161.338 167.525 144.061 148.563 137.85C147.459 137.489 146.962 136.286 146.905 135.239C146.848 134.19 147.211 132.94 148.241 132.43C159.706 126.754 167.589 114.93 167.589 101.261ZM168.589 101.261C168.589 115.324 160.478 127.488 148.685 133.327C148.18 133.577 147.856 134.31 147.904 135.185C147.952 136.063 148.351 136.729 148.875 136.9C168.216 143.235 182.408 160.859 183.571 181.943C183.649 183.356 182.503 184.501 181.113 184.501H84.9676C83.5776 184.501 82.432 183.356 82.5096 181.943C83.6687 160.932 97.7666 143.357 117.005 136.966C117.528 136.792 117.923 136.125 117.968 135.248C118.012 134.373 117.686 133.641 117.18 133.393C105.315 127.58 97.1435 115.377 97.1434 101.261C97.1434 81.5134 113.136 65.5037 132.866 65.5037C152.596 65.5038 168.589 81.5135 168.589 101.261Z" fill="url(#paint5_radial_35_23)"/>
<mask id="mask4_35_23" style="mask-type:alpha" maskUnits="userSpaceOnUse" x="27" y="95" width="36" height="36">
<path d="M60.002 95.5C61.3827 95.5 62.502 96.6193 62.502 98V128C62.502 129.381 61.3827 130.5 60.002 130.5H30.002C28.6212 130.5 27.502 129.381 27.502 128V98C27.502 96.6193 28.6212 95.5 30.002 95.5H60.002Z" fill="black"/>
</mask>
<g mask="url(#mask4_35_23)">
<mask id="mask5_35_23" style="mask-type:alpha" maskUnits="userSpaceOnUse" x="-9" y="76" width="137" height="78">
<rect x="-8.39746" y="76.5913" width="136.19" height="76.607" fill="white"/>
</mask>
<g mask="url(#mask5_35_23)">
<rect x="-8.39746" y="76.5911" width="136.19" height="76.607" fill="white"/>
<g filter="url(#filter17_f_35_23)">
<path d="M44.2199 129.089C66.3751 134.304 86.1197 137.414 84.0284 146.299C81.9371 155.184 62.2815 158.159 40.1263 152.944C17.9711 147.729 3.35679 131.843 5.4481 122.959C7.53941 114.074 22.0648 123.874 44.2199 129.089Z" fill="#AAAAAA"/>
</g>
<g filter="url(#filter18_f_35_23)">
<path d="M50.9621 109.006C72.3048 84.6038 88.5966 61.1368 103.225 73.9314C117.854 86.726 112.411 116.88 91.0686 141.282C69.7259 165.684 33.5574 167.856 18.9287 155.061C4.30005 142.267 29.6195 133.408 50.9621 109.006Z" fill="#AAAAAA"/>
</g>
<g filter="url(#filter19_f_35_23)">
<path d="M42.4101 136.148C69.9207 153.299 95.6979 165.614 85.4164 182.106C75.135 198.598 44.4986 198.064 16.988 180.914C-10.5225 163.764 -18.4699 128.412 -8.1885 111.92C2.09293 95.4278 14.8996 118.998 42.4101 136.148Z" fill="#AAAAAA"/>
</g>
<g filter="url(#filter20_f_35_23)">
<path d="M17.7014 141.995C39.8566 147.21 59.6012 150.32 57.5099 159.205C55.4185 168.09 35.7629 171.065 13.6078 165.85C-8.54741 160.635 -23.1618 144.749 -21.0705 135.864C-18.9791 126.979 -4.45377 136.78 17.7014 141.995Z" fill="#AAAAAA"/>
</g>
<g filter="url(#filter21_f_35_23)">
<path d="M157.456 111.916C181.423 135.882 180.002 191.065 165.473 205.594C150.943 220.124 119.736 212.474 95.7701 188.507C71.8038 164.541 72.2767 126.445 86.806 111.916C101.335 97.3863 133.49 87.9494 157.456 111.916Z" fill="url(#paint6_linear_35_23)"/>
</g>
<g filter="url(#filter22_f_35_23)">
<path d="M-10.2449 155.331C6.7018 184.683 60.3722 197.593 78.167 187.32C95.9618 177.046 96.6493 144.922 79.7026 115.57C62.7559 86.2172 25.8355 76.8139 8.04075 87.0877C-9.75403 97.3616 -27.1916 125.978 -10.2449 155.331Z" fill="url(#paint7_linear_35_23)"/>
</g>
<g filter="url(#filter23_f_35_23)">
<path d="M93.0188 114.651C115.174 119.866 134.919 122.976 132.827 131.861C130.736 140.746 111.08 143.721 88.9251 138.506C66.77 133.291 52.1556 117.405 54.2469 108.521C56.3382 99.6356 70.8636 109.436 93.0188 114.651Z" fill="#AAAAAA"/>
</g>
</g>
<path d="M61.502 98C61.502 97.1716 60.8304 96.5 60.002 96.5H30.002C29.1735 96.5 28.502 97.1716 28.502 98V128C28.502 128.828 29.1735 129.5 30.002 129.5H60.002C60.8304 129.5 61.502 128.828 61.502 128V98ZM62.502 128C62.502 129.381 61.3827 130.5 60.002 130.5H30.002C28.6212 130.5 27.502 129.381 27.502 128V98C27.502 96.6193 28.6212 95.5 30.002 95.5H60.002C61.3827 95.5 62.502 96.6193 62.502 98V128Z" fill="url(#paint8_radial_35_23)"/>
</g>
<defs>
<filter id="filter0_f_35_23" x="-57.244" y="36.005" width="140.907" height="100.733" filterUnits="userSpaceOnUse" color-interpolation-filters="sRGB">
<feFlood flood-opacity="0" result="BackgroundImageFix"/>
<feBlend mode="normal" in="SourceGraphic" in2="BackgroundImageFix" result="shape"/>
<feGaussianBlur stdDeviation="16.7016" result="effect1_foregroundBlur_35_23"/>
</filter>
<filter id="filter1_f_35_23" x="-39.3645" y="-0.93803" width="139.504" height="135.38" filterUnits="userSpaceOnUse" color-interpolation-filters="sRGB">
<feFlood flood-opacity="0" result="BackgroundImageFix"/>
<feBlend mode="normal" in="SourceGraphic" in2="BackgroundImageFix" result="shape"/>
<feGaussianBlur stdDeviation="12.1466" result="effect1_foregroundBlur_35_23"/>
</filter>
<filter id="filter2_f_35_23" x="-52.6574" y="45.0104" width="118.393" height="106.729" filterUnits="userSpaceOnUse" color-interpolation-filters="sRGB">
<feFlood flood-opacity="0" result="BackgroundImageFix"/>
<feBlend mode="normal" in="SourceGraphic" in2="BackgroundImageFix" result="shape"/>
<feGaussianBlur stdDeviation="6.07331" result="effect1_foregroundBlur_35_23"/>
</filter>
<filter id="filter3_f_35_23" x="-82.1386" y="48.1202" width="140.907" height="100.733" filterUnits="userSpaceOnUse" color-interpolation-filters="sRGB">
<feFlood flood-opacity="0" result="BackgroundImageFix"/>
<feBlend mode="normal" in="SourceGraphic" in2="BackgroundImageFix" result="shape"/>
<feGaussianBlur stdDeviation="16.7016" result="effect1_foregroundBlur_35_23"/>
</filter>
<filter id="filter4_f_35_23" x="-56.7861" y="-51.345" width="293.253" height="308.606" filterUnits="userSpaceOnUse" color-interpolation-filters="sRGB">
<feFlood flood-opacity="0" result="BackgroundImageFix"/>
<feBlend mode="normal" in="SourceGraphic" in2="BackgroundImageFix" result="shape"/>
<feGaussianBlur stdDeviation="50" result="effect1_foregroundBlur_35_23"/>
</filter>
<filter id="filter5_f_35_23" x="-144.862" y="-64.676" width="302.441" height="301.15" filterUnits="userSpaceOnUse" color-interpolation-filters="sRGB">
<feFlood flood-opacity="0" result="BackgroundImageFix"/>
<feBlend mode="normal" in="SourceGraphic" in2="BackgroundImageFix" result="shape"/>
<feGaussianBlur stdDeviation="50" result="effect1_foregroundBlur_35_23"/>
</filter>
<filter id="filter6_f_35_23" x="1.93072" y="35.8126" width="114.184" height="74.0109" filterUnits="userSpaceOnUse" color-interpolation-filters="sRGB">
<feFlood flood-opacity="0" result="BackgroundImageFix"/>
<feBlend mode="normal" in="SourceGraphic" in2="BackgroundImageFix" result="shape"/>
<feGaussianBlur stdDeviation="10.021" result="effect1_foregroundBlur_35_23"/>
</filter>
<filter id="filter7_f_35_23" x="-49.7385" y="-1.42526" width="393.874" height="428.821" filterUnits="userSpaceOnUse" color-interpolation-filters="sRGB">
<feFlood flood-opacity="0" result="BackgroundImageFix"/>
<feBlend mode="normal" in="SourceGraphic" in2="BackgroundImageFix" result="shape"/>
<feGaussianBlur stdDeviation="55.13" result="effect1_foregroundBlur_35_23"/>
</filter>
<filter id="filter8_f_35_23" x="-83.0368" y="-103.727" width="358.924" height="388.292" filterUnits="userSpaceOnUse" color-interpolation-filters="sRGB">
<feFlood flood-opacity="0" result="BackgroundImageFix"/>
<feBlend mode="normal" in="SourceGraphic" in2="BackgroundImageFix" result="shape"/>
<feGaussianBlur stdDeviation="33.078" result="effect1_foregroundBlur_35_23"/>
</filter>
<filter id="filter9_f_35_23" x="115.698" y="22.1758" width="358.924" height="388.292" filterUnits="userSpaceOnUse" color-interpolation-filters="sRGB">
<feFlood flood-opacity="0" result="BackgroundImageFix"/>
<feBlend mode="normal" in="SourceGraphic" in2="BackgroundImageFix" result="shape"/>
<feGaussianBlur stdDeviation="33.078" result="effect1_foregroundBlur_35_23"/>
</filter>
<filter id="filter10_f_35_23" x="-48.7038" y="-150.886" width="348.523" height="324.689" filterUnits="userSpaceOnUse" color-interpolation-filters="sRGB">
<feFlood flood-opacity="0" result="BackgroundImageFix"/>
<feBlend mode="normal" in="SourceGraphic" in2="BackgroundImageFix" result="shape"/>
<feGaussianBlur stdDeviation="33.078" result="effect1_foregroundBlur_35_23"/>
</filter>
<filter id="filter11_f_35_23" x="99.4671" y="-27.1892" width="348.523" height="324.689" filterUnits="userSpaceOnUse" color-interpolation-filters="sRGB">
<feFlood flood-opacity="0" result="BackgroundImageFix"/>
<feBlend mode="normal" in="SourceGraphic" in2="BackgroundImageFix" result="shape"/>
<feGaussianBlur stdDeviation="33.078" result="effect1_foregroundBlur_35_23"/>
</filter>
<filter id="filter12_f_35_23" x="150.031" y="-24.9817" width="348.523" height="324.689" filterUnits="userSpaceOnUse" color-interpolation-filters="sRGB">
<feFlood flood-opacity="0" result="BackgroundImageFix"/>
<feBlend mode="normal" in="SourceGraphic" in2="BackgroundImageFix" result="shape"/>
<feGaussianBlur stdDeviation="33.078" result="effect1_foregroundBlur_35_23"/>
</filter>
<filter id="filter13_f_35_23" x="28.7266" y="-49.2805" width="478.304" height="524.528" filterUnits="userSpaceOnUse" color-interpolation-filters="sRGB">
<feFlood flood-opacity="0" result="BackgroundImageFix"/>
<feBlend mode="normal" in="SourceGraphic" in2="BackgroundImageFix" result="shape"/>
<feGaussianBlur stdDeviation="50" result="effect1_foregroundBlur_35_23"/>
</filter>
<filter id="filter14_f_35_23" x="46.2854" y="85.0025" width="348.523" height="324.689" filterUnits="userSpaceOnUse" color-interpolation-filters="sRGB">
<feFlood flood-opacity="0" result="BackgroundImageFix"/>
<feBlend mode="normal" in="SourceGraphic" in2="BackgroundImageFix" result="shape"/>
<feGaussianBlur stdDeviation="33.078" result="effect1_foregroundBlur_35_23"/>
</filter>
<filter id="filter15_f_35_23" x="72.3469" y="111.064" width="296.4" height="272.566" filterUnits="userSpaceOnUse" color-interpolation-filters="sRGB">
<feFlood flood-opacity="0" result="BackgroundImageFix"/>
<feBlend mode="normal" in="SourceGraphic" in2="BackgroundImageFix" result="shape"/>
<feGaussianBlur stdDeviation="20.0473" result="effect1_foregroundBlur_35_23"/>
</filter>
<filter id="filter16_f_35_23" x="105.615" y="27.5774" width="478.304" height="524.528" filterUnits="userSpaceOnUse" color-interpolation-filters="sRGB">
<feFlood flood-opacity="0" result="BackgroundImageFix"/>
<feBlend mode="normal" in="SourceGraphic" in2="BackgroundImageFix" result="shape"/>
<feGaussianBlur stdDeviation="50" result="effect1_foregroundBlur_35_23"/>
</filter>
<filter id="filter17_f_35_23" x="-36.478" y="77.6485" width="162.386" height="119.592" filterUnits="userSpaceOnUse" color-interpolation-filters="sRGB">
<feFlood flood-opacity="0" result="BackgroundImageFix"/>
<feBlend mode="normal" in="SourceGraphic" in2="BackgroundImageFix" result="shape"/>
<feGaussianBlur stdDeviation="20.8635" result="effect1_foregroundBlur_35_23"/>
</filter>
<filter id="filter18_f_35_23" x="-15.7571" y="39.9741" width="157.54" height="153.144" filterUnits="userSpaceOnUse" color-interpolation-filters="sRGB">
<feFlood flood-opacity="0" result="BackgroundImageFix"/>
<feBlend mode="normal" in="SourceGraphic" in2="BackgroundImageFix" result="shape"/>
<feGaussianBlur stdDeviation="15.1735" result="effect1_foregroundBlur_35_23"/>
</filter>
<filter id="filter19_f_35_23" x="-27.6813" y="91.1522" width="130.581" height="118.156" filterUnits="userSpaceOnUse" color-interpolation-filters="sRGB">
<feFlood flood-opacity="0" result="BackgroundImageFix"/>
<feBlend mode="normal" in="SourceGraphic" in2="BackgroundImageFix" result="shape"/>
<feGaussianBlur stdDeviation="7.58673" result="effect1_foregroundBlur_35_23"/>
</filter>
<filter id="filter20_f_35_23" x="-62.9965" y="90.5542" width="162.386" height="119.592" filterUnits="userSpaceOnUse" color-interpolation-filters="sRGB">
<feFlood flood-opacity="0" result="BackgroundImageFix"/>
<feBlend mode="normal" in="SourceGraphic" in2="BackgroundImageFix" result="shape"/>
<feGaussianBlur stdDeviation="20.8635" result="effect1_foregroundBlur_35_23"/>
</filter>
<filter id="filter21_f_35_23" x="-23.3252" y="-2.73096" width="299.332" height="315.684" filterUnits="userSpaceOnUse" color-interpolation-filters="sRGB">
<feFlood flood-opacity="0" result="BackgroundImageFix"/>
<feBlend mode="normal" in="SourceGraphic" in2="BackgroundImageFix" result="shape"/>
<feGaussianBlur stdDeviation="50" result="effect1_foregroundBlur_35_23"/>
</filter>
<filter id="filter22_f_35_23" x="-117.144" y="-16.9307" width="309.12" height="307.742" filterUnits="userSpaceOnUse" color-interpolation-filters="sRGB">
<feFlood flood-opacity="0" result="BackgroundImageFix"/>
<feBlend mode="normal" in="SourceGraphic" in2="BackgroundImageFix" result="shape"/>
<feGaussianBlur stdDeviation="50" result="effect1_foregroundBlur_35_23"/>
</filter>
<filter id="filter23_f_35_23" x="29.0117" y="79.9013" width="129.004" height="86.2103" filterUnits="userSpaceOnUse" color-interpolation-filters="sRGB">
<feFlood flood-opacity="0" result="BackgroundImageFix"/>
<feBlend mode="normal" in="SourceGraphic" in2="BackgroundImageFix" result="shape"/>
<feGaussianBlur stdDeviation="12.5181" result="effect1_foregroundBlur_35_23"/>
</filter>
<linearGradient id="paint0_linear_35_23" x1="46.6483" y1="59.0798" x2="73.77" y2="109.932" gradientUnits="userSpaceOnUse">
<stop stop-color="white"/>
<stop offset="1" stop-color="white" stop-opacity="0"/>
</linearGradient>
<linearGradient id="paint1_linear_35_23" x1="-22.8591" y1="32.3662" x2="19.2411" y2="71.7241" gradientUnits="userSpaceOnUse">
<stop stop-color="#AAAAAA"/>
<stop offset="1" stop-color="#AAAAAA" stop-opacity="0"/>
</linearGradient>
<radialGradient id="paint2_radial_35_23" cx="0" cy="0" r="1" gradientTransform="matrix(50.6536 24.2192 -21.7742 56.3378 24.9261 55.9201)" gradientUnits="userSpaceOnUse">
<stop stop-color="white"/>
<stop offset="1" stop-color="white" stop-opacity="0"/>
</radialGradient>
<linearGradient id="paint3_linear_35_23" x1="138.977" y1="81.8702" x2="220.076" y2="233.738" gradientUnits="userSpaceOnUse">
<stop stop-color="white" stop-opacity="0.3"/>
<stop offset="1" stop-color="white" stop-opacity="0"/>
</linearGradient>
<linearGradient id="paint4_linear_35_23" x1="491.798" y1="204.975" x2="250.059" y2="446.408" gradientUnits="userSpaceOnUse">
<stop stop-color="white"/>
<stop offset="1" stop-color="white" stop-opacity="0"/>
</linearGradient>
<radialGradient id="paint5_radial_35_23" cx="0" cy="0" r="1" gradientTransform="matrix(127.076 80.2071 -54.6256 186.574 90.3008 70.4083)" gradientUnits="userSpaceOnUse">
<stop stop-color="white"/>
<stop offset="1" stop-color="white" stop-opacity="0"/>
</radialGradient>
<linearGradient id="paint6_linear_35_23" x1="80.3334" y1="108.373" x2="109.222" y2="162.54" gradientUnits="userSpaceOnUse">
<stop stop-color="white"/>
<stop offset="1" stop-color="white" stop-opacity="0"/>
</linearGradient>
<linearGradient id="paint7_linear_35_23" x1="6.29434" y1="79.9188" x2="51.1383" y2="121.843" gradientUnits="userSpaceOnUse">
<stop stop-color="#AAAAAA"/>
<stop offset="1" stop-color="#AAAAAA" stop-opacity="0"/>
</linearGradient>
<radialGradient id="paint8_radial_35_23" cx="0" cy="0" r="1" gradientTransform="matrix(43.0556 18.5078 -18.5081 43.052 30.4891 103.581)" gradientUnits="userSpaceOnUse">
<stop stop-color="white"/>
<stop offset="1" stop-color="white" stop-opacity="0"/>
</radialGradient>
</defs>
</svg>
