<svg width="230" height="230" viewBox="0 0 230 230" fill="none" xmlns="http://www.w3.org/2000/svg">
<mask id="mask0_35_13" style="mask-type:alpha" maskUnits="userSpaceOnUse" x="64" y="93" width="102" height="98">
<path d="M143.065 93.7988C149.617 92.7662 155.753 94.3998 160.21 98.8545C164.667 103.309 166.301 109.443 165.268 115.991C164.236 122.533 160.546 129.496 154.349 135.69C153.566 136.472 152.761 137.212 151.941 137.912C155.044 138.716 157.863 140.279 160.21 142.625C164.667 147.08 166.301 153.213 165.268 159.762C164.236 166.303 160.546 173.266 154.349 179.461C148.483 185.324 141.444 188.934 134.789 190.013C128.134 191.091 121.82 189.641 117.497 185.32C114.042 181.866 112.423 177.139 112.463 171.984C110.824 174.545 108.802 177.06 106.4 179.461C100.535 185.324 93.4953 188.934 86.8398 190.013C80.1854 191.091 73.8718 189.641 69.5488 185.32C65.2258 180.998 63.7745 174.687 64.8535 168.035C65.9327 161.383 69.5444 154.348 75.4102 148.484C76.2595 147.635 77.1233 146.834 77.998 146.08C74.7758 145.364 71.8722 143.872 69.5488 141.55C65.2258 137.228 63.7745 130.916 64.8535 124.265C65.9327 117.612 69.5444 110.577 75.4102 104.714C81.6075 98.5193 88.5729 94.8304 95.1172 93.7988C101.669 92.7662 107.805 94.3998 112.262 98.8545C115.774 102.365 117.531 106.921 117.612 111.901C119.184 109.392 121.104 106.967 123.358 104.714C129.556 98.5193 136.521 94.8304 143.065 93.7988ZM112.463 128.214C110.824 130.774 108.802 133.29 106.4 135.69C105.618 136.473 104.812 137.212 103.992 137.912C107.096 138.716 109.915 140.279 112.262 142.625C115.774 146.135 117.532 150.691 117.612 155.672C119.184 153.163 121.104 150.737 123.358 148.484C124.208 147.635 125.072 146.834 125.947 146.08C122.725 145.364 119.821 143.872 117.497 141.55C114.042 138.095 112.423 133.368 112.463 128.214Z" fill="black"/>
</mask>
<g mask="url(#mask0_35_13)">
<mask id="mask1_35_13" style="mask-type:alpha" maskUnits="userSpaceOnUse" x="29" y="80" width="245" height="139">
<rect x="29.9092" y="80.8403" width="243.871" height="137.19" fill="white"/>
</mask>
<g mask="url(#mask1_35_13)">
<rect x="29.9082" y="80.8401" width="243.871" height="137.19" fill="white"/>
<g filter="url(#filter0_f_35_13)">
<path d="M124.129 174.854C163.801 184.192 199.157 189.762 195.413 205.674C191.668 221.586 156.471 226.914 116.799 217.575C77.1261 208.236 50.9568 179.786 54.7017 163.875C58.4465 147.963 84.4566 165.515 124.129 174.854Z" fill="#027BFE"/>
</g>
<g filter="url(#filter1_f_35_13)">
<path d="M136.202 138.889C174.419 95.1883 203.592 53.1626 229.787 76.0757C255.982 98.9887 246.236 152.989 208.019 196.69C169.801 240.39 105.036 244.279 78.841 221.366C52.6462 198.453 97.9845 182.589 136.202 138.889Z" fill="#027BFE"/>
</g>
<g filter="url(#filter2_f_35_13)">
<path d="M120.89 187.493C170.152 218.207 216.31 240.262 197.9 269.797C179.489 299.332 124.629 298.377 75.3669 267.663C26.1046 236.949 11.8736 173.639 30.2843 144.104C48.6951 114.569 71.6274 156.779 120.89 187.493Z" fill="#027BFE"/>
</g>
<g filter="url(#filter3_f_35_13)">
<path d="M76.6437 197.964C116.316 207.303 151.672 212.872 147.927 228.784C144.182 244.696 108.986 250.024 69.3132 240.685C29.6408 231.346 3.47145 202.897 7.21632 186.985C10.9612 171.073 36.9712 188.625 76.6437 197.964Z" fill="#027BFE"/>
</g>
<g filter="url(#filter4_f_35_13)">
<path d="M326.893 144.099C369.808 187.019 367.264 285.843 341.247 311.862C315.23 337.882 259.35 324.182 216.434 281.262C173.519 238.343 174.366 170.119 200.383 144.099C226.4 118.079 283.978 101.179 326.893 144.099Z" fill="url(#paint0_linear_35_13)"/>
</g>
<g filter="url(#filter5_f_35_13)">
<path d="M26.6022 221.85C56.9478 274.416 153.053 297.536 184.917 279.137C216.782 260.738 218.013 203.21 187.667 150.644C157.322 98.0788 91.2102 81.2392 59.3458 99.638C27.4814 118.037 -3.74331 169.285 26.6022 221.85Z" fill="url(#paint1_linear_35_13)"/>
</g>
<g filter="url(#filter6_f_35_13)">
<path d="M211.511 148.999C251.183 158.338 286.539 163.908 282.794 179.82C279.05 195.731 243.853 201.06 204.18 191.721C164.508 182.382 138.339 153.932 142.084 138.02C145.828 122.109 171.838 139.66 211.511 148.999Z" fill="#027BFE"/>
</g>
</g>
</g>
<path d="M143.066 93.7988C149.617 92.7662 155.753 94.3998 160.21 98.8545C164.667 103.309 166.3 109.443 165.267 115.991C164.236 122.533 160.546 129.496 154.348 135.69C153.566 136.472 152.762 137.212 151.942 137.912C155.045 138.716 157.863 140.279 160.21 142.625C164.667 147.08 166.3 153.213 165.267 159.762C164.236 166.303 160.546 173.266 154.348 179.461C148.483 185.324 141.444 188.934 134.789 190.013C128.342 191.058 122.215 189.729 117.908 185.717L117.497 185.32C114.042 181.866 112.423 177.139 112.463 171.984C110.824 174.545 108.802 177.06 106.4 179.461C100.534 185.324 93.4958 188.934 86.8404 190.013C80.3937 191.058 74.2669 189.729 69.96 185.717L69.5486 185.32C65.2256 180.998 63.7746 174.687 64.8536 168.035C65.9329 161.383 69.5445 154.348 75.4102 148.484C76.2597 147.635 77.1237 146.834 77.9986 146.08C74.9989 145.413 72.2754 144.075 70.0391 142.02L69.5486 141.55C65.2256 137.228 63.7746 130.916 64.8536 124.265C65.9329 117.612 69.5445 110.577 75.4102 104.714C81.6076 98.5192 88.5731 94.8304 95.1174 93.7988C101.669 92.7662 107.805 94.3998 112.262 98.8545C115.774 102.365 117.532 106.921 117.612 111.902C119.184 109.393 121.104 106.967 123.359 104.714C129.556 98.5192 136.521 94.8304 143.066 93.7988ZM159.503 99.5615C155.307 95.3683 149.509 93.7959 143.221 94.7871C136.926 95.7795 130.145 99.3445 124.066 105.421C121.381 108.105 119.183 111.036 117.5 114.055L116.564 113.777C116.942 108.294 115.289 103.295 111.554 99.5615C107.359 95.3683 101.561 93.7959 95.2728 94.7871C88.9774 95.7795 82.1967 99.3445 76.1177 105.421C70.3838 111.152 66.8835 118.002 65.8415 124.425C64.7993 130.849 66.2178 136.805 70.256 140.843L70.7153 141.282C73.0487 143.427 75.9595 144.755 79.1994 145.299L80.2821 145.48L79.4339 146.178C78.3104 147.102 77.2025 148.107 76.1177 149.191C70.3838 154.923 66.8835 161.772 65.8415 168.195C64.7993 174.619 66.2178 180.576 70.256 184.613L70.64 184.984C74.6669 188.736 80.454 190.035 86.6801 189.025C93.1062 187.984 99.9588 184.485 105.693 178.754C108.564 175.883 110.876 172.854 112.621 169.793L113.554 170.084C113.055 175.779 114.564 180.974 118.204 184.613L118.588 184.984C122.615 188.736 128.402 190.035 134.628 189.025C141.055 187.984 147.907 184.485 153.641 178.754C159.72 172.677 163.287 165.899 164.28 159.606C165.271 153.321 163.698 147.525 159.503 143.332C157.053 140.883 154.062 139.335 150.753 138.661L149.717 138.45L150.537 137.783C151.6 136.918 152.639 135.985 153.641 134.983C159.72 128.907 163.287 122.129 164.28 115.836C165.271 109.55 163.698 103.755 159.503 99.5615ZM113.554 126.313C113.055 132.008 114.564 137.203 118.204 140.843L118.664 141.282C120.997 143.427 123.908 144.755 127.148 145.299L128.23 145.48L127.382 146.178C126.259 147.102 125.151 148.107 124.066 149.191C121.381 151.876 119.183 154.807 117.5 157.825L116.564 157.548C116.942 152.065 115.289 147.065 111.554 143.332C109.104 140.883 106.113 139.334 102.803 138.661L101.767 138.45L102.587 137.783C103.651 136.918 104.69 135.985 105.693 134.983C108.564 132.113 110.876 129.084 112.621 126.022L113.554 126.313ZM112.463 128.214C110.824 130.774 108.802 133.29 106.4 135.69C105.618 136.473 104.813 137.212 103.992 137.912C107.096 138.716 109.914 140.279 112.262 142.625C115.774 146.136 117.532 150.692 117.612 155.673C119.184 153.163 121.104 150.738 123.359 148.484C124.208 147.635 125.072 146.834 125.947 146.08C122.947 145.413 120.224 144.075 117.987 142.02L117.497 141.55C114.042 138.095 112.423 133.368 112.463 128.214Z" fill="url(#paint2_radial_35_13)"/>
<path d="M192 150.5L192 149.5L32 149.5L32 150.5L192 150.5Z" fill="black"/>
<path d="M44.5 162L43.5 162L43.5 80L44.5 80L44.5 162Z" fill="black"/>
<path d="M32.5 150C32.5 143.649 37.6487 138.5 44 138.5C50.3513 138.5 55.5 143.649 55.5 150C55.5 156.351 50.3513 161.5 44 161.5C37.6487 161.5 32.5 156.351 32.5 150ZM31.5 150C31.5 156.904 37.0964 162.5 44 162.5C50.9036 162.5 56.5 156.904 56.5 150C56.5 143.096 50.9036 137.5 44 137.5C37.0964 137.5 31.5 143.096 31.5 150Z" fill="black"/>
<path d="M191 82H197V88H191V82Z" fill="black"/>
<path d="M194.5 43.5V84.5H153.5V43.5H194.5ZM154.5 83.5H193.5V44.5H154.5V83.5Z" fill="black"/>
<path d="M151 40H157V46H151V40Z" fill="black"/>
<path d="M151 82H157V88H151V82Z" fill="black"/>
<path d="M191 40H197V46H191V40Z" fill="black"/>
<path d="M188.354 77.6465L187.646 78.3535L159.646 50.3535L160.354 49.6465L188.354 77.6465Z" fill="black"/>
<path d="M188.354 50.3535L160.354 78.3535L159.646 77.6465L187.646 49.6465L188.354 50.3535Z" fill="black"/>
<defs>
<filter id="filter0_f_35_13" x="-9.15841" y="93.9536" width="268.348" height="191.727" filterUnits="userSpaceOnUse" color-interpolation-filters="sRGB">
<feFlood flood-opacity="0" result="BackgroundImageFix"/>
<feBlend mode="normal" in="SourceGraphic" in2="BackgroundImageFix" result="shape"/>
<feGaussianBlur stdDeviation="31.7521" result="effect1_foregroundBlur_35_13"/>
</filter>
<filter id="filter1_f_35_13" x="24.8865" y="23.4255" width="265.788" height="257.932" filterUnits="userSpaceOnUse" color-interpolation-filters="sRGB">
<feFlood flood-opacity="0" result="BackgroundImageFix"/>
<feBlend mode="normal" in="SourceGraphic" in2="BackgroundImageFix" result="shape"/>
<feGaussianBlur stdDeviation="23.0924" result="effect1_foregroundBlur_35_13"/>
</filter>
<filter id="filter2_f_35_13" x="-0.543579" y="110.993" width="225.672" height="203.438" filterUnits="userSpaceOnUse" color-interpolation-filters="sRGB">
<feFlood flood-opacity="0" result="BackgroundImageFix"/>
<feBlend mode="normal" in="SourceGraphic" in2="BackgroundImageFix" result="shape"/>
<feGaussianBlur stdDeviation="11.5462" result="effect1_foregroundBlur_35_13"/>
</filter>
<filter id="filter3_f_35_13" x="-56.6438" y="117.064" width="268.348" height="191.727" filterUnits="userSpaceOnUse" color-interpolation-filters="sRGB">
<feFlood flood-opacity="0" result="BackgroundImageFix"/>
<feBlend mode="normal" in="SourceGraphic" in2="BackgroundImageFix" result="shape"/>
<feGaussianBlur stdDeviation="31.7521" result="effect1_foregroundBlur_35_13"/>
</filter>
<filter id="filter4_f_35_13" x="82.2412" y="17.8691" width="377.87" height="407.172" filterUnits="userSpaceOnUse" color-interpolation-filters="sRGB">
<feFlood flood-opacity="0" result="BackgroundImageFix"/>
<feBlend mode="normal" in="SourceGraphic" in2="BackgroundImageFix" result="shape"/>
<feGaussianBlur stdDeviation="50" result="effect1_foregroundBlur_35_13"/>
</filter>
<filter id="filter5_f_35_13" x="-85.751" y="-7.55811" width="395.396" height="392.948" filterUnits="userSpaceOnUse" color-interpolation-filters="sRGB">
<feFlood flood-opacity="0" result="BackgroundImageFix"/>
<feBlend mode="normal" in="SourceGraphic" in2="BackgroundImageFix" result="shape"/>
<feGaussianBlur stdDeviation="50" result="effect1_foregroundBlur_35_13"/>
</filter>
<filter id="filter6_f_35_13" x="103.625" y="93.501" width="217.545" height="140.923" filterUnits="userSpaceOnUse" color-interpolation-filters="sRGB">
<feFlood flood-opacity="0" result="BackgroundImageFix"/>
<feBlend mode="normal" in="SourceGraphic" in2="BackgroundImageFix" result="shape"/>
<feGaussianBlur stdDeviation="19.0512" result="effect1_foregroundBlur_35_13"/>
</filter>
<linearGradient id="paint0_linear_35_13" x1="188.793" y1="137.755" x2="240.531" y2="234.754" gradientUnits="userSpaceOnUse">
<stop stop-color="white"/>
<stop offset="1" stop-color="white" stop-opacity="0"/>
</linearGradient>
<linearGradient id="paint1_linear_35_13" x1="56.2186" y1="86.7997" x2="136.526" y2="161.87" gradientUnits="userSpaceOnUse">
<stop stop-color="#027BFE"/>
<stop offset="1" stop-color="#027BFE" stop-opacity="0"/>
</linearGradient>
<radialGradient id="paint2_radial_35_13" cx="0" cy="0" r="1" gradientTransform="matrix(126.703 52.1781 -54.4654 121.374 72.3312 115.372)" gradientUnits="userSpaceOnUse">
<stop stop-color="white"/>
<stop offset="1" stop-color="white" stop-opacity="0"/>
</radialGradient>
</defs>
</svg>
