<svg width="230" height="230" viewBox="0 0 230 230" fill="none" xmlns="http://www.w3.org/2000/svg">
<g filter="url(#filter0_i_35_11)">
<mask id="mask0_35_11" style="mask-type:alpha" maskUnits="userSpaceOnUse" x="79" y="63" width="120" height="120">
<path d="M139 63.5C171.861 63.5002 198.499 90.1393 198.499 123C198.499 155.861 171.861 182.499 139 182.499C106.139 182.499 79.5002 155.861 79.5 123C79.5 90.1392 106.139 63.5 139 63.5Z" fill="black"/>
</mask>
<g mask="url(#mask0_35_11)">
<mask id="mask1_35_11" style="mask-type:alpha" maskUnits="userSpaceOnUse" x="-114" y="-53" width="708" height="399">
<rect x="-113.45" y="-52.2969" width="706.986" height="397.679" fill="white"/>
</mask>
<g mask="url(#mask1_35_11)">
<rect x="-225.133" y="-35.7312" width="543.854" height="305.918" fill="white"/>
<g filter="url(#filter1_f_35_11)">
<path d="M-19.4701 185.968C47.1527 260.669 110.407 321.706 80.4496 348.424C50.4921 375.142 -27.8016 336.244 -94.4244 261.543C-161.047 186.842 -173.579 92.7455 -143.621 66.0277C-113.664 39.3098 -86.0928 111.267 -19.4701 185.968Z" fill="#7FD169"/>
</g>
<g filter="url(#filter2_f_35_11)">
<path d="M-54.1881 97.1552C19.3478 29.2488 94.7446 -18.3066 27.6517 -90.9616C-39.4412 -163.617 -153.443 -167.466 -226.979 -99.5597C-300.515 -31.6533 -269.185 118.081 -202.092 190.736C-134.999 263.391 -127.724 165.062 -54.1881 97.1552Z" fill="#7FD169"/>
</g>
<g filter="url(#filter3_f_35_11)">
<path d="M229.069 276.379C302.605 208.473 378.001 160.918 310.909 88.2625C243.816 15.6075 129.813 11.758 56.2775 79.6644C-17.2585 147.571 14.0722 297.305 81.165 369.96C148.258 442.615 155.533 344.286 229.069 276.379Z" fill="#7FD169"/>
</g>
<g filter="url(#filter4_f_35_11)">
<path d="M-32.1683 -51.9076C-102.945 18.8696 -158.092 87.6852 -199.779 45.9983C-241.466 4.31151 -217.883 -86.8585 -147.106 -157.636C-76.329 -228.413 34.5554 -228.638 76.2423 -186.951C117.929 -145.264 38.6089 -122.685 -32.1683 -51.9076Z" fill="#7FD169"/>
</g>
<g filter="url(#filter5_f_35_11)">
<path d="M110.768 71.4344C181.545 0.65723 236.692 -68.1583 278.378 -26.4715C320.065 15.2153 296.483 106.385 225.706 177.163C154.929 247.94 44.0442 248.165 2.35732 206.478C-39.3295 164.791 39.9907 142.212 110.768 71.4344Z" fill="#7FD169"/>
</g>
<g filter="url(#filter6_f_35_11)">
<path d="M251.089 127.317C180.311 198.094 125.165 266.909 83.4779 225.223C41.7911 183.536 65.3734 92.3657 136.151 21.5885C206.928 -49.1887 317.812 -49.4134 359.499 -7.72659C401.186 33.9602 321.866 56.5395 251.089 127.317Z" fill="#7FD169"/>
</g>
<g filter="url(#filter7_f_35_11)">
<path d="M260.81 36.0955C356.515 131.801 350.842 352.165 292.821 410.186C234.801 468.207 110.181 437.658 14.4759 341.952C-81.2293 246.247 -79.3412 94.1163 -21.3204 36.0956C36.7003 -21.9252 165.105 -59.6097 260.81 36.0955Z" fill="url(#paint0_linear_35_11)"/>
</g>
<g filter="url(#filter8_f_35_11)">
<path d="M103.221 283.881C32.4442 354.658 -22.7024 423.473 -64.3892 381.786C-106.076 340.1 -82.4938 248.93 -11.7166 178.152C59.0606 107.375 169.945 107.15 211.632 148.837C253.319 190.524 173.999 213.103 103.221 283.881Z" fill="#7FD169"/>
</g>
<g filter="url(#filter9_f_35_11)">
<path d="M103.221 283.881C32.4442 354.658 -22.7024 423.473 -64.3892 381.786C-106.076 340.1 -82.4938 248.93 -11.7166 178.152C59.0606 107.375 169.945 107.15 211.632 148.837C253.319 190.524 173.999 213.103 103.221 283.881Z" fill="#7FD169"/>
</g>
<g filter="url(#filter10_f_35_11)">
<path d="M121.893 145.505C26.1878 241.21 31.8609 461.575 89.8817 519.596C147.902 577.616 272.522 547.067 368.227 451.362C463.932 355.657 462.044 203.526 404.024 145.505C346.003 87.4845 217.598 49.7999 121.893 145.505Z" fill="url(#paint1_linear_35_11)"/>
</g>
</g>
</g>
</g>
<path d="M197.499 123C197.499 90.6916 171.308 64.5002 139 64.5C106.692 64.5 80.5 90.6915 80.5 123C80.5002 155.308 106.692 181.499 139 181.499C171.308 181.499 197.499 155.308 197.499 123ZM198.499 123C198.499 155.861 171.861 182.499 139 182.499C106.139 182.499 79.5002 155.861 79.5 123C79.5 90.1392 106.139 63.5 139 63.5C171.861 63.5002 198.499 90.1393 198.499 123Z" fill="url(#paint2_radial_35_11)"/>
<g filter="url(#filter11_i_35_11)">
<mask id="mask2_35_11" style="mask-type:alpha" maskUnits="userSpaceOnUse" x="31" y="46" width="44" height="43">
<path d="M57.6768 47.0049C58.1627 46.0951 59.4011 45.9354 60.1016 46.6924L65.0254 52.0156C65.1884 52.1913 65.4538 52.2274 65.6572 52.1006L72.207 48.0137C73.2061 47.3904 74.501 48.1085 74.501 49.2861V86.001C74.5008 87.3813 73.3813 88.5007 72.001 88.501H34.001C32.6204 88.501 31.5002 87.3815 31.5 86.001V64.6562C31.5001 64.1388 31.7681 63.6577 32.207 63.3838L39.4209 58.8818C39.9069 58.5786 40.5238 58.5786 41.0098 58.8818L48.2988 63.4307C48.5442 63.5833 48.8686 63.4972 49.0049 63.2422L57.6768 47.0049Z" fill="black"/>
</mask>
<g mask="url(#mask2_35_11)">
<mask id="mask3_35_11" style="mask-type:alpha" maskUnits="userSpaceOnUse" x="-6" y="36" width="109" height="62">
<rect x="-5.79883" y="36.55" width="107.924" height="60.7072" fill="white"/>
</mask>
<g mask="url(#mask3_35_11)">
<rect x="-5.79883" y="36.5493" width="107.924" height="60.7072" fill="white"/>
<g filter="url(#filter12_f_35_11)">
<path d="M35.8971 78.1511C53.4539 82.2836 69.1005 84.7481 67.4433 91.789C65.786 98.8299 50.2099 101.188 32.6531 97.0551C15.0962 92.9226 3.51506 80.3338 5.17232 73.2929C6.82958 66.252 18.3402 74.0186 35.8971 78.1511Z" fill="#AAAAAA"/>
</g>
<g filter="url(#filter13_f_35_11)">
<path d="M41.2409 62.2365C58.1539 42.8991 71.0644 24.3026 82.6569 34.4417C94.2493 44.5807 89.9363 68.4761 73.0233 87.8136C56.1103 107.151 27.4486 108.872 15.8561 98.733C4.26359 88.5939 24.328 81.5739 41.2409 62.2365Z" fill="#AAAAAA"/>
</g>
<g filter="url(#filter14_f_35_11)">
<path d="M34.4636 83.7437C56.2644 97.3346 76.6915 107.094 68.544 120.163C60.3965 133.232 36.1186 132.809 14.3179 119.218C-7.48283 105.627 -13.7807 77.6133 -5.63322 64.5441C2.5143 51.4749 12.6629 70.1528 34.4636 83.7437Z" fill="#AAAAAA"/>
</g>
<g filter="url(#filter15_f_35_11)">
<path d="M14.8824 88.3784C32.4393 92.5108 48.0859 94.9754 46.4286 102.016C44.7714 109.057 29.1953 111.415 11.6384 107.282C-5.91844 103.15 -17.4996 90.5611 -15.8423 83.5202C-14.1851 76.4793 -2.67444 84.2459 14.8824 88.3784Z" fill="#AAAAAA"/>
</g>
<g filter="url(#filter16_f_35_11)">
<path d="M125.63 64.5421C144.622 83.5341 143.496 127.264 131.983 138.778C120.469 150.292 95.739 144.229 76.747 125.237C57.7549 106.245 58.1296 76.0559 69.6434 64.5421C81.1572 53.0283 106.638 45.5501 125.63 64.5421Z" fill="url(#paint3_linear_35_11)"/>
</g>
<g filter="url(#filter17_f_35_11)">
<path d="M-7.26255 98.9487C6.16685 122.209 48.698 132.44 62.7994 124.298C76.9009 116.157 77.4457 90.7005 64.0163 67.4401C50.5869 44.1797 21.3294 36.7281 7.2279 44.8696C-6.87357 53.0111 -20.692 75.6883 -7.26255 98.9487Z" fill="url(#paint4_linear_35_11)"/>
</g>
<g filter="url(#filter18_f_35_11)">
<path d="M74.568 66.7119C92.1248 70.8443 107.771 73.3089 106.114 80.3498C104.457 87.3906 88.8808 89.7484 71.324 85.6159C53.7671 81.4834 42.186 68.8946 43.8432 61.8537C45.5005 54.8128 57.0111 62.5794 74.568 66.7119Z" fill="#AAAAAA"/>
</g>
</g>
</g>
</g>
<path d="M73.5 49.2852C73.5 48.8928 73.0684 48.6529 72.7354 48.8604L66.1865 52.9483C65.5758 53.3295 64.78 53.2228 64.291 52.6944L59.3662 47.3712C59.1329 47.1189 58.7207 47.1718 58.5586 47.4747L49.8857 63.712C49.4768 64.4777 48.505 64.7378 47.7686 64.2784L40.4795 59.7296C40.3175 59.6285 40.1112 59.6285 39.9492 59.7296L32.7354 64.2315C32.5891 64.3228 32.5001 64.483 32.5 64.6553V86.0001C32.5 86.8285 33.1716 87.5001 34 87.5001H72C72.8284 87.5001 73.5 86.8285 73.5 86.0001V49.2852ZM74.5 86.0001C74.5 87.3808 73.3807 88.5001 72 88.5001H34C32.6193 88.5001 31.5 87.3808 31.5 86.0001V64.6553C31.5001 64.1379 31.7671 63.6568 32.2061 63.3829L39.4199 58.8809C39.9059 58.5776 40.5228 58.5776 41.0088 58.8809L48.2979 63.4298C48.5433 63.5829 48.8676 63.4965 49.0039 63.2413L57.6758 47.004C58.1617 46.0942 59.4002 45.9345 60.1006 46.6915L65.0244 52.0147C65.1873 52.1908 65.4527 52.2266 65.6562 52.0997L72.2061 48.0128C73.2052 47.3893 74.5 48.1075 74.5 49.2852V86.0001Z" fill="url(#paint5_radial_35_11)"/>
<path d="M73.5002 96C73.5002 95.1716 72.8286 94.5 72.0002 94.5H37.801C37.3519 94.5003 37.1307 95.0469 37.4533 95.3594L51.5773 109.02C52.2235 109.645 51.781 110.738 50.882 110.738H35.4728C35.0233 110.738 34.8021 111.285 35.1252 111.598L55.1887 131.001C55.506 131.308 56.0353 131.083 56.0353 130.642V115.689C56.0353 114.807 57.096 114.357 57.7307 114.971L72.6525 129.402C72.9698 129.709 73.5002 129.484 73.5002 129.043V96ZM74.5002 129.043C74.5002 130.367 72.9091 131.042 71.9572 130.121L57.0353 115.689V130.642C57.0353 131.966 55.4453 132.64 54.4933 131.72L34.4299 112.316C33.4606 111.379 34.1244 109.738 35.4728 109.738H50.882L36.759 96.0781C35.7898 95.1408 36.4528 93.5003 37.801 93.5H72.0002C73.3809 93.5 74.5002 94.6193 74.5002 96V129.043Z" fill="black"/>
<path d="M167.225 103.414C168.006 102.633 169.273 102.633 170.055 103.414L174.297 107.656C175.078 108.437 175.078 109.703 174.297 110.484L134.699 150.083C134.087 150.695 133.177 150.825 132.436 150.478C132.374 150.448 132.313 150.415 132.253 150.379C132.215 150.356 132.177 150.332 132.14 150.306C132.046 150.24 131.954 150.167 131.87 150.082L106.414 124.626C105.633 123.845 105.633 122.579 106.414 121.798L110.656 117.555C111.437 116.774 112.704 116.774 113.485 117.555L131.87 135.94C132.651 136.721 133.917 136.721 134.698 135.94L167.225 103.414Z" fill="url(#paint6_radial_35_11)"/>
<defs>
<filter id="filter0_i_35_11" x="79.5" y="63.5" width="120.134" height="120.134" filterUnits="userSpaceOnUse" color-interpolation-filters="sRGB">
<feFlood flood-opacity="0" result="BackgroundImageFix"/>
<feBlend mode="normal" in="SourceGraphic" in2="BackgroundImageFix" result="shape"/>
<feColorMatrix in="SourceAlpha" type="matrix" values="0 0 0 0 0 0 0 0 0 0 0 0 0 0 0 0 0 0 127 0" result="hardAlpha"/>
<feOffset dx="1.13461" dy="1.13461"/>
<feGaussianBlur stdDeviation="5.67303"/>
<feComposite in2="hardAlpha" operator="arithmetic" k2="-1" k3="1"/>
<feColorMatrix type="matrix" values="0 0 0 0 1 0 0 0 0 1 0 0 0 0 1 0 0 0 0.8 0"/>
<feBlend mode="normal" in2="shape" result="effect1_innerShadow_35_11"/>
</filter>
<filter id="filter1_f_35_11" x="-295.528" y="-76.2034" width="520.163" height="569.598" filterUnits="userSpaceOnUse" color-interpolation-filters="sRGB">
<feFlood flood-opacity="0" result="BackgroundImageFix"/>
<feBlend mode="normal" in="SourceGraphic" in2="BackgroundImageFix" result="shape"/>
<feGaussianBlur stdDeviation="68.2701" result="effect1_foregroundBlur_35_11"/>
</filter>
<filter id="filter2_f_35_11" x="-351.239" y="-229.999" width="486.841" height="528.238" filterUnits="userSpaceOnUse" color-interpolation-filters="sRGB">
<feFlood flood-opacity="0" result="BackgroundImageFix"/>
<feBlend mode="normal" in="SourceGraphic" in2="BackgroundImageFix" result="shape"/>
<feGaussianBlur stdDeviation="40.962" result="effect1_foregroundBlur_35_11"/>
</filter>
<filter id="filter3_f_35_11" x="-67.9817" y="-50.7744" width="486.841" height="528.238" filterUnits="userSpaceOnUse" color-interpolation-filters="sRGB">
<feFlood flood-opacity="0" result="BackgroundImageFix"/>
<feBlend mode="normal" in="SourceGraphic" in2="BackgroundImageFix" result="shape"/>
<feGaussianBlur stdDeviation="40.962" result="effect1_foregroundBlur_35_11"/>
</filter>
<filter id="filter4_f_35_11" x="-302.303" y="-297.127" width="472.015" height="437.698" filterUnits="userSpaceOnUse" color-interpolation-filters="sRGB">
<feFlood flood-opacity="0" result="BackgroundImageFix"/>
<feBlend mode="normal" in="SourceGraphic" in2="BackgroundImageFix" result="shape"/>
<feGaussianBlur stdDeviation="40.962" result="effect1_foregroundBlur_35_11"/>
</filter>
<filter id="filter5_f_35_11" x="-91.1125" y="-121.044" width="472.015" height="437.698" filterUnits="userSpaceOnUse" color-interpolation-filters="sRGB">
<feFlood flood-opacity="0" result="BackgroundImageFix"/>
<feBlend mode="normal" in="SourceGraphic" in2="BackgroundImageFix" result="shape"/>
<feGaussianBlur stdDeviation="40.962" result="effect1_foregroundBlur_35_11"/>
</filter>
<filter id="filter6_f_35_11" x="-19.0461" y="-117.903" width="472.015" height="437.698" filterUnits="userSpaceOnUse" color-interpolation-filters="sRGB">
<feFlood flood-opacity="0" result="BackgroundImageFix"/>
<feBlend mode="normal" in="SourceGraphic" in2="BackgroundImageFix" result="shape"/>
<feGaussianBlur stdDeviation="40.962" result="effect1_foregroundBlur_35_11"/>
</filter>
<filter id="filter7_f_35_11" x="-161.777" y="-122.393" width="596.667" height="661.967" filterUnits="userSpaceOnUse" color-interpolation-filters="sRGB">
<feFlood flood-opacity="0" result="BackgroundImageFix"/>
<feBlend mode="normal" in="SourceGraphic" in2="BackgroundImageFix" result="shape"/>
<feGaussianBlur stdDeviation="50" result="effect1_foregroundBlur_35_11"/>
</filter>
<filter id="filter8_f_35_11" x="-166.913" y="38.6609" width="472.015" height="437.698" filterUnits="userSpaceOnUse" color-interpolation-filters="sRGB">
<feFlood flood-opacity="0" result="BackgroundImageFix"/>
<feBlend mode="normal" in="SourceGraphic" in2="BackgroundImageFix" result="shape"/>
<feGaussianBlur stdDeviation="40.962" result="effect1_foregroundBlur_35_11"/>
</filter>
<filter id="filter9_f_35_11" x="-134.64" y="70.934" width="407.469" height="373.152" filterUnits="userSpaceOnUse" color-interpolation-filters="sRGB">
<feFlood flood-opacity="0" result="BackgroundImageFix"/>
<feBlend mode="normal" in="SourceGraphic" in2="BackgroundImageFix" result="shape"/>
<feGaussianBlur stdDeviation="24.8255" result="effect1_foregroundBlur_35_11"/>
</filter>
<filter id="filter10_f_35_11" x="-52.1865" y="-12.9836" width="596.667" height="661.967" filterUnits="userSpaceOnUse" color-interpolation-filters="sRGB">
<feFlood flood-opacity="0" result="BackgroundImageFix"/>
<feBlend mode="normal" in="SourceGraphic" in2="BackgroundImageFix" result="shape"/>
<feGaussianBlur stdDeviation="50" result="effect1_foregroundBlur_35_11"/>
</filter>
<filter id="filter11_i_35_11" x="31.5" y="46.2112" width="43.3856" height="42.6744" filterUnits="userSpaceOnUse" color-interpolation-filters="sRGB">
<feFlood flood-opacity="0" result="BackgroundImageFix"/>
<feBlend mode="normal" in="SourceGraphic" in2="BackgroundImageFix" result="shape"/>
<feColorMatrix in="SourceAlpha" type="matrix" values="0 0 0 0 0 0 0 0 0 0 0 0 0 0 0 0 0 0 127 0" result="hardAlpha"/>
<feOffset dx="0.384615" dy="0.384615"/>
<feGaussianBlur stdDeviation="1.92308"/>
<feComposite in2="hardAlpha" operator="arithmetic" k2="-1" k3="1"/>
<feColorMatrix type="matrix" values="0 0 0 0 1 0 0 0 0 1 0 0 0 0 1 0 0 0 0.8 0"/>
<feBlend mode="normal" in2="shape" result="effect1_innerShadow_35_11"/>
</filter>
<filter id="filter12_f_35_11" x="-21.7522" y="43.6868" width="116.084" height="82.1712" filterUnits="userSpaceOnUse" color-interpolation-filters="sRGB">
<feFlood flood-opacity="0" result="BackgroundImageFix"/>
<feBlend mode="normal" in="SourceGraphic" in2="BackgroundImageFix" result="shape"/>
<feGaussianBlur stdDeviation="13.3834" result="effect1_foregroundBlur_35_11"/>
</filter>
<filter id="filter13_f_35_11" x="-7.04884" y="12.114" width="115.679" height="112.195" filterUnits="userSpaceOnUse" color-interpolation-filters="sRGB">
<feFlood flood-opacity="0" result="BackgroundImageFix"/>
<feBlend mode="normal" in="SourceGraphic" in2="BackgroundImageFix" result="shape"/>
<feGaussianBlur stdDeviation="9.7334" result="effect1_foregroundBlur_35_11"/>
</filter>
<filter id="filter14_f_35_11" x="-18.79" y="50.3774" width="98.8975" height="89.0508" filterUnits="userSpaceOnUse" color-interpolation-filters="sRGB">
<feFlood flood-opacity="0" result="BackgroundImageFix"/>
<feBlend mode="normal" in="SourceGraphic" in2="BackgroundImageFix" result="shape"/>
<feGaussianBlur stdDeviation="4.8667" result="effect1_foregroundBlur_35_11"/>
</filter>
<filter id="filter15_f_35_11" x="-42.7669" y="53.9141" width="116.084" height="82.1712" filterUnits="userSpaceOnUse" color-interpolation-filters="sRGB">
<feFlood flood-opacity="0" result="BackgroundImageFix"/>
<feBlend mode="normal" in="SourceGraphic" in2="BackgroundImageFix" result="shape"/>
<feGaussianBlur stdDeviation="13.3834" result="effect1_foregroundBlur_35_11"/>
</filter>
<filter id="filter16_f_35_11" x="-38.3848" y="-47.0647" width="278.716" height="291.674" filterUnits="userSpaceOnUse" color-interpolation-filters="sRGB">
<feFlood flood-opacity="0" result="BackgroundImageFix"/>
<feBlend mode="normal" in="SourceGraphic" in2="BackgroundImageFix" result="shape"/>
<feGaussianBlur stdDeviation="50" result="effect1_foregroundBlur_35_11"/>
</filter>
<filter id="filter17_f_35_11" x="-112.729" y="-58.3147" width="286.472" height="285.38" filterUnits="userSpaceOnUse" color-interpolation-filters="sRGB">
<feFlood flood-opacity="0" result="BackgroundImageFix"/>
<feBlend mode="normal" in="SourceGraphic" in2="BackgroundImageFix" result="shape"/>
<feGaussianBlur stdDeviation="50" result="effect1_foregroundBlur_35_11"/>
</filter>
<filter id="filter18_f_35_11" x="27.6254" y="42.9543" width="94.67" height="60.7577" filterUnits="userSpaceOnUse" color-interpolation-filters="sRGB">
<feFlood flood-opacity="0" result="BackgroundImageFix"/>
<feBlend mode="normal" in="SourceGraphic" in2="BackgroundImageFix" result="shape"/>
<feGaussianBlur stdDeviation="8.03006" result="effect1_foregroundBlur_35_11"/>
</filter>
<linearGradient id="paint0_linear_35_11" x1="-47.1678" y1="21.9497" x2="68.1952" y2="238.255" gradientUnits="userSpaceOnUse">
<stop stop-color="white" stop-opacity="0.3"/>
<stop offset="1" stop-color="white" stop-opacity="0"/>
</linearGradient>
<linearGradient id="paint1_linear_35_11" x1="455.711" y1="197.192" x2="111.594" y2="541.308" gradientUnits="userSpaceOnUse">
<stop stop-color="white"/>
<stop offset="1" stop-color="white" stop-opacity="0"/>
</linearGradient>
<radialGradient id="paint2_radial_35_11" cx="0" cy="0" r="1" gradientTransform="matrix(149.427 64.2325 -64.2337 149.415 88.632 90.3094)" gradientUnits="userSpaceOnUse">
<stop stop-color="white"/>
<stop offset="1" stop-color="white" stop-opacity="0"/>
</radialGradient>
<linearGradient id="paint3_linear_35_11" x1="64.5142" y1="61.735" x2="87.4072" y2="104.659" gradientUnits="userSpaceOnUse">
<stop stop-color="white"/>
<stop offset="1" stop-color="white" stop-opacity="0"/>
</linearGradient>
<linearGradient id="paint4_linear_35_11" x1="5.84395" y1="39.1886" x2="41.3805" y2="72.4111" gradientUnits="userSpaceOnUse">
<stop stop-color="#AAAAAA"/>
<stop offset="1" stop-color="#AAAAAA" stop-opacity="0"/>
</linearGradient>
<radialGradient id="paint5_radial_35_11" cx="0" cy="0" r="1" gradientTransform="matrix(53.1863 22.8625 -22.863 53.1819 35.0724 55.3645)" gradientUnits="userSpaceOnUse">
<stop stop-color="white"/>
<stop offset="1" stop-color="white" stop-opacity="0"/>
</radialGradient>
<radialGradient id="paint6_radial_35_11" cx="0" cy="0" r="1" gradientTransform="matrix(69.5803 -22.5892 22.2996 49.087 94.5508 158.232)" gradientUnits="userSpaceOnUse">
<stop stop-color="white"/>
<stop offset="1" stop-color="white" stop-opacity="0.5"/>
</radialGradient>
</defs>
</svg>
