<svg viewBox="0 0 56 56" width="56" height="56" fill="none" xmlns="http://www.w3.org/2000/svg"><path fill-rule="evenodd" clip-rule="evenodd" d="M27.888 3.888c-13.288 0-24.06 10.773-24.06 24.061h14.57l9.49-15.67 9.49 15.67H51.95c0-13.288-10.773-24.06-24.062-24.06z" fill="#FFCF00"/><path fill-rule="evenodd" clip-rule="evenodd" d="M9.211 43.12a23.961 23.961 0 0 1-5.384-15.17h14.571L9.211 43.12zM51.95 27.95a23.961 23.961 0 0 1-5.385 15.17l-9.187-15.17H51.95z" fill="#3BA8FF"/><path d="M27.889 12.28l-9.49 15.67h18.98l-9.49-15.67z" fill="red"/><path fill-rule="evenodd" clip-rule="evenodd" d="M27.879 52.01c-7.534-.002-14.258-3.468-18.668-8.89l9.187-15.17h18.98l9.187 15.17c-4.41 5.422-11.133 8.888-18.667 8.89h-.02z" fill="#4643B9"/></svg>