<svg width="56" height="56" viewBox="0 0 56 56" fill="none" xmlns="http://www.w3.org/2000/svg"><path d="M4.025 32.4a8.382 8.382 0 0 1 0-8.8l9.089-14.645c1.445-2.329 3.934-3.736 6.607-3.736h16.558c2.672 0 5.162 1.407 6.607 3.736L51.975 23.6a8.382 8.382 0 0 1 0 8.8l-9.09 14.645c-1.444 2.328-3.933 3.736-6.606 3.736H19.72c-2.672 0-5.162-1.407-6.607-3.736L4.025 32.4Z" fill="#027BF3"/><g clip-path="url(#clip0_2274_4680)"><path d="M39.39 28c0 6.29-5.1 11.39-11.39 11.39-6.29 0-11.39-5.1-11.39-11.39 0-6.29 5.1-11.39 11.39-11.39 6.29 0 11.39 5.1 11.39 11.39Z" stroke="#fff" stroke-width="3.254" stroke-linecap="round" stroke-linejoin="round"/><path fill-rule="evenodd" clip-rule="evenodd" d="M26.373 21.491h3.254v17.9h-3.254v-17.9Zm-2.441 4.882h-3.255v11.39h3.255v-11.39ZM35.322 28h-3.254v9.763h3.255V28Z" fill="#fff"/><path d="M28 37.763c5.392 0 9.763-4.37 9.763-9.763 0-5.392-4.37-9.763-9.763-9.763-5.392 0-9.763 4.37-9.763 9.763 0 5.392 4.37 9.763 9.763 9.763Z" stroke="#027BF3" stroke-width="1.627" stroke-linecap="round" stroke-linejoin="round"/></g><defs><clipPath id="clip0_2274_4680"><path fill="#fff" transform="translate(14.982 14.982)" d="M0 0h26.036v26.036H0z"/></clipPath></defs></svg>