<svg width="56" height="56" viewBox="0 0 56 56" fill="none" xmlns="http://www.w3.org/2000/svg"><rect x="9" y="9" width="38" height="38" rx="6" fill="url(#paint0_linear_2620_4787)"/><path fill-rule="evenodd" clip-rule="evenodd" d="M36.324 37.267H20.513c-.135 0-.27-.005-.402-.015-3.573-.083-6.445-3.04-6.445-6.674a6.72 6.72 0 0 1 1.936-4.723 6.594 6.594 0 0 1 2.203-1.471 7.091 7.091 0 0 1 2.023-5.53 6.925 6.925 0 0 1 4.927-2.061c2.367.003 4.456 1.2 5.712 3.028a5.631 5.631 0 0 1 1.907-.33c2.954.004 5.38 2.283 5.662 5.197 2.83.624 4.949 3.176 4.946 6.227-.002 3.516-2.82 6.364-6.295 6.362a6.24 6.24 0 0 1-.363-.01Z" fill="#fff"/><path fill-rule="evenodd" clip-rule="evenodd" d="M28.695 22.916a5.455 5.455 0 1 1 0 10.91 5.455 5.455 0 0 1 0-10.91Z" fill="url(#paint1_linear_2620_4787)"/><path fill-rule="evenodd" clip-rule="evenodd" d="M29.104 28.08h1.854c.389-.001.705.287.706.644a.622.622 0 0 1-.208.457.736.736 0 0 1-.498.187h-2.474a.77.77 0 0 1-.085.005c-.39 0-.706-.29-.706-.649v-3.16c0-.17.075-.335.208-.456a.736.736 0 0 1 .497-.188c.389-.001.705.287.706.645v2.515Z" fill="#fff"/><defs><linearGradient id="paint0_linear_2620_4787" x1="9" y1="9" x2="9" y2="47" gradientUnits="userSpaceOnUse"><stop stop-color="#7BD4FB"/><stop offset="1" stop-color="#2BB7F5"/></linearGradient><linearGradient id="paint1_linear_2620_4787" x1="34.15" y1="33.826" x2="34.15" y2="22.916" gradientUnits="userSpaceOnUse"><stop stop-color="#61DF00"/><stop offset="1" stop-color="#4CCA00"/></linearGradient></defs></svg>