<svg width="56" height="56" viewBox="0 0 56 56" fill="none" xmlns="http://www.w3.org/2000/svg"><path d="M28 52c13.255 0 24-10.745 24-24S41.255 4 28 4 4 14.745 4 28s10.745 24 24 24Z" fill="#5282FF"/><path fill-rule="evenodd" clip-rule="evenodd" d="M34.75 22h-13.5A2.25 2.25 0 0 0 19 24.25h18A2.25 2.25 0 0 0 34.75 22ZM19 31.75V26.5h18v5.25A2.25 2.25 0 0 1 34.75 34h-13.5A2.25 2.25 0 0 1 19 31.75Zm2.25-12a4.5 4.5 0 0 0-4.5 4.5v7.5a4.5 4.5 0 0 0 4.5 4.5h13.5a4.5 4.5 0 0 0 4.5-4.5v-7.5a4.5 4.5 0 0 0-4.5-4.5h-13.5Zm1.125 9.75a1.125 1.125 0 0 0 0 2.25h3.75a1.125 1.125 0 0 0 0-2.25h-3.75Z" fill="#fff"/></svg>