<svg width="56" height="56" viewBox="0 0 56 56" fill="none" xmlns="http://www.w3.org/2000/svg">
<rect opacity="0.01" width="56" height="56" fill="white"/>
<path d="M28 52C41.2548 52 52 41.2548 52 28C52 14.7452 41.2548 4 28 4C14.7452 4 4 14.7452 4 28C4 41.2548 14.7452 52 28 52Z" fill="#5ECF71"/>
<path d="M22.755 29.695C22.755 30.325 22.655 30.915 22.455 31.465C22.265 32.005 21.975 32.475 21.585 32.875C21.195 33.265 20.7 33.575 20.1 33.805C19.51 34.035 18.815 34.15 18.015 34.15C17.215 34.15 16.49 34.025 15.84 33.775C15.19 33.515 14.63 33.145 14.16 32.665C13.7 32.185 13.34 31.605 13.08 30.925C12.83 30.245 12.705 29.48 12.705 28.63C12.705 27.78 12.83 27.015 13.08 26.335C13.33 25.655 13.695 25.075 14.175 24.595C14.665 24.115 15.265 23.75 15.975 23.5C16.695 23.24 17.52 23.11 18.45 23.11C18.9 23.11 19.3 23.135 19.65 23.185C20.01 23.235 20.33 23.305 20.61 23.395C20.89 23.475 21.14 23.57 21.36 23.68C21.58 23.78 21.78 23.88 21.96 23.98V25.825C21.51 25.565 21.015 25.345 20.475 25.165C19.935 24.985 19.295 24.895 18.555 24.895C17.275 24.895 16.35 25.225 15.78 25.885C15.22 26.535 14.94 27.45 14.94 28.63C14.94 29.82 15.205 30.74 15.735 31.39C16.275 32.04 17.04 32.365 18.03 32.365C18.48 32.365 18.865 32.305 19.185 32.185C19.515 32.055 19.785 31.885 19.995 31.675C20.205 31.455 20.355 31.2 20.445 30.91C20.545 30.61 20.595 30.29 20.595 29.95H17.715V28.165H22.755V29.695Z" fill="white"/>
<path d="M24.3922 23.245H31.5472V25.045H26.5372V27.55H30.7672V29.335H26.5372V32.215H31.6222V34H24.3922V23.245Z" fill="white"/>
<path d="M38.0091 34.15C37.2691 34.15 36.5791 34.035 35.9391 33.805C35.2991 33.565 34.7441 33.215 34.2741 32.755C33.8041 32.285 33.4291 31.71 33.1491 31.03C32.8791 30.34 32.7441 29.545 32.7441 28.645C32.7441 27.745 32.8791 26.955 33.1491 26.275C33.4291 25.585 33.8041 25.005 34.2741 24.535C34.7441 24.065 35.2991 23.71 35.9391 23.47C36.5791 23.23 37.2691 23.11 38.0091 23.11C38.7491 23.11 39.4391 23.23 40.0791 23.47C40.7191 23.7 41.2741 24.045 41.7441 24.505C42.2241 24.965 42.5991 25.535 42.8691 26.215C43.1491 26.895 43.2891 27.685 43.2891 28.585C43.2891 29.485 43.1491 30.28 42.8691 30.97C42.5991 31.66 42.2241 32.24 41.7441 32.71C41.2741 33.18 40.7191 33.54 40.0791 33.79C39.4391 34.03 38.7491 34.15 38.0091 34.15ZM38.0091 32.365C38.4491 32.365 38.8541 32.3 39.2241 32.17C39.5941 32.03 39.9141 31.815 40.1841 31.525C40.4541 31.225 40.6641 30.84 40.8141 30.37C40.9741 29.89 41.0541 29.31 41.0541 28.63C41.0541 27.95 40.9741 27.375 40.8141 26.905C40.6641 26.425 40.4541 26.04 40.1841 25.75C39.9141 25.45 39.5941 25.235 39.2241 25.105C38.8541 24.965 38.4491 24.895 38.0091 24.895C37.5791 24.895 37.1791 24.965 36.8091 25.105C36.4391 25.235 36.1191 25.45 35.8491 25.75C35.5791 26.04 35.3641 26.425 35.2041 26.905C35.0541 27.375 34.9791 27.95 34.9791 28.63C34.9791 29.31 35.0541 29.89 35.2041 30.37C35.3641 30.84 35.5791 31.225 35.8491 31.525C36.1191 31.815 36.4391 32.03 36.8091 32.17C37.1791 32.3 37.5791 32.365 38.0091 32.365Z" fill="white"/>
</svg>
