<svg width="56" height="56" viewBox="0 0 56 56" fill="none" xmlns="http://www.w3.org/2000/svg"><path d="M15.105 12.763c0-.974.79-1.763 1.763-1.763h25.1c.624 0 1.202.33 1.52.867L53 28l-9.513 16.133a1.763 1.763 0 0 1-1.519.867h-25.1c-.973 0-1.763-.79-1.763-1.763V12.763Z" fill="#FC0"/><path opacity=".9" fill-rule="evenodd" clip-rule="evenodd" d="M26.823 25.568c-.737 0-1.402-.108-1.995-.325a4.198 4.198 0 0 1-1.521-.942 4.138 4.138 0 0 1-.969-1.502c-.225-.59-.338-1.261-.338-2.015 0-.754.11-1.426.331-2.015.221-.59.54-1.09.956-1.502.416-.411.92-.725 1.515-.942.593-.217 1.267-.325 2.021-.325.65 0 1.194.058 1.631.175.438.117.783.25 1.034.397v1.599a3.909 3.909 0 0 0-1.118-.455 5.83 5.83 0 0 0-1.443-.169c-1.023 0-1.777.269-2.262.806-.485.537-.728 1.348-.728 2.431 0 2.158 1.005 3.237 3.016 3.237.52 0 .995-.059 1.424-.175.428-.117.799-.284 1.111-.501v1.56c-.234.173-.574.327-1.02.461-.447.135-.995.202-1.645.202Zm10.049-3.991h-4.03v3.861h-1.859v-9.321h1.859v3.913h4.03v-3.913h1.859v9.321h-1.859v-3.861Z" fill="#000"/><path fill-rule="evenodd" clip-rule="evenodd" d="M27.901 35.382v3.939h-1.872v-3.926L23 30h2.054l2.028 3.783L29.175 30h1.729l-3.003 5.382Zm8.151-3.822v7.761h-1.859V31.56h-2.795V30h7.449v1.56h-2.795Z" fill="#000"/><path fill="#FC0" d="M5 11h5.053v34H5z"/><path d="M5 39.963h5.053V45H5v-5.037Z" fill="#FF0400"/></svg>