<svg width="56" height="56" viewBox="0 0 56 56" fill="none" xmlns="http://www.w3.org/2000/svg"><g clip-path="url(#clip0_2902_10384)"><g clip-path="url(#clip1_2902_10384)"><rect x="9" y="9" width="38" height="38" rx="6" fill="#FC0"/><path d="M15.876 32.928c-.855 0-1.594-.186-2.215-.558a3.743 3.743 0 0 1-1.431-1.562c-.332-.668-.499-1.446-.499-2.333 0-.887.167-1.665.499-2.334a3.744 3.744 0 0 1 1.43-1.561c.622-.372 1.36-.558 2.216-.558.981 0 1.805.243 2.47.73.669.487 1.14 1.146 1.413 1.977l-1.627.452c-.158-.519-.426-.92-.802-1.206-.376-.289-.86-.433-1.454-.433-.543 0-.996.12-1.36.362-.36.241-.631.582-.813 1.021-.183.44-.274.956-.274 1.55 0 .594.091 1.11.274 1.55.182.439.453.78.813 1.02.364.242.817.363 1.36.363.593 0 1.078-.144 1.454-.433.376-.29.644-.691.802-1.206l1.627.452c-.273.83-.744 1.49-1.413 1.977-.665.487-1.489.73-2.47.73ZM21.066 32.75V24.2h1.615v3.515h3.824V24.2h1.615v8.55h-1.615v-3.527H22.68v3.527h-1.615ZM31.877 32.75v-3.48l-2.921-5.07h1.888l1.852 3.218L34.55 24.2h1.888l-2.921 5.07v3.48h-1.64ZM39.61 32.75v-7.042h-2.696V24.2h7.006v1.508h-2.696v7.042H39.61Z" fill="#000" fill-opacity=".85"/></g></g><defs><clipPath id="clip0_2902_10384"><path fill="#fff" d="M0 0h56v56H0z"/></clipPath><clipPath id="clip1_2902_10384"><path fill="#fff" d="M0 0h56v56H0z"/></clipPath></defs></svg>