<svg width="56" height="56" viewBox="0 0 56 56" fill="none" xmlns="http://www.w3.org/2000/svg"><g clip-path="url(#clip0_2678_10351)"><path opacity=".01" fill="#fff" d="M0 0h56v56H0z"/><path d="M15.105 12.763c0-.974.79-1.763 1.763-1.763h25.1c.624 0 1.202.33 1.52.867L53 28l-9.513 16.133a1.763 1.763 0 0 1-1.519.867h-25.1c-.973 0-1.763-.79-1.763-1.763V12.763ZM5 11h5.053v34H5z" fill="#FC0"/><path d="M5 39.963h5.053V45H5v-5.037Z" fill="#FF0400"/><path fill-rule="evenodd" clip-rule="evenodd" d="M33.5 23.625a2.5 2.5 0 1 1-5 0 2.5 2.5 0 0 1 5 0Zm1.875 0a4.375 4.375 0 1 1-8.75 0 4.375 4.375 0 0 1 8.75 0Zm-11.25 10c0-.256.275-1.011 1.65-1.823C27.046 31.049 28.9 30.5 31 30.5c2.1 0 3.953.55 5.225 1.302 1.375.812 1.65 1.567 1.65 1.823 0 .69-.56 1.25-1.25 1.25h-11.25c-.69 0-1.25-.56-1.25-1.25Zm6.875-5c-4.813 0-8.75 2.5-8.75 5 0 1.726 1.4 3.125 3.125 3.125h11.25c1.726 0 3.125-1.4 3.125-3.125 0-2.5-3.938-5-8.75-5Z" fill="#000" fill-opacity=".85"/></g><defs><clipPath id="clip0_2678_10351"><path fill="#fff" d="M0 0h56v56H0z"/></clipPath></defs></svg>