<svg width="56" height="56" viewBox="0 0 56 56" fill="none" xmlns="http://www.w3.org/2000/svg"><g clip-path="url(#clip0_2678_10311)"><path d="M15.105 12.763c0-.974.79-1.763 1.763-1.763h25.1c.624 0 1.202.33 1.52.867L53 28l-9.513 16.133a1.763 1.763 0 0 1-1.519.867h-25.1c-.973 0-1.763-.79-1.763-1.763V12.763ZM5 11h5.053v34H5z" fill="#FC0"/><path d="M5 39.963h5.053V45H5v-5.037Z" fill="#FF0400"/><path fill-rule="evenodd" clip-rule="evenodd" d="m33.891 27.36-1.641.207v6.712a.625.625 0 0 1-.441.597l-2.025.623a.032.032 0 0 1-.015 0h-.002a.03.03 0 0 1-.01-.007.031.031 0 0 1-.006-.009v-.004l-.001-.005v-7.907l-1.641-.207a1.876 1.876 0 0 1-1.59-1.43l-.734-3.126A1.875 1.875 0 0 1 27.61 20.5h6.78a1.875 1.875 0 0 1 1.825 2.304l-.735 3.125a1.875 1.875 0 0 1-1.589 1.431Zm3.414-1.001a3.75 3.75 0 0 1-3.18 2.862v5.058a2.5 2.5 0 0 1-1.765 2.39l-2.024.622a1.904 1.904 0 0 1-2.461-1.817V29.22a3.75 3.75 0 0 1-3.18-2.862l-.736-3.125a3.75 3.75 0 0 1 3.65-4.609h6.781a3.75 3.75 0 0 1 3.65 4.609l-.735 3.125Zm-7.867-3.984a.937.937 0 1 0 0 1.875h3.125a.937.937 0 1 0 0-1.875h-3.126Z" fill="#000" fill-opacity=".85"/></g><defs><clipPath id="clip0_2678_10311"><path fill="#fff" d="M0 0h56v56H0z"/></clipPath></defs></svg>