<svg width="56" height="56" viewBox="0 0 56 56" fill="none" xmlns="http://www.w3.org/2000/svg"><path fill-rule="evenodd" clip-rule="evenodd" d="M33.82 7h-22v42h34V19l-12-12Z" fill="#43A047"/><path d="M32.898 5H13.316a5.02 5.02 0 0 0-3.462 1.367 4.559 4.559 0 0 0-1.434 3.3V47c0 1.238.516 2.425 1.434 3.3a5.02 5.02 0 0 0 3.462 1.367H42.69A5.02 5.02 0 0 0 46.15 50.3a4.559 4.559 0 0 0 1.434-3.3V19L32.898 5Z" fill="#43A047"/><path fill-rule="evenodd" clip-rule="evenodd" d="M22.084 28.312a1.538 1.538 0 0 0-.216-.594 1.937 1.937 0 0 0-.99-.792 1.959 1.959 0 0 0-.666-.114c-.424 0-.784.082-1.08.246a2.04 2.04 0 0 0-.72.66c-.184.276-.318.59-.402.942a4.688 4.688 0 0 0-.126 1.092c0 .36.042.71.126 1.05.084.34.218.646.402.918.184.272.424.49.72.654.296.164.656.246 1.08.246.576 0 1.026-.176 1.35-.528.324-.352.522-.816.594-1.392h1.824a4.356 4.356 0 0 1-.372 1.452c-.2.432-.464.8-.792 1.104a3.367 3.367 0 0 1-1.152.696c-.44.16-.924.24-1.452.24-.656 0-1.246-.114-1.77-.342a3.793 3.793 0 0 1-1.326-.942 4.17 4.17 0 0 1-.828-1.41A5.175 5.175 0 0 1 16 29.752c0-.64.096-1.234.288-1.782a4.28 4.28 0 0 1 .828-1.434c.36-.408.802-.728 1.326-.96.524-.232 1.114-.348 1.77-.348.472 0 .918.068 1.338.204.42.136.796.334 1.128.594.332.26.606.582.822.966.216.384.352.824.408 1.32h-1.824Zm4.464 2.844c0 .288.052.532.156.732.104.2.242.362.414.486s.374.216.606.276c.232.06.472.09.72.09.168 0 .348-.014.54-.042.192-.028.372-.082.54-.162.168-.08.308-.19.42-.33a.828.828 0 0 0 .168-.534.752.752 0 0 0-.222-.564 1.76 1.76 0 0 0-.582-.36 5.809 5.809 0 0 0-.816-.252 22.546 22.546 0 0 1-.924-.24 8.205 8.205 0 0 1-.936-.294 3.216 3.216 0 0 1-.816-.45 2.12 2.12 0 0 1-.582-.69c-.148-.276-.222-.61-.222-1.002 0-.44.094-.822.282-1.146.188-.324.434-.594.738-.81a3.216 3.216 0 0 1 1.032-.48 4.39 4.39 0 0 1 1.152-.156c.448 0 .878.05 1.29.15.412.1.778.262 1.098.486.32.224.574.51.762.858.188.348.282.77.282 1.266h-1.824a1.515 1.515 0 0 0-.162-.636 1.06 1.06 0 0 0-.366-.396 1.547 1.547 0 0 0-.522-.204c-.196-.04-.41-.06-.642-.06-.152 0-.304.016-.456.048a1.22 1.22 0 0 0-.414.168c-.124.08-.226.18-.306.3a.806.806 0 0 0-.12.456.77.77 0 0 0 .096.408c.064.104.19.2.378.288.188.088.448.176.78.264.332.088.766.2 1.302.336.16.032.382.09.666.174.284.084.566.218.846.402.28.184.522.43.726.738.204.308.306.702.306 1.182 0 .392-.076.756-.228 1.092a2.372 2.372 0 0 1-.678.87 3.26 3.26 0 0 1-1.116.57c-.444.136-.958.204-1.542.204-.472 0-.93-.058-1.374-.174a3.456 3.456 0 0 1-1.176-.546 2.697 2.697 0 0 1-.81-.948c-.2-.384-.296-.84-.288-1.368h1.824ZM37.036 34h-2.124l-2.772-8.568h1.932l1.908 6.024h.024l1.932-6.024h1.944L37.036 34Z" fill="#fff"/><path d="M32.89 5v9.625A4.375 4.375 0 0 0 37.265 19h10.32" fill="#43A047"/><path d="M32.89 5v9.625A4.375 4.375 0 0 0 37.265 19h10.32" fill="#000" fill-opacity=".32"/></svg>