<svg width="56" height="56" viewBox="0 0 56 56" fill="none" xmlns="http://www.w3.org/2000/svg"><g clip-path="url(#clip0_2628_18704)"><g clip-path="url(#clip1_2628_18704)"><rect x="9" y="9" width="38" height="38" rx="6" fill="#021F43"/><mask id="mask0_2628_18704" style="mask-type:luminance" maskUnits="userSpaceOnUse" x="9" y="9" width="38" height="38"><path d="M39.4 9H16.6A7.6 7.6 0 0 0 9 16.6v22.8a7.6 7.6 0 0 0 7.6 7.6h22.8a7.6 7.6 0 0 0 7.6-7.6V16.6A7.6 7.6 0 0 0 39.4 9Z" fill="#fff"/></mask><g mask="url(#mask0_2628_18704)"><path d="m36.136 18.517-2.07 1.832a10.508 10.508 0 0 0-1.284-.933c-2.842-1.68-5.344-1.547-5.327-1.547-.334-.011-.879.016-.863.016-.882.021-2.456.341-3.745.962-1.039.493-2 1.146-2.82 1.944-.818.8-1.509 1.723-2.033 2.737l-.009.017c-.28.564-.04 1.244.533 1.519.573.274 1.265.04 1.544-.524l.005-.01a8.251 8.251 0 0 1 1.55-2.168 8.091 8.091 0 0 1 2.192-1.54 7.982 7.982 0 0 1 3.437-.764c.923.005 2.567.17 4.312 1.253.27.174.53.364.78.568l-5.884 5.21a1.165 1.165 0 0 0-.088 1.663c.236.259.563.39.89.39.286 0 .572-.1.802-.303l5.877-5.205c.367.552.655 1.153.872 1.773.289.832.435 1.707.444 2.589a8.129 8.129 0 0 1-.444 2.59 7.631 7.631 0 0 1-1.27 2.314 8.235 8.235 0 0 1-1.98 1.782c-1.485.922-2.856 1.248-4.346 1.257a8.069 8.069 0 0 1-3.403-.767 8.079 8.079 0 0 1-2.192-1.54 8.235 8.235 0 0 1-1.55-2.168l-.008-.016a1.164 1.164 0 0 0-1.56-.51c-.568.283-.795.967-.506 1.527a10.698 10.698 0 0 0 2.033 2.737c.818.799 1.78 1.452 2.82 1.945 2.225 1.072 4.267.985 4.392.985 2.008-.002 3.846-.552 5.543-1.554a10.495 10.495 0 0 0 2.586-2.25c1.479-1.761 2.257-4.054 2.282-6.332-.023-2.104-.69-4.219-1.956-5.918l2.045-1.811c.492-.436.531-1.18.089-1.664a1.21 1.21 0 0 0-1.69-.086Z" fill="#12B3B3"/><path d="M47 9H9v38h38V9Z" fill="#021F43"/><path d="m38.052 16.17-2.492 2.244a12.654 12.654 0 0 0-1.546-1.143c-3.423-2.055-6.435-1.894-6.415-1.892a14.882 14.882 0 0 0-1.039.019c-1.062.026-2.957.417-4.51 1.177a12.624 12.624 0 0 0-3.395 2.38 13.11 13.11 0 0 0-2.447 3.351l-.011.02a1.39 1.39 0 1 0 2.501 1.218l.006-.011a10.097 10.097 0 0 1 1.865-2.654 9.742 9.742 0 0 1 2.64-1.886c1.225-.605 2.712-.943 4.139-.936a9.771 9.771 0 0 1 5.192 1.535c.326.213.639.446.938.695l-7.084 6.378a1.443 1.443 0 0 0 1.931 2.144l7.077-6.373a9.797 9.797 0 0 1 1.05 2.17c.347 1.018.524 2.09.535 3.17a10.098 10.098 0 0 1-.535 3.17c-.349 1.017-.852 1.99-1.529 2.834a9.97 9.97 0 0 1-2.385 2.182C30.75 37.09 29.1 37.489 27.305 37.5c-1.26.007-2.8-.3-4.097-.94a9.726 9.726 0 0 1-2.64-1.885 10.079 10.079 0 0 1-1.865-2.654l-.01-.019-.007-.014a1.39 1.39 0 1 0-2.48 1.26 13.083 13.083 0 0 0 2.447 3.35 12.586 12.586 0 0 0 3.395 2.38c2.679 1.313 5.139 1.207 5.29 1.207 2.416-.003 4.63-.676 6.673-1.902a12.704 12.704 0 0 0 3.113-2.754c1.781-2.157 2.718-4.964 2.748-7.753-.027-2.576-.83-5.165-2.355-7.245l2.463-2.217a1.44 1.44 0 1 0-1.928-2.143Z" fill="#F5F7FA"/><path fill-rule="evenodd" clip-rule="evenodd" d="M26.246 28.763c-.559-.618-.443-1.634.26-2.268l11.331-10.24c.702-.634 1.724-.647 2.283-.028.56.619.443 1.634-.258 2.268l-11.333 10.24c-.702.634-1.724.647-2.283.028Z" fill="#00BCBC"/></g></g></g><defs><clipPath id="clip0_2628_18704"><path fill="#fff" d="M0 0h56v56H0z"/></clipPath><clipPath id="clip1_2628_18704"><path fill="#fff" transform="translate(9 9)" d="M0 0h38v38H0z"/></clipPath></defs></svg>