<svg width="56" height="56" viewBox="0 0 56 56" fill="none" xmlns="http://www.w3.org/2000/svg"><g clip-path="url(#clip0_3042_85)"><g clip-path="url(#clip1_3042_85)"><rect x="9" y="9" width="38" height="38" rx="6" fill="#92BB48"/></g><g clip-path="url(#clip2_3042_85)" fill="#fff"><path d="M24.393 37.839c-1.23-.52-2.894-1.367-3.709-2.457a.4.4 0 0 0-.52-.087c-.45.312-.502.588-.572 1.177-.208 1.713-2.062 2.82-3.57 1.73-1.889-1.35-.987-3.98 1.23-4.17.763-.07 1.266-.415 1.387-1.177a.201.201 0 0 0-.034-.173c-1.214-2.37-1.578-4.827-1.092-7.32.9-4.567 4.783-8.391 9.444-8.945.659-.07 1.473-.087 2.479-.017 7.833.484 12.287 8.911 9.184 15.833-.433.969-.034 1.764 1.058 1.799 1.871.07 3.05 2.18 1.82 3.703-.902 1.125-2.479 1.263-3.484.138-.45-.519-.555-1.02-.641-1.695-.052-.467-.312-.779-.78-.935a.135.135 0 0 0-.139.035c-3.154 3.114-7.78 4.343-12.061 2.56ZM35.05 27.474c0-3.616-2.93-6.558-6.551-6.558a6.559 6.559 0 0 0-6.568 6.558 6.548 6.548 0 0 0 6.568 6.558c3.622 0 6.55-2.942 6.55-6.558Z"/><path d="M28.5 29.775a2.303 2.303 0 0 0 2.305-2.301 2.303 2.303 0 0 0-2.305-2.301 2.303 2.303 0 0 0-2.305 2.301 2.303 2.303 0 0 0 2.305 2.301Z"/><path d="M24.393 37.831c-1.23-.519-2.894-1.367-3.708-2.457a.4.4 0 0 0-.52-.087c-.45.312-.503.589-.572 1.177-.208 1.713-2.063 2.82-3.57 1.73-1.89-1.35-.988-3.98 1.23-4.17.763-.069 1.265-.415 1.387-1.176a.2.2 0 0 0-.035-.173c-1.213-2.371-1.577-4.828-1.092-7.32.901-4.568 4.783-8.392 9.445-8.946.659-.069 1.473-.086 2.478-.017 7.833.484 12.287 8.911 9.185 15.833-.433.969-.035 1.765 1.057 1.8 1.872.069 3.05 2.18 1.82 3.702-.901 1.125-2.478 1.263-3.483.139-.451-.52-.555-1.021-.642-1.696-.052-.467-.312-.779-.78-.934a.135.135 0 0 0-.138.034c-3.154 3.115-7.781 4.343-12.062 2.561Zm10.658-10.365c0-3.616-2.929-6.558-6.55-6.558a6.56 6.56 0 0 0-6.569 6.558 6.548 6.548 0 0 0 6.568 6.558c3.622 0 6.551-2.941 6.551-6.558Z"/><path d="M28.5 29.775a2.303 2.303 0 0 0 2.305-2.301 2.303 2.303 0 0 0-2.305-2.301 2.303 2.303 0 0 0-2.305 2.301 2.303 2.303 0 0 0 2.305 2.301Z"/></g></g><defs><clipPath id="clip0_3042_85"><path fill="#fff" d="M0 0h56v56H0z"/></clipPath><clipPath id="clip1_3042_85"><path fill="#fff" d="M0 0h56v56H0z"/></clipPath><clipPath id="clip2_3042_85"><path fill="#fff" transform="translate(15 16.348)" d="M0 0h27v22.304H0z"/></clipPath></defs></svg>