<svg viewBox="0 0 56 56" width="56" height="56" fill="none" xmlns="http://www.w3.org/2000/svg"><path d="M32.896 4.667H13.313a5.02 5.02 0 0 0-3.461 1.367 4.559 4.559 0 0 0-1.434 3.3v37.333c0 1.238.516 2.425 1.434 3.3a5.02 5.02 0 0 0 3.461 1.367h29.374a5.02 5.02 0 0 0 3.462-1.367 4.558 4.558 0 0 0 1.434-3.3v-28l-14.687-14Z" fill="#43A047"/><path d="M32.888 4.667v9.625a4.375 4.375 0 0 0 4.375 4.376h10.32" fill="#43A047"/><path d="M32.888 4.667v9.625a4.375 4.375 0 0 0 4.375 4.376h10.32" fill="#000" fill-opacity=".32"/><path d="M37.333 30.332H18.666M37.333 39.667H18.666M25.666 21h-7" stroke="#fff" stroke-width="3.5" stroke-linecap="round" stroke-linejoin="round"/></svg>