<svg width="56" height="56" viewBox="0 0 56 56" fill="none" xmlns="http://www.w3.org/2000/svg"><path d="M28 52c13.255 0 24-10.745 24-24S41.255 4 28 4 4 14.745 4 28s10.745 24 24 24Z" fill="url(#paint0_linear_2620_4753)"/><path d="M28.327 29.408c0 .672-.106 1.301-.32 1.888a4.053 4.053 0 0 1-.928 1.504c-.416.416-.944.747-1.584.992-.63.245-1.37.368-2.224.368-.853 0-1.626-.133-2.32-.4a5.154 5.154 0 0 1-1.792-1.184 5.47 5.47 0 0 1-1.152-1.856c-.266-.725-.4-1.541-.4-2.448s.134-1.723.4-2.448a5.05 5.05 0 0 1 1.168-1.856c.523-.512 1.163-.901 1.92-1.168.768-.277 1.648-.416 2.64-.416.48 0 .907.027 1.28.08.384.053.726.128 1.024.224.299.085.566.187.8.304.235.107.448.213.64.32v1.968a8.582 8.582 0 0 0-1.584-.704c-.576-.192-1.258-.288-2.048-.288-1.365 0-2.352.352-2.96 1.056-.597.693-.896 1.67-.896 2.928 0 1.27.283 2.25.848 2.944.576.693 1.392 1.04 2.448 1.04.48 0 .89-.064 1.232-.192.352-.139.64-.32.864-.544.224-.235.384-.507.48-.816.107-.32.16-.661.16-1.024h-3.072v-1.904h5.376v1.632ZM30.073 22.528h3.809c1.471 0 2.608.283 3.407.848.811.565 1.216 1.477 1.216 2.736 0 .672-.111 1.253-.336 1.744-.213.49-.522.896-.927 1.216-.406.31-.896.539-1.472.688a7.652 7.652 0 0 1-1.92.224H32.36V34h-2.287V22.528Zm2.288 1.92v3.648h1.489c.746 0 1.322-.139 1.727-.416.416-.288.625-.779.625-1.472 0-.608-.198-1.05-.593-1.328-.384-.288-.96-.432-1.727-.432h-1.52Z" fill="#fff"/><defs><linearGradient id="paint0_linear_2620_4753" x1="52" y1="4" x2="4" y2="52" gradientUnits="userSpaceOnUse"><stop stop-color="#C4DE99"/><stop offset="1" stop-color="#82BA23"/></linearGradient></defs></svg>