<svg width="56" height="56" viewBox="0 0 56 56" fill="none" xmlns="http://www.w3.org/2000/svg"><g clip-path="url(#clip0_2845_10438)"><g clip-path="url(#clip1_2845_10438)"><g clip-path="url(#clip2_2845_10438)"><rect x="9" y="9" width="38" height="38" rx="6" fill="#51ADFF"/><mask id="mask0_2845_10438" style="mask-type:luminance" maskUnits="userSpaceOnUse" x="9" y="9" width="38" height="38"><path d="M39.4 9H16.6A7.6 7.6 0 0 0 9 16.6v22.8a7.6 7.6 0 0 0 7.6 7.6h22.8a7.6 7.6 0 0 0 7.6-7.6V16.6A7.6 7.6 0 0 0 39.4 9Z" fill="#fff"/></mask><g mask="url(#mask0_2845_10438)"><path d="m36.136 18.517-2.07 1.832a10.508 10.508 0 0 0-1.284-.933c-2.842-1.68-5.344-1.547-5.327-1.547-.334-.011-.879.016-.863.016-.882.021-2.456.341-3.745.962-1.039.493-2 1.146-2.82 1.944-.818.8-1.509 1.723-2.033 2.737l-.009.017c-.28.564-.04 1.244.533 1.519.573.274 1.265.04 1.544-.524l.005-.01a8.251 8.251 0 0 1 1.55-2.168 8.091 8.091 0 0 1 2.192-1.54 7.982 7.982 0 0 1 3.437-.764c.923.005 2.567.17 4.312 1.253.27.174.53.364.78.568l-5.884 5.21a1.165 1.165 0 0 0-.088 1.663c.236.259.563.39.89.39.286 0 .572-.1.802-.303l5.877-5.205c.367.552.655 1.153.872 1.773.289.832.435 1.707.444 2.589a8.129 8.129 0 0 1-.444 2.59 7.631 7.631 0 0 1-1.27 2.314 8.235 8.235 0 0 1-1.98 1.782c-1.485.922-2.856 1.248-4.346 1.257a8.069 8.069 0 0 1-3.403-.767 8.079 8.079 0 0 1-2.192-1.54 8.235 8.235 0 0 1-1.55-2.168l-.008-.016a1.164 1.164 0 0 0-1.56-.51c-.568.283-.795.967-.506 1.527a10.698 10.698 0 0 0 2.033 2.737c.818.799 1.78 1.452 2.82 1.945 2.225 1.072 4.267.985 4.392.985 2.008-.002 3.846-.552 5.543-1.554a10.495 10.495 0 0 0 2.586-2.25c1.479-1.761 2.257-4.054 2.282-6.332-.023-2.104-.69-4.219-1.956-5.918l2.045-1.811c.492-.436.531-1.18.089-1.664a1.21 1.21 0 0 0-1.69-.086Z" fill="#12B3B3"/><path d="M47 9H9v38h38V9Z" fill="#51ADFF"/><path d="M17.02 34.968a1.957 1.957 0 0 0 1.937 2.233h17.52a1.957 1.957 0 0 0 1.938-2.233l-2.04-14.288A1.957 1.957 0 0 0 34.438 19h-13.44c-.974 0-1.8.716-1.938 1.68l-2.04 14.288Z" fill="#fff"/><path d="M33.226 23.045c-.785 2.353-2.955 4.044-5.508 4.044-2.554 0-4.723-1.69-5.509-4.044" stroke="#222" stroke-width="1.076" stroke-linecap="round" stroke-linejoin="round"/></g></g></g></g><defs><clipPath id="clip0_2845_10438"><path fill="#fff" d="M0 0h56v56H0z"/></clipPath><clipPath id="clip1_2845_10438"><path fill="#fff" d="M0 0h56v56H0z"/></clipPath><clipPath id="clip2_2845_10438"><path fill="#fff" transform="translate(9 9)" d="M0 0h38v38H0z"/></clipPath></defs></svg>