<svg width="20" height="20" viewBox="0 0 20 20" fill="none" xmlns="http://www.w3.org/2000/svg">
<path d="M1.42856 10C1.42856 5.26615 5.26612 1.42859 9.99999 1.42859C14.7339 1.42859 18.5714 5.26615 18.5714 10C18.5714 14.7339 14.7339 18.5714 9.99999 18.5714C5.26612 18.5714 1.42856 14.7339 1.42856 10Z" fill="#5282FF"/>
<path d="M6.24998 6.78571H5.71426V13.2143H14.2857V12.1428H6.24998V6.78571ZM12.4107 9.73213L10.5357 7.85713L8.66069 9.73213L6.78569 7.85713V11.6071H14.2857V7.85713L12.4107 9.73213Z" fill="white"/>
<rect x="12" y="12" width="8" height="8" rx="4" fill="#9A32A6"/>
<path d="M15.1532 17.3559C15.3708 16.9985 15.2814 16.5344 14.9467 16.2833C14.5093 15.9552 14.5142 15.2974 14.9566 14.976L17.6765 12.9999L16.6011 15.0084C16.4118 15.3619 16.509 15.8006 16.8297 16.0412C17.2765 16.3762 17.2595 17.0517 16.7966 17.3639L14 19.2499L15.1532 17.3559Z" fill="white"/>
</svg>
