<svg width="56" height="56" viewBox="0 0 56 56" fill="none" xmlns="http://www.w3.org/2000/svg"><path d="M37.64 34.657a1.606 1.606 0 0 0 1.603-1.606V22.949a1.603 1.603 0 0 0-1.602-1.602h-4.954V9H11.704A2.708 2.708 0 0 0 9 11.704v32.592A2.708 2.708 0 0 0 11.704 47h20.983V34.657h4.954z" fill="#15B3F0"/><path d="M44.296 9H33.93v11.092h3.71a2.846 2.846 0 0 1 2.841 2.846V33.05a2.846 2.846 0 0 1-2.841 2.845h-3.71V46.99h10.365A2.708 2.708 0 0 0 47 44.284v-32.58A2.708 2.708 0 0 0 44.296 9z" fill="#474747"/><path d="M23.645 29.115h-1.147l-1.014-7.175h-.03c-.023.06-.046.118-.065.18-.67 2.06-1.331 4.126-2.005 6.188-.072.23-.179.448-.317.646a.623.623 0 0 1-1.098-.065 5.242 5.242 0 0 1-.382-.933c-.639-1.954-1.266-3.917-1.913-5.875a.31.31 0 0 0-.084-.142l-.998 7.172h-1.148c.046-.31.088-.612.134-.918l.46-3.11c.14-.956.282-1.912.428-2.872.053-.382.11-.765.18-1.124.025-.134.07-.263.133-.383a.86.86 0 0 1 1.423-.176c.134.162.235.347.299.547.66 2.022 1.317 4.046 1.97 6.07l.084.233c.038-.107.064-.175.087-.244.643-2 1.288-3.997 1.936-5.994.061-.206.155-.401.28-.577a.852.852 0 0 1 1.46.168c.12.326.2.665.237 1.01.161 1.032.31 2.069.463 3.105.142.964.287 1.913.428 2.892.058.383.12.792.176 1.186.012.057.016.114.023.191z" fill="#fff"/><path d="M29.203 33.024l.964.692a4.529 4.529 0 0 1-4.877 1.913 4.59 4.59 0 0 1-3.546-4.261 4.64 4.64 0 0 1 3.21-4.468 4.51 4.51 0 0 1 4.888 1.393l-.918.688-.157-.164a3.095 3.095 0 0 0-2.605-1.067 3.32 3.32 0 0 0-3.01 2.42 3.443 3.443 0 0 0 2.784 4.48 3.16 3.16 0 0 0 3.164-1.454l.103-.172zM37.155 28.622h-3.179a.623.623 0 0 1 0-1.244h3.179a.624.624 0 1 1 0 1.244zM37.155 25.554h-3.179a.62.62 0 0 1 0-1.24h3.179a.62.62 0 1 1 0 1.24zM37.155 31.685h-3.179a.62.62 0 0 1 0-1.239h3.179a.62.62 0 0 1 0 1.24z" fill="#fff"/></svg>