<svg viewBox="0 0 56 56" width="56" height="56" fill="none" xmlns="http://www.w3.org/2000/svg"><path d="M28 52c13.255 0 24-10.745 24-24S41.255 4 28 4 4 14.745 4 28s10.745 24 24 24z" fill="#0189CE"/><path d="M16.405 37.1c-.273 0-.516-.023-.73-.07-.206-.04-.39-.09-.55-.15a3 3 0 0 1-.39-.2 2.63 2.63 0 0 1-.25-.19v-.79c.067.067.157.14.27.22.114.073.25.143.41.21.16.067.34.123.54.17.207.04.437.06.69.06.374 0 .67-.06.89-.18.22-.12.33-.323.33-.61a.582.582 0 0 0-.11-.37.668.668 0 0 0-.28-.22c-.12-.06-.26-.107-.42-.14a20.829 20.829 0 0 0-.49-.1c-.22-.047-.436-.097-.65-.15a2.274 2.274 0 0 1-.58-.25 1.361 1.361 0 0 1-.42-.43c-.106-.18-.16-.413-.16-.7 0-.467.18-.833.54-1.1.367-.267.877-.4 1.53-.4.367 0 .69.037.97.11.287.073.507.153.66.24v.79a2.353 2.353 0 0 0-.65-.28c-.253-.08-.57-.12-.95-.12-.393 0-.696.053-.91.16-.206.107-.31.3-.31.58 0 .14.03.253.09.34.06.08.14.147.24.2.107.047.227.083.36.11.134.027.274.057.42.09.227.047.46.097.7.15.24.053.454.137.64.25.194.113.35.267.47.46.127.187.19.44.19.76 0 .3-.06.55-.18.75-.12.2-.28.36-.48.48a2.049 2.049 0 0 1-.67.24c-.246.053-.5.08-.76.08zm7.304-.54a2.81 2.81 0 0 1-.66.35 3.291 3.291 0 0 1-.52.13c-.193.04-.41.06-.65.06-.873 0-1.536-.237-1.99-.71-.453-.473-.68-1.137-.68-1.99 0-.42.06-.797.18-1.13.127-.333.3-.613.52-.84.22-.233.48-.41.78-.53.3-.127.627-.19.98-.19a2.5 2.5 0 0 1 1 .19c.294.127.534.313.72.56.194.247.324.553.39.92.074.36.074.78 0 1.26h-3.66c.034.56.2.98.5 1.26.3.273.747.41 1.34.41.4 0 .744-.057 1.03-.17.287-.113.527-.237.72-.37v.79zm-2.06-4.07c-.38 0-.706.117-.98.35-.273.233-.446.587-.52 1.06h2.79c.027-.48-.083-.833-.33-1.06-.246-.233-.566-.35-.96-.35zm5.803.2a2.7 2.7 0 0 0-1.02.29c-.3.153-.523.393-.67.72V37h-.88v-5.19h.77l.09 1.13h.02c.147-.307.357-.573.63-.8.28-.233.633-.377 1.06-.43v.98zm3.8 4.31h-1.42l-1.78-5.19h.95l1.58 4.72 1.57-4.72h.88L31.251 37zm6.627-.44a2.785 2.785 0 0 1-.66.35 3.289 3.289 0 0 1-.52.13c-.193.04-.41.06-.65.06-.873 0-1.536-.237-1.99-.71-.453-.473-.68-1.137-.68-1.99 0-.42.06-.797.18-1.13.127-.333.3-.613.52-.84.22-.233.48-.41.78-.53.3-.127.627-.19.98-.19a2.5 2.5 0 0 1 1 .19c.294.127.534.313.72.56.194.247.324.553.39.92.074.36.074.78 0 1.26h-3.66c.034.56.2.98.5 1.26.3.273.747.41 1.34.41.4 0 .744-.057 1.03-.17.287-.113.527-.237.72-.37v.79zm-2.06-4.07c-.38 0-.706.117-.98.35-.273.233-.446.587-.52 1.06h2.79c.027-.48-.083-.833-.33-1.06-.246-.233-.566-.35-.96-.35zm5.803.2a2.7 2.7 0 0 0-1.02.29c-.3.153-.523.393-.67.72V37h-.88v-5.19h.77l.09 1.13h.02c.147-.307.357-.573.63-.8.28-.233.633-.377 1.06-.43v.98zM16.54 22.95l-1.72 3.95h-1.27l-1.67-4.01V28h-1.27v-7.17h1.87l1.81 4.54 1.97-4.54h1.71V28h-1.43v-5.05zm4.929 5.15c-.294 0-.56-.02-.8-.06a5.034 5.034 0 0 1-.64-.15 3.551 3.551 0 0 1-.5-.2 5.307 5.307 0 0 1-.37-.23v-1.2c.106.08.24.16.4.24.166.073.35.14.55.2.2.06.413.11.64.15.226.04.456.06.69.06.446 0 .803-.06 1.07-.18.266-.12.4-.34.4-.66a.777.777 0 0 0-.11-.43.844.844 0 0 0-.31-.28 2.279 2.279 0 0 0-.49-.19 13.647 13.647 0 0 0-.62-.16 8.155 8.155 0 0 1-.8-.23 2.648 2.648 0 0 1-.72-.38 1.96 1.96 0 0 1-.53-.61c-.134-.253-.2-.573-.2-.96 0-.34.066-.64.2-.9.133-.267.323-.487.57-.66.246-.173.543-.303.89-.39.353-.093.746-.14 1.18-.14.513 0 .923.05 1.23.15.313.093.55.187.71.28v1.2a2.79 2.79 0 0 0-.79-.32 4.431 4.431 0 0 0-1.09-.12c-.5 0-.87.07-1.11.21-.24.133-.36.33-.36.59 0 .16.036.293.11.4.08.1.183.183.31.25.126.067.273.123.44.17.173.04.356.083.55.13.28.067.56.143.84.23.286.087.543.21.77.37.226.16.41.37.55.63.146.253.22.583.22.99 0 .433-.084.79-.25 1.07-.16.28-.374.507-.64.68a2.67 2.67 0 0 1-.92.35c-.347.067-.704.1-1.07.1zm8.134 0c-.293 0-.56-.02-.8-.06a5.03 5.03 0 0 1-.64-.15 3.546 3.546 0 0 1-.5-.2 5.284 5.284 0 0 1-.37-.23v-1.2c.107.08.24.16.4.24.167.073.35.14.55.2.2.06.414.11.64.15.227.04.457.06.69.06.447 0 .804-.06 1.07-.18.267-.12.4-.34.4-.66a.777.777 0 0 0-.11-.43.845.845 0 0 0-.31-.28 2.281 2.281 0 0 0-.49-.19 13.681 13.681 0 0 0-.62-.16 8.155 8.155 0 0 1-.8-.23 2.648 2.648 0 0 1-.72-.38 1.96 1.96 0 0 1-.53-.61c-.133-.253-.2-.573-.2-.96 0-.34.067-.64.2-.9.134-.267.324-.487.57-.66.247-.173.544-.303.89-.39.354-.093.747-.14 1.18-.14.514 0 .924.05 1.23.15.314.093.55.187.71.28v1.2a2.792 2.792 0 0 0-.79-.32 4.432 4.432 0 0 0-1.09-.12c-.5 0-.87.07-1.11.21-.24.133-.36.33-.36.59 0 .16.037.293.11.4.08.1.184.183.31.25.127.067.274.123.44.17.174.04.357.083.55.13.28.067.56.143.84.23.287.087.544.21.77.37.227.16.41.37.55.63.147.253.22.583.22.99 0 .433-.083.79-.25 1.07-.16.28-.373.507-.64.68a2.67 2.67 0 0 1-.92.35c-.346.067-.703.1-1.07.1zm10.078 1.39a38.18 38.18 0 0 1-2.32-.72 24.168 24.168 0 0 1-1.86-.73 5.859 5.859 0 0 1-1.01-.57 3.518 3.518 0 0 1-.75-.76 3.306 3.306 0 0 1-.47-.99 4.625 4.625 0 0 1-.16-1.27c0-.6.09-1.13.27-1.59.18-.46.427-.847.74-1.16.313-.313.683-.55 1.11-.71.427-.167.89-.25 1.39-.25.487 0 .943.08 1.37.24.427.153.8.383 1.12.69.32.3.57.68.75 1.14.187.453.28.98.28 1.58 0 .413-.043.8-.13 1.16-.08.353-.217.677-.41.97a2.924 2.924 0 0 1-.74.78c-.3.22-.67.397-1.11.53.413.1.823.18 1.23.24.413.067.803.123 1.17.17l-.47 1.25zm-3.06-2.58c.293 0 .563-.043.81-.13.247-.093.46-.237.64-.43.18-.2.32-.457.42-.77.107-.32.16-.707.16-1.16 0-.453-.053-.837-.16-1.15-.1-.32-.24-.577-.42-.77-.18-.2-.393-.343-.64-.43a2.272 2.272 0 0 0-.81-.14c-.287 0-.553.047-.8.14-.247.087-.46.23-.64.43-.18.193-.323.45-.43.77-.1.313-.15.697-.15 1.15 0 .453.05.84.15 1.16.107.313.25.57.43.77.18.193.393.337.64.43.247.087.513.13.8.13zM45.765 28h-4.55v-7.17h1.43v5.98h3.12V28z" fill="#fff"/></svg>