<svg viewBox="0 0 56 56" width="56" height="56" fill="none" xmlns="http://www.w3.org/2000/svg"><path d="M28 52c13.255 0 24-10.745 24-24S41.255 4 28 4 4 14.745 4 28s10.745 24 24 24z" fill="#00758F"/><path d="M15.806 25.94l-2.064 4.74h-1.524l-2.004-4.812V32H8.69v-8.604h2.244l2.172 5.448 2.364-5.448h2.052V32h-1.716v-6.06zm6.875 5.988c-.136.376-.28.708-.432.996a2.653 2.653 0 0 1-.54.72c-.2.2-.44.348-.72.444a2.9 2.9 0 0 1-1.008.156c-.24 0-.452-.02-.636-.06a2.22 2.22 0 0 1-.54-.168v-1.44c.136.096.3.172.492.228.2.064.416.096.648.096.256 0 .464-.048.624-.144.16-.088.296-.224.408-.408l-2.484-6.576h1.764l1.56 4.5 1.524-4.5h1.524l-2.184 6.156z" fill="#fff"/><path d="M28.366 32.12c-.352 0-.672-.024-.96-.072a6.04 6.04 0 0 1-.768-.18 4.257 4.257 0 0 1-.6-.24 6.344 6.344 0 0 1-.444-.276v-1.44c.128.096.288.192.48.288.2.088.42.168.66.24.24.072.496.132.768.18.272.048.548.072.828.072.536 0 .964-.072 1.284-.216.32-.144.48-.408.48-.792a.933.933 0 0 0-.132-.516 1.013 1.013 0 0 0-.372-.336 2.735 2.735 0 0 0-.588-.228 16.376 16.376 0 0 0-.744-.192 9.778 9.778 0 0 1-.96-.276 3.18 3.18 0 0 1-.864-.456 2.353 2.353 0 0 1-.636-.732c-.16-.304-.24-.688-.24-1.152 0-.408.08-.768.24-1.08.16-.32.388-.584.684-.792a3.181 3.181 0 0 1 1.068-.468 5.544 5.544 0 0 1 1.416-.168c.616 0 1.108.06 1.476.18.376.112.66.224.852.336v1.44a3.347 3.347 0 0 0-.948-.384 5.317 5.317 0 0 0-1.308-.144c-.6 0-1.044.084-1.332.252-.288.16-.432.396-.432.708 0 .192.044.352.132.48.096.12.22.22.372.3.152.08.328.148.528.204.208.048.428.1.66.156.336.08.672.172 1.008.276.344.104.652.252.924.444s.492.444.66.756c.176.304.264.7.264 1.188 0 .52-.1.948-.3 1.284a2.347 2.347 0 0 1-.768.816c-.32.2-.688.34-1.104.42-.416.08-.844.12-1.284.12zm12.093 1.668a45.834 45.834 0 0 1-2.784-.864 29.031 29.031 0 0 1-2.232-.876 7.028 7.028 0 0 1-1.212-.684 4.227 4.227 0 0 1-.9-.912 3.971 3.971 0 0 1-.564-1.188 5.551 5.551 0 0 1-.192-1.524c0-.72.108-1.356.324-1.908a3.999 3.999 0 0 1 .888-1.392c.376-.376.82-.66 1.332-.852.512-.2 1.068-.3 1.668-.3.584 0 1.132.096 1.644.288.512.184.96.46 1.344.828.384.36.684.816.9 1.368.224.544.336 1.176.336 1.896 0 .496-.052.96-.156 1.392a3.5 3.5 0 0 1-.492 1.164c-.224.352-.52.664-.888.936-.36.264-.804.476-1.332.636.496.12.988.216 1.476.288.496.08.964.148 1.404.204l-.564 1.5zm-3.672-3.096c.352 0 .676-.052.972-.156.296-.112.552-.284.768-.516.216-.24.384-.548.504-.924.128-.384.192-.848.192-1.392 0-.544-.064-1.004-.192-1.38-.12-.384-.288-.692-.504-.924a1.841 1.841 0 0 0-.768-.516 2.726 2.726 0 0 0-.972-.168 2.69 2.69 0 0 0-.96.168 1.841 1.841 0 0 0-.768.516c-.216.232-.388.54-.516.924-.12.376-.18.836-.18 1.38 0 .544.06 1.008.18 1.392.128.376.3.684.516.924.216.232.472.404.768.516.296.104.616.156.96.156zM47.759 32H42.3v-8.604h1.716v7.176h3.744V32z" fill="#F29111"/></svg>