<svg viewBox="0 0 56 56" width="56" height="56" fill="none" xmlns="http://www.w3.org/2000/svg"><path d="M28 52c13.255 0 24-10.745 24-24S41.255 4 28 4 4 14.745 4 28s10.745 24 24 24z" fill="#F80000"/><path d="M14.374 32.12a4.86 4.86 0 0 1-1.655-.276 3.774 3.774 0 0 1-1.332-.84 4.168 4.168 0 0 1-.9-1.38c-.216-.552-.325-1.188-.325-1.908s.108-1.352.324-1.896a4.142 4.142 0 0 1 .9-1.392c.377-.376.82-.66 1.333-.852a4.678 4.678 0 0 1 1.655-.288c.592 0 1.144.096 1.656.288.512.184.956.46 1.332.828.385.368.685.824.9 1.368.224.544.337 1.176.337 1.896s-.113 1.356-.337 1.908a3.912 3.912 0 0 1-.9 1.392c-.375.376-.82.664-1.331.864a4.678 4.678 0 0 1-1.656.288zm0-1.428c.352 0 .676-.052.973-.156.296-.112.552-.284.768-.516.216-.24.384-.548.504-.924.128-.384.192-.848.192-1.392 0-.544-.064-1.004-.192-1.38-.12-.384-.288-.692-.505-.924a1.841 1.841 0 0 0-.768-.516 2.726 2.726 0 0 0-.972-.168 2.69 2.69 0 0 0-.96.168 1.841 1.841 0 0 0-.768.516c-.216.232-.388.54-.516.924-.12.376-.18.836-.18 1.38 0 .544.06 1.008.18 1.392.128.376.3.684.516.924.216.232.472.404.768.516.296.104.617.156.96.156zm9.137-3.348a2.948 2.948 0 0 0-1.236.132c-.368.12-.656.316-.864.588V32h-1.656v-6.228h1.548l.084 1.26h.024c.224-.408.512-.732.864-.972.36-.24.772-.376 1.236-.408v1.692zM28.091 32a6.742 6.742 0 0 1-.072-.468c-.016-.2-.032-.372-.048-.516a1.937 1.937 0 0 1-.252.396c-.096.128-.22.248-.372.36a1.983 1.983 0 0 1-.54.252c-.2.064-.436.096-.708.096-.264 0-.516-.036-.756-.108a1.814 1.814 0 0 1-.624-.336 1.655 1.655 0 0 1-.42-.564 1.865 1.865 0 0 1-.156-.792c0-.664.26-1.176.78-1.536.52-.36 1.26-.54 2.22-.54h.768v-.276c0-.384-.1-.644-.3-.78-.192-.144-.504-.216-.936-.216-.432 0-.828.056-1.188.168-.36.112-.676.236-.948.372v-1.32c.272-.136.62-.26 1.044-.372a5.442 5.442 0 0 1 1.392-.168c.816 0 1.452.172 1.908.516.464.344.696.892.696 1.644V31.244c.008.088.012.18.012.276l.024.276c.008.08.016.148.024.204H28.09zm-1.488-1.068c.272 0 .492-.056.66-.168a1.47 1.47 0 0 0 .588-.852c.04-.152.06-.26.06-.324v-.372h-.708c-.496 0-.86.084-1.092.252a.767.767 0 0 0-.336.66c0 .256.072.456.216.6.152.136.356.204.612.204zm7.367 1.188c-.52 0-.988-.072-1.404-.216a3.05 3.05 0 0 1-1.044-.636 2.908 2.908 0 0 1-.672-1.02 3.832 3.832 0 0 1-.228-1.368c0-.504.076-.956.228-1.356a2.788 2.788 0 0 1 1.728-1.644 4.07 4.07 0 0 1 1.404-.228c.48 0 .88.052 1.2.156.32.096.572.212.756.348v1.32a3.366 3.366 0 0 0-.768-.36c-.272-.096-.62-.144-1.044-.144-1.2 0-1.8.636-1.8 1.908 0 1.272.592 1.908 1.776 1.908.44 0 .796-.044 1.068-.132.272-.096.528-.216.768-.36v1.308c-.184.136-.44.256-.768.36-.32.104-.72.156-1.2.156zm4.761-8.724V32h-1.656v-8.604h1.656zm6.862 8.196a5.987 5.987 0 0 1-.336.18c-.12.056-.268.112-.444.168a4.4 4.4 0 0 1-.6.12c-.224.04-.492.06-.804.06-1.216 0-2.116-.284-2.7-.852-.584-.568-.876-1.364-.876-2.388 0-.504.076-.956.228-1.356.16-.4.38-.736.66-1.008.28-.28.612-.492.996-.636a3.557 3.557 0 0 1 1.296-.228c.48 0 .912.08 1.296.24.384.152.7.38.948.684.256.304.432.688.528 1.152.096.464.096 1 0 1.608H41.56c.064.488.24.856.528 1.104.296.24.764.36 1.404.36.512 0 .928-.056 1.248-.168a6.92 6.92 0 0 0 .852-.348v1.308zm-2.556-4.704c-.368 0-.676.112-.924.336-.248.224-.416.548-.504.972H44.2c.008-.44-.088-.768-.288-.984-.2-.216-.492-.324-.876-.324z" fill="#fff"/></svg>