<?xml version="1.0" encoding="UTF-8"?>
<svg width="56px" height="56px" viewBox="0 0 56 56" version="1.1" xmlns="http://www.w3.org/2000/svg" xmlns:xlink="http://www.w3.org/1999/xlink">
    <!-- Generator: Sketch 51.2 (57519) - http://www.bohemiancoding.com/sketch -->
    <defs>
        <rect id="path-1" x="0" y="0" width="56" height="56"></rect>
        <filter x="-5.4%" y="-5.4%" width="110.7%" height="110.7%" filterUnits="objectBoundingBox" id="filter-2">
            <feOffset dx="0" dy="2" in="SourceAlpha" result="shadowOffsetOuter1"></feOffset>
            <feGaussianBlur stdDeviation="2" in="shadowOffsetOuter1" result="shadowBlurOuter1"></feGaussianBlur>
            <feColorMatrix values="0 0 0 0 0   0 0 0 0 0   0 0 0 0 0  0 0 0 0.5 0" type="matrix" in="shadowBlurOuter1"></feColorMatrix>
        </filter>
    </defs>
    <g id="Page-1" stroke="none" stroke-width="1" fill="none" fill-rule="evenodd">
        <g id="Group" fill-rule="nonzero">
            <g id="Rectangle-8" opacity="0">
                <use fill="black" fill-opacity="1" filter="url(#filter-2)" xlink:href="#path-1"></use>
                <use fill="#D8D8D8" xlink:href="#path-1"></use>
            </g>
            <g id="PostgreSQL_logo.3colors" transform="translate(7.000000, 8.000000)">
                <path d="M26.4561801,42.7026493 C23.5344272,43.323361 21.5198996,42.2391172 20.4871785,40.0915642 C20.2626303,39.624614 19.7938586,38.2544994 19.9414623,38.6493484 C19.5173718,37.5146606 19.3549111,36.0586484 19.2545831,33.5810233 C19.2440896,33.3215546 19.2366506,33.0844421 19.2238561,32.6299374 C19.2185773,32.4416992 19.2152972,32.3259077 19.2122941,32.2239702 C17.6963511,32.8062619 16.0240728,32.7794363 14.3239242,32.3579774 C13.4906083,32.1514081 12.6915553,31.7736072 12.138026,31.1828338 C10.3709534,32.5295669 8.30834652,32.341198 6.61294776,30.7077085 C5.31065852,29.4529737 4.18859349,27.361895 3.15021858,24.5620181 C1.62930875,20.4610328 0.25852184,14.3965103 0.142066456,12.0880228 C-0.237594678,4.56378889 3.48045052,0.840504394 9.44573545,0.644615543 C11.3404738,0.582395863 13.3176033,0.877124018 15.2741563,1.40304047 C15.7910506,1.54198032 16.2527415,1.68167084 16.6481017,1.81199058 C18.1789865,0.932414475 19.9833718,0.486342102 22.0382815,0.519812901 C23.1162207,0.537088634 24.1269585,0.62730766 25.0744716,0.788916204 C26.3003001,0.407587483 28.4378959,0.0444253389 30.3911994,0.0675458839 C34.454888,0.115646291 38.0742998,1.56794923 40.6853487,4.87514406 C43.1426417,7.98744053 41.0998951,16.9734498 36.7586315,24.3954325 C37.2181843,24.3537122 37.789874,24.2706649 38.4849428,24.1285276 C40.9095705,23.632357 43.1385316,25.3113677 41.4953367,27.7682425 C40.9175973,28.6320679 39.7483925,29.4954943 38.420135,30.1064275 C37.1328866,30.6992301 35.1306035,31.0270449 33.4193969,30.9481208 C33.3085258,31.0681198 33.2940004,31.1908433 33.2843417,31.2724331 C33.0790179,39.0582357 31.1937311,41.6962653 26.4561801,42.7026493 Z" id="Shape" fill="#336791"></path>
                <path d="M38.8863889,26.0877317 C34.0594293,27.0747171 33.727601,25.4546951 33.727601,25.4546951 C38.8241111,17.9583244 40.9546061,8.4428 39.1160202,6.11392927 C34.1002121,-0.238790244 25.417596,2.76563659 25.272697,2.84363659 L25.2260606,2.8519122 C24.2724141,2.65567561 23.2051515,2.53877073 22.0056566,2.51936585 C19.8215202,2.48388537 18.1647778,3.08695854 16.9076111,4.03199512 C16.9076111,4.03199512 1.41867677,-2.29313902 2.13904545,11.9870439 C2.29229293,15.0250488 6.53169192,34.9739293 11.5882828,28.9484293 C13.4364646,26.7451195 15.2221768,24.8821561 15.2221768,24.8821561 C16.1091313,25.4662049 17.1709242,25.7641268 18.2840556,25.6571146 L18.3705152,25.5843463 C18.3436465,25.8579171 18.3559293,26.1254951 18.4051566,26.4422512 C17.1025051,27.8849659 17.4852879,28.1382756 14.8812323,28.6696268 C12.2462778,29.207922 13.794202,30.1662756 14.8048485,30.4167317 C16.0300606,30.7204561 18.8646111,31.1506927 20.7798687,28.4929854 L20.7034848,28.7962341 C21.2138939,29.2014537 21.572303,31.4321585 21.5122323,33.454261 C21.4521616,35.4764585 21.4120505,36.8647634 21.8142172,37.9491537 C22.2163838,39.0335439 22.6172071,41.473422 26.0404697,40.7463098 C28.9009293,40.1386707 30.3832172,38.564022 30.5894343,35.9374195 C30.7357727,34.0700805 31.0669293,34.3461244 31.0878485,32.676639 L31.3534646,31.8862707 C31.6597677,29.3549805 31.4021162,28.5383585 33.1644141,28.9181805 L33.5926818,28.9554683 C34.8897677,29.0139683 36.5873889,28.7486732 37.5837374,28.2896146 C39.729202,27.3026293 41.0016263,25.6547366 38.886197,26.0877317 L38.8863889,26.0877317 Z" id="Shape" fill="#336791"></path>
                <path d="M20.3893064,27.5218528 C20.398623,27.1916776 20.6738354,26.9315703 21.0040106,26.9408869 C21.3341857,26.9502035 21.594293,27.2254159 21.5849764,27.5555911 C21.4473223,32.4339914 21.6421817,36.9340313 22.0400674,37.9205103 C22.8389351,39.8999193 23.8419544,40.7374374 26.24548,40.2270304 C28.8039176,39.6833242 29.7124226,38.7472568 30.1330337,36.3289896 C30.4261846,34.6453003 31.085328,29.3606648 31.1819092,28.0841188 C31.2068284,27.7547536 31.4940327,27.5079513 31.823398,27.5328705 C32.1527632,27.5577897 32.3995655,27.844994 32.3746463,28.1743592 C32.2751465,29.4894813 31.611219,34.812473 31.3114692,36.5340627 C30.8068473,39.4353424 29.5288359,40.7521264 26.494038,41.3970663 C23.3974844,42.0546431 21.9211508,40.8219089 20.9308037,38.3680584 C20.4426654,37.1578158 20.2457351,32.6099525 20.3893064,27.5218528 Z" id="Shape" fill="#FFFFFF"></path>
                <path d="M17.1082932,3.37248266 C17.4144288,3.49651257 17.5620547,3.84523063 17.4380248,4.15136626 C17.3139949,4.45750189 16.9652768,4.60512774 16.6591412,4.48109783 C16.5624666,4.44193044 16.3727996,4.3704123 16.1030063,4.27728521 C15.6492598,4.12066122 15.1408101,3.96373645 14.590656,3.8172104 C12.8560076,3.35521036 11.1139762,3.10004256 9.50349668,3.15777978 C4.94032713,3.32137374 2.3981417,5.87335108 2.7021014,11.8972719 C2.8042745,13.9227694 4.11743055,19.7323223 5.55153652,23.5992435 C6.46452485,26.0610238 7.431057,27.8622492 8.38104921,28.7775471 C9.32817944,29.6900876 10.1296918,29.6563557 11.09594,28.5048855 C11.9104849,27.5334982 12.7492384,26.5832032 13.5657992,25.6926863 C13.8516777,25.3809157 14.1144699,25.0987727 14.3483561,24.8511266 C14.4891667,24.7020319 14.5893909,24.5972194 14.643203,24.5415675 C14.8728071,24.3041135 15.2514325,24.2977498 15.4888865,24.5273539 C15.7263405,24.756958 15.7327041,25.1355834 15.5031,25.3730374 C15.4524661,25.4254024 15.3554739,25.5268351 15.2179731,25.6724252 C14.9880071,25.9159205 14.7292034,26.1937813 14.447418,26.5010881 C13.6420817,27.3793639 12.8147726,28.3166926 12.0123579,29.2736138 C10.5966879,30.9606566 8.99299529,31.0281484 7.55112172,29.6389329 C6.43891823,28.5673478 5.40076404,26.6326479 4.43003293,24.01517 C2.95593536,20.0404155 1.61622231,14.1133714 1.50747482,11.9575421 C1.16871348,5.24391682 4.25160503,2.14915067 9.46064124,1.96240178 C11.2051546,1.89985932 13.0587849,2.17137381 14.8985018,2.66135741 C15.4776865,2.81561538 16.0134147,2.98095921 16.4932944,3.14660382 C16.7836768,3.24683789 16.9928514,3.32571175 17.1082932,3.37248266 Z" id="Shape" fill="#FFFFFF"></path>
                <path d="M25.433219,3.35178983 C25.4113916,3.35853738 25.4113916,3.35853738 25.3751364,3.36790624 C25.3499357,3.37461843 25.3499357,3.37461843 25.2544364,3.38426498 C25.1645827,3.41223835 25.1645827,3.41223835 24.749587,3.13834277 C24.6826264,2.41409435 24.6826264,2.41409435 24.8440314,2.33205408 C25.0289898,2.21710943 25.0289898,2.21710943 25.0531268,2.21334774 C25.1108815,2.19142199 25.1981914,2.16154716 25.3012315,2.12881381 C25.5825322,2.0394513 25.9313084,1.94355875 26.3228469,1.85283587 C27.4637237,1.58848479 28.7147887,1.42179039 30.0104969,1.40985939 C33.8119331,1.37485541 37.1557237,2.6491092 39.551676,5.68390632 C41.7408528,8.45711599 39.1360174,18.4541219 34.1884239,25.7317754 C34.0027203,26.0049358 33.6307375,26.0758336 33.3575771,25.8901299 C33.0844167,25.7044263 33.0135189,25.3324435 33.1992226,25.0592831 C37.8787539,18.1759352 40.3629166,8.6420547 38.6128297,6.42507625 C36.4720683,3.71351277 33.4820882,2.57408932 30.0215107,2.60595464 C28.8192552,2.61702512 27.6534528,2.77235896 26.592851,3.01810964 C26.2326169,3.101579 25.9145671,3.18902365 25.6633837,3.26881859 C25.6095105,3.28593282 25.5623973,3.30158408 25.5263996,3.31408256 C25.4969253,3.32899518 25.4658154,3.34165878 25.433219,3.35178983 Z" id="Shape" fill="#FFFFFF"></path>
                <path d="M33.4915427,26.3323539 C33.4713082,26.3382454 33.2746953,26.3931126 33.2182965,26.4102025 C33.1243101,26.4386822 33.0481615,26.4659681 32.9793511,26.4966275 C32.5348895,26.6946629 32.3177363,27.0886541 32.3755523,28.0948342 C32.3964911,28.4582196 35.7033151,28.4221952 37.299957,27.6876547 C37.9893057,27.3703075 38.6072201,26.9636888 38.9910264,26.6106162 C38.9849955,26.6118237 38.9789151,26.6130546 38.9727854,26.6143095 C36.3072442,27.1596989 34.6362345,27.0104739 33.7257672,26.3574946 C33.6934765,26.334336 33.6625794,26.3108833 33.6330402,26.2871935 C33.5876654,26.3031054 33.5404523,26.3181131 33.4915427,26.3323539 Z M34.4228818,25.3854882 C35.0103168,25.8067915 36.3622327,25.9275208 38.7329432,25.4424559 C40.1462676,25.153105 41.0355949,25.823894 40.2960686,26.9294952 C39.8848571,27.5442616 38.9144653,28.261212 37.8000176,28.774257 C35.5096636,29.8279421 31.2799417,29.8740205 31.1813816,28.1635482 C31.0961357,26.6800022 31.5737799,25.8133901 32.4925302,25.4040293 C32.6122343,25.3506937 32.7333484,25.3072955 32.8714173,25.265458 C32.6550412,24.8419618 32.1065719,24.1448808 32.0042005,23.99261 C31.7406521,23.6005986 31.5171694,23.1927032 31.3286026,22.739525 C31.2771067,22.6157944 30.1939372,20.6890278 29.7859725,19.8839113 C29.3521602,19.0277845 28.995354,18.2281187 28.720502,17.4664961 C28.0283971,15.5486544 27.8941635,13.9955241 28.5361277,12.8624064 C29.2496895,11.6029131 30.7955361,11.0871736 33.1934314,11.3302119 C33.1336439,11.1550141 33.0596112,10.960519 32.9732981,10.7549178 C32.5497509,9.74601176 31.9178768,8.65435335 31.1203094,7.64361573 C28.9101275,4.8427065 25.8685895,3.12121353 21.9616782,3.05771837 C18.1292383,2.99541944 15.7621299,4.96685516 14.4864657,8.36516383 C14.0622583,9.49523207 13.7913508,10.7118213 13.6456072,11.93937 C13.5525411,12.7232338 13.5243809,13.3721378 13.5304002,13.8113756 C13.5395962,14.1660312 13.2790332,14.4408123 12.9488431,14.4495817 C12.6186529,14.4583511 12.3438719,14.1977881 12.3351025,13.8675979 C12.3276675,13.3389257 12.3580688,12.6383774 12.4578037,11.7983452 C12.6141397,10.4815807 12.9054706,9.17327394 13.3666201,7.94479385 C14.8063273,4.10948233 17.5908987,1.79036438 21.9811176,1.86173038 C26.2743374,1.93150383 29.6396296,3.83623979 32.0593169,6.90265013 C32.9259405,8.000901 33.6120023,9.18617674 34.0761987,10.2919109 C34.691202,11.7568729 34.8604798,12.4472221 34.0436277,12.6147727 L33.8296994,12.6195762 C31.3963606,12.2333458 30.06793,12.58524 29.5768547,13.4520269 C29.1541508,14.198133 29.2616857,15.4423505 29.8456259,17.0604649 C30.1019735,17.7708113 30.4396175,18.5275312 30.8529567,19.3432543 C31.2328452,20.0929626 32.3492141,22.0787852 32.4329413,22.2799587 C32.5898921,22.6571549 32.7756536,22.9962025 32.9968666,23.3252426 C32.9803922,23.300738 34.1531475,24.7788602 34.2671623,25.2221407 C34.2778516,25.2577048 34.3082917,25.3033052 34.4228818,25.3854882 Z" id="Shape" fill="#FFFFFF"></path>
                <path d="M20.1684034,25.4498842 C21.3685716,25.9430598 22.0205518,27.6870014 21.2309574,28.7827582 C19.5153118,31.1640705 17.1534294,31.5646142 14.6268384,30.9378917 C13.8971308,30.7570744 13.1847635,30.3707106 12.9165738,29.8777397 C12.4202,28.9653337 13.1972988,28.3371423 14.7275625,28.0244694 C15.2159894,27.9247787 15.5834203,27.837865 15.8704331,27.7540452 C16.4559143,27.5830602 16.6920053,27.4428048 16.9543998,27.1498451 C17.0014705,27.0972914 17.6170894,26.3255931 17.9270461,25.9823463 C18.6679721,25.1604977 19.3251609,25.1036377 20.1684034,25.4498842 Z M13.9738093,29.3198632 C13.9718605,29.3151206 13.969694,29.3105288 13.9672949,29.3061188 C13.9680946,29.3075888 13.9689522,29.3090775 13.9698669,29.3105843 L13.9738093,29.3198632 Z M14.9146756,29.7768943 C17.01954,30.2990073 18.8932318,29.9812542 20.2604867,28.0835074 C20.5689551,27.6554315 20.2386627,26.7719528 19.7139145,26.5563222 C19.292126,26.3831302 19.1663383,26.3940202 18.8153231,26.7834263 C18.5372227,27.0913632 17.9234138,27.8607938 17.8454049,27.9478896 C17.4262241,28.4158989 16.9961328,28.6714049 16.205751,28.9022295 C15.8822266,28.9967122 15.4848402,29.0907117 14.9668949,29.1964272 C14.5831554,29.2748353 14.3018374,29.3615858 14.1237356,29.4435462 C14.3061344,29.5623777 14.6144062,29.7024893 14.9146756,29.7768943 Z" id="Shape" fill="#FFFFFF"></path>
                <path d="M18.4489234,23.1094474 C18.5249215,22.9067337 18.6105961,22.7041649 18.7329694,22.4315697 C18.710446,22.4817423 18.9677639,21.913901 19.0376816,21.7541686 C19.9449996,19.6813329 20.1516263,17.7495144 19.3954323,14.2829401 C19.0774473,12.8255897 17.9826884,12.4065469 16.2483811,12.8031066 C15.5493914,12.9629348 14.8105252,13.2551006 14.1960673,13.5942555 C13.9368276,13.7373449 13.7193109,13.8789307 13.5746613,13.9955497 C13.5606537,14.0068428 13.547725,14.0175938 13.535945,14.0276846 C13.5380599,14.0727902 13.5408683,14.1257624 13.5444222,14.1880589 C13.5452904,14.2032785 13.5701533,14.6202886 13.5783159,14.7689913 C13.6700176,16.4395638 13.648352,17.9049099 13.4226888,19.5044647 C13.0076465,22.4464878 15.154149,25.013949 17.7895654,25.0214181 C17.9118354,24.5679152 18.1221641,23.9824351 18.4489234,23.1094474 Z M13.5304368,13.8791546 C13.530708,13.8715717 13.530874,13.8637444 13.5309287,13.8556622 C13.530911,13.8583407 13.5309022,13.8610975 13.5309023,13.8639352 L13.5304368,13.8791546 Z M12.2382712,19.3373714 C12.4511591,17.8283711 12.4717733,16.4341412 12.383968,14.8345519 C12.3759932,14.6892722 12.3512373,14.2740547 12.3502179,14.2561864 C12.3390204,14.0599055 12.3341863,13.9421881 12.3348094,13.8476771 C12.3399442,13.087996 14.2521476,12.0325404 15.9817565,11.637055 C18.2873875,11.1098587 20.0768246,11.7948046 20.5640896,14.0279785 C21.3747414,17.7442009 21.1406512,19.9327846 20.1334517,22.2338071 C20.0598925,22.4018587 19.7987479,22.9781446 19.8242015,22.921445 C19.7112775,23.172991 19.6343893,23.3547854 19.5690563,23.5290512 C18.9165018,25.2724507 18.7917974,25.716952 18.8768193,26.2663107 C18.927338,26.5927311 18.7036755,26.8983007 18.3772551,26.9488194 C18.0508346,26.9993381 17.7452651,26.7756756 17.6947463,26.4492552 C17.6823094,26.3688951 17.6722822,26.2917323 17.6649521,26.216193 C14.3534454,26.1336451 11.7293708,22.9447066 12.2382712,19.3373714 Z" id="Shape" fill="#FFFFFF"></path>
                <path d="M16.5334825,13.7247068 C16.5928228,13.2934483 17.1739214,13.1569415 17.8272711,13.2473424 C18.4816506,13.3376241 19.0030027,13.6264329 18.9421077,14.0598163 C18.8819892,14.4872548 18.2342386,14.9223706 17.6482966,14.841361 C17.0597614,14.7604664 16.4729359,14.1496267 16.5334825,13.7247068 Z" id="Shape" fill="#FFFFFF"></path>
                <path d="M32.4196274,13.3298706 C32.4793256,13.7546419 31.8931083,14.3650833 31.3049455,14.4459112 C30.7186323,14.5269102 30.0710552,14.0921212 30.0101167,13.6633555 C29.9508271,13.2307337 30.4718456,12.9421763 31.1252439,12.8519268 C31.77851,12.7616955 32.3588243,12.8979899 32.4196274,13.3298706 Z" id="Shape" fill="#FFFFFF"></path>
                <path d="M33.3262656,12.0614043 C33.3083127,11.7315859 33.5611295,11.4496616 33.8909478,11.4317086 C34.2207662,11.4137557 34.5026905,11.6665725 34.5206435,11.9963908 C34.5560751,12.6473151 34.5149999,13.2140178 34.401355,13.9881259 C34.3822469,14.1182831 34.364109,14.2360678 34.3259095,14.4813623 C34.2058569,15.2555757 34.1560281,15.6814858 34.1385197,16.2256734 C34.1208211,16.7657003 34.1578472,17.1966546 34.293937,18.3199447 C34.6354042,21.1384289 34.5145742,22.557591 33.3463244,24.2871073 C33.161437,24.5608208 32.7896675,24.6328286 32.515954,24.4479412 C32.2422404,24.2630538 32.1702327,23.8912843 32.3551201,23.6175708 C33.3152913,22.1961011 33.4157308,21.0164268 33.106474,18.4638092 C32.9626365,17.2765683 32.9225726,16.8102571 32.943004,16.1868509 C32.9624465,15.5825429 33.0169374,15.1167836 33.1438899,14.2980736 C33.1820745,14.0528382 33.1995005,13.9396767 33.2178943,13.8143848 C33.3209294,13.112547 33.3566537,12.6196702 33.3262656,12.0614043 Z" id="Shape" fill="#FFFFFF"></path>
            </g>
        </g>
    </g>
</svg>
