<svg width="56" height="56" viewBox="0 0 56 56" fill="none" xmlns="http://www.w3.org/2000/svg">
<path d="M4 28C4 14.7452 14.7452 4 28 4C41.2549 4 52 14.7452 52 28C52 41.2549 41.2549 52 28 52C14.7452 52 4 41.2549 4 28Z" fill="white"/>
<path d="M28.0006 4C14.746 4 4 14.7447 4 27.9998C4 41.2544 14.746 52 28.0006 52C41.2553 52 52.0008 41.2544 52.0008 27.9998C52.0008 14.7447 41.2548 4 28.0006 4ZM28.0006 48.9183C24.2295 48.9183 21.1719 46.3991 21.1719 43.2925H34.8293C34.8293 46.3987 31.7718 48.9183 28.0006 48.9183ZM39.2795 41.4293H16.7205V37.3388H39.2799V41.4293H39.2795ZM39.1986 35.2334H16.7849C16.7104 35.1474 16.6341 35.0627 16.5621 34.9755C14.253 32.1716 13.7092 30.7079 13.181 29.2162C13.1721 29.1671 15.981 29.7901 17.9729 30.2382C17.9729 30.2382 18.9979 30.4754 20.4964 30.7485C19.0576 29.062 18.2034 26.9181 18.2034 24.7267C18.2034 19.9157 21.8932 15.7117 20.562 12.3136C21.8576 12.4191 23.2435 15.048 23.3371 19.1584C24.7144 17.255 25.2908 13.7791 25.2908 11.6478C25.2908 9.44119 26.7448 6.87794 28.1993 6.79027C26.9028 8.92702 28.5351 10.7588 29.9862 15.303C30.5304 17.0098 30.461 19.8823 30.8811 21.7039C31.0205 17.9204 31.671 12.4 34.0712 10.4941C33.0124 12.8943 34.2279 15.8976 35.0593 17.3415C36.4007 19.6709 37.2139 21.4358 37.2139 24.7737C37.2139 27.0117 36.3875 29.1188 34.9937 30.7659C36.5786 30.4686 37.673 30.2005 37.673 30.2005L42.8198 29.1963C42.8202 29.1959 42.0723 32.2716 39.1986 35.2334Z" fill="#E6522C"/>
</svg>
