<svg width="20" height="20" viewBox="0 0 20 20" fill="none" xmlns="http://www.w3.org/2000/svg">
<path d="M1.42856 9.99999C1.42856 5.26612 5.26612 1.42856 9.99999 1.42856C14.7339 1.42856 18.5714 5.26612 18.5714 9.99999C18.5714 14.7339 14.7339 18.5714 9.99999 18.5714C5.26612 18.5714 1.42856 14.7339 1.42856 9.99999Z" fill="white"/>
<path d="M10.0002 1.42856C5.26642 1.42856 1.42856 5.26596 1.42856 9.99991C1.42856 14.7337 5.26642 18.5714 10.0002 18.5714C14.734 18.5714 18.5717 14.7337 18.5717 9.99991C18.5717 5.26596 14.7339 1.42856 10.0002 1.42856ZM10.0002 17.4708C8.65336 17.4708 7.56139 16.5711 7.56139 15.4616H12.439C12.439 16.571 11.3471 17.4708 10.0002 17.4708ZM14.0284 14.7962H5.97161V13.3353H14.0285V14.7962H14.0284ZM13.9995 12.5833H5.9946C5.96798 12.5526 5.94075 12.5224 5.91504 12.4912C5.09035 11.4899 4.89613 10.9671 4.7075 10.4343C4.70432 10.4168 5.7075 10.6393 6.4189 10.7993C6.4189 10.7993 6.78495 10.884 7.32013 10.9816C6.80628 10.3793 6.50118 9.61358 6.50118 8.83095C6.50118 7.11274 7.81899 5.6113 7.34357 4.39771C7.80629 4.43538 8.30122 5.37427 8.33465 6.84228C8.82656 6.1625 9.03243 4.92108 9.03243 4.15993C9.03243 3.37184 9.55172 2.45639 10.0712 2.42508C9.60814 3.18821 10.1911 3.84242 10.7093 5.46533C10.9037 6.07492 10.8789 7.10079 11.029 7.75138C11.0787 6.40014 11.3111 4.42857 12.1683 3.74788C11.7901 4.60509 12.2242 5.6777 12.5212 6.19336C13.0002 7.02531 13.2907 7.65563 13.2907 8.84774C13.2907 9.64701 12.9955 10.3995 12.4977 10.9878C13.0638 10.8816 13.4546 10.7859 13.4546 10.7859L15.2928 10.4272C15.2929 10.4271 15.0258 11.5256 13.9995 12.5833Z" fill="#E6522C"/>
<rect x="12" y="12" width="8" height="8" rx="4" fill="#9A32A6"/>
<path d="M15.1532 17.3559C15.3708 16.9985 15.2814 16.5344 14.9467 16.2833C14.5093 15.9552 14.5142 15.2974 14.9566 14.976L17.6765 12.9999L16.6011 15.0084C16.4118 15.3619 16.509 15.8006 16.8297 16.0412C17.2765 16.3762 17.2595 17.0517 16.7966 17.3639L14 19.2499L15.1532 17.3559Z" fill="white"/>
</svg>
