<svg width="56" height="56" viewBox="0 0 56 56" fill="none" xmlns="http://www.w3.org/2000/svg"><path d="M28 52c13.24 0 24-10.76 24-24S41.24 4 28 4 4 14.76 4 28s10.76 24 24 24z" fill="#FC0"/><path d="M33.106 32.358v-.162c.041-.122.083-.203.124-.365.372-.892.992-2.473 1.53-4.013.33-.892.62-1.784.868-2.554.207-.73.372-1.418.372-1.824 0-.365-.124-.73-.413-1.013-.29-.243-.662-.365-1.075-.446-2.357-.284-4.837-.77-6.698-1.784-1.86-.973-3.06-2.391-3.06-4.54 0-1.175.373-2.189 1.034-2.878.662-.689 1.613-1.135 2.894-1.135 1.82 0 2.564.892 2.564 1.5 0 .122-.042.243-.166.405-.082.122-.206.244-.33.406-.042.04-.083.121-.125.162-.372.446-.826 1.054-.826 1.946 0 1.459 1.199 2.594 2.811 2.594.95 0 1.82-.365 2.398-1.054.579-.689.91-1.621.91-2.756 0-3.243-3.267-5.513-7.153-5.513-5.085 0-8.558 3.648-8.558 8.148 0 2.634.95 4.661 2.646 6.12.083.04.083.081.083.081s0 .082-.042.244c-.041.121-.082.243-.165.364-.372.933-.992 2.514-1.53 4.014-.33.891-.62 1.742-.827 2.472-.206.73-.372 1.378-.372 1.784 0 .364.124.73.414 1.013.29.243.661.365 1.074.446 2.357.284 4.838.77 6.698 1.784 1.86.972 3.06 2.391 3.06 4.54 0 1.175-.372 2.188-1.034 2.878-.661.689-1.612 1.135-2.894 1.135-1.82 0-2.563-.892-2.563-1.5 0-.122.041-.243.165-.406.083-.121.207-.243.33-.405.042-.04.084-.122.125-.162.372-.446.827-1.054.827-1.946 0-1.46-1.2-2.594-2.812-2.594-.95 0-1.819.365-2.398 1.054-.578.689-.91 1.621-.91 2.756 0 3.243 3.267 5.513 7.153 5.513 5.086 0 8.559-3.648 8.559-8.148.04-2.634-.951-4.661-2.688-6.161zm-.868-5.553c-.414 1.256-1.24 3.202-1.654 4.094-1.819-.81-3.803-1.338-6.284-1.46-.165 0-.29-.04-.372-.04 0-.04 0-.081.041-.122.414-1.256 1.24-3.202 1.654-4.134 1.819.81 3.804 1.337 6.243 1.5.165 0 .29.04.372.04v.122z" fill="#000"/></svg>