<svg width="56" height="56" viewBox="0 0 56 56" fill="none" xmlns="http://www.w3.org/2000/svg"><path d="M28 52c13.255 0 24-10.745 24-24S41.255 4 28 4 4 14.745 4 28s10.745 24 24 24Z" fill="url(#a)"/><mask id="b" style="mask-type:alpha" maskUnits="userSpaceOnUse" x="4" y="4" width="48" height="48"><path d="M28 52c13.255 0 24-10.745 24-24S41.255 4 28 4 4 14.745 4 28s10.745 24 24 24Z" fill="#fff"/></mask><g mask="url(#b)"><path d="M52 4H4v48h48V4Z" fill="url(#c)"/><path fill-rule="evenodd" clip-rule="evenodd" d="M23.723 52H4v-.041l28.932-26.553-12.363 3.005a6.344 6.344 0 0 1-7.702-4.76c-.795-3.468 1.363-6.962 4.822-7.802L52 7.511v38.43l-1.811 5.39a6.53 6.53 0 0 1-.266.669H38.132a6.341 6.341 0 0 1-.212-4.614l4.088-12.167L23.723 52Z" fill="url(#d)"/><path fill-rule="evenodd" clip-rule="evenodd" d="M23.723 52H4v-.041l28.932-26.553-12.363 3.005a6.344 6.344 0 0 1-7.702-4.76c-.795-3.468 1.363-6.962 4.822-7.802L52 7.511v38.43l-1.811 5.39a6.53 6.53 0 0 1-.266.669H38.132a6.341 6.341 0 0 1-.212-4.614l4.088-12.167L23.723 52Z" fill="url(#e)"/></g><defs><linearGradient id="a" x1="52" y1="4" x2="4" y2="52" gradientUnits="userSpaceOnUse"><stop stop-color="#C4DE99"/><stop offset="1" stop-color="#82BA23"/></linearGradient><linearGradient id="c" x1="52" y1="49.933" x2="-23.2" y2="-19.867" gradientUnits="userSpaceOnUse"><stop offset=".01" stop-color="#3E3BA0"/><stop offset="1" stop-color="#498BFF"/></linearGradient><linearGradient id="d" x1="134.833" y1="68.052" x2="-18.852" y2="86.129" gradientUnits="userSpaceOnUse"><stop stop-color="#FFB800"/><stop offset="1" stop-color="#FFF11D"/></linearGradient><linearGradient id="e" x1="4" y1="47.333" x2="120.2" y2="-14.667" gradientUnits="userSpaceOnUse"><stop stop-color="#FFF11D"/><stop offset="1" stop-color="#FFB800"/></linearGradient></defs></svg>