<svg width="56" height="56" viewBox="0 0 56 56" fill="none" xmlns="http://www.w3.org/2000/svg"><g clip-path="url(#clip0_2474_4756)"><path d="M45.25 40.582 35.094 34.73a2.993 2.993 0 0 0-4.078 1.091 2.97 2.97 0 0 0-.384 1.777v11.44A2.97 2.97 0 0 0 33.605 52a2.97 2.97 0 0 0 2.971-2.963v-6.578l5.69 3.278a2.988 2.988 0 0 0 4.079-1.091 2.964 2.964 0 0 0-1.094-4.064ZM19.989 28.039a2.916 2.916 0 0 0-1.457-2.571L8.374 19.619a2.92 2.92 0 0 0-3.983 1.065 2.907 2.907 0 0 0 1.068 3.973l5.855 3.369-5.855 3.373a2.875 2.875 0 0 0-1.357 1.764 2.88 2.88 0 0 0 .29 2.209 2.925 2.925 0 0 0 3.982 1.065l10.158-5.849a2.922 2.922 0 0 0 1.457-2.55ZM10.679 15.474l10.157 5.849a2.99 2.99 0 0 0 3.58-.449 2.95 2.95 0 0 0 .96-2.182V6.968A2.97 2.97 0 0 0 22.407 4a2.971 2.971 0 0 0-2.975 2.968v6.672l-5.769-3.32a2.988 2.988 0 0 0-4.077 1.086 2.974 2.974 0 0 0 1.094 4.068ZM33.52 28.513c0 .225-.13.535-.29.7l-4.026 4.015c-.16.16-.476.289-.701.289h-1.025c-.225 0-.54-.13-.7-.29l-4.03-4.015a1.148 1.148 0 0 1-.29-.699v-1.022c0-.229.13-.54.29-.699l4.03-4.02c.16-.16.475-.289.7-.289h1.025c.225 0 .54.13.7.29l4.026 4.02c.16.159.29.47.29.698v1.022Zm-3.594-.491v-.044a.85.85 0 0 0-.212-.513l-1.19-1.182a.814.814 0 0 0-.514-.215h-.043a.834.834 0 0 0-.515.215l-1.185 1.182a.83.83 0 0 0-.212.513v.044a.83.83 0 0 0 .212.513l1.185 1.186c.121.116.35.211.515.211h.043a.833.833 0 0 0 .515-.21l1.189-1.187a.83.83 0 0 0 .212-.513ZM35.093 21.323l10.157-5.85a2.973 2.973 0 0 0 1.095-4.067 2.988 2.988 0 0 0-4.078-1.087l-5.69 3.278v-6.63A2.97 2.97 0 0 0 33.605 4a2.971 2.971 0 0 0-2.976 2.968v11.49c-.056.596.061 1.217.385 1.778a2.988 2.988 0 0 0 4.078 1.087ZM22.873 34.384a2.966 2.966 0 0 0-2.037.345L10.68 40.582a2.968 2.968 0 0 0-1.094 4.064 2.986 2.986 0 0 0 4.077 1.09l5.769-3.32v6.62A2.97 2.97 0 0 0 22.406 52a2.97 2.97 0 0 0 2.97-2.963V37.313a2.968 2.968 0 0 0-2.503-2.93ZM51.598 20.65a2.985 2.985 0 0 0-4.077-1.091l-10.158 5.849a2.979 2.979 0 0 0-1.492 2.63 2.969 2.969 0 0 0 1.492 2.606l10.158 5.854a2.993 2.993 0 0 0 4.077-1.092 2.974 2.974 0 0 0-1.094-4.067l-5.75-3.313 5.75-3.313a2.964 2.964 0 0 0 1.094-4.063Z" fill="#29B5E8"/></g><defs><clipPath id="clip0_2474_4756"><path fill="#fff" d="M0 0h56v56H0z"/></clipPath></defs></svg>