<svg width="56" height="56" viewBox="0 0 56 56" fill="none" xmlns="http://www.w3.org/2000/svg"><g clip-path="url(#clip0_3093_67)"><rect x="9" y="9" width="38" height="38" rx="6" fill="#80A3FF"/><path d="M35.65 21.72c.207.069.379.103.62.103.896 0 1.654-.724 1.654-1.654 0-.896-.758-1.654-1.654-1.654-.93 0-1.654.758-1.654 1.654v.276l-3.273 2.618c-.207-.069-.38-.137-.62-.137-.207 0-.38.069-.587.137l-3.273-2.618c0-.104.034-.173.034-.276 0-.896-.758-1.654-1.654-1.654-.93 0-1.654.758-1.654 1.654 0 .172 0 .31.035.448l-3.48 3.48a1.727 1.727 0 0 0-.414-.069c-.93 0-1.654.758-1.654 1.654 0 .93.723 1.654 1.654 1.654.896 0 1.654-.723 1.654-1.654 0-.137-.035-.275-.069-.413l3.48-3.48c.138.034.276.034.448.034.207 0 .38-.035.586-.103l3.274 2.618v.242c0 .93.723 1.654 1.654 1.654.896 0 1.654-.724 1.654-1.654 0-.07-.035-.138-.035-.242l3.274-2.618Zm-3.79 7.822h-2.206a.567.567 0 0 0-.551.551v5.513c0 .31.24.552.551.552h2.205a.567.567 0 0 0 .552-.552v-5.513c0-.276-.276-.551-.552-.551Zm5.513-4.411h-2.206a.567.567 0 0 0-.551.551v9.924c0 .31.241.552.551.552h2.206a.567.567 0 0 0 .551-.552v-9.924c0-.275-.276-.551-.551-.551Zm-11.027 0h-2.205a.567.567 0 0 0-.552.551v9.924c0 .31.242.552.552.552h2.205a.567.567 0 0 0 .551-.552v-9.924c0-.275-.275-.551-.551-.551Zm-5.513 5.513h-2.206a.567.567 0 0 0-.551.552v4.41c0 .31.241.552.551.552h2.206a.567.567 0 0 0 .55-.552v-4.41c0-.276-.275-.552-.55-.552Z" fill="#fff"/></g><defs><clipPath id="clip0_3093_67"><path fill="#fff" d="M0 0h56v56H0z"/></clipPath></defs></svg>