<svg width="56" height="56" viewBox="0 0 56 56" fill="none" xmlns="http://www.w3.org/2000/svg"><g clip-path="url(#clip0_2652_10309)"><g clip-path="url(#clip1_2652_10309)"><path d="M13.886 8.906a23.855 23.855 0 0 1 12.055-4.591v7.198A16.699 16.699 0 1 0 44.467 24.82l6.044-4.86-.004-.038a23.854 23.854 0 1 1-36.62-11.017Z" fill="#FCCA00"/><path d="m45.953 12.266.026.063-4.04 6.416a16.783 16.783 0 0 0-5.74-5.271v14.6a8.11 8.11 0 1 1-3.579-6.728V4.65a23.826 23.826 0 0 1 13.333 7.617Z" fill="#FC3F1D"/></g></g><defs><clipPath id="clip0_2652_10309"><path fill="#fff" d="M0 0h56v56H0z"/></clipPath><clipPath id="clip1_2652_10309"><path fill="#fff" transform="translate(4 4)" d="M0 0h48v48H0z"/></clipPath></defs></svg>