<svg width="56" height="56" viewBox="0 0 56 56" fill="none" xmlns="http://www.w3.org/2000/svg"><path d="M9 27.667c0-6.534 0-9.8 1.283-12.25a10.957 10.957 0 0 1 5.134-5.134C17.867 9 21.133 9 27.667 9c6.533 0 9.8 0 12.25 1.283a12.11 12.11 0 0 1 5.133 5.134c1.283 2.45 1.283 5.716 1.283 12.25 0 6.533 0 9.8-1.283 12.25a12.11 12.11 0 0 1-5.133 5.133c-2.45 1.283-5.717 1.283-12.25 1.283C13.31 46.333 9 41.177 9 27.667Z" fill="#145BC7"/><path d="M10.283 15.416C9 17.866 9 21.133 9 27.666c0 14.356 5.157 18.667 18.667 18.667 2.998 0 5.31 0 7.169-.123l.064-.11 7-25.2c.117-.583-.233-1.284-.817-1.4l-28-7.7a.333.333 0 0 1-.049.036 10.913 10.913 0 0 0-2.75 3.58Z" fill="#367AFE"/><path d="M9.026 23C9 24.345 9 25.885 9 27.667c0 6.533 0 9.8 1.283 12.25a12.11 12.11 0 0 0 5.134 5.133c2.45 1.283 5.716 1.283 12.25 1.283h1.166V24.167c0-.7-.466-1.167-1.166-1.167H9.026Z" fill="#8AB2FF"/><path fill-rule="evenodd" clip-rule="evenodd" d="M11.333 13.667 41.63 43.963a12.104 12.104 0 0 0 3.421-4.046c1.283-2.45 1.283-5.717 1.283-12.25 0-6.534 0-9.8-1.283-12.25a12.11 12.11 0 0 0-5.133-5.134C37.467 9 34.2 9 27.667 9c-6.534 0-9.8 0-12.25 1.283a10.96 10.96 0 0 0-4.084 3.384Z" fill="url(#paint0_linear_2693_10326)"/><defs><linearGradient id="paint0_linear_2693_10326" x1="39.6" y1="10.585" x2="24.75" y2="27.083" gradientUnits="userSpaceOnUse"><stop stop-color="#fff" stop-opacity=".338"/><stop offset="1" stop-color="#fff" stop-opacity="0"/></linearGradient></defs></svg>