<svg width="56" height="56" viewBox="0 0 56 56" fill="none" xmlns="http://www.w3.org/2000/svg"><path d="M28 52c13.255 0 24-10.745 24-24S41.255 4 28 4 4 14.745 4 28s10.745 24 24 24Z" fill="#5282FF"/><g clip-path="url(#clip0_2618_6320)" fill="#fff"><path d="M23.875 33.881V37.8c0 1.21 1.843 2.2 4.125 2.2s4.125-.99 4.125-2.2v-3.919A6.104 6.104 0 0 1 28 35.187a6.104 6.104 0 0 1-4.125-1.306ZM34.875 22.125c2.278 0 4.125-.923 4.125-2.063C39 18.924 37.153 18 34.875 18s-4.125.923-4.125 2.063c0 1.139 1.847 2.062 4.125 2.062Z"/><path d="M30.75 21.506v.619h-5.5v-.619a6.104 6.104 0 0 1-4.125 1.375A6.104 6.104 0 0 1 17 21.506v3.919c0 1.169 1.733 2.117 3.891 2.2l3.383 3.933a1.375 1.375 0 0 0-.399.88c0 1.14 1.843 2.062 4.125 2.062s4.125-.921 4.125-2.063a1.375 1.375 0 0 0-.399-.88l3.383-3.932c2.158-.082 3.891-1.031 3.891-2.2v-3.919a6.104 6.104 0 0 1-4.125 1.375 6.104 6.104 0 0 1-4.125-1.375ZM28 30.375a7.068 7.068 0 0 0-2.544.454l-2.86-3.355c1.54-.317 2.654-1.114 2.654-2.049V23.5h5.5v1.925c0 .935 1.114 1.732 2.654 2.049l-2.86 3.355A6.779 6.779 0 0 0 28 30.375Z"/><path d="M21.125 22.125c2.278 0 4.125-.923 4.125-2.063 0-1.139-1.847-2.062-4.125-2.062S17 18.923 17 20.063c0 1.139 1.847 2.062 4.125 2.062Z"/></g><defs><clipPath id="clip0_2618_6320"><path fill="#fff" transform="translate(17 18)" d="M0 0h22v22H0z"/></clipPath></defs></svg>