<svg width="56" height="56" viewBox="0 0 56 56" fill="none" xmlns="http://www.w3.org/2000/svg"><g clip-path="url(#clip0_1290_876)"><g clip-path="url(#clip1_1290_876)"><path d="M4 28C4 14.745 14.745 4 28 4s24 10.745 24 24-10.745 24-24 24S4 41.255 4 28Z" fill="#5282FF"/><path d="m21.012 36.4-4.676-8.026a2.414 2.414 0 0 1-.032-2.401l4.43-7.83a.815.815 0 0 1 .708-.396.808.808 0 0 1 .696.419l4.673 8a2.414 2.414 0 0 1 .037 2.402l-4.43 7.856a.815.815 0 0 1-.71.397.81.81 0 0 1-.696-.42ZM24.336 16l8.861.015c.423 0 .84.113 1.206.327.366.214.67.522.88.892l4.567 8.006a.853.853 0 0 1-.3 1.147.838.838 0 0 1-.412.12h-8.834a2.424 2.424 0 0 1-1.21-.342 2.446 2.446 0 0 1-.88-.904l-4.59-8.021a.833.833 0 0 1 .303-1.13.817.817 0 0 1 .41-.11Zm.003 22.494 8.882.006a2.4 2.4 0 0 0 1.209-.327c.367-.215.672-.523.883-.893l4.577-8.026a.837.837 0 0 0-.3-1.134.821.821 0 0 0-.412-.112h-9.295a1.853 1.853 0 0 0-1.046.332 1.874 1.874 0 0 0-.679.869l-4.533 8.042a.834.834 0 0 0 .302 1.133c.126.072.268.11.412.11Z" fill="#fff"/></g></g><defs><clipPath id="clip0_1290_876"><path fill="#fff" d="M0 0h56v56H0z"/></clipPath><clipPath id="clip1_1290_876"><path fill="#fff" transform="translate(4 4)" d="M0 0h48v48H0z"/></clipPath></defs></svg>