<svg width="24" height="24" viewBox="0 0 24 24" fill="currentColor" xmlns="http://www.w3.org/2000/svg">
    <path d="M17 5C16.4477 5 16 5.44772 16 6V18C16 18.5523 16.4477 19 17 19H19C19.5523 19 20 18.5523 20 18V6C20 5.44772 19.5523 5 19 5H17ZM10 10.5C10 9.94772 10.4477 9.5 11 9.5H13C13.5523 9.5 14 9.94772 14 10.5V18C14 18.5523 13.5523 19 13 19H11C10.4477 19 10 18.5523 10 18V10.5ZM4 14.5C4 13.9477 4.44772 13.5 5 13.5H7C7.55228 13.5 8 13.9477 8 14.5V18C8 18.5523 7.55228 19 7 19H5C4.44772 19 4 18.5523 4 18V14.5Z"/>
</svg>
