<svg xmlns="http://www.w3.org/2000/svg" viewBox="0 0 16 16" width="16" height="16">
    <circle cx="8" cy="8" r="7" fill="currentColor"/>
    <path fill="#000" d="M8.767 10.6H7.148a35.69 35.69 0 0 1-.006-.425c0-.524.087-.956.26-1.295.174-.338.52-.719 1.041-1.142.52-.423.832-.7.933-.832.157-.207.235-.436.235-.685 0-.347-.138-.645-.415-.892-.278-.248-.651-.371-1.12-.371-.454 0-.832.129-1.137.387-.305.258-.514.651-.628 1.18l-1.638-.203c.046-.757.37-1.4.968-1.93.599-.528 1.385-.793 2.358-.793 1.024 0 1.839.268 2.444.803s.908 1.159.908 1.87c0 .393-.111.765-.334 1.117-.222.35-.697.83-1.425 1.434-.376.313-.61.565-.701.756-.091.19-.132.53-.124 1.022zM7.148 13v-1.784h1.784V13z"/>
</svg>
