<svg xmlns="http://www.w3.org/2000/svg" width="56" height="56" fill="none" viewBox="0 0 56 56"><path fill="#6B8499" d="M32.478 5H12.896a5.02 5.02 0 0 0-3.462 1.367A4.559 4.559 0 0 0 8 9.667V47c0 1.238.516 2.425 1.434 3.3a5.02 5.02 0 0 0 3.462 1.367H42.27a5.02 5.02 0 0 0 3.46-1.367 4.559 4.559 0 0 0 1.434-3.3V19L32.478 5Z"/><path fill="#6B8499" d="M32.89 5v9.625A4.375 4.375 0 0 0 37.265 19h10.32"/><path fill="#000" fill-opacity=".32" d="M32.89 5v9.625A4.375 4.375 0 0 0 37.265 19h10.32"/><g clip-path="url(#a)"><path fill="#fff" fill-rule="evenodd" d="m35.013 29.174-6.187-6.187a1.875 1.875 0 0 0-2.652 0l-6.187 6.187a1.875 1.875 0 0 0 0 2.652l6.187 6.187c.733.732 1.92.732 2.652 0l6.187-6.187a1.875 1.875 0 0 0 0-2.652Zm-4.861-7.513a3.75 3.75 0 0 0-5.304 0l-6.187 6.187a3.75 3.75 0 0 0 0 5.304l6.187 6.187a3.75 3.75 0 0 0 5.304 0l6.187-6.187a3.75 3.75 0 0 0 0-5.304l-6.187-6.187ZM28.75 33.625a1.25 1.25 0 1 1-2.5 0 1.25 1.25 0 0 1 2.5 0Zm-.313-6.875a.937.937 0 1 0-1.875 0v3.125a.937.937 0 1 0 1.875 0V26.75Z" clip-rule="evenodd"/></g><defs><clipPath id="a"><path fill="#fff" d="M17.5 20.5h20v20h-20z"/></clipPath></defs></svg>