<svg width="24" height="24" viewBox="0 0 24 24" fill="none" xmlns="http://www.w3.org/2000/svg">
<rect opacity="0.01" width="24" height="24" fill="#D8D8D8"/>
<path fill-rule="evenodd" clip-rule="evenodd" d="M4 1C3.44772 1 3 1.44772 3 2V22C3 22.5523 3.44772 23 4 23H20C20.5523 23 21 22.5523 21 22V7L15 1H4Z" fill="#6924A1"/>
<path opacity="0.75" fill-rule="evenodd" clip-rule="evenodd" d="M17 7H21L15 1V5C15 6.10457 15.8954 7 17 7Z" fill="#150720"/>
<path opacity="0.9" fill-rule="evenodd" clip-rule="evenodd" d="M10.0083 17.4608C10.0083 18.3669 10.9001 19.1017 12.0001 19.1017C13.1 19.1017 13.9919 18.3668 13.9919 17.4608H10.0083ZM8.7099 16.9173H15.2899L15.29 15.7242H8.7099V16.9173ZM8.72867 15.1101H15.2663C16.1045 14.2462 16.3225 13.3492 16.3225 13.3492L14.8213 13.6421C14.8213 13.6421 14.5021 13.7203 14.0398 13.807C14.4463 13.3266 14.6874 12.712 14.6874 12.0592C14.6874 11.0856 14.4502 10.5709 14.0589 9.8914C13.8164 9.47026 13.4619 8.59426 13.7707 7.89418C13.0706 8.45009 12.8809 10.0603 12.8402 11.1638C12.7853 10.9256 12.7591 10.6258 12.7325 10.3227C12.6999 9.94963 12.6668 9.57148 12.5792 9.29682C12.4548 8.90722 12.3258 8.58598 12.2153 8.31074C11.9499 7.6496 11.791 7.25389 12.058 6.81384C11.6338 6.83941 11.2097 7.58706 11.2097 8.23069C11.2097 8.85233 11.0415 9.8662 10.6398 10.4214C10.6125 9.22245 10.2083 8.45565 9.83038 8.42489C10.0427 8.96696 9.81703 9.57934 9.5689 10.2525C9.36334 10.8103 9.1424 11.4097 9.1424 12.0455C9.1424 12.6847 9.39158 13.31 9.81123 13.802C9.37416 13.7223 9.0752 13.6531 9.0752 13.6531C8.4942 13.5224 7.6749 13.3407 7.6775 13.355C7.83155 13.7901 7.99017 14.2171 8.66369 15.0349C8.67834 15.0526 8.69358 15.07 8.70884 15.0874C8.71546 15.095 8.72209 15.1025 8.72867 15.1101Z" fill="white"/>
</svg>
