<svg width="24" height="24" viewBox="0 0 24 24" fill="none" xmlns="http://www.w3.org/2000/svg">
<rect opacity="0.01" width="24" height="24" fill="#D8D8D8"/>
<path fill-rule="evenodd" clip-rule="evenodd" d="M4 1C3.44772 1 3 1.44772 3 2V22C3 22.5523 3.44772 23 4 23H20C20.5523 23 21 22.5523 21 22V7L15 1H4Z" fill="#6924A1"/>
<path opacity="0.75" fill-rule="evenodd" clip-rule="evenodd" d="M17 7H21L15 1V5C15 6.10457 15.8954 7 17 7Z" fill="#150720"/>
<path opacity="0.9" d="M7.625 9H7V17H17V15.6667H7.625V9ZM14.8125 12.6667L12.625 10.3333L10.4375 12.6667L8.25 10.3333V15H17V10.3333L14.8125 12.6667Z" fill="white"/>
</svg>
