<svg width="16" height="16" viewBox="0 0 16 16" fill="none" xmlns="http://www.w3.org/2000/svg">
<path fill-rule="evenodd" clip-rule="evenodd" d="M6.87868 4.5L6.43934 4.06066L5.81802 3.43934C5.53672 3.15804 5.15518 3 4.75736 3H3.5C2.67157 3 2 3.67157 2 4.5V11C2 11.8284 2.67157 12.5 3.5 12.5H12.5C13.3284 12.5 14 11.8284 14 11V6C14 5.17157 13.3284 4.5 12.5 4.5H7.5H6.87868ZM3.5 1.5C1.84315 1.5 0.5 2.84315 0.5 4.5V11C0.5 12.6569 1.84315 14 3.5 14H12.5C14.1569 14 15.5 12.6569 15.5 11V6C15.5 4.34315 14.1569 3 12.5 3H7.5L6.87868 2.37868C6.31607 1.81607 5.55301 1.5 4.75736 1.5H3.5Z" fill="currentColor" />
<path d="M11.1 6.45004C11.3485 6.11867 11.2814 5.64857 10.95 5.40004C10.6186 5.15152 10.1485 5.21867 9.9 5.55004L7.41885 8.85824L6.03033 7.46971C5.73744 7.17682 5.26256 7.17682 4.96967 7.46971C4.67678 7.76261 4.67678 8.23748 4.96967 8.53037L6.96967 10.5304C7.12341 10.6841 7.3363 10.7636 7.55317 10.7482C7.77004 10.7327 7.96955 10.624 8.1 10.45L11.1 6.45004Z" fill="currentColor" />
</svg>
