<?xml version="1.0" encoding="UTF-8"?>
<svg width="56px" height="56px" viewBox="0 0 56 56" version="1.1" xmlns="http://www.w3.org/2000/svg" xmlns:xlink="http://www.w3.org/1999/xlink">
    <!-- Generator: Sketch 51.3 (57544) - http://www.bohemiancoding.com/sketch -->
    <title>ic-choveryt</title>
    <desc>Created with Sketch.</desc>
    <defs></defs>
    <g id="Page-1" stroke="none" stroke-width="1" fill="none" fill-rule="evenodd">
        <g id="Group-27">
            <g id="Group-3" fill="#FFFFFF" fill-rule="nonzero" opacity="0">
                <rect id="Rectangle-5" x="0" y="0" width="56" height="56"></rect>
            </g>
            <g id="Group-2" transform="translate(5.000000, 11.000000)">
                <g id="Group-5">
                    <path d="M11.8682261,-1.42108547e-14 L36.9684508,-1.17683641e-14 C37.5925093,-1.18830017e-14 38.1700673,0.329922382 38.4870524,0.867481137 L48,17 L38.4870524,33.1325189 C38.1700673,33.6700776 37.5925093,34 36.9684508,34 L11.8682261,34 C10.8945685,34 10.1052632,33.2106946 10.1052632,32.2370371 L10.1052632,1.76296293 C10.1052632,0.789305391 10.8945685,-1.35879075e-14 11.8682261,-1.37667655e-14 Z" id="Rectangle-2" fill="#FFCC00" fill-rule="nonzero"></path>
                    <path d="M21.823,14.568 C21.0863296,14.568 20.4211696,14.4596678 19.8275,14.243 C19.2338304,14.0263323 18.7268354,13.7121687 18.3065,13.3005 C17.8861646,12.8888313 17.5633345,12.3883363 17.338,11.799 C17.1126655,11.2096637 17,10.5380038 17,9.784 C17,9.02999623 17.1104989,8.35833628 17.3315,7.769 C17.5525011,7.17966372 17.8709979,6.67916873 18.287,6.2675 C18.7030021,5.85583127 19.2078304,5.54166775 19.8015,5.325 C20.3951696,5.10833225 21.0689962,5 21.823,5 C22.4730033,5 23.0168311,5.05849941 23.4545,5.1755 C23.8921689,5.29250058 24.2366654,5.42466593 24.488,5.572 L24.488,7.171 C24.1846652,6.98033238 23.8120022,6.82866723 23.37,6.716 C22.9279978,6.60333277 22.4470026,6.547 21.927,6.547 C20.9043282,6.547 20.1503358,6.81566398 19.665,7.353 C19.1796642,7.89033602 18.937,8.70066125 18.937,9.784 C18.937,11.9420108 19.9423233,13.021 21.953,13.021 C22.4730026,13.021 22.9474979,12.9625006 23.3765,12.8455 C23.8055021,12.7284994 24.1759984,12.5616678 24.488,12.345 L24.488,13.905 C24.2539988,14.0783342 23.9138356,14.232166 23.4675,14.3665 C23.0211644,14.500834 22.4730033,14.568 21.823,14.568 Z M31.872,10.577 L27.842,10.577 L27.842,14.438 L25.983,14.438 L25.983,5.117 L27.842,5.117 L27.842,9.03 L31.872,9.03 L31.872,5.117 L33.731,5.117 L33.731,14.438 L31.872,14.438 L31.872,10.577 Z" id="CH" fill="#000000" opacity="0.900000036"></path>
                    <path d="M22.901,24.382 L22.901,28.321 L21.029,28.321 L21.029,24.395 L18,19 L20.054,19 L22.082,22.783 L24.175,19 L25.904,19 L22.901,24.382 Z M31.052,20.56 L31.052,28.321 L29.193,28.321 L29.193,20.56 L26.398,20.56 L26.398,19 L33.847,19 L33.847,20.56 L31.052,20.56 Z" id="YT" fill="#000000"></path>
                    <rect id="Rectangle" fill="#FFCC00" fill-rule="nonzero" x="0" y="0" width="5.05263158" height="34"></rect>
                    <rect id="Rectangle" fill="#FF0400" fill-rule="nonzero" x="0" y="28.962963" width="5.05263158" height="5.03703704"></rect>
                </g>
            </g>
        </g>
    </g>
</svg>