<svg xmlns="http://www.w3.org/2000/svg" viewBox="0 0 479.998 479.998">
  <path d="M315.999 7.998c-48.601 0-88 39.399-88 88v296c0 22.091-17.909 40-40 40s-40-17.909-40-40v-24h16a8 8 0 0 0 8-8v-176a8 8 0 0 0-8-8h-8v-144a8 8 0 0 0-2.344-5.656l-24-24a8 8 0 0 0-11.312 0l-24 24a8 8 0 0 0-2.344 5.656v144h-8a8 8 0 0 0-8 8v176a8 8 0 0 0 8 8h16v24c0 48.601 39.399 88 88 88s88-39.399 88-88v-296c0-22.091 17.909-40 40-40s40 17.909 40 40v384h16v-384c0-30.928-25.072-56-56-56s-56 25.072-56 56v296c0 39.764-32.235 72-72 72-39.764 0-72-32.236-72-72v-24h16v24c0 30.928 25.072 56 56 56s56-25.072 56-56v-296c0-39.765 32.236-72 72-72 39.765 0 72 32.235 72 72v384h16v-384c0-48.601-39.399-88-88-88zm-208 27.312l16-16 16 16v20.688h-32V35.31zm0 36.688h32v24h-32v-24zm0 40h32v24h-32v-24zm0 40h32v24h-32v-24zm-16 200v-160h64v160h-64z"/>
</svg>