<svg width="24" height="24" viewBox="0 0 24 24" xmlns="http://www.w3.org/2000/svg">
    <rect x="5" y="6.99902" width="14" height="2" fill="currentColor"/>
    <path d="M8 11C9.65685 11 11 9.65685 11 8C11 6.34315 9.65685 5 8 5C6.34315 5 5 6.34315 5 8C5 9.65685 6.34315 11 8 11Z" fill="white" stroke="currentColor" stroke-width="2"/>
    <rect x="5" y="15" width="15" height="2" fill="currentColor"/>
    <path d="M16 19.001C17.6569 19.001 19 17.6578 19 16.001C19 14.3441 17.6569 13.001 16 13.001C14.3431 13.001 13 14.3441 13 16.001C13 17.6578 14.3431 19.001 16 19.001Z" fill="white" stroke="currentColor" stroke-width="2"/>
</svg>
