<svg width="16" height="16" viewBox="0 0 16 16" fill="none" xmlns="http://www.w3.org/2000/svg">
<path fill-rule="evenodd" clip-rule="evenodd" d="M12 11C13.6569 11 15 9.65685 15 8V4C15 2.34315 13.6569 1 12 1H8C6.34315 1 5 2.34315 5 4V5H4C2.34315 5 1 6.34315 1 8V12C1 13.6569 2.34315 15 4 15H8C9.65685 15 11 13.6569 11 12V11H12ZM4 6.5C3.17157 6.5 2.5 7.17157 2.5 8V12C2.5 12.8284 3.17157 13.5 4 13.5H8C8.82843 13.5 9.5 12.8284 9.5 12V8C9.5 7.49806 9.25346 7.0537 8.87487 6.78142C8.62861 6.60431 8.32649 6.5 8 6.5H4ZM13.5 4C13.5 3.17157 12.8284 2.5 12 2.5H8C7.34689 2.5 6.79127 2.9174 6.58535 3.5C6.53008 3.65639 6.5 3.82468 6.5 4V5H8C9.65685 5 11 6.34315 11 8V9.5H12C12.1753 9.5 12.3436 9.46992 12.5 9.41465C13.0826 9.20873 13.5 8.65311 13.5 8V4Z" fill="currentColor" />
<path fill-rule="evenodd" clip-rule="evenodd" d="M8.03033 9.03033C8.32322 8.73744 8.32322 8.26256 8.03033 7.96967C7.73744 7.67678 7.26256 7.67678 6.96967 7.96967L6 8.93934L5.03033 7.96967C4.73744 7.67678 4.26256 7.67678 3.96967 7.96967C3.67678 8.26256 3.67678 8.73744 3.96967 9.03033L4.93934 10L3.96967 10.9697C3.67678 11.2626 3.67678 11.7374 3.96967 12.0303C4.26256 12.3232 4.73744 12.3232 5.03033 12.0303L6 11.0607L6.96967 12.0303C7.26256 12.3232 7.73744 12.3232 8.03033 12.0303C8.32322 11.7374 8.32322 11.2626 8.03033 10.9697L7.06066 10L8.03033 9.03033Z" fill="currentColor" />
</svg>
