<?xml version="1.0" encoding="UTF-8"?>
<svg width="56px" height="56px" viewBox="0 0 56 56" version="1.1" xmlns="http://www.w3.org/2000/svg" xmlns:xlink="http://www.w3.org/1999/xlink">
    <!-- Generator: Sketch 51.2 (57519) - http://www.bohemiancoding.com/sketch -->
    <defs></defs>
    <g id="Page-1" stroke="none" stroke-width="1" fill="none" fill-rule="evenodd">
        <g id="Group-5">
            <rect id="Rectangle-5" fill="#FFFFFF" fill-rule="nonzero" opacity="0" x="0" y="0" width="56" height="56"></rect>
            <g id="XLS" transform="translate(11.000000, 7.000000)">
                <path d="M22,0 L34,12 L34,42 L0,42 L0,0 L22,0 Z" id="Combined-Shape" fill="#43A047"></path>
                <path d="M22,0 L34,12 L25.9958262,12 C23.7889923,12 22,10.2034788 22,8.00417376 L22,0 Z" id="Combined-Shape" fill="#000000" opacity="0.300000012"></path>
                <path d="M11.1289844,21.312 C11.0969842,21.0959989 11.0249849,20.8980009 10.9129844,20.718 C10.8009838,20.5379991 10.6609852,20.3800007 10.4929844,20.244 C10.3249835,20.1079993 10.1349854,20.0020004 9.92298437,19.926 C9.71098331,19.8499996 9.48898553,19.812 9.25698437,19.812 C8.83298225,19.812 8.47298585,19.8939992 8.17698437,20.058 C7.88098289,20.2220008 7.64098529,20.4419986 7.45698437,20.718 C7.27298345,20.9940014 7.13898479,21.3079982 7.05498437,21.66 C6.97098395,22.0120018 6.92898437,22.3759981 6.92898437,22.752 C6.92898437,23.1120018 6.97098395,23.4619983 7.05498437,23.802 C7.13898479,24.1420017 7.27298345,24.4479986 7.45698437,24.72 C7.64098529,24.9920014 7.88098289,25.2099992 8.17698437,25.374 C8.47298585,25.5380008 8.83298225,25.62 9.25698437,25.62 C9.83298725,25.62 10.2829828,25.4440018 10.6069844,25.092 C10.930986,24.7399982 11.128984,24.2760029 11.2009844,23.7 L13.0249844,23.7 C12.9769841,24.2360027 12.8529854,24.7199978 12.6529844,25.152 C12.4529834,25.5840022 12.188986,25.9519985 11.8609844,26.256 C11.5329827,26.5600015 11.1489866,26.7919992 10.7089844,26.952 C10.2689822,27.1120008 9.78498701,27.192 9.25698437,27.192 C8.60098109,27.192 8.01098699,27.0780011 7.48698437,26.85 C6.96298175,26.6219989 6.52098617,26.308002 6.16098437,25.908 C5.80098257,25.507998 5.52498533,25.0380027 5.33298437,24.498 C5.14098341,23.9579973 5.04498437,23.3760031 5.04498437,22.752 C5.04498437,22.1119968 5.14098341,21.5180027 5.33298437,20.97 C5.52498533,20.4219973 5.80098257,19.944002 6.16098437,19.536 C6.52098617,19.127998 6.96298175,18.8080012 7.48698437,18.576 C8.01098699,18.3439988 8.60098109,18.228 9.25698437,18.228 C9.72898673,18.228 10.1749823,18.2959993 10.5949844,18.432 C11.0149865,18.5680007 11.3909827,18.7659987 11.7229844,19.026 C12.054986,19.2860013 12.3289833,19.6079981 12.5449844,19.992 C12.7609855,20.3760019 12.8969841,20.8159975 12.9529844,21.312 L11.1289844,21.312 Z M15.5929844,24.156 C15.5929844,24.4440014 15.6449839,24.687999 15.7489844,24.888 C15.8529849,25.088001 15.9909835,25.2499994 16.1629844,25.374 C16.3349852,25.4980006 16.5369832,25.5899997 16.7689844,25.65 C17.0009855,25.7100003 17.2409831,25.74 17.4889844,25.74 C17.6569852,25.74 17.8369834,25.7260001 18.0289844,25.698 C18.2209853,25.6699999 18.4009835,25.6160004 18.5689844,25.536 C18.7369852,25.4559996 18.8769838,25.3460007 18.9889844,25.206 C19.1009849,25.0659993 19.1569844,24.8880011 19.1569844,24.672 C19.1569844,24.4399988 19.0829851,24.2520007 18.9349844,24.108 C18.7869836,23.9639993 18.5929856,23.8440005 18.3529844,23.748 C18.1129832,23.6519995 17.8409859,23.5680004 17.5369844,23.496 C17.2329829,23.4239996 16.9249859,23.3440004 16.6129844,23.256 C16.2929828,23.1759996 15.9809859,23.0780006 15.6769844,22.962 C15.3729829,22.8459994 15.1009856,22.6960009 14.8609844,22.512 C14.6209832,22.3279991 14.4269851,22.0980014 14.2789844,21.822 C14.1309836,21.5459986 14.0569844,21.212002 14.0569844,20.82 C14.0569844,20.3799978 14.1509834,19.9980016 14.3389844,19.674 C14.5269853,19.3499984 14.7729829,19.0800011 15.0769844,18.864 C15.3809859,18.6479989 15.7249825,18.4880005 16.1089844,18.384 C16.4929863,18.2799995 16.8769825,18.228 17.2609844,18.228 C17.7089866,18.228 18.1389823,18.2779995 18.5509844,18.378 C18.9629864,18.4780005 19.3289828,18.6399989 19.6489844,18.864 C19.968986,19.0880011 20.2229834,19.3739983 20.4109844,19.722 C20.5989853,20.0700017 20.6929844,20.4919975 20.6929844,20.988 L18.8689844,20.988 C18.8529843,20.7319987 18.7989848,20.5200008 18.7069844,20.352 C18.6149839,20.1839992 18.4929851,20.0520005 18.3409844,19.956 C18.1889836,19.8599995 18.0149854,19.7920002 17.8189844,19.752 C17.6229834,19.7119998 17.4089855,19.692 17.1769844,19.692 C17.0249836,19.692 16.8729851,19.7079998 16.7209844,19.74 C16.5689836,19.7720002 16.430985,19.8279996 16.3069844,19.908 C16.1829838,19.9880004 16.0809848,20.0879994 16.0009844,20.208 C15.920984,20.3280006 15.8809844,20.4799991 15.8809844,20.664 C15.8809844,20.8320008 15.9129841,20.9679995 15.9769844,21.072 C16.0409847,21.1760005 16.1669834,21.2719996 16.3549844,21.36 C16.5429853,21.4480004 16.8029827,21.5359996 17.1349844,21.624 C17.466986,21.7120004 17.9009817,21.8239993 18.4369844,21.96 C18.5969852,21.9920002 18.818983,22.0499996 19.1029844,22.134 C19.3869858,22.2180004 19.668983,22.3519991 19.9489844,22.536 C20.2289858,22.7200009 20.4709834,22.9659985 20.6749844,23.274 C20.8789854,23.5820015 20.9809844,23.9759976 20.9809844,24.456 C20.9809844,24.848002 20.9049851,25.2119983 20.7529844,25.548 C20.6009836,25.8840017 20.3749859,26.1739988 20.0749844,26.418 C19.7749829,26.6620012 19.4029866,26.8519993 18.9589844,26.988 C18.5149822,27.1240007 18.0009873,27.192 17.4169844,27.192 C16.944982,27.192 16.4869866,27.1340006 16.0429844,27.018 C15.5989822,26.9019994 15.2069861,26.7200012 14.8669844,26.472 C14.5269827,26.2239988 14.2569854,25.9080019 14.0569844,25.524 C13.8569834,25.1399981 13.7609843,24.6840026 13.7689844,24.156 L15.5929844,24.156 Z M26.0809844,27 L23.9569844,27 L21.1849844,18.432 L23.1169844,18.432 L25.0249844,24.456 L25.0489844,24.456 L26.9809844,18.432 L28.9249844,18.432 L26.0809844,27 Z" id="CSV" fill="#FFFFFF"></path>
            </g>
        </g>
    </g>
</svg>
