<svg width="40" height="40" viewBox="0 0 40 40" fill="none" xmlns="http://www.w3.org/2000/svg">
<rect x="4" y="4" width="32" height="32" rx="6.73684" fill="white"/>
<path d="M18.1993 23.5071C18.1959 24.0721 18.3432 24.6279 18.626 25.1172C18.9088 25.6065 19.317 26.0118 19.8086 26.2913L26.4295 30.1046V27.7738L20.8215 24.5389C20.6416 24.4333 20.4923 24.2825 20.3886 24.1015C20.2849 23.9206 20.2304 23.7157 20.2304 23.5071C20.2304 23.2986 20.2849 23.0937 20.3886 22.9127C20.4923 22.7318 20.6416 22.581 20.8215 22.4754L26.4295 19.2404V16.9043L19.8086 20.7229C19.317 21.0025 18.9088 21.4077 18.626 21.8971C18.3432 22.3864 18.1959 22.9421 18.1993 23.5071V23.5071Z" fill="black"/>
<path d="M21.4939 16.492C21.4976 15.927 21.3504 15.3711 21.0675 14.8818C20.7847 14.3924 20.3763 13.9872 19.8846 13.7078L13.2637 9.89453V12.2307L18.8729 15.4643C19.0532 15.5698 19.2028 15.7206 19.3067 15.9017C19.4106 16.0828 19.4652 16.288 19.4652 16.4967C19.4652 16.7054 19.4106 16.9106 19.3067 17.0917C19.2028 17.2728 19.0532 17.4236 18.8729 17.5291L13.2637 20.7641V23.1002L19.8846 19.2816C20.3771 19.0018 20.786 18.5957 21.0689 18.1053C21.3518 17.615 21.4985 17.058 21.4939 16.492V16.492Z" fill="black"/>
</svg>
