<svg xmlns="http://www.w3.org/2000/svg" width="179" height="24" fill="none" viewBox="0 0 179 24"><path fill="#fff" d="M10.213 20.8H7.116v-5.147L1.279 2.824h3.226L9.06 12.86c.87 1.913 1.152 2.586 1.152 4.888zm2.022-9.285H9.087l3.788-8.69h3.149zm32.356 9.543c-2.867 0-4.863-2.38-4.863-6.673 0-4.345 2.047-6.854 4.991-6.854 1.331 0 2.458.621 3.225 1.785V2.824h3.047V20.8h-2.816l-.154-1.681c-.819 1.267-1.996 1.94-3.43 1.94m18.712-1.138c-.896.621-2.329 1.138-4.274 1.138-3.891 0-6.093-2.198-6.093-6.724 0-3.932 1.766-6.803 5.478-6.803 3.046 0 5.017 1.707 5.017 6.234v1.63h-7.346c.128 2.172.972 3.232 3.2 3.232 1.484 0 3.071-.569 4.018-1.215zm-38.32-7.992v5.69q0 1.59.154 3.182h-2.97a4 4 0 0 1-.23-1.035h-.128c-.589.62-1.357 1.216-3.149 1.216-2.355 0-3.942-1.449-3.942-3.957 0-2.716 2.074-4.242 6.733-4.242h.486v-.828c0-1.396-.666-1.914-2.125-1.914-1.715 0-3.2.931-4.172 1.733V9.11c.921-.672 2.534-1.526 4.53-1.526 3.226 0 4.813 1.19 4.813 4.345m5.53-.465V20.8h-3.047V7.79h2.97l.076 1.086h.154c.614-.62 1.69-1.293 3.507-1.293 2.483 0 3.507 1.138 3.507 3.725V20.8h-3.046v-9.182c0-.983-.487-1.448-1.562-1.448-1.1 0-1.997.595-2.56 1.293m42.16 9.337-2.74-4.397-2.585 4.397H64.25l4.044-6.777-3.89-6.233h3.43l2.457 3.931 2.201-3.93h3.046l-3.635 6.31 4.198 6.699zM45.486 9.963c-1.74 0-2.61 1.345-2.61 4.422 0 2.949.818 4.242 2.482 4.242 1.715 0 2.585-1.319 2.585-4.345 0-3-.819-4.32-2.457-4.32m12.876 0c-1.46 0-2.202 1.086-2.278 3.155h4.249v-.258c0-1.63-.46-2.897-1.971-2.897m-36.426 7.733v-2.87h-.435c-2.611 0-3.66.516-3.66 2.017 0 1.137.64 1.888 1.92 1.888 1.074 0 1.791-.466 2.175-1.035M84.32 2.824h4.306c4.834 0 8.452 2.276 8.452 8.897 0 5.872-3.645 9.079-8.716 9.079H84.32zm3.778 15.545c3.46 0 5.731-2.25 5.731-6.7 0-4.836-2.245-6.414-5.467-6.414h-.846V18.37zM108.904 11.928v5.69q0 1.59.158 3.182h-3.064a4 4 0 0 1-.238-1.035h-.132c-.607.62-1.4 1.216-3.249 1.216-2.43 0-4.067-1.475-4.067-4.113s2.139-4.19 6.947-4.19h.501v-.724c0-1.396-.686-1.914-2.192-1.914-1.611 0-3.46.673-4.305 1.294V8.773c.95-.543 2.588-1.19 4.675-1.19 3.328 0 4.966 1.19 4.966 4.345m-3.144 5.768v-2.974h-.449c-2.694 0-3.777.543-3.777 2.069 0 1.164.661 1.94 1.981 1.94 1.11 0 1.849-.466 2.245-1.035M110.117 7.79h1.664V4.945h3.143V7.79h3.302v2.431h-3.302v6.7c0 .956.607 1.706 1.928 1.706 1.057 0 1.638-.414 1.638-.414v2.51s-.872.335-2.404.335c-2.905 0-4.305-1.732-4.305-4.164v-6.673h-1.664zM130.004 11.928v5.69q0 1.59.159 3.182h-3.064a4 4 0 0 1-.238-1.035h-.132c-.608.62-1.4 1.216-3.249 1.216-2.43 0-4.068-1.475-4.068-4.113s2.14-4.19 6.947-4.19h.502v-.724c0-1.396-.687-1.914-2.192-1.914-1.612 0-3.461.673-4.306 1.294V8.773c.951-.543 2.589-1.19 4.675-1.19 3.329 0 4.966 1.19 4.966 4.345m-3.143 5.768v-2.974h-.449c-2.694 0-3.777.543-3.777 2.069 0 1.164.66 1.94 1.981 1.94 1.109 0 1.849-.466 2.245-1.035M132.532 2.824h3.196V18.37h6.418v2.43h-9.614zM153.767 19.92c-.924.621-2.403 1.138-4.411 1.138-4.015 0-6.287-2.198-6.287-6.724 0-3.932 1.823-6.803 5.653-6.803 3.143 0 5.177 1.707 5.177 6.234v1.63h-7.581c.132 2.172 1.004 3.232 3.302 3.232 1.532 0 3.17-.569 4.147-1.215zm-5.098-9.957c-1.505 0-2.271 1.086-2.351 3.155h4.385v-.258c0-1.63-.475-2.897-2.034-2.897M159.149 11.463V20.8h-3.144V7.79h3.064l.08 1.086h.158c.634-.62 1.743-1.293 3.619-1.293 2.562 0 3.619 1.138 3.619 3.725V20.8h-3.144v-9.182c0-.983-.502-1.448-1.611-1.448-1.136 0-2.06.595-2.641 1.293M173.152 21.058c-3.064 0-4.543-1.215-4.543-1.215v-2.51c.264.13 1.743 1.294 4.041 1.294 1.796 0 2.615-.491 2.615-1.5 0-1.138-.977-1.63-2.8-1.862-2.589-.336-3.936-1.526-3.936-3.828 0-2.25 1.796-3.906 5.019-3.906 2.615 0 3.857.725 3.857.725v2.508c-.212-.155-1.506-.879-3.54-.879-1.479 0-2.272.44-2.272 1.423 0 1.241 1.11 1.396 2.43 1.577 2.668.362 4.28 1.552 4.28 3.828 0 3.078-2.034 4.345-5.151 4.345"/></svg>