<svg width="20" height="20" viewBox="0 0 20 20" xmlns="http://www.w3.org/2000/svg">
    <path fill="currentColor" fill-rule="evenodd" d="M4.31586 8.15802C4.31586 8.94287 3.67963 9.5791 2.89478 9.5791C2.10992 9.5791 1.47369 8.94287 1.47369 8.15802C1.47369 7.37317 2.10992 6.73694 2.89478 6.73694C3.02119 6.73694 3.14169 6.75885 3.25834 6.78964L6.26333 3.78464C6.23254 3.66799 6.21063 3.5475 6.21063 3.42108C6.21063 2.63623 6.84686 2 7.63172 2C8.41657 2 9.0528 2.63623 9.0528 3.42108C9.0528 3.49142 9.04261 3.55921 9.03247 3.62667L9.03178 3.63128L11.8538 5.88903C12.014 5.82656 12.1863 5.78926 12.3684 5.78926C12.5504 5.78926 12.723 5.82656 12.8829 5.88903L15.7055 3.63099C15.7048 3.626 15.7041 3.62101 15.7033 3.61602C15.6939 3.55201 15.6845 3.48782 15.6845 3.42108C15.6845 2.63623 16.3207 2 17.1056 2C17.8904 2 18.5267 2.63623 18.5267 3.42108C18.5267 4.20593 17.8904 4.84216 17.1056 4.84216C16.9235 4.84216 16.7512 4.80486 16.5916 4.74269L13.769 7.00073C13.7697 7.00572 13.7705 7.01072 13.7712 7.01571C13.7806 7.07971 13.79 7.1439 13.79 7.21063C13.79 7.99549 13.1538 8.63172 12.369 8.63172C11.5841 8.63172 10.9479 7.99549 10.9479 7.21063C10.9479 7.1403 10.9581 7.0725 10.9682 7.00505L10.9689 7.00043L8.14627 4.74239C7.9861 4.80486 7.81379 4.84216 7.63172 4.84216C7.5053 4.84216 7.3848 4.82026 7.26816 4.78947L4.26316 7.79446C4.29395 7.91111 4.31586 8.0316 4.31586 8.15802ZM6.68433 7.68433H8.5791C9.10224 7.68433 9.52649 8.10858 9.52649 8.63172V16.2108C9.52649 16.734 9.10224 17.1582 8.5791 17.1582H6.68433C6.16119 17.1582 5.73694 16.734 5.73694 16.2108V8.63172C5.73694 8.10858 6.16119 7.68433 6.68433 7.68433ZM15.2108 8.63172C15.2108 8.10858 15.6351 7.68433 16.1582 7.68433H18.053C18.5761 7.68433 19.0004 8.10858 19.0004 8.63172V16.2108C19.0004 16.734 18.5761 17.1582 18.053 17.1582H16.1582C15.6351 17.1582 15.2108 16.734 15.2108 16.2108V8.63172ZM13.316 11.4739H11.4213C10.8981 11.4739 10.4739 11.8981 10.4739 12.4213V16.2108C10.4739 16.734 10.8981 17.1582 11.4213 17.1582H13.316C13.8392 17.1582 14.2634 16.734 14.2634 16.2108V12.4213C14.2634 11.8981 13.8392 11.4739 13.316 11.4739ZM12.8423 15.7371H11.895V12.895H12.8423V15.7371ZM8.10541 15.7371H7.15802V9.10541H8.10541V15.7371ZM1 13.3687C1 12.8455 1.42425 12.4213 1.94739 12.4213H3.84216C4.3653 12.4213 4.78955 12.8455 4.78955 13.3687V16.2108C4.78955 16.734 4.3653 17.1582 3.84216 17.1582H1.94739C1.42425 17.1582 1 16.734 1 16.2108V13.3687ZM17.5793 15.7371H16.6319V9.10541H17.5793V15.7371ZM3.36847 13.8423V15.7371H2.42108V13.8423H3.36847Z"/>
</svg>
