<svg width="20" height="20" viewBox="0 0 20 20" xmlns="http://www.w3.org/2000/svg">
    <path fill="currentColor" fill-rule="evenodd" d="M19 10C19 14.9706 14.9706 19 10 19C5.02944 19 1 14.9706 1 10C1 5.02944 5.02944 1 10 1C14.9706 1 19 5.02944 19 10ZM17.2018 9.99997C17.2018 13.9764 13.9782 17.2 10.0018 17.2C6.02531 17.2 2.80176 13.9764 2.80176 9.99997C2.80176 6.02352 6.02531 2.79997 10.0018 2.79997C13.9782 2.79997 17.2018 6.02352 17.2018 9.99997ZM6.17649 7.45024C5.82513 7.09866 5.82531 6.52881 6.17689 6.17745C6.52847 5.82609 7.09832 5.82627 7.44968 6.17785L9.99677 8.72655L12.542 6.18136C12.8934 5.82989 13.4633 5.82989 13.8148 6.18136C14.1662 6.53283 14.1662 7.10268 13.8148 7.45415L11.2692 9.99974L13.8147 12.5469C14.166 12.8985 14.1659 13.4683 13.8143 13.8197C13.4627 14.171 12.8928 14.1708 12.5415 13.8193L9.99637 11.2725L7.44948 13.8194C7.09801 14.1709 6.52816 14.1709 6.17669 13.8194C5.82522 13.4679 5.82522 12.8981 6.17669 12.5466L8.72398 9.99934L6.17649 7.45024Z"/>
</svg>
