<svg width="20" height="20" viewBox="0 0 20 20" xmlns="http://www.w3.org/2000/svg">
    <path fill="currentColor" fill-rule="evenodd" d="M10.0013 1C12.4175 1 14.3763 2.98985 14.3763 5.44444V7.22354C15.2163 7.2359 15.5474 7.33786 15.8809 7.51908C16.2374 7.71275 16.5172 7.99696 16.7078 8.3591C16.8985 8.72124 17 9.08045 17 10.071V14.1513C17 15.1419 16.8985 15.5011 16.7078 15.8632C16.5172 16.2253 16.2374 16.5096 15.8809 16.7032C15.5244 16.8969 15.1708 17 14.1958 17H5.80425C4.82915 17 4.47556 16.8969 4.11907 16.7032C3.76259 16.5096 3.48282 16.2253 3.29218 15.8632C3.10153 15.5011 3 15.1419 3 14.1513V10.071C3 9.08045 3.10153 8.72124 3.29218 8.3591C3.48282 7.99696 3.76259 7.71275 4.11907 7.51908C4.45298 7.33767 4.78435 7.23569 5.62628 7.2235V5.44444C5.62628 2.98985 7.58504 1 10.0013 1ZM5.06106 9.04351C5.19692 9.01686 5.43071 8.99998 5.80382 8.99998H14.1953C14.5684 8.99998 14.8022 9.01686 14.9381 9.04351C14.9913 9.05395 15.0031 9.05835 15.0552 9.08668C15.1067 9.11467 15.1367 9.1451 15.1642 9.19743C15.1921 9.25041 15.1964 9.26235 15.2067 9.31641C15.233 9.45442 15.2496 9.69193 15.2496 10.071V14.1512C15.2496 14.5302 15.233 14.7677 15.2067 14.9058C15.1964 14.9598 15.1921 14.9718 15.1642 15.0247C15.1367 15.0771 15.1067 15.1075 15.0552 15.1355C15.0031 15.1638 14.9913 15.1682 14.9381 15.1787C14.8022 15.2053 14.5684 15.2222 14.1953 15.2222H5.80382C5.43071 15.2222 5.19692 15.2053 5.06106 15.1787C5.00785 15.1682 4.99609 15.1638 4.94395 15.1355C4.89243 15.1075 4.86247 15.0771 4.83492 15.0247C4.80704 14.9718 4.8027 14.9598 4.79242 14.9058C4.76619 14.7677 4.74957 14.5302 4.74957 14.1512V10.071C4.74957 9.69193 4.76619 9.45442 4.79242 9.31641C4.8027 9.26235 4.80704 9.25041 4.83492 9.19743C4.86247 9.1451 4.89243 9.11467 4.94395 9.08668C4.99609 9.05835 5.00785 9.05395 5.06106 9.04351ZM12.6259 5.44438V7.22215H7.37585V5.44438C7.37585 3.97162 8.55111 2.77771 10.0009 2.77771C11.4506 2.77771 12.6259 3.97162 12.6259 5.44438Z"/>
</svg>
