<svg width="20" height="20" viewBox="0 0 20 20" xmlns="http://www.w3.org/2000/svg">
    <path fill="currentColor" fill-rule="evenodd" d="M2 4.85713C2 1.81773 6.89471 1 10 1C13.1061 1 18 1.8171 18 4.85713V15.1429C18 18.1823 13.1053 19 10 19C6.89393 19 2 18.1829 2 15.1428V4.85713ZM10.0008 2.6875C13.4711 2.6875 16.2865 3.66214 16.2865 4.85713V5.01783C16.2865 6.21286 13.4711 7.1875 10.0008 7.1875C6.53058 7.1875 3.71511 6.21286 3.71511 5.01787V4.85717C3.71511 3.66214 6.53058 2.6875 10.0008 2.6875ZM16.2865 7.4342V8.36229C16.2865 9.55729 13.4711 10.5319 10.0008 10.5319C6.53058 10.5319 3.71511 9.55729 3.71511 8.36229V7.4342C5.06558 8.41731 7.53729 8.87498 10.0008 8.87498C12.4644 8.87498 14.9361 8.41731 16.2865 7.4342ZM16.2865 11.7526V10.8092C14.9361 11.7923 12.4644 12.25 10.0008 12.25C7.53729 12.25 5.06558 11.7923 3.71511 10.8092V11.7526C3.71511 12.9476 6.53058 13.9223 10.0008 13.9223C13.4711 13.9223 16.2865 12.9476 16.2865 11.7526ZM16.2865 14.1842V15.1428C16.2865 16.3378 13.4711 17.3125 10.0008 17.3125C6.53058 17.3125 3.71511 16.3378 3.71511 15.1428V14.1842C5.06558 15.1673 7.53729 15.625 10.0008 15.625C12.4644 15.625 14.9361 15.1673 16.2865 14.1842Z"/>
</svg>
