<svg width="20" height="20" viewBox="0 0 20 20" fill="none" xmlns="http://www.w3.org/2000/svg"><g clip-path="url(#clip0_2902_10398)"><g clip-path="url(#clip1_2902_10398)"><rect x="2.5" y="2.5" width="15" height="15" rx="3.33" fill="#FC0"/><path d="M5.533 11.816c-.315 0-.587-.069-.816-.206a1.38 1.38 0 0 1-.527-.575 1.908 1.908 0 0 1-.184-.86c0-.327.061-.613.184-.86.124-.246.3-.438.527-.575.23-.137.501-.206.816-.206.362 0 .665.09.91.27.247.179.42.422.52.728l-.599.166a.849.849 0 0 0-.295-.444.855.855 0 0 0-.536-.16c-.2 0-.367.045-.5.134a.815.815 0 0 0-.3.376c-.068.162-.101.352-.101.571 0 .219.033.41.1.57a.815.815 0 0 0 .3.377.888.888 0 0 0 .501.134.855.855 0 0 0 .536-.16.86.86 0 0 0 .295-.444l.6.166c-.1.306-.274.55-.52.729-.246.179-.55.269-.91.269ZM7.445 11.75V8.6h.595v1.295h1.41V8.6h.594v3.15H9.45v-1.3H8.04v1.3h-.595ZM11.428 11.75v-1.282L10.352 8.6h.696l.682 1.186.683-1.186h.695l-1.076 1.868v1.282h-.604ZM14.277 11.75V9.156h-.993V8.6h2.581v.556h-.993v2.594h-.595Z" fill="#000" fill-opacity=".85"/><rect x="12" y="12" width="8" height="8" rx="4" fill="#9A32A6"/><path d="M15.153 17.356a.813.813 0 0 0-.206-1.073.812.812 0 0 1 .01-1.307L17.677 13 16.6 15.008a.812.812 0 0 0 .229 1.033.812.812 0 0 1-.033 1.323L14 19.25l1.153-1.894Z" fill="#fff"/></g></g><defs><clipPath id="clip0_2902_10398"><path fill="#fff" d="M0 0h20v20H0z"/></clipPath><clipPath id="clip1_2902_10398"><path fill="#fff" d="M0 0h20v20H0z"/></clipPath></defs></svg>