<svg viewBox="0 0 20 20" fill="none" xmlns="http://www.w3.org/2000/svg"><g opacity=".01"><path fill="#000" d="M0 0h20v20H0z"/><path fill="#D8D8D8" d="M0 0h20v20H0z"/></g><path d="M11.949 18.108c-1.044.222-1.763-.166-2.132-.932-.08-.167-.248-.656-.195-.515-.152-.406-.21-.926-.245-1.81a26.312 26.312 0 0 1-.015-.485c-.542.208-1.14.198-1.746.048-.298-.074-.583-.21-.781-.42-.631.48-1.368.414-1.973-.17-.465-.448-.866-1.195-1.237-2.195C3.082 10.165 2.592 8 2.551 7.174c-.136-2.687 1.192-4.017 3.322-4.087.677-.022 1.383.083 2.082.271.185.05.35.1.49.146.548-.314 1.192-.473 1.926-.461.385.006.746.038 1.084.096a6.848 6.848 0 0 1 1.899-.258c1.451.017 2.744.536 3.677 1.717.877 1.112.148 4.321-1.403 6.972.164-.015.368-.045.617-.095.866-.178 1.662.422 1.075 1.3-.207.308-.624.616-1.099.834-.46.212-1.174.33-1.786.301a.187.187 0 0 0-.048.116c-.073 2.78-.746 3.723-2.438 4.082z" fill="#336791"/><path d="M16.388 12.174c-1.724.353-1.842-.226-1.842-.226 1.82-2.677 2.58-6.076 1.924-6.907-1.791-2.27-4.892-1.196-4.944-1.168l-.017.003a6.2 6.2 0 0 0-1.15-.12c-.78-.012-1.372.204-1.82.541 0 0-5.532-2.259-5.275 2.841.055 1.085 1.569 8.21 3.375 6.058a33.185 33.185 0 0 1 1.297-1.452c.317.208.696.315 1.094.276l.03-.026c-.009.098-.004.194.013.307-.465.515-.328.605-1.258.795-.941.193-.388.535-.028.624.438.109 1.45.262 2.134-.687l-.027.109c.182.144.31.94.289 1.663-.021.722-.036 1.218.108 1.605.143.388.287 1.26 1.51 1 1.02-.218 1.55-.78 1.624-1.718.052-.667.17-.568.178-1.165l.095-.282c.11-.904.017-1.196.646-1.06l.153.013c.464.021 1.07-.074 1.426-.237.766-.353 1.22-.941.465-.787z" fill="#336791"/><path d="M9.782 12.686a.213.213 0 1 1 .427.012c-.05 1.743.02 3.35.162 3.702.286.707.644 1.006 1.502.824.914-.194 1.239-.529 1.389-1.392.104-.602.34-2.489.374-2.945a.214.214 0 1 1 .426.032c-.035.47-.272 2.371-.38 2.986-.18 1.036-.636 1.507-1.72 1.737-1.106.235-1.633-.206-1.987-1.082-.174-.432-.244-2.056-.193-3.874zM8.61 4.062a.214.214 0 1 1-.16.396 7.874 7.874 0 0 0-.739-.237c-.62-.166-1.242-.257-1.817-.236-1.63.058-2.538.97-2.429 3.121.037.724.506 2.798 1.018 4.18.326.879.671 1.522 1.01 1.849.339.326.625.314.97-.098a30.27 30.27 0 0 1 1.267-1.415.214.214 0 0 1 .307.297l-.102.107a29.958 29.958 0 0 0-1.145 1.286c-.505.603-1.078.627-1.593.13-.397-.382-.768-1.073-1.115-2.008-.526-1.42-1.005-3.536-1.044-4.306-.12-2.398.98-3.503 2.84-3.57.624-.022 1.286.075 1.943.25a8.305 8.305 0 0 1 .79.254zM11.583 4.054l-.02.006-.043.006c-.033.01-.033.01-.18-.088-.025-.259-.025-.259.033-.288.066-.041.066-.041.075-.042a4.83 4.83 0 0 1 .453-.129 6.118 6.118 0 0 1 1.317-.158c1.358-.013 2.552.442 3.408 1.526.781.99-.149 4.56-1.916 7.16a.214.214 0 0 1-.353-.24c1.671-2.458 2.558-5.863 1.933-6.655-.764-.969-1.832-1.376-3.068-1.364a5.694 5.694 0 0 0-1.556.237 2.136 2.136 0 0 0-.083.03z" fill="#fff"/><path fill-rule="evenodd" clip-rule="evenodd" d="M16.333 11.944c-.846.173-1.33.13-1.54-.02-.04-.03-.05-.046-.055-.059-.04-.158-.46-.686-.453-.677a2.123 2.123 0 0 1-.202-.374 12.359 12.359 0 0 0-.229-.426c-.123-.226-.265-.484-.335-.623a7.315 7.315 0 0 1-.36-.815c-.208-.578-.247-1.022-.096-1.289.176-.31.65-.435 1.52-.297l.075-.002c.292-.06.232-.306.012-.83a5.313 5.313 0 0 0-.72-1.21c-.864-1.095-2.066-1.775-3.6-1.8-1.568-.025-2.562.803-3.076 2.173a5.91 5.91 0 0 0-.325 1.376c-.035.3-.046.55-.044.739a.214.214 0 0 0 .22.208.216.216 0 0 0 .207-.228 5.287 5.287 0 0 1 .041-.669 5.49 5.49 0 0 1 .3-1.276c.456-1.214 1.302-1.918 2.67-1.896 1.396.023 2.482.638 3.271 1.638.285.361.51.75.662 1.111.031.074.058.143.079.206-.857-.087-1.409.097-1.664.547-.229.405-.18.96.066 1.644.098.272.226.558.38.864.087.17.258.48.386.714.09.162.158.287.166.305.067.162.147.308.241.448l.052.071c.074.1.2.27.258.383-.05.015-.093.031-.136.05-.328.146-.498.456-.468.986.035.61 1.546.594 2.364.218.398-.184.745-.44.892-.66.264-.394-.054-.634-.559-.53zm-1.89.323l.018-.005a1 1 0 0 0 .05-.017l.034.026c.325.233.922.286 1.874.091l.006-.001a2.456 2.456 0 0 1-.604.385c-.57.262-1.75.275-1.758.145-.02-.36.057-.5.215-.57a.71.71 0 0 1 .086-.032l.078-.022zM9.703 11.946c.429.177.662.8.38 1.19-.613.851-1.457.994-2.36.77-.26-.064-.514-.202-.61-.378-.177-.326.1-.55.647-.662.174-.036.306-.067.408-.097.21-.06.293-.11.387-.216l.053-.064c.076-.093.214-.263.295-.353.264-.293.499-.313.8-.19zM7.491 13.33l-.003-.005.001.001.002.004zm2.245-.442c-.488.678-1.158.791-1.91.605a1.01 1.01 0 0 1-.282-.12c.064-.029.164-.06.301-.088.185-.037.327-.07.443-.105.282-.082.436-.173.585-.34l.082-.1c.08-.098.199-.244.265-.316.125-.14.17-.143.32-.082.188.078.306.393.196.546z" fill="#fff"/><path fill-rule="evenodd" clip-rule="evenodd" d="M6.923 8.155c.031.571.024 1.07-.052 1.608-.182 1.289.755 2.428 1.938 2.457l.01.083a.214.214 0 1 0 .423-.065c-.03-.196.014-.355.247-.978.023-.062.05-.127.091-.217l.11-.245c.36-.822.444-1.604.154-2.93-.174-.798-.813-1.043-1.636-.855-.618.141-1.3.518-1.303.79 0 .033.002.076.006.146v.018l.012.188zm2.166 2.956c.027-.073.058-.145.101-.243l.11-.242c.323-.74.397-1.43.127-2.668-.114-.52-.505-.67-1.124-.528-.25.057-.514.161-.733.282-.093.051-.17.102-.222.144l-.014.011.003.057.001.017c.003.04.01.148.011.19.033.597.025 1.12-.055 1.692-.148 1.05.618 1.968 1.56 1.97.043-.162.118-.37.235-.682zM7.332 7.813v-.008.008z" fill="#fff"/><path d="M8.405 7.759c.021-.154.229-.203.462-.17.234.032.42.135.398.29-.021.152-.253.308-.462.279-.21-.03-.42-.247-.398-.4zM14.078 7.618c.022.152-.188.37-.398.398-.21.03-.44-.126-.462-.28-.021-.154.165-.257.398-.289.234-.032.44.017.462.17zM14.402 7.165a.213.213 0 1 1 .427-.023c.012.232-.002.434-.043.71l-.027.177c-.043.277-.06.429-.067.623-.006.193.007.347.056.748.122 1.007.079 1.513-.339 2.131a.214.214 0 1 1-.354-.239c.343-.508.38-.929.269-1.84-.052-.425-.066-.591-.059-.814.007-.216.027-.382.072-.674l.027-.173c.036-.25.05-.427.038-.626z" fill="#fff"/><rect x="12" y="12" width="8" height="8" rx="4" fill="#9A32A6"/><path d="M15.153 17.356a.812.812 0 0 0-.206-1.073.813.813 0 0 1 .01-1.307L17.677 13 16.6 15.008a.812.812 0 0 0 .229 1.033.812.812 0 0 1-.033 1.323L14 19.25l1.153-1.894z" fill="#fff"/></svg>
