<svg width="20" height="20" viewBox="0 0 20 20" fill="none" xmlns="http://www.w3.org/2000/svg"><g clip-path="url(#clip0_2620_4785)"><path opacity=".01" fill="#fff" d="M0 0h20v20H0z"/><path d="M10.001 18.573a8.571 8.571 0 1 0 0-17.143 8.571 8.571 0 0 0 0 17.143Z" fill="#5282FF"/><path fill-rule="evenodd" clip-rule="evenodd" d="M12.813 7.5H7.186a.937.937 0 0 0-.937.938h7.5a.937.937 0 0 0-.938-.938ZM6.25 11.563V9.374h7.5v2.188c0 .517-.42.937-.938.937H7.189a.937.937 0 0 1-.938-.938Zm.938-5c-1.036 0-1.875.839-1.875 1.875v3.124c0 1.036.839 1.876 1.875 1.876h5.625c1.035 0 1.874-.84 1.874-1.876V8.438c0-1.036-.839-1.876-1.874-1.876H7.186Zm.468 4.062a.469.469 0 0 0 0 .938H9.22a.469.469 0 0 0 0-.938H7.656Z" fill="#fff"/><rect x="12" y="12" width="8" height="8" rx="4" fill="#9A32A6"/><path d="M15.153 17.356a.813.813 0 0 0-.206-1.073.812.812 0 0 1 .01-1.307L17.677 13 16.6 15.008a.812.812 0 0 0 .229 1.033.812.812 0 0 1-.033 1.323L14 19.25l1.153-1.894Z" fill="#fff"/></g><defs><clipPath id="clip0_2620_4785"><path fill="#fff" d="M0 0h20v20H0z"/></clipPath></defs></svg>