<svg viewBox="0 0 20 20" fill="none" xmlns="http://www.w3.org/2000/svg"><path opacity=".01" fill="#fff" d="M0 0h20v20H0z"/><path fill-rule="evenodd" clip-rule="evenodd" d="M9.96 1.389a8.593 8.593 0 0 0-8.593 8.593H6.57l3.39-5.597 3.388 5.597h5.204A8.593 8.593 0 0 0 9.96 1.389z" fill="#FFCF00"/><path fill-rule="evenodd" clip-rule="evenodd" d="M3.29 15.4a8.558 8.558 0 0 1-1.923-5.418H6.57L3.29 15.4zm15.263-5.418c0 2.054-.72 3.94-1.922 5.418l-3.282-5.418h5.204z" fill="#3BA8FF"/><path d="M9.96 4.385L6.57 9.982h6.78L9.96 4.385z" fill="red"/><path fill-rule="evenodd" clip-rule="evenodd" d="M9.954 18.575A8.577 8.577 0 0 1 3.29 15.4l3.28-5.418h6.78l3.28 5.418a8.577 8.577 0 0 1-6.664 3.175h-.012z" fill="#4643B9"/><rect x="12" y="12" width="8" height="8" rx="4" fill="#9A32A6"/><path d="M15.153 17.356a.812.812 0 0 0-.206-1.073.813.813 0 0 1 .01-1.307L17.677 13 16.6 15.008a.812.812 0 0 0 .229 1.033.812.812 0 0 1-.033 1.323L14 19.25l1.153-1.894z" fill="#fff"/></svg>
