<svg width="20" height="20" viewBox="0 0 20 20" fill="none" xmlns="http://www.w3.org/2000/svg"><g clip-path="url(#clip0_3042_95)"><g clip-path="url(#clip1_3042_95)"><rect x="2.5" y="2.5" width="15" height="15" rx="3.33" fill="#92BB49"/><g clip-path="url(#clip2_3042_95)" fill="#fff"><path d="M8.479 13.46c-.456-.193-1.072-.507-1.374-.91a.148.148 0 0 0-.192-.033c-.167.116-.186.218-.212.436-.077.635-.764 1.045-1.322.641-.7-.5-.366-1.474.456-1.544.282-.026.468-.154.513-.436a.074.074 0 0 0-.013-.064c-.45-.878-.584-1.788-.404-2.711.334-1.692 1.771-3.108 3.498-3.314.244-.025.545-.032.918-.006 2.9.18 4.55 3.3 3.402 5.864-.161.359-.013.654.391.667.693.025 1.13.807.674 1.371-.334.417-.918.468-1.29.051-.167-.192-.205-.378-.238-.628-.019-.173-.115-.288-.288-.346a.05.05 0 0 0-.052.013c-1.168 1.154-2.882 1.609-4.467.949Zm3.947-3.84a2.43 2.43 0 1 0-4.86 0 2.43 2.43 0 0 0 4.86 0Z"/><path d="M10 10.473a.853.853 0 1 0 .001-1.706.853.853 0 0 0-.001 1.706Z"/><path d="M8.478 13.457c-.456-.193-1.072-.507-1.374-.91a.148.148 0 0 0-.192-.032c-.167.115-.187.218-.212.435-.077.635-.764 1.045-1.322.641-.7-.5-.366-1.474.455-1.544.283-.026.469-.154.514-.436a.074.074 0 0 0-.013-.064c-.45-.878-.584-1.788-.404-2.71.333-1.693 1.771-3.11 3.498-3.314.244-.026.545-.032.917-.007 2.902.18 4.551 3.3 3.402 5.864-.16.36-.013.654.392.667.693.025 1.13.807.674 1.371-.334.417-.918.468-1.29.052-.167-.193-.206-.379-.238-.629-.02-.172-.115-.288-.289-.345a.05.05 0 0 0-.051.012c-1.168 1.154-2.882 1.609-4.467.949Zm3.947-3.84a2.43 2.43 0 1 0-4.86 0 2.43 2.43 0 0 0 4.86 0Z"/><path d="M10 10.473a.853.853 0 1 0 .001-1.706.853.853 0 0 0-.001 1.706Z"/></g><rect x="12" y="12" width="8" height="8" rx="4" fill="#9A32A6"/><path d="M15.153 17.356a.813.813 0 0 0-.206-1.073.812.812 0 0 1 .01-1.307L17.677 13 16.6 15.008a.812.812 0 0 0 .229 1.033.812.812 0 0 1-.033 1.323L14 19.25l1.153-1.894Z" fill="#fff"/></g></g><defs><clipPath id="clip0_3042_95"><path fill="#fff" d="M0 0h20v20H0z"/></clipPath><clipPath id="clip1_3042_95"><path fill="#fff" d="M0 0h20v20H0z"/></clipPath><clipPath id="clip2_3042_95"><path fill="#fff" transform="translate(5 5.5)" d="M0 0h10v8.261H0z"/></clipPath></defs></svg>