<svg width="20" height="20" viewBox="0 0 20 20" fill="none" xmlns="http://www.w3.org/2000/svg"><g clip-path="url(#clip0)"><path d="M13.443 12.377a.574.574 0 0 0 .572-.573V8.196a.572.572 0 0 0-.572-.572h-1.77V3.215H4.182a.967.967 0 0 0-.966.966v11.638a.967.967 0 0 0 .966.966h7.493v-4.408h1.769z" fill="#15B3F0"/><path d="M15.82 3.215h-3.702v3.961h1.325a1.016 1.016 0 0 1 1.014 1.016v3.612a1.016 1.016 0 0 1-1.014 1.016h-1.325v3.96h3.701a.968.968 0 0 0 .966-.965V4.181a.967.967 0 0 0-.966-.966z" fill="#474747"/><path d="M8.445 10.398h-.41l-.362-2.562h-.01c-.009.022-.017.042-.024.064-.239.736-.475 1.474-.716 2.21a.845.845 0 0 1-.113.23.222.222 0 0 1-.392-.022 1.874 1.874 0 0 1-.137-.334c-.228-.698-.452-1.398-.683-2.098a.11.11 0 0 0-.03-.05l-.356 2.56h-.41l.048-.327.164-1.11c.05-.342.1-.683.153-1.026.019-.137.04-.273.064-.402a.493.493 0 0 1 .048-.136.307.307 0 0 1 .508-.063.579.579 0 0 1 .106.195c.236.722.47 1.445.704 2.168l.03.083.031-.087c.23-.714.46-1.428.692-2.14a.71.71 0 0 1 .1-.207.305.305 0 0 1 .521.06c.043.116.071.238.085.36.057.37.11.74.165 1.11l.153 1.032.063.424c.004.02.005.04.008.068z" fill="#fff"/><path d="M10.43 11.794l.344.247a1.617 1.617 0 0 1-1.742.683 1.64 1.64 0 0 1-1.266-1.521 1.657 1.657 0 0 1 2.096-1.616c.311.088.588.269.796.518l-.328.245-.056-.058a1.105 1.105 0 0 0-.93-.381 1.186 1.186 0 0 0-1.075.864 1.23 1.23 0 0 0 .994 1.6 1.128 1.128 0 0 0 1.13-.52l.037-.06zM13.27 10.222h-1.136A.222.222 0 0 1 11.93 10a.222.222 0 0 1 .205-.222h1.135a.222.222 0 1 1 0 .444zM13.27 9.127h-1.136a.221.221 0 1 1 0-.443h1.135a.221.221 0 1 1 0 .443zM13.27 11.316h-1.136a.221.221 0 1 1 0-.443h1.135a.221.221 0 1 1 0 .443z" fill="#fff"/></g><rect x="12" y="12" width="8" height="8" rx="4" fill="#9A32A6"/><path d="M15.153 17.356a.813.813 0 0 0-.206-1.073.812.812 0 0 1 .01-1.307L17.677 13 16.6 15.008a.812.812 0 0 0 .229 1.033.812.812 0 0 1-.033 1.323L14 19.25l1.153-1.894z" fill="#fff"/><defs><clipPath id="clip0"><path fill="#fff" transform="translate(3.215 3.215)" d="M0 0h13.57v13.57H0z"/></clipPath></defs></svg>