<svg viewBox="0 0 20 20" fill="none" xmlns="http://www.w3.org/2000/svg"><path opacity=".01" fill="#fff" d="M0 0h20v20H0z"/><path fill="#FC0" d="M4.286 3.929h1.429v12.143H4.286z"/><path fill="#FF0400" d="M4.286 14.643h1.429v1.429H4.286z"/><path fill="#FC0" d="M7.143 3.929h1.429v12.143H7.143zM10 3.929h1.429v12.143H10zM12.857 3.929h1.429v12.143h-1.429zM15.714 8.571h1.429v2.857h-1.429z"/><rect x="12" y="12" width="8" height="8" rx="4" fill="#9A32A6"/><path d="M15.153 17.356a.812.812 0 0 0-.206-1.073.813.813 0 0 1 .01-1.307L17.677 13 16.6 15.008a.812.812 0 0 0 .229 1.033.812.812 0 0 1-.033 1.323L14 19.25l1.153-1.894z" fill="#fff"/></svg>
