<svg width="20" height="20" viewBox="0 0 20 20" fill="none" xmlns="http://www.w3.org/2000/svg"><g clip-path="url(#clip0_2628_18705)"><g clip-path="url(#clip1_2628_18705)"><rect x="2.5" y="2.5" width="15" height="15" rx="6" fill="#021F43"/><path d="m13.211 6.257-.816.723a4.144 4.144 0 0 0-.507-.369c-1.122-.662-2.11-.61-2.103-.61a4.968 4.968 0 0 0-.34.006c-.35.009-.97.135-1.48.38A4.14 4.14 0 0 0 6.05 8.235l-.003.006a.445.445 0 0 0 .21.6.46.46 0 0 0 .61-.207l.002-.004c.155-.314.361-.605.611-.855s.546-.455.866-.608a3.15 3.15 0 0 1 1.356-.302 3.244 3.244 0 0 1 1.703.495c.106.068.209.143.307.224L9.39 9.64a.46.46 0 0 0-.035.657.475.475 0 0 0 .668.034l2.32-2.054c.145.218.258.455.344.7.114.328.172.673.175 1.021a3.208 3.208 0 0 1-.175 1.023c-.114.327-.28.641-.501.913a3.25 3.25 0 0 1-.782.704 3.186 3.186 0 0 1-3.059.193 3.19 3.19 0 0 1-.865-.608 3.25 3.25 0 0 1-.612-.856l-.003-.006-.002-.005a.46.46 0 0 0-.613-.196.445.445 0 0 0-.2.602 4.13 4.13 0 0 0 1.915 1.848c.878.424 1.685.39 1.734.39.792-.001 1.518-.219 2.188-.614a4.142 4.142 0 0 0 1.02-.888c.584-.695.892-1.6.901-2.5a4.005 4.005 0 0 0-.772-2.335l.808-.716a.46.46 0 0 0 .035-.656.478.478 0 0 0-.668-.034Z" fill="#12B3B3"/><path d="M14.17 2.5H5.83A3.33 3.33 0 0 0 2.5 5.83v8.34a3.33 3.33 0 0 0 3.33 3.33h8.34a3.33 3.33 0 0 0 3.33-3.33V5.83a3.33 3.33 0 0 0-3.33-3.33Z" fill="#021F43"/><path d="m13.968 5.33-.984.886a4.991 4.991 0 0 0-.61-.451c-1.351-.811-2.54-.748-2.532-.747a5.884 5.884 0 0 0-.41.007c-.42.01-1.168.165-1.78.465a4.984 4.984 0 0 0-2.307 2.263l-.004.008a.549.549 0 1 0 .987.48l.003-.004c.187-.385.435-.741.736-1.048a3.74 3.74 0 0 1 2.676-1.114c.438.003 1.22.082 2.049.606a4 4 0 0 1 .37.274L9.366 9.473a.57.57 0 0 0 .762.846l2.794-2.515c.174.266.311.557.414.856a4 4 0 0 1 .211 1.251c-.004.427-.073.85-.21 1.252a3.71 3.71 0 0 1-.604 1.118 3.937 3.937 0 0 1-.942.862 3.717 3.717 0 0 1-2.065.607 3.782 3.782 0 0 1-1.618-.37 3.84 3.84 0 0 1-1.042-.745 3.977 3.977 0 0 1-.736-1.048l-.004-.007-.002-.006a.549.549 0 1 0-.98.497c.249.49.578.937.966 1.323a4.97 4.97 0 0 0 1.34.94c1.058.518 2.029.476 2.088.476.954-.001 1.828-.267 2.635-.751.465-.292.882-.66 1.229-1.087.703-.851 1.073-1.96 1.084-3.06-.01-1.017-.327-2.04-.93-2.86l.973-.876a.57.57 0 0 0-.761-.845Z" fill="#F5F7FA"/><path fill-rule="evenodd" clip-rule="evenodd" d="M9.308 10.301c-.22-.244-.175-.645.102-.895l4.473-4.042c.277-.25.68-.255.901-.011.221.244.175.645-.102.895L10.21 10.29c-.277.25-.68.256-.901.011Z" fill="#00BCBC"/></g><rect x="12" y="12" width="8" height="8" rx="4" fill="#9A32A6"/><path d="M15.153 17.356a.813.813 0 0 0-.206-1.073.812.812 0 0 1 .01-1.307L17.677 13 16.6 15.008a.812.812 0 0 0 .229 1.033.812.812 0 0 1-.033 1.323L14 19.25l1.153-1.894Z" fill="#fff"/></g><defs><clipPath id="clip0_2628_18705"><path fill="#fff" d="M0 0h20v20H0z"/></clipPath><clipPath id="clip1_2628_18705"><path fill="#fff" transform="translate(2.5 2.5)" d="M0 0h15v15H0z"/></clipPath></defs></svg>