<svg width="20" height="20" fill="none" xmlns="http://www.w3.org/2000/svg"><path opacity=".01" fill="#fff" d="M0 0h20v20H0z"/><path d="M10 18.571A8.571 8.571 0 1 0 10 1.43a8.571 8.571 0 0 0 0 17.142z" fill="#F80000"/><path d="M4.481 11.836c-.243 0-.471-.04-.685-.12a1.547 1.547 0 0 1-.55-.355 1.715 1.715 0 0 1-.365-.575 2.171 2.171 0 0 1-.135-.795c0-.3.045-.564.135-.79.09-.23.212-.422.365-.575.157-.157.34-.274.55-.35.214-.08.442-.12.685-.12.247 0 .475.04.685.12.214.076.399.191.555.345.157.153.279.345.365.575.09.226.135.49.135.79 0 .296-.045.56-.135.79a1.61 1.61 0 0 1-.365.58 1.596 1.596 0 0 1-.555.36c-.21.08-.438.12-.685.12zm0-.52c.157 0 .302-.024.435-.07a.846.846 0 0 0 .35-.225c.1-.107.179-.244.235-.41.057-.17.085-.375.085-.615s-.028-.444-.085-.61a1.065 1.065 0 0 0-.235-.405.824.824 0 0 0-.35-.23 1.23 1.23 0 0 0-.435-.075 1.23 1.23 0 0 0-.435.075.867.867 0 0 0-.35.23 1.103 1.103 0 0 0-.23.405 1.91 1.91 0 0 0-.085.61c0 .24.029.445.085.615.057.166.134.303.23.41.1.103.217.178.35.225.134.046.279.07.435.07zM8.188 9.75a1.277 1.277 0 0 0-.515.09.704.704 0 0 0-.35.3v1.646h-.58V9.19h.53l.04.54h.01a1.049 1.049 0 0 1 .865-.59v.61zM10.109 11.33a.875.875 0 0 1-.11.18.774.774 0 0 1-.395.28.997.997 0 0 1-.315.046.961.961 0 0 1-.315-.05.705.705 0 0 1-.255-.14.722.722 0 0 1-.17-.235.857.857 0 0 1-.06-.33c0-.284.105-.495.315-.635.21-.144.506-.215.89-.215h.395v-.16c0-.17-.044-.287-.13-.35-.087-.067-.23-.1-.43-.1-.17 0-.33.025-.48.075a2.11 2.11 0 0 0-.39.165v-.485a2.104 2.104 0 0 1 .965-.235c.333 0 .59.07.77.21.183.136.275.356.275.66v1.46c.003.036.005.075.005.115a11.517 11.517 0 0 0 .02.2h-.535a2.288 2.288 0 0 1-.045-.42l-.005-.035zm-.66.056a.567.567 0 0 0 .305-.075.753.753 0 0 0 .2-.18.704.704 0 0 0 .135-.345v-.175h-.36c-.23 0-.399.036-.505.11a.338.338 0 0 0-.16.3c0 .113.031.203.095.27.066.063.163.095.29.095zM12.49 11.836c-.21 0-.4-.03-.566-.09a1.227 1.227 0 0 1-.425-.265 1.191 1.191 0 0 1-.27-.425 1.598 1.598 0 0 1-.095-.57c0-.21.032-.399.095-.565a1.142 1.142 0 0 1 .7-.685c.17-.064.36-.095.57-.095.18 0 .337.02.47.06.137.04.245.09.325.15v.48a1.312 1.312 0 0 0-.34-.155 1.442 1.442 0 0 0-.42-.055c-.536 0-.805.288-.805.865 0 .576.264.865.79.865a1.5 1.5 0 0 0 .435-.055c.124-.04.237-.09.34-.15v.48a1.406 1.406 0 0 1-.325.15c-.13.04-.29.06-.48.06zM14.374 8.2v3.586h-.58V8.2h.58zM17.195 11.596a3.02 3.02 0 0 1-.135.08 1.32 1.32 0 0 1-.19.075 1.936 1.936 0 0 1-.585.085c-.477 0-.834-.119-1.07-.355-.234-.237-.35-.569-.35-.995 0-.21.031-.399.095-.565.063-.167.151-.307.265-.42a1.11 1.11 0 0 1 .405-.265c.156-.064.328-.095.515-.095.193 0 .366.031.52.095a.92.92 0 0 1 .385.285c.1.126.168.283.205.47.04.186.041.405.005.655h-1.795c.023.236.101.415.235.535.133.116.341.175.625.175.206 0 .378-.025.515-.075.14-.054.258-.109.355-.165v.48zM16.145 9.6a.625.625 0 0 0-.43.155c-.117.103-.194.256-.23.46h1.22c.006-.21-.04-.365-.14-.465-.1-.1-.24-.15-.42-.15z" fill="#fff"/><rect x="12" y="12" width="8" height="8" rx="4" fill="#9A32A6"/><path d="M15.153 17.356a.812.812 0 0 0-.206-1.073.813.813 0 0 1 .01-1.307L17.677 13 16.6 15.008a.812.812 0 0 0 .229 1.033.812.812 0 0 1-.033 1.323L14 19.25l1.153-1.894z" fill="#fff"/></svg>