<svg width="20" height="20" viewBox="0 0 20 20" fill="none" xmlns="http://www.w3.org/2000/svg"><g clip-path="url(#clip0_3093_72)"><path d="M12.732 8.4a.644.644 0 0 0 .222.037.59.59 0 0 0 .59-.59c0-.32-.27-.592-.59-.592a.59.59 0 0 0-.591.591v.099l-1.17.935c-.073-.025-.135-.05-.22-.05-.075 0-.136.025-.21.05l-1.17-.935c0-.037.013-.062.013-.099 0-.32-.27-.59-.59-.59a.59.59 0 0 0-.591.59c0 .062 0 .11.012.16L7.194 9.25c-.05-.012-.098-.025-.148-.025a.59.59 0 0 0-.59.591c0 .332.258.59.59.59a.59.59 0 0 0 .591-.59.618.618 0 0 0-.024-.148l1.242-1.243a.65.65 0 0 0 .16.013.625.625 0 0 0 .21-.037l1.169.935v.086c0 .333.258.591.59.591a.59.59 0 0 0 .591-.59c0-.025-.012-.05-.012-.087l1.17-.935Zm-1.354 2.793h-.787a.202.202 0 0 0-.197.197v1.97c0 .11.086.196.197.196h.787a.202.202 0 0 0 .197-.196v-1.97a.212.212 0 0 0-.197-.197Zm1.97-1.575h-.788a.202.202 0 0 0-.197.197v3.545c0 .11.086.196.197.196h.787a.202.202 0 0 0 .197-.196V9.815a.212.212 0 0 0-.197-.197Zm-3.939 0h-.787a.202.202 0 0 0-.197.197v3.545c0 .11.086.196.197.196h.787a.202.202 0 0 0 .197-.196V9.815a.212.212 0 0 0-.197-.197Zm-1.969 1.97h-.787a.202.202 0 0 0-.197.196v1.575c0 .111.086.197.197.197h.787a.202.202 0 0 0 .197-.196v-1.576a.212.212 0 0 0-.197-.197Z" fill="#fff"/><rect x="2.5" y="2.5" width="15" height="15" rx="3.33" fill="#80A3FF"/><path d="M12.825 7.677c.121-.097.284-.115.44-.115a.653.653 0 0 0 .652-.653c0-.354-.299-.653-.652-.653-.368 0-.653.3-.653.653a.226.226 0 0 1-.085.177l-1.01.808c-.123.098-.285.103-.442.103-.15 0-.302-.002-.418-.095l-1.02-.816c-.054-.043-.072-.108-.072-.177 0-.354-.3-.653-.653-.653-.367 0-.653.3-.653.653 0 .11-.034.224-.112.302L7.016 8.342c-.073.073-.178.09-.28.09-.368 0-.653.3-.653.653 0 .367.285.653.652.653a.653.653 0 0 0 .653-.653c0-.103.018-.208.09-.28L8.61 7.674a.427.427 0 0 1 .303-.112c.147 0 .3.014.415.106l1.034.827a.198.198 0 0 1 .074.155c0 .367.286.653.653.653a.653.653 0 0 0 .653-.653c0-.061.014-.118.062-.156l1.022-.817Zm-1.302 2.931h-.87a.224.224 0 0 0-.218.218v2.176c0 .123.095.218.218.218h.87a.224.224 0 0 0 .218-.218v-2.176a.234.234 0 0 0-.218-.218Zm2.177-1.74h-.87a.224.224 0 0 0-.218.217v3.917c0 .123.095.218.217.218h.87a.224.224 0 0 0 .218-.218V9.085a.234.234 0 0 0-.217-.218Zm-4.353 0h-.87a.224.224 0 0 0-.218.217v3.917c0 .123.095.218.218.218h.87a.224.224 0 0 0 .218-.218V9.085a.234.234 0 0 0-.218-.218Zm-2.176 2.176H6.3a.224.224 0 0 0-.218.217v1.742c0 .122.095.217.217.217h.87a.224.224 0 0 0 .218-.218v-1.74a.234.234 0 0 0-.217-.218Z" fill="#fff"/><rect x="11.804" y="12" width="8" height="8" rx="4" fill="#9A32A6"/><path d="M14.957 17.356a.813.813 0 0 0-.207-1.073.812.812 0 0 1 .01-1.307L17.48 13l-1.075 2.008a.812.812 0 0 0 .228 1.033.812.812 0 0 1-.033 1.323l-2.796 1.886 1.153-1.894Z" fill="#fff"/></g><defs><clipPath id="clip0_3093_72"><path fill="#fff" d="M0 0h20v20H0z"/></clipPath></defs></svg>