<svg width="20" height="20" viewBox="0 0 20 20" fill="none" xmlns="http://www.w3.org/2000/svg"><g clip-path="url(#clip0_2845_10739)"><g clip-path="url(#clip1_2845_10739)"><g clip-path="url(#clip2_2845_10739)"><rect x="3.214" y="3.214" width="13.571" height="13.571" rx="2.143" fill="#51ADFF"/><mask id="mask0_2845_10739" style="mask-type:luminance" maskUnits="userSpaceOnUse" x="3" y="3" width="14" height="14"><path d="M14.071 3.214H5.93A2.714 2.714 0 0 0 3.214 5.93v8.142c0 1.5 1.216 2.715 2.715 2.715h8.142c1.5 0 2.715-1.216 2.715-2.715V5.93c0-1.5-1.216-2.715-2.715-2.715Z" fill="#fff"/></mask><g mask="url(#mask0_2845_10739)"><path d="m12.906 6.613-.74.655a3.754 3.754 0 0 0-.458-.334c-1.015-.6-1.909-.552-1.903-.552a3.704 3.704 0 0 0-2.653 1.043 3.828 3.828 0 0 0-.726.978l-.003.006a.403.403 0 0 0 .19.542.416.416 0 0 0 .552-.187l.002-.003c.14-.285.327-.548.553-.774a2.85 2.85 0 0 1 2.01-.823c.33.001.917.06 1.54.447.098.062.19.13.279.203l-2.101 1.86a.416.416 0 0 0-.032.595.43.43 0 0 0 .605.03l2.099-1.858c.13.197.234.411.311.633.103.297.156.61.159.925a2.904 2.904 0 0 1-.159.925c-.103.296-.252.58-.453.826a2.943 2.943 0 0 1-.708.637 2.883 2.883 0 0 1-2.768.175 2.884 2.884 0 0 1-.782-.55 2.939 2.939 0 0 1-.553-.775l-.003-.005-.002-.005a.416.416 0 0 0-.555-.178.403.403 0 0 0-.181.546 3.735 3.735 0 0 0 1.733 1.672c.794.383 1.524.351 1.569.351.716 0 1.373-.197 1.98-.554.349-.216.662-.488.923-.804.528-.629.806-1.448.815-2.261a3.622 3.622 0 0 0-.699-2.114l.73-.647a.416.416 0 0 0 .032-.594.432.432 0 0 0-.603-.03Z" fill="#12B3B3"/><path d="M16.786 3.214H3.214v13.572h13.572V3.214Z" fill="#51ADFF"/><path d="M6.079 12.488a.699.699 0 0 0 .691.798h6.258a.699.699 0 0 0 .692-.798l-.729-5.102a.699.699 0 0 0-.692-.6H7.5a.699.699 0 0 0-.692.6l-.728 5.102Z" fill="#fff"/><path d="M11.866 8.23c-.28.84-1.055 1.445-1.967 1.445-.912 0-1.687-.604-1.967-1.445" stroke="#222" stroke-width=".384" stroke-linecap="round" stroke-linejoin="round"/></g></g><rect x="12" y="12" width="8" height="8" rx="4" fill="#9A32A6"/><path d="M15.153 17.356a.813.813 0 0 0-.206-1.073.812.812 0 0 1 .01-1.307L17.677 13 16.6 15.008a.812.812 0 0 0 .229 1.033.812.812 0 0 1-.033 1.323L14 19.25l1.153-1.894Z" fill="#fff"/></g></g><defs><clipPath id="clip0_2845_10739"><path fill="#fff" d="M0 0h20v20H0z"/></clipPath><clipPath id="clip1_2845_10739"><path fill="#fff" d="M0 0h20v20H0z"/></clipPath><clipPath id="clip2_2845_10739"><path fill="#fff" transform="translate(3.214 3.214)" d="M0 0h13.571v13.571H0z"/></clipPath></defs></svg>