<svg width="20" height="20" viewBox="0 0 20 20" fill="none" xmlns="http://www.w3.org/2000/svg"><g clip-path="url(#clip0_2474_4766)"><path opacity=".01" fill="#fff" d="M0 0h20v20H0z"/><path d="m16.16 14.494-3.627-2.09a1.069 1.069 0 0 0-1.456.389c-.114.2-.16.42-.137.635v4.085a1.06 1.06 0 0 0 2.123 0v-2.35l2.032 1.172c.51.294 1.163.118 1.457-.39a1.059 1.059 0 0 0-.391-1.451ZM7.139 10.014a1.042 1.042 0 0 0-.52-.918L2.99 7.006a1.043 1.043 0 0 0-1.423.381 1.038 1.038 0 0 0 .382 1.42l2.09 1.202-2.09 1.205c-.241.139-.414.362-.485.63-.073.268-.036.548.103.789a1.044 1.044 0 0 0 1.423.38l3.627-2.089c.325-.188.524-.536.52-.91ZM3.814 5.526l3.628 2.09c.423.244.945.164 1.278-.16.212-.195.343-.472.343-.78V2.488a1.06 1.06 0 0 0-2.123 0v2.384L4.88 3.685a1.067 1.067 0 0 0-1.457.389 1.062 1.062 0 0 0 .39 1.452ZM11.971 10.183a.41.41 0 0 1-.103.25l-1.438 1.434a.408.408 0 0 1-.25.103h-.366a.408.408 0 0 1-.25-.103l-1.44-1.434a.41.41 0 0 1-.103-.25v-.365c0-.081.046-.192.103-.25l1.44-1.435a.408.408 0 0 1 .25-.103h.366c.08 0 .193.046.25.103l1.438 1.436a.402.402 0 0 1 .103.25v.364Zm-1.283-.175v-.016a.303.303 0 0 0-.076-.183l-.425-.422a.29.29 0 0 0-.183-.077h-.016a.298.298 0 0 0-.184.077l-.423.422a.296.296 0 0 0-.075.183v.016c0 .06.034.141.075.183l.423.424a.305.305 0 0 0 .184.075h.016c.06 0 .142-.034.183-.075l.425-.424a.296.296 0 0 0 .076-.183ZM12.533 7.615l3.628-2.089c.51-.292.686-.944.39-1.452a1.067 1.067 0 0 0-1.456-.389l-2.032 1.171V2.488a1.06 1.06 0 0 0-2.123 0v4.104a1.063 1.063 0 0 0 1.593 1.023ZM8.169 12.28a1.06 1.06 0 0 0-.727.123l-3.628 2.09a1.06 1.06 0 0 0-.39 1.452c.294.51.946.684 1.455.39l2.06-1.187v2.365a1.06 1.06 0 0 0 2.124 0v-4.187a1.06 1.06 0 0 0-.894-1.046ZM18.428 7.375a1.066 1.066 0 0 0-1.456-.39l-3.628 2.09c-.348.2-.539.566-.533.939a1.06 1.06 0 0 0 .533.93l3.628 2.09c.51.293 1.161.12 1.456-.389a1.062 1.062 0 0 0-.39-1.453l-2.055-1.183 2.054-1.183c.512-.293.686-.943.391-1.451Z" fill="#29B5E8"/><rect x="12" y="12" width="8" height="8" rx="4" fill="#9A32A6"/><path d="M15.153 17.356a.812.812 0 0 0-.206-1.073.813.813 0 0 1 .01-1.307L17.677 13 16.6 15.008a.812.812 0 0 0 .229 1.033.812.812 0 0 1-.033 1.323L14 19.25l1.153-1.894Z" fill="#fff"/></g><defs><clipPath id="clip0_2474_4766"><path fill="#fff" d="M0 0h20v20H0z"/></clipPath></defs></svg>