<svg width="20" height="20" viewBox="0 0 20 20" fill="none" xmlns="http://www.w3.org/2000/svg"><g clip-path="url(#clip0_1290_902)"><path opacity=".01" fill="#fff" d="M0 0h20v20H0z"/><g clip-path="url(#clip1_1290_902)" fill="#fff"><path d="M8.527 12.1v1.4c0 .432.658.786 1.473.786.815 0 1.473-.354 1.473-.786v-1.4a2.18 2.18 0 0 1-1.473.467 2.18 2.18 0 0 1-1.473-.466ZM12.455 7.902c.814 0 1.474-.33 1.474-.737s-.66-.736-1.474-.736c-.813 0-1.473.33-1.473.736 0 .407.66.737 1.473.737Z"/><path d="M10.982 7.68v.222H9.018V7.68a2.18 2.18 0 0 1-1.473.49 2.18 2.18 0 0 1-1.474-.49v1.4c0 .417.62.756 1.39.785l1.208 1.405a.491.491 0 0 0-.142.314c0 .407.658.736 1.473.736.815 0 1.473-.329 1.473-.736a.491.491 0 0 0-.142-.315l1.208-1.404c.77-.03 1.39-.368 1.39-.786v-1.4a2.18 2.18 0 0 1-1.474.492 2.18 2.18 0 0 1-1.473-.491ZM10 10.849a2.525 2.525 0 0 0-.908.162L8.07 9.812c.55-.113.948-.398.948-.732v-.687h1.964v.687c0 .334.398.62.948.732l-1.021 1.198a2.421 2.421 0 0 0-.909-.162Z"/><path d="M7.545 7.902c.813 0 1.473-.33 1.473-.737s-.66-.736-1.473-.736c-.814 0-1.474.33-1.474.736 0 .407.66.737 1.474.737Z"/></g><g clip-path="url(#clip2_1290_902)"><path d="M1.429 10a8.571 8.571 0 1 1 17.142 0A8.571 8.571 0 0 1 1.43 10Z" fill="#5282FF"/><path d="m7.504 13-1.67-2.866a.862.862 0 0 1-.011-.858L7.405 6.48a.291.291 0 0 1 .253-.142.288.288 0 0 1 .249.15l1.668 2.857a.862.862 0 0 1 .014.858l-1.582 2.806a.291.291 0 0 1-.254.141.289.289 0 0 1-.249-.15Zm1.187-7.286 3.165.006a.856.856 0 0 1 .745.435l1.631 2.86a.304.304 0 0 1-.254.452h-3.155a.866.866 0 0 1-.746-.445l-1.64-2.865a.297.297 0 0 1 .108-.403.292.292 0 0 1 .147-.04Zm.002 8.034 3.172.002a.857.857 0 0 0 .747-.436l1.634-2.866a.299.299 0 0 0-.107-.405.294.294 0 0 0-.147-.04h-3.32a.663.663 0 0 0-.616.429l-1.618 2.872a.298.298 0 0 0 .107.404c.045.026.096.04.148.04Z" fill="#fff"/></g><rect x="12" y="12" width="8" height="8" rx="4" fill="#9A32A6"/><path d="M15.153 17.356a.813.813 0 0 0-.206-1.073.812.812 0 0 1 .01-1.307L17.677 13 16.6 15.008a.812.812 0 0 0 .229 1.033.812.812 0 0 1-.033 1.323L14 19.25l1.153-1.894Z" fill="#fff"/></g><defs><clipPath id="clip0_1290_902"><path fill="#fff" d="M0 0h20v20H0z"/></clipPath><clipPath id="clip1_1290_902"><path fill="#fff" transform="translate(6.071 6.429)" d="M0 0h7.857v7.857H0z"/></clipPath><clipPath id="clip2_1290_902"><path fill="#fff" transform="translate(1.429 1.429)" d="M0 0h17.143v17.143H0z"/></clipPath></defs></svg>