<svg width="20" height="20" viewBox="0 0 20 20" fill="none" xmlns="http://www.w3.org/2000/svg"><path opacity=".01" fill="#fff" d="M0 0h20v20H0z"/><path d="M9.57 18.14c4.728 0 8.57-3.842 8.57-8.57S14.298 1 9.57 1 1 4.842 1 9.57s3.842 8.57 8.57 8.57z" fill="#FC0"/><path d="M11.393 11.126v-.058c.015-.043.03-.072.045-.13.132-.318.354-.883.546-1.433.118-.318.221-.637.31-.912.074-.26.133-.506.133-.651 0-.13-.045-.26-.148-.362a.83.83 0 0 0-.384-.16c-.841-.1-1.727-.274-2.391-.636-.665-.348-1.093-.854-1.093-1.621 0-.42.133-.782.37-1.028.235-.246.575-.405 1.033-.405.65 0 .915.318.915.535 0 .044-.015.087-.06.145-.029.043-.073.087-.117.145-.015.014-.03.043-.044.058-.133.159-.296.376-.296.694 0 .521.428.927 1.004.927.34 0 .65-.13.856-.377.207-.246.325-.579.325-.984 0-1.158-1.166-1.968-2.554-1.968-1.816 0-3.056 1.302-3.056 2.909 0 .94.34 1.665.945 2.186.03.014.03.029.03.029s0 .029-.015.086c-.015.044-.03.087-.06.13-.132.334-.354.898-.545 1.434-.119.318-.222.622-.296.883-.074.26-.133.492-.133.637 0 .13.045.26.148.361.103.087.236.13.384.16.841.101 1.727.275 2.391.636.665.348 1.093.854 1.093 1.622 0 .42-.133.781-.37 1.027-.235.246-.575.406-1.033.406-.65 0-.915-.319-.915-.536 0-.043.015-.087.06-.145.029-.043.073-.087.117-.144.015-.015.03-.044.045-.058.132-.16.295-.377.295-.695 0-.521-.428-.926-1.004-.926-.34 0-.65.13-.856.376-.207.246-.325.579-.325.984 0 1.158 1.166 1.969 2.554 1.969 1.816 0 3.056-1.303 3.056-2.91.015-.94-.34-1.664-.96-2.2zm-.31-1.983a16.928 16.928 0 0 1-.59 1.462 6.07 6.07 0 0 0-2.244-.521c-.06 0-.104-.014-.133-.014 0-.015 0-.03.015-.044.147-.449.443-1.143.59-1.476.65.29 1.358.477 2.23.535.058 0 .103.015.132.015v.043z" fill="#000"/><rect x="12" y="12" width="8" height="8" rx="4" fill="#9A32A6"/><path d="M15.153 17.356a.812.812 0 0 0-.206-1.073.813.813 0 0 1 .01-1.307L17.677 13 16.6 15.008a.812.812 0 0 0 .229 1.033.812.812 0 0 1-.033 1.323L14 19.25l1.153-1.894z" fill="#fff"/></svg>