<svg width="20" height="20" viewBox="0 0 20 20" fill="none" xmlns="http://www.w3.org/2000/svg">
<rect opacity="0.01" width="20" height="20" fill="white"/>
<path d="M9.99999 18.5714C14.7339 18.5714 18.5714 14.7339 18.5714 10C18.5714 5.26615 14.7339 1.42859 9.99999 1.42859C5.26612 1.42859 1.42856 5.26615 1.42856 10C1.42856 14.7339 5.26612 18.5714 9.99999 18.5714Z" fill="#5ECF71"/>
<path d="M8.12679 10.6054C8.12679 10.8304 8.09108 11.0411 8.01965 11.2375C7.95179 11.4304 7.84822 11.5982 7.70893 11.7411C7.56965 11.8804 7.39286 11.9911 7.17858 12.0732C6.96786 12.1554 6.71965 12.1965 6.43393 12.1965C6.14822 12.1965 5.88929 12.1518 5.65715 12.0625C5.42501 11.9697 5.22501 11.8375 5.05715 11.6661C4.89286 11.4947 4.76429 11.2875 4.67143 11.0447C4.58215 10.8018 4.53751 10.5286 4.53751 10.225C4.53751 9.92146 4.58215 9.64824 4.67143 9.40539C4.76072 9.16253 4.89108 8.95539 5.06251 8.78396C5.23751 8.61253 5.45179 8.48217 5.70536 8.39289C5.96251 8.30003 6.25715 8.2536 6.58929 8.2536C6.75001 8.2536 6.89286 8.26253 7.01786 8.28039C7.14643 8.29824 7.26072 8.32324 7.36072 8.35539C7.46072 8.38396 7.55001 8.41789 7.62858 8.45717C7.70715 8.49289 7.77858 8.5286 7.84286 8.56432V9.22324C7.68215 9.13039 7.50536 9.05182 7.31251 8.98753C7.11965 8.92324 6.89108 8.8911 6.62679 8.8911C6.16965 8.8911 5.83929 9.00896 5.63572 9.24467C5.43572 9.47682 5.33572 9.8036 5.33572 10.225C5.33572 10.65 5.43036 10.9786 5.61965 11.2107C5.81251 11.4429 6.08572 11.559 6.43929 11.559C6.60001 11.559 6.73751 11.5375 6.85179 11.4947C6.96965 11.4482 7.06608 11.3875 7.14108 11.3125C7.21608 11.234 7.26965 11.1429 7.30179 11.0393C7.33751 10.9322 7.35536 10.8179 7.35536 10.6965H6.32679V10.059H8.12679V10.6054Z" fill="white"/>
<path d="M8.71147 8.30182H11.2668V8.94467H9.47755V9.83932H10.9883V10.4768H9.47755V11.5054H11.2936V12.1429H8.71147V8.30182Z" fill="white"/>
<path d="M13.5747 12.1965C13.3104 12.1965 13.064 12.1554 12.8354 12.0732C12.6068 11.9875 12.4086 11.8625 12.2407 11.6982C12.0729 11.5304 11.939 11.325 11.839 11.0822C11.7425 10.8357 11.6943 10.5518 11.6943 10.2304C11.6943 9.90896 11.7425 9.62682 11.839 9.38396C11.939 9.13753 12.0729 8.93039 12.2407 8.76253C12.4086 8.59467 12.6068 8.46789 12.8354 8.38217C13.064 8.29646 13.3104 8.2536 13.5747 8.2536C13.839 8.2536 14.0854 8.29646 14.314 8.38217C14.5425 8.46432 14.7407 8.58753 14.9086 8.75182C15.08 8.9161 15.214 9.11967 15.3104 9.36253C15.4104 9.60539 15.4604 9.88753 15.4604 10.209C15.4604 10.5304 15.4104 10.8143 15.3104 11.0607C15.214 11.3072 15.08 11.5143 14.9086 11.6822C14.7407 11.85 14.5425 11.9786 14.314 12.0679C14.0854 12.1536 13.839 12.1965 13.5747 12.1965ZM13.5747 11.559C13.7318 11.559 13.8765 11.5357 14.0086 11.4893C14.1407 11.4393 14.255 11.3625 14.3515 11.259C14.4479 11.1518 14.5229 11.0143 14.5765 10.8465C14.6336 10.675 14.6622 10.4679 14.6622 10.225C14.6622 9.98217 14.6336 9.77682 14.5765 9.60896C14.5229 9.43753 14.4479 9.30003 14.3515 9.19646C14.255 9.08932 14.1407 9.01253 14.0086 8.9661C13.8765 8.9161 13.7318 8.8911 13.5747 8.8911C13.4211 8.8911 13.2782 8.9161 13.1461 8.9661C13.014 9.01253 12.8997 9.08932 12.8032 9.19646C12.7068 9.30003 12.63 9.43753 12.5729 9.60896C12.5193 9.77682 12.4925 9.98217 12.4925 10.225C12.4925 10.4679 12.5193 10.675 12.5729 10.8465C12.63 11.0143 12.7068 11.1518 12.8032 11.259C12.8997 11.3625 13.014 11.4393 13.1461 11.4893C13.2782 11.5357 13.4211 11.559 13.5747 11.559Z" fill="white"/>
<rect x="12" y="12" width="8" height="8" rx="4" fill="#9A32A6"/>
<path d="M15.1532 17.3559C15.3708 16.9985 15.2814 16.5344 14.9467 16.2833V16.2833C14.5093 15.9552 14.5142 15.2974 14.9566 14.976L17.6765 12.9999L16.6011 15.0084C16.4118 15.3619 16.509 15.8006 16.8297 16.0412V16.0412C17.2765 16.3762 17.2595 17.0517 16.7966 17.3639L14 19.2499L15.1532 17.3559Z" fill="white"/>
</svg>