<svg viewBox="0 0 20 20" fill="none" xmlns="http://www.w3.org/2000/svg"><path opacity=".01" fill="#fff" d="M0 0h20v20H0z"/><path fill="#F33" d="M3.929 11.429H7.5v4.643H3.929z"/><path fill="#07F" d="M8.214 7.857h3.571v8.214H8.214z"/><path fill="#FC0" d="M12.5 3.929h3.571v12.143H12.5z"/><rect x="12" y="12" width="8" height="8" rx="4" fill="#9A32A6"/><path d="M15.153 17.356a.812.812 0 0 0-.206-1.073.813.813 0 0 1 .01-1.307L17.677 13 16.6 15.008a.812.812 0 0 0 .229 1.033.812.812 0 0 1-.033 1.323L14 19.25l1.153-1.894z" fill="#fff"/></svg>
