<svg width="20" height="20" viewBox="0 0 20 20" fill="none" xmlns="http://www.w3.org/2000/svg"><g clip-path="url(#clip0_2652_10319)"><path d="M5.295 3.635a7.951 7.951 0 0 1 4.019-1.53v2.4a5.566 5.566 0 1 0 6.175 4.435l2.015-1.62-.002-.012A7.952 7.952 0 1 1 5.295 3.635Z" fill="#FCCA00"/><path d="m15.985 4.755.008.021-1.347 2.139a5.594 5.594 0 0 0-1.913-1.757v4.866a2.704 2.704 0 1 1-1.193-2.242V2.216a7.942 7.942 0 0 1 4.445 2.54Z" fill="#FC3F1D"/></g><rect x="12" y="12" width="8" height="8" rx="4" fill="#9A32A6"/><path d="M15.153 17.356a.813.813 0 0 0-.206-1.073.812.812 0 0 1 .01-1.307L17.677 13 16.6 15.008a.812.812 0 0 0 .229 1.033.812.812 0 0 1-.033 1.323L14 19.25l1.153-1.894Z" fill="#fff"/><defs><clipPath id="clip0_2652_10319"><path fill="#fff" transform="translate(2 2)" d="M0 0h16v16H0z"/></clipPath></defs></svg>