<svg width="20" height="20" viewBox="0 0 20 20" fill="none" xmlns="http://www.w3.org/2000/svg"><path d="M3.214 9.881c0-2.333 0-3.5.459-4.375a3.913 3.913 0 0 1 1.833-1.833c.875-.459 2.042-.459 4.375-.459s3.5 0 4.375.459a4.325 4.325 0 0 1 1.833 1.833c.459.875.459 2.042.459 4.375s0 3.5-.459 4.375a4.325 4.325 0 0 1-1.833 1.833c-.875.459-2.042.459-4.375.459-5.127 0-6.667-1.842-6.667-6.667Z" fill="#145BC7"/><path d="M3.673 5.506c-.459.875-.459 2.042-.459 4.375 0 5.127 1.842 6.667 6.667 6.667 1.07 0 1.897 0 2.56-.045l.023-.039 2.5-9c.042-.208-.083-.458-.291-.5l-10-2.75a3.897 3.897 0 0 0-1 1.292Z" fill="#367AFE"/><path d="M3.223 8.214c-.009.48-.009 1.03-.009 1.667 0 2.333 0 3.5.459 4.375a4.325 4.325 0 0 0 1.833 1.833c.875.459 2.042.459 4.375.459h.417V8.63c0-.25-.167-.417-.417-.417H3.223Z" fill="#8AB2FF"/><path fill-rule="evenodd" clip-rule="evenodd" d="m4.048 4.881 10.82 10.82c.508-.386.926-.88 1.221-1.445.459-.875.459-2.042.459-4.375s0-3.5-.459-4.375a4.325 4.325 0 0 0-1.833-1.833c-.875-.459-2.042-.459-4.375-.459s-3.5 0-4.375.459A3.914 3.914 0 0 0 4.048 4.88Z" fill="url(#paint0_linear_2693_10375)"/><rect x="12" y="12" width="8" height="8" rx="4" fill="#9A32A6"/><path d="M15.153 17.356a.813.813 0 0 0-.206-1.073.812.812 0 0 1 .01-1.307L17.677 13 16.6 15.008a.812.812 0 0 0 .229 1.033.812.812 0 0 1-.033 1.323L14 19.25l1.153-1.894Z" fill="#fff"/><defs><linearGradient id="paint0_linear_2693_10375" x1="14.143" y1="3.781" x2="8.839" y2="9.673" gradientUnits="userSpaceOnUse"><stop stop-color="#fff" stop-opacity=".338"/><stop offset="1" stop-color="#fff" stop-opacity="0"/></linearGradient></defs></svg>