<svg width="20" height="20" viewBox="0 0 20 20" fill="none" xmlns="http://www.w3.org/2000/svg"><path d="M1.438 11.571a2.994 2.994 0 0 1 0-3.142l3.246-5.23a2.783 2.783 0 0 1 2.36-1.335h5.913c.954 0 1.843.503 2.36 1.334l3.245 5.23a2.994 2.994 0 0 1 0 3.143l-3.246 5.23a2.783 2.783 0 0 1-2.36 1.335H7.044a2.783 2.783 0 0 1-2.36-1.334l-3.245-5.23Z" fill="#027BF3"/><g clip-path="url(#clip0_2275_4690)"><path d="M14.375 10a4.375 4.375 0 1 1-8.75 0 4.375 4.375 0 0 1 8.75 0Z" stroke="#fff" stroke-width="1.25" stroke-linecap="round" stroke-linejoin="round"/><path fill-rule="evenodd" clip-rule="evenodd" d="M9.375 7.5h1.25v6.875h-1.25V7.5Zm-.938 1.875h-1.25v4.375h1.25V9.375Zm4.376.625h-1.25v3.75h1.25V10Z" fill="#fff"/><path d="M10 13.75a3.75 3.75 0 1 0 0-7.5 3.75 3.75 0 0 0 0 7.5Z" stroke="#027BF3" stroke-width=".625" stroke-linecap="round" stroke-linejoin="round"/></g><rect x="12" y="12" width="8" height="8" rx="4" fill="#9A32A6"/><path d="M15.153 17.356a.813.813 0 0 0-.206-1.073.812.812 0 0 1 .01-1.307L17.677 13 16.6 15.008a.812.812 0 0 0 .229 1.033.812.812 0 0 1-.033 1.323L14 19.25l1.153-1.894Z" fill="#fff"/><defs><clipPath id="clip0_2275_4690"><path fill="#fff" transform="translate(5 5)" d="M0 0h10v10H0z"/></clipPath></defs></svg>