<svg width="20" height="20" viewBox="0 0 20 20" fill="none" xmlns="http://www.w3.org/2000/svg"><g clip-path="url(#clip0_2628_18637)"><rect x="2.5" y="2.5" width="15" height="15" rx="3.33" fill="#43A047"/><path fill="#fff" d="M5.5 5.5h1.125v9H5.5zM9.438 5.5h1.125v9H9.438zM13.375 5.5H14.5v9h-1.125z"/><path fill="#fff" d="M6.625 5.5h6.75v1.125h-6.75zM6.625 13.375h6.75V14.5h-6.75zM6.625 9.437h6.75v1.125h-6.75z"/><rect x="12" y="12" width="8" height="8" rx="4" fill="#9A32A6"/><path d="M15.153 17.356a.812.812 0 0 0-.206-1.073.813.813 0 0 1 .01-1.307L17.677 13 16.6 15.008a.812.812 0 0 0 .229 1.033.812.812 0 0 1-.033 1.323L14 19.25l1.153-1.894Z" fill="#fff"/></g><defs><clipPath id="clip0_2628_18637"><path fill="#fff" d="M0 0h20v20H0z"/></clipPath></defs></svg>