<svg viewBox="0 0 20 20" fill="none" xmlns="http://www.w3.org/2000/svg"><path opacity=".01" fill="#fff" d="M0 0h20v20H0z"/><path d="M3.214 5.214a2 2 0 0 1 2-2h8.161a2 2 0 0 1 1.716.973L18.571 10l-3.48 5.813a2 2 0 0 1-1.716.973h-8.16a2 2 0 0 1-2-2V5.214z" fill="#FC0"/><path fill-rule="evenodd" clip-rule="evenodd" d="M8.683 10.483v1.66h-.86v-1.655L6.428 8.214h.945l.933 1.595.963-1.595h.795l-1.382 2.269zm3.96-1.611v3.27h-.856v-3.27h-1.285v-.658h3.427v.658h-1.286z" fill="#000"/><rect x="12" y="12" width="8" height="8" rx="4" fill="#9A32A6"/><path d="M15.153 17.356a.812.812 0 0 0-.206-1.073.813.813 0 0 1 .01-1.307L17.677 13 16.6 15.008a.812.812 0 0 0 .229 1.033.812.812 0 0 1-.033 1.323L14 19.25l1.153-1.894z" fill="#fff"/></svg>
