<svg width="20" height="20" fill="none" xmlns="http://www.w3.org/2000/svg"><path opacity=".01" fill="#fff" d="M0 0h20v20H0z"/><path d="M10 18.571A8.571 8.571 0 1 0 10 1.43a8.571 8.571 0 0 0 0 17.142z" fill="#00758F"/><path d="M5.645 9.264l-.737 1.693h-.544L3.648 9.24v2.19h-.544V8.356h.8l.777 1.945.844-1.945h.733v3.073h-.613V9.264zM8.1 11.403c-.048.134-.1.253-.154.356a.948.948 0 0 1-.193.257.662.662 0 0 1-.257.158c-.1.037-.22.056-.36.056a1.076 1.076 0 0 1-.42-.081v-.515a.754.754 0 0 0 .407.116.429.429 0 0 0 .223-.051.396.396 0 0 0 .146-.146l-.887-2.349h.63l.557 1.607.544-1.607h.544l-.78 2.199z" fill="#fff"/><path d="M10.13 11.471a2.088 2.088 0 0 1-.617-.09 1.522 1.522 0 0 1-.214-.085 2.245 2.245 0 0 1-.158-.099v-.514a1.138 1.138 0 0 0 .407.188c.085.026.177.048.274.065.097.017.196.025.296.025.191 0 .344-.025.458-.077.114-.051.172-.145.172-.283a.333.333 0 0 0-.047-.184.363.363 0 0 0-.133-.12.983.983 0 0 0-.21-.081 5.996 5.996 0 0 0-.266-.069 3.486 3.486 0 0 1-.343-.098 1.136 1.136 0 0 1-.308-.163.84.84 0 0 1-.228-.262.878.878 0 0 1-.085-.411c0-.146.028-.274.085-.386a.752.752 0 0 1 .245-.283c.105-.074.233-.13.381-.167.152-.04.32-.06.506-.06.22 0 .396.022.527.064.134.04.236.08.304.12v.515a1.197 1.197 0 0 0-.338-.137 1.9 1.9 0 0 0-.467-.052c-.215 0-.373.03-.476.09a.274.274 0 0 0-.154.253c0 .069.015.126.047.171a.414.414 0 0 0 .133.108.962.962 0 0 0 .188.072l.236.056c.12.029.24.062.36.099.123.037.233.09.33.158a.772.772 0 0 1 .236.27.84.84 0 0 1 .094.425.886.886 0 0 1-.107.458.839.839 0 0 1-.275.292 1.145 1.145 0 0 1-.394.15 2.429 2.429 0 0 1-.459.042zM14.45 12.067a16.37 16.37 0 0 1-.995-.308 10.4 10.4 0 0 1-.797-.313 2.504 2.504 0 0 1-.433-.245 1.507 1.507 0 0 1-.321-.325 1.417 1.417 0 0 1-.202-.425 1.983 1.983 0 0 1-.068-.544c0-.257.038-.484.115-.681.078-.197.183-.363.318-.497a1.32 1.32 0 0 1 .475-.305c.183-.071.382-.107.596-.107.209 0 .404.034.587.103a1.314 1.314 0 0 1 .801.784c.08.195.12.42.12.677 0 .178-.018.343-.055.498-.034.151-.093.29-.176.415-.08.126-.185.237-.317.335-.129.094-.287.17-.476.227.178.043.353.077.527.103.178.028.345.052.502.072l-.201.536zm-1.312-1.106c.126 0 .242-.018.347-.055a.716.716 0 0 0 .274-.185.891.891 0 0 0 .18-.33c.046-.137.069-.302.069-.497 0-.194-.023-.358-.068-.493a.848.848 0 0 0-.18-.33.658.658 0 0 0-.275-.184.973.973 0 0 0-.347-.06.96.96 0 0 0-.343.06.657.657 0 0 0-.274.184.89.89 0 0 0-.184.33 1.639 1.639 0 0 0-.065.493c0 .195.022.36.065.497a.939.939 0 0 0 .184.33.716.716 0 0 0 .274.185c.106.037.22.055.343.055zM17.057 11.429h-1.95V8.356h.613v2.563h1.337v.51z" fill="#FFA42C"/><rect x="12" y="12" width="8" height="8" rx="4" fill="#9A32A6"/><path d="M15.153 17.356a.812.812 0 0 0-.206-1.073.813.813 0 0 1 .01-1.307L17.677 13 16.6 15.008a.812.812 0 0 0 .229 1.033.812.812 0 0 1-.033 1.323L14 19.25l1.153-1.894z" fill="#fff"/></svg>