<svg width="20" height="20" viewBox="0 0 20 20" fill="none" xmlns="http://www.w3.org/2000/svg"><g clip-path="url(#clip0_2628_18633)"><rect x="2.534" y="2.534" width="14.932" height="14.932" rx="3.296" fill="#000"/><path d="M14.5 5.5 7.868 9.05l3.456-3.55H9.41L7.056 8.766V5.5H5.5v9h1.556v-3.26l2.353 3.26h1.915l-3.366-3.438L14.5 14.5v-1.671l-5.967-2.394 5.967.4v-1.67l-5.929.385L14.5 7.17V5.5Z" fill="url(#paint0_radial_2628_18633)"/><rect x="2.534" y="2.534" width="14.932" height="14.932" rx="3.296" stroke="#474747" stroke-width=".068"/><rect x="12" y="12" width="8" height="8" rx="4" fill="#9A32A6"/><path d="M15.153 17.356a.812.812 0 0 0-.206-1.073.813.813 0 0 1 .01-1.307L17.677 13 16.6 15.008a.812.812 0 0 0 .229 1.033.812.812 0 0 1-.033 1.323L14 19.25l1.153-1.894Z" fill="#fff"/></g><defs><radialGradient id="paint0_radial_2628_18633" cx="0" cy="0" r="1" gradientUnits="userSpaceOnUse" gradientTransform="matrix(15.18752 9.93753 -9.23549 14.1146 3.288 3.925)"><stop offset=".496" stop-color="#F50"/><stop offset=".808" stop-color="#BF0"/><stop offset="1" stop-color="#0FB"/></radialGradient><clipPath id="clip0_2628_18633"><path fill="#fff" d="M0 0h20v20H0z"/></clipPath></defs></svg>