<svg xmlns="http://www.w3.org/2000/svg" width="16" height="16">
    <path fill-rule="evenodd"
          d="M11 13.5H5c-.39782 0-.77936-.158-1.06066-.4393S3.5 12.3978 3.5 12V4c0-.39782.15804-.77936.43934-1.06066S4.60218 2.5 5 2.5h2.757c.19709.00004.39223.03892.57428.11442.18206.0755.34745.18613.48672.32558l3.243 3.242c.281.2812.4389.66245.439 1.06V12c0 .3978-.158.7794-.4393 1.0607S11.3978 13.5 11 13.5m2.121-8.379c.2787.27863.4998.60945.6506.97355S14 6.8489 14 7.243V12c0 .7956-.3161 1.5587-.8787 2.1213S11.7956 15 11 15H5c-.79565 0-1.55871-.3161-2.12132-.8787S2 12.7956 2 12V4c0-.79565.31607-1.55871.87868-2.12132S4.20435 1 5 1h2.757c.3941-.000047.78435.07756 1.14845.22838s.69492.37191.97355.65062z"
          clip-rule="evenodd"/>
    <path
        d="M9.85002 10.5h-3.7c-.41421 0-.75.3358-.75.75s.33579.75.75.75h3.7c.41418 0 .74998-.3358.74998-.75s-.3358-.75-.74998-.75M8 4.7998c.41413 0 .74987.3359.75.75v1.10059h1.09961c.41419 0 .74999.33579.74999.75-.0003.41399-.3359.74902-.74999.74902H8.75V9.25c0 .41421-.33579.75-.75.75s-.75-.33579-.75-.75V8.14941H6.15039c-.41405 0-.74974-.33503-.75-.74902 0-.41421.33579-.75.75-.75H7.25V5.5498c.00013-.4141.33587-.75.75-.75"/>
</svg>
