<svg width="20" height="20" viewBox="0 0 20 20" fill="none" xmlns="http://www.w3.org/2000/svg"><g clip-path="url(#clip0_2678_10336)"><path opacity=".01" fill="#fff" d="M0 0h20v20H0z"/><path d="M5.399 5.763c0-.974.79-1.763 1.763-1.763h7.184c.624 0 1.201.33 1.518.867l3.069 5.204-3.069 5.204a1.763 1.763 0 0 1-1.518.868H7.162c-.974 0-1.763-.79-1.763-1.763V5.763ZM1.79 4h1.805v12.143H1.79z" fill="#FC0"/><path d="M1.79 14.344h1.804v1.799H1.79v-1.8Z" fill="#FF0400"/><g clip-path="url(#clip1_2678_10336)"><path fill-rule="evenodd" clip-rule="evenodd" d="m12.033 9.772-.586.073v2.397a.223.223 0 0 1-.158.214l-.723.222h-.003a.01.01 0 0 1-.003 0 .01.01 0 0 1-.004-.002.01.01 0 0 1-.002-.003V9.846l-.586-.074A.67.67 0 0 1 9.4 9.26l-.263-1.117a.67.67 0 0 1 .652-.823h2.422a.67.67 0 0 1 .652.823L12.6 9.261a.67.67 0 0 1-.567.51Zm1.219-.358a1.34 1.34 0 0 1-1.136 1.022v1.806a.893.893 0 0 1-.63.854l-.723.222a.68.68 0 0 1-.879-.649v-2.233a1.34 1.34 0 0 1-1.136-1.022l-.262-1.116a1.34 1.34 0 0 1 1.303-1.646h2.422a1.34 1.34 0 0 1 1.303 1.646l-.262 1.116Zm-2.81-1.423a.335.335 0 0 0 0 .67h1.116a.335.335 0 0 0 0-.67h-1.116Z" fill="#000" fill-opacity=".85"/></g><rect x="12" y="12" width="8" height="8" rx="4" fill="#9A32A6"/><path d="M15.153 17.356a.813.813 0 0 0-.206-1.073.812.812 0 0 1 .01-1.307L17.677 13 16.6 15.008a.812.812 0 0 0 .229 1.033.812.812 0 0 1-.033 1.323L14 19.25l1.153-1.894Z" fill="#fff"/></g><defs><clipPath id="clip0_2678_10336"><path fill="#fff" d="M0 0h20v20H0z"/></clipPath><clipPath id="clip1_2678_10336"><path fill="#fff" transform="translate(7.429 6.429)" d="M0 0h7.143v7.143H0z"/></clipPath></defs></svg>