<svg width="20" height="20" viewBox="0 0 20 20" fill="none" xmlns="http://www.w3.org/2000/svg"><path fill-rule="evenodd" clip-rule="evenodd" d="M11.786 2.5H3.929v15H16.07V6.786L11.786 2.5Z" fill="#43A047"/><path opacity=".3" fill-rule="evenodd" clip-rule="evenodd" d="M15.786 6.786h.285L11.786 2.5v.286a4 4 0 0 0 4 4Z" fill="#000"/><path fill-rule="evenodd" clip-rule="evenodd" d="M7.903 10.111a.55.55 0 0 0-.077-.212.676.676 0 0 0-.354-.283.7.7 0 0 0-.237-.04c-.152 0-.28.029-.386.088a.728.728 0 0 0-.257.235c-.066.099-.114.211-.144.337a1.674 1.674 0 0 0 0 .765c.03.121.078.23.144.328a.735.735 0 0 0 .257.233.785.785 0 0 0 .386.088c.205 0 .366-.063.482-.189a.872.872 0 0 0 .212-.497h.651a1.556 1.556 0 0 1-.133.519 1.201 1.201 0 0 1-.694.643c-.157.057-.33.085-.518.085a1.57 1.57 0 0 1-.633-.122 1.355 1.355 0 0 1-.473-.336 1.49 1.49 0 0 1-.296-.504 1.848 1.848 0 0 1-.103-.623c0-.229.035-.441.103-.637.069-.195.167-.366.296-.512.128-.146.286-.26.473-.343.188-.083.398-.124.633-.124.168 0 .327.024.477.073.15.048.285.12.403.212.119.093.217.208.294.345.077.137.126.294.146.471h-.652Zm1.594 1.016c0 .103.02.19.056.262.037.071.087.129.148.173a.64.64 0 0 0 .216.099c.083.021.17.032.258.032.06 0 .124-.005.192-.015a.67.67 0 0 0 .193-.058.421.421 0 0 0 .15-.118c.04-.05.06-.113.06-.19a.269.269 0 0 0-.079-.202.63.63 0 0 0-.208-.129 2.073 2.073 0 0 0-.291-.09 8.064 8.064 0 0 1-.33-.085 2.942 2.942 0 0 1-.335-.105 1.148 1.148 0 0 1-.29-.161.757.757 0 0 1-.209-.246.748.748 0 0 1-.08-.358c0-.157.034-.294.102-.41a.913.913 0 0 1 .263-.289c.109-.077.232-.134.369-.171.137-.037.274-.056.411-.056.16 0 .314.018.46.054.148.035.279.093.393.173.114.08.205.182.272.307a.94.94 0 0 1 .1.452h-.65a.54.54 0 0 0-.058-.227.378.378 0 0 0-.131-.142.553.553 0 0 0-.186-.073 1.147 1.147 0 0 0-.23-.021.79.79 0 0 0-.163.017.436.436 0 0 0-.148.06.372.372 0 0 0-.109.107.288.288 0 0 0-.043.163c0 .06.012.109.035.146a.306.306 0 0 0 .135.103c.067.031.16.062.278.094a49.342 49.342 0 0 0 .703.182c.101.03.202.078.302.144.1.065.187.153.26.263.072.11.109.25.109.422 0 .14-.027.27-.082.39a.846.846 0 0 1-.242.311c-.107.087-.24.155-.398.204a1.886 1.886 0 0 1-.551.072c-.169 0-.332-.02-.49-.062a1.233 1.233 0 0 1-.42-.195.963.963 0 0 1-.29-.338 1.01 1.01 0 0 1-.103-.489h.651Zm3.746 1.016h-.758l-.99-3.06h.69l.681 2.151h.009l.69-2.151h.694l-1.016 3.06Z" fill="#fff"/><path fill-rule="evenodd" clip-rule="evenodd" d="M12.073 2.714H4.214v15.003H16.36V7.001l-4.286-4.287Z" fill="#43A047"/><path d="M11.744 2H4.749c-.464 0-.909.176-1.237.488A1.628 1.628 0 0 0 3 3.667v13.336c0 .442.184.866.512 1.178.328.313.773.488 1.237.488H15.24c.464 0 .909-.175 1.237-.488.328-.312.512-.736.512-1.178V7L11.744 2Z" fill="#43A047"/><path fill-rule="evenodd" clip-rule="evenodd" d="M7.923 10.327a.55.55 0 0 0-.077-.212.677.677 0 0 0-.354-.283.7.7 0 0 0-.237-.04c-.152 0-.28.029-.386.087a.728.728 0 0 0-.257.236c-.066.099-.114.21-.144.336a1.675 1.675 0 0 0 0 .766c.03.121.078.23.144.327a.736.736 0 0 0 .257.234.785.785 0 0 0 .386.088c.205 0 .366-.063.482-.189a.873.873 0 0 0 .212-.497H8.6a1.556 1.556 0 0 1-.132.519 1.205 1.205 0 0 1-.694.643c-.158.057-.33.085-.52.085-.234 0-.445-.04-.632-.122a1.354 1.354 0 0 1-.473-.336 1.489 1.489 0 0 1-.296-.504 1.849 1.849 0 0 1-.103-.623c0-.23.034-.441.103-.637.068-.196.167-.367.296-.512.128-.146.286-.26.473-.343.187-.083.398-.124.633-.124.168 0 .327.024.477.072.15.049.285.12.403.213.119.092.217.207.294.345.077.137.126.294.146.471h-.652Zm1.595 1.016c0 .103.018.19.056.261.037.072.086.13.147.174a.64.64 0 0 0 .217.099c.083.021.168.032.257.032.06 0 .124-.005.193-.015a.674.674 0 0 0 .193-.058.42.42 0 0 0 .15-.118c.04-.05.06-.114.06-.19a.269.269 0 0 0-.08-.202.629.629 0 0 0-.207-.129 2.07 2.07 0 0 0-.292-.09 7.913 7.913 0 0 1-.664-.19 1.148 1.148 0 0 1-.292-.161.757.757 0 0 1-.208-.247.748.748 0 0 1-.079-.358c0-.157.034-.293.1-.409a.913.913 0 0 1 .264-.29c.11-.076.232-.134.37-.17.136-.038.273-.056.41-.056.16 0 .314.017.461.053.148.036.278.094.393.174.114.08.205.182.272.306a.94.94 0 0 1 .1.452h-.651a.54.54 0 0 0-.058-.227.378.378 0 0 0-.13-.141.552.552 0 0 0-.187-.073 1.148 1.148 0 0 0-.23-.022.789.789 0 0 0-.162.018.436.436 0 0 0-.148.06.372.372 0 0 0-.11.107.288.288 0 0 0-.042.163c0 .06.011.108.034.145a.306.306 0 0 0 .135.103c.067.032.16.063.279.095l.465.12c.057.011.136.032.238.062.101.03.202.078.302.143.1.066.186.154.26.264.072.11.108.25.108.422 0 .14-.027.27-.081.39a.847.847 0 0 1-.242.311c-.107.087-.24.155-.399.204a1.884 1.884 0 0 1-.55.072 1.93 1.93 0 0 1-.491-.062 1.233 1.233 0 0 1-.42-.195.963.963 0 0 1-.29-.338 1.011 1.011 0 0 1-.103-.489h.652Zm3.746 1.016h-.759l-.99-3.06h.69l.682 2.151h.008l.69-2.152h.695l-1.016 3.06Z" fill="#fff"/><path d="M11.74 2v3.44c0 .862.7 1.56 1.56 1.56h3.69" fill="#43A047"/><path d="M11.74 2v3.44c0 .862.7 1.56 1.56 1.56h3.69" fill="#000" fill-opacity=".32"/><rect x="12" y="12" width="8" height="8" rx="4" fill="#9A32A6"/><path d="M15.153 17.356a.812.812 0 0 0-.206-1.073.813.813 0 0 1 .01-1.307L17.677 13 16.6 15.008a.812.812 0 0 0 .229 1.033.812.812 0 0 1-.033 1.323L14 19.25l1.153-1.894Z" fill="#fff"/></svg>