<svg width="20" height="20" viewBox="0 0 20 20" fill="none" xmlns="http://www.w3.org/2000/svg">
<rect opacity="0.01" width="20" height="20" fill="white"/>
<path d="M3.21429 5.21429C3.21429 4.10972 4.10972 3.21429 5.21429 3.21429H13.3753C14.0785 3.21429 14.73 3.58361 15.0913 4.18696L18.5714 10L15.0913 15.8131C14.73 16.4164 14.0785 16.7857 13.3753 16.7857H5.21429C4.10972 16.7857 3.21429 15.8903 3.21429 14.7857V5.21429Z" fill="#027BF3"/>
<rect x="5.71429" y="6.07144" width="0.714285" height="7.5" fill="white"/>
<rect x="7.14288" y="7.5" width="0.714285" height="6.07143" fill="white"/>
<rect x="8.57141" y="9.28574" width="0.714286" height="4.28571" fill="white"/>
<rect x="12.8572" y="6.42859" width="0.714286" height="7.14286" fill="white"/>
<rect x="10" y="8.21429" width="0.714285" height="5.35714" fill="white"/>
<rect x="11.4286" y="8.92859" width="0.714286" height="4.64286" fill="white"/>
<rect x="12" y="12" width="8" height="8" rx="4" fill="#9A32A6"/>
<path d="M15.1532 17.3559C15.3708 16.9985 15.2814 16.5344 14.9467 16.2833C14.5093 15.9552 14.5142 15.2974 14.9566 14.976L17.6765 12.9999L16.6011 15.0084C16.4118 15.3619 16.509 15.8006 16.8297 16.0412C17.2765 16.3762 17.2595 17.0517 16.7966 17.3639L14 19.2499L15.1532 17.3559Z" fill="white"/>
</svg>
