<svg width="20" height="20" viewBox="0 0 20 20" fill="none" xmlns="http://www.w3.org/2000/svg"><g clip-path="url(#clip0_2678_10368)"><path opacity=".01" fill="#fff" d="M0 0h20v20H0z"/><path d="M5.399 5.763c0-.974.79-1.763 1.763-1.763h7.184c.624 0 1.201.33 1.518.867l3.069 5.204-3.069 5.204a1.763 1.763 0 0 1-1.518.868H7.162c-.974 0-1.763-.79-1.763-1.763V5.763ZM1.79 4h1.805v12.143H1.79z" fill="#FC0"/><path d="M1.79 14.344h1.805v1.799H1.79v-1.8Z" fill="#FF0400"/><g clip-path="url(#clip1_2678_10368)"><path fill-rule="evenodd" clip-rule="evenodd" d="M12 8.25a1 1 0 1 1-2 0 1 1 0 0 1 2 0Zm.75 0a1.75 1.75 0 1 1-3.5 0 1.75 1.75 0 0 1 3.5 0Zm-4.5 4c0-.102.11-.405.66-.73.509-.3 1.25-.52 2.09-.52.84 0 1.581.22 2.09.52.55.325.66.628.66.73a.5.5 0 0 1-.5.5h-4.5a.5.5 0 0 1-.5-.5Zm2.75-2c-1.925 0-3.5 1-3.5 2 0 .69.56 1.25 1.25 1.25h4.5c.69 0 1.25-.56 1.25-1.25 0-1-1.575-2-3.5-2Z" fill="#000" fill-opacity=".85"/></g><rect x="12" y="12" width="8" height="8" rx="4" fill="#9A32A6"/><path d="M15.153 17.356a.813.813 0 0 0-.206-1.073.812.812 0 0 1 .01-1.307L17.677 13 16.6 15.008a.812.812 0 0 0 .229 1.033.812.812 0 0 1-.033 1.323L14 19.25l1.153-1.894Z" fill="#fff"/></g><defs><clipPath id="clip0_2678_10368"><path fill="#fff" d="M0 0h20v20H0z"/></clipPath><clipPath id="clip1_2678_10368"><path fill="#fff" transform="translate(7 6)" d="M0 0h8v8H0z"/></clipPath></defs></svg>