<svg width="20" height="20" viewBox="0 0 20 20" fill="none" xmlns="http://www.w3.org/2000/svg"><g clip-path="url(#clip0_2620_4788)"><rect x="3" y="2.5" width="15" height="15" rx="3.33" fill="url(#paint0_linear_2620_4788)"/><path fill-rule="evenodd" clip-rule="evenodd" d="M13.687 13.658H7.446a2.14 2.14 0 0 1-.159-.006c-1.41-.032-2.544-1.2-2.544-2.634 0-.7.275-1.37.764-1.865.251-.253.548-.45.87-.58a2.8 2.8 0 0 1 .798-2.183 2.734 2.734 0 0 1 1.945-.814 2.736 2.736 0 0 1 2.255 1.196c.235-.085.489-.13.753-.13a2.26 2.26 0 0 1 2.235 2.05 2.508 2.508 0 0 1 1.952 2.459c0 1.387-1.113 2.512-2.485 2.511a2.43 2.43 0 0 1-.143-.004Z" fill="#fff"/><path fill-rule="evenodd" clip-rule="evenodd" d="M10.676 7.993a2.153 2.153 0 1 1 0 4.307 2.153 2.153 0 0 1 0-4.307Z" fill="url(#paint1_linear_2620_4788)"/><path fill-rule="evenodd" clip-rule="evenodd" d="M10.837 10.031h.732c.153 0 .278.114.278.255 0 .068-.03.132-.082.18a.29.29 0 0 1-.196.074h-.977a.289.289 0 0 1-.033.002c-.154 0-.279-.115-.279-.256V9.039c0-.068.03-.133.082-.18a.29.29 0 0 1 .196-.075c.154 0 .278.114.279.255v.992Z" fill="#fff"/><rect x="12.5" y="12" width="8" height="8" rx="4" fill="#9A32A6"/><path d="M15.653 17.356a.812.812 0 0 0-.206-1.073.813.813 0 0 1 .01-1.307L18.177 13 17.1 15.008a.812.812 0 0 0 .229 1.033.812.812 0 0 1-.033 1.323L14.5 19.25l1.153-1.894Z" fill="#fff"/></g><defs><linearGradient id="paint0_linear_2620_4788" x1="3" y1="2.5" x2="3" y2="17.5" gradientUnits="userSpaceOnUse"><stop stop-color="#7BD4FB"/><stop offset="1" stop-color="#2BB7F5"/></linearGradient><linearGradient id="paint1_linear_2620_4788" x1="12.829" y1="12.3" x2="12.829" y2="7.993" gradientUnits="userSpaceOnUse"><stop stop-color="#61DF00"/><stop offset="1" stop-color="#4CCA00"/></linearGradient><clipPath id="clip0_2620_4788"><path fill="#fff" transform="translate(.5)" d="M0 0h20v20H0z"/></clipPath></defs></svg>