<svg viewBox="0 0 20 20" width="20" height="20" fill="none" xmlns="http://www.w3.org/2000/svg"><path opacity=".01" fill="#fff" d="M0 0h20v20H0z"/><path d="M10 18.571A8.571 8.571 0 1 0 10 1.43a8.571 8.571 0 0 0 0 17.142z" fill="url(#paint0_linear_gp-file)"/><path d="M10.164 10.704c0 .336-.054.65-.16.944a2.026 2.026 0 0 1-.464.752 2.23 2.23 0 0 1-.792.496 3.054 3.054 0 0 1-1.112.184 3.21 3.21 0 0 1-1.16-.2 2.577 2.577 0 0 1-.896-.592 2.733 2.733 0 0 1-.576-.928c-.134-.363-.2-.77-.2-1.224 0-.453.066-.861.2-1.224.133-.363.328-.672.584-.928.261-.256.581-.45.96-.584a3.874 3.874 0 0 1 1.32-.208c.24 0 .453.013.64.04.192.027.362.064.512.112.149.043.282.093.4.152.117.053.224.107.32.16v.984a4.29 4.29 0 0 0-.792-.352 3.249 3.249 0 0 0-1.024-.144c-.683 0-1.176.176-1.48.528-.299.347-.448.835-.448 1.464 0 .635.141 1.125.424 1.472.288.347.696.52 1.224.52.24 0 .445-.032.616-.096.176-.07.32-.16.432-.272.112-.117.192-.253.24-.408.053-.16.08-.33.08-.512H7.476v-.952h2.688v.816zm.873-3.44h1.904c.736 0 1.304.141 1.704.424.405.283.608.739.608 1.368 0 .336-.056.627-.168.872a1.547 1.547 0 0 1-.464.608c-.203.155-.448.27-.736.344a3.824 3.824 0 0 1-.96.112h-.744V13h-1.144V7.264zm1.144.96v1.824h.744c.373 0 .661-.07.864-.208.208-.144.312-.39.312-.736 0-.304-.099-.525-.296-.664-.192-.144-.48-.216-.864-.216h-.76z" fill="#fff"/><rect x="12" y="12" width="8" height="8" rx="4" fill="#9A32A6"/><path d="M15.153 17.356a.812.812 0 0 0-.206-1.073.813.813 0 0 1 .01-1.307L17.677 13 16.6 15.008a.812.812 0 0 0 .229 1.033.812.812 0 0 1-.033 1.323L14 19.25l1.153-1.894z" fill="#fff"/><defs><linearGradient id="paint0_linear_gp-file" x1="18.571" y1="1.429" x2="1.429" y2="18.571" gradientUnits="userSpaceOnUse"><stop stop-color="#C4DE99"/><stop offset="1" stop-color="#82BA23"/></linearGradient></defs></svg>