<svg width="20" height="20" viewBox="0 0 20 20" fill="none" xmlns="http://www.w3.org/2000/svg"><path d="M10 18.571A8.571 8.571 0 1 0 10 1.43a8.571 8.571 0 0 0 0 17.142Z" fill="#5282FF"/><rect x="12" y="12" width="8" height="8" rx="4" fill="#9A32A6"/><path d="M15.153 17.356a.812.812 0 0 0-.206-1.073.813.813 0 0 1 .01-1.307L17.677 13 16.6 15.008a.812.812 0 0 0 .229 1.033.812.812 0 0 1-.033 1.323L14 19.25l1.153-1.894Z" fill="#fff"/><g clip-path="url(#clip0_2618_6322)" fill="#fff"><path d="M8.5 12.275V13.7c0 .44.67.8 1.5.8s1.5-.36 1.5-.8v-1.425a2.22 2.22 0 0 1-1.5.475 2.22 2.22 0 0 1-1.5-.475ZM12.5 8c.828 0 1.5-.336 1.5-.75s-.672-.75-1.5-.75-1.5.336-1.5.75.672.75 1.5.75Z"/><path d="M11 7.775V8H9v-.225a2.22 2.22 0 0 1-1.5.5 2.22 2.22 0 0 1-1.5-.5V9.2c0 .425.63.77 1.415.8l1.23 1.43a.5.5 0 0 0-.145.32c0 .415.67.75 1.5.75s1.5-.335 1.5-.75a.5.5 0 0 0-.145-.32l1.23-1.43C13.37 9.97 14 9.625 14 9.2V7.775a2.22 2.22 0 0 1-1.5.5 2.22 2.22 0 0 1-1.5-.5ZM10 11a2.57 2.57 0 0 0-.925.165l-1.04-1.22C8.595 9.83 9 9.54 9 9.2v-.7h2v.7c0 .34.405.63.965.745l-1.04 1.22A2.465 2.465 0 0 0 10 11Z"/><path d="M7.5 8C8.328 8 9 7.664 9 7.25s-.672-.75-1.5-.75-1.5.336-1.5.75.672.75 1.5.75Z"/></g><defs><clipPath id="clip0_2618_6322"><path fill="#fff" transform="translate(6 6.5)" d="M0 0h8v8H0z"/></clipPath></defs></svg>