<svg viewBox="0 0 20 20" width="20" height="20" fill="none" xmlns="http://www.w3.org/2000/svg"><path d="M11.749 1.667H4.755c-.464 0-.909.176-1.237.488a1.628 1.628 0 0 0-.512 1.179v13.333c0 .442.185.866.512 1.178.328.313.773.489 1.237.489h10.49c.464 0 .909-.176 1.237-.488.328-.313.512-.737.512-1.179v-10l-5.245-5Z" fill="#43A047"/><path d="M11.746 1.667v3.437c0 .863.7 1.563 1.562 1.563h3.686" fill="#43A047"/><path d="M11.746 1.667v3.437c0 .863.7 1.563 1.562 1.563h3.686" fill="#000" fill-opacity=".32"/><path d="M13.333 10.833H6.666M13.333 14.167H6.666M9.166 7.5h-2.5" stroke="#fff" stroke-width="1.25" stroke-linecap="round" stroke-linejoin="round"/><rect x="12" y="12" width="8" height="8" rx="4" fill="#9A32A6"/><path d="M15.153 17.356a.812.812 0 0 0-.206-1.073.813.813 0 0 1 .01-1.307L17.677 13 16.6 15.008a.812.812 0 0 0 .229 1.033.812.812 0 0 1-.033 1.323L14 19.25l1.153-1.894Z" fill="#fff"/></svg>