<svg width="20" height="20" fill="none" xmlns="http://www.w3.org/2000/svg"><path opacity=".01" fill="#fff" d="M0 0h20v20H0z"/><path d="M10 18.571A8.571 8.571 0 1 0 10 1.43a8.571 8.571 0 0 0 0 17.142z" fill="#0189CE"/><path d="M5.859 13.25c-.098 0-.184-.008-.26-.025a1.218 1.218 0 0 1-.197-.054 1.07 1.07 0 0 1-.14-.071.933.933 0 0 1-.089-.068v-.282c.024.024.056.05.097.079.04.026.09.05.146.075.057.023.122.044.193.06a1.3 1.3 0 0 0 .246.022c.134 0 .24-.022.318-.065.079-.042.118-.115.118-.217a.208.208 0 0 0-.04-.133.238.238 0 0 0-.1-.078.613.613 0 0 0-.15-.05 6.584 6.584 0 0 1-.407-.09.815.815 0 0 1-.206-.089.486.486 0 0 1-.15-.153.486.486 0 0 1-.058-.25c0-.167.065-.298.193-.393.131-.095.313-.143.547-.143.13 0 .246.013.346.04.103.025.181.054.236.085v.282a.843.843 0 0 0-.232-.1 1.146 1.146 0 0 0-.34-.043.743.743 0 0 0-.325.057c-.073.038-.11.108-.11.208 0 .05.01.09.032.121.021.029.05.052.086.071.038.017.08.03.128.04l.15.032c.081.016.164.034.25.053.086.02.162.05.229.09a.477.477 0 0 1 .236.436.513.513 0 0 1-.065.267.492.492 0 0 1-.171.172.73.73 0 0 1-.24.085c-.088.02-.178.029-.271.029zM8.468 13.057a.997.997 0 0 1-.422.172 1.149 1.149 0 0 1-.232.021c-.312 0-.549-.085-.71-.254-.163-.169-.244-.405-.244-.71 0-.15.022-.285.065-.404a.867.867 0 0 1 .185-.3.772.772 0 0 1 .279-.19.89.89 0 0 1 .35-.067c.133 0 .252.023.357.068.105.045.19.112.257.2.07.088.116.197.14.328.026.129.026.279 0 .45H7.185c.012.2.072.35.18.45.106.098.266.147.478.147a1 1 0 0 0 .367-.06c.103-.041.189-.085.258-.133v.282zm-.736-1.453a.521.521 0 0 0-.35.125c-.098.083-.16.21-.186.378h.997c.01-.171-.03-.297-.118-.378a.478.478 0 0 0-.343-.125zM9.804 11.675a.964.964 0 0 0-.364.104.515.515 0 0 0-.24.257v1.178h-.314v-1.853h.275l.033.403H9.2a.838.838 0 0 1 .225-.285.715.715 0 0 1 .378-.154v.35zM11.161 13.214h-.507l-.636-1.853h.34l.564 1.685.56-1.685h.315l-.636 1.853zM13.528 13.057a.998.998 0 0 1-.421.172 1.15 1.15 0 0 1-.232.021c-.312 0-.55-.085-.711-.254-.162-.169-.243-.405-.243-.71 0-.15.022-.285.064-.404a.867.867 0 0 1 .186-.3.772.772 0 0 1 .279-.19.89.89 0 0 1 .35-.067c.133 0 .252.023.357.068.105.045.19.112.257.2.07.088.116.197.14.328.025.129.025.279 0 .45h-1.308c.012.2.072.35.179.45.107.098.266.147.478.147a1 1 0 0 0 .368-.06c.102-.041.188-.085.257-.133v.282zm-.735-1.453a.521.521 0 0 0-.35.125c-.098.083-.16.21-.186.378h.996c.01-.171-.03-.297-.118-.378a.478.478 0 0 0-.342-.125zM14.865 11.675a.964.964 0 0 0-.364.104.515.515 0 0 0-.24.257v1.178h-.314v-1.853h.275l.032.403h.007a.838.838 0 0 1 .225-.285.715.715 0 0 1 .379-.154v.35zM5.907 8.196l-.614 1.411h-.454l-.596-1.432V10h-.454V7.44h.668l.646 1.62.704-1.62h.61V10h-.51V8.196zM7.667 10.036a1.744 1.744 0 0 1-.514-.075 1.266 1.266 0 0 1-.178-.072 1.893 1.893 0 0 1-.133-.082V9.38a.942.942 0 0 0 .34.157c.071.021.147.039.228.053.081.015.163.022.247.022.16 0 .287-.022.382-.065.095-.042.143-.121.143-.235a.278.278 0 0 0-.04-.154.302.302 0 0 0-.11-.1.814.814 0 0 0-.175-.068 4.876 4.876 0 0 0-.222-.057 2.911 2.911 0 0 1-.285-.082.946.946 0 0 1-.258-.136.7.7 0 0 1-.189-.218.732.732 0 0 1-.071-.342c0-.122.023-.229.071-.322a.627.627 0 0 1 .204-.236.947.947 0 0 1 .318-.139 1.65 1.65 0 0 1 .421-.05 1.46 1.46 0 0 1 .693.154v.428a.996.996 0 0 0-.282-.114 1.583 1.583 0 0 0-.39-.043c-.178 0-.31.025-.396.075a.228.228 0 0 0-.129.21c0 .058.013.106.04.144a.345.345 0 0 0 .11.089.8.8 0 0 0 .158.06l.196.047c.1.024.2.051.3.082a.95.95 0 0 1 .275.132.644.644 0 0 1 .196.225.7.7 0 0 1 .079.354.698.698 0 0 1-.318.625.954.954 0 0 1-.328.125 2.02 2.02 0 0 1-.383.036zM10.573 10.036a1.745 1.745 0 0 1-.515-.075 1.265 1.265 0 0 1-.178-.072 1.89 1.89 0 0 1-.132-.082V9.38a.941.941 0 0 0 .339.157c.071.021.148.039.229.053.08.015.163.022.246.022.16 0 .287-.022.382-.065.095-.042.143-.121.143-.235a.278.278 0 0 0-.04-.154.301.301 0 0 0-.11-.1.812.812 0 0 0-.175-.068 4.833 4.833 0 0 0-.222-.057 2.914 2.914 0 0 1-.285-.082.946.946 0 0 1-.257-.136.7.7 0 0 1-.19-.218.732.732 0 0 1-.071-.342c0-.122.024-.229.071-.322a.627.627 0 0 1 .204-.236.947.947 0 0 1 .318-.139 1.65 1.65 0 0 1 .421-.05 1.459 1.459 0 0 1 .693.154v.428a.997.997 0 0 0-.282-.114 1.582 1.582 0 0 0-.39-.043c-.178 0-.31.025-.396.075a.228.228 0 0 0-.128.21c0 .058.013.106.039.144a.345.345 0 0 0 .11.089.8.8 0 0 0 .158.06l.196.047c.1.024.2.051.3.082a.948.948 0 0 1 .275.132.644.644 0 0 1 .197.225c.052.09.078.209.078.354a.698.698 0 0 1-.318.625.954.954 0 0 1-.328.125 2.02 2.02 0 0 1-.382.036zM14.172 10.532a13.623 13.623 0 0 1-.829-.257 8.636 8.636 0 0 1-.664-.26 2.092 2.092 0 0 1-.36-.204 1.257 1.257 0 0 1-.269-.272 1.182 1.182 0 0 1-.168-.353 1.652 1.652 0 0 1-.057-.454c0-.214.033-.403.097-.568.064-.164.152-.302.264-.414.112-.112.244-.196.396-.254.153-.06.318-.089.497-.089.174 0 .337.029.49.086a1.117 1.117 0 0 1 .667.653c.067.162.1.35.1.565 0 .147-.015.285-.046.414a1.044 1.044 0 0 1-.41.625c-.108.079-.24.142-.398.19.148.035.295.064.44.085.147.024.287.044.418.06l-.168.447zm-1.093-.921a.867.867 0 0 0 .29-.047.597.597 0 0 0 .228-.153.741.741 0 0 0 .15-.275c.038-.115.057-.253.057-.415 0-.161-.02-.298-.057-.41a.706.706 0 0 0-.15-.275.548.548 0 0 0-.229-.154.811.811 0 0 0-.29-.05.8.8 0 0 0-.285.05.548.548 0 0 0-.228.154.74.74 0 0 0-.154.275 1.362 1.362 0 0 0-.053.41c0 .162.017.3.053.415a.78.78 0 0 0 .154.275c.064.069.14.12.228.153a.856.856 0 0 0 .286.047zM16.345 10H14.72V7.44h.51v2.135h1.115V10z" fill="#fff"/><rect x="12" y="12" width="8" height="8" rx="4" fill="#9A32A6"/><path d="M15.153 17.356a.812.812 0 0 0-.206-1.073.813.813 0 0 1 .01-1.307L17.677 13 16.6 15.008a.812.812 0 0 0 .229 1.033.812.812 0 0 1-.033 1.323L14 19.25l1.153-1.894z" fill="#fff"/></svg>