<svg width="20" height="20" viewBox="0 0 20 20" fill="none" xmlns="http://www.w3.org/2000/svg"><path opacity=".01" fill="#fff" d="M0 0h20v20H0z"/><path d="M10 18.571A8.571 8.571 0 1 0 10 1.43a8.571 8.571 0 0 0 0 17.142Z" fill="url(#a)"/><g clip-path="url(#b)"><mask id="c" style="mask-type:alpha" maskUnits="userSpaceOnUse" x="1" y="1" width="18" height="18"><path d="M10 18.571A8.571 8.571 0 1 0 10 1.43a8.571 8.571 0 0 0 0 17.142Z" fill="#fff"/></mask><g mask="url(#c)"><path d="M18.571 1.429H1.43V18.57H18.57V1.43Z" fill="url(#d)"/><path fill-rule="evenodd" clip-rule="evenodd" d="M8.473 18.571H1.429v-.014l10.333-9.483-4.416 1.073a2.266 2.266 0 0 1-2.75-1.7A2.338 2.338 0 0 1 6.316 5.66l12.254-2.978v13.726l-.646 1.925c-.028.082-.06.162-.096.238h-4.21a2.265 2.265 0 0 1-.076-1.648l1.46-4.345-6.53 5.993Z" fill="url(#e)"/><path fill-rule="evenodd" clip-rule="evenodd" d="M8.473 18.571H1.429v-.014l10.333-9.483-4.416 1.073a2.266 2.266 0 0 1-2.75-1.7A2.338 2.338 0 0 1 6.316 5.66l12.254-2.978v13.726l-.646 1.925c-.028.082-.06.162-.096.238h-4.21a2.265 2.265 0 0 1-.076-1.648l1.46-4.345-6.53 5.993Z" fill="url(#f)"/></g></g><rect x="12" y="12" width="8" height="8" rx="4" fill="#9A32A6"/><path d="M15.153 17.356a.813.813 0 0 0-.206-1.073.812.812 0 0 1 .01-1.307L17.677 13 16.6 15.008a.812.812 0 0 0 .229 1.033.812.812 0 0 1-.033 1.323L14 19.25l1.153-1.894Z" fill="#fff"/><defs><linearGradient id="a" x1="18.571" y1="1.429" x2="1.429" y2="18.571" gradientUnits="userSpaceOnUse"><stop stop-color="#C4DE99"/><stop offset="1" stop-color="#82BA23"/></linearGradient><linearGradient id="d" x1="18.571" y1="17.833" x2="-8.286" y2="-7.095" gradientUnits="userSpaceOnUse"><stop offset=".01" stop-color="#3E3BA0"/><stop offset="1" stop-color="#498BFF"/></linearGradient><linearGradient id="e" x1="48.154" y1="24.304" x2="-6.733" y2="30.76" gradientUnits="userSpaceOnUse"><stop stop-color="#FFB800"/><stop offset="1" stop-color="#FFF11D"/></linearGradient><linearGradient id="f" x1="1.429" y1="16.904" x2="42.928" y2="-5.238" gradientUnits="userSpaceOnUse"><stop stop-color="#FFF11D"/><stop offset="1" stop-color="#FFB800"/></linearGradient><clipPath id="b"><path fill="#fff" transform="translate(1.429 1.429)" d="M0 0h17.143v17.143H0z"/></clipPath></defs></svg>