<svg width="16" height="16" viewBox="0 0 16 16" xmlns="http://www.w3.org/2000/svg"><path fill-rule="evenodd" clip-rule="evenodd" d="M14.665 8A6.667 6.667 0 1 1 1.332 8a6.667 6.667 0 0 1 13.333 0zm-1.333 0A5.333 5.333 0 1 1 2.665 8a5.333 5.333 0 0 1 10.667 0zM7.64 11.669c-.683 0-.908-.418-.908-.806 0-.163.051-.408.092-.55l.714-3.075h-.73a.25.25 0 0 1-.244-.307l.01-.04a.35.35 0 0 1 .28-.265l1.565-.276a.5.5 0 0 1 .573.61l-.9 3.74a.126.126 0 0 0 .22.11l.777-.95a.215.215 0 0 1 .343.257l-.466.675c-.49.714-.938.877-1.326.877zm.225-6.575c0 .337.265.623.735.623.459 0 .795-.255.897-.663.02-.082.03-.174.03-.245 0-.337-.264-.622-.734-.622-.448 0-.795.255-.897.663-.02.081-.03.173-.03.244z" fill="currentColor"/></svg>
