<svg width="202" height="180" viewBox="0 0 202 180" fill="none" xmlns="http://www.w3.org/2000/svg">
<path d="M197.821 120.154H195.216V89.8148C195.216 87.5353 193.371 85.69 191.091 85.69H157.441L157.496 5.14727C157.496 5.03872 157.387 4.93018 157.279 4.93018H103.384C92.6924 4.93018 91.4984 10.9003 91.4984 17.4132V96.9247H77.7128V67.7253C77.7128 65.7171 76.0845 64.1432 74.1307 64.1432H23.113C21.1049 64.1432 19.531 65.7714 19.531 67.7253V120.1H16.4373C14.1578 120.1 12.3125 121.945 12.3125 124.225V140.453C12.3125 142.732 14.1578 144.577 16.4373 144.577H197.876C200.155 144.577 202 142.732 202 140.453V124.225C201.946 121.999 200.101 120.154 197.821 120.154Z" fill="#ECF2F9"/>
<path fill-rule="evenodd" clip-rule="evenodd" d="M57.3053 170.9H8.0787C4.7137 170.9 2 168.186 2 164.821V106.802C2 103.437 4.7137 100.724 8.0787 100.724H57.3053C60.6703 100.724 63.384 103.437 63.384 106.802V164.821C63.384 168.186 60.6703 170.9 57.3053 170.9Z" stroke="#00E6C5" stroke-width="4" stroke-linecap="round" stroke-linejoin="round" stroke-dasharray="4 10"/>
<path d="M12.9637 111.366C12.0361 110.767 10.798 111.032 10.1983 111.96C9.59866 112.888 9.86452 114.126 10.7921 114.725L12.9637 111.366ZM22.6242 119.993L23.7237 121.664C24.2883 121.292 24.627 120.661 24.6242 119.985C24.6214 119.309 24.2775 118.68 23.71 118.313L22.6242 119.993ZM10.8869 125.324C9.96427 125.931 9.70859 127.171 10.3158 128.094C10.9231 129.017 12.1634 129.272 13.086 128.665L10.8869 125.324ZM27.1289 133.678C26.0244 133.678 25.1289 134.574 25.1289 135.678C25.1289 136.783 26.0244 137.678 27.1289 137.678V133.678ZM38.418 137.678C39.5225 137.678 40.418 136.783 40.418 135.678C40.418 134.574 39.5225 133.678 38.418 133.678V137.678ZM10.7921 114.725L21.5384 121.673L23.71 118.313L12.9637 111.366L10.7921 114.725ZM21.5247 118.322L10.8869 125.324L13.086 128.665L23.7237 121.664L21.5247 118.322ZM27.1289 137.678H38.418V133.678H27.1289V137.678Z" fill="#00E6C5"/>
<path d="M179.856 15.0269L179.096 14.2671H178.011" stroke="#00E6C5" stroke-width="4" stroke-linecap="round" stroke-linejoin="round"/>
<path d="M172.529 14.2671H108.486C105.501 14.2671 103.059 16.7094 103.059 19.6945V129.925C103.059 132.91 105.501 135.353 108.486 135.353H190.711C193.696 135.353 196.139 132.91 196.139 129.925V31.3092L181.756 16.9808" stroke="#00E6C5" stroke-width="4" stroke-linecap="round" stroke-linejoin="round" stroke-dasharray="4.01 10.02"/>
<path d="M179.097 14.2671V15.3526" stroke="#00E6C5" stroke-width="4" stroke-linecap="round" stroke-linejoin="round"/>
<path d="M179.097 21.1597V27.2926C179.097 29.5179 180.888 31.3089 183.113 31.3089H192.122" stroke="#00E6C5" stroke-width="4" stroke-linecap="round" stroke-linejoin="round" stroke-dasharray="4.27 10.68"/>
<path d="M194.999 31.308H196.085" stroke="#00E6C5" stroke-width="4" stroke-linecap="round" stroke-linejoin="round"/>
<path d="M36.0303 156.465L37.2786 50.3044C37.3329 46.1253 40.2637 42.7603 43.7372 42.9232L163.412 49.1647C165.908 49.2732 167.862 51.3899 167.862 53.9408V151.363L36.0303 156.465Z" fill="#DEB700"/>
<path d="M115.867 58.8799C116.464 55.6235 119.612 53.0726 122.869 53.2354L183.004 55.8948C185.989 56.0034 187.943 58.6085 187.346 61.7022L171.281 150.82C170.738 153.86 167.862 156.41 164.877 156.573L41.6745 161.675C37.9839 161.838 35.4873 159.178 36.0843 155.813L50.9554 68.9206C51.5524 65.5014 54.9717 62.7876 58.608 62.9505L108.703 64.6872C112.177 64.6872 115.867 58.8799 115.867 58.8799Z" fill="#FFCC00"/>
<path d="M47.1477 2C47.1477 0.89543 46.2523 0 45.1477 0C44.0432 0 43.1477 0.89543 43.1477 2H47.1477ZM43.1477 7.8616C43.1477 8.96617 44.0432 9.8616 45.1477 9.8616C46.2523 9.8616 47.1477 8.96617 47.1477 7.8616H43.1477ZM47.1477 20.1819C47.1477 19.0774 46.2523 18.1819 45.1477 18.1819C44.0432 18.1819 43.1477 19.0774 43.1477 20.1819H47.1477ZM43.1477 26.532C43.1477 27.6366 44.0432 28.532 45.1477 28.532C46.2523 28.532 47.1477 27.6366 47.1477 26.532H43.1477ZM57.4137 16.2668C58.5183 16.2668 59.4137 15.3714 59.4137 14.2668C59.4137 13.1622 58.5183 12.2668 57.4137 12.2668V16.2668ZM51.4979 12.2668C50.3933 12.2668 49.4979 13.1622 49.4979 14.2668C49.4979 15.3714 50.3933 16.2668 51.4979 16.2668V12.2668ZM38.7434 16.2668C39.848 16.2668 40.7434 15.3714 40.7434 14.2668C40.7434 13.1622 39.848 12.2668 38.7434 12.2668V16.2668ZM32.8818 12.2668C31.7773 12.2668 30.8818 13.1622 30.8818 14.2668C30.8818 15.3714 31.7773 16.2668 32.8818 16.2668V12.2668ZM43.1477 2V7.8616H47.1477V2H43.1477ZM43.1477 20.1819V26.532H47.1477V20.1819H43.1477ZM57.4137 12.2668H51.4979V16.2668H57.4137V12.2668ZM38.7434 12.2668H32.8818V16.2668H38.7434V12.2668Z" fill="#2EE5C0"/>
<path d="M187.609 164.55C187.609 163.445 186.714 162.55 185.609 162.55C184.505 162.55 183.609 163.445 183.609 164.55H187.609ZM183.609 167.589C183.609 168.694 184.505 169.589 185.609 169.589C186.714 169.589 187.609 168.694 187.609 167.589H183.609ZM187.609 173.992C187.609 172.888 186.714 171.992 185.609 171.992C184.505 171.992 183.609 172.888 183.609 173.992H187.609ZM183.609 177.303C183.609 178.408 184.505 179.303 185.609 179.303C186.714 179.303 187.609 178.408 187.609 177.303H183.609ZM192.014 172.9C193.118 172.9 194.014 172.005 194.014 170.9C194.014 169.795 193.118 168.9 192.014 168.9V172.9ZM188.92 168.9C187.816 168.9 186.92 169.795 186.92 170.9C186.92 172.005 187.816 172.9 188.92 172.9V168.9ZM182.299 172.9C183.403 172.9 184.299 172.005 184.299 170.9C184.299 169.795 183.403 168.9 182.299 168.9V172.9ZM179.205 168.9C178.101 168.9 177.205 169.795 177.205 170.9C177.205 172.005 178.101 172.9 179.205 172.9V168.9ZM183.609 164.55V167.589H187.609V164.55H183.609ZM183.609 173.992V177.303H187.609V173.992H183.609ZM192.014 168.9H188.92V172.9H192.014V168.9ZM182.299 168.9H179.205V172.9H182.299V168.9Z" fill="#2EE5C0"/>
</svg>
