<svg xmlns="http://www.w3.org/2000/svg" width="28" height="28" fill="none"><path fill="currentColor" fill-opacity="currentOpacity" fill-rule="evenodd" d="M18.5 10c0 .174-.071.513-.885.887-.816.377-2.077.613-3.615.613-1.538 0-2.799-.236-3.615-.613-.814-.374-.885-.713-.885-.887 0-.174.071-.513.885-.888C11.2 8.737 12.462 8.5 14 8.5c1.538 0 2.799.237 3.615.612.814.375.885.714.885.888Zm-1.448 2.66c-.894.227-1.938.34-3.052.34s-2.158-.113-3.052-.34l1.98 2.905c.21.308.322.672.322 1.044v3.37c.06.012.141.021.25.021.422 0 .749-.14.95-.316a.86.86 0 0 0 .3-.684v-2.39c0-.373.112-.737.322-1.045l1.98-2.904ZM14 7c3.314 0 6 1 6 3 0 .652-.196 1.288-.563 1.826L16.31 16.41a.354.354 0 0 0-.061.2V19c0 1.5-1.25 2.5-2.75 2.5s-1.75-1-1.75-1v-3.89a.354.354 0 0 0-.062-.2l-3.125-4.584A3.242 3.242 0 0 1 8 10c0-2 2.686-3 6-3Zm-.88 12.936c-.01-.005-.013-.009-.013-.01l.013.01Z" clip-rule="evenodd"/><path fill="currentColor" stroke="#F2F2F2" stroke-linejoin="round" stroke-width="1.222" d="m23.14 6.86-.432.432.431-.431c-.629-.63-1.649-.63-2.278 0l.432.432-.432-.432-.861.86-.86-.86a1.611 1.611 0 1 0-2.28 2.278l.861.861-.86.86.432.433-.432-.432a1.611 1.611 0 1 0 2.278 2.278l.861-.86.86.86.433-.432-.432.432a1.611 1.611 0 0 0 2.278-2.278l-.416.416.416-.416-.86-.861.86-.86c.63-.63.63-1.65 0-2.28Z"/></svg>