<svg width="18" height="18" viewBox="0 0 18 18" fill="none" xmlns="http://www.w3.org/2000/svg">
	<path fill-rule="evenodd" clip-rule="evenodd" d="M7.54003 3.38992L9 3.93741V2.68417C9 1.1132 10.5691 0.0258217 12.04 0.577424L15.81 1.99118C17.1273 2.48516 18 3.74444 18 5.15129V9.69066C18 11.2616 16.4309 12.349 14.96 11.7974L13.5 11.2499V12.5032C13.5 14.0741 11.9309 15.1615 10.46 14.6099L9 14.0624V15.3157C9 16.8867 7.43091 17.974 5.95997 17.4224L2.18996 16.0087C0.872683 15.5147 0 14.2554 0 12.8486V8.30921C0 6.73824 1.56909 5.65086 3.04003 6.20246L4.5 6.74995V5.49667C4.5 3.9257 6.06909 2.83832 7.54003 3.38992ZM6.1875 7.38277L6.81004 7.61622C8.12732 8.1102 9 9.36948 9 10.7763V12.2602L11.0525 13.0298C11.4202 13.1677 11.8125 12.8959 11.8125 12.5032V7.96379C11.8125 7.26037 11.3762 6.63072 10.7175 6.38374L6.94751 4.96998C6.57977 4.83208 6.1875 5.10392 6.1875 5.49667V7.38277ZM11.31 4.80368L10.6875 4.57023V2.68417C10.6875 2.29142 11.0798 2.01958 11.4475 2.15748L15.2175 3.57124C15.8762 3.81822 16.3125 4.44787 16.3125 5.15129V9.69066C16.3125 10.0834 15.9202 10.3552 15.5525 10.2173L13.5 9.44766V7.96379C13.5 6.55694 12.6273 5.29766 11.31 4.80368ZM1.6875 12.8486V8.30921C1.6875 7.91646 2.07977 7.64462 2.44751 7.78252L6.21752 9.19628C6.87616 9.44326 7.3125 10.0729 7.3125 10.7763V15.3157C7.3125 15.7084 6.92023 15.9803 6.55249 15.8424L2.78248 14.4286C2.12384 14.1816 1.6875 13.552 1.6875 12.8486Z" fill="currentColor"/>
</svg>
