<svg xmlns="http://www.w3.org/2000/svg" width="16" height="16"><path fill-rule="evenodd" d="M4.5 3h7c.8284 0 1.5.67157 1.5 1.5v7c0 .8284-.6716 1.5-1.5 1.5h-7c-.82843 0-1.5-.6716-1.5-1.5v-7C3 3.67157 3.67157 3 4.5 3Zm-3 1.5c0-1.65685 1.34315-3 3-3h7c1.6569 0 3 1.34315 3 3v7c0 1.6569-1.3431 3-3 3h-7c-1.65685 0-3-1.3431-3-3v-7Z" clip-rule="evenodd"/><rect width="1.5" height="6.5" x="4" y="4.75" rx=".75"/><path fill-rule="evenodd" d="M6.5 5.5c0-.41421.33579-.75.75-.75h1.5C10.5449 4.75 12 6.20507 12 8s-1.4551 3.25-3.25 3.25h-1.5c-.41421 0-.75-.3358-.75-.75v-5Zm1.5.75v3.5h.75c.9665 0 1.75-.7835 1.75-1.75s-.7835-1.75-1.75-1.75H8Z" clip-rule="evenodd"/></svg>