<svg xmlns="http://www.w3.org/2000/svg" width="16" height="16" viewBox="0 0 16 16"><path fill-rule="evenodd" d="M4.5 3h7A1.5 1.5 0 0 1 13 4.5v7a1.5 1.5 0 0 1-1.5 1.5h-7A1.5 1.5 0 0 1 3 11.5v-7A1.5 1.5 0 0 1 4.5 3m-3 1.5a3 3 0 0 1 3-3h7a3 3 0 0 1 3 3v7a3 3 0 0 1-3 3h-7a3 3 0 0 1-3-3z" clip-rule="evenodd"/><rect width="1.5" height="6.5" x="4" y="4.75" rx=".75"/><path fill-rule="evenodd" d="M6.5 5.5a.75.75 0 0 1 .75-.75h1.5a3.25 3.25 0 0 1 0 6.5h-1.5a.75.75 0 0 1-.75-.75zm1.5.75v3.5h.75a1.75 1.75 0 1 0 0-3.5z" clip-rule="evenodd"/></svg>