<svg width="16" height="16" viewBox="0 0 16 16" fill="none" xmlns="http://www.w3.org/2000/svg">
<path d="M2.51562 13.2729L12.332 13.2729L12.332 2.72705L2.51562 2.72705C2.10156 2.72688 1.76562 2.39116 1.76562 1.97705C1.76563 1.56294 2.10156 1.22722 2.51562 1.22705L13.832 1.22705L13.832 14.7729L2.51562 14.7729C2.10156 14.7728 1.76562 14.4371 1.76562 14.0229C1.76562 13.6088 2.10156 13.2731 2.51562 13.2729Z" fill="currentColor" fill-opacity="0.85"/>
<path d="M4.11864 7.25061C4.53285 7.25061 4.86864 7.5864 4.86864 8.00061C4.86864 8.41482 4.53285 8.75061 4.11864 8.75061L2.49364 8.75061C2.07942 8.75061 1.74364 8.41482 1.74364 8.00061C1.74364 7.5864 2.07942 7.25061 2.49364 7.25061L4.11864 7.25061ZM8.99364 7.25061C9.40785 7.25061 9.74364 7.5864 9.74364 8.00061C9.74364 8.41482 9.40785 8.75061 8.99364 8.75061L7.36864 8.75061C6.95442 8.75061 6.61864 8.41482 6.61864 8.00061C6.61864 7.5864 6.95442 7.25061 7.36864 7.25061L8.99364 7.25061Z" fill="currentColor" fill-opacity="0.85"/>
</svg>
