<svg width="16" height="16" viewBox="0 0 16 16" fill="none" xmlns="http://www.w3.org/2000/svg">
<path d="M2.51562 13.2838C3.88804 13.2838 5.15658 13.3323 6.38867 13.2995C7.60576 13.2671 8.67268 13.1545 9.55566 12.862C10.4215 12.5751 11.0873 12.1239 11.5498 11.4137C12.0204 10.691 12.332 9.62148 12.332 8.0104C12.332 6.33738 12.0292 5.23949 11.5703 4.50747C11.1226 3.79348 10.4793 3.35374 9.63379 3.08169C8.76697 2.80282 7.70997 2.70816 6.48047 2.69204C5.20688 2.67536 3.97078 2.73794 2.51562 2.73794C2.10165 2.73777 1.76578 2.40192 1.76562 1.98794C1.76562 1.57383 2.10156 1.23811 2.51562 1.23794C3.81357 1.23794 5.27624 1.17601 6.5 1.19204C7.76745 1.20865 9.00757 1.3035 10.0937 1.65298C11.2014 2.00939 12.1678 2.63735 12.8408 3.7106C13.5024 4.76574 13.832 6.17496 13.832 8.0104C13.832 9.80188 13.4868 11.1875 12.8066 12.2321C12.1184 13.2889 11.1385 13.9176 10.0273 14.2858C8.9332 14.6483 7.69077 14.7659 6.42871 14.7995C5.18155 14.8327 3.80024 14.7838 2.51562 14.7838C2.10165 14.7837 1.76578 14.4478 1.76562 14.0338C1.76562 13.6197 2.10156 13.284 2.51562 13.2838Z" fill="currentColor" fill-opacity="0.85"/>
<path d="M4.11863 7.25061C4.53284 7.25061 4.86863 7.5864 4.86863 8.00061C4.86863 8.41482 4.53284 8.75061 4.11863 8.75061L2.49363 8.75061C2.07942 8.75061 1.74363 8.41482 1.74363 8.00061C1.74363 7.5864 2.07942 7.25061 2.49363 7.25061L4.11863 7.25061ZM8.99363 7.25061C9.40784 7.25061 9.74363 7.5864 9.74363 8.00061C9.74363 8.41482 9.40784 8.75061 8.99363 8.75061L7.36863 8.75061C6.95442 8.75061 6.61863 8.41482 6.61863 8.00061C6.61863 7.5864 6.95442 7.25061 7.36863 7.25061L8.99363 7.25061Z" fill="currentColor" fill-opacity="0.85"/>
</svg>
