<svg width="218" height="24" viewBox="0 0 218 24" fill="none" xmlns="http://www.w3.org/2000/svg">
    <path
        d="M30.232 12.024V19.064C30.232 20.3653 30.296 21.6773 30.424 23H26.712C26.5627 22.616 26.4667 22.1893 26.424 21.72H26.264C25.9013 22.104 25.432 22.456 24.856 22.776C24.3013 23.0747 23.4587 23.224 22.328 23.224C20.856 23.224 19.6613 22.7867 18.744 21.912C17.848 21.016 17.4 19.7573 17.4 18.136C17.4 16.4933 18.072 15.224 19.416 14.328C20.7813 13.4107 22.9147 12.952 25.816 12.952H26.424V12.056C26.424 11.1813 26.2107 10.5733 25.784 10.232C25.3573 9.86933 24.6853 9.688 23.768 9.688C23.128 9.688 22.4667 9.77333 21.784 9.944C21.1013 10.0933 20.472 10.296 19.896 10.552C19.3413 10.7867 18.8933 11.032 18.552 11.288V8.12C19.128 7.77867 19.896 7.448 20.856 7.128C21.8373 6.808 22.9573 6.648 24.216 6.648C26.2427 6.648 27.7467 7.05333 28.728 7.864C29.7307 8.67467 30.232 10.0613 30.232 12.024ZM26.424 19.16V15.672H25.88C24.2587 15.672 23.0853 15.864 22.36 16.248C21.656 16.6107 21.304 17.2507 21.304 18.168C21.304 18.8507 21.5067 19.4053 21.912 19.832C22.3173 20.2373 22.9147 20.44 23.704 20.44C24.3867 20.44 24.952 20.312 25.4 20.056C25.848 19.8 26.1893 19.5013 26.424 19.16ZM37.144 11.448V23H33.336V6.904H37.048L37.144 8.248H37.336C37.72 7.864 38.264 7.50133 38.968 7.16C39.672 6.81867 40.5893 6.648 41.72 6.648C43.2773 6.648 44.3973 7.02133 45.08 7.768C45.7627 8.49333 46.104 9.656 46.104 11.256V23H42.296V11.64C42.296 10.4453 41.6453 9.848 40.344 9.848C39.6613 9.848 39.0427 10.008 38.488 10.328C37.9547 10.648 37.5067 11.0213 37.144 11.448ZM54.744 23.32C52.952 23.32 51.4907 22.6053 50.36 21.176C49.2293 19.7467 48.664 17.7093 48.664 15.064C48.664 12.376 49.24 10.296 50.392 8.824C51.5653 7.33067 53.0693 6.584 54.904 6.584C56.6107 6.584 57.9547 7.32 58.936 8.792V0.759998H62.744V23H59.224L59.032 20.92C58.008 22.52 56.5787 23.32 54.744 23.32ZM55.864 9.592C54.776 9.592 53.9547 10.0293 53.4 10.904C52.8667 11.7787 52.6 13.1653 52.6 15.064C52.6 16.8773 52.856 18.2107 53.368 19.064C53.88 19.896 54.6587 20.312 55.704 20.312C56.7707 20.312 57.5707 19.8853 58.104 19.032C58.6587 18.1787 58.936 16.8133 58.936 14.936C58.936 13.08 58.68 11.7253 58.168 10.872C57.656 10.0187 56.888 9.592 55.864 9.592ZM78.136 21.912C77.5813 22.296 76.856 22.6267 75.96 22.904C75.064 23.1813 74.008 23.32 72.792 23.32C70.36 23.32 68.4827 22.6373 67.16 21.272C65.8373 19.8853 65.176 17.7947 65.176 15C65.176 13.3787 65.4213 11.9387 65.912 10.68C66.424 9.4 67.1813 8.39733 68.184 7.672C69.208 6.94667 70.488 6.584 72.024 6.584C73.304 6.584 74.4133 6.84 75.352 7.352C76.2907 7.864 77.016 8.68533 77.528 9.816C78.04 10.9253 78.296 12.4187 78.296 14.296V16.312H69.112C69.1973 17.656 69.5387 18.6587 70.136 19.32C70.7333 19.9813 71.7253 20.312 73.112 20.312C74.0507 20.312 74.968 20.1627 75.864 19.864C76.7813 19.5653 77.5387 19.2133 78.136 18.808V21.912ZM71.96 9.592C70.168 9.592 69.2187 10.8933 69.112 13.496H74.424V13.176C74.424 12.1733 74.2427 11.3307 73.88 10.648C73.5387 9.944 72.8987 9.592 71.96 9.592ZM89.848 23L86.424 17.56L83.192 23H79.32L84.376 14.616L79.512 6.904H83.8L86.872 11.768L89.624 6.904H93.432L88.888 14.712L94.136 23H89.848ZM11.768 23H7.896V16.632L0.6 0.759998H4.632L10.328 13.176C10.6907 13.9653 10.9787 14.6373 11.192 15.192C11.4053 15.7253 11.5547 16.2907 11.64 16.888C11.7253 17.4853 11.768 18.264 11.768 19.224V23ZM14.296 11.512H10.36L15.096 0.759998H19.032L14.296 11.512ZM103.1 0.759998H108.316C110.279 0.759998 112.028 1.112 113.564 1.816C115.1 2.49866 116.316 3.65067 117.212 5.272C118.108 6.872 118.556 9.03733 118.556 11.768C118.556 14.2 118.097 16.248 117.18 17.912C116.284 19.576 115.036 20.8453 113.436 21.72C111.857 22.5733 110.044 23 107.996 23H103.1V0.759998ZM107.676 19.992C109.767 19.992 111.441 19.2987 112.7 17.912C113.98 16.5253 114.62 14.456 114.62 11.704C114.62 9.69867 114.332 8.12 113.756 6.968C113.201 5.816 112.423 4.99467 111.42 4.504C110.439 4.01333 109.297 3.768 107.996 3.768H106.972V19.992H107.676ZM133.163 12.024V19.064C133.163 20.3653 133.227 21.6773 133.355 23H129.643C129.494 22.616 129.398 22.1893 129.355 21.72H129.195C128.833 22.104 128.363 22.456 127.787 22.776C127.233 23.0747 126.39 23.224 125.259 23.224C123.787 23.224 122.593 22.7867 121.675 21.912C120.779 21.016 120.331 19.7573 120.331 18.136C120.331 16.4933 121.003 15.224 122.347 14.328C123.713 13.4107 125.846 12.952 128.747 12.952H129.355V12.056C129.355 11.1813 129.142 10.5733 128.715 10.232C128.289 9.86933 127.617 9.688 126.699 9.688C126.059 9.688 125.398 9.77333 124.715 9.944C124.033 10.0933 123.403 10.296 122.827 10.552C122.273 10.7867 121.825 11.032 121.483 11.288V8.12C122.059 7.77867 122.827 7.448 123.787 7.128C124.769 6.808 125.889 6.648 127.147 6.648C129.174 6.648 130.678 7.05333 131.659 7.864C132.662 8.67467 133.163 10.0613 133.163 12.024ZM129.355 19.16V15.672H128.811C127.19 15.672 126.017 15.864 125.291 16.248C124.587 16.6107 124.235 17.2507 124.235 18.168C124.235 18.8507 124.438 19.4053 124.843 19.832C125.249 20.2373 125.846 20.44 126.635 20.44C127.318 20.44 127.883 20.312 128.331 20.056C128.779 19.8 129.121 19.5013 129.355 19.16ZM134.945 6.904H136.961V3.384H140.769V6.904H144.769V9.912H140.769V18.2C140.769 18.7973 140.961 19.2987 141.345 19.704C141.729 20.1093 142.316 20.312 143.105 20.312C143.745 20.312 144.236 20.2267 144.577 20.056C144.918 19.8853 145.089 19.8 145.089 19.8V22.904C145.089 22.904 144.833 22.968 144.321 23.096C143.83 23.2453 143.116 23.32 142.177 23.32C140.428 23.32 139.116 22.84 138.241 21.88C137.388 20.8987 136.961 19.6613 136.961 18.168V9.912H134.945V6.904ZM159.038 12.024V19.064C159.038 20.3653 159.102 21.6773 159.23 23H155.518C155.369 22.616 155.273 22.1893 155.23 21.72H155.07C154.708 22.104 154.238 22.456 153.662 22.776C153.108 23.0747 152.265 23.224 151.134 23.224C149.662 23.224 148.468 22.7867 147.55 21.912C146.654 21.016 146.206 19.7573 146.206 18.136C146.206 16.4933 146.878 15.224 148.222 14.328C149.588 13.4107 151.721 12.952 154.622 12.952H155.23V12.056C155.23 11.1813 155.017 10.5733 154.59 10.232C154.164 9.86933 153.492 9.688 152.574 9.688C151.934 9.688 151.273 9.77333 150.59 9.944C149.908 10.0933 149.278 10.296 148.702 10.552C148.148 10.7867 147.7 11.032 147.358 11.288V8.12C147.934 7.77867 148.702 7.448 149.662 7.128C150.644 6.808 151.764 6.648 153.022 6.648C155.049 6.648 156.553 7.05333 157.534 7.864C158.537 8.67467 159.038 10.0613 159.038 12.024ZM155.23 19.16V15.672H154.686C153.065 15.672 151.892 15.864 151.166 16.248C150.462 16.6107 150.11 17.2507 150.11 18.168C150.11 18.8507 150.313 19.4053 150.718 19.832C151.124 20.2373 151.721 20.44 152.51 20.44C153.193 20.44 153.758 20.312 154.206 20.056C154.654 19.8 154.996 19.5013 155.23 19.16ZM162.1 0.759998H165.972V19.992H173.748V23H162.1V0.759998ZM187.826 21.912C187.272 22.296 186.546 22.6267 185.65 22.904C184.754 23.1813 183.698 23.32 182.482 23.32C180.05 23.32 178.173 22.6373 176.85 21.272C175.528 19.8853 174.866 17.7947 174.866 15C174.866 13.3787 175.112 11.9387 175.602 10.68C176.114 9.4 176.872 8.39733 177.874 7.672C178.898 6.94667 180.178 6.584 181.714 6.584C182.994 6.584 184.104 6.84 185.042 7.352C185.981 7.864 186.706 8.68533 187.218 9.816C187.73 10.9253 187.986 12.4187 187.986 14.296V16.312H178.802C178.888 17.656 179.229 18.6587 179.826 19.32C180.424 19.9813 181.416 20.312 182.802 20.312C183.741 20.312 184.658 20.1627 185.554 19.864C186.472 19.5653 187.229 19.2133 187.826 18.808V21.912ZM181.65 9.592C179.858 9.592 178.909 10.8933 178.802 13.496H184.114V13.176C184.114 12.1733 183.933 11.3307 183.57 10.648C183.229 9.944 182.589 9.592 181.65 9.592ZM194.346 11.448V23H190.538V6.904H194.25L194.346 8.248H194.538C194.922 7.864 195.466 7.50133 196.17 7.16C196.874 6.81867 197.791 6.648 198.922 6.648C200.479 6.648 201.599 7.02133 202.282 7.768C202.964 8.49333 203.306 9.656 203.306 11.256V23H199.498V11.64C199.498 10.4453 198.847 9.848 197.546 9.848C196.863 9.848 196.244 10.008 195.69 10.328C195.156 10.648 194.708 11.0213 194.346 11.448ZM211.31 23.32C210.073 23.32 209.049 23.192 208.238 22.936C207.427 22.68 206.819 22.4347 206.414 22.2C206.009 21.944 205.806 21.816 205.806 21.816V18.712C205.913 18.7547 206.169 18.9147 206.574 19.192C207.001 19.448 207.566 19.704 208.27 19.96C208.974 20.1947 209.785 20.312 210.702 20.312C212.814 20.312 213.87 19.6933 213.87 18.456C213.87 17.752 213.582 17.2293 213.006 16.888C212.43 16.5467 211.587 16.3013 210.478 16.152C208.921 15.9387 207.737 15.4587 206.926 14.712C206.115 13.944 205.71 12.8453 205.71 11.416C205.71 10.0293 206.233 8.87733 207.278 7.96C208.345 7.04267 209.849 6.584 211.79 6.584C212.857 6.584 213.731 6.65867 214.414 6.808C215.097 6.95733 215.609 7.10667 215.95 7.256C216.291 7.40533 216.462 7.48 216.462 7.48V10.584C216.334 10.4773 215.897 10.2747 215.15 9.976C214.403 9.656 213.411 9.496 212.174 9.496C210.339 9.496 209.422 10.0827 209.422 11.256C209.422 11.768 209.55 12.152 209.806 12.408C210.083 12.664 210.446 12.8453 210.894 12.952C211.342 13.0373 211.833 13.1227 212.366 13.208C213.987 13.4213 215.257 13.912 216.174 14.68C217.091 15.448 217.55 16.536 217.55 17.944C217.55 19.8427 216.985 21.2187 215.854 22.072C214.723 22.904 213.209 23.32 211.31 23.32Z"
        fill="currentColor"/>
</svg>
