<svg xmlns="http://www.w3.org/2000/svg" width="32" height="32" fill="none" viewBox="0 0 48 48"><g clip-path="url(#a)"><rect width="48" height="48" fill="#FF6928" rx="24"/><path fill="#fff" fill-rule="evenodd" d="M11.333 44.667c-15.832 0-28.666-9.253-28.666-20.667 0-11.414 12.834-20.666 28.666-20.666C28.09 3.334 40 12.19 40 24S28.09 44.667 11.333 44.667Zm0-12c-15.255 0-26-3.88-26-8.667s10.745-8.667 26-8.667c15.256 0 26 3.193 26 8.667s-10.744 8.667-26 8.667Z" clip-rule="evenodd"/><path fill="url(#b)" d="M5.095 61.588h30v30.878h-30z" opacity=".3" transform="rotate(-120 5.095 61.588)"/><path fill="url(#c)" d="M-14.905 12.149h30v30.878h-30z" opacity=".3" transform="rotate(-60 -14.905 12.149)"/></g><defs><linearGradient id="b" x1="20.095" x2="20.095" y1="61.588" y2="92.466" gradientUnits="userSpaceOnUse"><stop stop-color="#FF6928"/><stop offset="1" stop-color="#FF6928" stop-opacity="0"/></linearGradient><linearGradient id="c" x1=".095" x2=".095" y1="12.149" y2="43.027" gradientUnits="userSpaceOnUse"><stop stop-color="#FF6928"/><stop offset="1" stop-color="#FF6928" stop-opacity="0"/></linearGradient><clipPath id="a"><rect width="48" height="48" fill="#fff" rx="24"/></clipPath></defs></svg>