<svg xmlns="http://www.w3.org/2000/svg" width="14" height="14" fill="none" viewBox="0 0 14 14"><mask id="a" width="14" height="14" x="0" y="0" maskUnits="userSpaceOnUse" style="mask-type:luminance"><path fill="#fff" d="M14 7A7 7 0 1 0 0 7a7 7 0 0 0 14 0"/></mask><g mask="url(#a)"><path fill="#000" fill-opacity=".5" fill-rule="evenodd" d="M7 0a7 7 0 1 1-3.477 13.075c-4.032-.07-7.28-2.696-7.358-5.951l-.003-.066v-.053c0-3.304 3.27-5.99 7.34-6.068A6.97 6.97 0 0 1 7 0m0 1.18q-.418.001-.82.059c3.04.782 5.031 2.997 5.032 5.766l-.002.033.002.02-.003.048c-.047 2.714-2.013 4.879-5 5.658q.389.054.791.055A5.82 5.82 0 0 0 7 1.181m2.414 8.023c-1.339.613-3.343.947-5.728.947q-.844 0-1.62-.066a5.85 5.85 0 0 0 1.789 1.81c2.704-.045 4.635-1.154 5.559-2.691m-11.435-.088c.738 1.179 2.08 2.147 3.814 2.563A7 7 0 0 1 .63 9.904c-1.042-.18-1.94-.451-2.652-.79m5.707-3.968c-.81 0-1.564.05-2.249.139A5.8 5.8 0 0 0 1.181 7c0 .641.105 1.258.296 1.835a18 18 0 0 0 2.21.134c2.128 0 3.844-.278 4.981-.73 1.162-.462 1.35-.929 1.36-1.16v-.033c-.006-.228-.184-.7-1.36-1.168-1.137-.452-2.853-.73-4.982-.73M.16 5.511a9 9 0 0 0-1.433.45c-1.216.511-1.374.986-1.384 1.088l.001.023c.014.11.183.578 1.383 1.083.415.175.905.33 1.461.456a7 7 0 0 1-.028-3.1m1.62-3.175c-1.8.435-3.175 1.466-3.89 2.709.713-.352 1.622-.635 2.683-.822.3-.695.71-1.33 1.208-1.887m2.057-.22A5.85 5.85 0 0 0 1.99 4.04q.81-.071 1.696-.072c2.437 0 4.476.347 5.814.986-.89-1.615-2.864-2.796-5.663-2.836" clip-rule="evenodd"/></g></svg>