<svg width="16" height="16" viewBox="0 0 16 16" fill="none" xmlns="http://www.w3.org/2000/svg">
  <path fill-rule="evenodd" clip-rule="evenodd" d="M2.25 1.75H5.25C5.52614 1.75 5.75 1.97386 5.75 2.25V5.25C5.75 5.52614 5.52614 5.75 5.25 5.75H2.25C1.97386 5.75 1.75 5.52614 1.75 5.25V2.25C1.75 1.97386 1.97386 1.75 2.25 1.75ZM0.25 2.25C0.25 1.14543 1.14543 0.25 2.25 0.25H5.25C6.35457 0.25 7.25 1.14543 7.25 2.25V5.25C7.25 6.35457 6.35457 7.25 5.25 7.25H2.25C1.14543 7.25 0.25 6.35457 0.25 5.25V2.25ZM10.75 1.75H13.75C14.0261 1.75 14.25 1.97386 14.25 2.25V5.25C14.25 5.52614 14.0261 5.75 13.75 5.75H10.75C10.4739 5.75 10.25 5.52614 10.25 5.25V2.25C10.25 1.97386 10.4739 1.75 10.75 1.75ZM8.75 2.25C8.75 1.14543 9.64543 0.25 10.75 0.25H13.75C14.8546 0.25 15.75 1.14543 15.75 2.25V5.25C15.75 6.35457 14.8546 7.25 13.75 7.25H10.75C9.64543 7.25 8.75 6.35457 8.75 5.25V2.25ZM5.25 10.25H2.25C1.97386 10.25 1.75 10.4739 1.75 10.75V13.75C1.75 14.0261 1.97386 14.25 2.25 14.25H5.25C5.52614 14.25 5.75 14.0261 5.75 13.75V10.75C5.75 10.4739 5.52614 10.25 5.25 10.25ZM2.25 8.75C1.14543 8.75 0.25 9.64543 0.25 10.75V13.75C0.25 14.8546 1.14543 15.75 2.25 15.75H5.25C6.35457 15.75 7.25 14.8546 7.25 13.75V10.75C7.25 9.64543 6.35457 8.75 5.25 8.75H2.25ZM10.75 10.25H13.75C14.0261 10.25 14.25 10.4739 14.25 10.75V13.75C14.25 14.0261 14.0261 14.25 13.75 14.25H10.75C10.4739 14.25 10.25 14.0261 10.25 13.75V10.75C10.25 10.4739 10.4739 10.25 10.75 10.25ZM8.75 10.75C8.75 9.64543 9.64543 8.75 10.75 8.75H13.75C14.8546 8.75 15.75 9.64543 15.75 10.75V13.75C15.75 14.8546 14.8546 15.75 13.75 15.75H10.75C9.64543 15.75 8.75 14.8546 8.75 13.75V10.75Z" fill="currentColor"/>
</svg>
