<?xml version="1.0" encoding="UTF-8"?>
<svg width="56px" height="56px" viewBox="0 0 56 56" version="1.1" xmlns="http://www.w3.org/2000/svg" xmlns:xlink="http://www.w3.org/1999/xlink">
    <!-- Generator: Sketch 51.3 (57544) - http://www.bohemiancoding.com/sketch -->
    <title>ic-mssql</title>
    <desc>Created with Sketch.</desc>
    <defs></defs>
    <g id="Page-1" stroke="none" stroke-width="1" fill="none" fill-rule="evenodd">
        <g id="Group-7">
            <rect id="Rectangle-5" fill="#FFFFFF" fill-rule="nonzero" opacity="0" x="0" y="0" width="56" height="56"></rect>
            <circle id="Oval-3" fill="#0189CF" fill-rule="nonzero" cx="28" cy="28" r="24"></circle>
            <path d="M11.487793,20.7495117 L11.487793,19.6728516 C11.5844731,19.7607426 11.6994622,19.8398434 11.8327637,19.9101562 C11.9660651,19.9804691 12.1074211,20.0397947 12.2568359,20.0881348 C12.4062507,20.1364749 12.5556633,20.173828 12.7050781,20.2001953 C12.8544929,20.2265626 12.9921869,20.2397461 13.1181641,20.2397461 C13.5576194,20.2397461 13.8850087,20.1665046 14.1003418,20.0200195 C14.3156749,19.8735344 14.4233398,19.6611342 14.4233398,19.3828125 C14.4233398,19.2333977 14.3874515,19.1037603 14.3156738,18.9938965 C14.2438961,18.8840327 14.1435553,18.7836919 14.0146484,18.6928711 C13.8857415,18.6020503 13.7341317,18.514893 13.5598145,18.4313965 C13.3854972,18.3479 13.1987315,18.2607426 12.9995117,18.1699219 C12.7856435,18.0556635 12.5864267,17.939942 12.4018555,17.8227539 C12.2172842,17.7055658 12.0568854,17.5759284 11.9206543,17.4338379 C11.7844231,17.2917473 11.6774906,17.1313485 11.5998535,16.9526367 C11.5222164,16.7739249 11.4833984,16.5644543 11.4833984,16.3242188 C11.4833984,16.0283188 11.5500482,15.7712413 11.6833496,15.5529785 C11.8166511,15.3347157 11.9924305,15.1545417 12.2106934,15.0124512 C12.4289562,14.8703606 12.6772447,14.7648929 12.9555664,14.6960449 C13.2338881,14.6271969 13.518065,14.5927734 13.8081055,14.5927734 C14.4672885,14.5927734 14.9477524,14.6674797 15.2495117,14.8168945 L15.2495117,15.8496094 C14.8920881,15.5917956 14.4321317,15.4628906 13.8696289,15.4628906 C13.7143547,15.4628906 13.5598152,15.4775389 13.4060059,15.5068359 C13.2521965,15.536133 13.1145026,15.5844723 12.9929199,15.6518555 C12.8713373,15.7192386 12.7724613,15.8056635 12.6962891,15.9111328 C12.6201168,16.0166021 12.5820312,16.1440422 12.5820312,16.293457 C12.5820312,16.4340827 12.6113278,16.5556635 12.6699219,16.6582031 C12.7285159,16.7607427 12.8142084,16.8544918 12.927002,16.9394531 C13.0397955,17.0244145 13.1774894,17.1071773 13.3400879,17.1877441 C13.5026864,17.2683109 13.6909169,17.3554683 13.9047852,17.4492188 C14.1245128,17.5634771 14.3317861,17.6835931 14.5266113,17.8095703 C14.7214365,17.9355475 14.8928215,18.0747063 15.0407715,18.2270508 C15.1887214,18.3793953 15.3059078,18.5485831 15.392334,18.7346191 C15.4787602,18.9206552 15.5219727,19.132323 15.5219727,19.3696289 C15.5219727,19.6889664 15.4575202,19.958495 15.3286133,20.1782227 C15.1997064,20.3979503 15.0261241,20.5766595 14.8078613,20.7143555 C14.5895985,20.8520515 14.3383803,20.9516598 14.0541992,21.0131836 C13.7700181,21.0747073 13.4697281,21.1054688 13.1533203,21.1054688 C13.047851,21.1054688 12.9182137,21.0974122 12.7644043,21.0812988 C12.6105949,21.0651855 12.4531258,21.0417482 12.2919922,21.0109863 C12.1308586,20.9802245 11.9785163,20.9428713 11.8349609,20.8989258 C11.6914055,20.8549802 11.575684,20.8051761 11.487793,20.7495117 Z M19.15625,21.1010742 C18.9716788,21.1010742 18.7834482,21.0827639 18.5915527,21.0461426 C18.3996572,21.0095213 18.2136239,20.9538578 18.0334473,20.8791504 C17.8532706,20.804443 17.6811532,20.7114263 17.5170898,20.6000977 C17.3530265,20.488769 17.203614,20.359864 17.0688477,20.2133789 C16.5385716,19.6245088 16.2734375,18.8554735 16.2734375,17.90625 C16.2734375,16.8925731 16.5502902,16.0854522 17.1040039,15.4848633 C17.663577,14.8813446 18.4282178,14.5795898 19.3979492,14.5795898 C20.2680708,14.5795898 20.9741184,14.8725557 21.5161133,15.4584961 C22.0581082,16.0444365 22.3291016,16.8105421 22.3291016,17.7568359 C22.3291016,18.149416 22.2866215,18.5200178 22.2016602,18.8686523 C22.1166988,19.2172869 21.9885262,19.5322252 21.8171387,19.8134766 C21.6457511,20.094728 21.4304212,20.3327627 21.1711426,20.5275879 C20.9118639,20.7224131 20.6035174,20.8623043 20.2460938,20.9472656 C20.401368,21.0966804 20.5471185,21.2285151 20.6833496,21.3427734 C20.8195808,21.4570318 20.9550775,21.5529781 21.0898438,21.6306152 C21.22461,21.7082523 21.3652336,21.7675779 21.5117188,21.8085938 C21.6582039,21.8496096 21.8193351,21.8701172 21.9951172,21.8701172 C22.0419924,21.8701172 22.0932614,21.8679199 22.1489258,21.8635254 C22.2045901,21.8591308 22.2602536,21.8518067 22.315918,21.8415527 C22.3715823,21.8312988 22.4250486,21.8195801 22.4763184,21.8063965 C22.5275881,21.7932128 22.5751951,21.7778321 22.6191406,21.7602539 L22.6191406,22.6918945 C22.5693357,22.7094727 22.5122074,22.724121 22.4477539,22.7358398 C22.3833005,22.7475587 22.318848,22.7578125 22.2543945,22.7666016 C22.1899411,22.7753907 22.126221,22.7819824 22.0632324,22.786377 C22.0002438,22.7907715 21.9409182,22.7929688 21.8852539,22.7929688 C21.5805649,22.7929688 21.3073743,22.7490239 21.0656738,22.6611328 C20.8239734,22.5732417 20.5976573,22.4523933 20.3867188,22.298584 C20.1757802,22.1447746 19.972169,21.9653331 19.7758789,21.7602539 C19.5795889,21.5551748 19.373048,21.3354504 19.15625,21.1010742 Z M19.3232422,15.5112305 C18.7431612,15.5112305 18.2714862,15.7265603 17.9082031,16.1572266 C17.5478498,16.5878928 17.3676758,17.1547816 17.3676758,17.8579102 C17.3676758,18.5551793 17.5434553,19.1206033 17.8950195,19.5541992 C18.2495135,19.979006 18.7094698,20.1914062 19.2749023,20.1914062 C19.8813507,20.1914062 20.358885,19.987795 20.7075195,19.5805664 C21.0561541,19.1733378 21.2304688,18.6035193 21.2304688,17.8710938 C21.2304688,17.1152306 21.0605486,16.5336934 20.7207031,16.1264648 C20.3837874,15.7163065 19.9179717,15.5112305 19.3232422,15.5112305 Z M26.9697266,21 L23.4804688,21 L23.4804688,14.6982422 L24.5263672,14.6982422 L24.5263672,20.1166992 L26.9697266,20.1166992 L26.9697266,21 Z" id="SQL" fill="#FFFFFF"></path>
            <path d="M11.487793,30.7495117 L11.487793,29.6728516 C11.5844731,29.7607426 11.6994622,29.8398434 11.8327637,29.9101562 C11.9660651,29.9804691 12.1074211,30.0397947 12.2568359,30.0881348 C12.4062507,30.1364749 12.5556633,30.173828 12.7050781,30.2001953 C12.8544929,30.2265626 12.9921869,30.2397461 13.1181641,30.2397461 C13.5576194,30.2397461 13.8850087,30.1665046 14.1003418,30.0200195 C14.3156749,29.8735344 14.4233398,29.6611342 14.4233398,29.3828125 C14.4233398,29.2333977 14.3874515,29.1037603 14.3156738,28.9938965 C14.2438961,28.8840327 14.1435553,28.7836919 14.0146484,28.6928711 C13.8857415,28.6020503 13.7341317,28.514893 13.5598145,28.4313965 C13.3854972,28.3479 13.1987315,28.2607426 12.9995117,28.1699219 C12.7856435,28.0556635 12.5864267,27.939942 12.4018555,27.8227539 C12.2172842,27.7055658 12.0568854,27.5759284 11.9206543,27.4338379 C11.7844231,27.2917473 11.6774906,27.1313485 11.5998535,26.9526367 C11.5222164,26.7739249 11.4833984,26.5644543 11.4833984,26.3242188 C11.4833984,26.0283188 11.5500482,25.7712413 11.6833496,25.5529785 C11.8166511,25.3347157 11.9924305,25.1545417 12.2106934,25.0124512 C12.4289562,24.8703606 12.6772447,24.7648929 12.9555664,24.6960449 C13.2338881,24.6271969 13.518065,24.5927734 13.8081055,24.5927734 C14.4672885,24.5927734 14.9477524,24.6674797 15.2495117,24.8168945 L15.2495117,25.8496094 C14.8920881,25.5917956 14.4321317,25.4628906 13.8696289,25.4628906 C13.7143547,25.4628906 13.5598152,25.4775389 13.4060059,25.5068359 C13.2521965,25.536133 13.1145026,25.5844723 12.9929199,25.6518555 C12.8713373,25.7192386 12.7724613,25.8056635 12.6962891,25.9111328 C12.6201168,26.0166021 12.5820312,26.1440422 12.5820312,26.293457 C12.5820312,26.4340827 12.6113278,26.5556635 12.6699219,26.6582031 C12.7285159,26.7607427 12.8142084,26.8544918 12.927002,26.9394531 C13.0397955,27.0244145 13.1774894,27.1071773 13.3400879,27.1877441 C13.5026864,27.2683109 13.6909169,27.3554683 13.9047852,27.4492188 C14.1245128,27.5634771 14.3317861,27.6835931 14.5266113,27.8095703 C14.7214365,27.9355475 14.8928215,28.0747063 15.0407715,28.2270508 C15.1887214,28.3793953 15.3059078,28.5485831 15.392334,28.7346191 C15.4787602,28.9206552 15.5219727,29.132323 15.5219727,29.3696289 C15.5219727,29.6889664 15.4575202,29.958495 15.3286133,30.1782227 C15.1997064,30.3979503 15.0261241,30.5766595 14.8078613,30.7143555 C14.5895985,30.8520515 14.3383803,30.9516598 14.0541992,31.0131836 C13.7700181,31.0747073 13.4697281,31.1054688 13.1533203,31.1054688 C13.047851,31.1054688 12.9182137,31.0974122 12.7644043,31.0812988 C12.6105949,31.0651855 12.4531258,31.0417482 12.2919922,31.0109863 C12.1308586,30.9802245 11.9785163,30.9428713 11.8349609,30.8989258 C11.6914055,30.8549802 11.575684,30.8051761 11.487793,30.7495117 Z M20.3735352,29.0268555 L17.3061523,29.0268555 C17.3178712,29.4428732 17.4460437,29.7636707 17.6906738,29.9892578 C17.935304,30.2148449 18.2714822,30.3276367 18.6992188,30.3276367 C19.1796899,30.3276367 19.6206035,30.1840835 20.0219727,29.8969727 L20.0219727,30.71875 C19.6118144,30.9765638 19.0698276,31.1054688 18.3959961,31.1054688 C17.7338834,31.1054688 17.2146015,30.9011251 16.8381348,30.4924316 C16.461668,30.0837382 16.2734375,29.5087928 16.2734375,28.7675781 C16.2734375,28.0673793 16.4807108,27.4968284 16.8952637,27.0559082 C17.3098165,26.614988 17.824704,26.3945312 18.4399414,26.3945312 C19.0551789,26.3945312 19.5312483,26.5922832 19.8681641,26.987793 C20.2050798,27.3833028 20.3735352,27.9326137 20.3735352,28.6357422 L20.3735352,29.0268555 Z M19.3891602,28.3061523 C19.3862305,27.9399396 19.2998055,27.6550303 19.1298828,27.451416 C18.9599601,27.2478017 18.7255874,27.1459961 18.4267578,27.1459961 C18.1337876,27.1459961 17.8854991,27.2529286 17.6818848,27.4667969 C17.4782705,27.6806651 17.3530276,27.9604475 17.3061523,28.3061523 L19.3891602,28.3061523 Z M23.9550781,27.4711914 C23.8320306,27.3745112 23.6547863,27.3261719 23.4233398,27.3261719 C23.1215805,27.3261719 22.8696299,27.462401 22.6674805,27.7348633 C22.465331,28.0073256 22.3642578,28.3779273 22.3642578,28.8466797 L22.3642578,31 L21.3447266,31 L21.3447266,26.5 L22.3642578,26.5 L22.3642578,27.4272461 L22.3818359,27.4272461 C22.4814458,27.1108383 22.6345205,26.8640146 22.8410645,26.6867676 C23.0476085,26.5095206 23.278319,26.4208984 23.5332031,26.4208984 C23.7177744,26.4208984 23.858398,26.4487302 23.9550781,26.5043945 L23.9550781,27.4711914 Z M28.9121094,26.5 L27.171875,31 L26.0688477,31 L24.4121094,26.5 L25.5195312,26.5 L26.5170898,29.6464844 C26.5932621,29.8779308 26.6401366,30.0800773 26.6577148,30.2529297 L26.6708984,30.2529297 C26.6972658,30.0361317 26.738281,29.8398446 26.7939453,29.6640625 L27.8398438,26.5 L28.9121094,26.5 Z M33.3417969,29.0268555 L30.2744141,29.0268555 C30.2861329,29.4428732 30.4143054,29.7636707 30.6589355,29.9892578 C30.9035657,30.2148449 31.239744,30.3276367 31.6674805,30.3276367 C32.1479516,30.3276367 32.5888652,30.1840835 32.9902344,29.8969727 L32.9902344,30.71875 C32.5800761,30.9765638 32.0380893,31.1054688 31.3642578,31.1054688 C30.7021451,31.1054688 30.1828632,30.9011251 29.8063965,30.4924316 C29.4299298,30.0837382 29.2416992,29.5087928 29.2416992,28.7675781 C29.2416992,28.0673793 29.4489725,27.4968284 29.8635254,27.0559082 C30.2780782,26.614988 30.7929657,26.3945312 31.4082031,26.3945312 C32.0234406,26.3945312 32.49951,26.5922832 32.8364258,26.987793 C33.1733415,27.3833028 33.3417969,27.9326137 33.3417969,28.6357422 L33.3417969,29.0268555 Z M32.3574219,28.3061523 C32.3544922,27.9399396 32.2680673,27.6550303 32.0981445,27.451416 C31.9282218,27.2478017 31.6938492,27.1459961 31.3950195,27.1459961 C31.1020493,27.1459961 30.8537608,27.2529286 30.6501465,27.4667969 C30.4465322,27.6806651 30.3212893,27.9604475 30.2744141,28.3061523 L32.3574219,28.3061523 Z M36.9233398,27.4711914 C36.8002924,27.3745112 36.623048,27.3261719 36.3916016,27.3261719 C36.0898422,27.3261719 35.8378916,27.462401 35.6357422,27.7348633 C35.4335927,28.0073256 35.3325195,28.3779273 35.3325195,28.8466797 L35.3325195,31 L34.3129883,31 L34.3129883,26.5 L35.3325195,26.5 L35.3325195,27.4272461 L35.3500977,27.4272461 C35.4497075,27.1108383 35.6027822,26.8640146 35.8093262,26.6867676 C36.0158702,26.5095206 36.2465808,26.4208984 36.5014648,26.4208984 C36.6860361,26.4208984 36.8266597,26.4487302 36.9233398,26.5043945 L36.9233398,27.4711914 Z" id="Server" fill="#FFFFFF"></path>
        </g>
    </g>
</svg>