<?xml version="1.0" encoding="UTF-8"?>
<svg width="56px" height="56px" viewBox="0 0 56 56" version="1.1" xmlns="http://www.w3.org/2000/svg" xmlns:xlink="http://www.w3.org/1999/xlink">
    <!-- Generator: Sketch 51.2 (57519) - http://www.bohemiancoding.com/sketch -->
    <defs></defs>
    <g id="Page-1" stroke="none" stroke-width="1" fill="none" fill-rule="evenodd">
        <g id="Group">
            <rect id="Rectangle-3" fill="#D8D8D8" fill-rule="nonzero" opacity="0" x="0" y="0" width="56" height="56"></rect>
            <circle id="Oval-3" fill="#00758F" fill-rule="nonzero" cx="28" cy="28" r="24"></circle>
            <g id="Group-6" transform="translate(13.000000, 12.000000)" fill="#FFFFFF">
                <path d="M15.3796143,6.54062894 L15.9963951,6.3107737 L15.9963951,7.49147219 L15.7092943,7.49147219 C15.6446163,7.5538367 15.5688104,7.61361906 15.470487,7.68509963 C15.3637982,7.7631749 15.334165,7.78651299 15.3316912,7.78719386 C14.9078986,8.21708945 14.5267927,8.6572028 14.263563,9.03602254 C13.4313769,10.1602316 12.6533584,11.4513044 11.9137735,12.9077235 C11.7636086,13.2023642 11.6138371,13.525526 11.4495176,13.9045523 C11.3799977,14.0649101 11.3088157,14.2329721 11.2258397,14.4319344 C11.1739689,14.556312 11.1169123,14.6941296 10.9978101,14.9793287 C10.9789556,15.0174674 10.9610352,15.0728073 10.9313751,15.18441 C10.8164718,15.618564 10.7396824,15.7907105 10.4831004,15.9459745 L10.1110539,16.1711089 L9.86762478,15.8107669 C9.80005808,15.7107497 9.72224317,15.609158 9.60505347,15.4652799 C9.54216227,15.3884094 9.54216227,15.3884094 9.47680529,15.3088729 C9.12207231,14.8762274 8.94233044,14.6137719 8.80356355,14.2686714 C8.51525677,13.6073345 8.40533368,13.0057785 8.26148249,11.6775485 C8.25485082,11.6163159 8.24885942,11.5610682 8.24339095,11.5107875 C8.13686745,11.6535632 8.03402261,11.8541589 7.91687676,12.1315304 C7.89578496,12.1814704 7.87032049,12.2427573 7.82283549,12.3570677 C7.17893729,13.9023116 7.09326151,16.2590346 7.60754847,17.8999142 C7.63364499,17.979483 7.83563451,18.5112722 7.8850576,18.6482168 C7.93719481,18.7926818 7.98282878,18.9260664 8.02331439,19.0539648 C8.23638613,19.7270812 8.30403773,20.1884086 8.1282496,20.5370501 C8.03114935,20.8192496 7.8788085,21.0046385 7.56783302,21.3019936 C7.39597132,21.4665553 7.3345249,21.5318159 7.29597317,21.5850225 C7.00586424,22.0155208 6.73454896,22.4986564 6.57032161,22.8916951 C6.37986947,23.3415012 6.24897928,23.7295534 5.9832595,24.5887279 C5.96143808,24.6592915 5.96143808,24.6592915 5.93953377,24.7300469 C5.65750219,25.6404912 5.48628901,26.1308493 5.2420194,26.6654299 C5.17632979,26.8097971 5.09819122,26.9582442 5.00711078,27.1138655 C4.8684656,27.3507566 4.71210469,27.5859487 4.48797292,27.9033084 C4.46235531,27.9395817 4.20394246,28.3023699 4.1340502,28.4024761 C4.0390521,28.5390252 3.940845,28.6690948 3.81241191,28.8313619 C3.77133346,28.883262 3.72580444,28.9402043 3.64179362,29.0451773 C3.30977913,29.4610873 3.1479044,29.6982123 3.0018738,30.0129277 C2.89187615,30.2608016 2.86035483,30.432089 2.8807384,30.4630954 L2.922362,30.558982 L3.09692595,30.6499071 C3.11204534,30.662947 3.60741548,30.5477637 3.96870696,30.3789328 C4.87567678,30.0077423 5.43664888,29.727565 5.98651996,29.3505525 C6.05761145,29.2990547 6.03440781,29.3196065 6.31075776,29.0684897 C6.63074449,28.7777205 6.84479913,28.6263169 7.13251113,28.5445122 L7.25753449,28.5270837 L7.60852048,28.5377578 C7.87635469,28.478842 8.13140384,28.4540027 8.5370019,28.4351773 C8.59993849,28.4323107 8.59993849,28.4323107 8.66203234,28.4295882 C9.20039225,28.4059753 9.42671,28.382364 9.65777857,28.3119552 C10.6533395,27.9884636 11.6226283,27.5076315 12.6252737,26.87005 C15.3587371,25.1144761 17.6059209,22.6201324 19.123961,19.6484143 C19.2063538,19.4890124 19.2759797,19.3271227 19.3562227,19.1151259 C19.3776246,19.0585835 19.392972,19.0170467 19.4298778,18.9162027 C19.5662168,18.5430985 19.6176347,18.4097896 19.7076957,18.2111354 C19.8351071,17.9093423 19.9761214,17.5934392 20.1479014,17.2218733 C20.2305977,17.0429984 20.3113441,16.8705361 20.4379715,16.6016062 C20.8539279,15.7182023 20.979096,15.4475908 21.1616227,15.0245252 C21.2189818,14.8940813 21.2189818,14.8940813 21.2764373,14.7629122 C21.9035769,13.3311293 22.2196393,12.7098254 22.7229783,12.047209 C22.9637664,11.7052304 23.3880794,11.5050757 24.1524923,11.2633533 C24.2738024,11.2249926 24.6653625,11.1061802 24.6931735,11.0975715 C24.8759849,11.0409833 24.9996102,10.9990719 25.0920815,10.96132 C25.1964708,10.9140988 25.3133235,10.8675155 25.4614609,10.8127145 C25.542343,10.7827936 25.6341177,10.7498247 25.8057589,10.6883318 C26.1645999,10.5588758 26.3644522,10.4748508 26.5042126,10.3884983 C27.111947,10.0087414 27.6935707,9.60350953 28.6032348,8.9411297 C28.6917567,8.87368546 29.0754857,8.62867973 29.2398427,8.52393196 C27.9643512,8.4759055 26.9338588,8.27331456 26.0404401,7.88981954 C25.9994552,7.87322657 25.9489973,7.85818433 25.8413301,7.82982414 C25.2307384,7.66757799 24.9355877,7.47865148 24.8818205,6.97393445 L24.8587495,6.75736521 L25.0123981,6.60300652 C25.0296697,6.58565514 25.0517064,6.54189819 25.0972718,6.41815292 C25.1220294,6.35039577 25.1361982,6.31231501 25.1527687,6.27070541 C25.1947019,6.16540852 25.2377454,6.0762976 25.2856947,6.00051936 C25.6077771,5.45506391 26.0915041,4.86392981 26.5090186,4.5520675 C27.1709398,4.04090444 27.498881,3.79908581 27.9124381,3.53287686 C28.2535054,3.31914598 28.5729889,3.15579463 29.1384049,2.89135027 C29.2026862,2.86131096 29.2026862,2.86131096 29.2666097,2.83147596 C29.8885548,2.54113443 30.1744874,2.39547062 30.4894703,2.19352364 C30.6805892,2.07086882 30.8672236,1.93731364 31.1675017,1.71257778 C31.2208137,1.67264463 31.2208137,1.67264463 31.2744286,1.63242026 C31.5755995,1.40647385 31.7135203,1.30509137 31.8747493,1.19406329 C31.9173078,1.16260916 31.9580513,1.12338205 32.0454028,1.03110561 C32.2910723,0.771562099 32.431461,0.65650909 32.675139,0.569606347 L33.2858396,0.351812597 L33.2858396,1.22214635 L33.1899445,1.34580459 C33.1615979,1.38235794 33.1352677,1.43731068 33.0816789,1.57362604 C32.9939922,1.79511887 32.9428672,1.9024673 32.8120448,2.08047151 C32.7211996,2.1720053 32.6457046,2.24549775 32.4905927,2.39462989 C32.3243832,2.55443178 32.2581253,2.61885047 32.2152943,2.65482154 C31.5888084,3.50788011 30.7978921,4.2801727 29.88935,4.94258663 C29.7561021,5.0355713 29.6025735,5.13064042 29.3685618,5.26820085 C29.3084258,5.30355095 29.2260448,5.35161846 29.079858,5.43694518 C28.9634133,5.50509554 28.8730056,5.55868631 28.7857646,5.61155188 C28.4112236,5.83851317 28.1260637,6.03921421 27.9274858,6.21889367 C28.0665943,6.253621 28.2111178,6.29325734 28.3835767,6.34314715 C28.4659435,6.36697464 28.5645636,6.39603785 28.7212771,6.44238646 C28.9610709,6.50660607 29.1938574,6.54442704 29.5540549,6.58457477 C29.6315146,6.5931085 29.6315146,6.5931085 29.7101589,6.60156292 C30.2611718,6.66077222 30.5121869,6.69764694 30.8492484,6.78522087 C30.9354469,6.80718351 31.0240748,6.83107976 31.1170016,6.85730371 C31.3049867,6.91035318 31.4444688,6.95278156 31.7909653,7.06055854 C31.8447236,7.07727794 31.8447236,7.07727794 31.898299,7.09390408 L32.2200706,7.19366282 L32.2200706,7.91516798 L32.0870705,8.04890678 C31.9591786,8.17750897 31.8603913,8.30053798 31.6426507,8.59190331 C31.3524657,8.98020845 31.2126546,9.14986337 30.9958229,9.34621218 C29.8079881,10.3850413 28.6033441,11.3013958 27.4227906,12.0450696 C27.0794653,12.2692304 26.7404664,12.4361207 26.1191608,12.708185 C26.0367971,12.744208 26.0367971,12.744208 25.9551535,12.7798829 C25.5740542,12.9465315 25.3712739,13.0398271 25.1596023,13.1505185 C25.069512,13.196454 24.9844464,13.2294981 24.8376206,13.2804351 C24.578434,13.3705459 24.4986533,13.4117893 24.4761049,13.4421567 C24.2819556,13.6823437 24.1477314,13.9363279 23.8971837,14.4965744 C23.7730721,14.7742011 23.7209091,14.8879684 23.6504905,15.0309567 C23.0858674,16.1157729 22.5035823,17.3757378 21.9111571,18.7726739 C21.7939242,19.0299928 21.7265189,19.1963364 21.5184769,19.7279376 C21.2251162,20.4775503 21.0574692,20.8536553 20.7988998,21.2824964 C18.6218613,24.9221264 16.2324483,27.2362475 12.374367,29.5321152 C11.7483238,29.8924913 11.1440831,30.0850921 9.94612451,30.3676709 C9.73388315,30.4175524 9.61451374,30.4456019 9.43441925,30.4798347 C9.22288442,30.4887957 9.05212816,30.4982839 8.66912253,30.5212608 C8.45484388,30.5341173 8.35876645,30.5397529 8.23896279,30.546297 C8.12967945,30.5522665 8.02913638,30.5573118 7.93305504,30.5615736 C7.84470006,30.6141446 7.73438028,30.7027158 7.56624091,30.8525441 C7.2661975,31.1199114 7.21941175,31.1596809 7.07782684,31.2520057 C6.14381228,31.8491119 5.12740577,32.3427638 4.18856317,32.5581541 C2.7707774,32.8834241 1.65921756,32.5216859 1.15819245,31.2777029 C0.746401622,30.2729051 1.07222275,29.3175578 1.89720311,28.1955661 C2.01295749,28.0381375 2.47233005,27.4534304 2.55680687,27.3309561 C2.64090068,27.2157394 2.96069517,26.7912113 2.94627205,26.8105236 C3.26144508,26.3885128 3.4489471,26.1039924 3.57954872,25.8286599 C3.64229142,25.6788842 3.67644197,25.5613398 3.74107828,25.3036499 C3.81144386,25.0231188 3.84296991,24.9087193 3.90005792,24.7481251 C3.96944495,24.5568738 4.01470296,24.4279258 4.06866023,24.2720643 C4.07758048,24.2462972 4.26301634,23.7073384 4.31863353,23.548156 C4.59363009,22.7610864 4.80648571,22.2250461 5.0598058,21.7247606 C5.38168514,21.0998335 5.61187923,20.6995601 5.8837523,20.3273808 C5.95398692,20.2298601 6.01751939,20.164938 6.13774683,20.0551551 C6.2193052,19.9806649 6.25915262,19.941281 6.28565152,19.906985 C6.16282097,19.6694324 6.09131839,19.3987854 5.99263008,18.9209972 C5.93312496,18.6331467 5.90316546,18.5055002 5.86145486,18.3731763 C5.06657523,15.8436611 5.34927411,12.6722156 6.53012348,10.726337 C7.32651305,9.46259577 8.16643827,8.78458026 9.32977965,9.27111457 C10.1148738,9.58876795 10.3226664,10.1150538 10.4764189,11.3715244 C10.487399,11.4612541 10.4957336,11.5289145 10.5027138,11.5841724 C10.6131531,11.3576176 10.711672,11.1510549 10.8193665,10.9215412 C11.4546061,9.90669214 12.5664214,8.77431589 13.7045511,7.90461875 C13.8186569,7.81731953 13.931671,7.71046481 14.1071736,7.52877392 C14.1659645,7.46770691 14.1659645,7.46770691 14.2265299,7.40458785 C14.6355689,6.97899775 14.8987811,6.75207434 15.2373402,6.59905305 C15.3174536,6.56451789 15.3481381,6.55235915 15.3796143,6.54062894 Z" id="Shape" fill-rule="nonzero" transform="translate(17.133020, 16.511500) scale(-1, 1) rotate(-180.000000) translate(-17.133020, -16.511500) "></path>
                <path d="M8.58142745,8.42281462 C8.21933508,8.42281462 7.9639473,8.37845579 7.70628386,8.31422329 L7.70628386,8.27079323 L7.74778364,8.27079323 C7.92016275,7.92562613 8.21933052,7.68581123 8.43093377,7.38361674 C8.6028614,7.03751626 8.75243845,6.69282047 8.92300252,6.34626716 C8.94397587,6.36751781 8.96449773,6.39016853 8.96449773,6.39016853 C9.26548055,6.60548904 9.41461067,6.95112283 9.41461067,7.4709528 C9.28555093,7.62344088 9.26548055,7.77361398 9.15785932,7.92563537 C9.03016771,8.14141794 8.75243845,8.2495472 8.58142289,8.42282386" id="Shape" transform="translate(8.560447, 7.384546) scale(-1, 1) rotate(-180.000000) translate(-8.560447, -7.384546) "></path>
            </g>
        </g>
    </g>
</svg>
