<svg xmlns="http://www.w3.org/2000/svg" width="32" height="32" fill="none"><g clip-path="url(#prefix__a)"><path fill="#027bfe" d="M16 0C7.173 0 0 7.173 0 16s7.173 16 16 16 16-7.173 16-16S24.827 0 16 0M8.613 3.947c6.827.08 12.187 3.146 14.214 7.76C20 9.947 15.04 9.013 8.347 9.013c-1.654 0-3.254.054-4.72.187a14.1 14.1 0 014.986-5.253m-5.893 7.2c1.707-.187 3.6-.267 5.627-.267 9.013 0 15.386 1.893 15.386 5.12s-6.346 5.12-15.386 5.12a60.38 60.38 0 01-5.627-.267A14 14 0 011.867 16c0-1.707.293-3.333.853-4.853M3.627 22.8c.186 0 3.12.187 4.72.187 6.693 0 11.653-.96 14.48-2.694-2.027 4.614-7.387 7.68-14.214 7.76A14.1 14.1 0 013.627 22.8M16 30.133a13.71 13.71 0 01-3.813-.533C20.213 28.293 25.6 22.907 25.6 16S20.213 3.707 12.187 2.4A14 14 0 0116 1.867c7.787 0 14.133 6.346 14.133 14.133S23.787 30.133 16 30.133"/></g></svg>