<svg width="16" height="16" viewBox="0 0 16 16" fill="none" xmlns="http://www.w3.org/2000/svg">
<rect opacity="0.01" width="16" height="16" fill="currentColor"/>
<rect x="0.5" y="0.5" width="15" height="15" rx="1.5" stroke="currentColor"/>
<path d="M8.6088 11.13C8.0628 11.13 7.59914 11.013 7.2178 10.779C6.83647 10.545 6.5548 10.22 6.3728 9.804L5.6318 13.301H4.5138L6.4378 4.253H7.4128L7.3088 5.085C7.56014 4.799 7.85047 4.56933 8.1798 4.396C8.5178 4.214 8.90781 4.123 9.3498 4.123C9.78314 4.123 10.1645 4.19667 10.4938 4.344C10.8318 4.49133 11.1135 4.69933 11.3388 4.968C11.5641 5.23667 11.7331 5.553 11.8458 5.917C11.9671 6.281 12.0278 6.684 12.0278 7.126C12.0278 7.63733 11.9498 8.13567 11.7938 8.621C11.6378 9.09767 11.4125 9.52233 11.1178 9.895C10.8318 10.2677 10.4765 10.5667 10.0518 10.792C9.62714 11.0173 9.14614 11.13 8.6088 11.13ZM6.8408 8.153C6.8408 8.82033 6.9968 9.323 7.3088 9.661C7.6208 9.99033 8.0368 10.155 8.5568 10.155C8.95547 10.155 9.2978 10.064 9.58381 9.882C9.87847 9.69133 10.1211 9.44867 10.3118 9.154C10.5025 8.85933 10.6411 8.53433 10.7278 8.179C10.8145 7.815 10.8578 7.45533 10.8578 7.1C10.8578 6.424 10.6975 5.92133 10.3768 5.592C10.0648 5.26267 9.64014 5.098 9.10281 5.098C8.7388 5.098 8.4138 5.18033 8.1278 5.345C7.85047 5.501 7.61647 5.71767 7.4258 5.995C7.23514 6.27233 7.0878 6.59733 6.9838 6.97C6.88847 7.34267 6.8408 7.737 6.8408 8.153Z" fill="currentColor"/>
</svg>
