<svg width="16" height="16" viewBox="0 0 16 16" fill="none" xmlns="http://www.w3.org/2000/svg"><path d="M15.5 8a7.5 7.5 0 1 1-15 0 7.5 7.5 0 0 1 15 0z" stroke="currentColor" stroke-opacity=".55"/><path opacity=".5" fill-rule="evenodd" clip-rule="evenodd" d="M8.464 9.924h-1.37a30.205 30.205 0 0 1-.005-.36c0-.444.074-.809.22-1.095.147-.287.441-.609.881-.967s.704-.593.79-.704a.94.94 0 0 0 .199-.58.977.977 0 0 0-.352-.754c-.235-.21-.55-.315-.948-.315-.383 0-.704.11-.962.328-.257.218-.435.551-.531 1L5 6.303c.04-.64.312-1.185.82-1.633C6.325 4.224 6.99 4 7.813 4c.867 0 1.556.226 2.068.68.512.452.768.98.768 1.581 0 .333-.094.648-.282.946-.188.297-.59.701-1.205 1.213-.32.265-.517.478-.594.64-.077.16-.112.449-.105.864zm-1.37 2.03v-1.509h1.51v1.51h-1.51z" fill="currentColor"/></svg>
