<svg width="16" height="16" viewBox="0 0 16 16" fill="none" xmlns="http://www.w3.org/2000/svg">
<path fill-rule="evenodd" clip-rule="evenodd" d="M8.7499 13.2522C8.7499 13.6668 8.41404 14.0028 7.99973 14.0028C7.58542 14.0028 7.24955 13.6668 7.24955 13.2522V8.74744H2.75017C2.33586 8.74744 2 8.41142 2 7.99691C2 7.58241 2.33586 7.24639 2.75017 7.24639L7.24955 7.24639V2.75053C7.24955 2.33602 7.58542 2 7.99973 2C8.41404 2 8.7499 2.33602 8.7499 2.75053V7.24639L13.2498 7.24639C13.6641 7.24639 14 7.58241 14 7.99691C14 8.41142 13.6641 8.74744 13.2498 8.74744L8.7499 8.74744V13.2522Z" fill="currentColor" fill-opacity="0.85"/>
</svg>
