<svg viewBox="0 0 24 24" fill="none" xmlns="http://www.w3.org/2000/svg"><path fill-rule="evenodd" clip-rule="evenodd" d="M8.041 7.833c0-2.391 1.563-4.17 3.96-4.166 2.397.003 3.957 1.777 3.957 4.166h.744c.544 0 .742.055.942.159.201.104.36.256.472.453.111.196.174.391.196.935l.318 7.953a2.083 2.083 0 0 1-2.082 2.167H7.452a2.083 2.083 0 0 1-2.082-2.167l.318-7.953c.022-.544.084-.74.196-.935.112-.197.27-.35.471-.453.2-.104.399-.159.943-.159h.743zM7.035 17.4l.316-7.9h9.297l.317 7.9c.009.23-.17.424-.4.433H7.452a.417.417 0 0 1-.417-.416V17.4zm4.963-12.067c1.428.003 2.293.987 2.293 2.5H9.708c0-1.515.867-2.502 2.29-2.5zm-3.332 6.453c0-.602.458-1.036 1.036-1.036.59 0 1.048.434 1.048 1.036 0 .602-.458 1.047-1.048 1.047a1.023 1.023 0 0 1-1.036-1.047zm5.62-1.036c-.579 0-1.036.434-1.036 1.036 0 .602.457 1.047 1.036 1.047.59 0 1.047-.445 1.047-1.047 0-.602-.457-1.036-1.047-1.036z" fill="currentColor"/></svg>
