<svg width="16" height="16" viewBox="0 0 16 16" fill="none" xmlns="http://www.w3.org/2000/svg">
<path d="M11.25 9.75C10.5898 9.75 10.0059 10.0039 9.54883 10.4355L7.06055 8.86133C7.21289 8.4043 7.21289 7.87109 7.06055 7.41406L9.54883 5.83984C10.0059 6.24609 10.5898 6.5 11.25 6.5C12.5957 6.5 13.6875 5.4082 13.6875 4.0625C13.6875 2.7168 12.5957 1.625 11.25 1.625C9.9043 1.625 8.8125 2.7168 8.8125 4.0625C8.8125 4.31641 8.83789 4.57031 8.91406 4.79883L6.42578 6.37305C5.96875 5.94141 5.38477 5.6875 4.75 5.6875C3.4043 5.6875 2.3125 6.7793 2.3125 8.125C2.3125 9.4707 3.4043 10.5625 4.75 10.5625C5.38477 10.5625 5.96875 10.3086 6.42578 9.90234L8.91406 11.4766C8.83789 11.7051 8.8125 11.959 8.8125 12.1875C8.8125 13.5332 9.9043 14.625 11.25 14.625C12.5957 14.625 13.6875 13.5332 13.6875 12.1875C13.6875 10.8418 12.5957 9.75 11.25 9.75ZM11.25 2.84375C11.9102 2.84375 12.4688 3.40234 12.4688 4.0625C12.4688 4.74805 11.9102 5.28125 11.25 5.28125C10.5645 5.28125 10.0312 4.74805 10.0312 4.0625C10.0312 3.40234 10.5645 2.84375 11.25 2.84375ZM4.75 9.34375C4.06445 9.34375 3.53125 8.81055 3.53125 8.125C3.53125 7.46484 4.06445 6.90625 4.75 6.90625C5.41016 6.90625 5.96875 7.46484 5.96875 8.125C5.96875 8.81055 5.41016 9.34375 4.75 9.34375ZM11.25 13.4062C10.5645 13.4062 10.0312 12.873 10.0312 12.1875C10.0312 11.5273 10.5645 10.9688 11.25 10.9688C11.9102 10.9688 12.4688 11.5273 12.4688 12.1875C12.4688 12.873 11.9102 13.4062 11.25 13.4062Z" fill="currentColor" fill-opacity="0.85"/>
</svg>
