<svg xmlns="http://www.w3.org/2000/svg" width="12" height="8" fill="none" viewBox="0 0 12 8"><path fill="currentColor" d="M6.23 8a37.218 37.218 0 0 1-2.2-.658c-.65-.22-1.239-.442-1.764-.668a5.613 5.613 0 0 1-.957-.52 3.28 3.28 0 0 1-.712-.696 2.98 2.98 0 0 1-.445-.905A4.087 4.087 0 0 1 0 3.392c0-.549.085-1.033.256-1.454.17-.42.405-.774.702-1.06A2.934 2.934 0 0 1 2.01.228 3.71 3.71 0 0 1 3.33 0c.461 0 .894.073 1.299.22.404.14.758.35 1.062.63.303.275.54.622.711 1.043.177.414.266.896.266 1.444 0 .378-.041.732-.124 1.06a2.715 2.715 0 0 1-1.09 1.6 3.524 3.524 0 0 1-1.053.485c.392.092.781.165 1.167.22.392.06.761.112 1.11.155L6.23 8Zm-2.9-2.359c.278 0 .534-.04.768-.119a1.59 1.59 0 0 0 .607-.393 1.88 1.88 0 0 0 .398-.704c.101-.292.152-.646.152-1.06 0-.415-.05-.765-.152-1.052a1.79 1.79 0 0 0-.398-.704 1.46 1.46 0 0 0-.607-.393 2.226 2.226 0 0 0-.768-.128c-.272 0-.525.043-.759.128a1.46 1.46 0 0 0-.607.393c-.17.177-.307.412-.408.704-.095.287-.142.637-.142 1.052 0 .414.047.768.142 1.06.101.287.237.521.408.704.17.177.373.308.607.393.234.08.487.12.759.12Zm8.67.997H7.685V.082h1.356V5.55H12v1.088Z"/></svg>