<svg width="16" height="16" viewBox="0 0 16 16" fill="none" xmlns="http://www.w3.org/2000/svg">
<path fill-rule="evenodd" clip-rule="evenodd" d="M13.5303 4.71967C13.671 4.86032 13.75 5.05109 13.75 5.25C13.75 5.44891 13.671 5.63968 13.5303 5.78033L10.5303 8.78033C10.2374 9.07322 9.76256 9.07322 9.46967 8.78033C9.17678 8.48744 9.17678 8.01256 9.46967 7.71967L11.1893 6H7C5.20508 6 3.75 7.45507 3.75 9.25C3.75 11.0449 5.20507 12.5 7 12.5H8C8.41421 12.5 8.75 12.8358 8.75 13.25C8.75 13.6642 8.41421 14 8 14H7C4.37665 14 2.25 11.8734 2.25 9.25C2.25 6.62665 4.37665 4.5 7 4.5L11.1893 4.5L9.46967 2.78033C9.17678 2.48744 9.17678 2.01256 9.46967 1.71967C9.76256 1.42678 10.2374 1.42678 10.5303 1.71967L13.5303 4.71967Z" fill="currentColor" fill-opacity="0.85"/>
</svg>
