<svg width="16" height="16" viewBox="0 0 16 16" fill="currentColor" xmlns="http://www.w3.org/2000/svg"><path fill-rule="evenodd" clip-rule="evenodd" d="M12.456 6.447a.75.75 0 0 1 1.06 0L15.769 8.7a.75.75 0 0 1 0 1.06l-2.251 2.252a.75.75 0 0 1-1.061-1.06l1.721-1.722-1.721-1.721a.75.75 0 0 1 0-1.06zM3.551 6.447a.75.75 0 0 1 0 1.06L1.831 9.23l1.72 1.721a.75.75 0 0 1-1.06 1.061L.239 9.759a.75.75 0 0 1 0-1.06l2.252-2.252a.75.75 0 0 1 1.06 0zM8.24 12.023v-.005a4.467 4.467 0 0 1-.045-.435c-.02-.289-.033-.664-.041-1.101-.017-.83-.017-1.845-.017-2.85V6.57h1.262a.9.9 0 0 0 0-1.8H8.137V2.886a.9.9 0 1 0-1.8 0v1.885h-.574a.9.9 0 0 0 0 1.8h.574v1.068c0 .998 0 2.03.017 2.879.01.447.023.855.045 1.185.02.292.05.631.127.87.303.944 1.094 1.27 1.715 1.373.305.051.611.06.869.06.134 0 .24-.002.337-.004.12-.002.224-.004.343-.002a.9.9 0 1 0 .034-1.8c-.134-.002-.307 0-.464.003l-.251.002c-.229 0-.416-.008-.57-.034a.672.672 0 0 1-.258-.081l-.001-.002c-.011-.007-.024-.015-.04-.065z" fill="currentColor" fill-opacity=".85"/></svg>