<svg width="20" height="20" viewBox="0 0 20 20" fill="none" xmlns="http://www.w3.org/2000/svg"><path fill-rule="evenodd" clip-rule="evenodd" d="M3.75 3.75v12.5h12.5V3.75H3.75Zm-.945-.945c.195-.195.46-.305.737-.305h12.916A1.042 1.042 0 0 1 17.5 3.542v12.916a1.041 1.041 0 0 1-1.042 1.042H3.542A1.041 1.041 0 0 1 2.5 16.458V3.542c0-.277.11-.542.305-.737Z" fill="currentColor"/><path fill-rule="evenodd" clip-rule="evenodd" d="M13.805 12.669a.667.667 0 1 1-.943.942L10 10.75l-2.862 2.862a.667.667 0 0 1-.943-.942l2.862-2.862-2.862-2.862a.667.667 0 1 1 .943-.943L10 8.864l2.862-2.862a.667.667 0 1 1 .943.943l-2.862 2.862 2.862 2.862Z" fill="currentColor"/></svg>
