<svg width="16" height="16" viewBox="0 0 16 16" fill="none" xmlns="http://www.w3.org/2000/svg"><path d="m13.56 2.844-.279-.28c-.178-.152-.431-.152-.584 0l-1.726 1.727A4.85 4.85 0 0 0 8 3.25a4.86 4.86 0 0 0-4.875 4.875c0 1.143.38 2.184 1.016 2.996l-1.727 1.727c-.152.152-.152.406 0 .584l.305.279a.398.398 0 0 0 .558 0l1.727-1.727A4.848 4.848 0 0 0 8 13a4.86 4.86 0 0 0 4.875-4.875 4.85 4.85 0 0 0-1.041-2.97l1.726-1.727c.153-.153.153-.407 0-.584ZM4.345 8.125A3.657 3.657 0 0 1 8 4.469c.787 0 1.498.279 2.107.685l-5.103 5.104a3.79 3.79 0 0 1-.66-2.133Zm7.312 0A3.657 3.657 0 0 1 8 11.781a3.79 3.79 0 0 1-2.133-.66l5.104-5.103c.406.609.685 1.32.685 2.107Z" fill="currentColor"/></svg>
