<svg width="20" height="20" viewBox="0 0 20 20" fill="none" xmlns="http://www.w3.org/2000/svg"><path opacity=".01" fill="currentColor" d="M0 0h20v20H0z"/><path fill-rule="evenodd" clip-rule="evenodd" d="M15.125 6.125a1.5 1.5 0 1 1-3 0 1.5 1.5 0 0 1 3 0Zm1.47.977a3.126 3.126 0 0 1-5.932.023h-8.1a.813.813 0 0 1 0-1.625h8a3.126 3.126 0 0 1 6.126.006.82.82 0 0 1 .096-.006h.652a.813.813 0 0 1 0 1.625h-.652a.815.815 0 0 1-.19-.023ZM5.875 13.875a1.5 1.5 0 1 0 3 0 1.5 1.5 0 0 0-3 0Zm-1.461 1a3.126 3.126 0 0 0 5.923 0h7.1a.813.813 0 0 0 0-1.625h-7a3.126 3.126 0 0 0-6.124 0h-1.75a.813.813 0 0 0 0 1.625h1.85Z" fill="currentColor"/></svg>
