<svg width="16" height="16" viewBox="0 0 16 16" fill="none" xmlns="http://www.w3.org/2000/svg"><path fill-rule="evenodd" clip-rule="evenodd" d="M10.625 5.26a1.75 1.75 0 1 1 3.5 0 1.75 1.75 0 0 1-3.5 0Zm1.75-2.75a2.75 2.75 0 0 0-.6 5.435v4.044a.4.4 0 0 1-.4.4h-4a.6.6 0 0 0 0 1.2h4a1.6 1.6 0 0 0 1.6-1.6V7.945a2.751 2.751 0 0 0-.6-5.434ZM4.225 8.055a2.751 2.751 0 1 1-1.2 0V4.01a1.6 1.6 0 0 1 1.6-1.6h4a.6.6 0 0 1 0 1.2h-4a.4.4 0 0 0-.4.4v4.044Zm1.15 2.684a1.75 1.75 0 1 1-3.5 0 1.75 1.75 0 0 1 3.5 0Z" fill="currentColor"/></svg>
