<svg width="16" height="17" viewBox="0 0 16 17" fill="none" xmlns="http://www.w3.org/2000/svg"><path fill-rule="evenodd" clip-rule="evenodd" d="M.818 3.084a1.545 1.545 0 0 1 1.546-1.545h11.272a1.545 1.545 0 0 1 1.546 1.545v11.273a1.546 1.546 0 0 1-1.546 1.545H2.364a1.546 1.546 0 0 1-1.546-1.545V3.084Zm1.288-.257A.364.364 0 0 0 2 3.084v11.273a.364.364 0 0 0 .364.363h11.272a.364.364 0 0 0 .364-.363V3.084a.364.364 0 0 0-.364-.364H2.364a.364.364 0 0 0-.258.107Z" fill="currentColor"/><path fill-rule="evenodd" clip-rule="evenodd" d="M8.464 10.754h-1.37a30.184 30.184 0 0 1-.005-.36c0-.444.074-.81.22-1.096.147-.286.441-.608.881-.966.44-.359.704-.593.79-.704a.94.94 0 0 0 .199-.58.977.977 0 0 0-.352-.755c-.235-.21-.55-.314-.948-.314-.383 0-.704.11-.962.328-.257.218-.435.551-.531.999L5 7.134c.04-.641.312-1.185.82-1.633.506-.448 1.17-.671 1.994-.671.867 0 1.556.226 2.068.679.512.453.768.98.768 1.582 0 .333-.094.648-.282.945-.188.297-.59.702-1.205 1.214-.32.265-.517.478-.594.64-.077.16-.112.448-.105.864ZM7.095 12.784v-1.51h1.509v1.51h-1.51Z" fill="currentColor"/></svg>
