<svg width="56" height="56" viewBox="0 0 56 56" fill="none" xmlns="http://www.w3.org/2000/svg">
<rect opacity="0.01" width="56" height="56" fill="white"/>
<path d="M9 11C9 9.89543 9.89543 9 11 9H39.4913C40.1946 9 40.8461 9.36932 41.2073 9.97267L52 28L41.2073 46.0273C40.8461 46.6307 40.1946 47 39.4913 47H11C9.89543 47 9 46.1046 9 45V11Z" fill="#027BF3"/>
<rect x="16" y="17" width="2" height="21" fill="white"/>
<rect x="20" y="21" width="2" height="17" fill="white"/>
<rect x="24" y="26" width="2" height="12" fill="white"/>
<rect x="36" y="18" width="2" height="20" fill="white"/>
<rect x="28" y="23" width="2" height="15" fill="white"/>
<rect x="32" y="25" width="2" height="13" fill="white"/>
</svg>
