<svg width="20" height="20" viewBox="0 0 20 20" fill="none" xmlns="http://www.w3.org/2000/svg">
<path fill-rule="evenodd" clip-rule="evenodd" d="M17.0682 6.47426C17.263 6.96653 16.9003 7.50024 16.3708 7.50024H12.5805C11.9789 7.50024 11.6221 6.82736 11.9598 6.32935L12.6679 5.28488C11.8697 4.83258 10.9555 4.58357 9.99958 4.58357C7.41297 4.58357 5.20117 6.41078 4.69183 8.91327C4.60004 9.36426 4.16003 9.65545 3.70904 9.56366C3.25805 9.47187 2.96686 9.03186 3.05865 8.58087C3.72525 5.30566 6.6168 2.9169 9.99958 2.9169C11.2958 2.9169 12.5343 3.26779 13.6056 3.90198L14.3531 2.79943C14.6912 2.30077 15.4496 2.38414 15.6713 2.94434L17.0682 6.47426ZM6.39307 16.0984L5.6454 17.2011C5.3073 17.6998 4.54895 17.6164 4.32725 17.0562L2.93031 13.5263C2.73549 13.034 3.09826 12.5003 3.62768 12.5003H7.41797C8.01965 12.5003 8.37639 13.1732 8.03873 13.6712L7.33069 14.7155C8.12905 15.1679 9.04328 15.417 9.99937 15.417C12.5883 15.417 14.8016 13.5865 15.3084 11.0809C15.3996 10.6298 15.8393 10.3381 16.2904 10.4294C16.7415 10.5206 17.0332 10.9603 16.942 11.4114C16.2787 14.6906 13.3853 17.0836 9.99937 17.0836C8.703 17.0836 7.46443 16.7327 6.39307 16.0984Z" fill="currentColor"/>
</svg>
