<svg width="24" height="24" viewBox="0 0 24 24" xmlns="http://www.w3.org/2000/svg">
    <path fill-rule="evenodd" clip-rule="evenodd" d="M5 7.39902C5 7.17811 5.17909 6.99902 5.4 6.99902H8.6C8.82091 6.99902 9 7.17811 9 7.39902V8.59902C9 8.81994 8.82091 8.99902 8.6 8.99902H5.4C5.17909 8.99902 5 8.81994 5 8.59902V7.39902ZM10 7.39902C10 7.17811 10.1791 6.99902 10.4 6.99902H13.6C13.8209 6.99902 14 7.17811 14 7.39902V8.59902C14 8.81994 13.8209 8.99902 13.6 8.99902H10.4C10.1791 8.99902 10 8.81994 10 8.59902V7.39902ZM15.4 6.99902C15.1791 6.99902 15 7.17811 15 7.39902V8.59902C15 8.81994 15.1791 8.99902 15.4 8.99902H18.6C18.8209 8.99902 19 8.81994 19 8.59902V7.39902C19 7.17811 18.8209 6.99902 18.6 6.99902H15.4Z" fill="currentColor"/>
    <path fill-rule="evenodd" clip-rule="evenodd" d="M5 11.3971C5 11.1762 5.17909 10.9971 5.4 10.9971H8.6C8.82091 10.9971 9 11.1762 9 11.3971V12.5971C9 12.818 8.82091 12.9971 8.6 12.9971H5.4C5.17909 12.9971 5 12.818 5 12.5971V11.3971ZM10 11.3971C10 11.1762 10.1791 10.9971 10.4 10.9971H13.6C13.8209 10.9971 14 11.1762 14 11.3971V12.5971C14 12.818 13.8209 12.9971 13.6 12.9971H10.4C10.1791 12.9971 10 12.818 10 12.5971V11.3971ZM15.4 10.9971C15.1791 10.9971 15 11.1762 15 11.3971V12.5971C15 12.818 15.1791 12.9971 15.4 12.9971H18.6C18.8209 12.9971 19 12.818 19 12.5971V11.3971C19 11.1762 18.8209 10.9971 18.6 10.9971H15.4Z" fill="currentColor"/>
    <path fill-rule="evenodd" clip-rule="evenodd" d="M5 15.4C5 15.1791 5.17909 15 5.4 15H8.6C8.82091 15 9 15.1791 9 15.4V16.6C9 16.8209 8.82091 17 8.6 17H5.4C5.17909 17 5 16.8209 5 16.6V15.4ZM10 15.4C10 15.1791 10.1791 15 10.4 15H13.6C13.8209 15 14 15.1791 14 15.4V16.6C14 16.8209 13.8209 17 13.6 17H10.4C10.1791 17 10 16.8209 10 16.6V15.4ZM15.4 15C15.1791 15 15 15.1791 15 15.4V16.6C15 16.8209 15.1791 17 15.4 17H18.6C18.8209 17 19 16.8209 19 16.6V15.4C19 15.1791 18.8209 15 18.6 15H15.4Z" fill="currentColor"/>
</svg>
