<svg width="16" height="16" viewBox="0 0 16 16" fill="none" xmlns="http://www.w3.org/2000/svg">
<path fill-rule="evenodd" clip-rule="evenodd" d="M0.5 2.59546C0.5 1.44578 1.43131 0.513421 2.58098 0.512125L13.4143 0.499909C14.5673 0.499908 15.5 1.43265 15.5 2.58324L15.5 13.4142C15.5 14.5648 14.5673 15.4976 13.4167 15.4976L2.58333 15.4976C1.43274 15.4976 0.5 14.5648 0.5 13.4142L0.5 2.59546ZM13.8333 8.99951L13.8333 2.58324C13.8333 2.35312 13.6468 2.16658 13.4167 2.16658L2.58333 2.16658C2.35321 2.16658 2.16667 2.35312 2.16667 2.58324L2.16667 8.99951L13.8333 8.99951ZM13.8333 10.9995L2.16667 10.9995V13.4142C2.16667 13.6443 2.35321 13.8309 2.58333 13.8309L13.4171 13.8187C13.6471 13.8184 13.8333 13.6319 13.8333 13.402V10.9995Z" fill="currentColor"/>
</svg>
