<svg width="16" height="16" viewBox="0 0 16 16" fill="none" xmlns="http://www.w3.org/2000/svg">
<path fill-rule="evenodd" clip-rule="evenodd" d="M2.46967 4.71967C2.32902 4.86032 2.25 5.05109 2.25 5.25C2.25 5.44891 2.32902 5.63968 2.46967 5.78033L5.46967 8.78033C5.76256 9.07322 6.23744 9.07322 6.53033 8.78033C6.82322 8.48744 6.82322 8.01256 6.53033 7.71967L4.81066 6H9C10.7949 6 12.25 7.45507 12.25 9.25C12.25 11.0449 10.7949 12.5 9 12.5H8C7.58579 12.5 7.25 12.8358 7.25 13.25C7.25 13.6642 7.58579 14 8 14H9C11.6234 14 13.75 11.8734 13.75 9.25C13.75 6.62665 11.6234 4.5 9 4.5L4.81066 4.5L6.53033 2.78033C6.82322 2.48744 6.82322 2.01256 6.53033 1.71967C6.23744 1.42678 5.76256 1.42678 5.46967 1.71967L2.46967 4.71967Z" fill="currentColor" fill-opacity="0.85"/>
</svg>
