<svg width="24" height="24" viewBox="0 0 24 24" fill="none" xmlns="http://www.w3.org/2000/svg">
<path d="M3.75 4.25C3.75 3.97386 3.97386 3.75 4.25 3.75H19.75C20.0261 3.75 20.25 3.97386 20.25 4.25V19.75C20.25 20.0261 20.0261 20.25 19.75 20.25H4.25C3.97386 20.25 3.75 20.0261 3.75 19.75V4.25Z" stroke="var(--dl-viz-icon-main-color, currentColor)"/>
<path fill-rule="evenodd" clip-rule="evenodd" d="M7.68388 20.75H9.03205L10.6802 16.6707L10.6817 16.6713L11.15 15.5123L11.618 14.3539L12.7755 14.8215L20.75 18.0434V16.6945L13.2453 13.6624L12.0865 13.1943L13.4913 9.71741L13.9595 8.55843L13.9593 8.55833L16.104 3.25H14.7551L13.2679 6.9311L12.7997 8.08984L3.2766 4.24225C3.25917 4.32543 3.25 4.41164 3.25 4.5V5.57995L12.3313 9.24905L12.3319 9.24929L10.9273 12.7259L10.927 12.7265L10.9258 12.726L10.4575 13.885L9.98948 15.0434L8.83201 14.5758L3.25 12.3205V13.6687L9.52122 16.2024L7.68388 20.75Z" fill="var(--dl-viz-icon-main-color, currentColor)"/>
<path fill-rule="evenodd" clip-rule="evenodd" d="M18.25 7.625C18.25 8.66053 17.4105 9.5 16.375 9.5C15.3395 9.5 14.5 8.66053 14.5 7.625C14.5 6.58947 15.3395 5.75 16.375 5.75C17.4105 5.75 18.25 6.58947 18.25 7.625ZM9.5 10.125C9.5 11.1605 8.66053 12 7.625 12C6.58947 12 5.75 11.1605 5.75 10.125C5.75 9.08947 6.58947 8.25 7.625 8.25C8.66053 8.25 9.5 9.08947 9.5 10.125ZM14.5 18.25C15.8807 18.25 17 17.1307 17 15.75C17 14.3693 15.8807 13.25 14.5 13.25C13.1193 13.25 12 14.3693 12 15.75C12 17.1307 13.1193 18.25 14.5 18.25Z" fill="var(--dl-viz-icon-secondary-color, currentColor)"/>
</svg>
