<svg width="24" height="24" viewBox="0 0 20 20" fill="none" xmlns="http://www.w3.org/2000/svg">
<path d="M3 17L4.37223 16.0852C5.39928 15.4005 6.68492 15.2283 7.85594 15.6186L9.26491 16.0883C10.8983 16.6328 12.6968 16.0709 13.7298 14.6936L15 13" stroke="#027BF3"/>
<path d="M3.72169 11H2.33769V6.816L1.20169 7.888V6.696L2.53769 5.44H3.72169V11ZM5.29613 11.064C5.09879 11.064 4.93346 10.9973 4.80013 10.864C4.66679 10.7307 4.60013 10.5653 4.60013 10.368C4.60013 10.1653 4.66679 9.99733 4.80013 9.864C4.93346 9.73067 5.09879 9.664 5.29613 9.664C5.48813 9.664 5.65079 9.73067 5.78413 9.864C5.92279 9.99733 5.99213 10.1653 5.99213 10.368C5.99213 10.5653 5.92279 10.7307 5.78413 10.864C5.65079 10.9973 5.48813 11.064 5.29613 11.064ZM10.3614 11H6.52944V10.184C6.9401 9.83733 7.29477 9.53067 7.59344 9.264C7.8921 8.99733 8.13744 8.752 8.32944 8.528C8.52677 8.29867 8.67077 8.08 8.76144 7.872C8.85744 7.664 8.90544 7.448 8.90544 7.224C8.90544 6.91467 8.82277 6.67733 8.65744 6.512C8.4921 6.34667 8.24677 6.264 7.92144 6.264C7.76677 6.264 7.62277 6.28267 7.48944 6.32C7.3561 6.35733 7.2361 6.40533 7.12944 6.464C7.02277 6.51733 6.92677 6.57867 6.84144 6.648C6.76144 6.712 6.69477 6.77067 6.64144 6.824V5.896C6.6841 5.848 6.7481 5.79467 6.83344 5.736C6.9241 5.67733 7.03877 5.62133 7.17744 5.568C7.3161 5.50933 7.47877 5.46133 7.66544 5.424C7.85744 5.38667 8.07877 5.368 8.32944 5.368C8.65477 5.368 8.9401 5.41067 9.18544 5.496C9.4361 5.576 9.6441 5.69333 9.80944 5.848C9.9801 5.99733 10.1081 6.17867 10.1934 6.392C10.2788 6.6 10.3214 6.83467 10.3214 7.096C10.3214 7.4 10.2681 7.68533 10.1614 7.952C10.0548 8.21333 9.90277 8.46667 9.70544 8.712C9.51344 8.952 9.2761 9.18933 8.99344 9.424C8.7161 9.65333 8.4041 9.89067 8.05744 10.136H10.3614V11ZM17.2348 6.992L15.9468 10.328H14.9468L13.6668 6.912V11H12.6348V5.44H14.3228L15.6348 8.824L16.9227 5.44H18.6588V11H17.2348V6.992Z" fill="var(--dl-viz-icon-secondary-color)"/>
</svg>
