<?xml version="1.0" encoding="UTF-8"?>
<svg width="24" height="24" viewBox="0 0 24 24" fill="none" xmlns="http://www.w3.org/2000/svg">
<path fill-rule="evenodd" clip-rule="evenodd" d="M16.0963 17.0458C14.9784 17.9543 13.5528 18.4988 12 18.4988C8.41015 18.4988 5.5 15.5886 5.5 11.9988C5.5 8.74899 7.88491 6.05623 11 5.57523V2.55078C6.22334 3.05048 2.5 7.08981 2.5 11.9988C2.5 17.2455 6.75329 21.4988 12 21.4988C14.5066 21.4988 16.7864 20.528 18.484 18.942L16.0963 17.0458Z" fill="var(--dl-viz-icon-main-color, currentColor)"/>
<path fill-rule="evenodd" clip-rule="evenodd" d="M13.5 5.67337C16.3667 6.35053 18.5 8.92585 18.5 11.9994C18.5 13.1069 18.223 14.1497 17.7346 15.0623L20.1104 16.9489C20.9919 15.5075 21.5 13.8128 21.5 11.9994C21.5 7.26313 18.034 3.33636 13.5 2.61719V5.67337Z" fill="var(--dl-viz-icon-secondary-color, currentColor)"/>
</svg>