<svg width="24" height="24" viewBox="0 0 24 24" fill="none" xmlns="http://www.w3.org/2000/svg">
<path fill-rule="evenodd" clip-rule="evenodd" d="M8 4V6.04928C7.18374 5.99481 6.3909 6.34343 5.87931 6.9848L4 9.34085V4C4 3.44772 4.44772 3 5 3H7C7.55228 3 8 3.44772 8 4ZM4.17265 13.9354C4.11938 14.0021 4.06156 14.0632 4 14.1184V18.775L6.62035 17.5917C6.93465 17.4498 7.28689 17.4091 7.62634 17.4755L8 17.5486V9.1371L4.17265 13.9354ZM8 18.7724L7.38581 18.6522C7.30094 18.6356 7.21288 18.6458 7.13431 18.6813L4.00442 20.0947C4.05211 20.6025 4.47964 21 5 21H7C7.55228 21 8 20.5523 8 20V18.7724ZM10 18.961C10.157 18.9124 10.307 18.8405 10.4444 18.7463L14 16.3112V20C14 20.5523 13.5523 21 13 21H11C10.4477 21 10 20.5523 10 20V18.961ZM14 14.8464L10 17.5859V12C10 11.4477 10.4477 11 11 11H13C13.5523 11 14 11.4477 14 12V14.8464ZM16 16.0982V20C16 20.5523 16.4477 21 17 21H19C19.5523 21 20 20.5523 20 20V14.3048L18.3104 15.958C17.8478 16.4106 17.1541 16.5499 16.5467 16.3122L16 16.0982ZM20 12.6078L17.4431 15.1095C17.3275 15.2226 17.154 15.2574 17.0022 15.198L16 14.8058V9C16 8.44772 16.4477 8 17 8H19C19.5523 8 20 8.44772 20 9V12.6078Z" fill="var(--dl-viz-icon-main-color)"/>
<path fill-rule="evenodd" clip-rule="evenodd" d="M1.99969 21.0001H22.0001V12.3481L18.3105 15.9581C17.8479 16.4107 17.1542 16.55 16.5468 16.3123L15.1304 15.758C15.0024 15.7079 14.8571 15.7243 14.7442 15.8017L10.4446 18.7464C10.0787 18.997 9.62399 19.0903 9.18607 19.0046L7.38592 18.6523C7.30106 18.6357 7.213 18.6459 7.13442 18.6814L1.99969 21.0001Z" fill="var(--dl-viz-icon-secondary-color)"/>
<path d="M20 3L13.2687 7.78603C13.0745 7.92412 12.8373 7.98831 12.6 7.96705L7.92274 7.54799C7.58829 7.51803 7.26113 7.65792 7.05174 7.92043L3 13" stroke="var(--dl-viz-icon-secondary-color)" stroke-width="1.2" stroke-linecap="round" stroke-linejoin="round"/>
</svg>