<?xml version="1.0" encoding="UTF-8"?>
<svg width="24px" height="24px" viewBox="0 0 24 24" version="1.1" xmlns="http://www.w3.org/2000/svg" xmlns:xlink="http://www.w3.org/1999/xlink">
    <!-- Generator: Sketch 51.3 (57544) - http://www.bohemiancoding.com/sketch -->
    <defs></defs>
    <g id="Page-1" stroke="none" stroke-width="1" fill="none" fill-rule="evenodd">
        <g id="Artboard-3" transform="translate(-32.000000, -168.000000)">
            <g id="Files/List/ic-wiz" transform="translate(32.000000, 168.000000)">
                <rect id="Rectangle-17" fill="#7A7A7A" opacity="0" x="0" y="0" width="24" height="24"></rect>
                <path d="M2,19.1388167 L2,18 L6.77656178,11.4865067 C7.10316291,11.0411415 7.72896526,10.9448642 8.17433044,11.2714653 C8.22819825,11.3109684 8.27797234,11.3557696 8.32290685,11.4051975 L9.12497321,12.2874705 C9.49648014,12.6961281 10.1289285,12.7262447 10.5375861,12.3547378 C10.6018084,12.2963539 10.6581566,12.2298573 10.7052099,12.1569246 L14.262444,6.64321182 C14.5618524,6.1791288 15.1807845,6.04563364 15.6448675,6.34504205 C15.7299261,6.39991853 15.8061596,6.46739153 15.8709619,6.54515429 L16.6904826,7.52857917 C17.0440467,7.95285607 17.6746114,8.01018013 18.0988883,7.65661605 C18.1585072,7.60693362 18.2121401,7.55047992 18.2587039,7.48839477 L22,2.5 L22,8.31168761 L17.19057,13.420371 L16.2636906,12.9309786 C15.4045739,12.477365 14.3604597,12.5625471 13.5862286,13.1494142 L9.71218418,16.0859399 L8.43609329,15.6826952 C7.67543525,15.4423272 6.84573545,15.5794037 6.20281167,16.0516605 L2,19.1388167 Z" id="Combined-Shape" fill="var(--dl-viz-icon-main-color)" fill-rule="nonzero"></path>
                <path d="M2,21 L22,21 L22,10.5 L18.0218239,14.7257071 C17.7135264,15.0531875 17.2245321,15.134553 16.826801,14.924551 L15.5633221,14.2574341 C15.2196754,14.0759886 14.8020298,14.1100614 14.4923373,14.3448083 L10.4121953,17.437556 C10.1536657,17.6335214 9.81613918,17.6919 9.50680889,17.5941516 L7.98412244,17.1129827 C7.67985922,17.0168355 7.3479793,17.0716661 7.09080979,17.2605688 L2,21 Z" id="Path-4" fill="var(--dl-viz-icon-secondary-color)" fill-rule="nonzero"></path>
            </g>
        </g>
    </g>
</svg>
