<svg width="24" height="24" viewBox="0 0 24 24" fill="none" xmlns="http://www.w3.org/2000/svg">
<path d="M3.75 4.25C3.75 3.97386 3.97386 3.75 4.25 3.75H19.75C20.0261 3.75 20.25 3.97386 20.25 4.25V19.75C20.25 20.0261 20.0261 20.25 19.75 20.25H4.25C3.97386 20.25 3.75 20.0261 3.75 19.75V4.25Z" stroke="#027BF3"/>
<path fill-rule="evenodd" clip-rule="evenodd" d="M7.68388 20.75L9.52122 16.2024L3.25 13.6687V12.3205L8.83201 14.5758L9.98948 15.0434L10.4575 13.885L10.9258 12.726L10.9273 12.7266L11.864 10.4081L12.3322 9.24939L3.25 5.57995V4.5C3.25 4.41164 3.25917 4.32543 3.2766 4.24225L12.7997 8.08984L13.2679 6.9311L14.7551 3.25H16.1033L13.9587 8.55809L13.4913 9.71741L12.0863 13.1949L20.75 16.6953V18.0434L12.7755 14.8215L11.618 14.3539L11.15 15.5123L10.6817 16.6713L10.6802 16.6707L9.03205 20.75H7.68388Z" fill="#027BF3"/>
<path fill-rule="evenodd" clip-rule="evenodd" d="M20.7519 18.043L10.4609 13.8852L14.7578 3.25H19.5019C20.1923 3.25 20.7519 3.80964 20.7519 4.5V18.043Z" fill="var(--dl-viz-icon-secondary-color)"/>
</svg>
