<svg width="16" height="16" viewBox="0 0 16 16" fill="none" xmlns="http://www.w3.org/2000/svg">
<path d="M0 14L5.06047 12.1599C5.34959 12.0547 5.65907 12.0177 5.96482 12.0517L9.48667 12.443C9.82337 12.4804 10.164 12.4317 10.4768 12.3014L16 10V14C16 15.1046 15.1046 16 14 16H2C0.895431 16 0 15.1046 0 14V14Z" fill="currentColor"/>
<path d="M0 12.5L4.55991 10.6761C4.8493 10.5603 5.16173 10.5138 5.47228 10.5402L9.17382 10.8552C9.5187 10.8846 9.86529 10.8239 10.1797 10.6792L16 7.99998V1L10 6.5L5 7L0 10.5V12.5Z" fill="#03CEA4"/>
</svg>
