<?xml version="1.0" encoding="UTF-8"?>
<svg width="24px" height="24px" viewBox="0 0 24 24" version="1.1" xmlns="http://www.w3.org/2000/svg">
    <defs></defs>
    <g id="Page-1" stroke="none" stroke-width="1" fill="none" fill-rule="evenodd">
        <g id="Artboard-3" transform="translate(-80.000000, -120.000000)">
            <g id="Files/List/ic-wiz" transform="translate(80.000000, 120.000000)">
                <rect id="Rectangle-17" fill="#FFFFFF" opacity="0" x="0" y="0" width="24" height="24"></rect>
                <path d="M9.5,5 L13.5,5 C13.7761424,5 14,5.22385763 14,5.5 L14,6.5 C14,6.77614237 13.7761424,7 13.5,7 L9.5,7 C9.22385763,7 9,6.77614237 9,6.5 L9,5.5 C9,5.22385763 9.22385763,5 9.5,5 Z M2.5,5 L6.5,5 C6.77614237,5 7,5.22385763 7,5.5 L7,6.5 C7,6.77614237 6.77614237,7 6.5,7 L2.5,7 C2.22385763,7 2,6.77614237 2,6.5 L2,5.5 C2,5.22385763 2.22385763,5 2.5,5 Z M16.5,5 L20.5,5 C20.7761424,5 21,5.22385763 21,5.5 L21,6.5 C21,6.77614237 20.7761424,7 20.5,7 L16.5,7 C16.2238576,7 16,6.77614237 16,6.5 L16,5.5 C16,5.22385763 16.2238576,5 16.5,5 Z" id="Combined-Shape" fill="var(--dl-viz-icon-secondary-color)" fill-rule="nonzero"></path>
                <path d="M9.5,9 L13.5,9 C13.7761424,9 14,9.22385763 14,9.5 L14,12.5 C14,12.7761424 13.7761424,13 13.5,13 L9.5,13 C9.22385763,13 9,12.7761424 9,12.5 L9,9.5 C9,9.22385763 9.22385763,9 9.5,9 Z M16.5,9 L20.5,9 C20.7761424,9 21,9.22385763 21,9.5 L21,12.5 C21,12.7761424 20.7761424,13 20.5,13 L16.5,13 C16.2238576,13 16,12.7761424 16,12.5 L16,9.5 C16,9.22385763 16.2238576,9 16.5,9 Z M9.5,15 L13.5,15 C13.7761424,15 14,15.2238576 14,15.5 L14,18.5 C14,18.7761424 13.7761424,19 13.5,19 L9.5,19 C9.22385763,19 9,18.7761424 9,18.5 L9,15.5 C9,15.2238576 9.22385763,15 9.5,15 Z M16.5,15 L20.5,15 C20.7761424,15 21,15.2238576 21,15.5 L21,18.5 C21,18.7761424 20.7761424,19 20.5,19 L16.5,19 C16.2238576,19 16,18.7761424 16,18.5 L16,15.5 C16,15.2238576 16.2238576,15 16.5,15 Z" id="Combined-Shape" fill="var(--dl-viz-icon-main-color)" fill-rule="nonzero"></path>
                <path d="M2.5,9 L6.5,9 C6.77614237,9 7,9.22385763 7,9.5 L7,12.5 C7,12.7761424 6.77614237,13 6.5,13 L2.5,13 C2.22385763,13 2,12.7761424 2,12.5 L2,9.5 C2,9.22385763 2.22385763,9 2.5,9 Z M2.5,15 L6.5,15 C6.77614237,15 7,15.2238576 7,15.5 L7,18.5 C7,18.7761424 6.77614237,19 6.5,19 L2.5,19 C2.22385763,19 2,18.7761424 2,18.5 L2,15.5 C2,15.2238576 2.22385763,15 2.5,15 Z" id="Combined-Shape" fill="var(--dl-viz-icon-secondary-color)" fill-rule="nonzero"></path>
            </g>
        </g>
    </g>
</svg>
