<?xml version="1.0" encoding="UTF-8"?>
<svg width="24px" height="24px" viewBox="0 0 24 24" version="1.1" xmlns="http://www.w3.org/2000/svg" xmlns:xlink="http://www.w3.org/1999/xlink">
    <!-- Generator: Sketch 51.3 (57544) - http://www.bohemiancoding.com/sketch -->
    <defs></defs>
    <g id="Page-1" stroke="none" stroke-width="1" fill="none" fill-rule="evenodd">
        <g id="Artboard-3" transform="translate(-32.000000, -72.000000)">
            <g id="Group-115" transform="translate(32.000000, 72.000000)">
                <rect id="Rectangle-17" fill="#7A7A7A" opacity="0" x="0" y="0" width="24" height="24"></rect>
                <path d="M3.83817196,10.7142092 L2.02061818,11.9132898 L0.951053788,11.2108577 C0.48942234,10.9076831 0.360967702,10.2876852 0.664142323,9.82605379 C0.967316945,9.36442234 1.58731476,9.2359677 2.04894621,9.53914232 L3.83817196,10.7142092 Z M7.47825145,13.104817 L11.7873564,15.9348046 C11.9433377,16.0372447 12.1433852,16.0442967 12.3061927,15.9530943 L22.0112736,10.5164518 C22.4931074,10.2465356 23.102521,10.4183288 23.3724371,10.9001625 C23.6423532,11.3819963 23.4705601,11.9914099 22.9887264,12.261326 L13.2836454,17.6979686 C12.469608,18.1539803 11.4693706,18.1187205 10.689464,17.6065199 L5.66069768,14.3038976 L7.47825145,13.104817 Z" id="Combined-Shape" fill="var(--dl-viz-icon-secondary-color, currentColor)" fill-rule="nonzero"></path>
                <path d="M2.05068069,15.4874938 C1.58967978,15.7916263 0.969416557,15.6644594 0.665284012,15.2034585 C0.361151466,14.7424576 0.488318402,14.1221943 0.949319313,13.8180618 L7.43115491,9.54185081 C7.98415086,9.17702709 8.65934301,9.04661743 9.30842315,9.17926674 L14.8790075,10.3176996 C15.0491218,10.3524651 15.2250929,10.2964881 15.3438576,10.1698293 L21.7705263,3.31599116 C22.1482939,2.91311395 22.7811316,2.89275863 23.1840088,3.27052628 C23.5868861,3.64829394 23.6072414,4.28113163 23.2294737,4.68400884 L16.8028051,11.5378469 C16.2089815,12.1711409 15.3291257,12.451026 14.4785542,12.2771989 L8.90796993,11.138766 C8.7781539,11.1122361 8.64311547,11.138318 8.53251628,11.2112828 L2.05068069,15.4874938 Z" id="Path-35" fill="var(--dl-viz-icon-main-color, currentColor)" fill-rule="nonzero"></path>
            </g>
        </g>
    </g>
</svg>
