<svg width="24" height="24" viewBox="0 0 24 24" fill="none" xmlns="http://www.w3.org/2000/svg">
<path d="M3.75 4.25C3.75 3.97386 3.97386 3.75 4.25 3.75H19.75C20.0261 3.75 20.25 3.97386 20.25 4.25V19.75C20.25 20.0261 20.0261 20.25 19.75 20.25H4.25C3.97386 20.25 3.75 20.0261 3.75 19.75V4.25Z" stroke="var(--dl-viz-icon-main-color, currentColor)"/>
<path fill-rule="evenodd" clip-rule="evenodd" d="M7.68388 20.75H9.03205L10.6802 16.6707L10.6817 16.6713L11.15 15.5123L11.618 14.3539L12.7755 14.8215L20.75 18.0434V16.6945L13.2453 13.6624L12.0865 13.1943L13.4913 9.71741L13.9595 8.55843L13.9593 8.55833L16.104 3.25H14.7551L13.2679 6.9311L12.7997 8.08984L3.2766 4.24225C3.25917 4.32543 3.25 4.41164 3.25 4.5V5.57995L12.3313 9.24905L12.3319 9.24929L10.9273 12.7259L10.927 12.7265L10.9258 12.726L10.4575 13.885L9.98948 15.0434L8.83201 14.5758L3.25 12.3205V13.6687L9.52122 16.2024L7.68388 20.75Z" fill="var(--dl-viz-icon-main-color, currentColor)"/>
<circle cx="13.25" cy="12" r="2.25" fill="var(--dl-viz-icon-secondary-color, currentColor)" stroke="var(--dl-viz-icon-secondary-color, currentColor)" stroke-width="3"/>
<circle cx="13.25" cy="12" r="5.75" stroke="var(--dl-viz-icon-secondary-color, currentColor)"/>
</svg>
