<svg width="24" height="24" viewBox="0 0 24 24" fill="none" xmlns="http://www.w3.org/2000/svg">
    <circle cx="7" cy="7" r="3" stroke="var(--dl-viz-icon-main-color, currentColor)" stroke-width="2"/>
    <circle cx="17" cy="17" r="3" stroke="var(--dl-viz-icon-main-color, currentColor)" stroke-width="2"/>
    <circle cx="7" cy="17" r="3" stroke="var(--dl-viz-icon-main-color, currentColor)" stroke-width="2"/>
    <path fill-rule="evenodd" clip-rule="evenodd" d="M17 4C16.4477 4 16 4.44772 16 5V6H15C14.4477 6 14 6.44772 14 7C14 7.55228 14.4477 8 15 8H16V9C16 9.55228 16.4477 10 17 10C17.5523 10 18 9.55228 18 9V8H19C19.5523 8 20 7.55228 20 7C20 6.44772 19.5523 6 19 6H18V5C18 4.44772 17.5523 4 17 4Z" fill="var(--dl-viz-icon-secondary-color, currentColor)"/>
</svg>
