<svg width="16" height="17" viewBox="0 0 16 17" fill="none" xmlns="http://www.w3.org/2000/svg">
<path fill-rule="evenodd" clip-rule="evenodd" d="M5.83546 2.74361C6.79804 1.07862 9.20157 1.07863 10.1641 2.74362L15.0811 11.2486C16.0446 12.9153 14.8419 14.9999 12.9168 14.9999L3.08283 14.9999C1.15769 14.9999 -0.0450423 12.9153 0.918499 11.2486L5.83546 2.74361ZM7.99992 5.4999C8.41414 5.4999 8.74992 5.83568 8.74992 6.2499V8.2499C8.74992 8.66411 8.41414 8.9999 7.99992 8.9999C7.58571 8.9999 7.24992 8.66411 7.24992 8.2499V6.2499C7.24992 5.83568 7.58571 5.4999 7.99992 5.4999ZM8.99992 11.2499C8.99992 11.8022 8.55221 12.2499 7.99992 12.2499C7.44764 12.2499 6.99992 11.8022 6.99992 11.2499C6.99992 10.6976 7.44764 10.2499 7.99992 10.2499C8.55221 10.2499 8.99992 10.6976 8.99992 11.2499Z" fill="#E0B509"/>
</svg>
