<?xml version="1.0" encoding="UTF-8"?>
<svg width="56px" height="56px" viewBox="0 0 56 56" version="1.1" xmlns="http://www.w3.org/2000/svg" xmlns:xlink="http://www.w3.org/1999/xlink">
    <!-- Generator: Sketch 51.2 (57519) - http://www.bohemiancoding.com/sketch -->
    <defs></defs>
    <g id="Page-1" stroke="none" stroke-width="1" fill="none" fill-rule="evenodd">
        <g id="Group-3">
            <rect id="Rectangle-5" fill="#FFFFFF" fill-rule="nonzero" opacity="0" x="0" y="0" width="56" height="56"></rect>
            <g id="Group-2" transform="translate(9.000000, 9.000000)">
                <g id="Group-5">
                    <path d="M2,-1.42108547e-14 L30.4913405,-1.42108547e-14 C31.1945564,-1.55891958e-14 31.846104,0.369316542 32.2073217,0.97266917 L43,19 L32.2073217,37.0273308 C31.846104,37.6306835 31.1945564,38 30.4913405,38 L2,38 C0.8954305,38 -5.41584437e-15,37.1045695 -5.55111512e-15,36 L-3.99680289e-15,2 C-4.13207364e-15,0.8954305 0.8954305,-1.40079486e-14 2,-1.42108547e-14 Z" id="Rectangle-2" fill="#FFCC00" fill-rule="nonzero"></path>
                    <path d="M15.3133971,20.3514644 L15.3133971,25 L12.9019139,25 L12.9019139,20.3668061 L9,14 L11.645933,14 L14.2583732,18.4644351 L16.9545455,14 L19.1818182,14 L15.3133971,20.3514644 Z M26.3995215,15.8410042 L26.3995215,25 L24.0047847,25 L24.0047847,15.8410042 L20.4043062,15.8410042 L20.4043062,14 L30,14 L30,15.8410042 L26.3995215,15.8410042 Z" id="YT" fill="#000000"></path>
                </g>
            </g>
        </g>
    </g>
</svg>
