<svg width="230" height="230" fill="none" xmlns="http://www.w3.org/2000/svg"><mask id="a" style="mask-type:alpha" maskUnits="userSpaceOnUse" x="29" y="63" width="120" height="120"><path d="M89 63.5c32.861 0 59.499 26.64 59.499 59.5 0 32.861-26.638 59.499-59.499 59.499-32.86 0-59.5-26.638-59.5-59.499 0-32.86 26.64-59.5 59.5-59.5z" fill="#000"/></mask><g mask="url(#a)"><mask id="b" style="mask-type:alpha" maskUnits="userSpaceOnUse" x="-164" y="-53" width="708" height="399"><path fill="#fff" d="M-163.45-52.297h706.986v397.679H-163.45z"/></mask><g mask="url(#b)"><path fill="#fff" d="M-275.133-35.731h543.854v305.918h-543.854z"/><g filter="url(#c)"><path d="M-69.47 185.968c66.623 74.701 129.877 135.738 99.92 162.456-29.958 26.718-108.252-12.18-174.874-86.881-66.623-74.701-79.155-168.798-49.197-195.515 29.957-26.718 57.528 45.239 124.15 119.94z" fill="#FF764D"/></g><g filter="url(#d)"><path d="M-104.188 97.155C-30.652 29.25 44.745-18.307-22.348-90.962c-67.093-72.655-181.095-76.504-254.631-8.598-73.536 67.907-42.206 217.641 24.887 290.296s74.368-25.674 147.904-93.58z" fill="#FF764D"/></g><g filter="url(#e)"><path d="M179.069 276.38c73.536-67.907 148.932-115.462 81.84-188.117C193.816 15.608 79.814 11.758 6.278 79.665-67.26 147.57-35.928 297.305 31.165 369.96c67.093 72.655 74.368-25.674 147.904-93.58z" fill="#FF764D"/></g><g filter="url(#f)"><path d="M-82.168-51.908C-152.945 18.87-208.092 87.685-249.78 45.998c-41.687-41.686-18.104-132.857 52.673-203.634 70.777-70.777 181.661-71.002 223.348-29.315C67.93-145.264-11.39-122.685-82.168-51.908z" fill="#FF764D"/></g><g filter="url(#g)"><path d="M60.768 71.434C131.545.657 186.692-68.158 228.378-26.472c41.687 41.687 18.105 132.857-52.672 203.635-70.777 70.777-181.662 71.002-223.349 29.315-41.686-41.687 37.634-64.266 108.41-135.044z" fill="#FF764D"/></g><g filter="url(#h)"><path d="M201.089 127.317C130.311 198.094 75.165 266.91 33.478 225.223-8.21 183.536 15.373 92.366 86.15 21.589 156.928-49.19 267.812-49.413 309.499-7.726c41.687 41.686-37.633 64.266-108.41 135.043z" fill="#FF764D"/></g><g filter="url(#i)"><path d="M210.81 36.096c95.705 95.705 90.032 316.069 32.011 374.09-58.02 58.021-182.64 27.472-278.345-68.234-95.705-95.705-93.817-247.836-35.796-305.856 58.02-58.021 186.425-95.706 282.13 0z" fill="url(#j)"/></g><g filter="url(#k)"><path d="M53.221 283.881c-70.777 70.777-125.923 139.592-167.61 97.905-41.687-41.686-18.105-132.856 52.672-203.634 70.778-70.777 181.662-71.002 223.349-29.315 41.687 41.687-37.633 64.266-108.41 135.044z" fill="#FF764D"/></g><g filter="url(#l)"><path d="M53.221 283.881c-70.777 70.777-125.923 139.592-167.61 97.905-41.687-41.686-18.105-132.856 52.672-203.634 70.778-70.777 181.662-71.002 223.349-29.315 41.687 41.687-37.633 64.266-108.41 135.044z" fill="#FF764D"/></g><g filter="url(#m)"><path d="M71.893 145.505c-95.705 95.705-90.032 316.07-32.011 374.091 58.02 58.02 182.64 27.471 278.345-68.234 95.705-95.705 93.817-247.836 35.797-305.857-58.021-58.02-186.426-95.705-282.13 0z" fill="url(#n)"/></g></g></g><path d="M147.499 123c0-32.308-26.191-58.5-58.499-58.5-32.309 0-58.5 26.192-58.5 58.5s26.192 58.499 58.5 58.499 58.499-26.191 58.499-58.499zm1 0c0 32.861-26.638 59.499-59.499 59.499-32.86 0-59.5-26.638-59.5-59.499 0-32.86 26.64-59.5 59.5-59.5 32.861 0 59.499 26.64 59.499 59.5z" fill="url(#o)"/><path d="M112.757 92.586a2 2 0 0 1 2.829 0l4.242 4.242a2 2 0 0 1 0 2.828l-22.172 22.171a2 2 0 0 0 0 2.828l21.74 21.741a2 2 0 0 1 0 2.829l-4.242 4.243a2 2 0 0 1-2.828 0l-21.741-21.741a2 2 0 0 0-2.828 0l-21.67 21.669a2 2 0 0 1-2.827 0l-4.243-4.242a2 2 0 0 1 0-2.828l21.67-21.67a2 2 0 0 0 0-2.828l-22.101-22.1a2 2 0 0 1 0-2.829l4.242-4.243a2.001 2.001 0 0 1 2.83 0l22.1 22.101a2 2 0 0 0 2.828 0l22.171-22.171z" fill="url(#p)"/><path d="M193 87h6v6h-6v-6z" fill="#fff"/><path d="M196.5 49.5v41h-41v-41h41zm-40 40h39v-39h-39v39z" fill="#fff"/><path d="M153 47h6v6h-6v-6zM153 87h6v6h-6v-6zM193 47h6v6h-6v-6z" fill="#fff"/><mask id="q" style="mask-type:alpha" maskUnits="userSpaceOnUse" x="155" y="95" width="43" height="50"><path d="M176.287 95.5c8.19 0 14.828 6.645 14.828 14.842l-.011.559c-.213 5.753-3.697 10.668-8.643 12.938-.005.002-.028.015-.053.07a.533.533 0 0 0-.038.238.514.514 0 0 0 .061.227c.027.046.047.053.049.054 8.224 2.506 14.291 9.93 14.734 18.831a1.186 1.186 0 0 1-1.068 1.234l-.125.007h-39.326a1.188 1.188 0 0 1-1.193-1.241c.441-8.87 6.468-16.274 14.648-18.806.002 0 .022-.006.05-.054a.51.51 0 0 0 .06-.226.544.544 0 0 0-.039-.238c-.025-.055-.048-.067-.053-.07-4.975-2.259-8.484-7.188-8.698-12.962l-.011-.561c0-8.197 6.639-14.842 14.828-14.842z" fill="#000"/></mask><g mask="url(#q)"><mask id="r" style="mask-type:alpha" maskUnits="userSpaceOnUse" x="127" y="85" width="157" height="89"><path fill="#fff" d="M127.982 85.972h155.215v87.419H127.982z"/></mask><g mask="url(#r)"><path fill="#fff" d="M127.981 85.972h155.215v87.419H127.981z"/><g filter="url(#s)"><path d="M186.676 149.325c19.014 21.347 37.067 38.788 28.517 46.423-8.55 7.635-30.895-3.48-49.909-24.827-19.014-21.346-22.59-48.235-14.041-55.87 8.55-7.635 16.419 12.928 35.433 34.274z" fill="#AAA"/></g><g filter="url(#t)"><path d="M176.768 123.947c20.987-19.405 42.506-32.995 23.357-53.757-19.148-20.761-51.684-21.861-72.671-2.456-20.987 19.404-12.045 62.192 7.103 82.954 19.148 20.762 21.224-7.337 42.211-26.741z" fill="#AAA"/></g><g filter="url(#u)"><path d="M257.61 175.161c20.987-19.405 42.505-32.994 23.357-53.756-19.148-20.762-51.684-21.862-72.671-2.457-20.987 19.405-12.045 62.193 7.103 82.955s21.224-7.337 42.211-26.742z" fill="#AAA"/></g><g filter="url(#v)"><path d="M183.053 81.35c-20.2 20.225-35.938 39.89-47.836 27.977-11.897-11.912-5.167-37.965 15.033-58.19 20.2-20.225 51.846-20.29 63.743-8.377 11.897 11.912-10.74 18.365-30.94 38.59z" fill="#AAA"/></g><g filter="url(#w)"><path d="M223.846 116.596c20.2-20.225 35.939-39.89 47.836-27.978 11.897 11.913 5.167 37.965-15.032 58.191-20.2 20.225-51.846 20.289-63.744 8.377-11.897-11.913 10.741-18.365 30.94-38.59z" fill="#AAA"/></g><g filter="url(#x)"><path d="M263.894 132.565c-20.2 20.225-35.939 39.89-47.836 27.977-11.897-11.912-5.167-37.965 15.033-58.19 20.199-20.225 51.846-20.29 63.743-8.377 11.897 11.912-10.741 18.365-30.94 38.59z" fill="#AAA"/></g><g filter="url(#y)"><path d="M266.668 106.498c27.314 27.349 25.695 90.32 9.136 106.9-16.559 16.58-52.125 7.85-79.439-19.499-27.314-27.348-26.775-70.821-10.216-87.401 16.559-16.58 53.205-27.349 80.519 0z" fill="url(#z)"/></g><g filter="url(#A)"><path d="M221.693 177.304c-20.2 20.225-35.939 39.89-47.836 27.978-11.897-11.913-5.167-37.965 15.033-58.191 20.199-20.225 51.845-20.289 63.743-8.377 11.897 11.913-10.741 18.365-30.94 38.59z" fill="#AAA"/></g><g filter="url(#B)"><path d="M221.693 177.304c-20.2 20.225-35.939 39.89-47.836 27.978-11.897-11.913-5.167-37.965 15.033-58.191 20.199-20.225 51.845-20.289 63.743-8.377 11.897 11.913-10.741 18.365-30.94 38.59z" fill="#AAA"/></g><g filter="url(#C)"><path d="M227.021 137.763c-27.314 27.348-25.694 90.319-9.135 106.899 16.558 16.58 52.125 7.85 79.439-19.498 27.314-27.349 26.775-70.821 10.216-87.401-16.559-16.58-53.205-27.349-80.52 0z" fill="url(#D)"/></g></g></g><path d="M190.116 110.343c0-7.526-6-13.648-13.472-13.838l-.356-.004c-7.637 0-13.829 6.197-13.829 13.842l.01.524c.2 5.383 3.471 9.98 8.113 12.088.542.246.698.841.677 1.266-.02.424-.232 1.008-.812 1.188-7.791 2.411-13.526 9.461-13.947 17.898a.19.19 0 0 0 .195.193h39.326l.043-.004a.187.187 0 0 0 .151-.189c-.422-8.466-6.194-15.535-14.025-17.922-.581-.177-.795-.761-.817-1.184-.023-.425.13-1.021.671-1.27 4.764-2.186 8.072-7 8.072-12.588zm1 0c0 5.992-3.549 11.153-8.655 13.496-.004.003-.028.016-.052.071a.53.53 0 0 0-.038.238c.005.096.03.176.06.227.029.047.05.053.051.053 8.223 2.507 14.288 9.93 14.731 18.83a1.189 1.189 0 0 1-1.192 1.242h-39.326a1.19 1.19 0 0 1-1.193-1.242c.442-8.869 6.469-16.273 14.649-18.804.001-.001.022-.006.05-.054a.503.503 0 0 0 .059-.227.518.518 0 0 0-.039-.238c-.025-.055-.048-.067-.053-.069-5.135-2.332-8.708-7.509-8.709-13.523 0-8.196 6.639-14.843 14.829-14.843 8.189 0 14.828 6.647 14.828 14.843z" fill="url(#E)"/><defs><filter id="v" x="105.989" y="11.338" width="134.648" height="124.953" filterUnits="userSpaceOnUse" color-interpolation-filters="sRGB"><feFlood flood-opacity="0" result="BackgroundImageFix"/><feBlend in="SourceGraphic" in2="BackgroundImageFix" result="shape"/><feGaussianBlur stdDeviation="11.675" result="effect1_foregroundBlur_35_20"/></filter><filter id="c" x="-345.528" y="-76.203" width="520.163" height="569.598" filterUnits="userSpaceOnUse" color-interpolation-filters="sRGB"><feFlood flood-opacity="0" result="BackgroundImageFix"/><feBlend in="SourceGraphic" in2="BackgroundImageFix" result="shape"/><feGaussianBlur stdDeviation="68.27" result="effect1_foregroundBlur_35_20"/></filter><filter id="e" x="-117.982" y="-50.774" width="486.841" height="528.238" filterUnits="userSpaceOnUse" color-interpolation-filters="sRGB"><feFlood flood-opacity="0" result="BackgroundImageFix"/><feBlend in="SourceGraphic" in2="BackgroundImageFix" result="shape"/><feGaussianBlur stdDeviation="40.962" result="effect1_foregroundBlur_35_20"/></filter><filter id="f" x="-352.303" y="-297.127" width="472.015" height="437.698" filterUnits="userSpaceOnUse" color-interpolation-filters="sRGB"><feFlood flood-opacity="0" result="BackgroundImageFix"/><feBlend in="SourceGraphic" in2="BackgroundImageFix" result="shape"/><feGaussianBlur stdDeviation="40.962" result="effect1_foregroundBlur_35_20"/></filter><filter id="g" x="-141.113" y="-121.044" width="472.015" height="437.698" filterUnits="userSpaceOnUse" color-interpolation-filters="sRGB"><feFlood flood-opacity="0" result="BackgroundImageFix"/><feBlend in="SourceGraphic" in2="BackgroundImageFix" result="shape"/><feGaussianBlur stdDeviation="40.962" result="effect1_foregroundBlur_35_20"/></filter><filter id="h" x="-69.046" y="-117.903" width="472.015" height="437.698" filterUnits="userSpaceOnUse" color-interpolation-filters="sRGB"><feFlood flood-opacity="0" result="BackgroundImageFix"/><feBlend in="SourceGraphic" in2="BackgroundImageFix" result="shape"/><feGaussianBlur stdDeviation="40.962" result="effect1_foregroundBlur_35_20"/></filter><filter id="i" x="-211.777" y="-122.393" width="596.667" height="661.967" filterUnits="userSpaceOnUse" color-interpolation-filters="sRGB"><feFlood flood-opacity="0" result="BackgroundImageFix"/><feBlend in="SourceGraphic" in2="BackgroundImageFix" result="shape"/><feGaussianBlur stdDeviation="50" result="effect1_foregroundBlur_35_20"/></filter><filter id="k" x="-216.913" y="38.661" width="472.015" height="437.698" filterUnits="userSpaceOnUse" color-interpolation-filters="sRGB"><feFlood flood-opacity="0" result="BackgroundImageFix"/><feBlend in="SourceGraphic" in2="BackgroundImageFix" result="shape"/><feGaussianBlur stdDeviation="40.962" result="effect1_foregroundBlur_35_20"/></filter><filter id="l" x="-184.64" y="70.934" width="407.469" height="373.152" filterUnits="userSpaceOnUse" color-interpolation-filters="sRGB"><feFlood flood-opacity="0" result="BackgroundImageFix"/><feBlend in="SourceGraphic" in2="BackgroundImageFix" result="shape"/><feGaussianBlur stdDeviation="24.826" result="effect1_foregroundBlur_35_20"/></filter><filter id="m" x="-102.187" y="-12.984" width="596.667" height="661.967" filterUnits="userSpaceOnUse" color-interpolation-filters="sRGB"><feFlood flood-opacity="0" result="BackgroundImageFix"/><feBlend in="SourceGraphic" in2="BackgroundImageFix" result="shape"/><feGaussianBlur stdDeviation="50" result="effect1_foregroundBlur_35_20"/></filter><filter id="s" x="107.942" y="74.51" width="148.348" height="162.563" filterUnits="userSpaceOnUse" color-interpolation-filters="sRGB"><feFlood flood-opacity="0" result="BackgroundImageFix"/><feBlend in="SourceGraphic" in2="BackgroundImageFix" result="shape"/><feGaussianBlur stdDeviation="19.458" result="effect1_foregroundBlur_35_20"/></filter><filter id="t" x="92.023" y="30.521" width="138.88" height="150.826" filterUnits="userSpaceOnUse" color-interpolation-filters="sRGB"><feFlood flood-opacity="0" result="BackgroundImageFix"/><feBlend in="SourceGraphic" in2="BackgroundImageFix" result="shape"/><feGaussianBlur stdDeviation="11.675" result="effect1_foregroundBlur_35_20"/></filter><filter id="u" x="172.865" y="81.736" width="138.88" height="150.826" filterUnits="userSpaceOnUse" color-interpolation-filters="sRGB"><feFlood flood-opacity="0" result="BackgroundImageFix"/><feBlend in="SourceGraphic" in2="BackgroundImageFix" result="shape"/><feGaussianBlur stdDeviation="11.675" result="effect1_foregroundBlur_35_20"/></filter><filter id="d" x="-401.239" y="-229.999" width="486.841" height="528.238" filterUnits="userSpaceOnUse" color-interpolation-filters="sRGB"><feFlood flood-opacity="0" result="BackgroundImageFix"/><feBlend in="SourceGraphic" in2="BackgroundImageFix" result="shape"/><feGaussianBlur stdDeviation="40.962" result="effect1_foregroundBlur_35_20"/></filter><filter id="w" x="166.262" y="61.655" width="134.648" height="124.953" filterUnits="userSpaceOnUse" color-interpolation-filters="sRGB"><feFlood flood-opacity="0" result="BackgroundImageFix"/><feBlend in="SourceGraphic" in2="BackgroundImageFix" result="shape"/><feGaussianBlur stdDeviation="11.675" result="effect1_foregroundBlur_35_20"/></filter><filter id="x" x="186.83" y="62.553" width="134.648" height="124.953" filterUnits="userSpaceOnUse" color-interpolation-filters="sRGB"><feFlood flood-opacity="0" result="BackgroundImageFix"/><feBlend in="SourceGraphic" in2="BackgroundImageFix" result="shape"/><feGaussianBlur stdDeviation="11.675" result="effect1_foregroundBlur_35_20"/></filter><filter id="y" x="74.603" y="-10.216" width="313.208" height="332.011" filterUnits="userSpaceOnUse" color-interpolation-filters="sRGB"><feFlood flood-opacity="0" result="BackgroundImageFix"/><feBlend in="SourceGraphic" in2="BackgroundImageFix" result="shape"/><feGaussianBlur stdDeviation="50" result="effect1_foregroundBlur_35_20"/></filter><filter id="A" x="144.628" y="107.292" width="134.648" height="124.953" filterUnits="userSpaceOnUse" color-interpolation-filters="sRGB"><feFlood flood-opacity="0" result="BackgroundImageFix"/><feBlend in="SourceGraphic" in2="BackgroundImageFix" result="shape"/><feGaussianBlur stdDeviation="11.675" result="effect1_foregroundBlur_35_20"/></filter><filter id="B" x="153.827" y="116.49" width="116.252" height="106.557" filterUnits="userSpaceOnUse" color-interpolation-filters="sRGB"><feFlood flood-opacity="0" result="BackgroundImageFix"/><feBlend in="SourceGraphic" in2="BackgroundImageFix" result="shape"/><feGaussianBlur stdDeviation="7.075" result="effect1_foregroundBlur_35_20"/></filter><filter id="C" x="105.879" y="21.049" width="313.208" height="332.011" filterUnits="userSpaceOnUse" color-interpolation-filters="sRGB"><feFlood flood-opacity="0" result="BackgroundImageFix"/><feBlend in="SourceGraphic" in2="BackgroundImageFix" result="shape"/><feGaussianBlur stdDeviation="50" result="effect1_foregroundBlur_35_20"/></filter><linearGradient id="j" x1="-97.168" y1="21.95" x2="18.195" y2="238.255" gradientUnits="userSpaceOnUse"><stop stop-color="#fff" stop-opacity=".3"/><stop offset="1" stop-color="#fff" stop-opacity="0"/></linearGradient><linearGradient id="n" x1="405.711" y1="197.192" x2="61.594" y2="541.308" gradientUnits="userSpaceOnUse"><stop stop-color="#fff"/><stop offset="1" stop-color="#fff" stop-opacity="0"/></linearGradient><linearGradient id="z" x1="178.772" y1="102.456" x2="211.761" y2="164.232" gradientUnits="userSpaceOnUse"><stop stop-color="#fff" stop-opacity=".3"/><stop offset="1" stop-color="#fff" stop-opacity="0"/></linearGradient><linearGradient id="D" x1="322.292" y1="152.533" x2="223.958" y2="250.742" gradientUnits="userSpaceOnUse"><stop stop-color="#fff"/><stop offset="1" stop-color="#fff" stop-opacity="0"/></linearGradient><radialGradient id="o" cx="0" cy="0" r="1" gradientTransform="matrix(149.427 64.2325 -64.2337 149.415 38.632 90.31)" gradientUnits="userSpaceOnUse"><stop stop-color="#fff"/><stop offset="1" stop-color="#fff" stop-opacity="0"/></radialGradient><radialGradient id="p" cx="0" cy="0" r="1" gradientTransform="matrix(65.1958 -19.5757 20.8944 42.5385 60.71 121.15)" gradientUnits="userSpaceOnUse"><stop stop-color="#fff"/><stop offset="1" stop-color="#fff" stop-opacity=".5"/></radialGradient><radialGradient id="E" cx="0" cy="0" r="1" gradientTransform="matrix(51.7026 32.6267 -22.2252 75.895 158.969 97.792)" gradientUnits="userSpaceOnUse"><stop stop-color="#fff"/><stop offset="1" stop-color="#fff" stop-opacity="0"/></radialGradient></defs></svg>