<svg width="230" height="230" fill="none" xmlns="http://www.w3.org/2000/svg"><g filter="url(#a)"><mask id="b" style="mask-type:alpha" maskUnits="userSpaceOnUse" x="29" y="83" width="112" height="112"><path d="M138 83.5a2.5 2.5 0 0 1 2.5 2.5v106a2.5 2.5 0 0 1-2.5 2.5H32a2.5 2.5 0 0 1-2.5-2.5V86a2.5 2.5 0 0 1 2.5-2.5h106z" fill="#000"/></mask><g mask="url(#b)"><mask id="d" style="mask-type:alpha" maskUnits="userSpaceOnUse" x="-72" y="24" width="466" height="262"><path fill="#fff" d="M-71.01 24.768h464.386v261.217H-71.01z"/><path stroke="url(#c)" d="M-71.01 24.768h464.386v261.217H-71.01z"/></mask><g mask="url(#d)"><path fill="#fff" stroke="url(#e)" d="M-70.511 25.269h463.386v260.217H-70.511z"/><g filter="url(#f)"><path d="M108.405 203.778c75.545 17.782 142.871 28.386 135.74 58.683-7.131 30.296-74.154 40.441-149.699 22.659C18.901 267.339-30.932 213.17-23.8 182.874c7.131-30.296 56.66 3.122 132.206 20.904z" fill="#FF764D"/><path d="M-23.314 182.988c.874-3.713 2.386-6.404 4.476-8.271 2.09-1.866 4.801-2.947 8.141-3.362 6.711-.835 15.84 1.025 27.2 4.42 22.644 6.769 54.008 19.598 91.787 28.49 37.804 8.898 73.475 15.984 98.827 24.634 12.678 4.326 22.712 9.024 29.126 14.493 3.202 2.73 5.484 5.636 6.751 8.766 1.265 3.123 1.533 6.496.664 10.188-1.741 7.397-7.148 13.614-15.54 18.505-8.394 4.891-19.734 8.43-33.242 10.475-27.012 4.088-62.589 2.187-100.316-6.693-37.69-8.871-68.955-26.817-89.9-46.309-10.473-9.746-18.353-19.867-23.17-29.419-4.82-9.558-6.55-18.499-4.804-25.917z" stroke="url(#g)"/></g><g filter="url(#h)"><path d="M254.078 141.85C326.852 58.644 382.405-21.375 432.286 22.252c49.881 43.628 31.323 146.447-41.452 229.654s-196.104 90.612-245.985 46.985c-49.881-43.627 36.454-73.834 109.229-157.041z" fill="#FF764D"/><path d="M145.178 298.515c-12.393-10.839-16.215-20.737-14.051-30.761 2.182-10.104 10.465-20.478 22.687-32.18 12.211-11.692 28.239-24.608 45.808-39.841 17.556-15.221 36.617-32.727 54.832-53.553 36.419-41.639 68.455-82.39 97.638-107.311 14.587-12.457 28.403-20.904 41.637-23.546 13.196-2.634 25.866.494 38.228 11.306 24.756 21.652 32.591 58.052 25.106 99.519-7.482 41.456-30.267 87.881-66.605 129.428-36.3 41.504-85.214 64.107-131.275 70.891-46.081 6.786-89.214-2.27-114.005-23.952z" stroke="url(#i)"/></g><g filter="url(#j)"><path d="M109.308 143.863c75.545 17.782 142.871 28.387 135.74 58.683s-74.153 40.441-149.699 22.659c-75.545-17.781-125.377-71.95-118.246-102.246 7.13-30.296 56.66 3.123 132.205 20.904z" fill="#FF764D"/><path d="M-22.41 123.073c.873-3.713 2.386-6.404 4.475-8.27 2.09-1.867 4.801-2.947 8.142-3.363 6.71-.835 15.839 1.025 27.2 4.421 22.643 6.768 54.007 19.597 91.787 28.49 37.803 8.898 73.474 15.983 98.826 24.633 12.678 4.326 22.712 9.024 29.127 14.493 3.202 2.73 5.483 5.637 6.751 8.766 1.265 3.123 1.533 6.496.664 10.188-1.741 7.397-7.149 13.614-15.541 18.505-8.394 4.891-19.734 8.43-33.241 10.475-27.013 4.089-62.59 2.188-100.316-6.692-37.69-8.872-68.956-26.818-89.9-46.309-10.474-9.746-18.354-19.868-23.17-29.42-4.82-9.558-6.55-18.499-4.805-25.917z" stroke="url(#k)"/></g><g filter="url(#l)"><path d="M189.127 124.307c75.546 17.781 142.871 28.386 135.74 58.682-7.131 30.297-74.153 40.442-149.698 22.66-75.546-17.782-125.378-71.95-118.247-102.246 7.131-30.296 56.66 3.122 132.205 20.904z" fill="#FF764D"/><path d="M57.409 103.517c.874-3.713 2.386-6.404 4.476-8.27 2.09-1.867 4.8-2.948 8.141-3.364 6.71-.835 15.839 1.025 27.2 4.421 22.643 6.769 54.007 19.598 91.787 28.49 37.804 8.898 73.474 15.984 98.827 24.634 12.678 4.326 22.711 9.024 29.126 14.492 3.202 2.73 5.483 5.637 6.751 8.767 1.265 3.123 1.533 6.496.664 10.188-1.741 7.397-7.148 13.614-15.541 18.504-8.393 4.892-19.733 8.431-33.241 10.475-27.013 4.089-62.589 2.188-100.316-6.692-37.689-8.871-68.955-26.818-89.9-46.309-10.473-9.746-18.354-19.868-23.17-29.419-4.82-9.558-6.55-18.5-4.804-25.917z" stroke="url(#m)"/></g><g filter="url(#n)"><path d="M83.506 356.585C25.72 456.672-157.286 500.694-217.964 465.662c-60.677-35.032-63.021-144.568-5.236-244.655 57.785-100.087 183.678-132.15 244.355-97.119 60.677 35.032 120.136 132.61 62.35 232.697z" fill="url(#o)"/><path d="M20.905 124.322c30.238 17.458 60.194 50.519 75.38 91.693 15.179 41.157 15.6 90.417-13.212 140.32C54.27 406.224-5.79 442.197-66.295 461.316c-30.242 9.557-60.566 14.894-87.106 15.657-26.554.763-49.261-3.054-64.313-11.744-30.129-17.395-45.846-53.331-46.791-97.509-.945-44.168 12.884-96.486 41.738-146.463 28.826-49.927 74.642-82.893 120.825-99.007 46.201-16.12 92.68-15.346 122.847 2.072z" stroke="url(#p)"/></g><g filter="url(#q)"><path d="M429.433 37.92c81.72 81.72 76.876 269.885 27.333 319.427-49.542 49.543-155.952 23.458-237.673-58.263S138.984 87.462 188.527 37.919c49.543-49.542 159.185-81.72 240.906 0z" fill="url(#r)"/><path d="M188.881 38.273c24.689-24.69 64.377-45.068 108.078-49.08 43.684-4.01 91.374 8.333 132.12 49.08 40.734 40.734 59.936 108.058 62.745 171.449 1.404 31.685-1.29 62.357-7.422 88.19-6.136 25.847-15.699 46.792-27.989 59.082-24.6 24.6-63.379 30.481-106.297 19.96-42.908-10.519-89.863-37.417-130.67-78.224-40.765-40.765-60.75-93.553-64.361-142.332-3.613-48.799 9.164-93.494 33.796-118.125z" stroke="url(#s)"/></g></g><path d="M139.502 86c0-.83-.672-1.502-1.502-1.502H32c-.83 0-1.502.672-1.502 1.502v106c0 .83.672 1.502 1.502 1.502h106c.83 0 1.502-.672 1.502-1.502V86zm.996 106a2.499 2.499 0 0 1-2.498 2.498H32A2.498 2.498 0 0 1 29.502 192V86A2.498 2.498 0 0 1 32 83.502h106A2.498 2.498 0 0 1 140.498 86v106z" fill="url(#t)"/><path d="M115.41 101.24a2 2 0 0 1 2.829 0l4.242 4.242a2 2 0 0 1 0 2.829l-29.17 29.17a2 2 0 0 0 0 2.828l28.881 28.882a2 2 0 0 1 0 2.829l-4.242 4.242a2 2 0 0 1-2.829 0l-28.882-28.881a2 2 0 0 0-2.828 0l-28.812 28.812a2 2 0 0 1-2.829 0l-4.242-4.243a2 2 0 0 1 0-2.828l28.812-28.813a2 2 0 0 0 0-2.828l-29.1-29.101a2 2 0 0 1 0-2.829l4.241-4.242a2 2 0 0 1 2.83 0l29.1 29.101a2 2 0 0 0 2.828 0l29.171-29.17z" fill="url(#u)"/></g></g><path d="M143 91h6v6h-6v-6zM197 91h6v6h-6v-6zM143 37h6v6h-6v-6zM197 37h6v6h-6v-6z" fill="#fff"/><path d="M200.5 39.5v55h-55v-55h55zm-54 54h53v-53h-53v53z" fill="#fff"/><g filter="url(#v)"><mask id="w" style="mask-type:alpha" maskUnits="userSpaceOnUse" x="99" y="37" width="42" height="42"><path d="M120.001 37.5c11.322 0 20.501 9.179 20.501 20.501 0 11.322-9.179 20.501-20.501 20.501-11.322 0-20.501-9.179-20.501-20.501 0-11.322 9.179-20.501 20.501-20.501z" fill="#000"/></mask><g mask="url(#w)"><mask id="x" style="mask-type:alpha" maskUnits="userSpaceOnUse" x="57" y="15" width="161" height="91"><path fill="#fff" d="M57.175 15.165h160.232v90.13H57.175z"/></mask><g mask="url(#x)"><path fill="#fff" d="M57.176 15.165h160.232v90.13H57.176z"/><g filter="url(#y)"><path d="M119.082 76.932c26.066 6.135 49.296 9.794 46.835 20.248-2.46 10.453-25.585 13.954-51.652 7.818-26.066-6.135-43.26-24.825-40.8-35.279 2.461-10.453 19.55 1.078 45.617 7.213z" fill="#AAA"/></g><g filter="url(#z)"><path d="M127.013 53.302c25.11-28.71 44.278-56.32 61.489-41.266 17.211 15.053 10.808 50.53-14.302 79.24-25.111 28.709-67.664 31.264-84.875 16.211s12.578-25.475 37.688-54.185z" fill="#AAA"/></g><g filter="url(#A)"><path d="M116.951 85.236c32.367 20.178 62.694 34.667 50.598 54.07-12.096 19.404-48.141 18.776-80.508-1.402s-41.717-61.77-29.62-81.173c12.096-19.404 27.163 8.327 59.53 28.505z" fill="#AAA"/></g><g filter="url(#B)"><path d="M87.88 92.114c26.067 6.136 49.297 9.795 46.836 20.248-2.46 10.454-25.586 13.954-51.652 7.819-26.066-6.136-43.26-24.826-40.8-35.28 2.46-10.453 19.55 1.078 45.616 7.213z" fill="#AAA"/></g><g filter="url(#C)"><path d="M252.305 56.727c28.197 28.197 26.526 93.121 9.432 110.216-17.095 17.094-53.81 8.093-82.007-20.104-28.197-28.197-27.641-73.018-10.547-90.112 17.095-17.094 54.925-28.197 83.122 0z" fill="url(#D)"/></g><g filter="url(#E)"><path d="M55.002 107.804c19.938 34.534 83.083 49.723 104.019 37.636 20.936-12.088 21.745-49.882 1.806-84.416-19.938-34.534-63.376-45.597-84.312-33.51-20.936 12.088-41.452 45.756-21.513 80.29z" fill="url(#F)"/></g><g filter="url(#G)"><path d="M176.495 59.945c26.066 6.136 49.296 9.795 46.835 20.248-2.46 10.454-25.585 13.954-51.652 7.819-26.066-6.136-43.26-24.826-40.799-35.28 2.46-10.453 19.55 1.078 45.616 7.213z" fill="#AAA"/></g></g><path d="M139.502 58.001c0-10.77-8.731-19.501-19.501-19.501-10.77 0-19.501 8.73-19.501 19.501 0 10.77 8.731 19.501 19.501 19.501 10.77 0 19.501-8.73 19.501-19.501zm1 0c0 11.322-9.179 20.501-20.501 20.501-11.322 0-20.501-9.179-20.501-20.501 0-11.322 9.179-20.501 20.501-20.501 11.322 0 20.501 9.179 20.501 20.501z" fill="url(#H)"/></g></g><defs><filter id="y" x="31.504" y="23.777" width="176.319" height="125.971" filterUnits="userSpaceOnUse" color-interpolation-filters="sRGB"><feFlood flood-opacity="0" result="BackgroundImageFix"/><feBlend in="SourceGraphic" in2="BackgroundImageFix" result="shape"/><feGaussianBlur stdDeviation="20.863" result="effect1_foregroundBlur_35_16"/></filter><filter id="a" x="29.5" y="83.5" width="112.135" height="112.135" filterUnits="userSpaceOnUse" color-interpolation-filters="sRGB"><feFlood flood-opacity="0" result="BackgroundImageFix"/><feBlend in="SourceGraphic" in2="BackgroundImageFix" result="shape"/><feColorMatrix in="SourceAlpha" values="0 0 0 0 0 0 0 0 0 0 0 0 0 0 0 0 0 0 127 0" result="hardAlpha"/><feOffset dx="1.135" dy="1.135"/><feGaussianBlur stdDeviation="5.673"/><feComposite in2="hardAlpha" operator="arithmetic" k2="-1" k3="1"/><feColorMatrix values="0 0 0 0 1 0 0 0 0 1 0 0 0 0 1 0 0 0 0.8 0"/><feBlend in2="shape" result="effect1_innerShadow_35_16"/></filter><filter id="j" x="-153.304" y="-18.988" width="528.6" height="382.683" filterUnits="userSpaceOnUse" color-interpolation-filters="sRGB"><feFlood flood-opacity="0" result="BackgroundImageFix"/><feBlend in="SourceGraphic" in2="BackgroundImageFix" result="shape"/><feGaussianBlur stdDeviation="64.865" result="effect1_foregroundBlur_35_16"/></filter><filter id="l" x="-21.593" y="13.348" width="424.817" height="278.899" filterUnits="userSpaceOnUse" color-interpolation-filters="sRGB"><feFlood flood-opacity="0" result="BackgroundImageFix"/><feBlend in="SourceGraphic" in2="BackgroundImageFix" result="shape"/><feGaussianBlur stdDeviation="38.919" result="effect1_foregroundBlur_35_16"/></filter><filter id="n" x="-365.051" y="10.187" width="572.081" height="567.381" filterUnits="userSpaceOnUse" color-interpolation-filters="sRGB"><feFlood flood-opacity="0" result="BackgroundImageFix"/><feBlend in="SourceGraphic" in2="BackgroundImageFix" result="shape"/><feGaussianBlur stdDeviation="50" result="effect1_foregroundBlur_35_16"/></filter><filter id="q" x="53.981" y="-112.023" width="538.706" height="594.464" filterUnits="userSpaceOnUse" color-interpolation-filters="sRGB"><feFlood flood-opacity="0" result="BackgroundImageFix"/><feBlend in="SourceGraphic" in2="BackgroundImageFix" result="shape"/><feGaussianBlur stdDeviation="50" result="effect1_foregroundBlur_35_16"/></filter><filter id="v" x="99.5" y="37.5" width="41.387" height="41.387" filterUnits="userSpaceOnUse" color-interpolation-filters="sRGB"><feFlood flood-opacity="0" result="BackgroundImageFix"/><feBlend in="SourceGraphic" in2="BackgroundImageFix" result="shape"/><feColorMatrix in="SourceAlpha" values="0 0 0 0 0 0 0 0 0 0 0 0 0 0 0 0 0 0 127 0" result="hardAlpha"/><feOffset dx=".385" dy=".385"/><feGaussianBlur stdDeviation="1.923"/><feComposite in2="hardAlpha" operator="arithmetic" k2="-1" k3="1"/><feColorMatrix values="0 0 0 0 1 0 0 0 0 1 0 0 0 0 1 0 0 0 0.8 0"/><feBlend in2="shape" result="effect1_innerShadow_35_16"/></filter><filter id="h" x="35.706" y="-84.406" width="518.925" height="503.934" filterUnits="userSpaceOnUse" color-interpolation-filters="sRGB"><feFlood flood-opacity="0" result="BackgroundImageFix"/><feBlend in="SourceGraphic" in2="BackgroundImageFix" result="shape"/><feGaussianBlur stdDeviation="47.174" result="effect1_foregroundBlur_35_16"/></filter><filter id="z" x="53.874" y="-22.559" width="174.635" height="169.463" filterUnits="userSpaceOnUse" color-interpolation-filters="sRGB"><feFlood flood-opacity="0" result="BackgroundImageFix"/><feBlend in="SourceGraphic" in2="BackgroundImageFix" result="shape"/><feGaussianBlur stdDeviation="15.174" result="effect1_foregroundBlur_35_16"/></filter><filter id="A" x="37.164" y="34.975" width="148.276" height="133.656" filterUnits="userSpaceOnUse" color-interpolation-filters="sRGB"><feFlood flood-opacity="0" result="BackgroundImageFix"/><feBlend in="SourceGraphic" in2="BackgroundImageFix" result="shape"/><feGaussianBlur stdDeviation="7.587" result="effect1_foregroundBlur_35_16"/></filter><filter id="B" x=".303" y="38.959" width="176.319" height="125.971" filterUnits="userSpaceOnUse" color-interpolation-filters="sRGB"><feFlood flood-opacity="0" result="BackgroundImageFix"/><feBlend in="SourceGraphic" in2="BackgroundImageFix" result="shape"/><feGaussianBlur stdDeviation="20.863" result="effect1_foregroundBlur_35_16"/></filter><filter id="C" x="57.264" y="-60.505" width="316.867" height="336.106" filterUnits="userSpaceOnUse" color-interpolation-filters="sRGB"><feFlood flood-opacity="0" result="BackgroundImageFix"/><feBlend in="SourceGraphic" in2="BackgroundImageFix" result="shape"/><feGaussianBlur stdDeviation="50" result="effect1_foregroundBlur_35_16"/></filter><filter id="E" x="-53.115" y="-77.213" width="328.383" height="326.761" filterUnits="userSpaceOnUse" color-interpolation-filters="sRGB"><feFlood flood-opacity="0" result="BackgroundImageFix"/><feBlend in="SourceGraphic" in2="BackgroundImageFix" result="shape"/><feGaussianBlur stdDeviation="50" result="effect1_foregroundBlur_35_16"/></filter><filter id="G" x="105.608" y="23.481" width="142.938" height="92.59" filterUnits="userSpaceOnUse" color-interpolation-filters="sRGB"><feFlood flood-opacity="0" result="BackgroundImageFix"/><feBlend in="SourceGraphic" in2="BackgroundImageFix" result="shape"/><feGaussianBlur stdDeviation="12.518" result="effect1_foregroundBlur_35_16"/></filter><filter id="f" x="-154.207" y="40.927" width="528.6" height="382.683" filterUnits="userSpaceOnUse" color-interpolation-filters="sRGB"><feFlood flood-opacity="0" result="BackgroundImageFix"/><feBlend in="SourceGraphic" in2="BackgroundImageFix" result="shape"/><feGaussianBlur stdDeviation="64.865" result="effect1_foregroundBlur_35_16"/></filter><radialGradient id="H" cx="0" cy="0" r="1" gradientTransform="matrix(50.6561 21.7749 -21.7753 50.6519 102.926 46.919)" gradientUnits="userSpaceOnUse"><stop stop-color="#fff"/><stop offset="1" stop-color="#fff" stop-opacity="0"/></radialGradient><radialGradient id="e" cx="0" cy="0" r="1" gradientUnits="userSpaceOnUse" gradientTransform="matrix(0 130.608 -232.193 0 161.182 155.377)"><stop stop-color="#FF764D"/><stop offset="1" stop-color="#FF764D" stop-opacity="0"/></radialGradient><radialGradient id="g" cx="0" cy="0" r="1" gradientUnits="userSpaceOnUse" gradientTransform="matrix(135.8145 31.96756 -10.24325 43.51854 105.661 241.83)"><stop stop-color="#FF764D"/><stop offset="1" stop-color="#FF764D" stop-opacity="0"/></radialGradient><radialGradient id="i" cx="0" cy="0" r="1" gradientUnits="userSpaceOnUse" gradientTransform="rotate(-48.826 367.339 -258.55) scale(198.732 95.1903)"><stop stop-color="#FF764D"/><stop offset="1" stop-color="#FF764D" stop-opacity="0"/></radialGradient><radialGradient id="k" cx="0" cy="0" r="1" gradientUnits="userSpaceOnUse" gradientTransform="matrix(135.8145 31.96756 -10.24325 43.51854 106.565 181.916)"><stop stop-color="#FF764D"/><stop offset="1" stop-color="#FF764D" stop-opacity="0"/></radialGradient><radialGradient id="m" cx="0" cy="0" r="1" gradientUnits="userSpaceOnUse" gradientTransform="matrix(135.8145 31.96756 -10.24325 43.51854 186.384 162.359)"><stop stop-color="#FF764D"/><stop offset="1" stop-color="#FF764D" stop-opacity="0"/></radialGradient><radialGradient id="u" cx="0" cy="0" r="1" gradientTransform="matrix(69.579 -22.6236 22.2992 49.1617 50.687 144.896)" gradientUnits="userSpaceOnUse"><stop stop-color="#fff"/><stop offset="1" stop-color="#fff" stop-opacity=".5"/></radialGradient><radialGradient id="p" cx="0" cy="0" r="1" gradientUnits="userSpaceOnUse" gradientTransform="matrix(-103.886 179.93583 -144.36817 -83.351 -79.575 305.646)"><stop stop-color="#FF764D"/><stop offset="1" stop-color="#FF764D" stop-opacity="0"/></radialGradient><radialGradient id="t" cx="0" cy="0" r="1" gradientTransform="matrix(139.297 59.878 -59.8792 139.286 38.047 108.526)" gradientUnits="userSpaceOnUse"><stop stop-color="#fff"/><stop offset="1" stop-color="#fff" stop-opacity="0"/></radialGradient><radialGradient id="s" cx="0" cy="0" r="1" gradientUnits="userSpaceOnUse" gradientTransform="rotate(45 -50.997 499.157) scale(207.772 166.702)"><stop stop-color="#FF764D"/><stop offset="1" stop-color="#FF764D" stop-opacity="0"/></radialGradient><radialGradient id="c" cx="0" cy="0" r="1" gradientUnits="userSpaceOnUse" gradientTransform="matrix(0 130.608 -232.193 0 161.183 155.376)"><stop stop-color="#FF764D"/><stop offset="1" stop-color="#FF764D" stop-opacity="0"/></radialGradient><linearGradient id="r" x1="166.457" y1="25.84" x2="264.963" y2="210.539" gradientUnits="userSpaceOnUse"><stop stop-color="#fff"/><stop offset="1" stop-color="#fff" stop-opacity="0"/></linearGradient><linearGradient id="o" x1="27.11" y1="99.444" x2="-125.8" y2="242.397" gradientUnits="userSpaceOnUse"><stop stop-color="#FF764D"/><stop offset="1" stop-color="#FF764D" stop-opacity="0"/></linearGradient><linearGradient id="D" x1="161.568" y1="52.559" x2="195.557" y2="116.288" gradientUnits="userSpaceOnUse"><stop stop-color="#fff"/><stop offset="1" stop-color="#fff" stop-opacity="0"/></linearGradient><linearGradient id="F" x1="74.461" y1="19.08" x2="127.221" y2="68.404" gradientUnits="userSpaceOnUse"><stop stop-color="#AAA"/><stop offset="1" stop-color="#AAA" stop-opacity="0"/></linearGradient></defs></svg>