<svg width="230" height="230" fill="none" xmlns="http://www.w3.org/2000/svg"><path d="M195 187h6v6h-6v-6zM65 57h6v6h-6v-6zM195 57h6v6h-6v-6zM65 187h6v6h-6v-6z" fill="#fff"/><path d="M198.5 59.5v131h-131v-131h131zm-130 130h129v-129h-129v129z" fill="#fff"/><mask id="a" style="mask-type:alpha" maskUnits="userSpaceOnUse" x="21" y="45" width="42" height="46"><path d="M59.915 45.5a2.497 2.497 0 0 1 2.494 2.5v18c0 1.38-1.116 2.5-2.494 2.5h-7.982c-.827 0-1.496.672-1.496 1.5v8c0 1.38-1.118 2.5-2.496 2.5H39.96c-.826 0-1.496.672-1.496 1.5v6c0 1.38-1.117 2.5-2.494 2.5H23.996a2.497 2.497 0 0 1-2.494-2.5V70c0-1.38 1.116-2.5 2.494-2.5h7.982c.826 0 1.496-.672 1.496-1.5v-8c0-1.38 1.117-2.5 2.495-2.5h7.981c.827 0 1.497-.672 1.497-1.5v-6c0-1.38 1.117-2.5 2.494-2.5h11.974z" fill="#000"/></mask><g mask="url(#a)"><mask id="b" style="mask-type:alpha" maskUnits="userSpaceOnUse" x="-37" y="29" width="129" height="73"><path fill="#fff" d="M-36.653 29.242H91.202v71.92H-36.653z"/></mask><g mask="url(#b)"><path fill="#fff" d="M-36.652 29.241H91.203v71.92H-36.652z"/><g filter="url(#c)"><path d="M12.744 78.528c20.8 4.895 39.336 7.815 37.373 16.156-1.964 8.342-20.416 11.135-41.216 6.239-20.799-4.896-34.519-19.81-32.555-28.151 1.963-8.341 15.6.86 36.398 5.755z" fill="#AAA"/></g><g filter="url(#d)"><path d="M19.075 59.673c20.036-22.909 35.33-44.94 49.064-32.928 13.733 12.011 8.624 40.32-11.413 63.23-20.036 22.908-53.991 24.947-67.724 12.936C-24.732 90.899-.962 82.582 19.074 59.673z" fill="#AAA"/></g><g filter="url(#e)"><path d="M11.046 85.155c25.827 16.101 50.027 27.663 40.374 43.146-9.652 15.483-38.413 14.982-64.24-1.119-25.827-16.101-33.288-49.29-23.636-64.773 9.653-15.483 21.675 6.645 47.502 22.746z" fill="#AAA"/></g><g filter="url(#f)"><path d="M-12.15 90.643c20.8 4.895 39.335 7.815 37.372 16.157-1.963 8.341-20.416 11.134-41.215 6.238-20.8-4.895-34.52-19.81-32.556-28.15 1.963-8.342 15.6.859 36.399 5.755z" fill="#AAA"/></g><g filter="url(#g)"><path d="M119.051 62.405c22.5 22.5 21.166 74.307 7.526 87.947-13.64 13.641-42.937 6.459-65.437-16.041s-22.055-58.265-8.415-71.906c13.64-13.64 43.827-22.5 66.326 0z" fill="url(#h)"/></g><g filter="url(#i)"><path d="M-38.386 103.164c15.91 27.557 66.295 39.677 83 30.032 16.707-9.645 17.352-39.803 1.442-67.36-15.91-27.557-50.57-36.385-67.275-26.74-16.706 9.646-33.077 36.511-17.167 64.068z" fill="url(#j)"/></g><g filter="url(#k)"><path d="M58.558 64.974c20.8 4.895 39.335 7.815 37.372 16.157-1.963 8.34-20.416 11.134-41.215 6.238-20.8-4.895-34.52-19.81-32.556-28.15 1.963-8.342 15.6.859 36.399 5.755z" fill="#AAA"/></g></g></g><path d="M61.5 48a1.5 1.5 0 0 0-1.5-1.5H48a1.5 1.5 0 0 0-1.5 1.5v6a2.5 2.5 0 0 1-2.5 2.5h-8a1.5 1.5 0 0 0-1.5 1.5v8a2.5 2.5 0 0 1-2.5 2.5h-8a1.5 1.5 0 0 0-1.5 1.5v18a1.5 1.5 0 0 0 1.5 1.5h12a1.5 1.5 0 0 0 1.5-1.5v-6a2.5 2.5 0 0 1 2.5-2.5h8a1.5 1.5 0 0 0 1.5-1.5v-8a2.5 2.5 0 0 1 2.5-2.5h8a1.5 1.5 0 0 0 1.5-1.5V48zm1 18a2.5 2.5 0 0 1-2.5 2.5h-8a1.5 1.5 0 0 0-1.5 1.5v8a2.5 2.5 0 0 1-2.5 2.5h-8a1.5 1.5 0 0 0-1.5 1.5v6a2.5 2.5 0 0 1-2.5 2.5H24a2.5 2.5 0 0 1-2.5-2.5V70a2.5 2.5 0 0 1 2.5-2.5h8a1.5 1.5 0 0 0 1.5-1.5v-8a2.5 2.5 0 0 1 2.5-2.5h8a1.5 1.5 0 0 0 1.5-1.5v-6a2.5 2.5 0 0 1 2.5-2.5h12a2.5 2.5 0 0 1 2.5 2.5v18z" fill="url(#l)"/><mask id="m" style="mask-type:alpha" maskUnits="userSpaceOnUse" x="82" y="65" width="102" height="120"><path d="M132.862 65.5c19.73 0 35.723 16.01 35.723 35.758 0 14.063-8.111 26.227-19.904 32.066-.505.25-.828.983-.781 1.859.048.877.447 1.543.971 1.714 19.341 6.336 33.534 23.961 34.695 45.046.078 1.414-1.068 2.558-2.458 2.558H84.963c-1.39 0-2.536-1.144-2.458-2.558 1.157-21.013 15.256-38.59 34.496-44.981.523-.174.919-.841.963-1.718.044-.874-.282-1.605-.788-1.853-11.865-5.814-20.037-18.018-20.037-32.133 0-19.748 15.994-35.758 35.723-35.758z" fill="#000"/></mask><g mask="url(#m)"><mask id="n" style="mask-type:alpha" maskUnits="userSpaceOnUse" x="14" y="41" width="382" height="216"><path fill="#fff" d="M14.115 41.347h381.57v214.905H14.115z"/></mask><g mask="url(#n)"><path fill="#fff" d="M14.116 41.347h381.57v214.905H14.116z"/><g filter="url(#o)"><path d="M158.408 197.09c46.743 52.477 91.122 95.354 70.104 114.123-21.018 18.77-75.949-8.556-122.692-61.033-46.743-52.476-55.535-118.578-34.517-137.347 21.018-18.77 40.362 31.78 87.105 84.257z" fill="#027BFE"/></g><g filter="url(#p)"><path d="M134.052 134.701c51.593-47.704 104.492-81.111 57.419-132.15-47.073-51.04-127.057-53.744-178.65-6.04C-38.772 44.213-16.79 149.4 30.282 200.44c47.073 51.039 52.177-18.036 103.77-65.74z" fill="#027BFE"/></g><g filter="url(#q)"><path d="M332.786 260.604c51.593-47.704 104.492-81.111 57.419-132.151-47.072-51.04-127.056-53.744-178.65-6.04-51.593 47.704-29.611 152.891 17.462 203.93 47.072 51.04 52.176-18.036 103.769-65.739z" fill="#027BFE"/></g><g filter="url(#r)"><path d="M149.501 29.984c-49.657 49.72-88.348 98.062-117.596 68.778C2.657 69.477 19.203 5.43 68.86-44.29c49.658-49.72 127.455-49.879 156.702-20.594 29.248 29.285-26.403 45.146-76.061 94.867z" fill="#027BFE"/></g><g filter="url(#s)"><path d="M249.785 116.63c49.657-49.72 88.348-98.062 117.596-68.778 29.248 29.285 12.702 93.331-36.955 143.051-49.658 49.721-127.455 49.879-156.702 20.594-29.248-29.285 26.403-45.146 76.061-94.867z" fill="#027BFE"/></g><g filter="url(#t)"><path d="M348.236 155.888c-49.658 49.72-88.349 98.063-117.597 68.778-29.247-29.285-12.702-93.331 36.956-143.051 49.657-49.72 127.454-49.878 156.702-20.594 29.247 29.285-26.404 45.147-76.061 94.867z" fill="#027BFE"/></g><g filter="url(#u)"><path d="M355.055 91.808c67.147 67.232 63.167 222.036 22.46 262.795-40.708 40.759-128.141 19.298-195.289-47.934-67.147-67.232-65.822-174.102-25.114-214.861 40.707-40.76 130.796-67.233 197.943 0z" fill="url(#v)"/></g><g filter="url(#w)"><path d="M244.49 265.872c-49.657 49.721-88.348 98.063-117.596 68.778-29.247-29.284-12.702-93.331 36.956-143.051 49.657-49.72 127.454-49.878 156.702-20.594 29.247 29.285-26.404 45.147-76.062 94.867z" fill="#027BFE"/></g><g filter="url(#x)"><path d="M244.49 265.872c-49.657 49.721-88.348 98.063-117.596 68.778-29.247-29.284-12.702-93.331 36.956-143.051 49.657-49.72 127.454-49.878 156.702-20.594 29.247 29.285-26.404 45.147-76.062 94.867z" fill="#027BFE"/></g><g filter="url(#y)"><path d="M257.59 168.665c-67.147 67.233-63.167 222.037-22.459 262.796 40.707 40.759 128.141 19.298 195.288-47.934 67.147-67.232 65.822-174.103 25.115-214.862-40.708-40.759-130.797-67.232-197.944 0z" fill="url(#z)"/></g></g></g><path d="M167.589 101.261c0-18.896-15.064-34.27-33.826-34.746l-.897-.011c-19.176 0-34.723 15.56-34.723 34.757l.006.642c.243 13.447 8.116 25.029 19.47 30.593 1.032.506 1.4 1.753 1.348 2.802-.053 1.047-.544 2.25-1.647 2.617-18.86 6.265-32.676 23.494-33.812 44.083-.045.815.618 1.503 1.46 1.503h96.145c.842 0 1.505-.688 1.46-1.503-1.14-20.66-15.048-37.937-34.01-44.148-1.104-.361-1.601-1.564-1.658-2.611-.057-1.049.306-2.299 1.336-2.809 11.465-5.676 19.348-17.5 19.348-31.169zm1 0c0 14.063-8.111 26.227-19.904 32.066-.505.25-.829.983-.781 1.858.048.878.447 1.544.971 1.715 19.341 6.335 33.533 23.959 34.696 45.043.078 1.413-1.068 2.558-2.458 2.558H84.968c-1.39 0-2.536-1.145-2.458-2.558 1.159-21.011 15.257-38.586 34.495-44.977.523-.174.918-.841.963-1.718.044-.875-.282-1.607-.788-1.855-11.865-5.813-20.037-18.016-20.037-32.132 0-19.748 15.993-35.757 35.723-35.757 19.73 0 35.723 16.01 35.723 35.757z" fill="url(#A)"/><mask id="B" style="mask-type:alpha" maskUnits="userSpaceOnUse" x="27" y="95" width="36" height="36"><path d="M60.002 95.5a2.5 2.5 0 0 1 2.5 2.5v30a2.5 2.5 0 0 1-2.5 2.5h-30a2.5 2.5 0 0 1-2.5-2.5V98a2.5 2.5 0 0 1 2.5-2.5h30z" fill="#000"/></mask><g mask="url(#B)"><mask id="C" style="mask-type:alpha" maskUnits="userSpaceOnUse" x="-9" y="76" width="137" height="78"><path fill="#fff" d="M-8.397 76.591h136.19v76.607H-8.397z"/></mask><g mask="url(#C)"><path fill="#fff" d="M-8.397 76.591h136.19v76.607H-8.397z"/><g filter="url(#D)"><path d="M44.22 129.089c22.155 5.215 41.9 8.325 39.808 17.21-2.09 8.885-21.747 11.86-43.902 6.645s-36.77-21.101-34.678-29.985c2.091-8.885 16.617.915 38.772 6.13z" fill="#AAA"/></g><g filter="url(#E)"><path d="M50.962 109.006c21.343-24.402 37.635-47.87 52.263-35.075 14.629 12.795 9.186 42.949-12.156 67.351-21.343 24.402-57.512 26.574-72.14 13.779-14.629-12.794 10.69-21.653 32.033-46.055z" fill="#AAA"/></g><g filter="url(#F)"><path d="M42.41 136.148c27.51 17.151 53.288 29.466 43.006 45.958-10.281 16.492-40.917 15.958-68.428-1.192-27.51-17.15-35.458-52.502-25.176-68.994 10.28-16.492 23.088 7.078 50.598 24.228z" fill="#AAA"/></g><g filter="url(#G)"><path d="M17.701 141.995c22.156 5.215 41.9 8.325 39.809 17.21-2.091 8.885-21.747 11.86-43.902 6.645s-36.77-21.101-34.678-29.986c2.09-8.885 16.616.916 38.771 6.131z" fill="#AAA"/></g><g filter="url(#H)"><path d="M157.456 111.916c23.967 23.966 22.546 79.149 8.017 93.678-14.53 14.53-45.737 6.88-69.703-17.087-23.966-23.966-23.493-62.062-8.964-76.591 14.529-14.53 46.684-23.967 70.65 0z" fill="url(#I)"/></g><g filter="url(#J)"><path d="M-10.245 155.331c16.947 29.352 70.617 42.262 88.412 31.989 17.795-10.274 18.482-42.398 1.536-71.75C62.756 86.217 25.835 76.814 8.04 87.088c-17.795 10.274-35.233 38.89-18.286 68.243z" fill="url(#K)"/></g><g filter="url(#L)"><path d="M93.019 114.651c22.155 5.215 41.9 8.325 39.808 17.21-2.091 8.885-21.747 11.86-43.902 6.645s-36.77-21.101-34.678-29.985c2.091-8.885 16.617.915 38.772 6.13z" fill="#AAA"/></g></g><path d="M61.502 98a1.5 1.5 0 0 0-1.5-1.5h-30a1.5 1.5 0 0 0-1.5 1.5v30a1.5 1.5 0 0 0 1.5 1.5h30a1.5 1.5 0 0 0 1.5-1.5V98zm1 30a2.5 2.5 0 0 1-2.5 2.5h-30a2.5 2.5 0 0 1-2.5-2.5V98a2.5 2.5 0 0 1 2.5-2.5h30a2.5 2.5 0 0 1 2.5 2.5v30z" fill="url(#M)"/></g><defs><filter id="y" x="105.615" y="27.577" width="478.304" height="524.528" filterUnits="userSpaceOnUse" color-interpolation-filters="sRGB"><feFlood flood-opacity="0" result="BackgroundImageFix"/><feBlend in="SourceGraphic" in2="BackgroundImageFix" result="shape"/><feGaussianBlur stdDeviation="50" result="effect1_foregroundBlur_35_24"/></filter><filter id="c" x="-57.244" y="36.005" width="140.907" height="100.733" filterUnits="userSpaceOnUse" color-interpolation-filters="sRGB"><feFlood flood-opacity="0" result="BackgroundImageFix"/><feBlend in="SourceGraphic" in2="BackgroundImageFix" result="shape"/><feGaussianBlur stdDeviation="16.702" result="effect1_foregroundBlur_35_24"/></filter><filter id="e" x="-52.657" y="45.01" width="118.393" height="106.729" filterUnits="userSpaceOnUse" color-interpolation-filters="sRGB"><feFlood flood-opacity="0" result="BackgroundImageFix"/><feBlend in="SourceGraphic" in2="BackgroundImageFix" result="shape"/><feGaussianBlur stdDeviation="6.073" result="effect1_foregroundBlur_35_24"/></filter><filter id="f" x="-82.139" y="48.12" width="140.907" height="100.733" filterUnits="userSpaceOnUse" color-interpolation-filters="sRGB"><feFlood flood-opacity="0" result="BackgroundImageFix"/><feBlend in="SourceGraphic" in2="BackgroundImageFix" result="shape"/><feGaussianBlur stdDeviation="16.702" result="effect1_foregroundBlur_35_24"/></filter><filter id="g" x="-56.786" y="-51.345" width="293.253" height="308.606" filterUnits="userSpaceOnUse" color-interpolation-filters="sRGB"><feFlood flood-opacity="0" result="BackgroundImageFix"/><feBlend in="SourceGraphic" in2="BackgroundImageFix" result="shape"/><feGaussianBlur stdDeviation="50" result="effect1_foregroundBlur_35_24"/></filter><filter id="i" x="-144.862" y="-64.676" width="302.441" height="301.15" filterUnits="userSpaceOnUse" color-interpolation-filters="sRGB"><feFlood flood-opacity="0" result="BackgroundImageFix"/><feBlend in="SourceGraphic" in2="BackgroundImageFix" result="shape"/><feGaussianBlur stdDeviation="50" result="effect1_foregroundBlur_35_24"/></filter><filter id="k" x="1.931" y="35.813" width="114.184" height="74.011" filterUnits="userSpaceOnUse" color-interpolation-filters="sRGB"><feFlood flood-opacity="0" result="BackgroundImageFix"/><feBlend in="SourceGraphic" in2="BackgroundImageFix" result="shape"/><feGaussianBlur stdDeviation="10.021" result="effect1_foregroundBlur_35_24"/></filter><filter id="o" x="-49.739" y="-1.425" width="393.874" height="428.821" filterUnits="userSpaceOnUse" color-interpolation-filters="sRGB"><feFlood flood-opacity="0" result="BackgroundImageFix"/><feBlend in="SourceGraphic" in2="BackgroundImageFix" result="shape"/><feGaussianBlur stdDeviation="55.13" result="effect1_foregroundBlur_35_24"/></filter><filter id="p" x="-83.037" y="-103.727" width="358.924" height="388.292" filterUnits="userSpaceOnUse" color-interpolation-filters="sRGB"><feFlood flood-opacity="0" result="BackgroundImageFix"/><feBlend in="SourceGraphic" in2="BackgroundImageFix" result="shape"/><feGaussianBlur stdDeviation="33.078" result="effect1_foregroundBlur_35_24"/></filter><filter id="q" x="115.698" y="22.176" width="358.924" height="388.292" filterUnits="userSpaceOnUse" color-interpolation-filters="sRGB"><feFlood flood-opacity="0" result="BackgroundImageFix"/><feBlend in="SourceGraphic" in2="BackgroundImageFix" result="shape"/><feGaussianBlur stdDeviation="33.078" result="effect1_foregroundBlur_35_24"/></filter><filter id="r" x="-48.704" y="-150.886" width="348.523" height="324.689" filterUnits="userSpaceOnUse" color-interpolation-filters="sRGB"><feFlood flood-opacity="0" result="BackgroundImageFix"/><feBlend in="SourceGraphic" in2="BackgroundImageFix" result="shape"/><feGaussianBlur stdDeviation="33.078" result="effect1_foregroundBlur_35_24"/></filter><filter id="s" x="99.467" y="-27.189" width="348.523" height="324.689" filterUnits="userSpaceOnUse" color-interpolation-filters="sRGB"><feFlood flood-opacity="0" result="BackgroundImageFix"/><feBlend in="SourceGraphic" in2="BackgroundImageFix" result="shape"/><feGaussianBlur stdDeviation="33.078" result="effect1_foregroundBlur_35_24"/></filter><filter id="t" x="150.031" y="-24.982" width="348.523" height="324.689" filterUnits="userSpaceOnUse" color-interpolation-filters="sRGB"><feFlood flood-opacity="0" result="BackgroundImageFix"/><feBlend in="SourceGraphic" in2="BackgroundImageFix" result="shape"/><feGaussianBlur stdDeviation="33.078" result="effect1_foregroundBlur_35_24"/></filter><filter id="u" x="28.727" y="-49.281" width="478.304" height="524.528" filterUnits="userSpaceOnUse" color-interpolation-filters="sRGB"><feFlood flood-opacity="0" result="BackgroundImageFix"/><feBlend in="SourceGraphic" in2="BackgroundImageFix" result="shape"/><feGaussianBlur stdDeviation="50" result="effect1_foregroundBlur_35_24"/></filter><filter id="w" x="46.285" y="85.002" width="348.523" height="324.689" filterUnits="userSpaceOnUse" color-interpolation-filters="sRGB"><feFlood flood-opacity="0" result="BackgroundImageFix"/><feBlend in="SourceGraphic" in2="BackgroundImageFix" result="shape"/><feGaussianBlur stdDeviation="33.078" result="effect1_foregroundBlur_35_24"/></filter><filter id="x" x="72.347" y="111.064" width="296.4" height="272.566" filterUnits="userSpaceOnUse" color-interpolation-filters="sRGB"><feFlood flood-opacity="0" result="BackgroundImageFix"/><feBlend in="SourceGraphic" in2="BackgroundImageFix" result="shape"/><feGaussianBlur stdDeviation="20.047" result="effect1_foregroundBlur_35_24"/></filter><filter id="d" x="-39.364" y="-.938" width="139.504" height="135.38" filterUnits="userSpaceOnUse" color-interpolation-filters="sRGB"><feFlood flood-opacity="0" result="BackgroundImageFix"/><feBlend in="SourceGraphic" in2="BackgroundImageFix" result="shape"/><feGaussianBlur stdDeviation="12.147" result="effect1_foregroundBlur_35_24"/></filter><filter id="D" x="-36.478" y="77.648" width="162.386" height="119.592" filterUnits="userSpaceOnUse" color-interpolation-filters="sRGB"><feFlood flood-opacity="0" result="BackgroundImageFix"/><feBlend in="SourceGraphic" in2="BackgroundImageFix" result="shape"/><feGaussianBlur stdDeviation="20.863" result="effect1_foregroundBlur_35_24"/></filter><filter id="E" x="-15.757" y="39.974" width="157.54" height="153.144" filterUnits="userSpaceOnUse" color-interpolation-filters="sRGB"><feFlood flood-opacity="0" result="BackgroundImageFix"/><feBlend in="SourceGraphic" in2="BackgroundImageFix" result="shape"/><feGaussianBlur stdDeviation="15.174" result="effect1_foregroundBlur_35_24"/></filter><filter id="F" x="-27.681" y="91.152" width="130.581" height="118.156" filterUnits="userSpaceOnUse" color-interpolation-filters="sRGB"><feFlood flood-opacity="0" result="BackgroundImageFix"/><feBlend in="SourceGraphic" in2="BackgroundImageFix" result="shape"/><feGaussianBlur stdDeviation="7.587" result="effect1_foregroundBlur_35_24"/></filter><filter id="G" x="-62.996" y="90.554" width="162.386" height="119.592" filterUnits="userSpaceOnUse" color-interpolation-filters="sRGB"><feFlood flood-opacity="0" result="BackgroundImageFix"/><feBlend in="SourceGraphic" in2="BackgroundImageFix" result="shape"/><feGaussianBlur stdDeviation="20.863" result="effect1_foregroundBlur_35_24"/></filter><filter id="H" x="-23.325" y="-2.731" width="299.332" height="315.684" filterUnits="userSpaceOnUse" color-interpolation-filters="sRGB"><feFlood flood-opacity="0" result="BackgroundImageFix"/><feBlend in="SourceGraphic" in2="BackgroundImageFix" result="shape"/><feGaussianBlur stdDeviation="50" result="effect1_foregroundBlur_35_24"/></filter><filter id="J" x="-117.144" y="-16.931" width="309.12" height="307.742" filterUnits="userSpaceOnUse" color-interpolation-filters="sRGB"><feFlood flood-opacity="0" result="BackgroundImageFix"/><feBlend in="SourceGraphic" in2="BackgroundImageFix" result="shape"/><feGaussianBlur stdDeviation="50" result="effect1_foregroundBlur_35_24"/></filter><filter id="L" x="29.012" y="79.901" width="129.004" height="86.21" filterUnits="userSpaceOnUse" color-interpolation-filters="sRGB"><feFlood flood-opacity="0" result="BackgroundImageFix"/><feBlend in="SourceGraphic" in2="BackgroundImageFix" result="shape"/><feGaussianBlur stdDeviation="12.518" result="effect1_foregroundBlur_35_24"/></filter><linearGradient id="h" x1="46.648" y1="59.08" x2="73.77" y2="109.932" gradientUnits="userSpaceOnUse"><stop stop-color="#fff"/><stop offset="1" stop-color="#fff" stop-opacity="0"/></linearGradient><linearGradient id="j" x1="-22.859" y1="32.366" x2="19.241" y2="71.724" gradientUnits="userSpaceOnUse"><stop stop-color="#AAA"/><stop offset="1" stop-color="#AAA" stop-opacity="0"/></linearGradient><linearGradient id="v" x1="138.977" y1="81.87" x2="220.076" y2="233.738" gradientUnits="userSpaceOnUse"><stop stop-color="#fff" stop-opacity=".3"/><stop offset="1" stop-color="#fff" stop-opacity="0"/></linearGradient><linearGradient id="z" x1="491.798" y1="204.975" x2="250.059" y2="446.408" gradientUnits="userSpaceOnUse"><stop stop-color="#fff"/><stop offset="1" stop-color="#fff" stop-opacity="0"/></linearGradient><linearGradient id="I" x1="80.333" y1="108.373" x2="109.222" y2="162.54" gradientUnits="userSpaceOnUse"><stop stop-color="#fff"/><stop offset="1" stop-color="#fff" stop-opacity="0"/></linearGradient><linearGradient id="K" x1="6.294" y1="79.919" x2="51.138" y2="121.843" gradientUnits="userSpaceOnUse"><stop stop-color="#AAA"/><stop offset="1" stop-color="#AAA" stop-opacity="0"/></linearGradient><radialGradient id="l" cx="0" cy="0" r="1" gradientTransform="matrix(50.6536 24.2192 -21.7742 56.3378 24.926 55.92)" gradientUnits="userSpaceOnUse"><stop stop-color="#fff"/><stop offset="1" stop-color="#fff" stop-opacity="0"/></radialGradient><radialGradient id="A" cx="0" cy="0" r="1" gradientTransform="matrix(127.076 80.2071 -54.6256 186.574 90.3 70.408)" gradientUnits="userSpaceOnUse"><stop stop-color="#fff"/><stop offset="1" stop-color="#fff" stop-opacity="0"/></radialGradient><radialGradient id="M" cx="0" cy="0" r="1" gradientTransform="matrix(43.0556 18.5078 -18.5081 43.052 30.49 103.581)" gradientUnits="userSpaceOnUse"><stop stop-color="#fff"/><stop offset="1" stop-color="#fff" stop-opacity="0"/></radialGradient></defs></svg>