<svg width="230" height="230" fill="none" xmlns="http://www.w3.org/2000/svg"><mask id="a" style="mask-type:alpha" maskUnits="userSpaceOnUse" x="64" y="93" width="102" height="98"><path d="M143.065 93.799c6.552-1.033 12.688.6 17.145 5.055 4.457 4.455 6.091 10.589 5.058 17.137-1.032 6.542-4.722 13.505-10.919 19.699a41.94 41.94 0 0 1-2.408 2.222c3.103.804 5.922 2.367 8.269 4.713 4.457 4.455 6.091 10.588 5.058 17.137-1.032 6.541-4.722 13.504-10.919 19.699-5.866 5.863-12.905 9.473-19.56 10.552-6.655 1.078-12.969-.372-17.292-4.693-3.455-3.454-5.074-8.181-5.034-13.336-1.639 2.561-3.661 5.076-6.063 7.477-5.865 5.863-12.905 9.473-19.56 10.552-6.655 1.078-12.968-.372-17.291-4.693-4.323-4.322-5.775-10.633-4.696-17.285 1.08-6.652 4.691-13.687 10.557-19.551.85-.849 1.713-1.65 2.588-2.404-3.222-.716-6.126-2.208-8.45-4.53-4.322-4.322-5.773-10.634-4.695-17.285 1.08-6.653 4.691-13.688 10.557-19.551 6.198-6.195 13.163-9.884 19.707-10.915 6.552-1.033 12.688.6 17.145 5.055 3.512 3.511 5.269 8.067 5.35 13.047a40.869 40.869 0 0 1 5.746-7.187c6.198-6.195 13.163-9.884 19.707-10.915zm-30.602 34.415c-1.639 2.56-3.661 5.076-6.063 7.476a41.258 41.258 0 0 1-2.408 2.222c3.104.804 5.923 2.367 8.27 4.713 3.512 3.51 5.27 8.066 5.35 13.047a40.875 40.875 0 0 1 5.746-7.188c.85-.849 1.714-1.65 2.589-2.404-3.222-.716-6.126-2.208-8.45-4.53-3.455-3.455-5.074-8.182-5.034-13.336z" fill="#000"/></mask><g mask="url(#a)"><mask id="b" style="mask-type:alpha" maskUnits="userSpaceOnUse" x="29" y="80" width="245" height="139"><path fill="#fff" d="M29.909 80.84H273.78v137.19H29.909z"/></mask><g mask="url(#b)"><path fill="#fff" d="M29.908 80.84h243.871v137.19H29.908z"/><g filter="url(#c)"><path d="M124.129 174.853c39.672 9.339 75.028 14.909 71.284 30.821-3.745 15.911-38.942 21.24-78.614 11.901-39.673-9.339-65.842-37.789-62.097-53.701 3.745-15.911 29.755 1.64 69.427 10.979z" fill="#027BFE"/></g><g filter="url(#d)"><path d="M136.202 138.889c38.217-43.7 67.39-85.726 93.585-62.813 26.195 22.913 16.449 76.913-21.768 120.614-38.218 43.7-102.983 47.589-129.178 24.676-26.195-22.913 19.144-38.777 57.361-82.477z" fill="#027BFE"/></g><g filter="url(#e)"><path d="M120.89 187.493c49.262 30.714 95.42 52.769 77.01 82.304-18.411 29.535-73.271 28.58-122.533-2.134s-63.493-94.024-45.083-123.559c18.411-29.535 41.343 12.675 90.606 43.389z" fill="#027BFE"/></g><g filter="url(#f)"><path d="M76.644 197.964c39.672 9.339 75.028 14.908 71.283 30.82-3.745 15.912-38.941 21.24-78.614 11.901-39.672-9.339-65.842-37.788-62.097-53.7 3.745-15.912 29.755 1.64 69.428 10.979z" fill="#027BFE"/></g><g filter="url(#g)"><path d="M326.893 144.099c42.915 42.919 40.371 141.743 14.354 167.763-26.017 26.02-81.897 12.32-124.813-30.6-42.915-42.92-42.068-111.144-16.051-137.163 26.017-26.02 83.595-42.92 126.51 0z" fill="url(#h)"/></g><g filter="url(#i)"><path d="M26.602 221.85c30.346 52.566 126.451 75.685 158.315 57.287 31.865-18.399 33.096-75.927 2.75-128.493C157.322 98.078 91.21 81.239 59.346 99.638 27.48 118.037-3.744 169.284 26.602 221.85z" fill="url(#j)"/></g><g filter="url(#k)"><path d="M211.511 148.999c39.672 9.339 75.028 14.909 71.283 30.82-3.744 15.912-38.941 21.241-78.614 11.902-39.672-9.339-65.841-37.789-62.096-53.701 3.744-15.912 29.754 1.64 69.427 10.979z" fill="#027BFE"/></g></g></g><path d="M143.066 93.799c6.551-1.033 12.687.6 17.144 5.055 4.457 4.455 6.09 10.589 5.057 17.137-1.031 6.542-4.721 13.505-10.919 19.699a41.578 41.578 0 0 1-2.406 2.222 17.934 17.934 0 0 1 8.268 4.713c4.457 4.455 6.09 10.588 5.057 17.137-1.031 6.541-4.721 13.504-10.919 19.699-5.865 5.863-12.904 9.473-19.559 10.552-6.447 1.045-12.574-.284-16.881-4.296l-.411-.397c-3.455-3.454-5.074-8.181-5.034-13.336-1.639 2.561-3.661 5.076-6.063 7.477-5.866 5.863-12.904 9.473-19.56 10.552-6.446 1.045-12.573-.284-16.88-4.296l-.411-.397c-4.323-4.322-5.774-10.633-4.695-17.285 1.079-6.652 4.69-13.687 10.556-19.551.85-.849 1.714-1.65 2.589-2.404-3-.667-5.724-2.005-7.96-4.06l-.49-.47c-4.323-4.322-5.774-10.634-4.695-17.285 1.079-6.653 4.69-13.688 10.556-19.551 6.198-6.195 13.163-9.884 19.707-10.915 6.552-1.033 12.688.6 17.145 5.055 3.512 3.511 5.27 8.067 5.35 13.048a40.836 40.836 0 0 1 5.747-7.188c6.197-6.195 13.162-9.884 19.707-10.915zm16.437 5.762c-4.196-4.193-9.994-5.765-16.282-4.774-6.295.992-13.076 4.557-19.155 10.634-2.685 2.684-4.883 5.615-6.566 8.634l-.936-.278c.378-5.483-1.275-10.482-5.01-14.216-4.195-4.193-9.993-5.765-16.281-4.774-6.296.992-13.076 4.557-19.155 10.634-5.734 5.731-9.234 12.581-10.276 19.004-1.043 6.424.376 12.38 4.414 16.418l.46.439c2.333 2.145 5.244 3.473 8.483 4.017l1.083.181-.848.698a46.346 46.346 0 0 0-3.316 3.013c-5.734 5.732-9.234 12.581-10.276 19.004-1.043 6.424.376 12.381 4.414 16.418l.384.371c4.027 3.752 9.814 5.051 16.04 4.041 6.426-1.041 13.279-4.54 19.013-10.271 2.871-2.871 5.183-5.9 6.928-8.961l.933.291c-.499 5.695 1.01 10.89 4.65 14.529l.384.371c4.027 3.752 9.814 5.051 16.04 4.041 6.427-1.041 13.279-4.54 19.013-10.271 6.079-6.077 9.646-12.855 10.639-19.148.991-6.285-.582-12.081-4.777-16.274-2.45-2.449-5.441-3.997-8.75-4.671l-1.036-.211.82-.667a40.876 40.876 0 0 0 3.104-2.8c6.079-6.076 9.646-12.854 10.639-19.147.991-6.286-.582-12.081-4.777-16.275zm-45.949 26.752c-.499 5.695 1.01 10.89 4.65 14.53l.46.439c2.333 2.145 5.244 3.473 8.484 4.017l1.082.181-.848.698a46.495 46.495 0 0 0-3.316 3.013c-2.685 2.685-4.883 5.616-6.566 8.634l-.936-.277c.378-5.483-1.275-10.483-5.01-14.216-2.45-2.449-5.441-3.998-8.751-4.671l-1.036-.211.82-.667a40.901 40.901 0 0 0 3.106-2.8c2.871-2.87 5.183-5.899 6.928-8.961l.933.291zm-1.091 1.901c-1.639 2.56-3.661 5.076-6.063 7.476a40.938 40.938 0 0 1-2.408 2.222 17.94 17.94 0 0 1 8.27 4.713c3.512 3.511 5.27 8.067 5.35 13.048a40.842 40.842 0 0 1 5.747-7.189 47.653 47.653 0 0 1 2.588-2.404c-3-.667-5.723-2.005-7.96-4.06l-.49-.47c-3.455-3.455-5.074-8.182-5.034-13.336z" fill="url(#l)"/><path d="M192 150.5v-1H32v1h160z" fill="#fff"/><path d="M44.5 162h-1V80h1v82z" fill="#fff"/><path d="M32.5 150c0-6.351 5.149-11.5 11.5-11.5s11.5 5.149 11.5 11.5-5.149 11.5-11.5 11.5-11.5-5.149-11.5-11.5zm-1 0c0 6.904 5.596 12.5 12.5 12.5s12.5-5.596 12.5-12.5-5.596-12.5-12.5-12.5-12.5 5.596-12.5 12.5zM191 82h6v6h-6v-6z" fill="#fff"/><path d="M194.5 43.5v41h-41v-41h41zm-40 40h39v-39h-39v39z" fill="#fff"/><path d="M151 40h6v6h-6v-6zM151 82h6v6h-6v-6zM191 40h6v6h-6v-6zM188.354 77.647l-.708.706-28-28 .708-.706 28 28z" fill="#fff"/><path d="m188.354 50.353-28 28-.708-.706 28-28 .708.706z" fill="#fff"/><defs><filter id="c" x="-9.158" y="93.953" width="268.348" height="191.727" filterUnits="userSpaceOnUse" color-interpolation-filters="sRGB"><feFlood flood-opacity="0" result="BackgroundImageFix"/><feBlend in="SourceGraphic" in2="BackgroundImageFix" result="shape"/><feGaussianBlur stdDeviation="31.752" result="effect1_foregroundBlur_35_14"/></filter><filter id="d" x="24.887" y="23.425" width="265.788" height="257.932" filterUnits="userSpaceOnUse" color-interpolation-filters="sRGB"><feFlood flood-opacity="0" result="BackgroundImageFix"/><feBlend in="SourceGraphic" in2="BackgroundImageFix" result="shape"/><feGaussianBlur stdDeviation="23.092" result="effect1_foregroundBlur_35_14"/></filter><filter id="e" x="-.544" y="110.993" width="225.672" height="203.438" filterUnits="userSpaceOnUse" color-interpolation-filters="sRGB"><feFlood flood-opacity="0" result="BackgroundImageFix"/><feBlend in="SourceGraphic" in2="BackgroundImageFix" result="shape"/><feGaussianBlur stdDeviation="11.546" result="effect1_foregroundBlur_35_14"/></filter><filter id="f" x="-56.644" y="117.064" width="268.348" height="191.727" filterUnits="userSpaceOnUse" color-interpolation-filters="sRGB"><feFlood flood-opacity="0" result="BackgroundImageFix"/><feBlend in="SourceGraphic" in2="BackgroundImageFix" result="shape"/><feGaussianBlur stdDeviation="31.752" result="effect1_foregroundBlur_35_14"/></filter><filter id="g" x="82.241" y="17.869" width="377.87" height="407.172" filterUnits="userSpaceOnUse" color-interpolation-filters="sRGB"><feFlood flood-opacity="0" result="BackgroundImageFix"/><feBlend in="SourceGraphic" in2="BackgroundImageFix" result="shape"/><feGaussianBlur stdDeviation="50" result="effect1_foregroundBlur_35_14"/></filter><filter id="i" x="-85.751" y="-7.558" width="395.396" height="392.948" filterUnits="userSpaceOnUse" color-interpolation-filters="sRGB"><feFlood flood-opacity="0" result="BackgroundImageFix"/><feBlend in="SourceGraphic" in2="BackgroundImageFix" result="shape"/><feGaussianBlur stdDeviation="50" result="effect1_foregroundBlur_35_14"/></filter><filter id="k" x="103.625" y="93.501" width="217.545" height="140.923" filterUnits="userSpaceOnUse" color-interpolation-filters="sRGB"><feFlood flood-opacity="0" result="BackgroundImageFix"/><feBlend in="SourceGraphic" in2="BackgroundImageFix" result="shape"/><feGaussianBlur stdDeviation="19.051" result="effect1_foregroundBlur_35_14"/></filter><linearGradient id="h" x1="188.793" y1="137.755" x2="240.531" y2="234.754" gradientUnits="userSpaceOnUse"><stop stop-color="#fff"/><stop offset="1" stop-color="#fff" stop-opacity="0"/></linearGradient><linearGradient id="j" x1="56.219" y1="86.799" x2="136.526" y2="161.87" gradientUnits="userSpaceOnUse"><stop stop-color="#027BFE"/><stop offset="1" stop-color="#027BFE" stop-opacity="0"/></linearGradient><radialGradient id="l" cx="0" cy="0" r="1" gradientTransform="matrix(126.703 52.1781 -54.4654 121.374 72.331 115.372)" gradientUnits="userSpaceOnUse"><stop stop-color="#fff"/><stop offset="1" stop-color="#fff" stop-opacity="0"/></radialGradient></defs></svg>