<svg width="14" height="18" viewBox="0 0 14 18" fill="none" xmlns="http://www.w3.org/2000/svg">
    <path d="M10.75 10H3.25C3.09375 10 3 10.125 3 10.25V11.25C3 11.4062 3.09375 11.5 3.25 11.5H10.75C10.875 11.5 11 11.4062 11 11.25V10.25C11 10.125 10.875 10 10.75 10ZM12.5 1.1875L11.1562 2.15625L9.9375 1.3125C9.40625 0.9375 8.71875 0.9375 8.1875 1.3125L7 2.15625L5.78125 1.3125C5.5625 1.15625 5.15625 1.03125 4.90625 1.03125C4.625 1.03125 4.25 1.15625 4.03125 1.3125L2.8125 2.15625L1.46875 1.1875C0.84375 0.75 0 1.1875 0 1.9375V16.0938C0 16.8125 0.84375 17.2812 1.46875 16.8438L2.8125 15.8438L4.03125 16.7188C4.5625 17.0938 5.25 17.0938 5.78125 16.7188L7 15.8438L8.1875 16.7188C8.71875 17.0938 9.40625 17.0938 9.9375 16.7188L11.1562 15.8438L12.5 16.8438C13.125 17.2812 14 16.8438 14 16.0938V1.9375C14 1.1875 13.125 0.75 12.5 1.1875ZM12.5 14.9688L11.1562 14L9.0625 15.5L6.96875 14L4.90625 15.5L2.8125 14L1.5 14.9688V3.0625L2.8125 4.03125L4.90625 2.53125L7 4.03125L9.0625 2.53125L11.1562 4.03125L12.5 3.0625V14.9688ZM10.75 6.5H3.25C3.09375 6.5 3 6.625 3 6.75V7.75C3 7.90625 3.09375 8 3.25 8H10.75C10.875 8 11 7.90625 11 7.75V6.75C11 6.625 10.875 6.5 10.75 6.5Z" fill="currentColor" fill-opacity="0.85"/>
</svg>
