<svg width="30" height="30" viewBox="0 0 30 30" fill="none" xmlns="http://www.w3.org/2000/svg">
<g clip-path="url(#clip0_2533_77090)">
<rect opacity="0.01" width="30" height="30" fill="white"/>
<g clip-path="url(#clip1_2533_77090)">
<mask id="mask0_2533_77090" style="mask-type:luminance" maskUnits="userSpaceOnUse" x="5" y="5" width="20" height="20">
<path d="M25 5H5V25H25V5Z" fill="white"/>
</mask>
<g mask="url(#mask0_2533_77090)">
<path d="M5.47832 24.7075L14.8738 15.0764C14.9326 15.0161 14.9439 14.9228 14.8948 14.8543C14.3233 14.0565 13.2692 13.9182 12.8785 13.3823C11.7211 11.7946 11.4274 10.8959 10.9301 10.9517C10.8953 10.9556 10.8644 10.9743 10.84 10.9993L7.44582 14.4785C5.49325 16.48 5.21324 20.8869 5.16189 24.5769C5.15957 24.7437 5.36187 24.8268 5.47832 24.7075Z" fill="#017CEE"/>
<path d="M24.7072 24.4708L15.0762 15.0754C15.0159 15.0165 14.9226 15.0052 14.8541 15.0543C14.0563 15.6258 13.918 16.6799 13.382 17.0706C11.7943 18.228 10.8957 18.5217 10.9514 19.0191C10.9553 19.0538 10.974 19.0848 10.999 19.1091L14.4783 22.5033C16.4798 24.4559 20.8866 24.7359 24.5767 24.7872C24.7434 24.7896 24.8265 24.5873 24.7072 24.4708Z" fill="#00AD46"/>
<path fill-rule="evenodd" clip-rule="evenodd" d="M14.4783 22.5005C13.3849 21.434 12.8777 19.3239 14.9737 14.9727C11.5672 16.495 10.3735 18.4961 10.9607 19.0691L14.4783 22.5005Z" fill="#04D659"/>
<path d="M24.4693 5.2399L15.0739 14.8709C15.015 14.9313 15.0037 15.0245 15.0528 15.093C15.6244 15.8908 16.6784 16.0291 17.0691 16.5651C18.2266 18.1527 18.5203 19.0514 19.0175 18.9957C19.0523 18.9918 19.0832 18.9731 19.1077 18.9481L22.5018 15.4688C24.4544 13.4673 24.7344 9.06047 24.7858 5.37038C24.788 5.20363 24.5858 5.12053 24.4693 5.2399Z" fill="#00C7D4"/>
<path fill-rule="evenodd" clip-rule="evenodd" d="M22.5016 15.4681C21.4349 16.5614 19.3249 17.0687 14.9736 14.9727C16.496 18.3791 18.4971 19.5729 19.07 18.9856L22.5016 15.4681Z" fill="#11E1EE"/>
<path d="M5.24039 5.47857L14.8714 14.874C14.9317 14.9328 15.025 14.9441 15.0935 14.8951C15.8913 14.3235 16.0296 13.2695 16.5655 12.8788C18.1533 11.7213 19.0519 11.4277 18.9961 10.9303C18.9923 10.8956 18.9735 10.8646 18.9486 10.8402L15.4693 7.44607C13.4678 5.49349 9.06096 5.21348 5.37087 5.16213C5.20412 5.15981 5.12102 5.36211 5.24039 5.47857Z" fill="#E43921"/>
<path fill-rule="evenodd" clip-rule="evenodd" d="M15.4691 7.44531C16.5624 8.51191 17.0697 10.6219 14.9736 14.9732C18.3801 13.4509 19.5739 11.4497 18.9866 10.8768L15.4691 7.44531Z" fill="#FF7557"/>
<path fill-rule="evenodd" clip-rule="evenodd" d="M7.4458 14.4792C8.5124 13.3859 10.6224 12.8787 14.9737 14.9747C13.4513 11.5682 11.4502 10.3745 10.8773 10.9617L7.4458 14.4792Z" fill="#0CB6FF"/>
<path d="M14.9805 15.3936C15.2125 15.3907 15.3983 15.2003 15.3954 14.9683C15.3926 14.7363 15.2021 14.5505 14.9701 14.5534C14.7381 14.5563 14.5524 14.7467 14.5553 14.9787C14.5581 15.2107 14.7485 15.3964 14.9805 15.3936Z" fill="#4A4848"/>
</g>
</g>
</g>
<defs>
<clipPath id="clip0_2533_77090">
<rect width="30" height="30" fill="white"/>
</clipPath>
<clipPath id="clip1_2533_77090">
<rect width="20" height="20" fill="white" transform="translate(5 5)"/>
</clipPath>
</defs>
</svg>
