<svg width="32" height="32" viewBox="0 0 32 32" fill="none" xmlns="http://www.w3.org/2000/svg">
<path fill-rule="evenodd" clip-rule="evenodd" d="M16.0002 11.6668C13.6069 11.6668 11.6668 13.6069 11.6668 16.0002C11.6668 18.3934 13.6069 20.3335 16.0002 20.3335C18.3934 20.3335 20.3335 18.3934 20.3335 16.0002C20.3335 13.6069 18.3934 11.6668 16.0002 11.6668ZM13.6668 16.0002C13.6668 14.7115 14.7115 13.6668 16.0002 13.6668C17.2888 13.6668 18.3335 14.7115 18.3335 16.0002C18.3335 17.2888 17.2888 18.3335 16.0002 18.3335C14.7115 18.3335 13.6668 17.2888 13.6668 16.0002Z" fill="#81908D"/>
<path fill-rule="evenodd" clip-rule="evenodd" d="M16.0002 2.58594L2.58594 16.0002L16.0002 29.4144L29.4144 16.0002L16.0002 2.58594ZM16.0002 26.5859L5.41436 16.0002L16.0002 5.41436L26.5859 16.0002L16.0002 26.5859Z" fill="#81908D"/>
</svg>
