<svg width="300" height="300" viewBox="0 0 300 300" fill="none" xmlns="http://www.w3.org/2000/svg">
<path fill-rule="evenodd" clip-rule="evenodd" d="M162.5 229.864C163.56 233.804 164.125 237.948 164.125 242.225C164.125 268.466 142.737 289.787 116.5 289.787C90.2627 289.787 69 268.466 69 242.225C69 224.646 78.4641 209.327 92.625 201.099C73.0514 192.073 59.5 172.307 59.5 149.311C59.5 126.741 72.6306 107.279 91.625 98.0312C78.0649 89.6671 69 74.6942 69 57.5625C69 31.3214 90.2627 10 116.5 10C142.737 10 164.125 31.3214 164.125 57.5625C164.125 61.4202 163.618 65.1699 162.75 68.7601C171.306 60.5134 182.948 55.4375 195.75 55.4375C221.987 55.4375 243.25 76.7589 243.25 103C243.25 125.73 227.334 144.769 206 149.457C227.334 154.144 243.25 173.183 243.25 195.913C243.25 222.155 221.987 243.476 195.75 243.476C182.799 243.476 171.083 238.281 162.5 229.864Z" fill="rgba(255,255,255,0.9)"/>
<path d="M194.284 163.351C184.556 163.351 175.836 167.66 169.864 174.445L154.562 163.612C156.186 159.14 157.119 154.338 157.119 149.311C157.119 144.372 156.219 139.65 154.648 135.244L169.916 124.526C175.887 131.276 184.585 135.562 194.284 135.562C212.237 135.562 226.846 120.956 226.846 103C226.846 85.0439 212.237 70.4375 194.284 70.4375C176.33 70.4375 161.721 85.0439 161.721 103C161.721 106.214 162.207 109.313 163.078 112.248L147.8 122.972C141.418 115.054 132.228 109.526 121.758 107.838V89.4249C136.508 86.3269 147.622 73.2218 147.622 57.5625C147.622 39.6064 133.013 25 115.059 25C97.1058 25 82.497 39.6064 82.497 57.5625C82.497 73.012 93.3227 85.9555 107.778 89.2746V107.927C88.0505 111.39 73 128.606 73 149.311C73 170.117 88.1995 187.397 108.069 190.742V210.438C93.4663 213.647 82.497 226.67 82.497 242.225C82.497 260.181 97.1058 274.787 115.059 274.787C133.013 274.787 147.622 260.181 147.622 242.225C147.622 226.67 136.653 213.647 122.05 210.438V190.741C132.107 189.047 141.205 183.755 147.651 175.852L163.055 186.755C162.2 189.663 161.721 192.732 161.721 195.913C161.721 213.87 176.33 228.476 194.284 228.476C212.237 228.476 226.846 213.87 226.846 195.913C226.846 177.957 212.237 163.351 194.284 163.351V163.351ZM194.284 87.2121C202.99 87.2121 210.071 94.2963 210.071 103C210.071 111.704 202.99 118.787 194.284 118.787C185.578 118.787 178.496 111.704 178.496 103C178.496 94.2963 185.578 87.2121 194.284 87.2121V87.2121ZM99.2716 57.5625C99.2716 48.8588 106.353 41.7752 115.059 41.7752C123.766 41.7752 130.847 48.8588 130.847 57.5625C130.847 66.2662 123.766 73.3498 115.059 73.3498C106.353 73.3498 99.2716 66.2662 99.2716 57.5625ZM130.847 242.225C130.847 250.929 123.766 258.012 115.059 258.012C106.353 258.012 99.2716 250.929 99.2716 242.225C99.2716 233.521 106.353 226.438 115.059 226.438C123.766 226.438 130.847 233.521 130.847 242.225ZM115.058 171.329C102.916 171.329 93.0379 161.453 93.0379 149.311C93.0379 137.169 102.916 127.291 115.058 127.291C127.2 127.291 137.078 137.169 137.078 149.311C137.078 161.453 127.2 171.329 115.058 171.329ZM194.284 211.701C185.578 211.701 178.496 204.617 178.496 195.913C178.496 187.21 185.578 180.126 194.284 180.126C202.99 180.126 210.071 187.21 210.071 195.913C210.071 204.617 202.99 211.701 194.284 211.701Z" fill="#231F20"/>
</svg>
