<svg width="171" height="42" viewBox="0 0 171 42" fill="none" xmlns="http://www.w3.org/2000/svg"><g filter="url(#filter0_dd_5680_276588)"><rect x="2.738" y="2.738" width="165.261" height="36.522" rx="1.826" fill="#4285F4"/><path d="M54.095 23.355c0-.188-.029-.354-.087-.5a.974.974 0 0 0-.293-.399 2.42 2.42 0 0 0-.6-.35 7.944 7.944 0 0 0-.973-.355c-.433-.134-.832-.281-1.199-.444a4.558 4.558 0 0 1-.948-.574c-.27-.22-.48-.472-.63-.755a2.115 2.115 0 0 1-.225-.992c0-.37.077-.708.23-1.011.159-.304.381-.566.668-.787a3.195 3.195 0 0 1 1.03-.518 4.338 4.338 0 0 1 1.31-.187c.675 0 1.255.125 1.742.374.491.25.868.585 1.13 1.005.266.42.4.884.4 1.392h-1.555c0-.3-.064-.564-.193-.793a1.312 1.312 0 0 0-.574-.549c-.254-.133-.577-.2-.968-.2-.37 0-.678.057-.923.169a1.232 1.232 0 0 0-.55.456c-.12.191-.18.407-.18.649 0 .17.039.326.118.468.079.137.2.266.362.387.162.116.366.227.611.33.246.105.535.204.868.3.504.15.943.316 1.317.5.375.178.687.382.936.611.25.229.437.49.562.78.125.288.187.614.187.98 0 .383-.077.728-.23 1.036a2.236 2.236 0 0 1-.662.78 3.165 3.165 0 0 1-1.024.494 4.834 4.834 0 0 1-1.323.168 4.86 4.86 0 0 1-1.292-.175 3.81 3.81 0 0 1-1.148-.53 2.743 2.743 0 0 1-.824-.899c-.204-.362-.306-.784-.306-1.267h1.566c0 .295.05.547.15.755.104.208.248.379.43.512.184.13.396.225.637.287.246.063.508.094.787.094.366 0 .672-.052.917-.156.25-.104.437-.25.562-.437.125-.187.187-.404.187-.65Zm4.42-4.413v6.753h-1.511v-6.753h1.51Zm-1.611-1.773a.77.77 0 0 1 .225-.568c.154-.153.366-.23.636-.23.267 0 .477.077.63.23.155.15.232.34.232.568a.751.751 0 0 1-.231.562c-.154.15-.364.225-.63.225-.271 0-.483-.075-.637-.225a.762.762 0 0 1-.225-.562Zm7.583 1.773h1.367v6.566c0 .608-.129 1.123-.387 1.548a2.487 2.487 0 0 1-1.08.967c-.461.225-.996.337-1.604.337-.257 0-.544-.037-.86-.112a3.53 3.53 0 0 1-.912-.362 2.26 2.26 0 0 1-.73-.643l.705-.886c.241.287.508.497.799.63.291.134.597.2.917.2.346 0 .64-.065.88-.194.246-.124.435-.31.568-.555.134-.245.2-.545.2-.899v-5.068l.138-1.529ZM59.9 22.394v-.131a4.9 4.9 0 0 1 .187-1.399c.125-.424.304-.788.537-1.092.233-.308.516-.543.849-.705.333-.167.71-.25 1.13-.25.436 0 .809.08 1.117.237.312.159.572.385.78.68.208.292.37.641.487 1.05.12.403.21.852.268 1.347v.419a6.76 6.76 0 0 1-.274 1.323c-.13.4-.3.745-.512 1.036a2.184 2.184 0 0 1-.787.674c-.308.158-.672.237-1.092.237-.412 0-.784-.085-1.117-.256a2.543 2.543 0 0 1-.849-.718 3.4 3.4 0 0 1-.537-1.086 4.782 4.782 0 0 1-.187-1.366Zm1.504-.131v.13c0 .308.03.596.087.862.063.266.157.501.281.705.13.2.292.358.487.474.2.113.435.169.706.169.353 0 .642-.075.867-.225.229-.15.404-.351.524-.605.125-.258.213-.545.263-.861v-1.13a2.754 2.754 0 0 0-.156-.687 1.837 1.837 0 0 0-.306-.555 1.277 1.277 0 0 0-.487-.375 1.62 1.62 0 0 0-.693-.137c-.27 0-.505.058-.705.175-.2.116-.364.277-.493.48a2.374 2.374 0 0 0-.281.712c-.063.27-.094.56-.094.867Zm7.502-1.88v5.312h-1.504v-6.753h1.417l.087 1.442Zm-.268 1.686-.487-.006c.004-.479.071-.918.2-1.317.133-.4.316-.743.55-1.03.236-.287.52-.508.848-.662a2.502 2.502 0 0 1 1.099-.237c.324 0 .618.046.88.137a1.6 1.6 0 0 1 .68.431c.191.2.337.46.437.78.1.317.15.706.15 1.168v4.362h-1.51v-4.369c0-.324-.049-.58-.144-.767a.802.802 0 0 0-.406-.406 1.52 1.52 0 0 0-.655-.125c-.258 0-.49.054-.693.162a1.559 1.559 0 0 0-.518.443 2.148 2.148 0 0 0-.319.65 2.681 2.681 0 0 0-.112.786Zm10.685-3.127v6.753h-1.51v-6.753h1.51Zm-1.61-1.773a.77.77 0 0 1 .225-.568c.154-.153.366-.23.637-.23.266 0 .476.077.63.23.154.15.23.34.23.568a.751.751 0 0 1-.23.562c-.154.15-.364.225-.63.225-.27 0-.483-.075-.637-.225a.762.762 0 0 1-.225-.562Zm4.75 3.215v5.311h-1.504v-6.753h1.417l.087 1.442Zm-.268 1.685-.487-.006c.004-.479.07-.918.2-1.317.133-.4.316-.743.549-1.03.237-.287.52-.508.849-.662a2.502 2.502 0 0 1 1.098-.237c.325 0 .618.046.88.137a1.6 1.6 0 0 1 .68.431c.192.2.338.46.437.78.1.317.15.706.15 1.168v4.362h-1.51v-4.369c0-.324-.048-.58-.144-.767a.802.802 0 0 0-.406-.406 1.52 1.52 0 0 0-.655-.125c-.258 0-.489.054-.693.162a1.56 1.56 0 0 0-.518.443 2.148 2.148 0 0 0-.318.65 2.681 2.681 0 0 0-.112.786Zm10.91 2.128 1.56-5.255h.961l-.262 1.573-1.573 5.18h-.861l.175-1.498Zm-.918-5.255 1.217 5.28.1 1.473h-.961l-1.829-6.753h1.473Zm4.9 5.218 1.18-5.218h1.466l-1.822 6.753h-.961l.137-1.535Zm-1.298-5.218 1.541 5.193.194 1.56h-.862l-1.591-5.186-.262-1.567h.98Zm6.578 0v6.753h-1.51v-6.753h1.51Zm-1.61-1.773a.77.77 0 0 1 .225-.568c.154-.153.366-.23.636-.23.267 0 .477.077.631.23.154.15.231.34.231.568a.751.751 0 0 1-.231.562c-.154.15-.364.225-.631.225-.27 0-.482-.075-.636-.225a.761.761 0 0 1-.225-.562Zm6.354 1.773v1.099h-3.808v-1.099h3.808Zm-2.709-1.654h1.504v6.541c0 .208.029.368.088.48a.465.465 0 0 0 .255.22c.109.037.236.055.381.055.104 0 .204-.006.3-.018.095-.013.172-.025.231-.038l.006 1.149c-.125.037-.271.07-.437.1-.162.029-.35.043-.562.043-.345 0-.651-.06-.917-.18a1.343 1.343 0 0 1-.624-.606c-.15-.28-.225-.65-.225-1.111v-6.635Zm5.355-1.18v9.587h-1.498v-9.587h1.498Zm-.262 5.961-.487-.006c.004-.466.069-.897.194-1.292a3.33 3.33 0 0 1 .536-1.03 2.387 2.387 0 0 1 1.917-.924c.332 0 .632.046.898.137.271.092.504.24.699.444.196.2.344.462.444.786.104.32.156.712.156 1.174v4.337h-1.511v-4.35c0-.325-.048-.583-.143-.774a.834.834 0 0 0-.406-.412 1.485 1.485 0 0 0-.655-.131c-.271 0-.51.054-.718.162a1.495 1.495 0 0 0-.512.443 2.056 2.056 0 0 0-.312.65c-.067.245-.1.507-.1.786Zm16.19-1.017v3.47c-.129.17-.33.358-.605.562-.27.2-.63.372-1.08.518-.449.145-1.009.218-1.679.218-.57 0-1.092-.096-1.566-.287a3.423 3.423 0 0 1-1.23-.855 3.93 3.93 0 0 1-.793-1.367c-.187-.54-.28-1.157-.28-1.847v-.63c0-.687.085-1.3.255-1.836.175-.54.425-.998.749-1.373a3.135 3.135 0 0 1 1.174-.849 3.982 3.982 0 0 1 1.566-.293c.745 0 1.361.125 1.848.374.491.246.87.587 1.136 1.024.266.437.435.936.505 1.498h-1.535c-.05-.316-.148-.6-.293-.849a1.492 1.492 0 0 0-.612-.587c-.262-.145-.603-.218-1.024-.218-.362 0-.68.069-.955.206-.274.137-.503.339-.686.605a2.98 2.98 0 0 0-.406.974 5.69 5.69 0 0 0-.137 1.31v.644c0 .499.052.942.156 1.329.108.387.262.714.462.98.204.266.451.468.743.605.291.134.62.2.986.2.358 0 .651-.029.88-.087.229-.063.41-.136.543-.219.137-.087.243-.17.318-.25V22.22h-1.891v-1.167h3.451Zm1.299 1.342v-.144c0-.487.07-.938.212-1.354a3.2 3.2 0 0 1 .612-1.093c.27-.312.599-.553.986-.724a3.21 3.21 0 0 1 1.323-.262c.495 0 .936.088 1.323.262.391.17.722.412.993.724.27.308.476.672.617 1.093.142.416.213.867.213 1.354v.144c0 .486-.071.938-.213 1.354-.141.416-.347.78-.617 1.092-.271.308-.6.55-.987.724-.387.17-.826.256-1.317.256-.495 0-.938-.085-1.329-.256a2.857 2.857 0 0 1-.986-.724 3.223 3.223 0 0 1-.618-1.092 4.168 4.168 0 0 1-.212-1.354Zm1.504-.144v.144c0 .303.031.59.094.86.062.271.16.508.293.712.133.204.304.364.512.481.208.117.455.175.742.175.279 0 .521-.058.724-.175a1.45 1.45 0 0 0 .512-.48c.133-.204.231-.442.294-.712.066-.27.099-.558.099-.861v-.144c0-.3-.033-.582-.099-.849a2.2 2.2 0 0 0-.3-.718 1.432 1.432 0 0 0-.512-.486 1.408 1.408 0 0 0-.73-.181c-.283 0-.529.06-.737.18a1.454 1.454 0 0 0-.505.487 2.257 2.257 0 0 0-.293.718c-.063.267-.094.55-.094.849Zm5.748.144v-.144c0-.487.071-.938.213-1.354.141-.42.345-.785.611-1.093.271-.312.599-.553.986-.724a3.214 3.214 0 0 1 1.324-.262c.495 0 .936.088 1.323.262.391.17.722.412.992.724.271.308.477.672.618 1.093.142.416.212.867.212 1.354v.144c0 .486-.07.938-.212 1.354-.141.416-.347.78-.618 1.092-.27.308-.599.55-.986.724-.387.17-.826.256-1.317.256-.495 0-.938-.085-1.329-.256a2.87 2.87 0 0 1-.987-.724 3.238 3.238 0 0 1-.617-1.092 4.168 4.168 0 0 1-.213-1.354Zm1.505-.144v.144c0 .303.031.59.093.86.063.271.16.508.294.712.133.204.303.364.511.481.208.117.456.175.743.175.279 0 .52-.058.724-.175a1.45 1.45 0 0 0 .512-.48c.133-.204.231-.442.293-.712.067-.27.1-.558.1-.861v-.144c0-.3-.033-.582-.1-.849a2.177 2.177 0 0 0-.299-.718 1.44 1.44 0 0 0-.512-.486 1.408 1.408 0 0 0-.73-.181c-.283 0-.529.06-.737.18a1.446 1.446 0 0 0-.505.487 2.258 2.258 0 0 0-.294.718c-.062.267-.093.55-.093.849Zm10.36-3.308h1.367v6.566c0 .608-.129 1.123-.387 1.548a2.49 2.49 0 0 1-1.079.967c-.462.225-.997.337-1.604.337-.258 0-.546-.037-.862-.112a3.525 3.525 0 0 1-.911-.362 2.256 2.256 0 0 1-.73-.643l.705-.886c.241.287.508.497.799.63.291.134.597.2.917.2.346 0 .639-.065.88-.194.246-.124.435-.31.568-.555.134-.245.2-.545.2-.899v-5.068l.137-1.529Zm-4.587 3.452v-.131c0-.512.062-.978.187-1.399.125-.424.304-.788.537-1.092.233-.308.516-.543.849-.705a2.49 2.49 0 0 1 1.129-.25c.437 0 .81.08 1.118.237.312.159.572.385.78.68.208.292.37.641.487 1.05.12.403.21.852.268 1.347v.419a6.747 6.747 0 0 1-.274 1.323c-.129.4-.3.745-.512 1.036a2.194 2.194 0 0 1-.787.674c-.308.158-.672.237-1.092.237-.412 0-.784-.085-1.117-.256a2.539 2.539 0 0 1-.849-.718 3.404 3.404 0 0 1-.537-1.086 4.775 4.775 0 0 1-.187-1.366Zm1.504-.131v.13c0 .308.029.596.088.862.062.266.156.501.28.705.129.2.292.358.487.474.2.113.435.169.706.169.353 0 .642-.075.867-.225.229-.15.404-.351.524-.605.125-.258.213-.545.263-.861v-1.13a2.72 2.72 0 0 0-.157-.687 1.816 1.816 0 0 0-.305-.555 1.282 1.282 0 0 0-.487-.375 1.624 1.624 0 0 0-.693-.137c-.27 0-.506.058-.705.175a1.43 1.43 0 0 0-.493.48 2.36 2.36 0 0 0-.281.712c-.063.27-.094.56-.094.867Zm7.621-6.155v9.587h-1.51v-9.587h1.51Zm4.625 9.712c-.499 0-.951-.081-1.354-.243a2.987 2.987 0 0 1-1.024-.693 3.072 3.072 0 0 1-.643-1.042c-.15-.4-.225-.83-.225-1.292v-.25c0-.529.077-1.007.231-1.436a3.27 3.27 0 0 1 .643-1.098c.275-.308.599-.543.974-.705.374-.163.78-.244 1.217-.244.483 0 .905.081 1.267.244.362.162.662.39.899.686.241.291.42.639.537 1.043.12.403.181.848.181 1.335v.643h-5.218v-1.08h3.732v-.118a2.103 2.103 0 0 0-.162-.762 1.3 1.3 0 0 0-.443-.574c-.2-.146-.466-.219-.799-.219-.25 0-.473.055-.668.163a1.318 1.318 0 0 0-.481.455 2.38 2.38 0 0 0-.299.725c-.067.278-.1.592-.1.942v.25c0 .295.039.57.118.823.084.25.204.469.362.656.159.187.35.335.575.443.224.104.48.156.767.156.362 0 .685-.073.968-.218.283-.146.528-.352.736-.618l.793.767a3.1 3.1 0 0 1-.568.612 2.842 2.842 0 0 1-.855.468c-.333.12-.72.181-1.161.181Z" fill="#fff"/></g><g filter="url(#filter1_dd_5680_276588)"><path d="M37.435 2.74H4.565A1.826 1.826 0 0 0 2.74 4.564v32.87c0 1.008.818 1.826 1.826 1.826h32.87a1.826 1.826 0 0 0 1.826-1.826V4.565a1.826 1.826 0 0 0-1.826-1.826Z" fill="#4285F4"/></g><path d="M37.435 3.652H4.565a.913.913 0 0 0-.913.913v32.87c0 .504.41.913.913.913h32.87a.913.913 0 0 0 .913-.913V4.565a.913.913 0 0 0-.913-.913Z" fill="#fff"/><path fill-rule="evenodd" clip-rule="evenodd" d="M28.89 21.187c0-.583-.053-1.143-.15-1.681h-7.739v3.178h4.422a3.78 3.78 0 0 1-1.64 2.48v2.063h2.656c1.554-1.431 2.45-3.538 2.45-6.04Z" fill="#4285F4"/><path fill-rule="evenodd" clip-rule="evenodd" d="M21 29.218c2.22 0 4.08-.736 5.439-1.991l-2.656-2.062c-.736.493-1.677.784-2.782.784-2.14 0-3.952-1.445-4.598-3.388h-2.746v2.13a8.214 8.214 0 0 0 7.344 4.527Z" fill="#34A853"/><path fill-rule="evenodd" clip-rule="evenodd" d="M16.403 22.562a4.938 4.938 0 0 1-.258-1.561c0-.542.093-1.068.258-1.561v-2.13h-2.746a8.215 8.215 0 0 0-.874 3.69c0 1.327.318 2.582.874 3.691l2.746-2.129Z" fill="#FBBC05"/><path fill-rule="evenodd" clip-rule="evenodd" d="M21 16.052c1.207 0 2.29.414 3.142 1.228l2.357-2.357c-1.423-1.325-3.284-2.14-5.498-2.14a8.214 8.214 0 0 0-7.344 4.527l2.746 2.13c.646-1.943 2.457-3.389 4.598-3.389Z" fill="#EA4335"/><defs><filter id="filter0_dd_5680_276588" x="1.825" y="1.825" width="167.087" height="39.261" filterUnits="userSpaceOnUse" color-interpolation-filters="sRGB"><feFlood flood-opacity="0" result="BackgroundImageFix"/><feColorMatrix in="SourceAlpha" values="0 0 0 0 0 0 0 0 0 0 0 0 0 0 0 0 0 0 127 0" result="hardAlpha"/><feOffset dy=".913"/><feGaussianBlur stdDeviation=".457"/><feColorMatrix values="0 0 0 0 0 0 0 0 0 0 0 0 0 0 0 0 0 0 0.168 0"/><feBlend in2="BackgroundImageFix" result="effect1_dropShadow_5680_276588"/><feColorMatrix in="SourceAlpha" values="0 0 0 0 0 0 0 0 0 0 0 0 0 0 0 0 0 0 127 0" result="hardAlpha"/><feOffset/><feGaussianBlur stdDeviation=".457"/><feColorMatrix values="0 0 0 0 0 0 0 0 0 0 0 0 0 0 0 0 0 0 0.084 0"/><feBlend in2="effect1_dropShadow_5680_276588" result="effect2_dropShadow_5680_276588"/><feBlend in="SourceGraphic" in2="effect2_dropShadow_5680_276588" result="shape"/></filter><filter id="filter1_dd_5680_276588" x="1.826" y="1.826" width="38.348" height="39.261" filterUnits="userSpaceOnUse" color-interpolation-filters="sRGB"><feFlood flood-opacity="0" result="BackgroundImageFix"/><feColorMatrix in="SourceAlpha" values="0 0 0 0 0 0 0 0 0 0 0 0 0 0 0 0 0 0 127 0" result="hardAlpha"/><feOffset dy=".913"/><feGaussianBlur stdDeviation=".457"/><feColorMatrix values="0 0 0 0 0 0 0 0 0 0 0 0 0 0 0 0 0 0 0.168 0"/><feBlend in2="BackgroundImageFix" result="effect1_dropShadow_5680_276588"/><feColorMatrix in="SourceAlpha" values="0 0 0 0 0 0 0 0 0 0 0 0 0 0 0 0 0 0 127 0" result="hardAlpha"/><feOffset/><feGaussianBlur stdDeviation=".457"/><feColorMatrix values="0 0 0 0 0 0 0 0 0 0 0 0 0 0 0 0 0 0 0.084 0"/><feBlend in2="effect1_dropShadow_5680_276588" result="effect2_dropShadow_5680_276588"/><feBlend in="SourceGraphic" in2="effect2_dropShadow_5680_276588" result="shape"/></filter></defs></svg>