<svg width="171" height="42" viewBox="0 0 179 42" fill="none" xmlns="http://www.w3.org/2000/svg"><g filter="url(#filter0_dd_5680_276620)"><rect x="2.738" y="2.738" width="172.565" height="36.522" rx="1.826" fill="#4285F4"/><path d="M52.722 21.588h-2.315l-.013-1.142h2.022c.342 0 .63-.05.868-.15a1.2 1.2 0 0 0 .55-.443c.124-.195.186-.43.186-.705 0-.304-.058-.551-.174-.743a1 1 0 0 0-.537-.418c-.237-.087-.541-.131-.911-.131H50.88v7.84h-1.567v-9.088h3.084c.499 0 .944.047 1.335.143.396.096.73.246 1.005.45.279.2.49.453.63.761.146.308.22.674.22 1.099 0 .374-.09.717-.27 1.03-.178.307-.442.56-.792.755-.35.195-.784.312-1.304.35l-.5.392Zm-.068 4.107h-2.74l.705-1.242h2.035c.353 0 .649-.058.886-.174.237-.121.414-.285.53-.494.121-.212.181-.46.181-.742 0-.296-.052-.552-.156-.768a1.075 1.075 0 0 0-.493-.506c-.224-.12-.518-.18-.88-.18h-1.76l.013-1.143h2.29l.356.43c.5.017.91.128 1.23.332.324.204.566.468.724.792.158.325.237.674.237 1.049 0 .578-.127 1.063-.381 1.454-.25.391-.61.689-1.08.893-.47.2-1.036.3-1.697.3Zm4.3-3.301v-.144c0-.487.07-.938.212-1.354.142-.42.346-.785.612-1.093.27-.312.599-.553.986-.724a3.211 3.211 0 0 1 1.323-.262c.495 0 .936.088 1.323.262.392.17.722.412.993.724.27.308.476.672.618 1.093.141.416.212.867.212 1.354v.144c0 .486-.07.938-.212 1.354a3.24 3.24 0 0 1-.618 1.092c-.27.308-.6.55-.986.724-.387.17-.826.256-1.317.256-.495 0-.939-.085-1.33-.256a2.863 2.863 0 0 1-.986-.724 3.24 3.24 0 0 1-.618-1.092 4.182 4.182 0 0 1-.212-1.354Zm1.504-.144v.144c0 .303.031.59.094.86.062.271.16.508.293.712.133.204.304.364.512.481.208.117.456.175.743.175.279 0 .52-.058.724-.175a1.45 1.45 0 0 0 .512-.48c.133-.204.23-.442.293-.712.066-.27.1-.558.1-.861v-.144c0-.3-.034-.582-.1-.849a2.182 2.182 0 0 0-.3-.718 1.433 1.433 0 0 0-.511-.486 1.41 1.41 0 0 0-.73-.181c-.284 0-.53.06-.737.18a1.449 1.449 0 0 0-.506.487 2.262 2.262 0 0 0-.293.718c-.063.267-.094.55-.094.849Zm7.59 1.248 2.653-4.556h1.504v6.753H68.7v-4.562l-2.653 4.562h-1.504v-6.753h1.504v4.556Zm2.253-7.152h1.117c0 .345-.083.65-.25.917a1.664 1.664 0 0 1-.698.618c-.3.15-.658.225-1.074.225-.628 0-1.126-.163-1.492-.487-.362-.329-.543-.753-.543-1.273h1.117c0 .233.07.439.207.617.141.175.378.263.711.263.329 0 .562-.088.7-.263a.987.987 0 0 0 .205-.617Zm6.629 2.596v6.753h-1.51v-6.753h1.51Zm2.215 0v1.186h-5.904v-1.186h5.904Zm2.56 4.556 2.652-4.556h1.504v6.753h-1.504v-4.562l-2.653 4.562H78.2v-6.753h1.504v4.556Zm14.355-4.556v6.753h-1.505v-6.753h1.505Zm-.637 2.99v1.192c-.183.079-.389.152-.618.218a6.897 6.897 0 0 1-.711.156c-.25.038-.502.056-.756.056-.595 0-1.108-.091-1.541-.274a2.1 2.1 0 0 1-.993-.843c-.228-.383-.343-.867-.343-1.454v-2.047h1.498v2.047c0 .337.05.605.15.805.104.2.258.343.462.43.204.088.46.132.767.132.258 0 .502-.017.73-.05.23-.038.456-.087.681-.15.225-.062.45-.135.674-.218Zm5.218 3.888c-.5 0-.95-.081-1.354-.243a2.99 2.99 0 0 1-1.024-.693 3.071 3.071 0 0 1-.643-1.042 3.65 3.65 0 0 1-.225-1.292v-.25c0-.529.077-1.007.231-1.436.154-.428.369-.794.643-1.098.275-.308.6-.543.974-.705.374-.163.78-.244 1.217-.244.483 0 .905.081 1.267.244.362.162.662.39.899.686.241.291.42.639.537 1.043.12.403.181.848.181 1.335v.643h-5.218v-1.08h3.732v-.118a2.111 2.111 0 0 0-.162-.762 1.294 1.294 0 0 0-.443-.574c-.2-.146-.466-.219-.8-.219-.249 0-.472.055-.667.163a1.321 1.321 0 0 0-.48.455c-.13.2-.23.442-.3.725-.067.278-.1.592-.1.942v.25c0 .295.04.57.118.823.084.25.204.469.362.656.159.187.35.335.575.443.224.104.48.156.767.156.362 0 .685-.073.968-.218.283-.146.528-.352.736-.618l.793.767a3.1 3.1 0 0 1-.568.612 2.842 2.842 0 0 1-.855.468 3.4 3.4 0 0 1-1.161.181Zm5.386-5.58v8.052h-1.504v-9.35h1.386l.118 1.298Zm4.401 2.016v.131c0 .491-.059.947-.175 1.367-.112.416-.281.78-.506 1.092-.22.308-.493.548-.817.718-.325.17-.699.256-1.124.256-.42 0-.788-.077-1.104-.23a2.253 2.253 0 0 1-.793-.669 3.606 3.606 0 0 1-.524-1.01 6.484 6.484 0 0 1-.275-1.287v-.505c.054-.495.146-.945.275-1.348.133-.404.307-.751.524-1.043a2.23 2.23 0 0 1 .793-.674 2.386 2.386 0 0 1 1.092-.237c.424 0 .801.083 1.129.25.329.162.606.395.831.699.224.3.393.662.505 1.086.113.42.169.888.169 1.404Zm-1.505.131v-.13c0-.313-.029-.602-.087-.868a2.256 2.256 0 0 0-.275-.712 1.341 1.341 0 0 0-.48-.474 1.309 1.309 0 0 0-.693-.175c-.266 0-.495.046-.686.137-.192.088-.352.21-.481.369a1.745 1.745 0 0 0-.3.555c-.07.208-.12.435-.149.68v1.211c.049.3.135.575.255.824.121.25.292.45.512.6.225.145.512.218.862.218.27 0 .501-.058.692-.175.192-.116.348-.277.468-.48.125-.209.217-.448.275-.718a4.1 4.1 0 0 0 .087-.862Zm5.761 3.433c-.499 0-.95-.081-1.354-.243a2.997 2.997 0 0 1-1.024-.693 3.07 3.07 0 0 1-.642-1.042c-.15-.4-.225-.83-.225-1.292v-.25c0-.529.077-1.007.231-1.436.154-.428.368-.794.643-1.098a2.76 2.76 0 0 1 .973-.705c.375-.163.78-.244 1.217-.244.483 0 .905.081 1.267.244.362.162.662.39.899.686.242.291.42.639.537 1.043.121.403.181.848.181 1.335v.643h-5.218v-1.08h3.732v-.118a2.103 2.103 0 0 0-.162-.762 1.286 1.286 0 0 0-.443-.574c-.2-.146-.466-.219-.799-.219-.25 0-.472.055-.668.163a1.323 1.323 0 0 0-.48.455c-.129.2-.229.442-.3.725a4.1 4.1 0 0 0-.1.942v.25c0 .295.04.57.119.823.083.25.204.469.362.656.158.187.349.335.574.443.225.104.481.156.768.156.362 0 .684-.073.967-.218.283-.146.529-.352.737-.618l.792.767a3.07 3.07 0 0 1-.568.612 2.842 2.842 0 0 1-.855.468c-.333.12-.72.181-1.161.181Zm6.673-3.352h-1.299v-.761h1.049c.266 0 .478-.035.637-.106a.677.677 0 0 0 .343-.293.917.917 0 0 0 .106-.45.889.889 0 0 0-.106-.424.772.772 0 0 0-.343-.337c-.163-.088-.383-.131-.662-.131-.229 0-.435.037-.618.112-.179.075-.32.179-.424.312a.73.73 0 0 0-.156.462h-1.505c0-.42.119-.782.356-1.086.241-.304.564-.537.968-.7a3.528 3.528 0 0 1 1.329-.243c.412 0 .782.044 1.111.131.329.084.608.209.836.375.233.162.41.366.531.612.125.241.187.522.187.842 0 .23-.054.445-.162.65a1.687 1.687 0 0 1-.468.542 2.34 2.34 0 0 1-.743.362c-.287.088-.61.131-.967.131Zm-1.299-.436h1.299c.399 0 .753.04 1.061.118.308.075.566.187.774.337.208.15.364.335.468.556.108.216.162.466.162.749 0 .316-.069.6-.206.855-.133.25-.325.462-.574.636a2.724 2.724 0 0 1-.88.4 4.353 4.353 0 0 1-1.13.137c-.449 0-.886-.075-1.311-.225-.42-.15-.767-.38-1.042-.692-.27-.317-.406-.718-.406-1.205h1.504c0 .17.052.33.157.48.104.15.253.273.449.369.195.091.431.137.705.137.283 0 .514-.044.693-.13a.955.955 0 0 0 .399-.357.922.922 0 0 0 .132-.474c0-.225-.044-.406-.132-.543a.741.741 0 0 0-.399-.3 1.953 1.953 0 0 0-.674-.1h-1.049v-.748Zm15.354-.98v3.47c-.129.17-.33.358-.605.562-.27.2-.63.372-1.08.518-.449.145-1.009.218-1.679.218-.57 0-1.092-.096-1.566-.287a3.423 3.423 0 0 1-1.23-.855 3.93 3.93 0 0 1-.793-1.367c-.187-.54-.28-1.157-.28-1.847v-.63c0-.687.085-1.3.255-1.836.175-.54.425-.998.749-1.373a3.135 3.135 0 0 1 1.174-.849 3.982 3.982 0 0 1 1.566-.293c.745 0 1.361.125 1.848.374.491.246.87.587 1.136 1.024.266.437.435.936.505 1.498h-1.535c-.05-.316-.148-.6-.293-.849a1.492 1.492 0 0 0-.612-.587c-.262-.145-.603-.218-1.024-.218-.362 0-.68.069-.955.206-.274.137-.503.339-.686.605a2.98 2.98 0 0 0-.406.974 5.69 5.69 0 0 0-.137 1.31v.644c0 .499.052.942.156 1.329.108.387.262.714.462.98.204.266.451.468.743.605.291.134.62.2.986.2.358 0 .651-.029.88-.087.229-.063.41-.136.543-.219.137-.087.243-.17.318-.25V22.22h-1.891v-1.167h3.451Zm1.299 1.342v-.144c0-.487.07-.938.212-1.354a3.2 3.2 0 0 1 .612-1.093c.27-.312.599-.553.986-.724a3.21 3.21 0 0 1 1.323-.262c.495 0 .936.088 1.323.262.391.17.722.412.993.724.27.308.476.672.617 1.093.142.416.213.867.213 1.354v.144c0 .486-.071.938-.213 1.354-.141.416-.347.78-.617 1.092-.271.308-.6.55-.987.724-.387.17-.826.256-1.317.256-.495 0-.938-.085-1.329-.256a2.857 2.857 0 0 1-.986-.724 3.223 3.223 0 0 1-.618-1.092 4.168 4.168 0 0 1-.212-1.354Zm1.504-.144v.144c0 .303.031.59.094.86.062.271.16.508.293.712.133.204.304.364.512.481.208.117.455.175.742.175.279 0 .521-.058.724-.175a1.45 1.45 0 0 0 .512-.48c.133-.204.231-.442.294-.712.066-.27.099-.558.099-.861v-.144c0-.3-.033-.582-.099-.849a2.2 2.2 0 0 0-.3-.718 1.432 1.432 0 0 0-.512-.486 1.408 1.408 0 0 0-.73-.181c-.283 0-.529.06-.737.18a1.454 1.454 0 0 0-.505.487 2.257 2.257 0 0 0-.293.718c-.063.267-.094.55-.094.849Zm5.748.144v-.144c0-.487.071-.938.213-1.354.141-.42.345-.785.611-1.093.271-.312.599-.553.986-.724a3.214 3.214 0 0 1 1.324-.262c.495 0 .936.088 1.323.262.391.17.722.412.992.724.271.308.477.672.618 1.093.142.416.212.867.212 1.354v.144c0 .486-.07.938-.212 1.354-.141.416-.347.78-.618 1.092-.27.308-.599.55-.986.724-.387.17-.826.256-1.317.256-.495 0-.938-.085-1.329-.256a2.87 2.87 0 0 1-.987-.724 3.238 3.238 0 0 1-.617-1.092 4.168 4.168 0 0 1-.213-1.354Zm1.505-.144v.144c0 .303.031.59.093.86.063.271.16.508.293.712.134.204.304.364.512.481.208.117.456.175.743.175.279 0 .52-.058.724-.175a1.45 1.45 0 0 0 .512-.48c.133-.204.231-.442.293-.712.067-.27.1-.558.1-.861v-.144c0-.3-.033-.582-.1-.849a2.177 2.177 0 0 0-.299-.718 1.44 1.44 0 0 0-.512-.486 1.41 1.41 0 0 0-.73-.181c-.283 0-.529.06-.737.18a1.457 1.457 0 0 0-.506.487 2.28 2.28 0 0 0-.293.718c-.062.267-.093.55-.093.849Zm10.36-3.308h1.367v6.566c0 .608-.129 1.123-.387 1.548a2.49 2.49 0 0 1-1.079.967c-.462.225-.997.337-1.605.337a3.77 3.77 0 0 1-.861-.112 3.525 3.525 0 0 1-.911-.362 2.256 2.256 0 0 1-.73-.643l.705-.886c.241.287.508.497.799.63.291.134.597.2.917.2.346 0 .639-.065.88-.194.246-.124.435-.31.568-.555.134-.245.2-.545.2-.899v-5.068l.137-1.529Zm-4.587 3.452v-.131c0-.512.062-.978.187-1.399.125-.424.304-.788.537-1.092.233-.308.516-.543.849-.705a2.49 2.49 0 0 1 1.129-.25c.437 0 .81.08 1.118.237.312.159.572.385.78.68.208.292.37.641.487 1.05.12.403.21.852.268 1.347v.419a6.746 6.746 0 0 1-.275 1.323 3.63 3.63 0 0 1-.511 1.036 2.194 2.194 0 0 1-.787.674c-.308.158-.672.237-1.092.237-.412 0-.784-.085-1.117-.256a2.539 2.539 0 0 1-.849-.718 3.404 3.404 0 0 1-.537-1.086 4.775 4.775 0 0 1-.187-1.366Zm1.504-.131v.13c0 .308.029.596.087.862.063.266.157.501.281.705.129.2.292.358.487.474.2.113.435.169.705.169.354 0 .643-.075.868-.225.229-.15.404-.351.524-.605.125-.258.213-.545.262-.861v-1.13a2.676 2.676 0 0 0-.156-.687 1.816 1.816 0 0 0-.305-.555 1.282 1.282 0 0 0-.487-.375 1.624 1.624 0 0 0-.693-.137c-.27 0-.506.058-.705.175a1.43 1.43 0 0 0-.493.48 2.36 2.36 0 0 0-.281.712c-.063.27-.094.56-.094.867Zm7.621-6.155v9.587h-1.51v-9.587h1.51Zm4.625 9.712c-.499 0-.951-.081-1.354-.243a2.987 2.987 0 0 1-1.024-.693 3.072 3.072 0 0 1-.643-1.042c-.15-.4-.225-.83-.225-1.292v-.25c0-.529.077-1.007.231-1.436a3.27 3.27 0 0 1 .643-1.098c.275-.308.599-.543.974-.705.374-.163.78-.244 1.217-.244.483 0 .905.081 1.267.244.362.162.662.39.899.686.241.291.42.639.537 1.043.12.403.181.848.181 1.335v.643h-5.218v-1.08h3.732v-.118a2.103 2.103 0 0 0-.162-.762 1.3 1.3 0 0 0-.443-.574c-.2-.146-.466-.219-.799-.219-.25 0-.473.055-.668.163a1.318 1.318 0 0 0-.481.455 2.38 2.38 0 0 0-.299.725c-.067.278-.1.592-.1.942v.25c0 .295.039.57.118.823.084.25.204.469.362.656.159.187.35.335.575.443.224.104.48.156.767.156.362 0 .685-.073.968-.218.283-.146.528-.352.736-.618l.793.767a3.1 3.1 0 0 1-.568.612 2.842 2.842 0 0 1-.855.468c-.333.12-.72.181-1.161.181Z" fill="#fff"/></g><g filter="url(#filter1_dd_5680_276620)"><path d="M37.435 2.74H4.565A1.826 1.826 0 0 0 2.74 4.564v32.87c0 1.008.818 1.826 1.826 1.826h32.87a1.826 1.826 0 0 0 1.826-1.826V4.565a1.826 1.826 0 0 0-1.826-1.826Z" fill="#4285F4"/></g><path d="M37.435 3.652H4.565a.913.913 0 0 0-.913.913v32.87c0 .504.41.913.913.913h32.87a.913.913 0 0 0 .913-.913V4.565a.913.913 0 0 0-.913-.913Z" fill="#fff"/><path fill-rule="evenodd" clip-rule="evenodd" d="M28.89 21.187c0-.583-.053-1.143-.15-1.681h-7.739v3.178h4.422a3.78 3.78 0 0 1-1.64 2.48v2.063h2.656c1.554-1.431 2.45-3.538 2.45-6.04Z" fill="#4285F4"/><path fill-rule="evenodd" clip-rule="evenodd" d="M21 29.218c2.22 0 4.08-.736 5.439-1.991l-2.656-2.062c-.736.493-1.677.784-2.782.784-2.14 0-3.952-1.445-4.598-3.388h-2.746v2.13a8.214 8.214 0 0 0 7.344 4.527Z" fill="#34A853"/><path fill-rule="evenodd" clip-rule="evenodd" d="M16.403 22.562a4.938 4.938 0 0 1-.258-1.561c0-.542.093-1.068.258-1.561v-2.13h-2.746a8.215 8.215 0 0 0-.874 3.69c0 1.327.318 2.582.874 3.691l2.746-2.129Z" fill="#FBBC05"/><path fill-rule="evenodd" clip-rule="evenodd" d="M21 16.052c1.207 0 2.29.414 3.142 1.228l2.357-2.357c-1.423-1.325-3.284-2.14-5.498-2.14a8.214 8.214 0 0 0-7.344 4.527l2.746 2.13c.646-1.943 2.457-3.389 4.598-3.389Z" fill="#EA4335"/><defs><filter id="filter0_dd_5680_276620" x="1.825" y="1.825" width="174.392" height="39.261" filterUnits="userSpaceOnUse" color-interpolation-filters="sRGB"><feFlood flood-opacity="0" result="BackgroundImageFix"/><feColorMatrix in="SourceAlpha" values="0 0 0 0 0 0 0 0 0 0 0 0 0 0 0 0 0 0 127 0" result="hardAlpha"/><feOffset dy=".913"/><feGaussianBlur stdDeviation=".457"/><feColorMatrix values="0 0 0 0 0 0 0 0 0 0 0 0 0 0 0 0 0 0 0.168 0"/><feBlend in2="BackgroundImageFix" result="effect1_dropShadow_5680_276620"/><feColorMatrix in="SourceAlpha" values="0 0 0 0 0 0 0 0 0 0 0 0 0 0 0 0 0 0 127 0" result="hardAlpha"/><feOffset/><feGaussianBlur stdDeviation=".457"/><feColorMatrix values="0 0 0 0 0 0 0 0 0 0 0 0 0 0 0 0 0 0 0.084 0"/><feBlend in2="effect1_dropShadow_5680_276620" result="effect2_dropShadow_5680_276620"/><feBlend in="SourceGraphic" in2="effect2_dropShadow_5680_276620" result="shape"/></filter><filter id="filter1_dd_5680_276620" x="1.826" y="1.826" width="38.348" height="39.261" filterUnits="userSpaceOnUse" color-interpolation-filters="sRGB"><feFlood flood-opacity="0" result="BackgroundImageFix"/><feColorMatrix in="SourceAlpha" values="0 0 0 0 0 0 0 0 0 0 0 0 0 0 0 0 0 0 127 0" result="hardAlpha"/><feOffset dy=".913"/><feGaussianBlur stdDeviation=".457"/><feColorMatrix values="0 0 0 0 0 0 0 0 0 0 0 0 0 0 0 0 0 0 0.168 0"/><feBlend in2="BackgroundImageFix" result="effect1_dropShadow_5680_276620"/><feColorMatrix in="SourceAlpha" values="0 0 0 0 0 0 0 0 0 0 0 0 0 0 0 0 0 0 127 0" result="hardAlpha"/><feOffset/><feGaussianBlur stdDeviation=".457"/><feColorMatrix values="0 0 0 0 0 0 0 0 0 0 0 0 0 0 0 0 0 0 0.084 0"/><feBlend in2="effect1_dropShadow_5680_276620" result="effect2_dropShadow_5680_276620"/><feBlend in="SourceGraphic" in2="effect2_dropShadow_5680_276620" result="shape"/></filter></defs></svg>