<svg width="20" height="16" viewBox="0 0 20 16" fill="none" xmlns="http://www.w3.org/2000/svg"><g clip-path="url(#a)"><path fill="#4DA2F1" d="M0 0h4v4H0z"/><path fill="#0CA18C" d="M16 0h4v4h-4z"/><path fill="#1E69A9" d="M12 4h4v4h-4z"/><path fill="#FFB46C" d="M8 4h4v4H8z"/><path fill="#FF90A1" d="M16 4h4v4h-4z"/><path fill="#BA74B3" d="M12 12h4v4h-4z"/><path fill="#BF2543" d="M4 4h4v4H4z"/><path fill="#8AD554" d="M0 8h4v4H0z"/><path fill="#E8B0A4" d="M12 8h4v4h-4z"/><path fill="#70C1AF" d="M4 0h4v4H4z"/><path fill="#FFB9DD" d="M16 12h4v4h-4z"/><path fill="#84D1EE" d="M8 12h4v4H8z"/><path fill="#FF7E00" d="M0 4h4v4H0z"/><path fill="#FFC636" d="M12 0h4v4h-4z"/><path fill="#53A6C5" d="M16 8h4v4h-4z"/><path fill="#54A520" d="M4 12h4v4H4z"/><path fill="#EE65A9" d="M0 12h4v4H0z"/><path fill="#DBA2D7" d="M4 8h4v4H4z"/><path fill="#DB9101" d="M8 0h4v4H8z"/><path fill="#FF3D64" d="M8 8h4v4H8z"/></g><defs><clipPath id="a"><rect width="20" height="16" rx="2" fill="#fff"/></clipPath></defs></svg>