<svg width="20" height="16" viewBox="0 0 20 16" fill="none" xmlns="http://www.w3.org/2000/svg"><g clip-path="url(#a)"><path fill="#1C666E" d="M4 0v4H0V0z"/><path fill="#1E7276" d="M4 4v4H0V4z"/><path fill="#207E7E" d="M4 8v4H0V8z"/><path fill="#228782" d="M4 12v4H0v-4z"/><path fill="#248F84" d="M8 0v4H4V0z"/><path fill="#269786" d="M8 4v4H4V4z"/><path fill="#289F87" d="M8 8v4H4V8z"/><path fill="#2AA788" d="M8 12v4H4v-4z"/><path fill="#2CAF88" d="M12 0v4H8V0z"/><path fill="#2EB887" d="M12 4v4H8V4z"/><path fill="#30C086" d="M12 8v4H8V8z"/><path fill="#37CD84" d="M12 12v4H8v-4z"/><path fill="#48D183" d="M16 0v4h-4V0z"/><path fill="#58D583" d="M16 4v4h-4V4z"/><path fill="#68D986" d="M16 8v4h-4V8z"/><path fill="#79DD8B" d="M16 12v4h-4v-4z"/><path fill="#89E192" d="M20 0v4h-4V0z"/><path fill="#99E69A" d="M20 4v4h-4V4z"/><path fill="#AEEAAA" d="M20 8v4h-4V8z"/><path fill="#C2EEBA" d="M20 12v4h-4v-4z"/></g><defs><clipPath id="a"><rect width="20" height="16" rx="2" fill="#fff"/></clipPath></defs></svg>