<svg width="20" height="16" viewBox="0 0 20 16" fill="none" xmlns="http://www.w3.org/2000/svg"><g clip-path="url(#a)"><path fill="#880132" d="M4 0v4H0V0z"/><path fill="#FD7207" d="M16 0v4h-4V0z"/><path fill="#ED4902" d="M12 8v4H8V8z"/><path fill="#FDDE43" d="M20 8v4h-4V8z"/><path fill="#C40802" d="M8 8v4H4V8z"/><path fill="#E33702" d="M12 4v4H8V4z"/><path fill="#FDBF2F" d="M20 0v4h-4V0z"/><path fill="#9C0125" d="M4 8v4H0V8z"/><path fill="#FD9B1B" d="M16 8v4h-4V8z"/><path fill="#FDD039" d="M20 4v4h-4V4z"/><path fill="#B00213" d="M8 0v4H4V0z"/><path fill="#BA0208" d="M8 4v4H4V4z"/><path fill="#FD8711" d="M16 4v4h-4V4z"/><path fill="#A6021D" d="M4 12v4H0v-4z"/><path fill="#FDAE25" d="M16 12v4h-4v-4z"/><path fill="#CF1702" d="M8 12v4H4v-4z"/><path fill="#F75C02" d="M12 12v4H8v-4z"/><path fill="#FDEC4D" d="M20 12v4h-4v-4z"/><path fill="#D92602" d="M12 0v4H8V0z"/><path fill="#92012D" d="M4 4v4H0V4z"/></g><defs><clipPath id="a"><rect width="20" height="16" rx="2" fill="#fff"/></clipPath></defs></svg>