<svg width="20" height="16" viewBox="0 0 20 16" fill="none" xmlns="http://www.w3.org/2000/svg"><g clip-path="url(#a)"><path fill="#595959" d="M4 0v4H0V0z"/><path fill="#B5B5B5" d="M16 0v4h-4V0z"/><path fill="#A6A6A6" d="M12 8v4H8V8z"/><path fill="#E3E3E3" d="M20 8v4h-4V8z"/><path fill="#969696" d="M12 4V0H8v4z"/><path fill="#7F7F7F" d="M8 8V4H4v4z"/><path fill="#D3D3D3" d="M20 0v4h-4V0z"/><path fill="#686868" d="M4 8v4H0V8z"/><path fill="#C4C4C4" d="M16 8v4h-4V8z"/><path fill="#DBDBDB" d="M20 4v4h-4V4z"/><path fill="#787878" d="M8 0v4H4V0z"/><path fill="#9E9E9E" d="M12 8V4H8v4z"/><path fill="#BCBCBC" d="M16 4v4h-4V4z"/><path fill="#707070" d="M4 12v4H0v-4z"/><path fill="#CCC" d="M16 12v4h-4v-4z"/><path fill="#8F8F8F" d="M8 16v-4H4v4z"/><path fill="#ADADAD" d="M12 12v4H8v-4z"/><path fill="#EAEAEA" d="M20 12v4h-4v-4z"/><path fill="#878787" d="M8 12V8H4v4z"/><path fill="#616161" d="M4 4v4H0V4z"/></g><defs><clipPath id="a"><rect width="20" height="16" rx="2" fill="#fff"/></clipPath></defs></svg>