<svg width="20" height="16" viewBox="0 0 20 16" fill="none" xmlns="http://www.w3.org/2000/svg"><g clip-path="url(#a)"><path fill="#050189" d="M4 0v4H0V0z"/><path fill="#44ADFE" d="M16 0v4h-4V0z"/><path fill="#258AFD" d="M12 8v4H8V8z"/><path fill="#9FF2FE" d="M20 8v4h-4V8z"/><path fill="#0762FD" d="M12 4V0H8v4z"/><path fill="#0230D5" d="M8 8V4H4v4z"/><path fill="#81E1FE" d="M20 0v4h-4V0z"/><path fill="#010DA7" d="M4 8v4H0V8z"/><path fill="#62CAFE" d="M16 8v4h-4V8z"/><path fill="#90EAFE" d="M20 4v4h-4V4z"/><path fill="#0222C5" d="M8 0v4H4V0z"/><path fill="#1677FD" d="M12 8V4H8v4z"/><path fill="#53BCFE" d="M16 4v4h-4V4z"/><path fill="#0117B6" d="M4 12v4H0v-4z"/><path fill="#71D6FE" d="M16 12v4h-4v-4z"/><path fill="#024FF3" d="M8 16v-4H4v4z"/><path fill="#359DFD" d="M12 12v4H8v-4z"/><path fill="#AEF8FE" d="M20 12v4h-4v-4z"/><path fill="#023EE4" d="M8 12V8H4v4z"/><path fill="#010498" d="M4 4v4H0V4z"/></g><defs><clipPath id="a"><rect width="20" height="16" rx="2" fill="#fff"/></clipPath></defs></svg>