<svg xmlns="http://www.w3.org/2000/svg" viewBox="0 0 16 16">
    <circle cx="8" cy="8" r="7" fill="currentColor"/>
    <rect width="1" height="7" x="7.5" y="4.5" fill="none" stroke="#fff" rx=".5"/>
    <path fill="#fff" d="M8.591 4.148a.867.867 0 0 1-.078 1.18L5.509 8.073a.77.77 0 0 1-1.124-.082.867.867 0 0 1 .079-1.18l3.004-2.746a.77.77 0 0 1 1.123.083z"/>
    <path fill="#fff" d="M7.435 4.148a.77.77 0 0 1 1.124-.083l3.004 2.745a.867.867 0 0 1 .078 1.181.77.77 0 0 1-1.123.083L7.514 5.328a.867.867 0 0 1-.079-1.18z"/>
</svg>
