<svg xmlns="http://www.w3.org/2000/svg" width="349" height="356" fill="none" viewBox="0 0 349 356"><path fill="#393939" d="M274.972 85.557c0 24.7-9.9 83.9-9.9 117.1 0 33.2 0 106.3-27.8 134.1-27.8 27.8-61.9 16.1-61.9 16.1s-46.7 13-76.3-14.8c-29.6-27.8-60.1-83.5-69.1-115.3-9.9-35-26.5-49.3-27.8-56.5-1.3-7.2 3.6-12.1 12.1-12.6 8.5-.4 22.9 4 34.5 22 11.6 18 17.5 26 23.8 35.9 6.3 9.9 20.6 23.3 20.6 23.3s.4-44.9 1.3-64.1c.9-19.3-1.8-111.7 1.8-132.3 3.6-20.6 26.5-20.2 28.7-4 2.2 16.1 8.8 66.8 9.8 79.8s3.7 44.4 3.7 44.4l7.6-2.7s-.9-105.8-.9-132.9c0-29.2 28.7-29.2 32.3-4 3.6 25.2 6.7 142.8 6.7 142.8l6.7 2.7s2.2-111.7 5.8-129.6c3.6-17.9 26.5-17.5 30.1 4.9 3.6 22.4 1.3 72.2.9 94.2s-.9 43.5-.9 43.5l5.4 4s11-73.3 14.4-99.1c3.7-27.8 28.4-21.5 28.4 3.1Z"/><path fill="#FF5958" d="m279.173 267.057-216.9 12c-7.3.4-13.3-5.2-13.3-12.5v-167.4c0-7.3 6-12.9 13.3-12.5l216.9 12c5.6.3 10.1 5.7 10.1 12v144.4c0 6.3-4.5 11.7-10.1 12Z"/><path fill="#fff" d="m191.273 139.855-32.3-1.4c-1.9-.1-3.8.6-5.2 1.9l-24.3 22.8c-1.4 1.3-2.2 3.2-2.2 5.2v33.7c0 2 .8 3.8 2.2 5.2l24.3 22.8c1.4 1.3 3.3 2 5.2 1.9l32.3-1.4c1.8-.1 3.6-.9 4.9-2.2l21.5-22.8c1.2-1.3 1.9-3.1 1.9-4.9v-31c0-1.8-.7-3.6-1.9-4.9l-21.5-22.8c-1.3-1.3-3.1-2.1-4.9-2.1Z"/><path fill="#FF5958" d="m203.373 196.155-58.1.6c-1.6 0-3-1.3-3-3v-17.2c0-1.6 1.3-3 3-3l58.1.6c1.6 0 2.9 1.3 2.9 3v16c0 1.7-1.3 3-2.9 3Z"/><path fill="#fff" fill-rule="evenodd" d="M74.673 104.357c0 3.4-2.7 6-6.1 5.8-3.4-.1-6.1-3-6.1-6.4 0-3.4 2.8-6 6.1-5.8 3.4.2 6.1 3 6.1 6.4Zm19.7.9c0 3.3-2.7 5.9-6 5.8-3.3-.1-6-3-6-6.3s2.7-5.9 6-5.8c3.3.1 6 2.9 6 6.3Zm13.399 6.499c3.2.2 5.8-2.4 5.8-5.7 0-3.3-2.6-6.1-5.8-6.2-3.3-.2-5.9 2.4-5.9 5.7 0 3.3 2.7 6.1 5.9 6.2Z" clip-rule="evenodd"/><path fill="#FFE2D6" fill-rule="evenodd" d="M248.672 247.959h84.6v-62c0-22.5-18.3-40.7-40.7-40.7h-3.2c-22.5 0-40.7 18.3-40.7 40.7v62Zm70.2-14.3h-56v-47.7c0-14.6 11.9-26.4 26.4-26.4h3.2c14.6 0 26.4 11.9 26.4 26.4v47.7Z" clip-rule="evenodd"/><path fill="#FFE2D6" d="M340.471 206.159s-16.3-2.7-17.3-2.7l-78.6 1.1c-7 .1-13.7 6.5-13.7 13.1v58.6c0 4.7 2.9 8.5 7 10.1 1.5.6 3.1.9 4.8.9l12.5 2.3 7.6-3.7 60.4-4.3c6.2-.4 11.2-5.8 11.2-11.9v-43.3l6.1-20.2Z"/><path fill="#FF7E46" d="m337.571 284.059-79.6 5.7c-7 .5-12.7-4.4-12.7-11v-59.6c0-6.6 5.7-12 12.7-12.1l79.6-1.1c6.2-.1 11.2 4.8 11.2 10.9v55.4c-.1 6-5 11.3-11.2 11.8Z"/><path fill="#FFE2D6" d="M312.971 236.659c0-6.3-5.2-11.4-11.7-11.4-6.7 0-12.3 5.4-12.3 12 0 5 3.2 9.1 7.6 10.7v15.5c0 2.5 2.1 4.4 4.7 4.2 2.6-.2 4.6-2.5 4.6-4.9v-15.1c4.3-2.1 7.1-6.3 7.1-11Z"/><path fill="#262626" d="M308.271 236.659c0-5.5-4-10.1-9.3-11.2-5.6 1.1-10 6-10 11.8 0 5 3.2 9.1 7.6 10.7v15.5c0 1.5.8 2.8 2 3.5 1.6-.9 2.6-2.5 2.6-4.3v-15.1c4.2-2 7.1-6.2 7.1-10.9Z"/><path fill="#fff" d="M21.673 41.356a2 2 0 0 0-4 0h4Zm-4 8.2a2 2 0 1 0 4 0h-4Zm4 17.199a2 2 0 0 0-4 0h4Zm-4 8.9a2 2 0 0 0 4 0h-4Zm19.2-15.197a2 2 0 1 0 0-4v4Zm-8.3-4a2 2 0 0 0 0 4v-4Zm-17.8 4a2 2 0 0 0 0-4v4Zm-8.3-4a2 2 0 1 0 0 4v-4Zm15.2-15.102v8.2h4v-8.2h-4Zm0 25.399v8.9h4v-8.9h-4Zm19.2-10.297h-8.3v4h8.3v-4Zm-26.1 0h-8.3v4h8.3v-4Zm284.198 259.097a2 2 0 0 0-4 0h4Zm-4 6.2a2 2 0 1 0 4 0h-4Zm4 13.1a2 2 0 0 0-4 0h4Zm-4 6.8a2 2 0 1 0 4 0h-4Zm15-11.1a2 2 0 1 0 0-4v4Zm-6.2-4a2 2 0 0 0 0 4v-4Zm-13.6 4a2 2 0 1 0 0-4v4Zm-6.3-4a2 2 0 0 0 0 4v-4Zm11.1-11v6.2h4v-6.2h-4Zm0 19.3v6.8h4v-6.8h-4Zm15-8.3h-6.2v4h6.2v-4Zm-19.8 0h-6.3v4h6.3v-4Z"/><path stroke="#fff" stroke-linecap="round" stroke-linejoin="round" stroke-width="4" d="M15.172 326.055c7.18 0 13-5.82 13-13 0-7.179-5.82-13-13-13s-13 5.821-13 13c0 7.18 5.82 13 13 13Z" clip-rule="evenodd"/><path fill="#fff" d="M28.172 311.055a2 2 0 0 0 0 4v-4Zm35.2 2h2a2 2 0 0 0-2-2v2Zm-2 12.2a2 2 0 1 0 4 0h-4Zm-17.1 0a2 2 0 1 0 4 0h-4Zm4-12.2a2 2 0 0 0-4 0h4Zm-20.1 2h35.2v-4h-35.2v4Zm33.2-2v12.2h4v-12.2h-4Zm-13.1 12.2v-12.2h-4v12.2h4Z"/></svg>