<svg width="230" height="230" fill="none" xmlns="http://www.w3.org/2000/svg"><g filter="url(#a)"><mask id="b" style="mask-type:alpha" maskUnits="userSpaceOnUse" x="77" y="61" width="122" height="122"><path d="M195.828 61.5a2.672 2.672 0 0 1 2.672 2.671v115.657l-.014.273a2.673 2.673 0 0 1-2.384 2.385l-.274.014H80.172a2.673 2.673 0 0 1-2.672-2.672V64.171a2.673 2.673 0 0 1 2.672-2.672h115.656zm-97.83 18.998a1.5 1.5 0 0 0-1.5 1.5V162c0 .828.672 1.499 1.5 1.5H178a1.5 1.5 0 0 0 1.5-1.5V81.998a1.5 1.5 0 0 0-1.5-1.5H97.998z" fill="#000"/></mask><g mask="url(#b)"><mask id="d" style="mask-type:alpha" maskUnits="userSpaceOnUse" x="-109" y="-52" width="509" height="286"><path fill="#fff" stroke="url(#c)" stroke-width=".515" d="M-107.77-51.656h506.603v284.964H-107.77z"/></mask><g mask="url(#d)"><path fill="#fff" stroke="url(#e)" stroke-width=".515" d="M-107.768-51.654h506.603V233.31h-506.603z"/><g filter="url(#f)"><path d="M87.959 143.629c82.413 19.398 155.859 30.967 148.08 64.018-7.78 33.05-80.895 44.117-163.308 24.719-82.413-19.398-136.776-78.491-128.997-111.541 7.78-33.05 61.811 3.406 144.225 22.804z" fill="#027BFE"/><path d="M87.959 143.629c82.413 19.398 155.859 30.967 148.08 64.018-7.78 33.05-80.895 44.117-163.308 24.719-82.413-19.398-136.776-78.491-128.997-111.541 7.78-33.05 61.811 3.406 144.225 22.804z" stroke="url(#g)" stroke-width=".515"/></g><g filter="url(#h)"><path d="M246.875 76.07c79.391-90.771 139.993-178.065 194.409-130.471 54.416 47.593 34.17 159.76-45.22 250.531-79.391 90.771-213.931 98.85-268.347 51.257-54.416-47.594 39.767-80.546 119.158-171.317z" fill="#027BFE"/><path d="M246.875 76.07c79.391-90.771 139.993-178.065 194.409-130.471 54.416 47.593 34.17 159.76-45.22 250.531-79.391 90.771-213.931 98.85-268.347 51.257-54.416-47.594 39.767-80.546 119.158-171.317z" stroke="url(#i)" stroke-width=".515"/></g><g filter="url(#j)"><path d="M88.943 78.266c82.413 19.398 155.859 30.967 148.08 64.017-7.779 33.051-80.895 44.118-163.308 24.72C-8.698 147.605-63.06 88.512-55.28 55.462c7.78-33.05 61.81 3.406 144.224 22.804z" fill="#027BFE"/><path d="M88.943 78.266c82.413 19.398 155.859 30.967 148.08 64.017-7.779 33.051-80.895 44.118-163.308 24.72C-8.698 147.605-63.06 88.512-55.28 55.462c7.78-33.05 61.81 3.406 144.224 22.804z" stroke="url(#k)" stroke-width=".515"/></g><g filter="url(#l)"><path d="M176.02 56.932c82.413 19.398 155.859 30.967 148.08 64.017-7.779 33.05-80.895 44.118-163.308 24.72C78.379 126.27 24.017 67.178 31.796 34.127c7.78-33.05 61.81 3.407 144.224 22.805z" fill="#027BFE"/><path d="M176.02 56.932c82.413 19.398 155.859 30.967 148.08 64.017-7.779 33.05-80.895 44.118-163.308 24.72C78.379 126.27 24.017 67.178 31.796 34.127c7.78-33.05 61.81 3.407 144.224 22.805z" stroke="url(#m)" stroke-width=".515"/></g><g filter="url(#n)"><path d="M60.795 310.325C-2.244 419.511-201.888 467.534-268.081 429.317c-66.193-38.216-68.751-157.71-5.712-266.896C-210.755 53.236-73.418 18.257-7.224 56.474 58.969 94.69 123.833 201.139 60.795 310.325z" fill="url(#o)"/><path d="M60.795 310.325C-2.244 419.511-201.888 467.534-268.081 429.317c-66.193-38.216-68.751-157.71-5.712-266.896C-210.755 53.236-73.418 18.257-7.224 56.474 58.969 94.69 123.833 201.139 60.795 310.325z" stroke="url(#p)" stroke-width=".515"/></g><g filter="url(#q)"><path d="M438.172-37.309c89.15 89.15 83.866 294.421 29.819 348.468-54.047 54.046-170.13 25.589-259.28-63.561-89.15-89.15-87.391-230.86-33.345-284.907 54.047-54.046 173.656-89.15 262.806 0z" fill="url(#r)"/><path d="M438.172-37.309c89.15 89.15 83.866 294.421 29.819 348.468-54.047 54.046-170.13 25.589-259.28-63.561-89.15-89.15-87.391-230.86-33.345-284.907 54.047-54.046 173.656-89.15 262.806 0z" stroke="url(#s)" stroke-width=".515"/></g></g><path d="M197.5 64a1.5 1.5 0 0 0-1.5-1.5H80a1.5 1.5 0 0 0-1.5 1.5v116a1.5 1.5 0 0 0 1.5 1.5h116a1.5 1.5 0 0 0 1.5-1.5V64zm1 116a2.5 2.5 0 0 1-2.5 2.5H80a2.5 2.5 0 0 1-2.5-2.5V64a2.5 2.5 0 0 1 2.5-2.5h116a2.5 2.5 0 0 1 2.5 2.5v116z" fill="url(#t)"/><path d="M179.5 82a1.5 1.5 0 0 0-1.5-1.5H98a1.5 1.5 0 0 0-1.5 1.5v80a1.5 1.5 0 0 0 1.5 1.5h80a1.5 1.5 0 0 0 1.5-1.5V82zm1 80a2.5 2.5 0 0 1-2.5 2.5H98a2.5 2.5 0 0 1-2.5-2.5V82a2.5 2.5 0 0 1 2.5-2.5h80a2.5 2.5 0 0 1 2.5 2.5v80z" fill="url(#u)"/></g></g><mask id="v" style="mask-type:alpha" maskUnits="userSpaceOnUse" x="31" y="93" width="42" height="40"><path d="M70.08 93.504a2.5 2.5 0 0 1 2.5 2.5v33.047c-.001 1.323-1.59 1.998-2.543 1.079L55.08 115.691v14.957c0 1.324-1.588 1.999-2.54 1.081l-20.106-19.408c-.97-.937-.308-2.578 1.04-2.579h15.443l-14.15-13.659c-.97-.937-.307-2.579 1.042-2.58h34.27z" fill="#000"/></mask><g mask="url(#v)"><mask id="w" style="mask-type:alpha" maskUnits="userSpaceOnUse" x="24" y="84" width="90" height="50"><path fill="#fff" d="M24.438 84.941h88.802v48.216H24.438z"/></mask><g mask="url(#w)"><path fill="#fff" d="M24.438 84.943h88.802v48.216H24.438z"/><g filter="url(#x)"><path d="M58.747 117.985c14.446 3.282 27.32 5.239 25.957 10.831-1.364 5.593-14.18 7.465-28.626 4.183-14.446-3.282-23.975-13.281-22.611-18.873 1.363-5.592 10.834.576 25.28 3.859z" fill="#AAA"/></g><g filter="url(#y)"><path d="M63.144 105.344C77.06 89.985 87.683 75.215 97.22 83.268c9.539 8.053 5.99 27.032-7.927 42.39-13.916 15.359-37.5 16.726-47.038 8.673-9.538-8.053 6.971-13.628 20.888-28.987z" fill="#AAA"/></g><g filter="url(#z)"><path d="M57.567 122.428c17.938 10.794 34.746 18.545 28.042 28.925-6.704 10.381-26.68 10.045-44.618-.75-17.938-10.794-23.12-33.044-16.416-43.424 6.703-10.38 15.054 4.454 32.992 15.249z" fill="#AAA"/></g><g filter="url(#A)"><path d="M41.456 126.11c14.446 3.282 27.32 5.239 25.957 10.831-1.364 5.593-14.18 7.465-28.626 4.183-14.446-3.282-23.975-13.281-22.611-18.873 1.363-5.592 10.834.576 25.28 3.859z" fill="#AAA"/></g><g filter="url(#B)"><path d="M132.58 107.175c15.627 15.084 14.7 49.816 5.227 58.961-9.474 9.145-29.822 4.33-45.45-10.755-15.626-15.084-15.318-39.062-5.844-48.206 9.474-9.145 30.44-15.085 46.067 0z" fill="url(#C)"/></g><g filter="url(#D)"><path d="M23.234 134.501c11.05 18.474 46.045 26.6 57.648 20.134 11.603-6.467 12.051-26.685 1.001-45.16-11.05-18.474-35.123-24.392-46.726-17.926-11.603 6.466-22.973 24.477-11.923 42.952z" fill="url(#E)"/></g><g filter="url(#F)"><path d="M90.564 108.899c14.446 3.282 27.32 5.239 25.956 10.832-1.363 5.592-14.179 7.464-28.626 4.182-14.446-3.282-23.975-13.281-22.611-18.873 1.364-5.592 10.835.577 25.28 3.859z" fill="#AAA"/></g></g></g><path d="M71.58 96.004a1.5 1.5 0 0 0-1.5-1.5H35.808a.5.5 0 0 0-.348.86l14.15 13.658c.648.625.206 1.72-.694 1.72H33.475a.5.5 0 0 0-.347.86l20.106 19.407a.5.5 0 0 0 .846-.361v-14.957c0-.882 1.061-1.332 1.696-.719l14.956 14.438a.5.5 0 0 0 .847-.359V96.004zm1 33.047c0 1.323-1.59 1.998-2.542 1.079L55.08 115.691v14.957c0 1.324-1.59 1.999-2.542 1.081l-20.105-19.408c-.97-.937-.308-2.579 1.041-2.579h15.442l-14.15-13.659c-.97-.937-.307-2.58 1.042-2.58h34.27a2.5 2.5 0 0 1 2.5 2.5v33.048z" fill="url(#G)"/><path d="M71.5 48.008a1.5 1.5 0 0 0-1.507-1.5l-21.974.089a1.5 1.5 0 0 0-1.495 1.5v12.922a1.5 1.5 0 0 1-1.51 1.5l-11.027-.082a1.5 1.5 0 0 0-1.511 1.503l.053 22.067a1.5 1.5 0 0 0 1.5 1.497h21.978a1.5 1.5 0 0 0 1.5-1.5V73.003a1.5 1.5 0 0 1 1.5-1.5H70a1.5 1.5 0 0 0 1.5-1.5V48.008zm1 21.995a2.5 2.5 0 0 1-2.5 2.5H59.007a.5.5 0 0 0-.5.5v13a2.5 2.5 0 0 1-2.5 2.5H34.029a2.5 2.5 0 0 1-2.5-2.493l-.053-22.068a2.5 2.5 0 0 1 2.518-2.505l11.026.082a.5.5 0 0 0 .504-.5V48.097a2.5 2.5 0 0 1 2.49-2.5l21.975-.09a2.5 2.5 0 0 1 2.511 2.5v21.996z" fill="#fff"/><defs><filter id="y" x="23.087" y="64.655" width="95.83" height="90.87" filterUnits="userSpaceOnUse" color-interpolation-filters="sRGB"><feFlood flood-opacity="0" result="BackgroundImageFix"/><feBlend in="SourceGraphic" in2="BackgroundImageFix" result="shape"/><feGaussianBlur stdDeviation="8.171" result="effect1_foregroundBlur_35_6"/></filter><filter id="a" x="77.5" y="61.499" width="121.846" height="121.846" filterUnits="userSpaceOnUse" color-interpolation-filters="sRGB"><feFlood flood-opacity="0" result="BackgroundImageFix"/><feBlend in="SourceGraphic" in2="BackgroundImageFix" result="shape"/><feColorMatrix in="SourceAlpha" values="0 0 0 0 0 0 0 0 0 0 0 0 0 0 0 0 0 0 127 0" result="hardAlpha"/><feOffset dx=".846" dy=".846"/><feGaussianBlur stdDeviation="4.231"/><feComposite in2="hardAlpha" operator="arithmetic" k2="-1" k3="1"/><feColorMatrix values="0 0 0 0 1 0 0 0 0 1 0 0 0 0 1 0 0 0 0.8 0"/><feBlend in2="shape" result="effect1_innerShadow_35_6"/></filter><filter id="j" x="-188.206" y="-90.052" width="557.981" height="398.798" filterUnits="userSpaceOnUse" color-interpolation-filters="sRGB"><feFlood flood-opacity="0" result="BackgroundImageFix"/><feBlend in="SourceGraphic" in2="BackgroundImageFix" result="shape"/><feGaussianBlur stdDeviation="65.964" result="effect1_foregroundBlur_35_6"/></filter><filter id="l" x="-48.358" y="-58.615" width="452.439" height="293.255" filterUnits="userSpaceOnUse" color-interpolation-filters="sRGB"><feFlood flood-opacity="0" result="BackgroundImageFix"/><feBlend in="SourceGraphic" in2="BackgroundImageFix" result="shape"/><feGaussianBlur stdDeviation="39.578" result="effect1_foregroundBlur_35_6"/></filter><filter id="n" x="-419.706" y="-58.731" width="606.421" height="601.295" filterUnits="userSpaceOnUse" color-interpolation-filters="sRGB"><feFlood flood-opacity="0" result="BackgroundImageFix"/><feBlend in="SourceGraphic" in2="BackgroundImageFix" result="shape"/><feGaussianBlur stdDeviation="50" result="effect1_foregroundBlur_35_6"/></filter><filter id="q" x="37.423" y="-192.049" width="570.013" height="630.84" filterUnits="userSpaceOnUse" color-interpolation-filters="sRGB"><feFlood flood-opacity="0" result="BackgroundImageFix"/><feBlend in="SourceGraphic" in2="BackgroundImageFix" result="shape"/><feGaussianBlur stdDeviation="50" result="effect1_foregroundBlur_35_6"/></filter><filter id="x" x="10.868" y="89.402" width="96.405" height="67.684" filterUnits="userSpaceOnUse" color-interpolation-filters="sRGB"><feFlood flood-opacity="0" result="BackgroundImageFix"/><feBlend in="SourceGraphic" in2="BackgroundImageFix" result="shape"/><feGaussianBlur stdDeviation="11.235" result="effect1_foregroundBlur_35_6"/></filter><filter id="h" x="15.372" y="-164.036" width="552.66" height="536.306" filterUnits="userSpaceOnUse" color-interpolation-filters="sRGB"><feFlood flood-opacity="0" result="BackgroundImageFix"/><feBlend in="SourceGraphic" in2="BackgroundImageFix" result="shape"/><feGaussianBlur stdDeviation="47.974" result="effect1_foregroundBlur_35_6"/></filter><filter id="z" x="13.587" y="95.487" width="81.699" height="71.608" filterUnits="userSpaceOnUse" color-interpolation-filters="sRGB"><feFlood flood-opacity="0" result="BackgroundImageFix"/><feBlend in="SourceGraphic" in2="BackgroundImageFix" result="shape"/><feGaussianBlur stdDeviation="4.085" result="effect1_foregroundBlur_35_6"/></filter><filter id="A" x="-6.423" y="97.527" width="96.405" height="67.684" filterUnits="userSpaceOnUse" color-interpolation-filters="sRGB"><feFlood flood-opacity="0" result="BackgroundImageFix"/><feBlend in="SourceGraphic" in2="BackgroundImageFix" result="shape"/><feGaussianBlur stdDeviation="11.235" result="effect1_foregroundBlur_35_6"/></filter><filter id="B" x="-20.093" y="-2.044" width="264.769" height="272.812" filterUnits="userSpaceOnUse" color-interpolation-filters="sRGB"><feFlood flood-opacity="0" result="BackgroundImageFix"/><feBlend in="SourceGraphic" in2="BackgroundImageFix" result="shape"/><feGaussianBlur stdDeviation="50" result="effect1_foregroundBlur_35_6"/></filter><filter id="D" x="-81.265" y="-10.98" width="271.151" height="267.812" filterUnits="userSpaceOnUse" color-interpolation-filters="sRGB"><feFlood flood-opacity="0" result="BackgroundImageFix"/><feBlend in="SourceGraphic" in2="BackgroundImageFix" result="shape"/><feGaussianBlur stdDeviation="50" result="effect1_foregroundBlur_35_6"/></filter><filter id="F" x="51.672" y="89.303" width="78.43" height="49.708" filterUnits="userSpaceOnUse" color-interpolation-filters="sRGB"><feFlood flood-opacity="0" result="BackgroundImageFix"/><feBlend in="SourceGraphic" in2="BackgroundImageFix" result="shape"/><feGaussianBlur stdDeviation="6.741" result="effect1_foregroundBlur_35_6"/></filter><filter id="f" x="-189.19" y="-24.689" width="557.981" height="398.798" filterUnits="userSpaceOnUse" color-interpolation-filters="sRGB"><feFlood flood-opacity="0" result="BackgroundImageFix"/><feBlend in="SourceGraphic" in2="BackgroundImageFix" result="shape"/><feGaussianBlur stdDeviation="65.964" result="effect1_foregroundBlur_35_6"/></filter><radialGradient id="G" cx="0" cy="0" r="1" gradientTransform="matrix(50.1414 21.2295 -21.5541 49.3832 35.38 102.699)" gradientUnits="userSpaceOnUse"><stop stop-color="#fff"/><stop offset="1" stop-color="#fff" stop-opacity="0"/></radialGradient><radialGradient id="e" cx="0" cy="0" r="1" gradientUnits="userSpaceOnUse" gradientTransform="matrix(0 142.482 -253.301 0 145.534 90.828)"><stop stop-color="#027BFE"/><stop offset="1" stop-color="#027BFE" stop-opacity="0"/></radialGradient><radialGradient id="g" cx="0" cy="0" r="1" gradientUnits="userSpaceOnUse" gradientTransform="matrix(148.1611 34.87366 -11.17446 47.47482 84.966 185.141)"><stop stop-color="#027BFE"/><stop offset="1" stop-color="#027BFE" stop-opacity="0"/></radialGradient><radialGradient id="i" cx="0" cy="0" r="1" gradientUnits="userSpaceOnUse" gradientTransform="matrix(142.72767 -163.18758 78.16516 68.36508 318.92 126.597)"><stop stop-color="#027BFE"/><stop offset="1" stop-color="#027BFE" stop-opacity="0"/></radialGradient><radialGradient id="k" cx="0" cy="0" r="1" gradientUnits="userSpaceOnUse" gradientTransform="matrix(148.1611 34.87366 -11.17446 47.47482 85.95 119.778)"><stop stop-color="#027BFE"/><stop offset="1" stop-color="#027BFE" stop-opacity="0"/></radialGradient><radialGradient id="m" cx="0" cy="0" r="1" gradientUnits="userSpaceOnUse" gradientTransform="matrix(148.1611 34.87366 -11.17446 47.47482 173.027 98.443)"><stop stop-color="#027BFE"/><stop offset="1" stop-color="#027BFE" stop-opacity="0"/></radialGradient><radialGradient id="u" cx="0" cy="0" r="1" gradientTransform="matrix(106.373 45.725 -45.7259 106.364 102.145 98.729)" gradientUnits="userSpaceOnUse"><stop stop-color="#fff"/><stop offset="1" stop-color="#fff" stop-opacity="0"/></radialGradient><radialGradient id="p" cx="0" cy="0" r="1" gradientUnits="userSpaceOnUse" gradientTransform="matrix(-113.33 196.29332 -157.49278 -90.9285 -117.112 254.755)"><stop stop-color="#027BFE"/><stop offset="1" stop-color="#027BFE" stop-opacity="0"/></radialGradient><radialGradient id="t" cx="0" cy="0" r="1" gradientTransform="matrix(151.961 65.3215 -65.3227 151.948 86.778 88.755)" gradientUnits="userSpaceOnUse"><stop stop-color="#fff"/><stop offset="1" stop-color="#fff" stop-opacity="0"/></radialGradient><radialGradient id="s" cx="0" cy="0" r="1" gradientUnits="userSpaceOnUse" gradientTransform="matrix(160.27282 160.27282 -128.59232 128.59232 338.45 120.154)"><stop stop-color="#027BFE"/><stop offset="1" stop-color="#027BFE" stop-opacity="0"/></radialGradient><radialGradient id="c" cx="0" cy="0" r="1" gradientUnits="userSpaceOnUse" gradientTransform="matrix(0 142.482 -253.301 0 145.532 90.826)"><stop stop-color="#FF764D"/><stop offset="1" stop-color="#FF764D" stop-opacity="0"/></radialGradient><linearGradient id="r" x1="151.289" y1="-50.486" x2="258.75" y2="151.004" gradientUnits="userSpaceOnUse"><stop stop-color="#fff"/><stop offset="1" stop-color="#fff" stop-opacity="0"/></linearGradient><linearGradient id="o" x1="-.728" y1="29.807" x2="-167.539" y2="185.756" gradientUnits="userSpaceOnUse"><stop stop-color="#027BFE"/><stop offset="1" stop-color="#027BFE" stop-opacity="0"/></linearGradient><linearGradient id="C" x1="82.292" y1="104.945" x2="100.113" y2="139.561" gradientUnits="userSpaceOnUse"><stop stop-color="#fff"/><stop offset="1" stop-color="#fff" stop-opacity="0"/></linearGradient><linearGradient id="E" x1="34.018" y1="87.037" x2="62.292" y2="114.421" gradientUnits="userSpaceOnUse"><stop stop-color="#AAA"/><stop offset="1" stop-color="#AAA" stop-opacity="0"/></linearGradient></defs></svg>