<svg xmlns="http://www.w3.org/2000/svg" width="375" height="376" fill="none" viewBox="0 0 375 376"><path fill="#393939" d="M12.912 119.228h78.8c4.5 0 8.7 2.5 11 6.5l56.9 101.5c5 8.9 17.6 8.6 22.2-.5l95.1-187.1c2.2-4.3 6.5-7 11.2-7h73.6c9.5 0 15.6 10.4 11.1 19l-155.6 299c-17.1 32-61.4 33.5-80.6 2.8l-134.3-214.3c-5.4-8.6.7-19.9 10.6-19.9Z"/><path fill="#fff" fill-rule="evenodd" d="M40.912 207.727c-7.995 0-14.5 6.504-14.5 14.5v12.9c0 7.995 6.505 14.5 14.5 14.5h154c7.996 0 14.5-6.505 14.5-14.5v-12.9c0-7.996-6.504-14.5-14.5-14.5h-154Zm-18.5 14.5c0-10.205 8.296-18.5 18.5-18.5h154c10.205 0 18.5 8.295 18.5 18.5v12.9c0 10.204-8.295 18.5-18.5 18.5h-154c-10.204 0-18.5-8.296-18.5-18.5v-12.9Zm21.8-4.033a2 2 0 0 1 2.732.733l3.318 5.748 3.318-5.748a2 2 0 1 1 3.464 1.999l-3.347 5.801h6.615a2 2 0 1 1 0 4h-6.558l3.29 5.7a2 2 0 1 1-3.464 1.999l-3.318-5.748-3.318 5.748a2 2 0 1 1-3.464-1.999l3.29-5.7h-6.658a2 2 0 0 1 0-4h6.715l-3.347-5.801a2 2 0 0 1 .732-2.732Zm32.3 0a2 2 0 0 1 2.732.733l3.318 5.748 3.318-5.748a2 2 0 1 1 3.464 1.999l-3.347 5.801h6.615a2 2 0 1 1 0 4h-6.558l3.29 5.7a2 2 0 1 1-3.464 1.999l-3.318-5.748-3.318 5.748a2 2 0 1 1-3.464-1.999l3.29-5.7h-6.558a2 2 0 0 1 0-4h6.615l-3.347-5.801a2 2 0 0 1 .732-2.732Z" clip-rule="evenodd"/><path fill="#fff" fill-rule="evenodd" d="M108.813 218.197a2 2 0 0 1 2.732.733l3.318 5.749 3.317-5.749a2 2 0 0 1 3.465 1.999l-3.348 5.801h6.716a2 2 0 0 1 0 4h-6.658l3.29 5.7a2 2 0 1 1-3.465 1.999l-3.317-5.748-3.318 5.748a2 2 0 0 1-3.465-1.999l3.29-5.7h-6.558a2 2 0 0 1 0-4h6.616l-3.348-5.801a2 2 0 0 1 .733-2.732Zm32.401 0a1.999 1.999 0 0 1 2.731.733l3.318 5.749 3.318-5.749a2 2 0 1 1 3.464 1.999l-3.347 5.801h6.615a2 2 0 1 1 0 4h-6.557l3.289 5.7a1.999 1.999 0 1 1-3.464 1.999l-3.318-5.748-3.318 5.748a1.999 1.999 0 1 1-3.464-1.999l3.29-5.7h-6.658a2 2 0 0 1 0-4h6.716l-3.348-5.801a2 2 0 0 1 .733-2.732Z" clip-rule="evenodd"/><path fill="#262626" fill-rule="evenodd" d="M174.813 218.197a2 2 0 0 1 2.732.733l3.318 5.749 3.317-5.749a2 2 0 0 1 3.465 1.999l-3.348 5.801h6.716a2 2 0 0 1 0 4h-6.658l3.29 5.7a2 2 0 1 1-3.465 1.999l-3.317-5.748-3.318 5.748a2 2 0 0 1-3.465-1.999l3.29-5.7h-6.558a2 2 0 0 1 0-4h6.616l-3.348-5.801a2 2 0 0 1 .733-2.732Z" clip-rule="evenodd"/><path fill="#fff" fill-rule="evenodd" d="M38.612 71.727c-6.795 0-12.3 5.504-12.3 12.3v92.4c0 6.795 5.505 12.3 12.3 12.3h158.501c6.795 0 12.3-5.505 12.3-12.3v-92.4c0-6.796-5.505-12.3-12.3-12.3h-63.301a2 2 0 0 1 0-4h63.301c9.004 0 16.3 7.295 16.3 16.3v92.4c0 9.004-7.296 16.3-16.3 16.3h-158.5c-9.005 0-16.3-7.296-16.3-16.3v-92.4c0-9.005 7.295-16.3 16.3-16.3h63.199a2 2 0 1 1 0 4h-63.2Z" clip-rule="evenodd"/><path fill="#fff" fill-rule="evenodd" d="M117.912 39.828c-7.787 0-14 6.296-14 14v27.3h28v-27.3c0-7.787-6.296-14-14-14Zm-18 14c0-9.896 7.987-18 18-18 9.897 0 18 7.987 18 18v29.3a2 2 0 0 1-2 2h-32a2 2 0 0 1-2-2v-29.3Z" clip-rule="evenodd"/><path fill="#fff" fill-rule="evenodd" d="M109.713 53.63a8.2 8.2 0 1 1 16.4 0 8.2 8.2 0 1 1-16.4 0Zm8.2-4.2a4.2 4.2 0 1 0 0 8.4 4.2 4.2 0 0 0 0-8.4Zm-77.501 83.798c0-21.926 17.774-39.7 39.7-39.7 21.926 0 39.7 17.774 39.7 39.7 0 21.926-17.774 39.7-39.7 39.7-21.926 0-39.7-17.774-39.7-39.7Zm39.7-35.7c-19.716 0-35.7 15.984-35.7 35.7 0 19.717 15.983 35.7 35.7 35.7 19.717 0 35.7-15.983 35.7-35.7 0-19.716-15.983-35.7-35.7-35.7Z" clip-rule="evenodd"/><path fill="#fff" fill-rule="evenodd" d="M64.313 126.628c0-8.726 7.073-15.8 15.8-15.8 8.726 0 15.8 7.074 15.8 15.8s-7.074 15.8-15.8 15.8c-8.727 0-15.8-7.074-15.8-15.8Zm15.8-11.8c-6.517 0-11.8 5.283-11.8 11.8s5.282 11.8 11.8 11.8c6.516 0 11.8-5.283 11.8-11.8s-5.284-11.8-11.8-11.8Zm51.7-.2a2 2 0 0 1 2-2h54.7a2 2 0 0 1 0 4h-54.7a2 2 0 0 1-2-2Zm0 16.8a2 2 0 0 1 2-2h54.7a2 2 0 0 1 0 4h-54.7a2 2 0 0 1-2-2Zm-78.822 28.428c6.065-8.404 15.96-13.829 27.122-13.829 11.163 0 21.058 5.425 27.122 13.829a2 2 0 0 1-.275 2.649c-7.05 6.419-16.524 10.422-26.847 10.422-10.322 0-19.797-4.003-26.846-10.422a2 2 0 0 1-.276-2.649Zm4.359.894c6.179 5.074 14.147 8.177 22.763 8.177 8.617 0 16.585-3.103 22.764-8.177-5.39-6.566-13.584-10.723-22.764-10.723S62.74 154.184 57.35 160.75Zm74.463-12.52a2 2 0 0 1 2-2h54.7a2 2 0 1 1 0 4h-54.7a2 2 0 0 1-2-2Zm184.699 101.398a2 2 0 0 1 2 2v6.3a2 2 0 1 1-4 0v-6.3a2 2 0 0 1 2-2Zm-15.1 15.102a2 2 0 0 1 2-2h6.3a2 2 0 1 1 0 4h-6.3a2 2 0 0 1-2-2Zm19.9 0a2 2 0 0 1 2-2h6.2a2 2 0 1 1 0 4h-6.2a2 2 0 0 1-2-2Zm-4.8 4.297a2 2 0 0 1 2 2v6.8a2 2 0 0 1-4 0v-6.8a2 2 0 0 1 2-2Z" clip-rule="evenodd"/><path fill="#FF7E46" fill-rule="evenodd" d="m216.111 77.828 74 42.7c8.7 5 11.7 16.1 6.6 23.8l-41.3 71.5c-5.1 9.6-16.1 12.6-24.8 7.6l-9-5.2-4.8 8.2c-.6.9-1.7 1.2-2.5.7l-5.2-3-7.4 12.8c-.3.6-.9 1-1.5 1.2l-17.7 5.3c-1.3.4-2.1 1.9-1.8 3.2l3.9 15.6c.3 1.3-.5 2.7-1.8 3.1l-15.7 4.8c-1.3.5-2.1 1.9-1.8 3.2l4 15.5c.4 1.3-.5 2.7-1.8 3.1l-15.8 4.9c-1.3.5-2.1 1.9-1.8 3.2l4.2 16.1c.4 1.3-.5 2.7-1.8 3.1 0 0-11.3 3.5-20.1 6.4-8.8 2.9-13.2-1.5-14.8-6.7-1.6-5.3-6.1-22-6.1-22-.1-.6 0-1.3.3-1.9l55.1-95.4-5.5-3.2c-.9-.5-1.2-1.7-.7-2.6l4.8-8.2-8.6-4.9c-8.6-5.1-11.6-16.1-6.6-24.8l41.2-71.5c5.1-8.6 16.1-11.6 24.8-6.6Zm8.6 41.702c-4 6.9-1.6 15.7 5.3 19.7s15.7 1.6 19.7-5.3 1.6-15.7-5.3-19.7-15.7-1.6-19.7 5.3Z" clip-rule="evenodd"/><path fill="#FFE2D6" fill-rule="evenodd" d="m202.51 90.028 81.6 6.5c9.1.5 16.5 8.6 16.4 18.3v75.5c0 9.5-7.4 17.1-16.6 17.1h-9.7v9.1c0 1-.7 1.8-1.6 1.8h-5.6v15.3c0 .7-.3 1.3-.7 1.8l-11.9 13.1c-.9 1-.9 2.5 0 3.5l10.5 11c.9.9.9 2.5 0 3.5l-10.5 11.9c-.9 1-.9 2.6 0 3.5l10.5 10.7c.9.9.9 2.5 0 3.5l-10.5 12.2c-.9 1-.9 2.6 0 3.5l11 11c.9.9.9 2.5 0 3.5 0 0-7.5 8.9-13.4 15.8s-11.6 5.8-15.4 2.3c-3.8-3.5-15.7-14.9-15.7-14.9-.4-.5-.7-1.1-.7-1.8v-108.5h-6.2c-1 0-1.8-.9-1.8-1.9v-9.4h-9.7c-10 0-18.1-8.2-18.1-18.2v-82.6c0-10 8.2-17.7 18.1-17.1Zm27.6 32.7c0 7.8 6.3 14.3 13.9 14.6 7.6.3 13.7-5.8 13.7-13.5s-6.1-14.2-13.7-14.6c-7.7-.3-13.9 5.7-13.9 13.5Z" clip-rule="evenodd"/><path fill="#FF7E46" d="M233.811.328c-35.6 0-64.5 28.9-64.5 64.5 0 14.5 4.7 28.3 13.5 39.5l4.3-7.3c-6.5-9.4-10-20.5-10-32.2 0-31.3 25.4-56.7 56.7-56.7 31.3 0 56.7 25.4 56.7 56.7 0 31.3-25.5 56.6-56.7 56.6-1.2 0-2.6-.1-3.6-.1-.1.9-.3 2-.1 4.2.2 2 .9 3.6.9 3.6 1.4.1 1.3.1 2.7.1 35.6 0 64.5-28.9 64.5-64.5s-28.9-64.4-64.4-64.4Z"/><path fill="#FFA47E" d="M252.112 342.027c5.9-6.9 13.4-15.8 13.4-15.8.9-1 .9-2.6 0-3.5l-11-11c-.9-.9-.9-2.5 0-3.5l10.5-12.2c.9-1 .9-2.6 0-3.5l-10.5-10.7c-.9-.9-.9-2.5 0-3.5l10.5-11.9c.9-1 .9-2.6 0-3.5l-10.5-11c-.9-1-.9-2.5 0-3.5l11.9-13.1c.4-.5.7-1.1.7-1.8v-12.1c0-1.8-1.4-3.2-3.2-3.2l-10.4 1c-5.3 0-9.5 4.3-9.5 9.5v113.6c0 2.6 3 4.2 5.1 2.6 1-.7 2-1.7 3-2.9Z"/></svg>