<svg width="230" height="230" fill="none" xmlns="http://www.w3.org/2000/svg"><g filter="url(#a)"><mask id="b" style="mask-type:alpha" maskUnits="userSpaceOnUse" x="33" y="45" width="117" height="138"><path d="M91.481 46c22.421 0 40.596 18.193 40.596 40.636 0 16.403-9.711 30.534-23.691 36.952-1.557.715-1.405 3.809.233 4.309 22.746 6.933 39.519 27.467 40.743 52.071.056 1.114-.848 2.032-1.964 2.032H35.967c-1.116 0-2.02-.918-1.965-2.032 1.22-24.521 17.883-44.998 40.512-52 1.636-.506 1.775-3.601.215-4.309-14.062-6.385-23.843-20.56-23.843-37.023C50.886 64.193 69.06 46 91.48 46z" fill="#D9D9D9"/><path d="M91.481 46v-.5.5zm40.596 40.636h.5-.5zm17.285 93.332.5-.025-.5.025zM147.398 182v.5-.5zm-113.396-2.032-.5-.025.5.025zm16.884-93.332h-.5.5zm23.628 41.332-.148-.477.148.477zm.215-4.309.207-.455-.207.455zm33.89 4.238.146-.478-.146.478zM91.481 46v.5c22.144 0 40.096 17.969 40.096 40.136h1c0-22.718-18.399-41.136-41.096-41.136v.5zm40.596 40.636h-.5c0 16.201-9.59 30.159-23.4 36.498l.209.454.208.455c14.152-6.497 23.983-20.801 23.983-37.407h-.5zm-23.458 41.261-.146.478c22.551 6.874 39.176 27.23 40.39 51.618l.499-.025.5-.025c-1.236-24.821-18.155-45.531-41.097-52.524l-.146.478zm40.743 52.071-.499.025c.041.818-.624 1.507-1.465 1.507v1c1.392 0 2.534-1.147 2.464-2.557l-.5.025zM147.398 182v-.5H35.967v1h111.431v-.5zm-111.431 0v-.5c-.841 0-1.506-.689-1.466-1.507l-.499-.025-.5-.025c-.07 1.411 1.073 2.557 2.465 2.557v-.5zm-1.965-2.032.5.025c1.209-24.305 17.726-44.606 40.16-51.547l-.148-.478-.148-.477c-22.823 7.062-39.632 27.715-40.863 52.452l.499.025zm40.727-56.309.207-.455c-13.89-6.307-23.55-20.308-23.55-36.568h-1c0 16.666 9.902 31.015 24.136 37.478l.207-.455zM50.886 86.636h.5c0-22.167 17.952-40.136 40.095-40.136v-1c-22.697 0-41.095 18.417-41.095 41.136h.5zm23.628 41.332.147.478c1.11-.343 1.61-1.51 1.658-2.533.05-1.023-.336-2.234-1.383-2.709l-.207.455-.207.455c.513.233.838.924.798 1.752-.04.828-.427 1.462-.954 1.625l.148.477zm33.872-4.38-.209-.454c-1.045.48-1.425 1.692-1.372 2.715.053 1.022.557 2.187 1.668 2.526l.146-.478.146-.478c-.528-.161-.918-.793-.962-1.622-.043-.827.28-1.52.791-1.754l-.208-.455z" fill="#000"/></mask><g mask="url(#b)"><mask id="c" style="mask-type:alpha" maskUnits="userSpaceOnUse" x="-46" y="17" width="441" height="249"><path fill="#fff" d="M-45.382 17.586h439.775v247.687H-45.382z"/></mask><g mask="url(#c)"><path fill="#fff" d="M-45.382 17.586h439.775v247.687H-45.382z"/><g filter="url(#d)"><path d="M120.922 197.086c53.873 60.481 105.022 109.9 80.797 131.532-24.224 21.632-87.535-9.862-141.407-70.343-53.874-60.482-64.007-136.667-39.783-158.3 24.225-21.632 46.52 36.629 100.393 97.111z" fill="#FF764D"/></g><g filter="url(#e)"><path d="M92.848 125.179c59.463-54.98 120.431-93.484 66.178-152.31-54.253-58.824-146.438-61.941-205.901-6.96-59.464 54.98-34.129 176.212 20.124 235.038 54.253 58.825 60.136-20.788 119.6-75.768z" fill="#FF764D"/></g><g filter="url(#f)"><path d="M321.898 270.289c59.463-54.98 120.431-93.484 66.178-152.309s-146.438-61.942-205.902-6.961c-59.463 54.98-34.128 176.213 20.125 235.038 54.253 58.825 60.136-20.787 119.599-75.768z" fill="#FF764D"/></g><g filter="url(#g)"><path d="M110.654 4.49C53.421 61.793 8.828 117.51-24.881 83.758-58.59 50.007-39.52-23.81 17.712-81.114c57.232-57.305 146.896-57.487 180.606-23.735 33.709 33.752-30.432 52.033-87.664 109.338z" fill="#FF764D"/></g><g filter="url(#h)"><path d="M226.237 104.353c57.232-57.305 101.825-113.022 135.534-79.27 33.709 33.752 14.64 107.568-42.592 164.873-57.233 57.305-146.897 57.487-180.606 23.735s30.431-52.033 87.664-109.338z" fill="#FF764D"/></g><g filter="url(#i)"><path d="M339.704 149.599c-57.233 57.305-101.826 113.022-135.535 79.27-33.709-33.752-14.64-107.568 42.593-164.873C303.994 6.692 393.658 6.51 427.367 40.261c33.709 33.752-30.431 52.033-87.663 109.338z" fill="#FF764D"/></g><g filter="url(#j)"><path d="M347.565 75.743c77.39 77.487 72.802 255.906 25.885 302.882-46.917 46.977-147.688 22.243-225.078-55.245-77.39-77.488-75.863-200.661-28.946-247.637 46.918-46.977 150.749-77.488 228.139 0z" fill="url(#k)"/></g><g filter="url(#l)"><path d="M220.134 276.361c-57.232 57.305-101.825 113.022-135.534 79.27-33.71-33.752-14.64-107.568 42.592-164.873 57.233-57.305 146.897-57.486 180.606-23.735 33.709 33.752-30.431 52.033-87.664 109.338z" fill="#FF764D"/></g><g filter="url(#m)"><path d="M220.134 276.361c-57.232 57.305-101.825 113.022-135.534 79.27-33.71-33.752-14.64-107.568 42.592-164.873 57.233-57.305 146.897-57.486 180.606-23.735 33.709 33.752-30.431 52.033-87.664 109.338z" fill="#FF764D"/></g><g filter="url(#n)"><path d="M235.231 164.326c-77.39 77.487-72.802 255.906-25.885 302.882 46.917 46.977 147.688 22.243 225.078-55.245 77.389-77.488 75.863-200.661 28.946-247.637-46.918-46.977-150.749-77.488-228.139 0z" fill="url(#o)"/></g></g></g></g><path d="M131.576 86.64c0-22.166-17.952-40.136-40.095-40.136-22.144 0-40.096 17.97-40.096 40.137l.007.76c.296 15.936 9.87 29.599 23.544 35.807 1.047.476 1.432 1.687 1.383 2.71-.048 1.023-.548 2.19-1.658 2.533-22.432 6.941-38.948 27.239-40.16 51.541-.04.819.624 1.508 1.465 1.508h111.432c.841 0 1.506-.689 1.465-1.508-1.215-24.385-17.841-44.739-40.39-51.612-1.111-.339-1.615-1.504-1.668-2.526-.053-1.024.326-2.236 1.372-2.716 13.809-6.339 23.399-20.296 23.399-36.497zm1 0c0 16.607-9.831 30.911-23.982 37.407-.511.235-.834.928-.791 1.755.043.829.434 1.461.962 1.622 22.94 6.992 39.859 27.7 41.096 52.52.071 1.41-1.072 2.556-2.463 2.556H35.966c-1.391 0-2.533-1.146-2.463-2.556 1.233-24.735 18.042-45.386 40.863-52.448.527-.163.915-.797.954-1.626.04-.827-.285-1.518-.797-1.751-14.235-6.463-24.138-20.812-24.138-37.478 0-22.718 18.399-41.137 41.096-41.137 22.697 0 41.095 18.419 41.095 41.137z" fill="url(#p)"/><path d="M189.123 88h6v6h-6v-6z" fill="#fff"/><path d="M192.623 49.5v41h-41v-41h41zm-40 40h39v-39h-39v39z" fill="#fff"/><path d="M149.123 46h6v6h-6v-6zM149.123 88h6v6h-6v-6zM189.123 46h6v6h-6v-6zM186.477 83.647l-.707.706-28-28 .707-.706 28 28z" fill="#fff"/><path d="m186.477 56.353-28 28-.707-.706 28-28 .707.706z" fill="#fff"/><mask id="q" style="mask-type:alpha" maskUnits="userSpaceOnUse" x="151" y="95" width="42" height="44"><path d="M190.142 95.508a2.5 2.5 0 0 1 2.51 2.5v21.995a2.5 2.5 0 0 1-2.5 2.5h-10.993a.5.5 0 0 0-.5.5v13.001a2.5 2.5 0 0 1-2.5 2.5h-21.977a2.5 2.5 0 0 1-2.5-2.494l-.054-22.068a2.499 2.499 0 0 1 2.518-2.505l11.027.082a.501.501 0 0 0 .504-.5V98.097a2.5 2.5 0 0 1 2.49-2.5l21.975-.09z" fill="#000"/></mask><g mask="url(#q)"><mask id="r" style="mask-type:alpha" maskUnits="userSpaceOnUse" x="129" y="90" width="95" height="53"><path fill="#fff" d="M129.258 90h94.222v53h-94.222z"/></mask><g mask="url(#r)"><path fill="#fff" d="M129.259 90.002h94.222v53h-94.222z"/><g filter="url(#s)"><path d="M165.659 126.323c15.328 3.608 28.988 5.76 27.541 11.907-1.447 6.147-15.045 8.205-30.373 4.597-15.328-3.608-25.439-14.598-23.992-20.745 1.447-6.147 11.496.633 26.824 4.241z" fill="#AAA"/></g><g filter="url(#t)"><path d="M170.324 112.428c14.766-16.882 26.037-33.118 36.158-24.266 10.121 8.852 6.355 29.714-8.41 46.596-14.766 16.882-39.789 18.385-49.91 9.533-10.121-8.852 7.396-14.98 22.162-31.863z" fill="#AAA"/></g><g filter="url(#u)"><path d="M164.41 131.206c19.033 11.865 36.867 20.386 29.754 31.795-7.113 11.41-28.309 11.041-47.342-.824-19.033-11.866-24.531-36.323-17.418-47.733 7.113-11.41 15.973 4.897 35.006 16.762z" fill="#AAA"/></g><g filter="url(#v)"><path d="M147.316 135.249c15.328 3.607 28.988 5.759 27.541 11.906-1.446 6.147-15.045 8.206-30.373 4.598-15.328-3.608-25.439-14.599-23.992-20.746 1.447-6.147 11.496.634 26.824 4.242z" fill="#AAA"/></g><g filter="url(#w)"><path d="M244.002 114.442c16.581 16.58 15.598 54.758 5.546 64.81s-31.642 4.76-48.223-11.821-16.254-42.937-6.202-52.989c10.052-10.052 32.298-16.581 48.879 0z" fill="url(#x)"/></g><g filter="url(#y)"><path d="M127.979 144.477c11.724 20.307 48.856 29.239 61.167 22.131 12.311-7.108 12.787-29.332 1.062-49.639-11.724-20.308-37.267-26.813-49.578-19.705-12.311 7.108-24.375 26.906-12.651 47.213z" fill="url(#z)"/></g><g filter="url(#A)"><path d="M199.422 116.333c15.328 3.608 28.988 5.76 27.541 11.907-1.447 6.147-15.046 8.205-30.373 4.597-15.328-3.607-25.439-14.598-23.992-20.745 1.447-6.147 11.496.634 26.824 4.241z" fill="#AAA"/></g></g></g><path d="M166.123 112h11.423c.319 0 .577.258.577.577V122H166.7a.577.577 0 0 1-.577-.577V112z" fill="url(#B)"/><path d="M191.623 98.008a1.5 1.5 0 0 0-1.506-1.5l-21.956.089a1.5 1.5 0 0 0-1.494 1.5v12.92c0 .832-.679 1.506-1.512 1.5l-11.015-.082a1.5 1.5 0 0 0-1.512 1.503l.054 22.066a1.5 1.5 0 0 0 1.5 1.496h21.959a1.5 1.5 0 0 0 1.5-1.5v-12.999a1.5 1.5 0 0 1 1.5-1.5h10.982a1.5 1.5 0 0 0 1.5-1.5V98.008zm1 21.993a2.5 2.5 0 0 1-2.5 2.5h-10.982a.5.5 0 0 0-.5.5V136a2.5 2.5 0 0 1-2.5 2.5h-21.959a2.5 2.5 0 0 1-2.5-2.494l-.054-22.066a2.499 2.499 0 0 1 2.518-2.505l11.017.082a.5.5 0 0 0 .504-.5v-12.92a2.5 2.5 0 0 1 2.489-2.5l21.957-.09a2.5 2.5 0 0 1 2.51 2.5v21.994z" fill="url(#C)"/><defs><filter id="t" x="127.473" y="67.978" width="102.375" height="99.334" filterUnits="userSpaceOnUse" color-interpolation-filters="sRGB"><feFlood flood-opacity="0" result="BackgroundImageFix"/><feBlend in="SourceGraphic" in2="BackgroundImageFix" result="shape"/><feGaussianBlur stdDeviation="8.843" result="effect1_foregroundBlur_35_18"/></filter><filter id="a" x="33.499" y="45.5" width="117.413" height="138.046" filterUnits="userSpaceOnUse" color-interpolation-filters="sRGB"><feFlood flood-opacity="0" result="BackgroundImageFix"/><feBlend in="SourceGraphic" in2="BackgroundImageFix" result="shape"/><feColorMatrix in="SourceAlpha" values="0 0 0 0 0 0 0 0 0 0 0 0 0 0 0 0 0 0 127 0" result="hardAlpha"/><feOffset dx="1.046" dy="1.046"/><feGaussianBlur stdDeviation="5.232"/><feComposite in2="hardAlpha" operator="arithmetic" k2="-1" k3="1"/><feColorMatrix values="0 0 0 0 1 0 0 0 0 1 0 0 0 0 1 0 0 0 0.8 0"/><feBlend in2="shape" result="effect1_innerShadow_35_18"/></filter><filter id="e" x="-147.264" y="-139.528" width="393.493" height="427.341" filterUnits="userSpaceOnUse" color-interpolation-filters="sRGB"><feFlood flood-opacity="0" result="BackgroundImageFix"/><feBlend in="SourceGraphic" in2="BackgroundImageFix" result="shape"/><feGaussianBlur stdDeviation="33.078" result="effect1_foregroundBlur_35_18"/></filter><filter id="f" x="81.785" y="5.583" width="393.493" height="427.341" filterUnits="userSpaceOnUse" color-interpolation-filters="sRGB"><feFlood flood-opacity="0" result="BackgroundImageFix"/><feBlend in="SourceGraphic" in2="BackgroundImageFix" result="shape"/><feGaussianBlur stdDeviation="33.078" result="effect1_foregroundBlur_35_18"/></filter><filter id="g" x="-107.695" y="-193.879" width="381.505" height="354.035" filterUnits="userSpaceOnUse" color-interpolation-filters="sRGB"><feFlood flood-opacity="0" result="BackgroundImageFix"/><feBlend in="SourceGraphic" in2="BackgroundImageFix" result="shape"/><feGaussianBlur stdDeviation="33.078" result="effect1_foregroundBlur_35_18"/></filter><filter id="h" x="63.08" y="-51.313" width="381.505" height="354.035" filterUnits="userSpaceOnUse" color-interpolation-filters="sRGB"><feFlood flood-opacity="0" result="BackgroundImageFix"/><feBlend in="SourceGraphic" in2="BackgroundImageFix" result="shape"/><feGaussianBlur stdDeviation="33.078" result="effect1_foregroundBlur_35_18"/></filter><filter id="i" x="121.355" y="-48.769" width="381.505" height="354.035" filterUnits="userSpaceOnUse" color-interpolation-filters="sRGB"><feFlood flood-opacity="0" result="BackgroundImageFix"/><feBlend in="SourceGraphic" in2="BackgroundImageFix" result="shape"/><feGaussianBlur stdDeviation="33.078" result="effect1_foregroundBlur_35_18"/></filter><filter id="j" x="-13.288" y="-71.613" width="520.756" height="574.032" filterUnits="userSpaceOnUse" color-interpolation-filters="sRGB"><feFlood flood-opacity="0" result="BackgroundImageFix"/><feBlend in="SourceGraphic" in2="BackgroundImageFix" result="shape"/><feGaussianBlur stdDeviation="50" result="effect1_foregroundBlur_35_18"/></filter><filter id="l" x="1.785" y="77.993" width="381.505" height="354.035" filterUnits="userSpaceOnUse" color-interpolation-filters="sRGB"><feFlood flood-opacity="0" result="BackgroundImageFix"/><feBlend in="SourceGraphic" in2="BackgroundImageFix" result="shape"/><feGaussianBlur stdDeviation="33.078" result="effect1_foregroundBlur_35_18"/></filter><filter id="m" x="27.847" y="104.054" width="329.382" height="301.912" filterUnits="userSpaceOnUse" color-interpolation-filters="sRGB"><feFlood flood-opacity="0" result="BackgroundImageFix"/><feBlend in="SourceGraphic" in2="BackgroundImageFix" result="shape"/><feGaussianBlur stdDeviation="20.047" result="effect1_foregroundBlur_35_18"/></filter><filter id="n" x="75.328" y="16.97" width="520.756" height="574.032" filterUnits="userSpaceOnUse" color-interpolation-filters="sRGB"><feFlood flood-opacity="0" result="BackgroundImageFix"/><feBlend in="SourceGraphic" in2="BackgroundImageFix" result="shape"/><feGaussianBlur stdDeviation="50" result="effect1_foregroundBlur_35_18"/></filter><filter id="s" x="114.378" y="95.284" width="103.247" height="73.64" filterUnits="userSpaceOnUse" color-interpolation-filters="sRGB"><feFlood flood-opacity="0" result="BackgroundImageFix"/><feBlend in="SourceGraphic" in2="BackgroundImageFix" result="shape"/><feGaussianBlur stdDeviation="12.16" result="effect1_foregroundBlur_35_18"/></filter><filter id="d" x="-102.156" y="-14.892" width="420.318" height="460.596" filterUnits="userSpaceOnUse" color-interpolation-filters="sRGB"><feFlood flood-opacity="0" result="BackgroundImageFix"/><feBlend in="SourceGraphic" in2="BackgroundImageFix" result="shape"/><feGaussianBlur stdDeviation="55.13" result="effect1_foregroundBlur_35_18"/></filter><filter id="u" x="117.572" y="101.73" width="87.033" height="78.436" filterUnits="userSpaceOnUse" color-interpolation-filters="sRGB"><feFlood flood-opacity="0" result="BackgroundImageFix"/><feBlend in="SourceGraphic" in2="BackgroundImageFix" result="shape"/><feGaussianBlur stdDeviation="4.422" result="effect1_foregroundBlur_35_18"/></filter><filter id="v" x="96.035" y="104.209" width="103.247" height="73.64" filterUnits="userSpaceOnUse" color-interpolation-filters="sRGB"><feFlood flood-opacity="0" result="BackgroundImageFix"/><feBlend in="SourceGraphic" in2="BackgroundImageFix" result="shape"/><feGaussianBlur stdDeviation="12.16" result="effect1_foregroundBlur_35_18"/></filter><filter id="w" x="88.114" y="4.308" width="268.723" height="280.035" filterUnits="userSpaceOnUse" color-interpolation-filters="sRGB"><feFlood flood-opacity="0" result="BackgroundImageFix"/><feBlend in="SourceGraphic" in2="BackgroundImageFix" result="shape"/><feGaussianBlur stdDeviation="50" result="effect1_foregroundBlur_35_18"/></filter><filter id="y" x="23.206" y="-5.516" width="275.494" height="274.54" filterUnits="userSpaceOnUse" color-interpolation-filters="sRGB"><feFlood flood-opacity="0" result="BackgroundImageFix"/><feBlend in="SourceGraphic" in2="BackgroundImageFix" result="shape"/><feGaussianBlur stdDeviation="50" result="effect1_foregroundBlur_35_18"/></filter><filter id="A" x="157.868" y="95.022" width="83.791" height="54.185" filterUnits="userSpaceOnUse" color-interpolation-filters="sRGB"><feFlood flood-opacity="0" result="BackgroundImageFix"/><feBlend in="SourceGraphic" in2="BackgroundImageFix" result="shape"/><feGaussianBlur stdDeviation="7.296" result="effect1_foregroundBlur_35_18"/></filter><linearGradient id="k" x1="98.525" y1="64.289" x2="191.995" y2="239.323" gradientUnits="userSpaceOnUse"><stop stop-color="#fff" stop-opacity=".3"/><stop offset="1" stop-color="#fff" stop-opacity="0"/></linearGradient><linearGradient id="o" x1="505.165" y1="206.174" x2="226.551" y2="484.436" gradientUnits="userSpaceOnUse"><stop stop-color="#fff"/><stop offset="1" stop-color="#fff" stop-opacity="0"/></linearGradient><linearGradient id="x" x1="190.645" y1="111.991" x2="210.632" y2="149.466" gradientUnits="userSpaceOnUse"><stop stop-color="#fff"/><stop offset="1" stop-color="#fff" stop-opacity="0"/></linearGradient><linearGradient id="z" x1="139.421" y1="92.304" x2="170.446" y2="121.309" gradientUnits="userSpaceOnUse"><stop stop-color="#AAA"/><stop offset="1" stop-color="#AAA" stop-opacity="0"/></linearGradient><radialGradient id="p" cx="0" cy="0" r="1" gradientTransform="matrix(146.499 92.4417 -62.9747 215.034 42.41 51.08)" gradientUnits="userSpaceOnUse"><stop stop-color="#fff"/><stop offset="1" stop-color="#fff" stop-opacity="0"/></radialGradient><radialGradient id="B" cx="0" cy="0" r="1" gradientUnits="userSpaceOnUse" gradientTransform="matrix(0 19.0716 -22.8859 0 172.123 117)"><stop stop-color="#fff" stop-opacity="0"/><stop offset="1" stop-color="#fff" stop-opacity=".8"/></radialGradient><radialGradient id="C" cx="0" cy="0" r="1" gradientTransform="matrix(50.6534 22.3048 -21.7742 51.8846 155.049 105.136)" gradientUnits="userSpaceOnUse"><stop stop-color="#fff"/><stop offset="1" stop-color="#fff" stop-opacity="0"/></radialGradient></defs></svg>