<svg xmlns="http://www.w3.org/2000/svg" width="339" height="365" fill="none" viewBox="0 0 339 365"><path fill="#393939" d="M164.363 13.63c0-7.2-5.801-13-13-13h-138.3c-7.2 0-13 5.8-13 13v209.4c0 7.2 5.8 13 13 13h267.6c7.2 0 13-5.8 13-13V39.63c0-7.2-5.8-13-13-13H177.462c-7.3 0-13.099-5.8-13.099-13Z"/><path fill="#fff" d="M26.262 122.83v-2a2 2 0 0 0-2 2h2Zm17.1 0h2a2 2 0 0 0-2-2v2Zm0 16.5v2a2 2 0 0 0 2-2h-2Zm-17.1 0h-2a2 2 0 0 0 2 2v-2Zm175.7-16.5v-2a2 2 0 0 0-2 2h2Zm17.1 0h2a2 2 0 0 0-2-2v2Zm0 16.5v2a2 2 0 0 0 2-2h-2Zm-17.1 0h-2a2 2 0 0 0 2 2v-2Zm-175.7 206.898v-2a2 2 0 0 0-2 2h2Zm17.1 0h2a2 2 0 0 0-2-2v2Zm0 16.5v2a2 2 0 0 0 2-2h-2Zm-17.1 0h-2a2 2 0 0 0 2 2v-2Zm175.7-16.5v-2a2 2 0 0 0-2 2h2Zm17.1 0h2a2 2 0 0 0-2-2v2Zm0 16.5v2a2 2 0 0 0 2-2h-2Zm-17.1 0h-2a2 2 0 0 0 2 2v-2ZM26.262 124.83h17.1v-4h-17.1v4Zm15.1-2v16.5h4v-16.5h-4Zm2 14.5h-17.1v4h17.1v-4Zm-15.1 2v-16.5h-4v16.5h4Zm173.7-14.5h17.1v-4h-17.1v4Zm15.1-2v16.5h4v-16.5h-4Zm2 14.5h-17.1v4h17.1v-4Zm-15.1 2v-16.5h-4v16.5h4Zm-177.7 208.898h17.1v-4h-17.1v4Zm15.1-2v16.5h4v-16.5h-4Zm2 14.5h-17.1v4h17.1v-4Zm-15.1 2v-16.5h-4v16.5h4Zm173.7-14.5h17.1v-4h-17.1v4Zm15.1-2v16.5h4v-16.5h-4Zm2 14.5h-17.1v4h17.1v-4Zm-15.1 2v-16.5h-4v16.5h4Z"/><path stroke="#fff" stroke-linecap="round" stroke-linejoin="round" stroke-width="4" d="M50.262 131.028h2"/><path stroke="#fff" stroke-dasharray="4.16 10.4" stroke-linecap="round" stroke-linejoin="round" stroke-width="4" d="M62.664 131.028h125.8"/><path stroke="#fff" stroke-linecap="round" stroke-linejoin="round" stroke-width="4" d="M193.664 131.028h2M50.262 354.43h2"/><path stroke="#fff" stroke-dasharray="4.16 10.4" stroke-linecap="round" stroke-linejoin="round" stroke-width="4" d="M62.662 354.43h125.8"/><path stroke="#fff" stroke-linecap="round" stroke-linejoin="round" stroke-width="4" d="M193.662 354.43h2M34.863 145.528v2"/><path stroke="#fff" stroke-dasharray="3.95 9.87" stroke-linecap="round" stroke-linejoin="round" stroke-width="4" d="M34.863 157.328v174.8"/><path stroke="#fff" stroke-linecap="round" stroke-linejoin="round" stroke-width="4" d="M34.863 337.028v2m175.699-193.5v2"/><path stroke="#fff" stroke-dasharray="3.95 9.87" stroke-linecap="round" stroke-linejoin="round" stroke-width="4" d="M210.562 157.328v174.8"/><path stroke="#fff" stroke-linecap="round" stroke-linejoin="round" stroke-width="4" d="M210.562 337.028v2M91.563 102.73c0-19 15.4-34.4 34.4-34.4"/><path fill="#fff" d="m93.062 114.031 8.1-12.3c.8-1.2-.1-2.8-1.5-2.8h-16.2c-1.4 0-2.3 1.6-1.5 2.8l8.1 12.3c.7 1.1 2.3 1.1 3 0Z"/><path fill="#FF7E46" d="m316.462 296.329-163.1 10.1c-6.7.4-12.2-4.6-12.2-11.3v-234.7c0-6.7 5.5-11.4 12.2-10.6l163.1 19.8c5.2.6 9.4 5.8 9.4 11.6v204c0 5.8-4.2 10.8-9.4 11.1Z"/><path stroke="#fff" stroke-dasharray="4 10" stroke-linecap="round" stroke-linejoin="round" stroke-width="4" d="m301.162 198.83-131.8-2.2c-4.5-.1-8.2-3.8-8.2-8.3V79.63c0-4.9 4.3-8.8 9.2-8.2l131.9 14.2c4.2.5 7.4 4 7.4 8.2v96.7c0 4.7-3.8 8.4-8.5 8.3v0Z" clip-rule="evenodd"/><path fill="#fff" d="m166.962 286.331-.098-1.997-.027.001.125 1.996Zm0-68.9.003-2h-.003v2Zm57.2.1-.004 2h.004v-2Zm5.2 60.4h-2l.001.069 1.999-.069Zm-64.411-59.138a1.999 1.999 0 1 0-2.779 2.877l2.779-2.877Zm61.221 64.677a2 2 0 0 0 2.779-2.877l-2.779 2.877Zm2.924-63.247a1.999 1.999 0 1 0-2.869-2.787l2.869 2.787Zm-67.269 63.513a2 2 0 1 0 2.869 2.787l-2.869-2.787Zm92.835-1.703.071 1.999.024-.001-.095-1.998Zm0-64.5.004-2h-.004v2Zm50.3.1-.004 2h.004v-2Zm4.6 56.7h-2l.001.071 1.999-.071Zm-4.6 5.3-.077-1.999-.018.001.095 1.998Zm-50.664-60.695a2 2 0 0 0-2.873 2.783l2.873-2.783Zm52.727 60.183a1.999 1.999 0 1 0 2.873-2.783l-2.873 2.783Zm2.513-59.04a2.001 2.001 0 0 0-2.952-2.7l2.952 2.7Zm-59.752 59.4a2 2 0 1 0 2.952 2.7l-2.952-2.7Zm-25.722 2.053-57.2 2.8.196 3.995 57.2-2.8-.196-3.995Zm-57.227 2.801c-2 .125-3.575-1.408-3.575-3.404h-4c0 4.205 3.424 7.671 7.824 7.396l-.249-3.992Zm-3.575-3.404v-57.8h-4v57.8h4Zm0-57.8c0-2.072 1.681-3.7 3.7-3.7v-4c-4.182 0-7.7 3.373-7.7 7.7h4Zm3.696-3.7 57.2.1.007-4-57.2-.1-.007 4Zm57.204.1c1.722 0 3.2 1.43 3.2 3.4h4c0-4.03-3.122-7.4-7.2-7.4v4Zm3.2 3.4v55h4v-55h-4Zm.001 55.069c.06 1.75-1.44 3.405-3.339 3.536l.275 3.991c3.901-.27 7.201-3.615 7.062-7.665l-3.998.138Zm-65.191-56.33 64 61.8 2.779-2.877-64-61.8-2.779 2.877Zm66.779 58.923-64-61.8-2.779 2.877 64 61.8 2.779-2.877Zm-2.724-63.157-64.4 66.3 2.869 2.787 64.4-66.3-2.869-2.787Zm-61.531 69.087 64.4-66.3-2.869-2.787-64.4 66.3 2.869 2.787Zm140.171-8.888-50.3 2.4.19 3.996 50.3-2.4-.19-3.996Zm-50.276 2.399c-1.549.055-2.929-1.211-2.929-3.101h-4c0 3.909 3.02 7.243 7.071 7.099l-.142-3.998Zm-2.929-3.101v-54.1h-4v54.1h4Zm0-54.1c0-1.972 1.48-3.3 3-3.3v-4c-3.88 0-7 3.272-7 7.3h4Zm2.996-3.3 50.3.1.008-4-50.3-.1-.008 4Zm50.304.1c1.287 0 2.6 1.183 2.6 3.1h4c0-3.683-2.686-7.1-6.6-7.1v4Zm2.6 3.1v51.6h4v-51.6h-4Zm.001 51.671c.065 1.822-1.299 3.177-2.678 3.23l.154 3.997c3.821-.147 6.657-3.591 6.522-7.37l-3.998.143Zm-56.138-52.683 55.6 57.4 2.873-2.783-55.6-57.4-2.873 2.783Zm58.473 54.617-55.6-57.4-2.873 2.783 55.6 57.4 2.873-2.783Zm-3.312-58.957-56.8 62.1 2.952 2.7 56.8-62.1-2.952-2.7Zm-53.848 64.8 56.8-62.1-2.952-2.7-56.8 62.1 2.952 2.7Z"/><path fill="#262626" d="m315.462 185.632-138.1-2.3c-3.1-.1-5.6-2.6-5.6-5.7v-115c0-3.4 3-6.1 6.3-5.7l138.1 14.8c2.9.3 5.1 2.8 5.1 5.7v102.5c0 3.2-2.6 5.8-5.8 5.7Z" opacity=".2"/><path fill="#FFE2D6" d="m333.763 174.53-144.8-2.4c-2.8 0-5-2.3-5-5.1v-121c0-3 2.6-5.4 5.6-5l144.9 15.6c2.6.3 4.5 2.4 4.5 5v107.8c0 2.9-2.3 5.1-5.2 5.1Z"/><path fill="#262626" d="M269.563 87.431a2 2 0 1 0-4 0h4Zm-4 43.6a2 2 0 0 0 4 0h-4Zm22.581-18.502a2 2 0 1 0 .238-3.993l-.238 3.993Zm-41.662-6.493a2 2 0 0 0-.238 3.993l.238-3.993Zm19.081-18.605v43.6h4v-43.6h-4Zm22.819 21.105-41.9-2.5-.238 3.993 41.9 2.5.238-3.993Z"/></svg>